%TF.GenerationSoftware,KiCad,Pcbnew,8.0.5*%
%TF.CreationDate,2024-09-22T23:26:16-04:00*%
%TF.ProjectId,DualHbridgeDaughterboardDesign,4475616c-4862-4726-9964-676544617567,rev?*%
%TF.SameCoordinates,Original*%
%TF.FileFunction,Soldermask,Bot*%
%TF.FilePolarity,Negative*%
%FSLAX46Y46*%
G04 Gerber Fmt 4.6, Leading zero omitted, Abs format (unit mm)*
G04 Created by KiCad (PCBNEW 8.0.5) date 2024-09-22 23:26:16*
%MOMM*%
%LPD*%
G01*
G04 APERTURE LIST*
%ADD10R,3.960000X1.980000*%
%ADD11O,3.960000X1.980000*%
%ADD12R,1.980000X3.960000*%
%ADD13O,1.980000X3.960000*%
%ADD14C,3.200000*%
%ADD15O,1.727200X1.727200*%
%ADD16R,1.727200X1.727200*%
G04 APERTURE END LIST*
D10*
%TO.C,J1*%
X81200000Y-101500000D03*
D11*
X81200000Y-96500000D03*
%TD*%
D10*
%TO.C,J2*%
X165800000Y-101400000D03*
D11*
X165800000Y-96400000D03*
%TD*%
D12*
%TO.C,J4*%
X107200000Y-79000000D03*
D13*
X112200000Y-79000000D03*
%TD*%
D14*
%TO.C,J3*%
X78500000Y-76500000D03*
X78500000Y-120000000D03*
X168500000Y-76500000D03*
X168500000Y-120000000D03*
D15*
X84680000Y-122460000D03*
X162150000Y-122460000D03*
X157070000Y-74200000D03*
X154530000Y-74200000D03*
X151990000Y-74200000D03*
X149450000Y-74200000D03*
X146910000Y-74200000D03*
X144370000Y-74200000D03*
X140306000Y-74200000D03*
X137766000Y-74200000D03*
X135226000Y-74200000D03*
X132686000Y-74200000D03*
X130146000Y-74200000D03*
X127606000Y-74200000D03*
X149450000Y-122460000D03*
X151990000Y-122460000D03*
X154530000Y-122460000D03*
X157070000Y-122460000D03*
X159610000Y-122460000D03*
X92300000Y-74200000D03*
X144370000Y-122460000D03*
D16*
X141830000Y-122460000D03*
X139290000Y-122460000D03*
D15*
X136750000Y-122460000D03*
X134210000Y-122460000D03*
X131670000Y-122460000D03*
X129130000Y-122460000D03*
X126590000Y-122460000D03*
D16*
X125066000Y-74200000D03*
D15*
X122526000Y-74200000D03*
X94840000Y-122460000D03*
X92300000Y-122460000D03*
X89760000Y-122460000D03*
X87220000Y-122460000D03*
X87220000Y-74200000D03*
X162150000Y-74200000D03*
X159610000Y-74200000D03*
X84680000Y-74200000D03*
X89760000Y-74200000D03*
X94840000Y-74200000D03*
X119986000Y-74200000D03*
X117446000Y-74200000D03*
%TD*%
M02*
