%TF.GenerationSoftware,KiCad,Pcbnew,8.0.5*%
%TF.CreationDate,2024-09-22T23:26:16-04:00*%
%TF.ProjectId,DualHbridgeDaughterboardDesign,4475616c-4862-4726-9964-676544617567,rev?*%
%TF.SameCoordinates,Original*%
%TF.FileFunction,Legend,Bot*%
%TF.FilePolarity,Positive*%
%FSLAX46Y46*%
G04 Gerber Fmt 4.6, Leading zero omitted, Abs format (unit mm)*
G04 Created by KiCad (PCBNEW 8.0.5) date 2024-09-22 23:26:16*
%MOMM*%
%LPD*%
G01*
G04 APERTURE LIST*
%ADD10C,0.150000*%
%ADD11C,0.100000*%
G04 APERTURE END LIST*
D10*
X84447438Y-118060588D02*
X84399819Y-117965350D01*
X84399819Y-117965350D02*
X84399819Y-117822493D01*
X84399819Y-117822493D02*
X84447438Y-117679636D01*
X84447438Y-117679636D02*
X84542676Y-117584398D01*
X84542676Y-117584398D02*
X84637914Y-117536779D01*
X84637914Y-117536779D02*
X84828390Y-117489160D01*
X84828390Y-117489160D02*
X84971247Y-117489160D01*
X84971247Y-117489160D02*
X85161723Y-117536779D01*
X85161723Y-117536779D02*
X85256961Y-117584398D01*
X85256961Y-117584398D02*
X85352200Y-117679636D01*
X85352200Y-117679636D02*
X85399819Y-117822493D01*
X85399819Y-117822493D02*
X85399819Y-117917731D01*
X85399819Y-117917731D02*
X85352200Y-118060588D01*
X85352200Y-118060588D02*
X85304580Y-118108207D01*
X85304580Y-118108207D02*
X84971247Y-118108207D01*
X84971247Y-118108207D02*
X84971247Y-117917731D01*
X85399819Y-118536779D02*
X84399819Y-118536779D01*
X84399819Y-118536779D02*
X84399819Y-118917731D01*
X84399819Y-118917731D02*
X84447438Y-119012969D01*
X84447438Y-119012969D02*
X84495057Y-119060588D01*
X84495057Y-119060588D02*
X84590295Y-119108207D01*
X84590295Y-119108207D02*
X84733152Y-119108207D01*
X84733152Y-119108207D02*
X84828390Y-119060588D01*
X84828390Y-119060588D02*
X84876009Y-119012969D01*
X84876009Y-119012969D02*
X84923628Y-118917731D01*
X84923628Y-118917731D02*
X84923628Y-118536779D01*
X84399819Y-119727255D02*
X84399819Y-119822493D01*
X84399819Y-119822493D02*
X84447438Y-119917731D01*
X84447438Y-119917731D02*
X84495057Y-119965350D01*
X84495057Y-119965350D02*
X84590295Y-120012969D01*
X84590295Y-120012969D02*
X84780771Y-120060588D01*
X84780771Y-120060588D02*
X85018866Y-120060588D01*
X85018866Y-120060588D02*
X85209342Y-120012969D01*
X85209342Y-120012969D02*
X85304580Y-119965350D01*
X85304580Y-119965350D02*
X85352200Y-119917731D01*
X85352200Y-119917731D02*
X85399819Y-119822493D01*
X85399819Y-119822493D02*
X85399819Y-119727255D01*
X85399819Y-119727255D02*
X85352200Y-119632017D01*
X85352200Y-119632017D02*
X85304580Y-119584398D01*
X85304580Y-119584398D02*
X85209342Y-119536779D01*
X85209342Y-119536779D02*
X85018866Y-119489160D01*
X85018866Y-119489160D02*
X84780771Y-119489160D01*
X84780771Y-119489160D02*
X84590295Y-119536779D01*
X84590295Y-119536779D02*
X84495057Y-119584398D01*
X84495057Y-119584398D02*
X84447438Y-119632017D01*
X84447438Y-119632017D02*
X84399819Y-119727255D01*
X154002438Y-117110588D02*
X153954819Y-117015350D01*
X153954819Y-117015350D02*
X153954819Y-116872493D01*
X153954819Y-116872493D02*
X154002438Y-116729636D01*
X154002438Y-116729636D02*
X154097676Y-116634398D01*
X154097676Y-116634398D02*
X154192914Y-116586779D01*
X154192914Y-116586779D02*
X154383390Y-116539160D01*
X154383390Y-116539160D02*
X154526247Y-116539160D01*
X154526247Y-116539160D02*
X154716723Y-116586779D01*
X154716723Y-116586779D02*
X154811961Y-116634398D01*
X154811961Y-116634398D02*
X154907200Y-116729636D01*
X154907200Y-116729636D02*
X154954819Y-116872493D01*
X154954819Y-116872493D02*
X154954819Y-116967731D01*
X154954819Y-116967731D02*
X154907200Y-117110588D01*
X154907200Y-117110588D02*
X154859580Y-117158207D01*
X154859580Y-117158207D02*
X154526247Y-117158207D01*
X154526247Y-117158207D02*
X154526247Y-116967731D01*
X154954819Y-117586779D02*
X153954819Y-117586779D01*
X153954819Y-117586779D02*
X153954819Y-117967731D01*
X153954819Y-117967731D02*
X154002438Y-118062969D01*
X154002438Y-118062969D02*
X154050057Y-118110588D01*
X154050057Y-118110588D02*
X154145295Y-118158207D01*
X154145295Y-118158207D02*
X154288152Y-118158207D01*
X154288152Y-118158207D02*
X154383390Y-118110588D01*
X154383390Y-118110588D02*
X154431009Y-118062969D01*
X154431009Y-118062969D02*
X154478628Y-117967731D01*
X154478628Y-117967731D02*
X154478628Y-117586779D01*
X154954819Y-119110588D02*
X154954819Y-118539160D01*
X154954819Y-118824874D02*
X153954819Y-118824874D01*
X153954819Y-118824874D02*
X154097676Y-118729636D01*
X154097676Y-118729636D02*
X154192914Y-118634398D01*
X154192914Y-118634398D02*
X154240533Y-118539160D01*
X153954819Y-119967731D02*
X153954819Y-119777255D01*
X153954819Y-119777255D02*
X154002438Y-119682017D01*
X154002438Y-119682017D02*
X154050057Y-119634398D01*
X154050057Y-119634398D02*
X154192914Y-119539160D01*
X154192914Y-119539160D02*
X154383390Y-119491541D01*
X154383390Y-119491541D02*
X154764342Y-119491541D01*
X154764342Y-119491541D02*
X154859580Y-119539160D01*
X154859580Y-119539160D02*
X154907200Y-119586779D01*
X154907200Y-119586779D02*
X154954819Y-119682017D01*
X154954819Y-119682017D02*
X154954819Y-119872493D01*
X154954819Y-119872493D02*
X154907200Y-119967731D01*
X154907200Y-119967731D02*
X154859580Y-120015350D01*
X154859580Y-120015350D02*
X154764342Y-120062969D01*
X154764342Y-120062969D02*
X154526247Y-120062969D01*
X154526247Y-120062969D02*
X154431009Y-120015350D01*
X154431009Y-120015350D02*
X154383390Y-119967731D01*
X154383390Y-119967731D02*
X154335771Y-119872493D01*
X154335771Y-119872493D02*
X154335771Y-119682017D01*
X154335771Y-119682017D02*
X154383390Y-119586779D01*
X154383390Y-119586779D02*
X154431009Y-119539160D01*
X154431009Y-119539160D02*
X154526247Y-119491541D01*
X159162438Y-117610588D02*
X159114819Y-117515350D01*
X159114819Y-117515350D02*
X159114819Y-117372493D01*
X159114819Y-117372493D02*
X159162438Y-117229636D01*
X159162438Y-117229636D02*
X159257676Y-117134398D01*
X159257676Y-117134398D02*
X159352914Y-117086779D01*
X159352914Y-117086779D02*
X159543390Y-117039160D01*
X159543390Y-117039160D02*
X159686247Y-117039160D01*
X159686247Y-117039160D02*
X159876723Y-117086779D01*
X159876723Y-117086779D02*
X159971961Y-117134398D01*
X159971961Y-117134398D02*
X160067200Y-117229636D01*
X160067200Y-117229636D02*
X160114819Y-117372493D01*
X160114819Y-117372493D02*
X160114819Y-117467731D01*
X160114819Y-117467731D02*
X160067200Y-117610588D01*
X160067200Y-117610588D02*
X160019580Y-117658207D01*
X160019580Y-117658207D02*
X159686247Y-117658207D01*
X159686247Y-117658207D02*
X159686247Y-117467731D01*
X160114819Y-118086779D02*
X159114819Y-118086779D01*
X159114819Y-118086779D02*
X159114819Y-118467731D01*
X159114819Y-118467731D02*
X159162438Y-118562969D01*
X159162438Y-118562969D02*
X159210057Y-118610588D01*
X159210057Y-118610588D02*
X159305295Y-118658207D01*
X159305295Y-118658207D02*
X159448152Y-118658207D01*
X159448152Y-118658207D02*
X159543390Y-118610588D01*
X159543390Y-118610588D02*
X159591009Y-118562969D01*
X159591009Y-118562969D02*
X159638628Y-118467731D01*
X159638628Y-118467731D02*
X159638628Y-118086779D01*
X160114819Y-119610588D02*
X160114819Y-119039160D01*
X160114819Y-119324874D02*
X159114819Y-119324874D01*
X159114819Y-119324874D02*
X159257676Y-119229636D01*
X159257676Y-119229636D02*
X159352914Y-119134398D01*
X159352914Y-119134398D02*
X159400533Y-119039160D01*
X159543390Y-120182017D02*
X159495771Y-120086779D01*
X159495771Y-120086779D02*
X159448152Y-120039160D01*
X159448152Y-120039160D02*
X159352914Y-119991541D01*
X159352914Y-119991541D02*
X159305295Y-119991541D01*
X159305295Y-119991541D02*
X159210057Y-120039160D01*
X159210057Y-120039160D02*
X159162438Y-120086779D01*
X159162438Y-120086779D02*
X159114819Y-120182017D01*
X159114819Y-120182017D02*
X159114819Y-120372493D01*
X159114819Y-120372493D02*
X159162438Y-120467731D01*
X159162438Y-120467731D02*
X159210057Y-120515350D01*
X159210057Y-120515350D02*
X159305295Y-120562969D01*
X159305295Y-120562969D02*
X159352914Y-120562969D01*
X159352914Y-120562969D02*
X159448152Y-120515350D01*
X159448152Y-120515350D02*
X159495771Y-120467731D01*
X159495771Y-120467731D02*
X159543390Y-120372493D01*
X159543390Y-120372493D02*
X159543390Y-120182017D01*
X159543390Y-120182017D02*
X159591009Y-120086779D01*
X159591009Y-120086779D02*
X159638628Y-120039160D01*
X159638628Y-120039160D02*
X159733866Y-119991541D01*
X159733866Y-119991541D02*
X159924342Y-119991541D01*
X159924342Y-119991541D02*
X160019580Y-120039160D01*
X160019580Y-120039160D02*
X160067200Y-120086779D01*
X160067200Y-120086779D02*
X160114819Y-120182017D01*
X160114819Y-120182017D02*
X160114819Y-120372493D01*
X160114819Y-120372493D02*
X160067200Y-120467731D01*
X160067200Y-120467731D02*
X160019580Y-120515350D01*
X160019580Y-120515350D02*
X159924342Y-120562969D01*
X159924342Y-120562969D02*
X159733866Y-120562969D01*
X159733866Y-120562969D02*
X159638628Y-120515350D01*
X159638628Y-120515350D02*
X159591009Y-120467731D01*
X159591009Y-120467731D02*
X159543390Y-120372493D01*
X156917438Y-117110588D02*
X156869819Y-117015350D01*
X156869819Y-117015350D02*
X156869819Y-116872493D01*
X156869819Y-116872493D02*
X156917438Y-116729636D01*
X156917438Y-116729636D02*
X157012676Y-116634398D01*
X157012676Y-116634398D02*
X157107914Y-116586779D01*
X157107914Y-116586779D02*
X157298390Y-116539160D01*
X157298390Y-116539160D02*
X157441247Y-116539160D01*
X157441247Y-116539160D02*
X157631723Y-116586779D01*
X157631723Y-116586779D02*
X157726961Y-116634398D01*
X157726961Y-116634398D02*
X157822200Y-116729636D01*
X157822200Y-116729636D02*
X157869819Y-116872493D01*
X157869819Y-116872493D02*
X157869819Y-116967731D01*
X157869819Y-116967731D02*
X157822200Y-117110588D01*
X157822200Y-117110588D02*
X157774580Y-117158207D01*
X157774580Y-117158207D02*
X157441247Y-117158207D01*
X157441247Y-117158207D02*
X157441247Y-116967731D01*
X157869819Y-117586779D02*
X156869819Y-117586779D01*
X156869819Y-117586779D02*
X156869819Y-117967731D01*
X156869819Y-117967731D02*
X156917438Y-118062969D01*
X156917438Y-118062969D02*
X156965057Y-118110588D01*
X156965057Y-118110588D02*
X157060295Y-118158207D01*
X157060295Y-118158207D02*
X157203152Y-118158207D01*
X157203152Y-118158207D02*
X157298390Y-118110588D01*
X157298390Y-118110588D02*
X157346009Y-118062969D01*
X157346009Y-118062969D02*
X157393628Y-117967731D01*
X157393628Y-117967731D02*
X157393628Y-117586779D01*
X157869819Y-119110588D02*
X157869819Y-118539160D01*
X157869819Y-118824874D02*
X156869819Y-118824874D01*
X156869819Y-118824874D02*
X157012676Y-118729636D01*
X157012676Y-118729636D02*
X157107914Y-118634398D01*
X157107914Y-118634398D02*
X157155533Y-118539160D01*
X156869819Y-119443922D02*
X156869819Y-120110588D01*
X156869819Y-120110588D02*
X157869819Y-119682017D01*
X159947319Y-76908207D02*
X159471128Y-76574874D01*
X159947319Y-76336779D02*
X158947319Y-76336779D01*
X158947319Y-76336779D02*
X158947319Y-76717731D01*
X158947319Y-76717731D02*
X158994938Y-76812969D01*
X158994938Y-76812969D02*
X159042557Y-76860588D01*
X159042557Y-76860588D02*
X159137795Y-76908207D01*
X159137795Y-76908207D02*
X159280652Y-76908207D01*
X159280652Y-76908207D02*
X159375890Y-76860588D01*
X159375890Y-76860588D02*
X159423509Y-76812969D01*
X159423509Y-76812969D02*
X159471128Y-76717731D01*
X159471128Y-76717731D02*
X159471128Y-76336779D01*
X158947319Y-77241541D02*
X159947319Y-77908207D01*
X158947319Y-77908207D02*
X159947319Y-77241541D01*
X160042557Y-78051065D02*
X160042557Y-78812969D01*
X158994938Y-79574874D02*
X158947319Y-79479636D01*
X158947319Y-79479636D02*
X158947319Y-79336779D01*
X158947319Y-79336779D02*
X158994938Y-79193922D01*
X158994938Y-79193922D02*
X159090176Y-79098684D01*
X159090176Y-79098684D02*
X159185414Y-79051065D01*
X159185414Y-79051065D02*
X159375890Y-79003446D01*
X159375890Y-79003446D02*
X159518747Y-79003446D01*
X159518747Y-79003446D02*
X159709223Y-79051065D01*
X159709223Y-79051065D02*
X159804461Y-79098684D01*
X159804461Y-79098684D02*
X159899700Y-79193922D01*
X159899700Y-79193922D02*
X159947319Y-79336779D01*
X159947319Y-79336779D02*
X159947319Y-79432017D01*
X159947319Y-79432017D02*
X159899700Y-79574874D01*
X159899700Y-79574874D02*
X159852080Y-79622493D01*
X159852080Y-79622493D02*
X159518747Y-79622493D01*
X159518747Y-79622493D02*
X159518747Y-79432017D01*
X159947319Y-80051065D02*
X158947319Y-80051065D01*
X158947319Y-80051065D02*
X158947319Y-80432017D01*
X158947319Y-80432017D02*
X158994938Y-80527255D01*
X158994938Y-80527255D02*
X159042557Y-80574874D01*
X159042557Y-80574874D02*
X159137795Y-80622493D01*
X159137795Y-80622493D02*
X159280652Y-80622493D01*
X159280652Y-80622493D02*
X159375890Y-80574874D01*
X159375890Y-80574874D02*
X159423509Y-80527255D01*
X159423509Y-80527255D02*
X159471128Y-80432017D01*
X159471128Y-80432017D02*
X159471128Y-80051065D01*
X159280652Y-81479636D02*
X159947319Y-81479636D01*
X158899700Y-81241541D02*
X159613985Y-81003446D01*
X159613985Y-81003446D02*
X159613985Y-81622493D01*
X159947319Y-82527255D02*
X159947319Y-81955827D01*
X159947319Y-82241541D02*
X158947319Y-82241541D01*
X158947319Y-82241541D02*
X159090176Y-82146303D01*
X159090176Y-82146303D02*
X159185414Y-82051065D01*
X159185414Y-82051065D02*
X159233033Y-81955827D01*
X132117438Y-77060588D02*
X132069819Y-76965350D01*
X132069819Y-76965350D02*
X132069819Y-76822493D01*
X132069819Y-76822493D02*
X132117438Y-76679636D01*
X132117438Y-76679636D02*
X132212676Y-76584398D01*
X132212676Y-76584398D02*
X132307914Y-76536779D01*
X132307914Y-76536779D02*
X132498390Y-76489160D01*
X132498390Y-76489160D02*
X132641247Y-76489160D01*
X132641247Y-76489160D02*
X132831723Y-76536779D01*
X132831723Y-76536779D02*
X132926961Y-76584398D01*
X132926961Y-76584398D02*
X133022200Y-76679636D01*
X133022200Y-76679636D02*
X133069819Y-76822493D01*
X133069819Y-76822493D02*
X133069819Y-76917731D01*
X133069819Y-76917731D02*
X133022200Y-77060588D01*
X133022200Y-77060588D02*
X132974580Y-77108207D01*
X132974580Y-77108207D02*
X132641247Y-77108207D01*
X132641247Y-77108207D02*
X132641247Y-76917731D01*
X133069819Y-77536779D02*
X132069819Y-77536779D01*
X132069819Y-77536779D02*
X132069819Y-77917731D01*
X132069819Y-77917731D02*
X132117438Y-78012969D01*
X132117438Y-78012969D02*
X132165057Y-78060588D01*
X132165057Y-78060588D02*
X132260295Y-78108207D01*
X132260295Y-78108207D02*
X132403152Y-78108207D01*
X132403152Y-78108207D02*
X132498390Y-78060588D01*
X132498390Y-78060588D02*
X132546009Y-78012969D01*
X132546009Y-78012969D02*
X132593628Y-77917731D01*
X132593628Y-77917731D02*
X132593628Y-77536779D01*
X133069819Y-79060588D02*
X133069819Y-78489160D01*
X133069819Y-78774874D02*
X132069819Y-78774874D01*
X132069819Y-78774874D02*
X132212676Y-78679636D01*
X132212676Y-78679636D02*
X132307914Y-78584398D01*
X132307914Y-78584398D02*
X132355533Y-78489160D01*
X133069819Y-80012969D02*
X133069819Y-79441541D01*
X133069819Y-79727255D02*
X132069819Y-79727255D01*
X132069819Y-79727255D02*
X132212676Y-79632017D01*
X132212676Y-79632017D02*
X132307914Y-79536779D01*
X132307914Y-79536779D02*
X132355533Y-79441541D01*
X117972200Y-76289160D02*
X118019819Y-76432017D01*
X118019819Y-76432017D02*
X118019819Y-76670112D01*
X118019819Y-76670112D02*
X117972200Y-76765350D01*
X117972200Y-76765350D02*
X117924580Y-76812969D01*
X117924580Y-76812969D02*
X117829342Y-76860588D01*
X117829342Y-76860588D02*
X117734104Y-76860588D01*
X117734104Y-76860588D02*
X117638866Y-76812969D01*
X117638866Y-76812969D02*
X117591247Y-76765350D01*
X117591247Y-76765350D02*
X117543628Y-76670112D01*
X117543628Y-76670112D02*
X117496009Y-76479636D01*
X117496009Y-76479636D02*
X117448390Y-76384398D01*
X117448390Y-76384398D02*
X117400771Y-76336779D01*
X117400771Y-76336779D02*
X117305533Y-76289160D01*
X117305533Y-76289160D02*
X117210295Y-76289160D01*
X117210295Y-76289160D02*
X117115057Y-76336779D01*
X117115057Y-76336779D02*
X117067438Y-76384398D01*
X117067438Y-76384398D02*
X117019819Y-76479636D01*
X117019819Y-76479636D02*
X117019819Y-76717731D01*
X117019819Y-76717731D02*
X117067438Y-76860588D01*
X117924580Y-77860588D02*
X117972200Y-77812969D01*
X117972200Y-77812969D02*
X118019819Y-77670112D01*
X118019819Y-77670112D02*
X118019819Y-77574874D01*
X118019819Y-77574874D02*
X117972200Y-77432017D01*
X117972200Y-77432017D02*
X117876961Y-77336779D01*
X117876961Y-77336779D02*
X117781723Y-77289160D01*
X117781723Y-77289160D02*
X117591247Y-77241541D01*
X117591247Y-77241541D02*
X117448390Y-77241541D01*
X117448390Y-77241541D02*
X117257914Y-77289160D01*
X117257914Y-77289160D02*
X117162676Y-77336779D01*
X117162676Y-77336779D02*
X117067438Y-77432017D01*
X117067438Y-77432017D02*
X117019819Y-77574874D01*
X117019819Y-77574874D02*
X117019819Y-77670112D01*
X117019819Y-77670112D02*
X117067438Y-77812969D01*
X117067438Y-77812969D02*
X117115057Y-77860588D01*
X118019819Y-78765350D02*
X118019819Y-78289160D01*
X118019819Y-78289160D02*
X117019819Y-78289160D01*
X118115057Y-78860589D02*
X118115057Y-79622493D01*
X117067438Y-80384398D02*
X117019819Y-80289160D01*
X117019819Y-80289160D02*
X117019819Y-80146303D01*
X117019819Y-80146303D02*
X117067438Y-80003446D01*
X117067438Y-80003446D02*
X117162676Y-79908208D01*
X117162676Y-79908208D02*
X117257914Y-79860589D01*
X117257914Y-79860589D02*
X117448390Y-79812970D01*
X117448390Y-79812970D02*
X117591247Y-79812970D01*
X117591247Y-79812970D02*
X117781723Y-79860589D01*
X117781723Y-79860589D02*
X117876961Y-79908208D01*
X117876961Y-79908208D02*
X117972200Y-80003446D01*
X117972200Y-80003446D02*
X118019819Y-80146303D01*
X118019819Y-80146303D02*
X118019819Y-80241541D01*
X118019819Y-80241541D02*
X117972200Y-80384398D01*
X117972200Y-80384398D02*
X117924580Y-80432017D01*
X117924580Y-80432017D02*
X117591247Y-80432017D01*
X117591247Y-80432017D02*
X117591247Y-80241541D01*
X118019819Y-80860589D02*
X117019819Y-80860589D01*
X117019819Y-80860589D02*
X117019819Y-81241541D01*
X117019819Y-81241541D02*
X117067438Y-81336779D01*
X117067438Y-81336779D02*
X117115057Y-81384398D01*
X117115057Y-81384398D02*
X117210295Y-81432017D01*
X117210295Y-81432017D02*
X117353152Y-81432017D01*
X117353152Y-81432017D02*
X117448390Y-81384398D01*
X117448390Y-81384398D02*
X117496009Y-81336779D01*
X117496009Y-81336779D02*
X117543628Y-81241541D01*
X117543628Y-81241541D02*
X117543628Y-80860589D01*
X117353152Y-82289160D02*
X118019819Y-82289160D01*
X116972200Y-82051065D02*
X117686485Y-81812970D01*
X117686485Y-81812970D02*
X117686485Y-82432017D01*
X117448390Y-82955827D02*
X117400771Y-82860589D01*
X117400771Y-82860589D02*
X117353152Y-82812970D01*
X117353152Y-82812970D02*
X117257914Y-82765351D01*
X117257914Y-82765351D02*
X117210295Y-82765351D01*
X117210295Y-82765351D02*
X117115057Y-82812970D01*
X117115057Y-82812970D02*
X117067438Y-82860589D01*
X117067438Y-82860589D02*
X117019819Y-82955827D01*
X117019819Y-82955827D02*
X117019819Y-83146303D01*
X117019819Y-83146303D02*
X117067438Y-83241541D01*
X117067438Y-83241541D02*
X117115057Y-83289160D01*
X117115057Y-83289160D02*
X117210295Y-83336779D01*
X117210295Y-83336779D02*
X117257914Y-83336779D01*
X117257914Y-83336779D02*
X117353152Y-83289160D01*
X117353152Y-83289160D02*
X117400771Y-83241541D01*
X117400771Y-83241541D02*
X117448390Y-83146303D01*
X117448390Y-83146303D02*
X117448390Y-82955827D01*
X117448390Y-82955827D02*
X117496009Y-82860589D01*
X117496009Y-82860589D02*
X117543628Y-82812970D01*
X117543628Y-82812970D02*
X117638866Y-82765351D01*
X117638866Y-82765351D02*
X117829342Y-82765351D01*
X117829342Y-82765351D02*
X117924580Y-82812970D01*
X117924580Y-82812970D02*
X117972200Y-82860589D01*
X117972200Y-82860589D02*
X118019819Y-82955827D01*
X118019819Y-82955827D02*
X118019819Y-83146303D01*
X118019819Y-83146303D02*
X117972200Y-83241541D01*
X117972200Y-83241541D02*
X117924580Y-83289160D01*
X117924580Y-83289160D02*
X117829342Y-83336779D01*
X117829342Y-83336779D02*
X117638866Y-83336779D01*
X117638866Y-83336779D02*
X117543628Y-83289160D01*
X117543628Y-83289160D02*
X117496009Y-83241541D01*
X117496009Y-83241541D02*
X117448390Y-83146303D01*
X148917438Y-117110588D02*
X148869819Y-117015350D01*
X148869819Y-117015350D02*
X148869819Y-116872493D01*
X148869819Y-116872493D02*
X148917438Y-116729636D01*
X148917438Y-116729636D02*
X149012676Y-116634398D01*
X149012676Y-116634398D02*
X149107914Y-116586779D01*
X149107914Y-116586779D02*
X149298390Y-116539160D01*
X149298390Y-116539160D02*
X149441247Y-116539160D01*
X149441247Y-116539160D02*
X149631723Y-116586779D01*
X149631723Y-116586779D02*
X149726961Y-116634398D01*
X149726961Y-116634398D02*
X149822200Y-116729636D01*
X149822200Y-116729636D02*
X149869819Y-116872493D01*
X149869819Y-116872493D02*
X149869819Y-116967731D01*
X149869819Y-116967731D02*
X149822200Y-117110588D01*
X149822200Y-117110588D02*
X149774580Y-117158207D01*
X149774580Y-117158207D02*
X149441247Y-117158207D01*
X149441247Y-117158207D02*
X149441247Y-116967731D01*
X149869819Y-117586779D02*
X148869819Y-117586779D01*
X148869819Y-117586779D02*
X148869819Y-117967731D01*
X148869819Y-117967731D02*
X148917438Y-118062969D01*
X148917438Y-118062969D02*
X148965057Y-118110588D01*
X148965057Y-118110588D02*
X149060295Y-118158207D01*
X149060295Y-118158207D02*
X149203152Y-118158207D01*
X149203152Y-118158207D02*
X149298390Y-118110588D01*
X149298390Y-118110588D02*
X149346009Y-118062969D01*
X149346009Y-118062969D02*
X149393628Y-117967731D01*
X149393628Y-117967731D02*
X149393628Y-117586779D01*
X149869819Y-119110588D02*
X149869819Y-118539160D01*
X149869819Y-118824874D02*
X148869819Y-118824874D01*
X148869819Y-118824874D02*
X149012676Y-118729636D01*
X149012676Y-118729636D02*
X149107914Y-118634398D01*
X149107914Y-118634398D02*
X149155533Y-118539160D01*
X149203152Y-119967731D02*
X149869819Y-119967731D01*
X148822200Y-119729636D02*
X149536485Y-119491541D01*
X149536485Y-119491541D02*
X149536485Y-120110588D01*
X94697438Y-117360588D02*
X94649819Y-117265350D01*
X94649819Y-117265350D02*
X94649819Y-117122493D01*
X94649819Y-117122493D02*
X94697438Y-116979636D01*
X94697438Y-116979636D02*
X94792676Y-116884398D01*
X94792676Y-116884398D02*
X94887914Y-116836779D01*
X94887914Y-116836779D02*
X95078390Y-116789160D01*
X95078390Y-116789160D02*
X95221247Y-116789160D01*
X95221247Y-116789160D02*
X95411723Y-116836779D01*
X95411723Y-116836779D02*
X95506961Y-116884398D01*
X95506961Y-116884398D02*
X95602200Y-116979636D01*
X95602200Y-116979636D02*
X95649819Y-117122493D01*
X95649819Y-117122493D02*
X95649819Y-117217731D01*
X95649819Y-117217731D02*
X95602200Y-117360588D01*
X95602200Y-117360588D02*
X95554580Y-117408207D01*
X95554580Y-117408207D02*
X95221247Y-117408207D01*
X95221247Y-117408207D02*
X95221247Y-117217731D01*
X95649819Y-117836779D02*
X94649819Y-117836779D01*
X94649819Y-117836779D02*
X94649819Y-118217731D01*
X94649819Y-118217731D02*
X94697438Y-118312969D01*
X94697438Y-118312969D02*
X94745057Y-118360588D01*
X94745057Y-118360588D02*
X94840295Y-118408207D01*
X94840295Y-118408207D02*
X94983152Y-118408207D01*
X94983152Y-118408207D02*
X95078390Y-118360588D01*
X95078390Y-118360588D02*
X95126009Y-118312969D01*
X95126009Y-118312969D02*
X95173628Y-118217731D01*
X95173628Y-118217731D02*
X95173628Y-117836779D01*
X94649819Y-118741541D02*
X94649819Y-119360588D01*
X94649819Y-119360588D02*
X95030771Y-119027255D01*
X95030771Y-119027255D02*
X95030771Y-119170112D01*
X95030771Y-119170112D02*
X95078390Y-119265350D01*
X95078390Y-119265350D02*
X95126009Y-119312969D01*
X95126009Y-119312969D02*
X95221247Y-119360588D01*
X95221247Y-119360588D02*
X95459342Y-119360588D01*
X95459342Y-119360588D02*
X95554580Y-119312969D01*
X95554580Y-119312969D02*
X95602200Y-119265350D01*
X95602200Y-119265350D02*
X95649819Y-119170112D01*
X95649819Y-119170112D02*
X95649819Y-118884398D01*
X95649819Y-118884398D02*
X95602200Y-118789160D01*
X95602200Y-118789160D02*
X95554580Y-118741541D01*
X94649819Y-120265350D02*
X94649819Y-119789160D01*
X94649819Y-119789160D02*
X95126009Y-119741541D01*
X95126009Y-119741541D02*
X95078390Y-119789160D01*
X95078390Y-119789160D02*
X95030771Y-119884398D01*
X95030771Y-119884398D02*
X95030771Y-120122493D01*
X95030771Y-120122493D02*
X95078390Y-120217731D01*
X95078390Y-120217731D02*
X95126009Y-120265350D01*
X95126009Y-120265350D02*
X95221247Y-120312969D01*
X95221247Y-120312969D02*
X95459342Y-120312969D01*
X95459342Y-120312969D02*
X95554580Y-120265350D01*
X95554580Y-120265350D02*
X95602200Y-120217731D01*
X95602200Y-120217731D02*
X95649819Y-120122493D01*
X95649819Y-120122493D02*
X95649819Y-119884398D01*
X95649819Y-119884398D02*
X95602200Y-119789160D01*
X95602200Y-119789160D02*
X95554580Y-119741541D01*
X120422200Y-76289160D02*
X120469819Y-76432017D01*
X120469819Y-76432017D02*
X120469819Y-76670112D01*
X120469819Y-76670112D02*
X120422200Y-76765350D01*
X120422200Y-76765350D02*
X120374580Y-76812969D01*
X120374580Y-76812969D02*
X120279342Y-76860588D01*
X120279342Y-76860588D02*
X120184104Y-76860588D01*
X120184104Y-76860588D02*
X120088866Y-76812969D01*
X120088866Y-76812969D02*
X120041247Y-76765350D01*
X120041247Y-76765350D02*
X119993628Y-76670112D01*
X119993628Y-76670112D02*
X119946009Y-76479636D01*
X119946009Y-76479636D02*
X119898390Y-76384398D01*
X119898390Y-76384398D02*
X119850771Y-76336779D01*
X119850771Y-76336779D02*
X119755533Y-76289160D01*
X119755533Y-76289160D02*
X119660295Y-76289160D01*
X119660295Y-76289160D02*
X119565057Y-76336779D01*
X119565057Y-76336779D02*
X119517438Y-76384398D01*
X119517438Y-76384398D02*
X119469819Y-76479636D01*
X119469819Y-76479636D02*
X119469819Y-76717731D01*
X119469819Y-76717731D02*
X119517438Y-76860588D01*
X120469819Y-77289160D02*
X119469819Y-77289160D01*
X119469819Y-77289160D02*
X119469819Y-77527255D01*
X119469819Y-77527255D02*
X119517438Y-77670112D01*
X119517438Y-77670112D02*
X119612676Y-77765350D01*
X119612676Y-77765350D02*
X119707914Y-77812969D01*
X119707914Y-77812969D02*
X119898390Y-77860588D01*
X119898390Y-77860588D02*
X120041247Y-77860588D01*
X120041247Y-77860588D02*
X120231723Y-77812969D01*
X120231723Y-77812969D02*
X120326961Y-77765350D01*
X120326961Y-77765350D02*
X120422200Y-77670112D01*
X120422200Y-77670112D02*
X120469819Y-77527255D01*
X120469819Y-77527255D02*
X120469819Y-77289160D01*
X120184104Y-78241541D02*
X120184104Y-78717731D01*
X120469819Y-78146303D02*
X119469819Y-78479636D01*
X119469819Y-78479636D02*
X120469819Y-78812969D01*
X120565057Y-78908208D02*
X120565057Y-79670112D01*
X119517438Y-80432017D02*
X119469819Y-80336779D01*
X119469819Y-80336779D02*
X119469819Y-80193922D01*
X119469819Y-80193922D02*
X119517438Y-80051065D01*
X119517438Y-80051065D02*
X119612676Y-79955827D01*
X119612676Y-79955827D02*
X119707914Y-79908208D01*
X119707914Y-79908208D02*
X119898390Y-79860589D01*
X119898390Y-79860589D02*
X120041247Y-79860589D01*
X120041247Y-79860589D02*
X120231723Y-79908208D01*
X120231723Y-79908208D02*
X120326961Y-79955827D01*
X120326961Y-79955827D02*
X120422200Y-80051065D01*
X120422200Y-80051065D02*
X120469819Y-80193922D01*
X120469819Y-80193922D02*
X120469819Y-80289160D01*
X120469819Y-80289160D02*
X120422200Y-80432017D01*
X120422200Y-80432017D02*
X120374580Y-80479636D01*
X120374580Y-80479636D02*
X120041247Y-80479636D01*
X120041247Y-80479636D02*
X120041247Y-80289160D01*
X120469819Y-80908208D02*
X119469819Y-80908208D01*
X119469819Y-80908208D02*
X119469819Y-81289160D01*
X119469819Y-81289160D02*
X119517438Y-81384398D01*
X119517438Y-81384398D02*
X119565057Y-81432017D01*
X119565057Y-81432017D02*
X119660295Y-81479636D01*
X119660295Y-81479636D02*
X119803152Y-81479636D01*
X119803152Y-81479636D02*
X119898390Y-81432017D01*
X119898390Y-81432017D02*
X119946009Y-81384398D01*
X119946009Y-81384398D02*
X119993628Y-81289160D01*
X119993628Y-81289160D02*
X119993628Y-80908208D01*
X119803152Y-82336779D02*
X120469819Y-82336779D01*
X119422200Y-82098684D02*
X120136485Y-81860589D01*
X120136485Y-81860589D02*
X120136485Y-82479636D01*
X119469819Y-82765351D02*
X119469819Y-83432017D01*
X119469819Y-83432017D02*
X120469819Y-83003446D01*
X151462438Y-117110588D02*
X151414819Y-117015350D01*
X151414819Y-117015350D02*
X151414819Y-116872493D01*
X151414819Y-116872493D02*
X151462438Y-116729636D01*
X151462438Y-116729636D02*
X151557676Y-116634398D01*
X151557676Y-116634398D02*
X151652914Y-116586779D01*
X151652914Y-116586779D02*
X151843390Y-116539160D01*
X151843390Y-116539160D02*
X151986247Y-116539160D01*
X151986247Y-116539160D02*
X152176723Y-116586779D01*
X152176723Y-116586779D02*
X152271961Y-116634398D01*
X152271961Y-116634398D02*
X152367200Y-116729636D01*
X152367200Y-116729636D02*
X152414819Y-116872493D01*
X152414819Y-116872493D02*
X152414819Y-116967731D01*
X152414819Y-116967731D02*
X152367200Y-117110588D01*
X152367200Y-117110588D02*
X152319580Y-117158207D01*
X152319580Y-117158207D02*
X151986247Y-117158207D01*
X151986247Y-117158207D02*
X151986247Y-116967731D01*
X152414819Y-117586779D02*
X151414819Y-117586779D01*
X151414819Y-117586779D02*
X151414819Y-117967731D01*
X151414819Y-117967731D02*
X151462438Y-118062969D01*
X151462438Y-118062969D02*
X151510057Y-118110588D01*
X151510057Y-118110588D02*
X151605295Y-118158207D01*
X151605295Y-118158207D02*
X151748152Y-118158207D01*
X151748152Y-118158207D02*
X151843390Y-118110588D01*
X151843390Y-118110588D02*
X151891009Y-118062969D01*
X151891009Y-118062969D02*
X151938628Y-117967731D01*
X151938628Y-117967731D02*
X151938628Y-117586779D01*
X152414819Y-119110588D02*
X152414819Y-118539160D01*
X152414819Y-118824874D02*
X151414819Y-118824874D01*
X151414819Y-118824874D02*
X151557676Y-118729636D01*
X151557676Y-118729636D02*
X151652914Y-118634398D01*
X151652914Y-118634398D02*
X151700533Y-118539160D01*
X151414819Y-120015350D02*
X151414819Y-119539160D01*
X151414819Y-119539160D02*
X151891009Y-119491541D01*
X151891009Y-119491541D02*
X151843390Y-119539160D01*
X151843390Y-119539160D02*
X151795771Y-119634398D01*
X151795771Y-119634398D02*
X151795771Y-119872493D01*
X151795771Y-119872493D02*
X151843390Y-119967731D01*
X151843390Y-119967731D02*
X151891009Y-120015350D01*
X151891009Y-120015350D02*
X151986247Y-120062969D01*
X151986247Y-120062969D02*
X152224342Y-120062969D01*
X152224342Y-120062969D02*
X152319580Y-120015350D01*
X152319580Y-120015350D02*
X152367200Y-119967731D01*
X152367200Y-119967731D02*
X152414819Y-119872493D01*
X152414819Y-119872493D02*
X152414819Y-119634398D01*
X152414819Y-119634398D02*
X152367200Y-119539160D01*
X152367200Y-119539160D02*
X152319580Y-119491541D01*
X137317438Y-77060588D02*
X137269819Y-76965350D01*
X137269819Y-76965350D02*
X137269819Y-76822493D01*
X137269819Y-76822493D02*
X137317438Y-76679636D01*
X137317438Y-76679636D02*
X137412676Y-76584398D01*
X137412676Y-76584398D02*
X137507914Y-76536779D01*
X137507914Y-76536779D02*
X137698390Y-76489160D01*
X137698390Y-76489160D02*
X137841247Y-76489160D01*
X137841247Y-76489160D02*
X138031723Y-76536779D01*
X138031723Y-76536779D02*
X138126961Y-76584398D01*
X138126961Y-76584398D02*
X138222200Y-76679636D01*
X138222200Y-76679636D02*
X138269819Y-76822493D01*
X138269819Y-76822493D02*
X138269819Y-76917731D01*
X138269819Y-76917731D02*
X138222200Y-77060588D01*
X138222200Y-77060588D02*
X138174580Y-77108207D01*
X138174580Y-77108207D02*
X137841247Y-77108207D01*
X137841247Y-77108207D02*
X137841247Y-76917731D01*
X138269819Y-77536779D02*
X137269819Y-77536779D01*
X137269819Y-77536779D02*
X137269819Y-77917731D01*
X137269819Y-77917731D02*
X137317438Y-78012969D01*
X137317438Y-78012969D02*
X137365057Y-78060588D01*
X137365057Y-78060588D02*
X137460295Y-78108207D01*
X137460295Y-78108207D02*
X137603152Y-78108207D01*
X137603152Y-78108207D02*
X137698390Y-78060588D01*
X137698390Y-78060588D02*
X137746009Y-78012969D01*
X137746009Y-78012969D02*
X137793628Y-77917731D01*
X137793628Y-77917731D02*
X137793628Y-77536779D01*
X138269819Y-78584398D02*
X138269819Y-78774874D01*
X138269819Y-78774874D02*
X138222200Y-78870112D01*
X138222200Y-78870112D02*
X138174580Y-78917731D01*
X138174580Y-78917731D02*
X138031723Y-79012969D01*
X138031723Y-79012969D02*
X137841247Y-79060588D01*
X137841247Y-79060588D02*
X137460295Y-79060588D01*
X137460295Y-79060588D02*
X137365057Y-79012969D01*
X137365057Y-79012969D02*
X137317438Y-78965350D01*
X137317438Y-78965350D02*
X137269819Y-78870112D01*
X137269819Y-78870112D02*
X137269819Y-78679636D01*
X137269819Y-78679636D02*
X137317438Y-78584398D01*
X137317438Y-78584398D02*
X137365057Y-78536779D01*
X137365057Y-78536779D02*
X137460295Y-78489160D01*
X137460295Y-78489160D02*
X137698390Y-78489160D01*
X137698390Y-78489160D02*
X137793628Y-78536779D01*
X137793628Y-78536779D02*
X137841247Y-78584398D01*
X137841247Y-78584398D02*
X137888866Y-78679636D01*
X137888866Y-78679636D02*
X137888866Y-78870112D01*
X137888866Y-78870112D02*
X137841247Y-78965350D01*
X137841247Y-78965350D02*
X137793628Y-79012969D01*
X137793628Y-79012969D02*
X137698390Y-79060588D01*
X84417438Y-77360588D02*
X84369819Y-77265350D01*
X84369819Y-77265350D02*
X84369819Y-77122493D01*
X84369819Y-77122493D02*
X84417438Y-76979636D01*
X84417438Y-76979636D02*
X84512676Y-76884398D01*
X84512676Y-76884398D02*
X84607914Y-76836779D01*
X84607914Y-76836779D02*
X84798390Y-76789160D01*
X84798390Y-76789160D02*
X84941247Y-76789160D01*
X84941247Y-76789160D02*
X85131723Y-76836779D01*
X85131723Y-76836779D02*
X85226961Y-76884398D01*
X85226961Y-76884398D02*
X85322200Y-76979636D01*
X85322200Y-76979636D02*
X85369819Y-77122493D01*
X85369819Y-77122493D02*
X85369819Y-77217731D01*
X85369819Y-77217731D02*
X85322200Y-77360588D01*
X85322200Y-77360588D02*
X85274580Y-77408207D01*
X85274580Y-77408207D02*
X84941247Y-77408207D01*
X84941247Y-77408207D02*
X84941247Y-77217731D01*
X85369819Y-77836779D02*
X84369819Y-77836779D01*
X84369819Y-77836779D02*
X84369819Y-78217731D01*
X84369819Y-78217731D02*
X84417438Y-78312969D01*
X84417438Y-78312969D02*
X84465057Y-78360588D01*
X84465057Y-78360588D02*
X84560295Y-78408207D01*
X84560295Y-78408207D02*
X84703152Y-78408207D01*
X84703152Y-78408207D02*
X84798390Y-78360588D01*
X84798390Y-78360588D02*
X84846009Y-78312969D01*
X84846009Y-78312969D02*
X84893628Y-78217731D01*
X84893628Y-78217731D02*
X84893628Y-77836779D01*
X84703152Y-79265350D02*
X85369819Y-79265350D01*
X84322200Y-79027255D02*
X85036485Y-78789160D01*
X85036485Y-78789160D02*
X85036485Y-79408207D01*
X84465057Y-79741541D02*
X84417438Y-79789160D01*
X84417438Y-79789160D02*
X84369819Y-79884398D01*
X84369819Y-79884398D02*
X84369819Y-80122493D01*
X84369819Y-80122493D02*
X84417438Y-80217731D01*
X84417438Y-80217731D02*
X84465057Y-80265350D01*
X84465057Y-80265350D02*
X84560295Y-80312969D01*
X84560295Y-80312969D02*
X84655533Y-80312969D01*
X84655533Y-80312969D02*
X84798390Y-80265350D01*
X84798390Y-80265350D02*
X85369819Y-79693922D01*
X85369819Y-79693922D02*
X85369819Y-80312969D01*
X91852438Y-77360588D02*
X91804819Y-77265350D01*
X91804819Y-77265350D02*
X91804819Y-77122493D01*
X91804819Y-77122493D02*
X91852438Y-76979636D01*
X91852438Y-76979636D02*
X91947676Y-76884398D01*
X91947676Y-76884398D02*
X92042914Y-76836779D01*
X92042914Y-76836779D02*
X92233390Y-76789160D01*
X92233390Y-76789160D02*
X92376247Y-76789160D01*
X92376247Y-76789160D02*
X92566723Y-76836779D01*
X92566723Y-76836779D02*
X92661961Y-76884398D01*
X92661961Y-76884398D02*
X92757200Y-76979636D01*
X92757200Y-76979636D02*
X92804819Y-77122493D01*
X92804819Y-77122493D02*
X92804819Y-77217731D01*
X92804819Y-77217731D02*
X92757200Y-77360588D01*
X92757200Y-77360588D02*
X92709580Y-77408207D01*
X92709580Y-77408207D02*
X92376247Y-77408207D01*
X92376247Y-77408207D02*
X92376247Y-77217731D01*
X92804819Y-77836779D02*
X91804819Y-77836779D01*
X91804819Y-77836779D02*
X91804819Y-78217731D01*
X91804819Y-78217731D02*
X91852438Y-78312969D01*
X91852438Y-78312969D02*
X91900057Y-78360588D01*
X91900057Y-78360588D02*
X91995295Y-78408207D01*
X91995295Y-78408207D02*
X92138152Y-78408207D01*
X92138152Y-78408207D02*
X92233390Y-78360588D01*
X92233390Y-78360588D02*
X92281009Y-78312969D01*
X92281009Y-78312969D02*
X92328628Y-78217731D01*
X92328628Y-78217731D02*
X92328628Y-77836779D01*
X91900057Y-78789160D02*
X91852438Y-78836779D01*
X91852438Y-78836779D02*
X91804819Y-78932017D01*
X91804819Y-78932017D02*
X91804819Y-79170112D01*
X91804819Y-79170112D02*
X91852438Y-79265350D01*
X91852438Y-79265350D02*
X91900057Y-79312969D01*
X91900057Y-79312969D02*
X91995295Y-79360588D01*
X91995295Y-79360588D02*
X92090533Y-79360588D01*
X92090533Y-79360588D02*
X92233390Y-79312969D01*
X92233390Y-79312969D02*
X92804819Y-78741541D01*
X92804819Y-78741541D02*
X92804819Y-79360588D01*
X92804819Y-80312969D02*
X92804819Y-79741541D01*
X92804819Y-80027255D02*
X91804819Y-80027255D01*
X91804819Y-80027255D02*
X91947676Y-79932017D01*
X91947676Y-79932017D02*
X92042914Y-79836779D01*
X92042914Y-79836779D02*
X92090533Y-79741541D01*
X89617438Y-117260588D02*
X89569819Y-117165350D01*
X89569819Y-117165350D02*
X89569819Y-117022493D01*
X89569819Y-117022493D02*
X89617438Y-116879636D01*
X89617438Y-116879636D02*
X89712676Y-116784398D01*
X89712676Y-116784398D02*
X89807914Y-116736779D01*
X89807914Y-116736779D02*
X89998390Y-116689160D01*
X89998390Y-116689160D02*
X90141247Y-116689160D01*
X90141247Y-116689160D02*
X90331723Y-116736779D01*
X90331723Y-116736779D02*
X90426961Y-116784398D01*
X90426961Y-116784398D02*
X90522200Y-116879636D01*
X90522200Y-116879636D02*
X90569819Y-117022493D01*
X90569819Y-117022493D02*
X90569819Y-117117731D01*
X90569819Y-117117731D02*
X90522200Y-117260588D01*
X90522200Y-117260588D02*
X90474580Y-117308207D01*
X90474580Y-117308207D02*
X90141247Y-117308207D01*
X90141247Y-117308207D02*
X90141247Y-117117731D01*
X90569819Y-117736779D02*
X89569819Y-117736779D01*
X89569819Y-117736779D02*
X89569819Y-118117731D01*
X89569819Y-118117731D02*
X89617438Y-118212969D01*
X89617438Y-118212969D02*
X89665057Y-118260588D01*
X89665057Y-118260588D02*
X89760295Y-118308207D01*
X89760295Y-118308207D02*
X89903152Y-118308207D01*
X89903152Y-118308207D02*
X89998390Y-118260588D01*
X89998390Y-118260588D02*
X90046009Y-118212969D01*
X90046009Y-118212969D02*
X90093628Y-118117731D01*
X90093628Y-118117731D02*
X90093628Y-117736779D01*
X89569819Y-118641541D02*
X89569819Y-119260588D01*
X89569819Y-119260588D02*
X89950771Y-118927255D01*
X89950771Y-118927255D02*
X89950771Y-119070112D01*
X89950771Y-119070112D02*
X89998390Y-119165350D01*
X89998390Y-119165350D02*
X90046009Y-119212969D01*
X90046009Y-119212969D02*
X90141247Y-119260588D01*
X90141247Y-119260588D02*
X90379342Y-119260588D01*
X90379342Y-119260588D02*
X90474580Y-119212969D01*
X90474580Y-119212969D02*
X90522200Y-119165350D01*
X90522200Y-119165350D02*
X90569819Y-119070112D01*
X90569819Y-119070112D02*
X90569819Y-118784398D01*
X90569819Y-118784398D02*
X90522200Y-118689160D01*
X90522200Y-118689160D02*
X90474580Y-118641541D01*
X89569819Y-119593922D02*
X89569819Y-120260588D01*
X89569819Y-120260588D02*
X90569819Y-119832017D01*
X89572438Y-77360588D02*
X89524819Y-77265350D01*
X89524819Y-77265350D02*
X89524819Y-77122493D01*
X89524819Y-77122493D02*
X89572438Y-76979636D01*
X89572438Y-76979636D02*
X89667676Y-76884398D01*
X89667676Y-76884398D02*
X89762914Y-76836779D01*
X89762914Y-76836779D02*
X89953390Y-76789160D01*
X89953390Y-76789160D02*
X90096247Y-76789160D01*
X90096247Y-76789160D02*
X90286723Y-76836779D01*
X90286723Y-76836779D02*
X90381961Y-76884398D01*
X90381961Y-76884398D02*
X90477200Y-76979636D01*
X90477200Y-76979636D02*
X90524819Y-77122493D01*
X90524819Y-77122493D02*
X90524819Y-77217731D01*
X90524819Y-77217731D02*
X90477200Y-77360588D01*
X90477200Y-77360588D02*
X90429580Y-77408207D01*
X90429580Y-77408207D02*
X90096247Y-77408207D01*
X90096247Y-77408207D02*
X90096247Y-77217731D01*
X90524819Y-77836779D02*
X89524819Y-77836779D01*
X89524819Y-77836779D02*
X89524819Y-78217731D01*
X89524819Y-78217731D02*
X89572438Y-78312969D01*
X89572438Y-78312969D02*
X89620057Y-78360588D01*
X89620057Y-78360588D02*
X89715295Y-78408207D01*
X89715295Y-78408207D02*
X89858152Y-78408207D01*
X89858152Y-78408207D02*
X89953390Y-78360588D01*
X89953390Y-78360588D02*
X90001009Y-78312969D01*
X90001009Y-78312969D02*
X90048628Y-78217731D01*
X90048628Y-78217731D02*
X90048628Y-77836779D01*
X89858152Y-79265350D02*
X90524819Y-79265350D01*
X89477200Y-79027255D02*
X90191485Y-78789160D01*
X90191485Y-78789160D02*
X90191485Y-79408207D01*
X89524819Y-80265350D02*
X89524819Y-79789160D01*
X89524819Y-79789160D02*
X90001009Y-79741541D01*
X90001009Y-79741541D02*
X89953390Y-79789160D01*
X89953390Y-79789160D02*
X89905771Y-79884398D01*
X89905771Y-79884398D02*
X89905771Y-80122493D01*
X89905771Y-80122493D02*
X89953390Y-80217731D01*
X89953390Y-80217731D02*
X90001009Y-80265350D01*
X90001009Y-80265350D02*
X90096247Y-80312969D01*
X90096247Y-80312969D02*
X90334342Y-80312969D01*
X90334342Y-80312969D02*
X90429580Y-80265350D01*
X90429580Y-80265350D02*
X90477200Y-80217731D01*
X90477200Y-80217731D02*
X90524819Y-80122493D01*
X90524819Y-80122493D02*
X90524819Y-79884398D01*
X90524819Y-79884398D02*
X90477200Y-79789160D01*
X90477200Y-79789160D02*
X90429580Y-79741541D01*
X86667438Y-77360588D02*
X86619819Y-77265350D01*
X86619819Y-77265350D02*
X86619819Y-77122493D01*
X86619819Y-77122493D02*
X86667438Y-76979636D01*
X86667438Y-76979636D02*
X86762676Y-76884398D01*
X86762676Y-76884398D02*
X86857914Y-76836779D01*
X86857914Y-76836779D02*
X87048390Y-76789160D01*
X87048390Y-76789160D02*
X87191247Y-76789160D01*
X87191247Y-76789160D02*
X87381723Y-76836779D01*
X87381723Y-76836779D02*
X87476961Y-76884398D01*
X87476961Y-76884398D02*
X87572200Y-76979636D01*
X87572200Y-76979636D02*
X87619819Y-77122493D01*
X87619819Y-77122493D02*
X87619819Y-77217731D01*
X87619819Y-77217731D02*
X87572200Y-77360588D01*
X87572200Y-77360588D02*
X87524580Y-77408207D01*
X87524580Y-77408207D02*
X87191247Y-77408207D01*
X87191247Y-77408207D02*
X87191247Y-77217731D01*
X87619819Y-77836779D02*
X86619819Y-77836779D01*
X86619819Y-77836779D02*
X86619819Y-78217731D01*
X86619819Y-78217731D02*
X86667438Y-78312969D01*
X86667438Y-78312969D02*
X86715057Y-78360588D01*
X86715057Y-78360588D02*
X86810295Y-78408207D01*
X86810295Y-78408207D02*
X86953152Y-78408207D01*
X86953152Y-78408207D02*
X87048390Y-78360588D01*
X87048390Y-78360588D02*
X87096009Y-78312969D01*
X87096009Y-78312969D02*
X87143628Y-78217731D01*
X87143628Y-78217731D02*
X87143628Y-77836779D01*
X86619819Y-78741541D02*
X86619819Y-79360588D01*
X86619819Y-79360588D02*
X87000771Y-79027255D01*
X87000771Y-79027255D02*
X87000771Y-79170112D01*
X87000771Y-79170112D02*
X87048390Y-79265350D01*
X87048390Y-79265350D02*
X87096009Y-79312969D01*
X87096009Y-79312969D02*
X87191247Y-79360588D01*
X87191247Y-79360588D02*
X87429342Y-79360588D01*
X87429342Y-79360588D02*
X87524580Y-79312969D01*
X87524580Y-79312969D02*
X87572200Y-79265350D01*
X87572200Y-79265350D02*
X87619819Y-79170112D01*
X87619819Y-79170112D02*
X87619819Y-78884398D01*
X87619819Y-78884398D02*
X87572200Y-78789160D01*
X87572200Y-78789160D02*
X87524580Y-78741541D01*
X87619819Y-79836779D02*
X87619819Y-80027255D01*
X87619819Y-80027255D02*
X87572200Y-80122493D01*
X87572200Y-80122493D02*
X87524580Y-80170112D01*
X87524580Y-80170112D02*
X87381723Y-80265350D01*
X87381723Y-80265350D02*
X87191247Y-80312969D01*
X87191247Y-80312969D02*
X86810295Y-80312969D01*
X86810295Y-80312969D02*
X86715057Y-80265350D01*
X86715057Y-80265350D02*
X86667438Y-80217731D01*
X86667438Y-80217731D02*
X86619819Y-80122493D01*
X86619819Y-80122493D02*
X86619819Y-79932017D01*
X86619819Y-79932017D02*
X86667438Y-79836779D01*
X86667438Y-79836779D02*
X86715057Y-79789160D01*
X86715057Y-79789160D02*
X86810295Y-79741541D01*
X86810295Y-79741541D02*
X87048390Y-79741541D01*
X87048390Y-79741541D02*
X87143628Y-79789160D01*
X87143628Y-79789160D02*
X87191247Y-79836779D01*
X87191247Y-79836779D02*
X87238866Y-79932017D01*
X87238866Y-79932017D02*
X87238866Y-80122493D01*
X87238866Y-80122493D02*
X87191247Y-80217731D01*
X87191247Y-80217731D02*
X87143628Y-80265350D01*
X87143628Y-80265350D02*
X87048390Y-80312969D01*
X87077438Y-117260588D02*
X87029819Y-117165350D01*
X87029819Y-117165350D02*
X87029819Y-117022493D01*
X87029819Y-117022493D02*
X87077438Y-116879636D01*
X87077438Y-116879636D02*
X87172676Y-116784398D01*
X87172676Y-116784398D02*
X87267914Y-116736779D01*
X87267914Y-116736779D02*
X87458390Y-116689160D01*
X87458390Y-116689160D02*
X87601247Y-116689160D01*
X87601247Y-116689160D02*
X87791723Y-116736779D01*
X87791723Y-116736779D02*
X87886961Y-116784398D01*
X87886961Y-116784398D02*
X87982200Y-116879636D01*
X87982200Y-116879636D02*
X88029819Y-117022493D01*
X88029819Y-117022493D02*
X88029819Y-117117731D01*
X88029819Y-117117731D02*
X87982200Y-117260588D01*
X87982200Y-117260588D02*
X87934580Y-117308207D01*
X87934580Y-117308207D02*
X87601247Y-117308207D01*
X87601247Y-117308207D02*
X87601247Y-117117731D01*
X88029819Y-117736779D02*
X87029819Y-117736779D01*
X87029819Y-117736779D02*
X87029819Y-118117731D01*
X87029819Y-118117731D02*
X87077438Y-118212969D01*
X87077438Y-118212969D02*
X87125057Y-118260588D01*
X87125057Y-118260588D02*
X87220295Y-118308207D01*
X87220295Y-118308207D02*
X87363152Y-118308207D01*
X87363152Y-118308207D02*
X87458390Y-118260588D01*
X87458390Y-118260588D02*
X87506009Y-118212969D01*
X87506009Y-118212969D02*
X87553628Y-118117731D01*
X87553628Y-118117731D02*
X87553628Y-117736779D01*
X87029819Y-118641541D02*
X87029819Y-119260588D01*
X87029819Y-119260588D02*
X87410771Y-118927255D01*
X87410771Y-118927255D02*
X87410771Y-119070112D01*
X87410771Y-119070112D02*
X87458390Y-119165350D01*
X87458390Y-119165350D02*
X87506009Y-119212969D01*
X87506009Y-119212969D02*
X87601247Y-119260588D01*
X87601247Y-119260588D02*
X87839342Y-119260588D01*
X87839342Y-119260588D02*
X87934580Y-119212969D01*
X87934580Y-119212969D02*
X87982200Y-119165350D01*
X87982200Y-119165350D02*
X88029819Y-119070112D01*
X88029819Y-119070112D02*
X88029819Y-118784398D01*
X88029819Y-118784398D02*
X87982200Y-118689160D01*
X87982200Y-118689160D02*
X87934580Y-118641541D01*
X87458390Y-119832017D02*
X87410771Y-119736779D01*
X87410771Y-119736779D02*
X87363152Y-119689160D01*
X87363152Y-119689160D02*
X87267914Y-119641541D01*
X87267914Y-119641541D02*
X87220295Y-119641541D01*
X87220295Y-119641541D02*
X87125057Y-119689160D01*
X87125057Y-119689160D02*
X87077438Y-119736779D01*
X87077438Y-119736779D02*
X87029819Y-119832017D01*
X87029819Y-119832017D02*
X87029819Y-120022493D01*
X87029819Y-120022493D02*
X87077438Y-120117731D01*
X87077438Y-120117731D02*
X87125057Y-120165350D01*
X87125057Y-120165350D02*
X87220295Y-120212969D01*
X87220295Y-120212969D02*
X87267914Y-120212969D01*
X87267914Y-120212969D02*
X87363152Y-120165350D01*
X87363152Y-120165350D02*
X87410771Y-120117731D01*
X87410771Y-120117731D02*
X87458390Y-120022493D01*
X87458390Y-120022493D02*
X87458390Y-119832017D01*
X87458390Y-119832017D02*
X87506009Y-119736779D01*
X87506009Y-119736779D02*
X87553628Y-119689160D01*
X87553628Y-119689160D02*
X87648866Y-119641541D01*
X87648866Y-119641541D02*
X87839342Y-119641541D01*
X87839342Y-119641541D02*
X87934580Y-119689160D01*
X87934580Y-119689160D02*
X87982200Y-119736779D01*
X87982200Y-119736779D02*
X88029819Y-119832017D01*
X88029819Y-119832017D02*
X88029819Y-120022493D01*
X88029819Y-120022493D02*
X87982200Y-120117731D01*
X87982200Y-120117731D02*
X87934580Y-120165350D01*
X87934580Y-120165350D02*
X87839342Y-120212969D01*
X87839342Y-120212969D02*
X87648866Y-120212969D01*
X87648866Y-120212969D02*
X87553628Y-120165350D01*
X87553628Y-120165350D02*
X87506009Y-120117731D01*
X87506009Y-120117731D02*
X87458390Y-120022493D01*
X140032438Y-77060588D02*
X139984819Y-76965350D01*
X139984819Y-76965350D02*
X139984819Y-76822493D01*
X139984819Y-76822493D02*
X140032438Y-76679636D01*
X140032438Y-76679636D02*
X140127676Y-76584398D01*
X140127676Y-76584398D02*
X140222914Y-76536779D01*
X140222914Y-76536779D02*
X140413390Y-76489160D01*
X140413390Y-76489160D02*
X140556247Y-76489160D01*
X140556247Y-76489160D02*
X140746723Y-76536779D01*
X140746723Y-76536779D02*
X140841961Y-76584398D01*
X140841961Y-76584398D02*
X140937200Y-76679636D01*
X140937200Y-76679636D02*
X140984819Y-76822493D01*
X140984819Y-76822493D02*
X140984819Y-76917731D01*
X140984819Y-76917731D02*
X140937200Y-77060588D01*
X140937200Y-77060588D02*
X140889580Y-77108207D01*
X140889580Y-77108207D02*
X140556247Y-77108207D01*
X140556247Y-77108207D02*
X140556247Y-76917731D01*
X140984819Y-77536779D02*
X139984819Y-77536779D01*
X139984819Y-77536779D02*
X139984819Y-77917731D01*
X139984819Y-77917731D02*
X140032438Y-78012969D01*
X140032438Y-78012969D02*
X140080057Y-78060588D01*
X140080057Y-78060588D02*
X140175295Y-78108207D01*
X140175295Y-78108207D02*
X140318152Y-78108207D01*
X140318152Y-78108207D02*
X140413390Y-78060588D01*
X140413390Y-78060588D02*
X140461009Y-78012969D01*
X140461009Y-78012969D02*
X140508628Y-77917731D01*
X140508628Y-77917731D02*
X140508628Y-77536779D01*
X140413390Y-78679636D02*
X140365771Y-78584398D01*
X140365771Y-78584398D02*
X140318152Y-78536779D01*
X140318152Y-78536779D02*
X140222914Y-78489160D01*
X140222914Y-78489160D02*
X140175295Y-78489160D01*
X140175295Y-78489160D02*
X140080057Y-78536779D01*
X140080057Y-78536779D02*
X140032438Y-78584398D01*
X140032438Y-78584398D02*
X139984819Y-78679636D01*
X139984819Y-78679636D02*
X139984819Y-78870112D01*
X139984819Y-78870112D02*
X140032438Y-78965350D01*
X140032438Y-78965350D02*
X140080057Y-79012969D01*
X140080057Y-79012969D02*
X140175295Y-79060588D01*
X140175295Y-79060588D02*
X140222914Y-79060588D01*
X140222914Y-79060588D02*
X140318152Y-79012969D01*
X140318152Y-79012969D02*
X140365771Y-78965350D01*
X140365771Y-78965350D02*
X140413390Y-78870112D01*
X140413390Y-78870112D02*
X140413390Y-78679636D01*
X140413390Y-78679636D02*
X140461009Y-78584398D01*
X140461009Y-78584398D02*
X140508628Y-78536779D01*
X140508628Y-78536779D02*
X140603866Y-78489160D01*
X140603866Y-78489160D02*
X140794342Y-78489160D01*
X140794342Y-78489160D02*
X140889580Y-78536779D01*
X140889580Y-78536779D02*
X140937200Y-78584398D01*
X140937200Y-78584398D02*
X140984819Y-78679636D01*
X140984819Y-78679636D02*
X140984819Y-78870112D01*
X140984819Y-78870112D02*
X140937200Y-78965350D01*
X140937200Y-78965350D02*
X140889580Y-79012969D01*
X140889580Y-79012969D02*
X140794342Y-79060588D01*
X140794342Y-79060588D02*
X140603866Y-79060588D01*
X140603866Y-79060588D02*
X140508628Y-79012969D01*
X140508628Y-79012969D02*
X140461009Y-78965350D01*
X140461009Y-78965350D02*
X140413390Y-78870112D01*
X94392438Y-77360588D02*
X94344819Y-77265350D01*
X94344819Y-77265350D02*
X94344819Y-77122493D01*
X94344819Y-77122493D02*
X94392438Y-76979636D01*
X94392438Y-76979636D02*
X94487676Y-76884398D01*
X94487676Y-76884398D02*
X94582914Y-76836779D01*
X94582914Y-76836779D02*
X94773390Y-76789160D01*
X94773390Y-76789160D02*
X94916247Y-76789160D01*
X94916247Y-76789160D02*
X95106723Y-76836779D01*
X95106723Y-76836779D02*
X95201961Y-76884398D01*
X95201961Y-76884398D02*
X95297200Y-76979636D01*
X95297200Y-76979636D02*
X95344819Y-77122493D01*
X95344819Y-77122493D02*
X95344819Y-77217731D01*
X95344819Y-77217731D02*
X95297200Y-77360588D01*
X95297200Y-77360588D02*
X95249580Y-77408207D01*
X95249580Y-77408207D02*
X94916247Y-77408207D01*
X94916247Y-77408207D02*
X94916247Y-77217731D01*
X95344819Y-77836779D02*
X94344819Y-77836779D01*
X94344819Y-77836779D02*
X94344819Y-78217731D01*
X94344819Y-78217731D02*
X94392438Y-78312969D01*
X94392438Y-78312969D02*
X94440057Y-78360588D01*
X94440057Y-78360588D02*
X94535295Y-78408207D01*
X94535295Y-78408207D02*
X94678152Y-78408207D01*
X94678152Y-78408207D02*
X94773390Y-78360588D01*
X94773390Y-78360588D02*
X94821009Y-78312969D01*
X94821009Y-78312969D02*
X94868628Y-78217731D01*
X94868628Y-78217731D02*
X94868628Y-77836779D01*
X94678152Y-79265350D02*
X95344819Y-79265350D01*
X94297200Y-79027255D02*
X95011485Y-78789160D01*
X95011485Y-78789160D02*
X95011485Y-79408207D01*
X94344819Y-80217731D02*
X94344819Y-80027255D01*
X94344819Y-80027255D02*
X94392438Y-79932017D01*
X94392438Y-79932017D02*
X94440057Y-79884398D01*
X94440057Y-79884398D02*
X94582914Y-79789160D01*
X94582914Y-79789160D02*
X94773390Y-79741541D01*
X94773390Y-79741541D02*
X95154342Y-79741541D01*
X95154342Y-79741541D02*
X95249580Y-79789160D01*
X95249580Y-79789160D02*
X95297200Y-79836779D01*
X95297200Y-79836779D02*
X95344819Y-79932017D01*
X95344819Y-79932017D02*
X95344819Y-80122493D01*
X95344819Y-80122493D02*
X95297200Y-80217731D01*
X95297200Y-80217731D02*
X95249580Y-80265350D01*
X95249580Y-80265350D02*
X95154342Y-80312969D01*
X95154342Y-80312969D02*
X94916247Y-80312969D01*
X94916247Y-80312969D02*
X94821009Y-80265350D01*
X94821009Y-80265350D02*
X94773390Y-80217731D01*
X94773390Y-80217731D02*
X94725771Y-80122493D01*
X94725771Y-80122493D02*
X94725771Y-79932017D01*
X94725771Y-79932017D02*
X94773390Y-79836779D01*
X94773390Y-79836779D02*
X94821009Y-79789160D01*
X94821009Y-79789160D02*
X94916247Y-79741541D01*
X161519819Y-76193922D02*
X161519819Y-76765350D01*
X162519819Y-76479636D02*
X161519819Y-76479636D01*
X161519819Y-77003446D02*
X162519819Y-77670112D01*
X161519819Y-77670112D02*
X162519819Y-77003446D01*
X162615057Y-77812970D02*
X162615057Y-78574874D01*
X161567438Y-79336779D02*
X161519819Y-79241541D01*
X161519819Y-79241541D02*
X161519819Y-79098684D01*
X161519819Y-79098684D02*
X161567438Y-78955827D01*
X161567438Y-78955827D02*
X161662676Y-78860589D01*
X161662676Y-78860589D02*
X161757914Y-78812970D01*
X161757914Y-78812970D02*
X161948390Y-78765351D01*
X161948390Y-78765351D02*
X162091247Y-78765351D01*
X162091247Y-78765351D02*
X162281723Y-78812970D01*
X162281723Y-78812970D02*
X162376961Y-78860589D01*
X162376961Y-78860589D02*
X162472200Y-78955827D01*
X162472200Y-78955827D02*
X162519819Y-79098684D01*
X162519819Y-79098684D02*
X162519819Y-79193922D01*
X162519819Y-79193922D02*
X162472200Y-79336779D01*
X162472200Y-79336779D02*
X162424580Y-79384398D01*
X162424580Y-79384398D02*
X162091247Y-79384398D01*
X162091247Y-79384398D02*
X162091247Y-79193922D01*
X162519819Y-79812970D02*
X161519819Y-79812970D01*
X161519819Y-79812970D02*
X161519819Y-80193922D01*
X161519819Y-80193922D02*
X161567438Y-80289160D01*
X161567438Y-80289160D02*
X161615057Y-80336779D01*
X161615057Y-80336779D02*
X161710295Y-80384398D01*
X161710295Y-80384398D02*
X161853152Y-80384398D01*
X161853152Y-80384398D02*
X161948390Y-80336779D01*
X161948390Y-80336779D02*
X161996009Y-80289160D01*
X161996009Y-80289160D02*
X162043628Y-80193922D01*
X162043628Y-80193922D02*
X162043628Y-79812970D01*
X161853152Y-81241541D02*
X162519819Y-81241541D01*
X161472200Y-81003446D02*
X162186485Y-80765351D01*
X162186485Y-80765351D02*
X162186485Y-81384398D01*
X161519819Y-81955827D02*
X161519819Y-82051065D01*
X161519819Y-82051065D02*
X161567438Y-82146303D01*
X161567438Y-82146303D02*
X161615057Y-82193922D01*
X161615057Y-82193922D02*
X161710295Y-82241541D01*
X161710295Y-82241541D02*
X161900771Y-82289160D01*
X161900771Y-82289160D02*
X162138866Y-82289160D01*
X162138866Y-82289160D02*
X162329342Y-82241541D01*
X162329342Y-82241541D02*
X162424580Y-82193922D01*
X162424580Y-82193922D02*
X162472200Y-82146303D01*
X162472200Y-82146303D02*
X162519819Y-82051065D01*
X162519819Y-82051065D02*
X162519819Y-81955827D01*
X162519819Y-81955827D02*
X162472200Y-81860589D01*
X162472200Y-81860589D02*
X162424580Y-81812970D01*
X162424580Y-81812970D02*
X162329342Y-81765351D01*
X162329342Y-81765351D02*
X162138866Y-81717732D01*
X162138866Y-81717732D02*
X161900771Y-81717732D01*
X161900771Y-81717732D02*
X161710295Y-81765351D01*
X161710295Y-81765351D02*
X161615057Y-81812970D01*
X161615057Y-81812970D02*
X161567438Y-81860589D01*
X161567438Y-81860589D02*
X161519819Y-81955827D01*
X129517438Y-77060588D02*
X129469819Y-76965350D01*
X129469819Y-76965350D02*
X129469819Y-76822493D01*
X129469819Y-76822493D02*
X129517438Y-76679636D01*
X129517438Y-76679636D02*
X129612676Y-76584398D01*
X129612676Y-76584398D02*
X129707914Y-76536779D01*
X129707914Y-76536779D02*
X129898390Y-76489160D01*
X129898390Y-76489160D02*
X130041247Y-76489160D01*
X130041247Y-76489160D02*
X130231723Y-76536779D01*
X130231723Y-76536779D02*
X130326961Y-76584398D01*
X130326961Y-76584398D02*
X130422200Y-76679636D01*
X130422200Y-76679636D02*
X130469819Y-76822493D01*
X130469819Y-76822493D02*
X130469819Y-76917731D01*
X130469819Y-76917731D02*
X130422200Y-77060588D01*
X130422200Y-77060588D02*
X130374580Y-77108207D01*
X130374580Y-77108207D02*
X130041247Y-77108207D01*
X130041247Y-77108207D02*
X130041247Y-76917731D01*
X130469819Y-77536779D02*
X129469819Y-77536779D01*
X129469819Y-77536779D02*
X129469819Y-77917731D01*
X129469819Y-77917731D02*
X129517438Y-78012969D01*
X129517438Y-78012969D02*
X129565057Y-78060588D01*
X129565057Y-78060588D02*
X129660295Y-78108207D01*
X129660295Y-78108207D02*
X129803152Y-78108207D01*
X129803152Y-78108207D02*
X129898390Y-78060588D01*
X129898390Y-78060588D02*
X129946009Y-78012969D01*
X129946009Y-78012969D02*
X129993628Y-77917731D01*
X129993628Y-77917731D02*
X129993628Y-77536779D01*
X130469819Y-79060588D02*
X130469819Y-78489160D01*
X130469819Y-78774874D02*
X129469819Y-78774874D01*
X129469819Y-78774874D02*
X129612676Y-78679636D01*
X129612676Y-78679636D02*
X129707914Y-78584398D01*
X129707914Y-78584398D02*
X129755533Y-78489160D01*
X129565057Y-79441541D02*
X129517438Y-79489160D01*
X129517438Y-79489160D02*
X129469819Y-79584398D01*
X129469819Y-79584398D02*
X129469819Y-79822493D01*
X129469819Y-79822493D02*
X129517438Y-79917731D01*
X129517438Y-79917731D02*
X129565057Y-79965350D01*
X129565057Y-79965350D02*
X129660295Y-80012969D01*
X129660295Y-80012969D02*
X129755533Y-80012969D01*
X129755533Y-80012969D02*
X129898390Y-79965350D01*
X129898390Y-79965350D02*
X130469819Y-79393922D01*
X130469819Y-79393922D02*
X130469819Y-80012969D01*
X134517438Y-77060588D02*
X134469819Y-76965350D01*
X134469819Y-76965350D02*
X134469819Y-76822493D01*
X134469819Y-76822493D02*
X134517438Y-76679636D01*
X134517438Y-76679636D02*
X134612676Y-76584398D01*
X134612676Y-76584398D02*
X134707914Y-76536779D01*
X134707914Y-76536779D02*
X134898390Y-76489160D01*
X134898390Y-76489160D02*
X135041247Y-76489160D01*
X135041247Y-76489160D02*
X135231723Y-76536779D01*
X135231723Y-76536779D02*
X135326961Y-76584398D01*
X135326961Y-76584398D02*
X135422200Y-76679636D01*
X135422200Y-76679636D02*
X135469819Y-76822493D01*
X135469819Y-76822493D02*
X135469819Y-76917731D01*
X135469819Y-76917731D02*
X135422200Y-77060588D01*
X135422200Y-77060588D02*
X135374580Y-77108207D01*
X135374580Y-77108207D02*
X135041247Y-77108207D01*
X135041247Y-77108207D02*
X135041247Y-76917731D01*
X135469819Y-77536779D02*
X134469819Y-77536779D01*
X134469819Y-77536779D02*
X134469819Y-77917731D01*
X134469819Y-77917731D02*
X134517438Y-78012969D01*
X134517438Y-78012969D02*
X134565057Y-78060588D01*
X134565057Y-78060588D02*
X134660295Y-78108207D01*
X134660295Y-78108207D02*
X134803152Y-78108207D01*
X134803152Y-78108207D02*
X134898390Y-78060588D01*
X134898390Y-78060588D02*
X134946009Y-78012969D01*
X134946009Y-78012969D02*
X134993628Y-77917731D01*
X134993628Y-77917731D02*
X134993628Y-77536779D01*
X135469819Y-79060588D02*
X135469819Y-78489160D01*
X135469819Y-78774874D02*
X134469819Y-78774874D01*
X134469819Y-78774874D02*
X134612676Y-78679636D01*
X134612676Y-78679636D02*
X134707914Y-78584398D01*
X134707914Y-78584398D02*
X134755533Y-78489160D01*
X134469819Y-79679636D02*
X134469819Y-79774874D01*
X134469819Y-79774874D02*
X134517438Y-79870112D01*
X134517438Y-79870112D02*
X134565057Y-79917731D01*
X134565057Y-79917731D02*
X134660295Y-79965350D01*
X134660295Y-79965350D02*
X134850771Y-80012969D01*
X134850771Y-80012969D02*
X135088866Y-80012969D01*
X135088866Y-80012969D02*
X135279342Y-79965350D01*
X135279342Y-79965350D02*
X135374580Y-79917731D01*
X135374580Y-79917731D02*
X135422200Y-79870112D01*
X135422200Y-79870112D02*
X135469819Y-79774874D01*
X135469819Y-79774874D02*
X135469819Y-79679636D01*
X135469819Y-79679636D02*
X135422200Y-79584398D01*
X135422200Y-79584398D02*
X135374580Y-79536779D01*
X135374580Y-79536779D02*
X135279342Y-79489160D01*
X135279342Y-79489160D02*
X135088866Y-79441541D01*
X135088866Y-79441541D02*
X134850771Y-79441541D01*
X134850771Y-79441541D02*
X134660295Y-79489160D01*
X134660295Y-79489160D02*
X134565057Y-79536779D01*
X134565057Y-79536779D02*
X134517438Y-79584398D01*
X134517438Y-79584398D02*
X134469819Y-79679636D01*
X127067438Y-77060588D02*
X127019819Y-76965350D01*
X127019819Y-76965350D02*
X127019819Y-76822493D01*
X127019819Y-76822493D02*
X127067438Y-76679636D01*
X127067438Y-76679636D02*
X127162676Y-76584398D01*
X127162676Y-76584398D02*
X127257914Y-76536779D01*
X127257914Y-76536779D02*
X127448390Y-76489160D01*
X127448390Y-76489160D02*
X127591247Y-76489160D01*
X127591247Y-76489160D02*
X127781723Y-76536779D01*
X127781723Y-76536779D02*
X127876961Y-76584398D01*
X127876961Y-76584398D02*
X127972200Y-76679636D01*
X127972200Y-76679636D02*
X128019819Y-76822493D01*
X128019819Y-76822493D02*
X128019819Y-76917731D01*
X128019819Y-76917731D02*
X127972200Y-77060588D01*
X127972200Y-77060588D02*
X127924580Y-77108207D01*
X127924580Y-77108207D02*
X127591247Y-77108207D01*
X127591247Y-77108207D02*
X127591247Y-76917731D01*
X128019819Y-77536779D02*
X127019819Y-77536779D01*
X127019819Y-77536779D02*
X127019819Y-77917731D01*
X127019819Y-77917731D02*
X127067438Y-78012969D01*
X127067438Y-78012969D02*
X127115057Y-78060588D01*
X127115057Y-78060588D02*
X127210295Y-78108207D01*
X127210295Y-78108207D02*
X127353152Y-78108207D01*
X127353152Y-78108207D02*
X127448390Y-78060588D01*
X127448390Y-78060588D02*
X127496009Y-78012969D01*
X127496009Y-78012969D02*
X127543628Y-77917731D01*
X127543628Y-77917731D02*
X127543628Y-77536779D01*
X128019819Y-79060588D02*
X128019819Y-78489160D01*
X128019819Y-78774874D02*
X127019819Y-78774874D01*
X127019819Y-78774874D02*
X127162676Y-78679636D01*
X127162676Y-78679636D02*
X127257914Y-78584398D01*
X127257914Y-78584398D02*
X127305533Y-78489160D01*
X127019819Y-79393922D02*
X127019819Y-80012969D01*
X127019819Y-80012969D02*
X127400771Y-79679636D01*
X127400771Y-79679636D02*
X127400771Y-79822493D01*
X127400771Y-79822493D02*
X127448390Y-79917731D01*
X127448390Y-79917731D02*
X127496009Y-79965350D01*
X127496009Y-79965350D02*
X127591247Y-80012969D01*
X127591247Y-80012969D02*
X127829342Y-80012969D01*
X127829342Y-80012969D02*
X127924580Y-79965350D01*
X127924580Y-79965350D02*
X127972200Y-79917731D01*
X127972200Y-79917731D02*
X128019819Y-79822493D01*
X128019819Y-79822493D02*
X128019819Y-79536779D01*
X128019819Y-79536779D02*
X127972200Y-79441541D01*
X127972200Y-79441541D02*
X127924580Y-79393922D01*
X161702438Y-118280588D02*
X161654819Y-118185350D01*
X161654819Y-118185350D02*
X161654819Y-118042493D01*
X161654819Y-118042493D02*
X161702438Y-117899636D01*
X161702438Y-117899636D02*
X161797676Y-117804398D01*
X161797676Y-117804398D02*
X161892914Y-117756779D01*
X161892914Y-117756779D02*
X162083390Y-117709160D01*
X162083390Y-117709160D02*
X162226247Y-117709160D01*
X162226247Y-117709160D02*
X162416723Y-117756779D01*
X162416723Y-117756779D02*
X162511961Y-117804398D01*
X162511961Y-117804398D02*
X162607200Y-117899636D01*
X162607200Y-117899636D02*
X162654819Y-118042493D01*
X162654819Y-118042493D02*
X162654819Y-118137731D01*
X162654819Y-118137731D02*
X162607200Y-118280588D01*
X162607200Y-118280588D02*
X162559580Y-118328207D01*
X162559580Y-118328207D02*
X162226247Y-118328207D01*
X162226247Y-118328207D02*
X162226247Y-118137731D01*
X162654819Y-118756779D02*
X161654819Y-118756779D01*
X161654819Y-118756779D02*
X161654819Y-119137731D01*
X161654819Y-119137731D02*
X161702438Y-119232969D01*
X161702438Y-119232969D02*
X161750057Y-119280588D01*
X161750057Y-119280588D02*
X161845295Y-119328207D01*
X161845295Y-119328207D02*
X161988152Y-119328207D01*
X161988152Y-119328207D02*
X162083390Y-119280588D01*
X162083390Y-119280588D02*
X162131009Y-119232969D01*
X162131009Y-119232969D02*
X162178628Y-119137731D01*
X162178628Y-119137731D02*
X162178628Y-118756779D01*
X162654819Y-120280588D02*
X162654819Y-119709160D01*
X162654819Y-119994874D02*
X161654819Y-119994874D01*
X161654819Y-119994874D02*
X161797676Y-119899636D01*
X161797676Y-119899636D02*
X161892914Y-119804398D01*
X161892914Y-119804398D02*
X161940533Y-119709160D01*
X92157438Y-117260588D02*
X92109819Y-117165350D01*
X92109819Y-117165350D02*
X92109819Y-117022493D01*
X92109819Y-117022493D02*
X92157438Y-116879636D01*
X92157438Y-116879636D02*
X92252676Y-116784398D01*
X92252676Y-116784398D02*
X92347914Y-116736779D01*
X92347914Y-116736779D02*
X92538390Y-116689160D01*
X92538390Y-116689160D02*
X92681247Y-116689160D01*
X92681247Y-116689160D02*
X92871723Y-116736779D01*
X92871723Y-116736779D02*
X92966961Y-116784398D01*
X92966961Y-116784398D02*
X93062200Y-116879636D01*
X93062200Y-116879636D02*
X93109819Y-117022493D01*
X93109819Y-117022493D02*
X93109819Y-117117731D01*
X93109819Y-117117731D02*
X93062200Y-117260588D01*
X93062200Y-117260588D02*
X93014580Y-117308207D01*
X93014580Y-117308207D02*
X92681247Y-117308207D01*
X92681247Y-117308207D02*
X92681247Y-117117731D01*
X93109819Y-117736779D02*
X92109819Y-117736779D01*
X92109819Y-117736779D02*
X92109819Y-118117731D01*
X92109819Y-118117731D02*
X92157438Y-118212969D01*
X92157438Y-118212969D02*
X92205057Y-118260588D01*
X92205057Y-118260588D02*
X92300295Y-118308207D01*
X92300295Y-118308207D02*
X92443152Y-118308207D01*
X92443152Y-118308207D02*
X92538390Y-118260588D01*
X92538390Y-118260588D02*
X92586009Y-118212969D01*
X92586009Y-118212969D02*
X92633628Y-118117731D01*
X92633628Y-118117731D02*
X92633628Y-117736779D01*
X92109819Y-118641541D02*
X92109819Y-119260588D01*
X92109819Y-119260588D02*
X92490771Y-118927255D01*
X92490771Y-118927255D02*
X92490771Y-119070112D01*
X92490771Y-119070112D02*
X92538390Y-119165350D01*
X92538390Y-119165350D02*
X92586009Y-119212969D01*
X92586009Y-119212969D02*
X92681247Y-119260588D01*
X92681247Y-119260588D02*
X92919342Y-119260588D01*
X92919342Y-119260588D02*
X93014580Y-119212969D01*
X93014580Y-119212969D02*
X93062200Y-119165350D01*
X93062200Y-119165350D02*
X93109819Y-119070112D01*
X93109819Y-119070112D02*
X93109819Y-118784398D01*
X93109819Y-118784398D02*
X93062200Y-118689160D01*
X93062200Y-118689160D02*
X93014580Y-118641541D01*
X92109819Y-120117731D02*
X92109819Y-119927255D01*
X92109819Y-119927255D02*
X92157438Y-119832017D01*
X92157438Y-119832017D02*
X92205057Y-119784398D01*
X92205057Y-119784398D02*
X92347914Y-119689160D01*
X92347914Y-119689160D02*
X92538390Y-119641541D01*
X92538390Y-119641541D02*
X92919342Y-119641541D01*
X92919342Y-119641541D02*
X93014580Y-119689160D01*
X93014580Y-119689160D02*
X93062200Y-119736779D01*
X93062200Y-119736779D02*
X93109819Y-119832017D01*
X93109819Y-119832017D02*
X93109819Y-120022493D01*
X93109819Y-120022493D02*
X93062200Y-120117731D01*
X93062200Y-120117731D02*
X93014580Y-120165350D01*
X93014580Y-120165350D02*
X92919342Y-120212969D01*
X92919342Y-120212969D02*
X92681247Y-120212969D01*
X92681247Y-120212969D02*
X92586009Y-120165350D01*
X92586009Y-120165350D02*
X92538390Y-120117731D01*
X92538390Y-120117731D02*
X92490771Y-120022493D01*
X92490771Y-120022493D02*
X92490771Y-119832017D01*
X92490771Y-119832017D02*
X92538390Y-119736779D01*
X92538390Y-119736779D02*
X92586009Y-119689160D01*
X92586009Y-119689160D02*
X92681247Y-119641541D01*
D11*
X75851419Y-82125884D02*
X74851419Y-82125884D01*
X74851419Y-82125884D02*
X74851419Y-82363979D01*
X74851419Y-82363979D02*
X74899038Y-82506836D01*
X74899038Y-82506836D02*
X74994276Y-82602074D01*
X74994276Y-82602074D02*
X75089514Y-82649693D01*
X75089514Y-82649693D02*
X75279990Y-82697312D01*
X75279990Y-82697312D02*
X75422847Y-82697312D01*
X75422847Y-82697312D02*
X75613323Y-82649693D01*
X75613323Y-82649693D02*
X75708561Y-82602074D01*
X75708561Y-82602074D02*
X75803800Y-82506836D01*
X75803800Y-82506836D02*
X75851419Y-82363979D01*
X75851419Y-82363979D02*
X75851419Y-82125884D01*
X75851419Y-83554455D02*
X75327609Y-83554455D01*
X75327609Y-83554455D02*
X75232371Y-83506836D01*
X75232371Y-83506836D02*
X75184752Y-83411598D01*
X75184752Y-83411598D02*
X75184752Y-83221122D01*
X75184752Y-83221122D02*
X75232371Y-83125884D01*
X75803800Y-83554455D02*
X75851419Y-83459217D01*
X75851419Y-83459217D02*
X75851419Y-83221122D01*
X75851419Y-83221122D02*
X75803800Y-83125884D01*
X75803800Y-83125884D02*
X75708561Y-83078265D01*
X75708561Y-83078265D02*
X75613323Y-83078265D01*
X75613323Y-83078265D02*
X75518085Y-83125884D01*
X75518085Y-83125884D02*
X75470466Y-83221122D01*
X75470466Y-83221122D02*
X75470466Y-83459217D01*
X75470466Y-83459217D02*
X75422847Y-83554455D01*
X75184752Y-84459217D02*
X75851419Y-84459217D01*
X75184752Y-84030646D02*
X75708561Y-84030646D01*
X75708561Y-84030646D02*
X75803800Y-84078265D01*
X75803800Y-84078265D02*
X75851419Y-84173503D01*
X75851419Y-84173503D02*
X75851419Y-84316360D01*
X75851419Y-84316360D02*
X75803800Y-84411598D01*
X75803800Y-84411598D02*
X75756180Y-84459217D01*
X75184752Y-85363979D02*
X75994276Y-85363979D01*
X75994276Y-85363979D02*
X76089514Y-85316360D01*
X76089514Y-85316360D02*
X76137133Y-85268741D01*
X76137133Y-85268741D02*
X76184752Y-85173503D01*
X76184752Y-85173503D02*
X76184752Y-85030646D01*
X76184752Y-85030646D02*
X76137133Y-84935408D01*
X75803800Y-85363979D02*
X75851419Y-85268741D01*
X75851419Y-85268741D02*
X75851419Y-85078265D01*
X75851419Y-85078265D02*
X75803800Y-84983027D01*
X75803800Y-84983027D02*
X75756180Y-84935408D01*
X75756180Y-84935408D02*
X75660942Y-84887789D01*
X75660942Y-84887789D02*
X75375228Y-84887789D01*
X75375228Y-84887789D02*
X75279990Y-84935408D01*
X75279990Y-84935408D02*
X75232371Y-84983027D01*
X75232371Y-84983027D02*
X75184752Y-85078265D01*
X75184752Y-85078265D02*
X75184752Y-85268741D01*
X75184752Y-85268741D02*
X75232371Y-85363979D01*
X75851419Y-85840170D02*
X74851419Y-85840170D01*
X75851419Y-86268741D02*
X75327609Y-86268741D01*
X75327609Y-86268741D02*
X75232371Y-86221122D01*
X75232371Y-86221122D02*
X75184752Y-86125884D01*
X75184752Y-86125884D02*
X75184752Y-85983027D01*
X75184752Y-85983027D02*
X75232371Y-85887789D01*
X75232371Y-85887789D02*
X75279990Y-85840170D01*
X75184752Y-86602075D02*
X75184752Y-86983027D01*
X74851419Y-86744932D02*
X75708561Y-86744932D01*
X75708561Y-86744932D02*
X75803800Y-86792551D01*
X75803800Y-86792551D02*
X75851419Y-86887789D01*
X75851419Y-86887789D02*
X75851419Y-86983027D01*
X75803800Y-87697313D02*
X75851419Y-87602075D01*
X75851419Y-87602075D02*
X75851419Y-87411599D01*
X75851419Y-87411599D02*
X75803800Y-87316361D01*
X75803800Y-87316361D02*
X75708561Y-87268742D01*
X75708561Y-87268742D02*
X75327609Y-87268742D01*
X75327609Y-87268742D02*
X75232371Y-87316361D01*
X75232371Y-87316361D02*
X75184752Y-87411599D01*
X75184752Y-87411599D02*
X75184752Y-87602075D01*
X75184752Y-87602075D02*
X75232371Y-87697313D01*
X75232371Y-87697313D02*
X75327609Y-87744932D01*
X75327609Y-87744932D02*
X75422847Y-87744932D01*
X75422847Y-87744932D02*
X75518085Y-87268742D01*
X75851419Y-88173504D02*
X75184752Y-88173504D01*
X75375228Y-88173504D02*
X75279990Y-88221123D01*
X75279990Y-88221123D02*
X75232371Y-88268742D01*
X75232371Y-88268742D02*
X75184752Y-88363980D01*
X75184752Y-88363980D02*
X75184752Y-88459218D01*
X75327609Y-89125885D02*
X75375228Y-89268742D01*
X75375228Y-89268742D02*
X75422847Y-89316361D01*
X75422847Y-89316361D02*
X75518085Y-89363980D01*
X75518085Y-89363980D02*
X75660942Y-89363980D01*
X75660942Y-89363980D02*
X75756180Y-89316361D01*
X75756180Y-89316361D02*
X75803800Y-89268742D01*
X75803800Y-89268742D02*
X75851419Y-89173504D01*
X75851419Y-89173504D02*
X75851419Y-88792552D01*
X75851419Y-88792552D02*
X74851419Y-88792552D01*
X74851419Y-88792552D02*
X74851419Y-89125885D01*
X74851419Y-89125885D02*
X74899038Y-89221123D01*
X74899038Y-89221123D02*
X74946657Y-89268742D01*
X74946657Y-89268742D02*
X75041895Y-89316361D01*
X75041895Y-89316361D02*
X75137133Y-89316361D01*
X75137133Y-89316361D02*
X75232371Y-89268742D01*
X75232371Y-89268742D02*
X75279990Y-89221123D01*
X75279990Y-89221123D02*
X75327609Y-89125885D01*
X75327609Y-89125885D02*
X75327609Y-88792552D01*
X75851419Y-89935409D02*
X75803800Y-89840171D01*
X75803800Y-89840171D02*
X75756180Y-89792552D01*
X75756180Y-89792552D02*
X75660942Y-89744933D01*
X75660942Y-89744933D02*
X75375228Y-89744933D01*
X75375228Y-89744933D02*
X75279990Y-89792552D01*
X75279990Y-89792552D02*
X75232371Y-89840171D01*
X75232371Y-89840171D02*
X75184752Y-89935409D01*
X75184752Y-89935409D02*
X75184752Y-90078266D01*
X75184752Y-90078266D02*
X75232371Y-90173504D01*
X75232371Y-90173504D02*
X75279990Y-90221123D01*
X75279990Y-90221123D02*
X75375228Y-90268742D01*
X75375228Y-90268742D02*
X75660942Y-90268742D01*
X75660942Y-90268742D02*
X75756180Y-90221123D01*
X75756180Y-90221123D02*
X75803800Y-90173504D01*
X75803800Y-90173504D02*
X75851419Y-90078266D01*
X75851419Y-90078266D02*
X75851419Y-89935409D01*
X75851419Y-91125885D02*
X75327609Y-91125885D01*
X75327609Y-91125885D02*
X75232371Y-91078266D01*
X75232371Y-91078266D02*
X75184752Y-90983028D01*
X75184752Y-90983028D02*
X75184752Y-90792552D01*
X75184752Y-90792552D02*
X75232371Y-90697314D01*
X75803800Y-91125885D02*
X75851419Y-91030647D01*
X75851419Y-91030647D02*
X75851419Y-90792552D01*
X75851419Y-90792552D02*
X75803800Y-90697314D01*
X75803800Y-90697314D02*
X75708561Y-90649695D01*
X75708561Y-90649695D02*
X75613323Y-90649695D01*
X75613323Y-90649695D02*
X75518085Y-90697314D01*
X75518085Y-90697314D02*
X75470466Y-90792552D01*
X75470466Y-90792552D02*
X75470466Y-91030647D01*
X75470466Y-91030647D02*
X75422847Y-91125885D01*
X75851419Y-91602076D02*
X75184752Y-91602076D01*
X75375228Y-91602076D02*
X75279990Y-91649695D01*
X75279990Y-91649695D02*
X75232371Y-91697314D01*
X75232371Y-91697314D02*
X75184752Y-91792552D01*
X75184752Y-91792552D02*
X75184752Y-91887790D01*
X75851419Y-92649695D02*
X74851419Y-92649695D01*
X75803800Y-92649695D02*
X75851419Y-92554457D01*
X75851419Y-92554457D02*
X75851419Y-92363981D01*
X75851419Y-92363981D02*
X75803800Y-92268743D01*
X75803800Y-92268743D02*
X75756180Y-92221124D01*
X75756180Y-92221124D02*
X75660942Y-92173505D01*
X75660942Y-92173505D02*
X75375228Y-92173505D01*
X75375228Y-92173505D02*
X75279990Y-92221124D01*
X75279990Y-92221124D02*
X75232371Y-92268743D01*
X75232371Y-92268743D02*
X75184752Y-92363981D01*
X75184752Y-92363981D02*
X75184752Y-92554457D01*
X75184752Y-92554457D02*
X75232371Y-92649695D01*
X76461363Y-81983027D02*
X76461363Y-82554455D01*
X77461363Y-82268741D02*
X76461363Y-82268741D01*
X77413744Y-83268741D02*
X77461363Y-83173503D01*
X77461363Y-83173503D02*
X77461363Y-82983027D01*
X77461363Y-82983027D02*
X77413744Y-82887789D01*
X77413744Y-82887789D02*
X77318505Y-82840170D01*
X77318505Y-82840170D02*
X76937553Y-82840170D01*
X76937553Y-82840170D02*
X76842315Y-82887789D01*
X76842315Y-82887789D02*
X76794696Y-82983027D01*
X76794696Y-82983027D02*
X76794696Y-83173503D01*
X76794696Y-83173503D02*
X76842315Y-83268741D01*
X76842315Y-83268741D02*
X76937553Y-83316360D01*
X76937553Y-83316360D02*
X77032791Y-83316360D01*
X77032791Y-83316360D02*
X77128029Y-82840170D01*
X77461363Y-83744932D02*
X76794696Y-83744932D01*
X76889934Y-83744932D02*
X76842315Y-83792551D01*
X76842315Y-83792551D02*
X76794696Y-83887789D01*
X76794696Y-83887789D02*
X76794696Y-84030646D01*
X76794696Y-84030646D02*
X76842315Y-84125884D01*
X76842315Y-84125884D02*
X76937553Y-84173503D01*
X76937553Y-84173503D02*
X77461363Y-84173503D01*
X76937553Y-84173503D02*
X76842315Y-84221122D01*
X76842315Y-84221122D02*
X76794696Y-84316360D01*
X76794696Y-84316360D02*
X76794696Y-84459217D01*
X76794696Y-84459217D02*
X76842315Y-84554456D01*
X76842315Y-84554456D02*
X76937553Y-84602075D01*
X76937553Y-84602075D02*
X77461363Y-84602075D01*
X76794696Y-85078265D02*
X77794696Y-85078265D01*
X76842315Y-85078265D02*
X76794696Y-85173503D01*
X76794696Y-85173503D02*
X76794696Y-85363979D01*
X76794696Y-85363979D02*
X76842315Y-85459217D01*
X76842315Y-85459217D02*
X76889934Y-85506836D01*
X76889934Y-85506836D02*
X76985172Y-85554455D01*
X76985172Y-85554455D02*
X77270886Y-85554455D01*
X77270886Y-85554455D02*
X77366124Y-85506836D01*
X77366124Y-85506836D02*
X77413744Y-85459217D01*
X77413744Y-85459217D02*
X77461363Y-85363979D01*
X77461363Y-85363979D02*
X77461363Y-85173503D01*
X77461363Y-85173503D02*
X77413744Y-85078265D01*
X77461363Y-86125884D02*
X77413744Y-86030646D01*
X77413744Y-86030646D02*
X77318505Y-85983027D01*
X77318505Y-85983027D02*
X76461363Y-85983027D01*
X77461363Y-86935408D02*
X76937553Y-86935408D01*
X76937553Y-86935408D02*
X76842315Y-86887789D01*
X76842315Y-86887789D02*
X76794696Y-86792551D01*
X76794696Y-86792551D02*
X76794696Y-86602075D01*
X76794696Y-86602075D02*
X76842315Y-86506837D01*
X77413744Y-86935408D02*
X77461363Y-86840170D01*
X77461363Y-86840170D02*
X77461363Y-86602075D01*
X77461363Y-86602075D02*
X77413744Y-86506837D01*
X77413744Y-86506837D02*
X77318505Y-86459218D01*
X77318505Y-86459218D02*
X77223267Y-86459218D01*
X77223267Y-86459218D02*
X77128029Y-86506837D01*
X77128029Y-86506837D02*
X77080410Y-86602075D01*
X77080410Y-86602075D02*
X77080410Y-86840170D01*
X77080410Y-86840170D02*
X77032791Y-86935408D01*
X76794696Y-87268742D02*
X76794696Y-87649694D01*
X76461363Y-87411599D02*
X77318505Y-87411599D01*
X77318505Y-87411599D02*
X77413744Y-87459218D01*
X77413744Y-87459218D02*
X77461363Y-87554456D01*
X77461363Y-87554456D02*
X77461363Y-87649694D01*
X77413744Y-88363980D02*
X77461363Y-88268742D01*
X77461363Y-88268742D02*
X77461363Y-88078266D01*
X77461363Y-88078266D02*
X77413744Y-87983028D01*
X77413744Y-87983028D02*
X77318505Y-87935409D01*
X77318505Y-87935409D02*
X76937553Y-87935409D01*
X76937553Y-87935409D02*
X76842315Y-87983028D01*
X76842315Y-87983028D02*
X76794696Y-88078266D01*
X76794696Y-88078266D02*
X76794696Y-88268742D01*
X76794696Y-88268742D02*
X76842315Y-88363980D01*
X76842315Y-88363980D02*
X76937553Y-88411599D01*
X76937553Y-88411599D02*
X77032791Y-88411599D01*
X77032791Y-88411599D02*
X77128029Y-87935409D01*
X78404640Y-82030646D02*
X79071307Y-82268741D01*
X79071307Y-82268741D02*
X78404640Y-82506836D01*
X78071307Y-83078265D02*
X78071307Y-83173503D01*
X78071307Y-83173503D02*
X78118926Y-83268741D01*
X78118926Y-83268741D02*
X78166545Y-83316360D01*
X78166545Y-83316360D02*
X78261783Y-83363979D01*
X78261783Y-83363979D02*
X78452259Y-83411598D01*
X78452259Y-83411598D02*
X78690354Y-83411598D01*
X78690354Y-83411598D02*
X78880830Y-83363979D01*
X78880830Y-83363979D02*
X78976068Y-83316360D01*
X78976068Y-83316360D02*
X79023688Y-83268741D01*
X79023688Y-83268741D02*
X79071307Y-83173503D01*
X79071307Y-83173503D02*
X79071307Y-83078265D01*
X79071307Y-83078265D02*
X79023688Y-82983027D01*
X79023688Y-82983027D02*
X78976068Y-82935408D01*
X78976068Y-82935408D02*
X78880830Y-82887789D01*
X78880830Y-82887789D02*
X78690354Y-82840170D01*
X78690354Y-82840170D02*
X78452259Y-82840170D01*
X78452259Y-82840170D02*
X78261783Y-82887789D01*
X78261783Y-82887789D02*
X78166545Y-82935408D01*
X78166545Y-82935408D02*
X78118926Y-82983027D01*
X78118926Y-82983027D02*
X78071307Y-83078265D01*
X78976068Y-83840170D02*
X79023688Y-83887789D01*
X79023688Y-83887789D02*
X79071307Y-83840170D01*
X79071307Y-83840170D02*
X79023688Y-83792551D01*
X79023688Y-83792551D02*
X78976068Y-83840170D01*
X78976068Y-83840170D02*
X79071307Y-83840170D01*
X79071307Y-84840169D02*
X79071307Y-84268741D01*
X79071307Y-84554455D02*
X78071307Y-84554455D01*
X78071307Y-84554455D02*
X78214164Y-84459217D01*
X78214164Y-84459217D02*
X78309402Y-84363979D01*
X78309402Y-84363979D02*
X78357021Y-84268741D01*
X80681251Y-82125884D02*
X79681251Y-82125884D01*
X80157441Y-82125884D02*
X80157441Y-82697312D01*
X80681251Y-82697312D02*
X79681251Y-82697312D01*
X80014584Y-83602074D02*
X80681251Y-83602074D01*
X80014584Y-83173503D02*
X80538393Y-83173503D01*
X80538393Y-83173503D02*
X80633632Y-83221122D01*
X80633632Y-83221122D02*
X80681251Y-83316360D01*
X80681251Y-83316360D02*
X80681251Y-83459217D01*
X80681251Y-83459217D02*
X80633632Y-83554455D01*
X80633632Y-83554455D02*
X80586012Y-83602074D01*
X80633632Y-84030646D02*
X80681251Y-84125884D01*
X80681251Y-84125884D02*
X80681251Y-84316360D01*
X80681251Y-84316360D02*
X80633632Y-84411598D01*
X80633632Y-84411598D02*
X80538393Y-84459217D01*
X80538393Y-84459217D02*
X80490774Y-84459217D01*
X80490774Y-84459217D02*
X80395536Y-84411598D01*
X80395536Y-84411598D02*
X80347917Y-84316360D01*
X80347917Y-84316360D02*
X80347917Y-84173503D01*
X80347917Y-84173503D02*
X80300298Y-84078265D01*
X80300298Y-84078265D02*
X80205060Y-84030646D01*
X80205060Y-84030646D02*
X80157441Y-84030646D01*
X80157441Y-84030646D02*
X80062203Y-84078265D01*
X80062203Y-84078265D02*
X80014584Y-84173503D01*
X80014584Y-84173503D02*
X80014584Y-84316360D01*
X80014584Y-84316360D02*
X80062203Y-84411598D01*
X80633632Y-84840170D02*
X80681251Y-84935408D01*
X80681251Y-84935408D02*
X80681251Y-85125884D01*
X80681251Y-85125884D02*
X80633632Y-85221122D01*
X80633632Y-85221122D02*
X80538393Y-85268741D01*
X80538393Y-85268741D02*
X80490774Y-85268741D01*
X80490774Y-85268741D02*
X80395536Y-85221122D01*
X80395536Y-85221122D02*
X80347917Y-85125884D01*
X80347917Y-85125884D02*
X80347917Y-84983027D01*
X80347917Y-84983027D02*
X80300298Y-84887789D01*
X80300298Y-84887789D02*
X80205060Y-84840170D01*
X80205060Y-84840170D02*
X80157441Y-84840170D01*
X80157441Y-84840170D02*
X80062203Y-84887789D01*
X80062203Y-84887789D02*
X80014584Y-84983027D01*
X80014584Y-84983027D02*
X80014584Y-85125884D01*
X80014584Y-85125884D02*
X80062203Y-85221122D01*
X80681251Y-86125884D02*
X80157441Y-86125884D01*
X80157441Y-86125884D02*
X80062203Y-86078265D01*
X80062203Y-86078265D02*
X80014584Y-85983027D01*
X80014584Y-85983027D02*
X80014584Y-85792551D01*
X80014584Y-85792551D02*
X80062203Y-85697313D01*
X80633632Y-86125884D02*
X80681251Y-86030646D01*
X80681251Y-86030646D02*
X80681251Y-85792551D01*
X80681251Y-85792551D02*
X80633632Y-85697313D01*
X80633632Y-85697313D02*
X80538393Y-85649694D01*
X80538393Y-85649694D02*
X80443155Y-85649694D01*
X80443155Y-85649694D02*
X80347917Y-85697313D01*
X80347917Y-85697313D02*
X80300298Y-85792551D01*
X80300298Y-85792551D02*
X80300298Y-86030646D01*
X80300298Y-86030646D02*
X80252679Y-86125884D01*
X80681251Y-86602075D02*
X80014584Y-86602075D01*
X80109822Y-86602075D02*
X80062203Y-86649694D01*
X80062203Y-86649694D02*
X80014584Y-86744932D01*
X80014584Y-86744932D02*
X80014584Y-86887789D01*
X80014584Y-86887789D02*
X80062203Y-86983027D01*
X80062203Y-86983027D02*
X80157441Y-87030646D01*
X80157441Y-87030646D02*
X80681251Y-87030646D01*
X80157441Y-87030646D02*
X80062203Y-87078265D01*
X80062203Y-87078265D02*
X80014584Y-87173503D01*
X80014584Y-87173503D02*
X80014584Y-87316360D01*
X80014584Y-87316360D02*
X80062203Y-87411599D01*
X80062203Y-87411599D02*
X80157441Y-87459218D01*
X80157441Y-87459218D02*
X80681251Y-87459218D01*
X82005480Y-82078265D02*
X82005480Y-82554455D01*
X82291195Y-81983027D02*
X81291195Y-82316360D01*
X81291195Y-82316360D02*
X82291195Y-82649693D01*
X82291195Y-83125884D02*
X82243576Y-83030646D01*
X82243576Y-83030646D02*
X82148337Y-82983027D01*
X82148337Y-82983027D02*
X81291195Y-82983027D01*
X81910242Y-83506837D02*
X81910242Y-84268742D01*
X82291195Y-84744932D02*
X81291195Y-84744932D01*
X81767385Y-84744932D02*
X81767385Y-85316360D01*
X82291195Y-85316360D02*
X81291195Y-85316360D01*
X82243576Y-86173503D02*
X82291195Y-86078265D01*
X82291195Y-86078265D02*
X82291195Y-85887789D01*
X82291195Y-85887789D02*
X82243576Y-85792551D01*
X82243576Y-85792551D02*
X82148337Y-85744932D01*
X82148337Y-85744932D02*
X81767385Y-85744932D01*
X81767385Y-85744932D02*
X81672147Y-85792551D01*
X81672147Y-85792551D02*
X81624528Y-85887789D01*
X81624528Y-85887789D02*
X81624528Y-86078265D01*
X81624528Y-86078265D02*
X81672147Y-86173503D01*
X81672147Y-86173503D02*
X81767385Y-86221122D01*
X81767385Y-86221122D02*
X81862623Y-86221122D01*
X81862623Y-86221122D02*
X81957861Y-85744932D01*
X82291195Y-86649694D02*
X81624528Y-86649694D01*
X81815004Y-86649694D02*
X81719766Y-86697313D01*
X81719766Y-86697313D02*
X81672147Y-86744932D01*
X81672147Y-86744932D02*
X81624528Y-86840170D01*
X81624528Y-86840170D02*
X81624528Y-86935408D01*
X81624528Y-87125885D02*
X81624528Y-87506837D01*
X81291195Y-87268742D02*
X82148337Y-87268742D01*
X82148337Y-87268742D02*
X82243576Y-87316361D01*
X82243576Y-87316361D02*
X82291195Y-87411599D01*
X82291195Y-87411599D02*
X82291195Y-87506837D01*
X82291195Y-88268742D02*
X81767385Y-88268742D01*
X81767385Y-88268742D02*
X81672147Y-88221123D01*
X81672147Y-88221123D02*
X81624528Y-88125885D01*
X81624528Y-88125885D02*
X81624528Y-87935409D01*
X81624528Y-87935409D02*
X81672147Y-87840171D01*
X82243576Y-88268742D02*
X82291195Y-88173504D01*
X82291195Y-88173504D02*
X82291195Y-87935409D01*
X82291195Y-87935409D02*
X82243576Y-87840171D01*
X82243576Y-87840171D02*
X82148337Y-87792552D01*
X82148337Y-87792552D02*
X82053099Y-87792552D01*
X82053099Y-87792552D02*
X81957861Y-87840171D01*
X81957861Y-87840171D02*
X81910242Y-87935409D01*
X81910242Y-87935409D02*
X81910242Y-88173504D01*
X81910242Y-88173504D02*
X81862623Y-88268742D01*
X81624528Y-88744933D02*
X82291195Y-88744933D01*
X81719766Y-88744933D02*
X81672147Y-88792552D01*
X81672147Y-88792552D02*
X81624528Y-88887790D01*
X81624528Y-88887790D02*
X81624528Y-89030647D01*
X81624528Y-89030647D02*
X81672147Y-89125885D01*
X81672147Y-89125885D02*
X81767385Y-89173504D01*
X81767385Y-89173504D02*
X82291195Y-89173504D01*
X82291195Y-89649695D02*
X81624528Y-89649695D01*
X81291195Y-89649695D02*
X81338814Y-89602076D01*
X81338814Y-89602076D02*
X81386433Y-89649695D01*
X81386433Y-89649695D02*
X81338814Y-89697314D01*
X81338814Y-89697314D02*
X81291195Y-89649695D01*
X81291195Y-89649695D02*
X81386433Y-89649695D01*
M02*
