M48
; DRILL file {KiCad 8.0.5} date 2024-09-22T23:26:21-0400
; FORMAT={-:-/ absolute / metric / decimal}
; #@! TF.CreationDate,2024-09-22T23:26:21-04:00
; #@! TF.GenerationSoftware,Kicad,Pcbnew,8.0.5
; #@! TF.FileFunction,MixedPlating,1,2
FMAT,2
METRIC
; #@! TA.AperFunction,Plated,PTH,ViaDrill
T1C0.300
; #@! TA.AperFunction,Plated,PTH,ComponentDrill
T2C1.016
; #@! TA.AperFunction,Plated,PTH,ComponentDrill
T3C1.320
; #@! TA.AperFunction,NonPlated,NPTH,ComponentDrill
T4C3.200
%
G90
G05
T1
X75.0Y-78.8
X75.0Y-80.2
X75.0Y-82.5
X75.0Y-85.0
X75.0Y-92.5
X75.0Y-95.0
X75.0Y-97.5
X75.0Y-100.0
X75.0Y-102.5
X75.0Y-112.5
X75.0Y-115.0
X77.0Y-85.0
X77.0Y-92.6
X77.0Y-112.6
X77.0Y-115.0
X77.2Y-80.8
X77.2Y-82.4
X77.25Y-103.5
X77.4Y-95.0
X77.4Y-97.6
X77.4Y-100.0
X82.5Y-72.5
X82.5Y-117.5
X82.5Y-122.5
X83.0Y-76.4
X83.0Y-79.2
X87.25Y-118.75
X91.6Y-117.2
X92.5Y-120.0
X93.0Y-78.6
X93.6Y-76.0
X95.0Y-117.5
X95.0Y-120.0
X97.5Y-72.5
X97.5Y-121.0
X97.5Y-122.5
X100.0Y-121.0
X100.0Y-122.5
X101.0Y-96.25
X102.25Y-105.5
X102.5Y-121.0
X102.5Y-122.5
X103.2Y-72.6
X105.0Y-90.8
X105.0Y-121.0
X105.0Y-122.5
X105.5Y-93.25
X105.75Y-101.0
X105.75Y-103.5
X106.2Y-72.6
X107.0Y-121.0
X107.0Y-122.5
X108.6Y-72.6
X110.0Y-123.5
X111.2Y-72.6
X111.4Y-81.6
X111.4Y-83.6
X111.4Y-86.2
X111.4Y-88.8
X112.268Y-120.904
X112.268Y-122.428
X112.5Y-97.0
X112.5Y-99.5
X113.8Y-72.6
X113.8Y-74.6
X113.8Y-81.6
X113.8Y-83.6
X113.8Y-86.2
X113.8Y-88.8
X114.808Y-120.904
X114.808Y-122.5
X115.0Y-97.0
X115.0Y-99.5
X116.0Y-105.5
X116.6Y-91.8
X116.6Y-103.0
X117.5Y-77.5
X117.5Y-80.0
X117.5Y-82.5
X117.5Y-85.0
X117.5Y-87.5
X117.8Y-96.2
X117.8Y-97.6
X118.5Y-103.5
X118.5Y-105.5
X120.0Y-77.5
X120.0Y-80.0
X120.0Y-82.5
X120.0Y-85.0
X120.4Y-91.4
X120.904Y-120.65
X121.0Y-103.5
X121.0Y-105.5
X121.0Y-122.4
X121.6Y-90.0
X123.0Y-103.8
X123.698Y-120.65
X123.698Y-122.428
X124.5Y-91.5
X125.0Y-80.0
X125.0Y-82.4
X125.0Y-85.0
X125.0Y-103.0
X126.5Y-91.5
X127.0Y-97.8
X127.4Y-80.0
X127.4Y-85.0
X127.5Y-77.5
X127.5Y-82.5
X128.0Y-95.2
X128.0Y-103.0
X128.5Y-91.5
X129.0Y-105.6
X129.5Y-99.5
X130.0Y-77.6
X130.0Y-80.0
X130.0Y-82.6
X130.0Y-85.0
X131.5Y-99.5
X132.0Y-96.8
X132.5Y-77.5
X132.5Y-82.5
X132.5Y-85.0
X132.6Y-80.2
X133.0Y-99.5
X133.5Y-97.0
X134.0Y-92.2
X134.0Y-103.0
X135.0Y-77.6
X137.25Y-107.0
X137.5Y-77.5
X139.25Y-101.75
X140.0Y-77.6
X140.25Y-91.25
X142.5Y-77.5
X143.0Y-101.5
X144.4Y-97.0
X144.938Y-89.438
X145.0Y-90.6
X146.4Y-121.0
X147.2Y-123.4
X153.0Y-117.6
X154.25Y-119.25
X155.6Y-117.8
X160.6Y-76.0
X163.8Y-76.0
X164.2Y-79.4
X164.2Y-117.5
X164.2Y-120.0
X164.2Y-123.2
X165.0Y-72.5
X170.0Y-80.8
X170.0Y-82.5
X170.0Y-90.0
X170.0Y-92.5
X170.0Y-95.0
X170.0Y-97.5
X170.0Y-100.0
X170.0Y-102.5
X170.0Y-106.2
X170.0Y-108.6
X170.0Y-115.0
X172.4Y-106.2
X172.4Y-108.6
X172.5Y-79.2
X172.5Y-82.5
X172.5Y-90.0
X172.5Y-92.5
X172.5Y-95.0
X172.5Y-97.5
X172.5Y-100.0
X172.5Y-102.5
X172.5Y-115.0
X172.5Y-117.5
T2
X84.68Y-74.2
X84.68Y-122.46
X87.22Y-74.2
X87.22Y-122.46
X89.76Y-74.2
X89.76Y-122.46
X92.3Y-74.2
X92.3Y-122.46
X94.84Y-74.2
X94.84Y-122.46
X117.446Y-74.2
X119.986Y-74.2
X122.526Y-74.2
X125.066Y-74.2
X126.59Y-122.46
X127.606Y-74.2
X129.13Y-122.46
X130.146Y-74.2
X131.67Y-122.46
X132.686Y-74.2
X134.21Y-122.46
X135.226Y-74.2
X136.75Y-122.46
X137.766Y-74.2
X139.29Y-122.46
X140.306Y-74.2
X141.83Y-122.46
X144.37Y-74.2
X144.37Y-122.46
X146.91Y-74.2
X149.45Y-74.2
X149.45Y-122.46
X151.99Y-74.2
X151.99Y-122.46
X154.53Y-74.2
X154.53Y-122.46
X157.07Y-74.2
X157.07Y-122.46
X159.61Y-74.2
X159.61Y-122.46
X162.15Y-74.2
X162.15Y-122.46
T3
X81.2Y-96.5
X81.2Y-101.5
X107.2Y-79.0
X112.2Y-79.0
X165.8Y-96.4
X165.8Y-101.4
T4
X78.5Y-76.5
X78.5Y-120.0
X168.5Y-76.5
X168.5Y-120.0
M30
