M48
; DRILL file {KiCad 8.0.0} date 2024-06-28T13:30:07-0400
; FORMAT={-:-/ absolute / metric / decimal}
; #@! TF.CreationDate,2024-06-28T13:30:07-04:00
; #@! TF.GenerationSoftware,Kicad,Pcbnew,8.0.0
; #@! TF.FileFunction,MixedPlating,1,2
FMAT,2
METRIC
; #@! TA.AperFunction,Plated,PTH,ViaDrill
T1C0.300
; #@! TA.AperFunction,Plated,PTH,ComponentDrill
T2C0.800
; #@! TA.AperFunction,Plated,PTH,ComponentDrill
T3C0.900
; #@! TA.AperFunction,Plated,PTH,ComponentDrill
T4C1.000
; #@! TA.AperFunction,Plated,PTH,ComponentDrill
T5C1.016
; #@! TA.AperFunction,Plated,PTH,ComponentDrill
T6C1.200
; #@! TA.AperFunction,Plated,PTH,ComponentDrill
T7C1.320
; #@! TA.AperFunction,Plated,PTH,ComponentDrill
T8C1.600
; #@! TA.AperFunction,NonPlated,NPTH,ComponentDrill
T9C3.200
%
G90
G05
T1
X73.75Y-125.0
X73.75Y-146.25
X74.0Y-143.0
X75.5Y-79.5
X75.5Y-84.5
X75.5Y-90.0
X75.5Y-101.0
X75.5Y-109.5
X75.5Y-112.5
X76.0Y-141.75
X76.5Y-74.0
X76.5Y-129.25
X77.0Y-137.75
X79.0Y-117.0
X79.0Y-141.5
X79.1Y-149.5
X79.2Y-128.8
X79.5Y-74.0
X80.5Y-133.5
X80.5Y-137.75
X80.5Y-143.0
X81.75Y-145.5
X82.169Y-129.413
X82.75Y-101.25
X82.75Y-103.75
X82.75Y-106.5
X82.75Y-108.5
X82.75Y-110.75
X82.75Y-114.5
X84.328Y-133.731
X85.217Y-137.795
X90.0Y-147.0
X90.0Y-148.5
X91.5Y-147.0
X91.5Y-148.5
X93.0Y-124.0
X93.0Y-140.0
X93.0Y-142.0
X93.0Y-149.5
X95.0Y-149.5
X95.5Y-142.0
X97.0Y-124.0
X97.0Y-149.5
X99.0Y-149.5
X99.749Y-120.454
X99.833Y-122.104
X101.0Y-149.5
X101.767Y-126.77
X102.0Y-138.5
X102.6Y-141.0
X102.732Y-123.317
X103.0Y-149.5
X105.8Y-141.0
X108.0Y-138.5
X108.2Y-141.0
X109.413Y-128.573
X110.0Y-137.0
X111.301Y-120.81
X111.81Y-127.093
X112.133Y-111.369
X115.279Y-130.221
X115.4Y-138.4
X115.4Y-141.4
X115.573Y-127.611
X115.905Y-111.303
X116.0Y-51.5
X116.0Y-55.25
X116.5Y-139.5
X117.243Y-127.479
X117.633Y-132.461
X118.0Y-149.0
X118.6Y-118.8
X119.25Y-116.75
X120.0Y-118.8
X120.25Y-115.25
X123.6Y-118.4
X123.75Y-136.5
X124.0Y-132.0
X124.4Y-117.2
X125.0Y-115.0
X127.5Y-91.25
X127.75Y-115.0
X127.8Y-112.6
X129.0Y-86.0
X129.0Y-131.75
X129.0Y-149.0
X129.5Y-113.0
X130.0Y-55.0
X130.0Y-60.0
X130.0Y-65.0
X130.0Y-70.0
X130.0Y-75.0
X130.0Y-80.0
X130.0Y-89.0
X130.0Y-92.5
X132.5Y-86.0
X134.0Y-116.0
X135.0Y-55.0
X135.0Y-60.0
X135.0Y-65.0
X135.0Y-70.0
X135.0Y-75.0
X135.0Y-80.0
X135.0Y-86.0
X135.0Y-89.0
X135.0Y-92.5
X137.5Y-86.0
X139.5Y-86.0
X140.0Y-55.0
X140.0Y-60.0
X140.0Y-65.0
X140.0Y-70.0
X140.0Y-75.0
X140.0Y-80.0
X140.0Y-89.0
X140.0Y-116.0
X140.038Y-109.962
X141.959Y-125.5
X142.0Y-149.0
X144.0Y-124.781
X144.25Y-91.25
X144.25Y-115.75
X144.361Y-100.961
X145.0Y-55.0
X145.0Y-60.0
X145.0Y-65.0
X145.0Y-70.0
X145.0Y-75.0
X145.0Y-80.0
X145.0Y-113.0
X145.5Y-125.624
X145.6Y-98.8
X145.618Y-119.735
X148.0Y-116.0
X150.0Y-55.0
X150.0Y-60.0
X150.0Y-65.0
X150.0Y-70.0
X150.0Y-75.0
X150.0Y-80.0
X150.0Y-95.0
X150.734Y-110.158
X151.0Y-116.0
X151.689Y-109.947
X151.929Y-109.048
X152.0Y-98.5
X152.703Y-116.121
X153.057Y-117.307
X155.0Y-55.0
X155.0Y-60.0
X155.0Y-65.0
X155.0Y-70.0
X155.0Y-75.0
X155.0Y-90.0
X158.0Y-93.0
X158.0Y-98.5
X158.0Y-113.0
X159.593Y-118.894
X160.0Y-55.0
X160.0Y-60.0
X160.0Y-65.0
X160.0Y-70.0
X160.0Y-85.0
X161.75Y-132.0
X162.0Y-109.0
X163.0Y-149.0
X163.5Y-107.5
X164.0Y-93.0
X164.5Y-123.5
X164.75Y-132.0
X165.0Y-80.0
X166.0Y-126.5
X166.75Y-71.25
X167.5Y-88.5
X167.5Y-103.5
X169.0Y-119.5
X171.0Y-75.5
X171.0Y-78.0
X171.0Y-80.5
X171.0Y-83.5
X171.0Y-86.0
T2
X90.496Y-135.897
X90.496Y-138.437
X90.496Y-140.977
X90.5Y-87.64
X90.5Y-90.18
X90.5Y-92.72
X90.5Y-95.26
X90.5Y-97.8
X90.5Y-100.34
X90.5Y-102.88
X90.5Y-105.42
X90.5Y-107.96
X90.5Y-110.5
X90.5Y-113.04
X90.5Y-115.58
X90.5Y-118.12
X90.5Y-120.66
X90.5Y-123.2
X90.5Y-125.74
X90.5Y-128.28
X90.5Y-130.82
X90.5Y-133.36
X113.36Y-87.64
X113.36Y-90.18
X113.36Y-92.72
X113.36Y-95.26
X113.36Y-97.8
X113.36Y-100.34
X113.36Y-102.88
X113.36Y-105.42
X113.36Y-107.96
X113.36Y-110.5
X113.36Y-113.04
X113.36Y-115.58
X113.36Y-118.12
X113.36Y-120.66
X113.36Y-123.2
X113.36Y-125.74
X113.36Y-128.28
X113.36Y-130.82
X113.36Y-133.36
X113.36Y-135.9
X113.36Y-138.44
X113.36Y-140.98
T3
X78.75Y-105.0
X78.75Y-109.0
X78.75Y-113.0
T4
X83.225Y-143.25
X85.765Y-143.25
T5
X74.55Y-60.46
X74.55Y-63.0
X74.55Y-65.54
X74.55Y-68.08
X74.55Y-70.62
X116.165Y-60.46
X116.165Y-63.0
X116.165Y-65.54
X116.165Y-68.08
X116.165Y-70.62
X121.79Y-61.68
X121.79Y-64.22
X121.79Y-66.76
X121.79Y-69.3
X121.79Y-71.84
X121.79Y-103.59
X121.79Y-106.13
X121.79Y-108.67
X121.79Y-111.21
X121.79Y-113.75
X121.79Y-116.29
X121.79Y-118.83
X121.79Y-121.37
X121.79Y-126.45
X121.79Y-128.99
X121.79Y-131.53
X121.79Y-134.07
X121.79Y-136.61
X121.79Y-139.15
X170.05Y-61.68
X170.05Y-64.22
X170.05Y-66.76
X170.05Y-69.3
X170.05Y-71.84
X170.05Y-94.446
X170.05Y-96.986
X170.05Y-99.526
X170.05Y-102.066
X170.05Y-104.606
X170.05Y-107.146
X170.05Y-109.686
X170.05Y-112.226
X170.05Y-114.766
X170.05Y-117.306
X170.05Y-121.37
X170.05Y-123.91
X170.05Y-126.45
X170.05Y-128.99
X170.05Y-131.53
X170.05Y-134.07
X170.05Y-136.61
X170.05Y-139.15
T6
X74.5Y-103.0
X74.5Y-115.0
X80.5Y-103.0
X80.5Y-115.0
T7
X79.5Y-79.765
X79.5Y-84.765
T8
X75.0Y-93.8
X78.0Y-98.5
X81.0Y-93.8
T9
X77.75Y-55.69
X77.75Y-145.75
X124.25Y-55.5
X124.25Y-145.5
X167.75Y-55.5
X167.75Y-145.5
M30
