%TF.GenerationSoftware,KiCad,Pcbnew,8.0.0*%
%TF.CreationDate,2024-06-28T13:29:57-04:00*%
%TF.ProjectId,myBaseBoardDesignv1,6d794261-7365-4426-9f61-726444657369,rev?*%
%TF.SameCoordinates,Original*%
%TF.FileFunction,Legend,Bot*%
%TF.FilePolarity,Positive*%
%FSLAX46Y46*%
G04 Gerber Fmt 4.6, Leading zero omitted, Abs format (unit mm)*
G04 Created by KiCad (PCBNEW 8.0.0) date 2024-06-28 13:29:57*
%MOMM*%
%LPD*%
G01*
G04 APERTURE LIST*
%ADD10C,0.150000*%
G04 APERTURE END LIST*
D10*
X101873173Y-52961914D02*
X101658887Y-53033342D01*
X101658887Y-53033342D02*
X101587458Y-53104771D01*
X101587458Y-53104771D02*
X101516030Y-53247628D01*
X101516030Y-53247628D02*
X101516030Y-53461914D01*
X101516030Y-53461914D02*
X101587458Y-53604771D01*
X101587458Y-53604771D02*
X101658887Y-53676200D01*
X101658887Y-53676200D02*
X101801744Y-53747628D01*
X101801744Y-53747628D02*
X102373173Y-53747628D01*
X102373173Y-53747628D02*
X102373173Y-52247628D01*
X102373173Y-52247628D02*
X101873173Y-52247628D01*
X101873173Y-52247628D02*
X101730316Y-52319057D01*
X101730316Y-52319057D02*
X101658887Y-52390485D01*
X101658887Y-52390485D02*
X101587458Y-52533342D01*
X101587458Y-52533342D02*
X101587458Y-52676200D01*
X101587458Y-52676200D02*
X101658887Y-52819057D01*
X101658887Y-52819057D02*
X101730316Y-52890485D01*
X101730316Y-52890485D02*
X101873173Y-52961914D01*
X101873173Y-52961914D02*
X102373173Y-52961914D01*
X100230316Y-53747628D02*
X100230316Y-52961914D01*
X100230316Y-52961914D02*
X100301744Y-52819057D01*
X100301744Y-52819057D02*
X100444601Y-52747628D01*
X100444601Y-52747628D02*
X100730316Y-52747628D01*
X100730316Y-52747628D02*
X100873173Y-52819057D01*
X100230316Y-53676200D02*
X100373173Y-53747628D01*
X100373173Y-53747628D02*
X100730316Y-53747628D01*
X100730316Y-53747628D02*
X100873173Y-53676200D01*
X100873173Y-53676200D02*
X100944601Y-53533342D01*
X100944601Y-53533342D02*
X100944601Y-53390485D01*
X100944601Y-53390485D02*
X100873173Y-53247628D01*
X100873173Y-53247628D02*
X100730316Y-53176200D01*
X100730316Y-53176200D02*
X100373173Y-53176200D01*
X100373173Y-53176200D02*
X100230316Y-53104771D01*
X99587458Y-53676200D02*
X99444601Y-53747628D01*
X99444601Y-53747628D02*
X99158887Y-53747628D01*
X99158887Y-53747628D02*
X99016030Y-53676200D01*
X99016030Y-53676200D02*
X98944601Y-53533342D01*
X98944601Y-53533342D02*
X98944601Y-53461914D01*
X98944601Y-53461914D02*
X99016030Y-53319057D01*
X99016030Y-53319057D02*
X99158887Y-53247628D01*
X99158887Y-53247628D02*
X99373173Y-53247628D01*
X99373173Y-53247628D02*
X99516030Y-53176200D01*
X99516030Y-53176200D02*
X99587458Y-53033342D01*
X99587458Y-53033342D02*
X99587458Y-52961914D01*
X99587458Y-52961914D02*
X99516030Y-52819057D01*
X99516030Y-52819057D02*
X99373173Y-52747628D01*
X99373173Y-52747628D02*
X99158887Y-52747628D01*
X99158887Y-52747628D02*
X99016030Y-52819057D01*
X97730315Y-53676200D02*
X97873172Y-53747628D01*
X97873172Y-53747628D02*
X98158887Y-53747628D01*
X98158887Y-53747628D02*
X98301744Y-53676200D01*
X98301744Y-53676200D02*
X98373172Y-53533342D01*
X98373172Y-53533342D02*
X98373172Y-52961914D01*
X98373172Y-52961914D02*
X98301744Y-52819057D01*
X98301744Y-52819057D02*
X98158887Y-52747628D01*
X98158887Y-52747628D02*
X97873172Y-52747628D01*
X97873172Y-52747628D02*
X97730315Y-52819057D01*
X97730315Y-52819057D02*
X97658887Y-52961914D01*
X97658887Y-52961914D02*
X97658887Y-53104771D01*
X97658887Y-53104771D02*
X98373172Y-53247628D01*
X96516030Y-52961914D02*
X96301744Y-53033342D01*
X96301744Y-53033342D02*
X96230315Y-53104771D01*
X96230315Y-53104771D02*
X96158887Y-53247628D01*
X96158887Y-53247628D02*
X96158887Y-53461914D01*
X96158887Y-53461914D02*
X96230315Y-53604771D01*
X96230315Y-53604771D02*
X96301744Y-53676200D01*
X96301744Y-53676200D02*
X96444601Y-53747628D01*
X96444601Y-53747628D02*
X97016030Y-53747628D01*
X97016030Y-53747628D02*
X97016030Y-52247628D01*
X97016030Y-52247628D02*
X96516030Y-52247628D01*
X96516030Y-52247628D02*
X96373173Y-52319057D01*
X96373173Y-52319057D02*
X96301744Y-52390485D01*
X96301744Y-52390485D02*
X96230315Y-52533342D01*
X96230315Y-52533342D02*
X96230315Y-52676200D01*
X96230315Y-52676200D02*
X96301744Y-52819057D01*
X96301744Y-52819057D02*
X96373173Y-52890485D01*
X96373173Y-52890485D02*
X96516030Y-52961914D01*
X96516030Y-52961914D02*
X97016030Y-52961914D01*
X95301744Y-53747628D02*
X95444601Y-53676200D01*
X95444601Y-53676200D02*
X95516030Y-53604771D01*
X95516030Y-53604771D02*
X95587458Y-53461914D01*
X95587458Y-53461914D02*
X95587458Y-53033342D01*
X95587458Y-53033342D02*
X95516030Y-52890485D01*
X95516030Y-52890485D02*
X95444601Y-52819057D01*
X95444601Y-52819057D02*
X95301744Y-52747628D01*
X95301744Y-52747628D02*
X95087458Y-52747628D01*
X95087458Y-52747628D02*
X94944601Y-52819057D01*
X94944601Y-52819057D02*
X94873173Y-52890485D01*
X94873173Y-52890485D02*
X94801744Y-53033342D01*
X94801744Y-53033342D02*
X94801744Y-53461914D01*
X94801744Y-53461914D02*
X94873173Y-53604771D01*
X94873173Y-53604771D02*
X94944601Y-53676200D01*
X94944601Y-53676200D02*
X95087458Y-53747628D01*
X95087458Y-53747628D02*
X95301744Y-53747628D01*
X93516030Y-53747628D02*
X93516030Y-52961914D01*
X93516030Y-52961914D02*
X93587458Y-52819057D01*
X93587458Y-52819057D02*
X93730315Y-52747628D01*
X93730315Y-52747628D02*
X94016030Y-52747628D01*
X94016030Y-52747628D02*
X94158887Y-52819057D01*
X93516030Y-53676200D02*
X93658887Y-53747628D01*
X93658887Y-53747628D02*
X94016030Y-53747628D01*
X94016030Y-53747628D02*
X94158887Y-53676200D01*
X94158887Y-53676200D02*
X94230315Y-53533342D01*
X94230315Y-53533342D02*
X94230315Y-53390485D01*
X94230315Y-53390485D02*
X94158887Y-53247628D01*
X94158887Y-53247628D02*
X94016030Y-53176200D01*
X94016030Y-53176200D02*
X93658887Y-53176200D01*
X93658887Y-53176200D02*
X93516030Y-53104771D01*
X92801744Y-53747628D02*
X92801744Y-52747628D01*
X92801744Y-53033342D02*
X92730315Y-52890485D01*
X92730315Y-52890485D02*
X92658887Y-52819057D01*
X92658887Y-52819057D02*
X92516029Y-52747628D01*
X92516029Y-52747628D02*
X92373172Y-52747628D01*
X91230316Y-53747628D02*
X91230316Y-52247628D01*
X91230316Y-53676200D02*
X91373173Y-53747628D01*
X91373173Y-53747628D02*
X91658887Y-53747628D01*
X91658887Y-53747628D02*
X91801744Y-53676200D01*
X91801744Y-53676200D02*
X91873173Y-53604771D01*
X91873173Y-53604771D02*
X91944601Y-53461914D01*
X91944601Y-53461914D02*
X91944601Y-53033342D01*
X91944601Y-53033342D02*
X91873173Y-52890485D01*
X91873173Y-52890485D02*
X91801744Y-52819057D01*
X91801744Y-52819057D02*
X91658887Y-52747628D01*
X91658887Y-52747628D02*
X91373173Y-52747628D01*
X91373173Y-52747628D02*
X91230316Y-52819057D01*
X102587458Y-54662544D02*
X101730316Y-54662544D01*
X102158887Y-56162544D02*
X102158887Y-54662544D01*
X100658887Y-56091116D02*
X100801744Y-56162544D01*
X100801744Y-56162544D02*
X101087459Y-56162544D01*
X101087459Y-56162544D02*
X101230316Y-56091116D01*
X101230316Y-56091116D02*
X101301744Y-55948258D01*
X101301744Y-55948258D02*
X101301744Y-55376830D01*
X101301744Y-55376830D02*
X101230316Y-55233973D01*
X101230316Y-55233973D02*
X101087459Y-55162544D01*
X101087459Y-55162544D02*
X100801744Y-55162544D01*
X100801744Y-55162544D02*
X100658887Y-55233973D01*
X100658887Y-55233973D02*
X100587459Y-55376830D01*
X100587459Y-55376830D02*
X100587459Y-55519687D01*
X100587459Y-55519687D02*
X101301744Y-55662544D01*
X99944602Y-56162544D02*
X99944602Y-55162544D01*
X99944602Y-55305401D02*
X99873173Y-55233973D01*
X99873173Y-55233973D02*
X99730316Y-55162544D01*
X99730316Y-55162544D02*
X99516030Y-55162544D01*
X99516030Y-55162544D02*
X99373173Y-55233973D01*
X99373173Y-55233973D02*
X99301745Y-55376830D01*
X99301745Y-55376830D02*
X99301745Y-56162544D01*
X99301745Y-55376830D02*
X99230316Y-55233973D01*
X99230316Y-55233973D02*
X99087459Y-55162544D01*
X99087459Y-55162544D02*
X98873173Y-55162544D01*
X98873173Y-55162544D02*
X98730316Y-55233973D01*
X98730316Y-55233973D02*
X98658887Y-55376830D01*
X98658887Y-55376830D02*
X98658887Y-56162544D01*
X97944602Y-55162544D02*
X97944602Y-56662544D01*
X97944602Y-55233973D02*
X97801745Y-55162544D01*
X97801745Y-55162544D02*
X97516030Y-55162544D01*
X97516030Y-55162544D02*
X97373173Y-55233973D01*
X97373173Y-55233973D02*
X97301745Y-55305401D01*
X97301745Y-55305401D02*
X97230316Y-55448258D01*
X97230316Y-55448258D02*
X97230316Y-55876830D01*
X97230316Y-55876830D02*
X97301745Y-56019687D01*
X97301745Y-56019687D02*
X97373173Y-56091116D01*
X97373173Y-56091116D02*
X97516030Y-56162544D01*
X97516030Y-56162544D02*
X97801745Y-56162544D01*
X97801745Y-56162544D02*
X97944602Y-56091116D01*
X96373173Y-56162544D02*
X96516030Y-56091116D01*
X96516030Y-56091116D02*
X96587459Y-55948258D01*
X96587459Y-55948258D02*
X96587459Y-54662544D01*
X95158888Y-56162544D02*
X95158888Y-55376830D01*
X95158888Y-55376830D02*
X95230316Y-55233973D01*
X95230316Y-55233973D02*
X95373173Y-55162544D01*
X95373173Y-55162544D02*
X95658888Y-55162544D01*
X95658888Y-55162544D02*
X95801745Y-55233973D01*
X95158888Y-56091116D02*
X95301745Y-56162544D01*
X95301745Y-56162544D02*
X95658888Y-56162544D01*
X95658888Y-56162544D02*
X95801745Y-56091116D01*
X95801745Y-56091116D02*
X95873173Y-55948258D01*
X95873173Y-55948258D02*
X95873173Y-55805401D01*
X95873173Y-55805401D02*
X95801745Y-55662544D01*
X95801745Y-55662544D02*
X95658888Y-55591116D01*
X95658888Y-55591116D02*
X95301745Y-55591116D01*
X95301745Y-55591116D02*
X95158888Y-55519687D01*
X94658887Y-55162544D02*
X94087459Y-55162544D01*
X94444602Y-54662544D02*
X94444602Y-55948258D01*
X94444602Y-55948258D02*
X94373173Y-56091116D01*
X94373173Y-56091116D02*
X94230316Y-56162544D01*
X94230316Y-56162544D02*
X94087459Y-56162544D01*
X93016030Y-56091116D02*
X93158887Y-56162544D01*
X93158887Y-56162544D02*
X93444602Y-56162544D01*
X93444602Y-56162544D02*
X93587459Y-56091116D01*
X93587459Y-56091116D02*
X93658887Y-55948258D01*
X93658887Y-55948258D02*
X93658887Y-55376830D01*
X93658887Y-55376830D02*
X93587459Y-55233973D01*
X93587459Y-55233973D02*
X93444602Y-55162544D01*
X93444602Y-55162544D02*
X93158887Y-55162544D01*
X93158887Y-55162544D02*
X93016030Y-55233973D01*
X93016030Y-55233973D02*
X92944602Y-55376830D01*
X92944602Y-55376830D02*
X92944602Y-55519687D01*
X92944602Y-55519687D02*
X93658887Y-55662544D01*
X102516030Y-57577460D02*
X102158887Y-58577460D01*
X102158887Y-58577460D02*
X101801744Y-57577460D01*
X100944601Y-57077460D02*
X100801744Y-57077460D01*
X100801744Y-57077460D02*
X100658887Y-57148889D01*
X100658887Y-57148889D02*
X100587459Y-57220317D01*
X100587459Y-57220317D02*
X100516030Y-57363174D01*
X100516030Y-57363174D02*
X100444601Y-57648889D01*
X100444601Y-57648889D02*
X100444601Y-58006032D01*
X100444601Y-58006032D02*
X100516030Y-58291746D01*
X100516030Y-58291746D02*
X100587459Y-58434603D01*
X100587459Y-58434603D02*
X100658887Y-58506032D01*
X100658887Y-58506032D02*
X100801744Y-58577460D01*
X100801744Y-58577460D02*
X100944601Y-58577460D01*
X100944601Y-58577460D02*
X101087459Y-58506032D01*
X101087459Y-58506032D02*
X101158887Y-58434603D01*
X101158887Y-58434603D02*
X101230316Y-58291746D01*
X101230316Y-58291746D02*
X101301744Y-58006032D01*
X101301744Y-58006032D02*
X101301744Y-57648889D01*
X101301744Y-57648889D02*
X101230316Y-57363174D01*
X101230316Y-57363174D02*
X101158887Y-57220317D01*
X101158887Y-57220317D02*
X101087459Y-57148889D01*
X101087459Y-57148889D02*
X100944601Y-57077460D01*
X99801745Y-58434603D02*
X99730316Y-58506032D01*
X99730316Y-58506032D02*
X99801745Y-58577460D01*
X99801745Y-58577460D02*
X99873173Y-58506032D01*
X99873173Y-58506032D02*
X99801745Y-58434603D01*
X99801745Y-58434603D02*
X99801745Y-58577460D01*
X98301744Y-58577460D02*
X99158887Y-58577460D01*
X98730316Y-58577460D02*
X98730316Y-57077460D01*
X98730316Y-57077460D02*
X98873173Y-57291746D01*
X98873173Y-57291746D02*
X99016030Y-57434603D01*
X99016030Y-57434603D02*
X99158887Y-57506032D01*
X102373173Y-60992376D02*
X102373173Y-59492376D01*
X102373173Y-60206662D02*
X101516030Y-60206662D01*
X101516030Y-60992376D02*
X101516030Y-59492376D01*
X100158887Y-59992376D02*
X100158887Y-60992376D01*
X100801744Y-59992376D02*
X100801744Y-60778090D01*
X100801744Y-60778090D02*
X100730315Y-60920948D01*
X100730315Y-60920948D02*
X100587458Y-60992376D01*
X100587458Y-60992376D02*
X100373172Y-60992376D01*
X100373172Y-60992376D02*
X100230315Y-60920948D01*
X100230315Y-60920948D02*
X100158887Y-60849519D01*
X99516029Y-60920948D02*
X99373172Y-60992376D01*
X99373172Y-60992376D02*
X99087458Y-60992376D01*
X99087458Y-60992376D02*
X98944601Y-60920948D01*
X98944601Y-60920948D02*
X98873172Y-60778090D01*
X98873172Y-60778090D02*
X98873172Y-60706662D01*
X98873172Y-60706662D02*
X98944601Y-60563805D01*
X98944601Y-60563805D02*
X99087458Y-60492376D01*
X99087458Y-60492376D02*
X99301744Y-60492376D01*
X99301744Y-60492376D02*
X99444601Y-60420948D01*
X99444601Y-60420948D02*
X99516029Y-60278090D01*
X99516029Y-60278090D02*
X99516029Y-60206662D01*
X99516029Y-60206662D02*
X99444601Y-60063805D01*
X99444601Y-60063805D02*
X99301744Y-59992376D01*
X99301744Y-59992376D02*
X99087458Y-59992376D01*
X99087458Y-59992376D02*
X98944601Y-60063805D01*
X98301743Y-60920948D02*
X98158886Y-60992376D01*
X98158886Y-60992376D02*
X97873172Y-60992376D01*
X97873172Y-60992376D02*
X97730315Y-60920948D01*
X97730315Y-60920948D02*
X97658886Y-60778090D01*
X97658886Y-60778090D02*
X97658886Y-60706662D01*
X97658886Y-60706662D02*
X97730315Y-60563805D01*
X97730315Y-60563805D02*
X97873172Y-60492376D01*
X97873172Y-60492376D02*
X98087458Y-60492376D01*
X98087458Y-60492376D02*
X98230315Y-60420948D01*
X98230315Y-60420948D02*
X98301743Y-60278090D01*
X98301743Y-60278090D02*
X98301743Y-60206662D01*
X98301743Y-60206662D02*
X98230315Y-60063805D01*
X98230315Y-60063805D02*
X98087458Y-59992376D01*
X98087458Y-59992376D02*
X97873172Y-59992376D01*
X97873172Y-59992376D02*
X97730315Y-60063805D01*
X96373172Y-60992376D02*
X96373172Y-60206662D01*
X96373172Y-60206662D02*
X96444600Y-60063805D01*
X96444600Y-60063805D02*
X96587457Y-59992376D01*
X96587457Y-59992376D02*
X96873172Y-59992376D01*
X96873172Y-59992376D02*
X97016029Y-60063805D01*
X96373172Y-60920948D02*
X96516029Y-60992376D01*
X96516029Y-60992376D02*
X96873172Y-60992376D01*
X96873172Y-60992376D02*
X97016029Y-60920948D01*
X97016029Y-60920948D02*
X97087457Y-60778090D01*
X97087457Y-60778090D02*
X97087457Y-60635233D01*
X97087457Y-60635233D02*
X97016029Y-60492376D01*
X97016029Y-60492376D02*
X96873172Y-60420948D01*
X96873172Y-60420948D02*
X96516029Y-60420948D01*
X96516029Y-60420948D02*
X96373172Y-60349519D01*
X95658886Y-60992376D02*
X95658886Y-59992376D01*
X95658886Y-60135233D02*
X95587457Y-60063805D01*
X95587457Y-60063805D02*
X95444600Y-59992376D01*
X95444600Y-59992376D02*
X95230314Y-59992376D01*
X95230314Y-59992376D02*
X95087457Y-60063805D01*
X95087457Y-60063805D02*
X95016029Y-60206662D01*
X95016029Y-60206662D02*
X95016029Y-60992376D01*
X95016029Y-60206662D02*
X94944600Y-60063805D01*
X94944600Y-60063805D02*
X94801743Y-59992376D01*
X94801743Y-59992376D02*
X94587457Y-59992376D01*
X94587457Y-59992376D02*
X94444600Y-60063805D01*
X94444600Y-60063805D02*
X94373171Y-60206662D01*
X94373171Y-60206662D02*
X94373171Y-60992376D01*
X102444601Y-62978721D02*
X101730316Y-62978721D01*
X102587458Y-63407292D02*
X102087458Y-61907292D01*
X102087458Y-61907292D02*
X101587458Y-63407292D01*
X100873173Y-63407292D02*
X101016030Y-63335864D01*
X101016030Y-63335864D02*
X101087459Y-63193006D01*
X101087459Y-63193006D02*
X101087459Y-61907292D01*
X100301745Y-62835864D02*
X99158888Y-62835864D01*
X98444602Y-63407292D02*
X98444602Y-61907292D01*
X98444602Y-62621578D02*
X97587459Y-62621578D01*
X97587459Y-63407292D02*
X97587459Y-61907292D01*
X96301744Y-63335864D02*
X96444601Y-63407292D01*
X96444601Y-63407292D02*
X96730316Y-63407292D01*
X96730316Y-63407292D02*
X96873173Y-63335864D01*
X96873173Y-63335864D02*
X96944601Y-63193006D01*
X96944601Y-63193006D02*
X96944601Y-62621578D01*
X96944601Y-62621578D02*
X96873173Y-62478721D01*
X96873173Y-62478721D02*
X96730316Y-62407292D01*
X96730316Y-62407292D02*
X96444601Y-62407292D01*
X96444601Y-62407292D02*
X96301744Y-62478721D01*
X96301744Y-62478721D02*
X96230316Y-62621578D01*
X96230316Y-62621578D02*
X96230316Y-62764435D01*
X96230316Y-62764435D02*
X96944601Y-62907292D01*
X95587459Y-63407292D02*
X95587459Y-62407292D01*
X95587459Y-62693006D02*
X95516030Y-62550149D01*
X95516030Y-62550149D02*
X95444602Y-62478721D01*
X95444602Y-62478721D02*
X95301744Y-62407292D01*
X95301744Y-62407292D02*
X95158887Y-62407292D01*
X94873173Y-62407292D02*
X94301745Y-62407292D01*
X94658888Y-61907292D02*
X94658888Y-63193006D01*
X94658888Y-63193006D02*
X94587459Y-63335864D01*
X94587459Y-63335864D02*
X94444602Y-63407292D01*
X94444602Y-63407292D02*
X94301745Y-63407292D01*
X93158888Y-63407292D02*
X93158888Y-62621578D01*
X93158888Y-62621578D02*
X93230316Y-62478721D01*
X93230316Y-62478721D02*
X93373173Y-62407292D01*
X93373173Y-62407292D02*
X93658888Y-62407292D01*
X93658888Y-62407292D02*
X93801745Y-62478721D01*
X93158888Y-63335864D02*
X93301745Y-63407292D01*
X93301745Y-63407292D02*
X93658888Y-63407292D01*
X93658888Y-63407292D02*
X93801745Y-63335864D01*
X93801745Y-63335864D02*
X93873173Y-63193006D01*
X93873173Y-63193006D02*
X93873173Y-63050149D01*
X93873173Y-63050149D02*
X93801745Y-62907292D01*
X93801745Y-62907292D02*
X93658888Y-62835864D01*
X93658888Y-62835864D02*
X93301745Y-62835864D01*
X93301745Y-62835864D02*
X93158888Y-62764435D01*
X92444602Y-62407292D02*
X92444602Y-63407292D01*
X92444602Y-62550149D02*
X92373173Y-62478721D01*
X92373173Y-62478721D02*
X92230316Y-62407292D01*
X92230316Y-62407292D02*
X92016030Y-62407292D01*
X92016030Y-62407292D02*
X91873173Y-62478721D01*
X91873173Y-62478721D02*
X91801745Y-62621578D01*
X91801745Y-62621578D02*
X91801745Y-63407292D01*
X91087459Y-63407292D02*
X91087459Y-62407292D01*
X91087459Y-61907292D02*
X91158887Y-61978721D01*
X91158887Y-61978721D02*
X91087459Y-62050149D01*
X91087459Y-62050149D02*
X91016030Y-61978721D01*
X91016030Y-61978721D02*
X91087459Y-61907292D01*
X91087459Y-61907292D02*
X91087459Y-62050149D01*
M02*
