%TF.GenerationSoftware,KiCad,Pcbnew,8.0.0*%
%TF.CreationDate,2024-06-28T13:29:57-04:00*%
%TF.ProjectId,myBaseBoardDesignv1,6d794261-7365-4426-9f61-726444657369,rev?*%
%TF.SameCoordinates,Original*%
%TF.FileFunction,Soldermask,Bot*%
%TF.FilePolarity,Negative*%
%FSLAX46Y46*%
G04 Gerber Fmt 4.6, Leading zero omitted, Abs format (unit mm)*
G04 Created by KiCad (PCBNEW 8.0.0) date 2024-06-28 13:29:57*
%MOMM*%
%LPD*%
G01*
G04 APERTURE LIST*
%ADD10R,1.700000X1.700000*%
%ADD11O,1.700000X1.700000*%
%ADD12C,2.032000*%
%ADD13O,1.727200X1.727200*%
%ADD14R,1.727200X1.727200*%
%ADD15C,3.200000*%
%ADD16R,3.960000X1.980000*%
%ADD17O,3.960000X1.980000*%
%ADD18C,1.700000*%
%ADD19C,2.000000*%
%ADD20O,2.000000X1.200000*%
%ADD21R,2.000000X1.200000*%
%ADD22R,2.600000X2.600000*%
%ADD23C,2.600000*%
G04 APERTURE END LIST*
D10*
%TO.C,J3*%
X83225000Y-143250000D03*
D11*
X85765000Y-143250000D03*
%TD*%
D12*
%TO.C,J1*%
X116165000Y-60460000D03*
X116165000Y-63000000D03*
X116165000Y-65540000D03*
X116165000Y-68080000D03*
X116165000Y-70620000D03*
X74550000Y-70620000D03*
X74550000Y-68080000D03*
X74550000Y-65540000D03*
X74550000Y-63000000D03*
X74550000Y-60460000D03*
D13*
X170050000Y-94446000D03*
X170050000Y-96986000D03*
X170050000Y-71840000D03*
X170050000Y-66760000D03*
X170050000Y-61680000D03*
X170050000Y-136610000D03*
X170050000Y-139150000D03*
X170050000Y-64220000D03*
X121790000Y-64220000D03*
X121790000Y-66760000D03*
X121790000Y-69300000D03*
X121790000Y-71840000D03*
X170050000Y-99526000D03*
D14*
X170050000Y-102066000D03*
D13*
X121790000Y-103590000D03*
X121790000Y-106130000D03*
X121790000Y-108670000D03*
X121790000Y-111210000D03*
X121790000Y-113750000D03*
D14*
X121790000Y-116290000D03*
X121790000Y-118830000D03*
D13*
X121790000Y-121370000D03*
X170050000Y-69300000D03*
X121790000Y-136610000D03*
X121790000Y-134070000D03*
X121790000Y-131530000D03*
X121790000Y-128990000D03*
X121790000Y-126450000D03*
X170050000Y-104606000D03*
X170050000Y-107146000D03*
X170050000Y-109686000D03*
X170050000Y-112226000D03*
X170050000Y-114766000D03*
X170050000Y-117306000D03*
X170050000Y-121370000D03*
X170050000Y-123910000D03*
X170050000Y-126450000D03*
X170050000Y-128990000D03*
X170050000Y-131530000D03*
X170050000Y-134070000D03*
X121790000Y-139150000D03*
X121790000Y-61680000D03*
D15*
X167750000Y-145500000D03*
X167750000Y-55500000D03*
X124250000Y-145500000D03*
X124250000Y-55500000D03*
X77750000Y-145750000D03*
X77750000Y-55690000D03*
%TD*%
D16*
%TO.C,J4*%
X79500000Y-84765000D03*
D17*
X79500000Y-79765000D03*
%TD*%
D18*
%TO.C,SW1*%
X78750000Y-113000000D03*
X78750000Y-109000000D03*
X78750000Y-105000000D03*
D19*
X74500000Y-115000000D03*
X80500000Y-115000000D03*
X74500000Y-103000000D03*
X80500000Y-103000000D03*
%TD*%
D20*
%TO.C,U1*%
X113360000Y-87640000D03*
X113360000Y-90180000D03*
X113360000Y-92720000D03*
X113360000Y-95260000D03*
X113360000Y-97800000D03*
X113360000Y-100340000D03*
X113360000Y-102880000D03*
X113360000Y-105420000D03*
X113360000Y-107960000D03*
X113360000Y-110500000D03*
X113360000Y-113040000D03*
X113360000Y-115580000D03*
X113360000Y-118120000D03*
X113360000Y-120660000D03*
X113360000Y-123200000D03*
X113360000Y-125740000D03*
X113360000Y-128280000D03*
X113360000Y-130820000D03*
X113360000Y-133360000D03*
X113360000Y-135900000D03*
X113360000Y-138440000D03*
X113360000Y-140980000D03*
X90496320Y-140977280D03*
X90496320Y-138437280D03*
X90496320Y-135897280D03*
X90500000Y-133360000D03*
X90500000Y-130820000D03*
X90500000Y-128280000D03*
X90500000Y-125740000D03*
X90500000Y-123200000D03*
X90500000Y-120660000D03*
X90500000Y-118120000D03*
X90500000Y-115580000D03*
X90500000Y-113040000D03*
X90500000Y-110500000D03*
X90500000Y-107960000D03*
X90500000Y-105420000D03*
X90500000Y-102880000D03*
X90500000Y-100340000D03*
X90500000Y-97800000D03*
X90500000Y-95260000D03*
X90500000Y-92720000D03*
X90500000Y-90180000D03*
D21*
X90500000Y-87640000D03*
%TD*%
D22*
%TO.C,J2*%
X81000000Y-93800000D03*
D23*
X75000000Y-93800000D03*
X78000000Y-98500000D03*
%TD*%
M02*
