%TF.GenerationSoftware,KiCad,Pcbnew,8.0.0*%
%TF.CreationDate,2024-06-28T13:29:57-04:00*%
%TF.ProjectId,myBaseBoardDesignv1,6d794261-7365-4426-9f61-726444657369,rev?*%
%TF.SameCoordinates,Original*%
%TF.FileFunction,Copper,L2,Bot*%
%TF.FilePolarity,Positive*%
%FSLAX46Y46*%
G04 Gerber Fmt 4.6, Leading zero omitted, Abs format (unit mm)*
G04 Created by KiCad (PCBNEW 8.0.0) date 2024-06-28 13:29:57*
%MOMM*%
%LPD*%
G01*
G04 APERTURE LIST*
%TA.AperFunction,ComponentPad*%
%ADD10R,1.700000X1.700000*%
%TD*%
%TA.AperFunction,ComponentPad*%
%ADD11O,1.700000X1.700000*%
%TD*%
%TA.AperFunction,ComponentPad*%
%ADD12C,2.032000*%
%TD*%
%TA.AperFunction,ComponentPad*%
%ADD13O,1.727200X1.727200*%
%TD*%
%TA.AperFunction,ComponentPad*%
%ADD14R,1.727200X1.727200*%
%TD*%
%TA.AperFunction,ComponentPad*%
%ADD15R,3.960000X1.980000*%
%TD*%
%TA.AperFunction,ComponentPad*%
%ADD16O,3.960000X1.980000*%
%TD*%
%TA.AperFunction,ComponentPad*%
%ADD17C,1.700000*%
%TD*%
%TA.AperFunction,ComponentPad*%
%ADD18C,2.000000*%
%TD*%
%TA.AperFunction,ComponentPad*%
%ADD19O,2.000000X1.200000*%
%TD*%
%TA.AperFunction,ComponentPad*%
%ADD20R,2.000000X1.200000*%
%TD*%
%TA.AperFunction,ComponentPad*%
%ADD21R,2.600000X2.600000*%
%TD*%
%TA.AperFunction,ComponentPad*%
%ADD22C,2.600000*%
%TD*%
%TA.AperFunction,ViaPad*%
%ADD23C,0.600000*%
%TD*%
%TA.AperFunction,ViaPad*%
%ADD24C,0.700000*%
%TD*%
%TA.AperFunction,Conductor*%
%ADD25C,0.762000*%
%TD*%
%TA.AperFunction,Conductor*%
%ADD26C,0.304800*%
%TD*%
G04 APERTURE END LIST*
D10*
%TO.P,J3,1,Pin_1*%
%TO.N,+5V*%
X83225000Y-143250000D03*
D11*
%TO.P,J3,2,Pin_2*%
%TO.N,/5V_AFT1*%
X85765000Y-143250000D03*
%TD*%
D12*
%TO.P,J1,62,+3V3*%
%TO.N,+3V3*%
X116165000Y-60460000D03*
%TO.P,J1,61,+5V*%
%TO.N,+5V*%
X116165000Y-63000000D03*
%TO.P,J1,60,VOUT1*%
%TO.N,unconnected-(J1-VOUT1-Pad60)*%
X116165000Y-65540000D03*
%TO.P,J1,59,VOUT2*%
%TO.N,unconnected-(J1-VOUT2-Pad59)*%
X116165000Y-68080000D03*
%TO.P,J1,58,GND*%
%TO.N,GND*%
X116165000Y-70620000D03*
%TO.P,J1,57,GND*%
X74550000Y-70620000D03*
%TO.P,J1,56,GND*%
X74550000Y-68080000D03*
%TO.P,J1,55,GND*%
X74550000Y-65540000D03*
%TO.P,J1,54,VIN*%
%TO.N,VIN*%
X74550000Y-63000000D03*
%TO.P,J1,53,VIN*%
X74550000Y-60460000D03*
D13*
%TO.P,J1,48,SCL_GP48*%
%TO.N,GP48*%
X170050000Y-94446000D03*
%TO.P,J1,47,SDA_GP47*%
%TO.N,GP47*%
X170050000Y-96986000D03*
%TO.P,J1,46,GP46*%
%TO.N,GP46*%
X170050000Y-71840000D03*
%TO.P,J1,45,GP45*%
%TO.N,GP45*%
X170050000Y-66760000D03*
%TO.P,J1,42,GP42*%
%TO.N,GP42*%
X170050000Y-61680000D03*
%TO.P,J1,41,RX_GP41*%
%TO.N,GP41*%
X170050000Y-136610000D03*
%TO.P,J1,40,TX_GP40*%
%TO.N,GP40*%
X170050000Y-139150000D03*
%TO.P,J1,39,GP39*%
%TO.N,GP39*%
X170050000Y-64220000D03*
%TO.P,J1,38,GP38*%
%TO.N,GP38*%
X121790000Y-64220000D03*
%TO.P,J1,37,GP37*%
%TO.N,GP37*%
X121790000Y-66760000D03*
%TO.P,J1,36,GP36*%
%TO.N,GP36*%
X121790000Y-69300000D03*
%TO.P,J1,35,GP35*%
%TO.N,GP35*%
X121790000Y-71840000D03*
%TO.P,J1,32,+3V3*%
%TO.N,+3V3*%
X170050000Y-99526000D03*
D14*
%TO.P,J1,30,GND*%
%TO.N,GND*%
X170050000Y-102066000D03*
D13*
%TO.P,J1,29,NC*%
%TO.N,unconnected-(J1-NC-Pad29)*%
X121790000Y-103590000D03*
%TO.P,J1,28,IOREF*%
%TO.N,unconnected-(J1-IOREF-Pad28)*%
X121790000Y-106130000D03*
%TO.P,J1,27,~{RST}*%
%TO.N,~{RST}*%
X121790000Y-108670000D03*
%TO.P,J1,26,+3V3*%
%TO.N,+3V3*%
X121790000Y-111210000D03*
%TO.P,J1,25,+5V*%
%TO.N,+5V*%
X121790000Y-113750000D03*
D14*
%TO.P,J1,24,GND*%
%TO.N,GND*%
X121790000Y-116290000D03*
%TO.P,J1,23,GND*%
X121790000Y-118830000D03*
D13*
%TO.P,J1,22,VIN*%
%TO.N,VIN*%
X121790000Y-121370000D03*
%TO.P,J1,21,GP21*%
%TO.N,GP21*%
X170050000Y-69300000D03*
%TO.P,J1,18,GP18*%
%TO.N,GP18*%
X121790000Y-136610000D03*
%TO.P,J1,17,GP17*%
%TO.N,GP17*%
X121790000Y-134070000D03*
%TO.P,J1,16,GP16*%
%TO.N,GP16*%
X121790000Y-131530000D03*
%TO.P,J1,15,GP15*%
%TO.N,GP15*%
X121790000Y-128990000D03*
%TO.P,J1,14,GP14*%
%TO.N,GP14*%
X121790000Y-126450000D03*
%TO.P,J1,13,GP13*%
%TO.N,GP13*%
X170050000Y-104606000D03*
%TO.P,J1,12,GP12*%
%TO.N,GP12*%
X170050000Y-107146000D03*
%TO.P,J1,11,GP11*%
%TO.N,GP11*%
X170050000Y-109686000D03*
%TO.P,J1,10,GP10*%
%TO.N,GP10*%
X170050000Y-112226000D03*
%TO.P,J1,9,GP9*%
%TO.N,GP9*%
X170050000Y-114766000D03*
%TO.P,J1,8,GP8*%
%TO.N,GP8*%
X170050000Y-117306000D03*
%TO.P,J1,7,GP7*%
%TO.N,GP7*%
X170050000Y-121370000D03*
%TO.P,J1,6,GP6*%
%TO.N,GP6*%
X170050000Y-123910000D03*
%TO.P,J1,5,GP5*%
%TO.N,GP5*%
X170050000Y-126450000D03*
%TO.P,J1,4,GP4*%
%TO.N,GP4*%
X170050000Y-128990000D03*
%TO.P,J1,3,GP3*%
%TO.N,GP3*%
X170050000Y-131530000D03*
%TO.P,J1,2,GP2*%
%TO.N,GP2*%
X170050000Y-134070000D03*
%TO.P,J1,1,GP1*%
%TO.N,GP1*%
X121790000Y-139150000D03*
%TO.P,J1,0,GP0*%
%TO.N,GP0*%
X121790000Y-61680000D03*
%TD*%
D15*
%TO.P,J4,1,Pin_1*%
%TO.N,GND*%
X79500000Y-84765000D03*
D16*
%TO.P,J4,2,Pin_2*%
%TO.N,/PWRA*%
X79500000Y-79765000D03*
%TD*%
D17*
%TO.P,SW1,3,C*%
%TO.N,unconnected-(SW1-C-Pad3)*%
X78750000Y-113000000D03*
%TO.P,SW1,2,B*%
%TO.N,/PWRA*%
X78750000Y-109000000D03*
%TO.P,SW1,1,A*%
%TO.N,/PWRB*%
X78750000Y-105000000D03*
D18*
%TO.P,SW1,*%
%TO.N,*%
X74500000Y-115000000D03*
X80500000Y-115000000D03*
X74500000Y-103000000D03*
X80500000Y-103000000D03*
%TD*%
D19*
%TO.P,U1,44,GND*%
%TO.N,GND*%
X113360000Y-87640000D03*
%TO.P,U1,43,GPIO43/U0TXD*%
%TO.N,unconnected-(U1-GPIO43{slash}U0TXD-Pad43)*%
X113360000Y-90180000D03*
%TO.P,U1,42,GPIO44/U0RXD*%
%TO.N,unconnected-(U1-GPIO44{slash}U0RXD-Pad42)*%
X113360000Y-92720000D03*
%TO.P,U1,41,GPIO1/ADC1_CH0*%
%TO.N,GP1*%
X113360000Y-95260000D03*
%TO.P,U1,40,GPIO2/ADC1_CH1*%
%TO.N,GP2*%
X113360000Y-97800000D03*
%TO.P,U1,39,GPIO42/MTMS*%
%TO.N,GP42*%
X113360000Y-100340000D03*
%TO.P,U1,38,GPIO41/MTDI*%
%TO.N,GP41*%
X113360000Y-102880000D03*
%TO.P,U1,37,GPIO40/MTDO*%
%TO.N,GP40*%
X113360000Y-105420000D03*
%TO.P,U1,36,GPIO39/MTCK*%
%TO.N,GP39*%
X113360000Y-107960000D03*
%TO.P,U1,35,GPIO38*%
%TO.N,GP38*%
X113360000Y-110500000D03*
%TO.P,U1,34,GPIO37*%
%TO.N,GP37*%
X113360000Y-113040000D03*
%TO.P,U1,33,GPIO36*%
%TO.N,GP36*%
X113360000Y-115580000D03*
%TO.P,U1,32,GPIO35*%
%TO.N,GP35*%
X113360000Y-118120000D03*
%TO.P,U1,31,GPIO0*%
%TO.N,GP0*%
X113360000Y-120660000D03*
%TO.P,U1,30,GPIO45*%
%TO.N,GP45*%
X113360000Y-123200000D03*
%TO.P,U1,29,GPIO48*%
%TO.N,GP48*%
X113360000Y-125740000D03*
%TO.P,U1,28,GPIO47*%
%TO.N,GP47*%
X113360000Y-128280000D03*
%TO.P,U1,27,GPIO21*%
%TO.N,GP21*%
X113360000Y-130820000D03*
%TO.P,U1,26,GPIO20/USB_D+*%
%TO.N,unconnected-(U1-GPIO20{slash}USB_D+-Pad26)*%
X113360000Y-133360000D03*
%TO.P,U1,25,GPIO19/USB_D-*%
%TO.N,unconnected-(U1-GPIO19{slash}USB_D--Pad25)*%
X113360000Y-135900000D03*
%TO.P,U1,24,GND*%
%TO.N,GND*%
X113360000Y-138440000D03*
%TO.P,U1,23,GND*%
X113360000Y-140980000D03*
%TO.P,U1,22,GND*%
X90496320Y-140977280D03*
%TO.P,U1,21,5V*%
%TO.N,/5V_AFT2*%
X90496320Y-138437280D03*
%TO.P,U1,20,GPIO14/ADC2_CH3*%
%TO.N,GP14*%
X90496320Y-135897280D03*
%TO.P,U1,19,GPIO13/ADC2_CH2*%
%TO.N,GP13*%
X90500000Y-133360000D03*
%TO.P,U1,18,GPIO12/ADC2_CH1*%
%TO.N,GP12*%
X90500000Y-130820000D03*
%TO.P,U1,17,GPIO11/ADC2_CH0*%
%TO.N,GP11*%
X90500000Y-128280000D03*
%TO.P,U1,16,GPIO10/ADC1_CH9*%
%TO.N,GP10*%
X90500000Y-125740000D03*
%TO.P,U1,15,GPIO9/ADC1_CH8*%
%TO.N,GP9*%
X90500000Y-123200000D03*
%TO.P,U1,14,GPIO46*%
%TO.N,GP46*%
X90500000Y-120660000D03*
%TO.P,U1,13,GPIO3/ADC1_CH2*%
%TO.N,GP3*%
X90500000Y-118120000D03*
%TO.P,U1,12,GPIO8/ADC1_CH7*%
%TO.N,GP8*%
X90500000Y-115580000D03*
%TO.P,U1,11,GPIO18/ADC2_CH7*%
%TO.N,GP18*%
X90500000Y-113040000D03*
%TO.P,U1,10,GPIO17/ADC2_CH6*%
%TO.N,GP17*%
X90500000Y-110500000D03*
%TO.P,U1,9,GPIO16/ADC2_CH5/32K_N*%
%TO.N,GP16*%
X90500000Y-107960000D03*
%TO.P,U1,8,GPIO15/ADC2_CH4/32K_P*%
%TO.N,GP15*%
X90500000Y-105420000D03*
%TO.P,U1,7,GPIO7/ADC1_CH6*%
%TO.N,GP7*%
X90500000Y-102880000D03*
%TO.P,U1,6,GPIO6/ADC1_CH5*%
%TO.N,GP6*%
X90500000Y-100340000D03*
%TO.P,U1,5,GPIO5/ADC1_CH4*%
%TO.N,GP5*%
X90500000Y-97800000D03*
%TO.P,U1,4,GPIO4/ADC1_CH3*%
%TO.N,GP4*%
X90500000Y-95260000D03*
%TO.P,U1,3,CHIP_PU*%
%TO.N,~{RST}*%
X90500000Y-92720000D03*
%TO.P,U1,2,3V3*%
%TO.N,unconnected-(U1-3V3-Pad1)_0*%
X90500000Y-90180000D03*
D20*
%TO.P,U1,1,3V3*%
%TO.N,unconnected-(U1-3V3-Pad1)*%
X90500000Y-87640000D03*
%TD*%
D21*
%TO.P,J2,1*%
%TO.N,/PWRA*%
X81000000Y-93800000D03*
D22*
%TO.P,J2,2*%
%TO.N,GND*%
X75000000Y-93800000D03*
%TO.P,J2,3*%
X78000000Y-98500000D03*
%TD*%
D23*
%TO.N,GND*%
X73750000Y-146250000D03*
X81750000Y-145500000D03*
X82750000Y-101250000D03*
X82750000Y-103750000D03*
X82750000Y-106500000D03*
X82750000Y-108500000D03*
X82750000Y-110750000D03*
X90000000Y-147000000D03*
X90000000Y-148500000D03*
X91500000Y-147000000D03*
X91500000Y-148500000D03*
X93000000Y-149500000D03*
X93000000Y-140000000D03*
X93000000Y-142000000D03*
X95500000Y-142000000D03*
X101000000Y-149500000D03*
X99000000Y-149500000D03*
X97000000Y-149500000D03*
X95000000Y-149500000D03*
D24*
%TO.N,VIN*%
X102731800Y-123316900D03*
X99749500Y-120453600D03*
D23*
%TO.N,GND*%
X150000000Y-70000000D03*
X160000000Y-65000000D03*
X76000000Y-141750000D03*
X145000000Y-60000000D03*
X79000000Y-117000000D03*
X123750000Y-136500000D03*
X160000000Y-60000000D03*
X155000000Y-90000000D03*
X140000000Y-116000000D03*
X140000000Y-89000000D03*
X129000000Y-131750000D03*
X80500000Y-143000000D03*
X116000000Y-55250000D03*
X134000000Y-116000000D03*
X150000000Y-60000000D03*
X75500000Y-90000000D03*
X140000000Y-70000000D03*
X130000000Y-75000000D03*
X110000000Y-137000000D03*
X137500000Y-86000000D03*
X74000000Y-143000000D03*
X82169000Y-129413000D03*
X171000000Y-86000000D03*
X171000000Y-83500000D03*
X116500000Y-139500000D03*
X144250000Y-115750000D03*
X160000000Y-85000000D03*
X127800000Y-112600000D03*
X108000000Y-138500000D03*
X135000000Y-70000000D03*
X140000000Y-55000000D03*
X123600000Y-118400000D03*
X102600000Y-141000000D03*
X171000000Y-78000000D03*
X103000000Y-149500000D03*
X102000000Y-138500000D03*
X145000000Y-55000000D03*
X130000000Y-65000000D03*
X124400000Y-117200000D03*
X105800000Y-141000000D03*
X76500000Y-129250000D03*
X135000000Y-65000000D03*
X84328000Y-133731000D03*
X164750000Y-132000000D03*
X120250000Y-115250000D03*
X130000000Y-55000000D03*
X150000000Y-95000000D03*
X75500000Y-79500000D03*
X120000000Y-118800000D03*
X139500000Y-86000000D03*
X79500000Y-74000000D03*
X130000000Y-80000000D03*
X167500000Y-88500000D03*
X118000000Y-149000000D03*
X130000000Y-92500000D03*
X155000000Y-60000000D03*
X155000000Y-75000000D03*
X124000000Y-132000000D03*
X80500000Y-133500000D03*
X77000000Y-137750000D03*
X132500000Y-86000000D03*
X164000000Y-93000000D03*
D24*
X116000000Y-51500000D03*
D23*
X164500000Y-123500000D03*
X165000000Y-80000000D03*
X135000000Y-86000000D03*
X142000000Y-149000000D03*
X162000000Y-109000000D03*
X82750000Y-114500000D03*
X140000000Y-60000000D03*
X80500000Y-137750000D03*
X79200000Y-128800000D03*
X160000000Y-70000000D03*
X130000000Y-70000000D03*
X127750000Y-115000000D03*
X129500000Y-113000000D03*
X155000000Y-55000000D03*
X85217000Y-137795000D03*
X145000000Y-113000000D03*
X135000000Y-80000000D03*
X145000000Y-75000000D03*
X130000000Y-60000000D03*
X118600000Y-118800000D03*
X145600000Y-98800000D03*
X155000000Y-70000000D03*
X115400000Y-141400000D03*
X119250000Y-116750000D03*
X158000000Y-93000000D03*
X93000000Y-124000000D03*
X75500000Y-109500000D03*
X171000000Y-80500000D03*
X150000000Y-65000000D03*
X130000000Y-89000000D03*
X140000000Y-75000000D03*
X148000000Y-116000000D03*
X135000000Y-60000000D03*
X158000000Y-98500000D03*
X160000000Y-55000000D03*
X171000000Y-75500000D03*
X97000000Y-124000000D03*
X76500000Y-74000000D03*
X79000000Y-141500000D03*
X145000000Y-65000000D03*
X108200000Y-141000000D03*
X140000000Y-80000000D03*
X169000000Y-119500000D03*
X75500000Y-101000000D03*
X75500000Y-112500000D03*
X145000000Y-80000000D03*
X152000000Y-98500000D03*
X135000000Y-92500000D03*
X129000000Y-86000000D03*
X151000000Y-116000000D03*
X75500000Y-84500000D03*
X73750000Y-125000000D03*
X150000000Y-55000000D03*
X135000000Y-55000000D03*
X115400000Y-138400000D03*
X167500000Y-103500000D03*
X135000000Y-75000000D03*
X135000000Y-89000000D03*
X150000000Y-75000000D03*
X158000000Y-113000000D03*
X161750000Y-132000000D03*
X79100000Y-149500000D03*
X150000000Y-80000000D03*
X125000000Y-115000000D03*
X155000000Y-65000000D03*
X163000000Y-149000000D03*
X163500000Y-107500000D03*
X140000000Y-65000000D03*
X129000000Y-149000000D03*
X145000000Y-70000000D03*
%TO.N,GP6*%
X111301300Y-120809600D03*
X159593300Y-118894400D03*
%TO.N,GP3*%
X101767400Y-126770400D03*
%TO.N,GP17*%
X109412700Y-128572800D03*
%TO.N,GP8*%
X144000000Y-124781400D03*
%TO.N,GP48*%
X145617900Y-119735000D03*
%TO.N,GP40*%
X150733900Y-110158300D03*
%TO.N,GP14*%
X117633400Y-132460800D03*
%TO.N,GP37*%
X115905200Y-111303200D03*
%TO.N,GP7*%
X145500000Y-125624100D03*
X140038250Y-109961750D03*
%TO.N,GP46*%
X144250000Y-91250000D03*
X127500000Y-91250000D03*
%TO.N,GP12*%
X141959500Y-125500000D03*
%TO.N,GP4*%
X111809600Y-127092800D03*
X166000000Y-126500000D03*
%TO.N,GP16*%
X115278950Y-130221050D03*
%TO.N,GP5*%
X117242600Y-127478700D03*
%TO.N,GP1*%
X112133000Y-111369100D03*
X99832800Y-122104000D03*
%TO.N,GP41*%
X151688700Y-109947100D03*
%TO.N,GP21*%
X166750000Y-71250000D03*
%TO.N,GP11*%
X153057000Y-117307100D03*
%TO.N,GP13*%
X152703100Y-116120900D03*
%TO.N,GP15*%
X115572800Y-127610800D03*
%TO.N,GP2*%
X151928700Y-109047600D03*
%TO.N,GP47*%
X144361300Y-100960900D03*
%TD*%
D25*
%TO.N,+5V*%
X114000000Y-63000000D02*
X116165000Y-63000000D01*
X110500000Y-66500000D02*
X114000000Y-63000000D01*
X110500000Y-115408716D02*
X110500000Y-66500000D01*
%TO.N,VIN*%
X102612800Y-123316900D02*
X102731800Y-123316900D01*
X99749500Y-120453600D02*
X102612800Y-123316900D01*
%TO.N,GND*%
X81500000Y-52500000D02*
X81500000Y-58000000D01*
X116000000Y-51500000D02*
X82500000Y-51500000D01*
X82500000Y-51500000D02*
X81500000Y-52500000D01*
X81500000Y-58000000D02*
X79000000Y-60500000D01*
X77380000Y-70620000D02*
X74550000Y-70620000D01*
X79000000Y-60500000D02*
X79000000Y-69000000D01*
X79000000Y-69000000D02*
X77380000Y-70620000D01*
D26*
%TO.N,GP6*%
X163816800Y-118894500D02*
X159593300Y-118894500D01*
X92500000Y-100500000D02*
X92500000Y-102008300D01*
X90500000Y-100340000D02*
X92340000Y-100340000D01*
X159593300Y-118894500D02*
X159593300Y-118894400D01*
X168832300Y-123910000D02*
X163816800Y-118894500D01*
X92340000Y-100340000D02*
X92500000Y-100500000D01*
X92500000Y-102008300D02*
X111301300Y-120809600D01*
X170050000Y-123910000D02*
X168832300Y-123910000D01*
%TO.N,GP3*%
X101767400Y-126770400D02*
X93117000Y-118120000D01*
X93117000Y-118120000D02*
X91854100Y-118120000D01*
X90500000Y-118120000D02*
X91854100Y-118120000D01*
%TO.N,GP36*%
X113360000Y-115580000D02*
X115567050Y-115580000D01*
X117424700Y-85167700D02*
X124261800Y-78330600D01*
X124261800Y-78330600D02*
X124261800Y-69761800D01*
X123800000Y-69300000D02*
X121790000Y-69300000D01*
X115567050Y-115580000D02*
X117424700Y-113722350D01*
X117424700Y-113722350D02*
X117424700Y-85167700D01*
X124261800Y-69761800D02*
X123800000Y-69300000D01*
D25*
%TO.N,+3V3*%
X125500000Y-93677000D02*
X120311900Y-98865100D01*
X120311900Y-98865100D02*
X120311900Y-110811900D01*
X120710000Y-111210000D02*
X121790000Y-111210000D01*
X120311900Y-110811900D02*
X120710000Y-111210000D01*
X125500000Y-62891600D02*
X125500000Y-93677000D01*
X116448300Y-60176700D02*
X122785100Y-60176700D01*
X116165000Y-60460000D02*
X116448300Y-60176700D01*
X122785100Y-60176700D02*
X125500000Y-62891600D01*
D26*
%TO.N,GP17*%
X91854100Y-110500000D02*
X109412700Y-128058600D01*
X109412700Y-128058600D02*
X109412700Y-128572800D01*
X90500000Y-110500000D02*
X91854100Y-110500000D01*
%TO.N,GP8*%
X115509000Y-137000000D02*
X111500000Y-137000000D01*
X111500000Y-137000000D02*
X102421500Y-127921500D01*
X144000000Y-124781400D02*
X138718600Y-124781400D01*
X138718600Y-124781400D02*
X123004800Y-140495200D01*
X91854100Y-115580000D02*
X90500000Y-115580000D01*
X102421500Y-126147400D02*
X91854100Y-115580000D01*
X102421500Y-127921500D02*
X102421500Y-126147400D01*
X123004800Y-140495200D02*
X119004200Y-140495200D01*
X119004200Y-140495200D02*
X115509000Y-137000000D01*
%TO.N,GP48*%
X170050000Y-94446000D02*
X165521300Y-94446000D01*
X165521300Y-94446000D02*
X145617900Y-114349400D01*
X145617900Y-114349400D02*
X145617900Y-119735000D01*
%TO.N,GP18*%
X90500000Y-113040000D02*
X91854100Y-113040000D01*
X93494500Y-113040000D02*
X103466900Y-123012400D01*
X116033600Y-132071300D02*
X120572300Y-136610000D01*
X111960200Y-132071300D02*
X116033600Y-132071300D01*
X103466900Y-123578000D02*
X111960200Y-132071300D01*
X121790000Y-136610000D02*
X120572300Y-136610000D01*
X91854100Y-113040000D02*
X93494500Y-113040000D01*
X103466900Y-123012400D02*
X103466900Y-123578000D01*
%TO.N,GP40*%
X154093400Y-133593400D02*
X159650000Y-139150000D01*
X150733900Y-110158300D02*
X154093400Y-113517800D01*
X159650000Y-139150000D02*
X170050000Y-139150000D01*
X154093400Y-113517800D02*
X154093400Y-133593400D01*
%TO.N,GP9*%
X170436200Y-148000000D02*
X171847100Y-146589100D01*
X94000000Y-148000000D02*
X170436200Y-148000000D01*
X171847100Y-146589100D02*
X171847100Y-115341786D01*
X89145900Y-123200000D02*
X88079600Y-124266300D01*
X88079600Y-124266300D02*
X88079600Y-142079600D01*
X88079600Y-142079600D02*
X94000000Y-148000000D01*
X90500000Y-123200000D02*
X89145900Y-123200000D01*
X169408000Y-114766000D02*
X170050000Y-114766000D01*
X171271314Y-114766000D02*
X170050000Y-114766000D01*
X171847100Y-115341786D02*
X171271314Y-114766000D01*
%TO.N,GP14*%
X117633400Y-130366600D02*
X117633400Y-132460800D01*
X120550000Y-126450000D02*
X119500000Y-127500000D01*
X121790000Y-126450000D02*
X120550000Y-126450000D01*
X119500000Y-127500000D02*
X119500000Y-128500000D01*
X119500000Y-128500000D02*
X117633400Y-130366600D01*
%TO.N,GP37*%
X119506700Y-74627000D02*
X115905200Y-78228500D01*
X119506700Y-67993300D02*
X119506700Y-74627000D01*
X115905200Y-78228500D02*
X115905200Y-111303200D01*
X120740000Y-66760000D02*
X119506700Y-67993300D01*
X121790000Y-66760000D02*
X120740000Y-66760000D01*
D25*
%TO.N,+5V*%
X119868500Y-113750000D02*
X114270800Y-119347700D01*
X121790000Y-113750000D02*
X119868500Y-113750000D01*
X110734200Y-115642916D02*
X110500000Y-115408716D01*
X112167300Y-119347700D02*
X110734200Y-117914600D01*
X110734200Y-117914600D02*
X110734200Y-115642916D01*
X114270800Y-119347700D02*
X112167300Y-119347700D01*
D26*
%TO.N,GP10*%
X88588400Y-126297500D02*
X88588400Y-141735950D01*
X132713895Y-141500000D02*
X170500000Y-141500000D01*
X170500000Y-141500000D02*
X171342300Y-140657700D01*
X168274000Y-112226000D02*
X170050000Y-112226000D01*
X123420579Y-143497600D02*
X125079421Y-143497600D01*
X171342300Y-140657700D02*
X171342300Y-116500000D01*
X125081821Y-143500000D02*
X130713895Y-143500000D01*
X168090000Y-116090000D02*
X167500000Y-115500000D01*
X89145900Y-125740000D02*
X88588400Y-126297500D01*
X167500000Y-115500000D02*
X167500000Y-113000000D01*
X130713895Y-143500000D02*
X132713895Y-141500000D01*
X125079421Y-143497600D02*
X125081821Y-143500000D01*
X167500000Y-113000000D02*
X168274000Y-112226000D01*
X171342300Y-116500000D02*
X170932300Y-116090000D01*
X90500000Y-125740000D02*
X89145900Y-125740000D01*
X88588400Y-141735950D02*
X90352450Y-143500000D01*
X170932300Y-116090000D02*
X168090000Y-116090000D01*
X123418179Y-143500000D02*
X123420579Y-143497600D01*
X90352450Y-143500000D02*
X123418179Y-143500000D01*
%TO.N,GP7*%
X144678500Y-124802600D02*
X144678500Y-122428500D01*
X145500000Y-125624100D02*
X144678500Y-124802600D01*
X143000000Y-120750000D02*
X143000000Y-112923500D01*
X144678500Y-122428500D02*
X143000000Y-120750000D01*
X143000000Y-112923500D02*
X140038250Y-109961750D01*
%TO.N,GP45*%
X114714100Y-123200000D02*
X117814100Y-120100000D01*
X113360000Y-123200000D02*
X114714100Y-123200000D01*
X123900000Y-120100000D02*
X126600000Y-117400000D01*
X126600000Y-117400000D02*
X126600000Y-110210000D01*
X126600000Y-110210000D02*
X170050000Y-66760000D01*
X117814100Y-120100000D02*
X123900000Y-120100000D01*
%TO.N,GP46*%
X144250000Y-91250000D02*
X127500000Y-91250000D01*
%TO.N,GP12*%
X126459500Y-141000000D02*
X116740500Y-141000000D01*
X100744100Y-139710000D02*
X91854100Y-130820000D01*
X91854100Y-130820000D02*
X90500000Y-130820000D01*
X115450500Y-139710000D02*
X100744100Y-139710000D01*
X141959500Y-125500000D02*
X126459500Y-141000000D01*
X116740500Y-141000000D02*
X115450500Y-139710000D01*
%TO.N,GP4*%
X91246200Y-106529400D02*
X111809600Y-127092800D01*
X168510000Y-128990000D02*
X170050000Y-128990000D01*
X89430250Y-106529400D02*
X91246200Y-106529400D01*
X89490000Y-95260000D02*
X88500000Y-96250000D01*
X90500000Y-95260000D02*
X89490000Y-95260000D01*
X168500000Y-129000000D02*
X168510000Y-128990000D01*
X166000000Y-126500000D02*
X168500000Y-129000000D01*
X88500000Y-96250000D02*
X88500000Y-105599150D01*
X88500000Y-105599150D02*
X89430250Y-106529400D01*
%TO.N,GP35*%
X116918200Y-111781800D02*
X114500000Y-114200000D01*
X121790000Y-71840000D02*
X121790000Y-73315600D01*
X111500000Y-114500000D02*
X111500000Y-117000000D01*
X112620000Y-118120000D02*
X113360000Y-118120000D01*
X114500000Y-114200000D02*
X111800000Y-114200000D01*
X111500000Y-117000000D02*
X112620000Y-118120000D01*
X121790000Y-73315600D02*
X116918200Y-78187400D01*
X116918200Y-78187400D02*
X116918200Y-111781800D01*
X111800000Y-114200000D02*
X111500000Y-114500000D01*
%TO.N,GP16*%
X112871000Y-129569300D02*
X91261700Y-107960000D01*
X115278950Y-130221050D02*
X114627200Y-129569300D01*
X91261700Y-107960000D02*
X90500000Y-107960000D01*
X114627200Y-129569300D02*
X112871000Y-129569300D01*
%TO.N,GP5*%
X110000800Y-118584200D02*
X110000900Y-118584200D01*
X91854100Y-97800000D02*
X110000800Y-115946700D01*
X111953700Y-121079833D02*
X111500000Y-121533533D01*
X112500000Y-124500000D02*
X114263900Y-124500000D01*
X111500000Y-121533533D02*
X111500000Y-123500000D01*
X111953700Y-120537000D02*
X111953700Y-121079833D01*
X111500000Y-123500000D02*
X112500000Y-124500000D01*
X110000900Y-118584200D02*
X111953700Y-120537000D01*
X114263900Y-124500000D02*
X117242600Y-127478700D01*
X90500000Y-97800000D02*
X91854100Y-97800000D01*
X110000800Y-115946700D02*
X110000800Y-118584200D01*
%TO.N,GP1*%
X111740000Y-95260000D02*
X111500000Y-95500000D01*
X115864600Y-134442300D02*
X120572300Y-139150000D01*
X99832800Y-122104000D02*
X112171100Y-134442300D01*
X111500000Y-95500000D02*
X111500000Y-110736100D01*
X121790000Y-139150000D02*
X120572300Y-139150000D01*
X111500000Y-110736100D02*
X112133000Y-111369100D01*
X112171100Y-134442300D02*
X115864600Y-134442300D01*
X113360000Y-95260000D02*
X111740000Y-95260000D01*
%TO.N,GP0*%
X122800300Y-117507700D02*
X123204700Y-117103300D01*
X120500000Y-112500000D02*
X119544900Y-111544900D01*
X117866400Y-117507700D02*
X122800300Y-117507700D01*
X123204700Y-112704700D02*
X123000000Y-112500000D01*
X123000000Y-112500000D02*
X120500000Y-112500000D01*
X119544900Y-111544900D02*
X119544900Y-83763700D01*
X114714100Y-120660000D02*
X117866400Y-117507700D01*
X113360000Y-120660000D02*
X114714100Y-120660000D01*
X123204700Y-117103300D02*
X123204700Y-112704700D01*
X123251216Y-61680000D02*
X121790000Y-61680000D01*
X124766600Y-63195384D02*
X123251216Y-61680000D01*
X119544900Y-83763700D02*
X124766600Y-78542000D01*
X124766600Y-78542000D02*
X124766600Y-63195384D01*
%TO.N,GP38*%
X115000000Y-110000000D02*
X114500000Y-110500000D01*
X115000000Y-77140600D02*
X115000000Y-110000000D01*
X118500000Y-73640600D02*
X115000000Y-77140600D01*
X121790000Y-64220000D02*
X120780000Y-64220000D01*
X120780000Y-64220000D02*
X118500000Y-66500000D01*
X114500000Y-110500000D02*
X113360000Y-110500000D01*
X118500000Y-66500000D02*
X118500000Y-73640600D01*
%TO.N,GP41*%
X151688700Y-109947100D02*
X155671500Y-113929900D01*
X159610000Y-136610000D02*
X170050000Y-136610000D01*
X155671500Y-132671500D02*
X159610000Y-136610000D01*
X155671500Y-113929900D02*
X155671500Y-132671500D01*
%TO.N,GP21*%
X146250000Y-101000000D02*
X166750000Y-80500000D01*
X166750000Y-80500000D02*
X166750000Y-71250000D01*
X117000000Y-131000000D02*
X117000000Y-129500000D01*
X115500000Y-131500000D02*
X116500000Y-131500000D01*
X142286104Y-104000000D02*
X143250000Y-104000000D01*
X118995200Y-127504800D02*
X118995200Y-127290904D01*
X116500000Y-131500000D02*
X117000000Y-131000000D01*
X118995200Y-127290904D02*
X142286104Y-104000000D01*
X113360000Y-130820000D02*
X114820000Y-130820000D01*
X117000000Y-129500000D02*
X118995200Y-127504800D01*
X143250000Y-104000000D02*
X146250000Y-101000000D01*
X114820000Y-130820000D02*
X115500000Y-131500000D01*
%TO.N,GP11*%
X123209083Y-142995200D02*
X123211484Y-142992800D01*
X89145900Y-133852500D02*
X89922000Y-134628600D01*
X90994700Y-134628600D02*
X99361300Y-142995200D01*
X125288516Y-142992800D02*
X125290916Y-142995200D01*
X89922000Y-134628600D02*
X90994700Y-134628600D01*
X90500000Y-128280000D02*
X89145900Y-128280000D01*
X125290916Y-142995200D02*
X130504800Y-142995200D01*
X99361300Y-142995200D02*
X123209083Y-142995200D01*
X89145900Y-128280000D02*
X89145900Y-133852500D01*
X130504800Y-142995200D02*
X153057000Y-120443000D01*
X123211484Y-142992800D02*
X125288516Y-142992800D01*
X153057000Y-120443000D02*
X153057000Y-117307100D01*
%TO.N,GP13*%
X123002389Y-142488000D02*
X125497611Y-142488000D01*
X122999987Y-142490400D02*
X123002389Y-142488000D01*
X125497611Y-142488000D02*
X125500011Y-142490400D01*
X130009600Y-142490400D02*
X152169500Y-120330500D01*
X125500011Y-142490400D02*
X130009600Y-142490400D01*
X100984500Y-142490400D02*
X122999987Y-142490400D01*
X152169500Y-116654500D02*
X152703100Y-116120900D01*
X152169500Y-120330500D02*
X152169500Y-116654500D01*
X90500000Y-133360000D02*
X91854100Y-133360000D01*
X91854100Y-133360000D02*
X100984500Y-142490400D01*
%TO.N,GP15*%
X90500000Y-105420000D02*
X91269100Y-105420000D01*
X112859100Y-127010000D02*
X114972000Y-127010000D01*
X114972000Y-127010000D02*
X115572800Y-127610800D01*
X91269100Y-105420000D02*
X112859100Y-127010000D01*
%TO.N,GP2*%
X157379400Y-114498300D02*
X157379400Y-131379400D01*
X157379400Y-131379400D02*
X160070000Y-134070000D01*
X151928700Y-109047600D02*
X157379400Y-114498300D01*
X160070000Y-134070000D02*
X170050000Y-134070000D01*
%TO.N,GP47*%
X117363933Y-128280000D02*
X117895000Y-127748933D01*
X113360000Y-128280000D02*
X117363933Y-128280000D01*
X117895000Y-127748933D02*
X117895000Y-127105000D01*
X117895000Y-127105000D02*
X144039100Y-100960900D01*
X144039100Y-100960900D02*
X144361300Y-100960900D01*
D25*
%TO.N,/PWRA*%
X81000000Y-92000000D02*
X81000000Y-93800000D01*
X79500000Y-79765000D02*
X82765000Y-79765000D01*
X81000000Y-99888500D02*
X76500000Y-104388500D01*
X81000000Y-93800000D02*
X81000000Y-99888500D01*
X78000000Y-109000000D02*
X78750000Y-109000000D01*
X83500000Y-89500000D02*
X81000000Y-92000000D01*
X82765000Y-79765000D02*
X83500000Y-80500000D01*
X76500000Y-107500000D02*
X78000000Y-109000000D01*
X76500000Y-104388500D02*
X76500000Y-107500000D01*
X83500000Y-80500000D02*
X83500000Y-89500000D01*
%TD*%
%TA.AperFunction,Conductor*%
%TO.N,GND*%
G36*
X83919334Y-90429809D02*
G01*
X83975267Y-90471681D01*
X83999684Y-90537145D01*
X84000000Y-90545991D01*
X84000000Y-115000000D01*
X88960649Y-115000000D01*
X89027688Y-115019685D01*
X89073443Y-115072489D01*
X89083387Y-115141647D01*
X89078582Y-115162308D01*
X89026598Y-115322299D01*
X88999500Y-115493389D01*
X88999500Y-115666611D01*
X89026598Y-115837701D01*
X89080127Y-116002445D01*
X89158768Y-116156788D01*
X89260586Y-116296928D01*
X89383072Y-116419414D01*
X89523212Y-116521232D01*
X89677555Y-116599873D01*
X89842299Y-116653402D01*
X90013389Y-116680500D01*
X90013390Y-116680500D01*
X90986610Y-116680500D01*
X90986611Y-116680500D01*
X91157701Y-116653402D01*
X91322445Y-116599873D01*
X91476788Y-116521232D01*
X91616928Y-116419414D01*
X91616930Y-116419411D01*
X91620006Y-116417177D01*
X91685812Y-116393697D01*
X91753866Y-116409522D01*
X91780573Y-116429814D01*
X92606178Y-117255419D01*
X92639663Y-117316742D01*
X92634679Y-117386434D01*
X92592807Y-117442367D01*
X92527343Y-117466784D01*
X92518497Y-117467100D01*
X91849114Y-117467100D01*
X91782075Y-117447415D01*
X91748797Y-117415987D01*
X91739414Y-117403072D01*
X91616928Y-117280586D01*
X91476788Y-117178768D01*
X91322445Y-117100127D01*
X91157701Y-117046598D01*
X91157699Y-117046597D01*
X91157698Y-117046597D01*
X91026271Y-117025781D01*
X90986611Y-117019500D01*
X90013389Y-117019500D01*
X89973728Y-117025781D01*
X89842302Y-117046597D01*
X89677552Y-117100128D01*
X89523211Y-117178768D01*
X89443256Y-117236859D01*
X89383072Y-117280586D01*
X89383070Y-117280588D01*
X89383069Y-117280588D01*
X89260588Y-117403069D01*
X89260588Y-117403070D01*
X89260586Y-117403072D01*
X89228369Y-117447415D01*
X89158768Y-117543211D01*
X89080128Y-117697552D01*
X89026597Y-117862302D01*
X89015422Y-117932859D01*
X88999500Y-118033389D01*
X88999500Y-118206611D01*
X89026598Y-118377701D01*
X89080127Y-118542445D01*
X89158768Y-118696788D01*
X89260586Y-118836928D01*
X89383072Y-118959414D01*
X89523212Y-119061232D01*
X89677555Y-119139873D01*
X89842299Y-119193402D01*
X90013389Y-119220500D01*
X90013390Y-119220500D01*
X90986610Y-119220500D01*
X90986611Y-119220500D01*
X91157701Y-119193402D01*
X91322445Y-119139873D01*
X91476788Y-119061232D01*
X91616928Y-118959414D01*
X91739414Y-118836928D01*
X91748797Y-118824013D01*
X91804126Y-118781349D01*
X91849114Y-118772900D01*
X92795197Y-118772900D01*
X92862236Y-118792585D01*
X92882878Y-118809219D01*
X100946108Y-126872449D01*
X100979593Y-126933772D01*
X100981647Y-126946244D01*
X100982030Y-126949649D01*
X101041610Y-127119921D01*
X101096073Y-127206598D01*
X101137584Y-127272662D01*
X101265138Y-127400216D01*
X101417878Y-127496189D01*
X101588145Y-127555768D01*
X101588150Y-127555769D01*
X101658482Y-127563693D01*
X101722896Y-127590759D01*
X101762452Y-127648353D01*
X101768600Y-127686913D01*
X101768600Y-127985807D01*
X101782820Y-128057292D01*
X101782820Y-128057293D01*
X101793689Y-128111936D01*
X101793691Y-128111944D01*
X101842907Y-128230762D01*
X101914362Y-128337704D01*
X101914363Y-128337705D01*
X111083795Y-137507136D01*
X111083798Y-137507139D01*
X111083801Y-137507141D01*
X111190736Y-137578592D01*
X111309556Y-137627809D01*
X111309560Y-137627809D01*
X111309561Y-137627810D01*
X111435692Y-137652900D01*
X111435695Y-137652900D01*
X111928824Y-137652900D01*
X111995863Y-137672585D01*
X112041618Y-137725389D01*
X112051562Y-137794547D01*
X112029141Y-137849787D01*
X112019196Y-137863473D01*
X111940591Y-138017744D01*
X111887085Y-138182415D01*
X111885884Y-138189999D01*
X111885885Y-138190000D01*
X113044314Y-138190000D01*
X113039920Y-138194394D01*
X112987259Y-138285606D01*
X112960000Y-138387339D01*
X112960000Y-138492661D01*
X112987259Y-138594394D01*
X113039920Y-138685606D01*
X113044314Y-138690000D01*
X111885885Y-138690000D01*
X111887085Y-138697584D01*
X111940590Y-138862254D01*
X111948004Y-138876803D01*
X111960901Y-138945472D01*
X111934626Y-139010213D01*
X111877521Y-139050471D01*
X111837520Y-139057100D01*
X101065902Y-139057100D01*
X100998863Y-139037415D01*
X100978221Y-139020781D01*
X92270305Y-130312863D01*
X92270304Y-130312862D01*
X92270300Y-130312859D01*
X92163364Y-130241408D01*
X92044544Y-130192191D01*
X92044538Y-130192189D01*
X91918407Y-130167100D01*
X91918405Y-130167100D01*
X91849114Y-130167100D01*
X91782075Y-130147415D01*
X91748797Y-130115987D01*
X91739414Y-130103072D01*
X91616928Y-129980586D01*
X91476788Y-129878768D01*
X91322445Y-129800127D01*
X91157701Y-129746598D01*
X91157699Y-129746597D01*
X91157698Y-129746597D01*
X91026271Y-129725781D01*
X90986611Y-129719500D01*
X90013389Y-129719500D01*
X89942195Y-129730775D01*
X89872903Y-129721820D01*
X89819452Y-129676823D01*
X89798813Y-129610072D01*
X89798800Y-129608302D01*
X89798800Y-129491697D01*
X89818485Y-129424658D01*
X89871289Y-129378903D01*
X89940447Y-129368959D01*
X89942133Y-129369214D01*
X90013389Y-129380500D01*
X90013390Y-129380500D01*
X90986610Y-129380500D01*
X90986611Y-129380500D01*
X91157701Y-129353402D01*
X91322445Y-129299873D01*
X91476788Y-129221232D01*
X91616928Y-129119414D01*
X91739414Y-128996928D01*
X91841232Y-128856788D01*
X91919873Y-128702445D01*
X91973402Y-128537701D01*
X92000500Y-128366611D01*
X92000500Y-128193389D01*
X91973402Y-128022299D01*
X91919873Y-127857555D01*
X91841232Y-127703212D01*
X91739414Y-127563072D01*
X91616928Y-127440586D01*
X91476788Y-127338768D01*
X91322445Y-127260127D01*
X91157701Y-127206598D01*
X91157699Y-127206597D01*
X91157698Y-127206597D01*
X91026271Y-127185781D01*
X90986611Y-127179500D01*
X90013389Y-127179500D01*
X89973728Y-127185781D01*
X89842302Y-127206597D01*
X89677552Y-127260128D01*
X89523208Y-127338770D01*
X89438185Y-127400543D01*
X89372379Y-127424023D01*
X89304325Y-127408197D01*
X89255630Y-127358092D01*
X89241300Y-127300225D01*
X89241300Y-126719774D01*
X89260985Y-126652735D01*
X89313789Y-126606980D01*
X89382947Y-126597036D01*
X89438183Y-126619454D01*
X89523212Y-126681232D01*
X89677555Y-126759873D01*
X89842299Y-126813402D01*
X90013389Y-126840500D01*
X90013390Y-126840500D01*
X90986610Y-126840500D01*
X90986611Y-126840500D01*
X91157701Y-126813402D01*
X91322445Y-126759873D01*
X91476788Y-126681232D01*
X91616928Y-126579414D01*
X91739414Y-126456928D01*
X91841232Y-126316788D01*
X91919873Y-126162445D01*
X91973402Y-125997701D01*
X92000500Y-125826611D01*
X92000500Y-125653389D01*
X91973402Y-125482299D01*
X91919873Y-125317555D01*
X91841232Y-125163212D01*
X91739414Y-125023072D01*
X91616928Y-124900586D01*
X91476788Y-124798768D01*
X91322445Y-124720127D01*
X91157701Y-124666598D01*
X91157699Y-124666597D01*
X91157698Y-124666597D01*
X91026271Y-124645781D01*
X90986611Y-124639500D01*
X90013389Y-124639500D01*
X89973728Y-124645781D01*
X89842302Y-124666597D01*
X89677552Y-124720128D01*
X89523211Y-124798768D01*
X89468208Y-124838731D01*
X89383072Y-124900586D01*
X89383070Y-124900588D01*
X89383069Y-124900588D01*
X89260588Y-125023069D01*
X89260588Y-125023070D01*
X89260586Y-125023072D01*
X89251202Y-125035986D01*
X89195874Y-125078651D01*
X89150886Y-125087100D01*
X89081592Y-125087100D01*
X88957108Y-125111861D01*
X88957109Y-125111862D01*
X88955461Y-125112189D01*
X88955449Y-125112193D01*
X88903952Y-125133524D01*
X88834483Y-125140993D01*
X88772004Y-125109717D01*
X88736352Y-125049628D01*
X88732500Y-125018963D01*
X88732500Y-124588102D01*
X88752185Y-124521063D01*
X88768819Y-124500421D01*
X88968740Y-124300500D01*
X89219428Y-124049811D01*
X89280749Y-124016328D01*
X89350440Y-124021312D01*
X89379993Y-124037176D01*
X89383068Y-124039410D01*
X89383072Y-124039414D01*
X89523212Y-124141232D01*
X89677555Y-124219873D01*
X89842299Y-124273402D01*
X90013389Y-124300500D01*
X90013390Y-124300500D01*
X90986610Y-124300500D01*
X90986611Y-124300500D01*
X91157701Y-124273402D01*
X91322445Y-124219873D01*
X91476788Y-124141232D01*
X91616928Y-124039414D01*
X91739414Y-123916928D01*
X91841232Y-123776788D01*
X91919873Y-123622445D01*
X91973402Y-123457701D01*
X92000500Y-123286611D01*
X92000500Y-123113389D01*
X91973402Y-122942299D01*
X91919873Y-122777555D01*
X91841232Y-122623212D01*
X91739414Y-122483072D01*
X91616928Y-122360586D01*
X91476788Y-122258768D01*
X91322445Y-122180127D01*
X91157701Y-122126598D01*
X91157699Y-122126597D01*
X91157698Y-122126597D01*
X91026271Y-122105781D01*
X90986611Y-122099500D01*
X90013389Y-122099500D01*
X89973728Y-122105781D01*
X89842302Y-122126597D01*
X89677552Y-122180128D01*
X89523211Y-122258768D01*
X89457469Y-122306533D01*
X89383072Y-122360586D01*
X89383070Y-122360588D01*
X89383069Y-122360588D01*
X89260588Y-122483069D01*
X89260588Y-122483070D01*
X89260586Y-122483072D01*
X89251202Y-122495986D01*
X89195874Y-122538651D01*
X89150886Y-122547100D01*
X89081593Y-122547100D01*
X88955461Y-122572189D01*
X88955455Y-122572191D01*
X88836636Y-122621407D01*
X88729698Y-122692860D01*
X88729695Y-122692863D01*
X87572463Y-123850094D01*
X87572462Y-123850095D01*
X87504087Y-123952426D01*
X87502029Y-123955507D01*
X87501007Y-123957037D01*
X87451791Y-124075855D01*
X87451789Y-124075861D01*
X87426700Y-124201992D01*
X87426700Y-124201995D01*
X87426700Y-142143905D01*
X87426700Y-142143907D01*
X87426699Y-142143907D01*
X87451789Y-142270038D01*
X87451791Y-142270044D01*
X87501007Y-142388862D01*
X87572462Y-142495804D01*
X87572463Y-142495805D01*
X93583795Y-148507136D01*
X93583798Y-148507139D01*
X93583801Y-148507141D01*
X93690736Y-148578592D01*
X93809556Y-148627809D01*
X93809560Y-148627809D01*
X93809561Y-148627810D01*
X93935692Y-148652900D01*
X93935695Y-148652900D01*
X170500507Y-148652900D01*
X170585365Y-148636019D01*
X170626644Y-148627809D01*
X170640690Y-148621990D01*
X170710157Y-148614519D01*
X170772637Y-148645792D01*
X170808292Y-148705879D01*
X170805801Y-148775704D01*
X170771918Y-148827972D01*
X170646217Y-148943156D01*
X170637930Y-148950110D01*
X170335105Y-149182476D01*
X170326244Y-149188681D01*
X170004310Y-149393775D01*
X169994942Y-149399183D01*
X169656376Y-149575430D01*
X169646572Y-149580002D01*
X169293921Y-149726075D01*
X169283755Y-149729775D01*
X168919721Y-149844554D01*
X168909272Y-149847354D01*
X168536610Y-149929971D01*
X168525957Y-149931849D01*
X168147526Y-149981671D01*
X168136750Y-149982614D01*
X167752703Y-149999382D01*
X167747294Y-149999500D01*
X77752706Y-149999500D01*
X77747297Y-149999382D01*
X77363249Y-149982614D01*
X77352473Y-149981671D01*
X76974042Y-149931849D01*
X76963389Y-149929971D01*
X76590727Y-149847354D01*
X76580278Y-149844554D01*
X76216244Y-149729775D01*
X76206078Y-149726075D01*
X75853427Y-149580002D01*
X75843623Y-149575430D01*
X75505057Y-149399183D01*
X75495689Y-149393775D01*
X75173755Y-149188681D01*
X75164894Y-149182476D01*
X74862069Y-148950110D01*
X74853782Y-148943156D01*
X74572364Y-148685284D01*
X74564715Y-148677635D01*
X74306843Y-148396217D01*
X74299889Y-148387930D01*
X74067523Y-148085105D01*
X74061318Y-148076244D01*
X73856224Y-147754310D01*
X73850816Y-147744942D01*
X73759142Y-147568838D01*
X73674566Y-147406369D01*
X73669997Y-147396572D01*
X73646680Y-147340280D01*
X73523920Y-147043911D01*
X73520224Y-147033755D01*
X73405442Y-146669710D01*
X73402648Y-146659284D01*
X73320025Y-146286597D01*
X73318152Y-146275971D01*
X73268326Y-145897506D01*
X73267386Y-145886771D01*
X73266710Y-145871288D01*
X75899500Y-145871288D01*
X75931161Y-146111785D01*
X75993947Y-146346104D01*
X75997623Y-146354978D01*
X76086776Y-146570212D01*
X76208064Y-146780289D01*
X76208066Y-146780292D01*
X76208067Y-146780293D01*
X76355733Y-146972736D01*
X76355739Y-146972743D01*
X76527256Y-147144260D01*
X76527263Y-147144266D01*
X76607004Y-147205453D01*
X76719711Y-147291936D01*
X76929788Y-147413224D01*
X77153900Y-147506054D01*
X77388211Y-147568838D01*
X77568586Y-147592584D01*
X77628711Y-147600500D01*
X77628712Y-147600500D01*
X77871289Y-147600500D01*
X77919388Y-147594167D01*
X78111789Y-147568838D01*
X78346100Y-147506054D01*
X78570212Y-147413224D01*
X78780289Y-147291936D01*
X78972738Y-147144265D01*
X79144265Y-146972738D01*
X79291936Y-146780289D01*
X79413224Y-146570212D01*
X79506054Y-146346100D01*
X79568838Y-146111789D01*
X79600500Y-145871288D01*
X79600500Y-145628712D01*
X79568838Y-145388211D01*
X79506054Y-145153900D01*
X79413224Y-144929788D01*
X79291936Y-144719711D01*
X79144265Y-144527262D01*
X79144260Y-144527256D01*
X78972743Y-144355739D01*
X78972736Y-144355733D01*
X78780293Y-144208067D01*
X78780292Y-144208066D01*
X78780289Y-144208064D01*
X78676030Y-144147870D01*
X81874500Y-144147870D01*
X81874501Y-144147876D01*
X81880908Y-144207483D01*
X81931202Y-144342328D01*
X81931206Y-144342335D01*
X82017452Y-144457544D01*
X82017455Y-144457547D01*
X82132664Y-144543793D01*
X82132671Y-144543797D01*
X82267517Y-144594091D01*
X82267516Y-144594091D01*
X82274444Y-144594835D01*
X82327127Y-144600500D01*
X84122872Y-144600499D01*
X84182483Y-144594091D01*
X84317331Y-144543796D01*
X84432546Y-144457546D01*
X84518796Y-144342331D01*
X84567810Y-144210916D01*
X84609681Y-144154984D01*
X84675145Y-144130566D01*
X84743418Y-144145417D01*
X84771673Y-144166569D01*
X84893599Y-144288495D01*
X84984845Y-144352386D01*
X85087165Y-144424032D01*
X85087167Y-144424033D01*
X85087170Y-144424035D01*
X85301337Y-144523903D01*
X85301343Y-144523904D01*
X85301344Y-144523905D01*
X85356285Y-144538626D01*
X85529592Y-144585063D01*
X85706034Y-144600500D01*
X85764999Y-144605659D01*
X85765000Y-144605659D01*
X85765001Y-144605659D01*
X85823966Y-144600500D01*
X86000408Y-144585063D01*
X86228663Y-144523903D01*
X86442830Y-144424035D01*
X86636401Y-144288495D01*
X86803495Y-144121401D01*
X86939035Y-143927830D01*
X87038903Y-143713663D01*
X87100063Y-143485408D01*
X87120659Y-143250000D01*
X87100063Y-143014592D01*
X87038903Y-142786337D01*
X86939035Y-142572171D01*
X86885564Y-142495805D01*
X86803494Y-142378597D01*
X86636402Y-142211506D01*
X86636395Y-142211501D01*
X86442834Y-142075967D01*
X86442830Y-142075965D01*
X86387564Y-142050194D01*
X86228663Y-141976097D01*
X86228659Y-141976096D01*
X86228655Y-141976094D01*
X86000413Y-141914938D01*
X86000403Y-141914936D01*
X85765001Y-141894341D01*
X85764999Y-141894341D01*
X85529596Y-141914936D01*
X85529586Y-141914938D01*
X85301344Y-141976094D01*
X85301335Y-141976098D01*
X85087171Y-142075964D01*
X85087169Y-142075965D01*
X84893600Y-142211503D01*
X84771673Y-142333430D01*
X84710350Y-142366914D01*
X84640658Y-142361930D01*
X84584725Y-142320058D01*
X84567810Y-142289081D01*
X84518797Y-142157671D01*
X84518793Y-142157664D01*
X84432547Y-142042455D01*
X84432544Y-142042452D01*
X84317335Y-141956206D01*
X84317328Y-141956202D01*
X84182482Y-141905908D01*
X84182483Y-141905908D01*
X84122883Y-141899501D01*
X84122881Y-141899500D01*
X84122873Y-141899500D01*
X84122864Y-141899500D01*
X82327129Y-141899500D01*
X82327123Y-141899501D01*
X82267516Y-141905908D01*
X82132671Y-141956202D01*
X82132664Y-141956206D01*
X82017455Y-142042452D01*
X82017452Y-142042455D01*
X81931206Y-142157664D01*
X81931202Y-142157671D01*
X81880908Y-142292517D01*
X81874501Y-142352116D01*
X81874500Y-142352135D01*
X81874500Y-144147870D01*
X78676030Y-144147870D01*
X78603050Y-144105735D01*
X78570214Y-144086777D01*
X78570205Y-144086773D01*
X78346104Y-143993947D01*
X78111785Y-143931161D01*
X77871289Y-143899500D01*
X77871288Y-143899500D01*
X77628712Y-143899500D01*
X77628711Y-143899500D01*
X77388214Y-143931161D01*
X77153895Y-143993947D01*
X76929794Y-144086773D01*
X76929785Y-144086777D01*
X76781162Y-144172585D01*
X76720718Y-144207483D01*
X76719706Y-144208067D01*
X76527263Y-144355733D01*
X76527256Y-144355739D01*
X76355739Y-144527256D01*
X76355733Y-144527263D01*
X76208067Y-144719706D01*
X76086777Y-144929785D01*
X76086773Y-144929794D01*
X75993947Y-145153895D01*
X75931161Y-145388214D01*
X75899500Y-145628711D01*
X75899500Y-145871288D01*
X73266710Y-145871288D01*
X73250618Y-145502702D01*
X73250500Y-145497293D01*
X73250500Y-120746610D01*
X88999500Y-120746610D01*
X89022930Y-120894547D01*
X89026598Y-120917701D01*
X89080127Y-121082445D01*
X89158768Y-121236788D01*
X89260586Y-121376928D01*
X89383072Y-121499414D01*
X89523212Y-121601232D01*
X89677555Y-121679873D01*
X89842299Y-121733402D01*
X90013389Y-121760500D01*
X90013390Y-121760500D01*
X90986610Y-121760500D01*
X90986611Y-121760500D01*
X91157701Y-121733402D01*
X91322445Y-121679873D01*
X91476788Y-121601232D01*
X91616928Y-121499414D01*
X91739414Y-121376928D01*
X91841232Y-121236788D01*
X91919873Y-121082445D01*
X91973402Y-120917701D01*
X92000500Y-120746611D01*
X92000500Y-120573389D01*
X91973402Y-120402299D01*
X91919873Y-120237555D01*
X91841232Y-120083212D01*
X91739414Y-119943072D01*
X91616928Y-119820586D01*
X91476788Y-119718768D01*
X91413058Y-119686296D01*
X91322447Y-119640128D01*
X91322446Y-119640127D01*
X91322445Y-119640127D01*
X91157701Y-119586598D01*
X91157699Y-119586597D01*
X91157698Y-119586597D01*
X91026271Y-119565781D01*
X90986611Y-119559500D01*
X90013389Y-119559500D01*
X89973728Y-119565781D01*
X89842302Y-119586597D01*
X89677552Y-119640128D01*
X89523211Y-119718768D01*
X89471983Y-119755988D01*
X89383072Y-119820586D01*
X89383070Y-119820588D01*
X89383069Y-119820588D01*
X89260588Y-119943069D01*
X89260588Y-119943070D01*
X89260586Y-119943072D01*
X89238415Y-119973588D01*
X89158768Y-120083211D01*
X89080128Y-120237552D01*
X89026597Y-120402302D01*
X88999500Y-120573389D01*
X88999500Y-120746610D01*
X73250500Y-120746610D01*
X73250500Y-116175940D01*
X73270185Y-116108901D01*
X73322989Y-116063146D01*
X73392147Y-116053202D01*
X73455703Y-116082227D01*
X73465725Y-116091953D01*
X73480256Y-116107738D01*
X73676491Y-116260474D01*
X73719989Y-116284014D01*
X73862479Y-116361126D01*
X73895190Y-116378828D01*
X74130386Y-116459571D01*
X74375665Y-116500500D01*
X74624335Y-116500500D01*
X74869614Y-116459571D01*
X75104810Y-116378828D01*
X75323509Y-116260474D01*
X75519744Y-116107738D01*
X75688164Y-115924785D01*
X75824173Y-115716607D01*
X75924063Y-115488881D01*
X75985108Y-115247821D01*
X75988206Y-115210441D01*
X76005643Y-115000000D01*
X76005643Y-114999994D01*
X75985109Y-114752187D01*
X75985107Y-114752175D01*
X75924063Y-114511118D01*
X75824173Y-114283393D01*
X75688166Y-114075217D01*
X75666557Y-114051744D01*
X75519744Y-113892262D01*
X75323509Y-113739526D01*
X75323507Y-113739525D01*
X75323506Y-113739524D01*
X75104811Y-113621172D01*
X75104802Y-113621169D01*
X74869616Y-113540429D01*
X74624335Y-113499500D01*
X74375665Y-113499500D01*
X74130383Y-113540429D01*
X73895197Y-113621169D01*
X73895188Y-113621172D01*
X73676493Y-113739524D01*
X73480255Y-113892262D01*
X73480252Y-113892265D01*
X73465729Y-113908042D01*
X73405842Y-113944033D01*
X73336004Y-113941932D01*
X73278388Y-113902408D01*
X73251287Y-113838008D01*
X73250500Y-113824059D01*
X73250500Y-113000000D01*
X77394341Y-113000000D01*
X77414936Y-113235403D01*
X77414938Y-113235413D01*
X77476094Y-113463655D01*
X77476096Y-113463659D01*
X77476097Y-113463663D01*
X77549545Y-113621172D01*
X77575965Y-113677830D01*
X77575967Y-113677834D01*
X77619165Y-113739526D01*
X77711505Y-113871401D01*
X77878599Y-114038495D01*
X77957033Y-114093415D01*
X78072165Y-114174032D01*
X78072167Y-114174033D01*
X78072170Y-114174035D01*
X78286337Y-114273903D01*
X78286343Y-114273904D01*
X78286344Y-114273905D01*
X78324494Y-114284127D01*
X78514592Y-114335063D01*
X78702918Y-114351539D01*
X78749999Y-114355659D01*
X78750000Y-114355659D01*
X78750001Y-114355659D01*
X78766863Y-114354183D01*
X78951465Y-114338032D01*
X79019962Y-114351798D01*
X79070145Y-114400413D01*
X79086079Y-114468442D01*
X79077088Y-114506100D01*
X79077600Y-114506276D01*
X79075936Y-114511120D01*
X79014892Y-114752175D01*
X79014890Y-114752187D01*
X78994357Y-114999994D01*
X78994357Y-115000000D01*
X79014890Y-115247812D01*
X79014892Y-115247824D01*
X79075936Y-115488881D01*
X79175826Y-115716606D01*
X79311833Y-115924782D01*
X79311836Y-115924785D01*
X79480256Y-116107738D01*
X79676491Y-116260474D01*
X79719989Y-116284014D01*
X79862479Y-116361126D01*
X79895190Y-116378828D01*
X80130386Y-116459571D01*
X80375665Y-116500500D01*
X80624335Y-116500500D01*
X80869614Y-116459571D01*
X81104810Y-116378828D01*
X81323509Y-116260474D01*
X81519744Y-116107738D01*
X81688164Y-115924785D01*
X81824173Y-115716607D01*
X81924063Y-115488881D01*
X81985108Y-115247821D01*
X81988206Y-115210441D01*
X82005643Y-115000000D01*
X82005643Y-114999994D01*
X81985109Y-114752187D01*
X81985107Y-114752175D01*
X81924063Y-114511118D01*
X81824173Y-114283393D01*
X81688166Y-114075217D01*
X81666557Y-114051744D01*
X81519744Y-113892262D01*
X81323509Y-113739526D01*
X81323507Y-113739525D01*
X81323506Y-113739524D01*
X81104811Y-113621172D01*
X81104802Y-113621169D01*
X80869616Y-113540429D01*
X80624335Y-113499500D01*
X80375665Y-113499500D01*
X80187440Y-113530908D01*
X80118075Y-113522526D01*
X80064253Y-113477973D01*
X80043063Y-113411394D01*
X80047256Y-113376506D01*
X80085063Y-113235408D01*
X80105659Y-113000000D01*
X80102931Y-112968825D01*
X80096485Y-112895144D01*
X80085063Y-112764592D01*
X80023903Y-112536337D01*
X79924035Y-112322171D01*
X79900460Y-112288501D01*
X79788494Y-112128597D01*
X79621402Y-111961506D01*
X79621395Y-111961501D01*
X79620822Y-111961100D01*
X79564134Y-111921406D01*
X79427834Y-111825967D01*
X79427830Y-111825965D01*
X79332601Y-111781559D01*
X79213663Y-111726097D01*
X79213659Y-111726096D01*
X79213655Y-111726094D01*
X78985413Y-111664938D01*
X78985403Y-111664936D01*
X78750001Y-111644341D01*
X78749999Y-111644341D01*
X78514596Y-111664936D01*
X78514586Y-111664938D01*
X78286344Y-111726094D01*
X78286335Y-111726098D01*
X78072171Y-111825964D01*
X78072169Y-111825965D01*
X77878597Y-111961505D01*
X77711505Y-112128597D01*
X77575965Y-112322169D01*
X77575964Y-112322171D01*
X77476098Y-112536335D01*
X77476094Y-112536344D01*
X77414938Y-112764586D01*
X77414936Y-112764596D01*
X77394341Y-112999999D01*
X77394341Y-113000000D01*
X73250500Y-113000000D01*
X73250500Y-104175940D01*
X73270185Y-104108901D01*
X73322989Y-104063146D01*
X73392147Y-104053202D01*
X73455703Y-104082227D01*
X73465725Y-104091953D01*
X73480256Y-104107738D01*
X73676491Y-104260474D01*
X73895190Y-104378828D01*
X74130386Y-104459571D01*
X74375665Y-104500500D01*
X74624335Y-104500500D01*
X74869614Y-104459571D01*
X75104810Y-104378828D01*
X75323509Y-104260474D01*
X75419519Y-104185746D01*
X75484511Y-104160104D01*
X75553051Y-104173670D01*
X75603376Y-104222139D01*
X75619508Y-104290120D01*
X75619084Y-104295747D01*
X75618500Y-104301680D01*
X75618500Y-107413179D01*
X75618500Y-107586821D01*
X75618500Y-107586823D01*
X75618499Y-107586823D01*
X75652374Y-107757118D01*
X75652377Y-107757128D01*
X75718822Y-107917543D01*
X75815295Y-108061926D01*
X75815296Y-108061927D01*
X77315294Y-109561923D01*
X77413957Y-109660586D01*
X77438078Y-109684707D01*
X77438081Y-109684709D01*
X77518288Y-109738302D01*
X77518289Y-109738302D01*
X77582453Y-109781175D01*
X77582455Y-109781176D01*
X77582459Y-109781178D01*
X77641847Y-109805777D01*
X77695968Y-109849213D01*
X77711503Y-109871399D01*
X77711505Y-109871401D01*
X77878599Y-110038495D01*
X77975384Y-110106265D01*
X78072165Y-110174032D01*
X78072167Y-110174033D01*
X78072170Y-110174035D01*
X78286337Y-110273903D01*
X78514592Y-110335063D01*
X78702918Y-110351539D01*
X78749999Y-110355659D01*
X78750000Y-110355659D01*
X78750001Y-110355659D01*
X78789234Y-110352226D01*
X78985408Y-110335063D01*
X79213663Y-110273903D01*
X79427830Y-110174035D01*
X79621401Y-110038495D01*
X79788495Y-109871401D01*
X79924035Y-109677830D01*
X80023903Y-109463663D01*
X80085063Y-109235408D01*
X80105659Y-109000000D01*
X80085063Y-108764592D01*
X80023903Y-108536337D01*
X79924035Y-108322171D01*
X79902839Y-108291899D01*
X79788494Y-108128597D01*
X79621402Y-107961506D01*
X79621395Y-107961501D01*
X79427834Y-107825967D01*
X79427830Y-107825965D01*
X79366714Y-107797466D01*
X79213663Y-107726097D01*
X79213659Y-107726096D01*
X79213655Y-107726094D01*
X78985413Y-107664938D01*
X78985403Y-107664936D01*
X78750001Y-107644341D01*
X78749999Y-107644341D01*
X78514596Y-107664936D01*
X78514586Y-107664938D01*
X78286344Y-107726094D01*
X78286339Y-107726096D01*
X78151148Y-107789136D01*
X78082070Y-107799627D01*
X78018287Y-107771107D01*
X78011063Y-107764434D01*
X77417819Y-107171189D01*
X77384334Y-107109866D01*
X77381500Y-107083508D01*
X77381500Y-105793383D01*
X77401185Y-105726344D01*
X77453989Y-105680589D01*
X77523147Y-105670645D01*
X77586703Y-105699670D01*
X77607075Y-105722260D01*
X77711500Y-105871395D01*
X77711505Y-105871401D01*
X77878599Y-106038495D01*
X77975384Y-106106265D01*
X78072165Y-106174032D01*
X78072167Y-106174033D01*
X78072170Y-106174035D01*
X78286337Y-106273903D01*
X78514592Y-106335063D01*
X78702918Y-106351539D01*
X78749999Y-106355659D01*
X78750000Y-106355659D01*
X78750001Y-106355659D01*
X78789234Y-106352226D01*
X78985408Y-106335063D01*
X79213663Y-106273903D01*
X79427830Y-106174035D01*
X79621401Y-106038495D01*
X79788495Y-105871401D01*
X79924035Y-105677830D01*
X80023903Y-105463663D01*
X80085063Y-105235408D01*
X80105659Y-105000000D01*
X80085063Y-104764592D01*
X80047256Y-104623492D01*
X80048919Y-104553643D01*
X80088082Y-104495781D01*
X80152310Y-104468277D01*
X80187436Y-104469090D01*
X80375665Y-104500500D01*
X80375666Y-104500500D01*
X80624335Y-104500500D01*
X80869614Y-104459571D01*
X81104810Y-104378828D01*
X81323509Y-104260474D01*
X81519744Y-104107738D01*
X81688164Y-103924785D01*
X81824173Y-103716607D01*
X81924063Y-103488881D01*
X81985108Y-103247821D01*
X82002579Y-103036979D01*
X82005643Y-103000005D01*
X82005643Y-102999994D01*
X81985109Y-102752187D01*
X81985107Y-102752175D01*
X81924063Y-102511118D01*
X81824173Y-102283393D01*
X81688166Y-102075217D01*
X81656286Y-102040586D01*
X81519744Y-101892262D01*
X81323509Y-101739526D01*
X81323507Y-101739525D01*
X81323506Y-101739524D01*
X81104811Y-101621172D01*
X81104802Y-101621169D01*
X80869615Y-101540428D01*
X80864644Y-101539170D01*
X80865045Y-101537583D01*
X80808724Y-101510299D01*
X80772295Y-101450678D01*
X80773882Y-101380826D01*
X80804352Y-101330776D01*
X81684706Y-100450424D01*
X81781175Y-100306047D01*
X81810558Y-100235111D01*
X81828938Y-100190736D01*
X81847624Y-100145624D01*
X81864015Y-100063221D01*
X81881500Y-99975323D01*
X81881500Y-95724499D01*
X81901185Y-95657460D01*
X81953989Y-95611705D01*
X82005500Y-95600499D01*
X82347871Y-95600499D01*
X82347872Y-95600499D01*
X82407483Y-95594091D01*
X82542331Y-95543796D01*
X82657546Y-95457546D01*
X82743796Y-95342331D01*
X82794091Y-95207483D01*
X82800500Y-95147873D01*
X82800499Y-92452128D01*
X82794091Y-92392517D01*
X82782446Y-92361296D01*
X82743797Y-92257671D01*
X82743793Y-92257664D01*
X82657547Y-92142455D01*
X82657544Y-92142452D01*
X82542335Y-92056206D01*
X82542328Y-92056202D01*
X82466805Y-92028034D01*
X82410871Y-91986163D01*
X82386454Y-91920698D01*
X82401306Y-91852425D01*
X82422453Y-91824175D01*
X83788320Y-90458309D01*
X83849642Y-90424825D01*
X83919334Y-90429809D01*
G37*
%TD.AperFunction*%
%TA.AperFunction,Conductor*%
G36*
X91972310Y-136529569D02*
G01*
X91973572Y-136530813D01*
X95073378Y-139630619D01*
X98078179Y-142635419D01*
X98111664Y-142696742D01*
X98106680Y-142766434D01*
X98064808Y-142822367D01*
X97999344Y-142846784D01*
X97990498Y-142847100D01*
X90674252Y-142847100D01*
X90607213Y-142827415D01*
X90586571Y-142810781D01*
X90064752Y-142288961D01*
X90031267Y-142227638D01*
X90036251Y-142157946D01*
X90078123Y-142102013D01*
X90143587Y-142077596D01*
X90152433Y-142077280D01*
X90246320Y-142077280D01*
X90246320Y-141292966D01*
X90250714Y-141297360D01*
X90341926Y-141350021D01*
X90443659Y-141377280D01*
X90548981Y-141377280D01*
X90650714Y-141350021D01*
X90741926Y-141297360D01*
X90746320Y-141292966D01*
X90746320Y-142077280D01*
X90982891Y-142077280D01*
X91153904Y-142050194D01*
X91318577Y-141996688D01*
X91472844Y-141918084D01*
X91612922Y-141816312D01*
X91735352Y-141693882D01*
X91837124Y-141553804D01*
X91915728Y-141399535D01*
X91969234Y-141234864D01*
X91970435Y-141227280D01*
X90812006Y-141227280D01*
X90816400Y-141222886D01*
X90869061Y-141131674D01*
X90896320Y-141029941D01*
X90896320Y-140924619D01*
X90869061Y-140822886D01*
X90816400Y-140731674D01*
X90812006Y-140727280D01*
X91970435Y-140727280D01*
X91970435Y-140727279D01*
X91969234Y-140719695D01*
X91915728Y-140555024D01*
X91837124Y-140400755D01*
X91735352Y-140260677D01*
X91612922Y-140138247D01*
X91472844Y-140036475D01*
X91318577Y-139957871D01*
X91153904Y-139904365D01*
X90982891Y-139877280D01*
X90746320Y-139877280D01*
X90746320Y-140661594D01*
X90741926Y-140657200D01*
X90650714Y-140604539D01*
X90548981Y-140577280D01*
X90443659Y-140577280D01*
X90341926Y-140604539D01*
X90250714Y-140657200D01*
X90246320Y-140661594D01*
X90246320Y-139877280D01*
X90009749Y-139877280D01*
X89838735Y-139904365D01*
X89674062Y-139957871D01*
X89519792Y-140036477D01*
X89438184Y-140095768D01*
X89372378Y-140119247D01*
X89304324Y-140103421D01*
X89255630Y-140053315D01*
X89241300Y-139995449D01*
X89241300Y-139419728D01*
X89260985Y-139352689D01*
X89313789Y-139306934D01*
X89382947Y-139296990D01*
X89438184Y-139319409D01*
X89519532Y-139378512D01*
X89673875Y-139457153D01*
X89838619Y-139510682D01*
X90009709Y-139537780D01*
X90009710Y-139537780D01*
X90982930Y-139537780D01*
X90982931Y-139537780D01*
X91154021Y-139510682D01*
X91318765Y-139457153D01*
X91473108Y-139378512D01*
X91613248Y-139276694D01*
X91735734Y-139154208D01*
X91837552Y-139014068D01*
X91916193Y-138859725D01*
X91969722Y-138694981D01*
X91996820Y-138523891D01*
X91996820Y-138350669D01*
X91969722Y-138179579D01*
X91916193Y-138014835D01*
X91837552Y-137860492D01*
X91735734Y-137720352D01*
X91613248Y-137597866D01*
X91473108Y-137496048D01*
X91318765Y-137417407D01*
X91154021Y-137363878D01*
X91154019Y-137363877D01*
X91154018Y-137363877D01*
X91022591Y-137343061D01*
X90982931Y-137336780D01*
X90009709Y-137336780D01*
X89970048Y-137343061D01*
X89838622Y-137363877D01*
X89673872Y-137417408D01*
X89519527Y-137496050D01*
X89438185Y-137555149D01*
X89372379Y-137578629D01*
X89304325Y-137562803D01*
X89255630Y-137512697D01*
X89241300Y-137454831D01*
X89241300Y-136879728D01*
X89260985Y-136812689D01*
X89313789Y-136766934D01*
X89382947Y-136756990D01*
X89438184Y-136779409D01*
X89519532Y-136838512D01*
X89673875Y-136917153D01*
X89838619Y-136970682D01*
X90009709Y-136997780D01*
X90009710Y-136997780D01*
X90982930Y-136997780D01*
X90982931Y-136997780D01*
X91154021Y-136970682D01*
X91318765Y-136917153D01*
X91473108Y-136838512D01*
X91613248Y-136736694D01*
X91735734Y-136614208D01*
X91785575Y-136545607D01*
X91840902Y-136502943D01*
X91910515Y-136496964D01*
X91972310Y-136529569D01*
G37*
%TD.AperFunction*%
%TA.AperFunction,Conductor*%
G36*
X91753866Y-131649522D02*
G01*
X91780573Y-131669814D01*
X100327898Y-140217139D01*
X100327901Y-140217141D01*
X100434837Y-140288593D01*
X100473859Y-140304756D01*
X100553656Y-140337809D01*
X100553660Y-140337809D01*
X100553661Y-140337810D01*
X100679792Y-140362900D01*
X100679795Y-140362900D01*
X111837520Y-140362900D01*
X111904559Y-140382585D01*
X111950314Y-140435389D01*
X111960258Y-140504547D01*
X111948004Y-140543197D01*
X111940590Y-140557745D01*
X111887085Y-140722415D01*
X111885884Y-140729999D01*
X111885885Y-140730000D01*
X113044314Y-140730000D01*
X113039920Y-140734394D01*
X112987259Y-140825606D01*
X112960000Y-140927339D01*
X112960000Y-141032661D01*
X112987259Y-141134394D01*
X113039920Y-141225606D01*
X113044314Y-141230000D01*
X111885885Y-141230000D01*
X111887085Y-141237584D01*
X111940591Y-141402255D01*
X112019198Y-141556528D01*
X112080290Y-141640615D01*
X112103770Y-141706421D01*
X112087944Y-141774475D01*
X112037839Y-141823170D01*
X111979972Y-141837500D01*
X101306302Y-141837500D01*
X101239263Y-141817815D01*
X101218621Y-141801181D01*
X92270305Y-132852863D01*
X92270304Y-132852862D01*
X92270300Y-132852859D01*
X92163364Y-132781408D01*
X92044544Y-132732191D01*
X92044538Y-132732189D01*
X91918407Y-132707100D01*
X91918405Y-132707100D01*
X91849114Y-132707100D01*
X91782075Y-132687415D01*
X91748797Y-132655987D01*
X91739414Y-132643072D01*
X91616928Y-132520586D01*
X91476788Y-132418768D01*
X91322445Y-132340127D01*
X91157701Y-132286598D01*
X91157699Y-132286597D01*
X91157698Y-132286597D01*
X91026271Y-132265781D01*
X90986611Y-132259500D01*
X90013389Y-132259500D01*
X89942195Y-132270775D01*
X89872903Y-132261820D01*
X89819452Y-132216823D01*
X89798813Y-132150072D01*
X89798800Y-132148302D01*
X89798800Y-132031697D01*
X89818485Y-131964658D01*
X89871289Y-131918903D01*
X89940447Y-131908959D01*
X89942133Y-131909214D01*
X90013389Y-131920500D01*
X90013390Y-131920500D01*
X90986610Y-131920500D01*
X90986611Y-131920500D01*
X91157701Y-131893402D01*
X91322445Y-131839873D01*
X91476788Y-131761232D01*
X91616928Y-131659414D01*
X91616930Y-131659411D01*
X91620006Y-131657177D01*
X91685812Y-131633697D01*
X91753866Y-131649522D01*
G37*
%TD.AperFunction*%
%TA.AperFunction,Conductor*%
G36*
X115195736Y-140382585D02*
G01*
X115216378Y-140399219D01*
X116324296Y-141507137D01*
X116324300Y-141507140D01*
X116409854Y-141564305D01*
X116431236Y-141578592D01*
X116431238Y-141578592D01*
X116431242Y-141578595D01*
X116480357Y-141598939D01*
X116534761Y-141642780D01*
X116556826Y-141709074D01*
X116539547Y-141776773D01*
X116488410Y-141824384D01*
X116432905Y-141837500D01*
X114740028Y-141837500D01*
X114672989Y-141817815D01*
X114627234Y-141765011D01*
X114617290Y-141695853D01*
X114639710Y-141640615D01*
X114700801Y-141556528D01*
X114779408Y-141402255D01*
X114832914Y-141237584D01*
X114834115Y-141230000D01*
X113675686Y-141230000D01*
X113680080Y-141225606D01*
X113732741Y-141134394D01*
X113760000Y-141032661D01*
X113760000Y-140927339D01*
X113732741Y-140825606D01*
X113680080Y-140734394D01*
X113675686Y-140730000D01*
X114834115Y-140730000D01*
X114834115Y-140729999D01*
X114832914Y-140722415D01*
X114779409Y-140557745D01*
X114771996Y-140543197D01*
X114759099Y-140474528D01*
X114785374Y-140409787D01*
X114842479Y-140369529D01*
X114882480Y-140362900D01*
X115128697Y-140362900D01*
X115195736Y-140382585D01*
G37*
%TD.AperFunction*%
%TA.AperFunction,Conductor*%
G36*
X115254236Y-137672585D02*
G01*
X115274878Y-137689219D01*
X116570270Y-138984611D01*
X117721079Y-140135419D01*
X117754564Y-140196742D01*
X117749580Y-140266434D01*
X117707708Y-140322367D01*
X117642244Y-140346784D01*
X117633398Y-140347100D01*
X117062302Y-140347100D01*
X116995263Y-140327415D01*
X116974621Y-140310781D01*
X115866705Y-139202863D01*
X115866704Y-139202862D01*
X115866700Y-139202859D01*
X115759764Y-139131408D01*
X115758238Y-139130776D01*
X115640944Y-139082191D01*
X115640938Y-139082189D01*
X115514807Y-139057100D01*
X115514805Y-139057100D01*
X114882480Y-139057100D01*
X114815441Y-139037415D01*
X114769686Y-138984611D01*
X114759742Y-138915453D01*
X114771996Y-138876803D01*
X114779409Y-138862254D01*
X114832914Y-138697584D01*
X114834115Y-138690000D01*
X113675686Y-138690000D01*
X113680080Y-138685606D01*
X113732741Y-138594394D01*
X113760000Y-138492661D01*
X113760000Y-138387339D01*
X113732741Y-138285606D01*
X113680080Y-138194394D01*
X113675686Y-138190000D01*
X114834115Y-138190000D01*
X114834115Y-138189999D01*
X114832914Y-138182415D01*
X114779408Y-138017744D01*
X114700803Y-137863473D01*
X114690859Y-137849787D01*
X114667378Y-137783981D01*
X114683203Y-137715926D01*
X114733308Y-137667231D01*
X114791176Y-137652900D01*
X115187197Y-137652900D01*
X115254236Y-137672585D01*
G37*
%TD.AperFunction*%
%TA.AperFunction,Conductor*%
G36*
X167752702Y-51000617D02*
G01*
X168136771Y-51017386D01*
X168147506Y-51018326D01*
X168525971Y-51068152D01*
X168536597Y-51070025D01*
X168909284Y-51152648D01*
X168919710Y-51155442D01*
X169283765Y-51270227D01*
X169293911Y-51273920D01*
X169646578Y-51420000D01*
X169656369Y-51424566D01*
X169994942Y-51600816D01*
X170004310Y-51606224D01*
X170326244Y-51811318D01*
X170335105Y-51817523D01*
X170637930Y-52049889D01*
X170646217Y-52056843D01*
X170927635Y-52314715D01*
X170935284Y-52322364D01*
X171193156Y-52603782D01*
X171200110Y-52612069D01*
X171432476Y-52914894D01*
X171438681Y-52923755D01*
X171643775Y-53245689D01*
X171649183Y-53255057D01*
X171825430Y-53593623D01*
X171830002Y-53603427D01*
X171976075Y-53956078D01*
X171979775Y-53966244D01*
X172094554Y-54330278D01*
X172097354Y-54340727D01*
X172179971Y-54713389D01*
X172181849Y-54724042D01*
X172231671Y-55102473D01*
X172232614Y-55113249D01*
X172249382Y-55497297D01*
X172249500Y-55502706D01*
X172249500Y-114521482D01*
X172229815Y-114588521D01*
X172177011Y-114634276D01*
X172107853Y-114644220D01*
X172044297Y-114615195D01*
X172037819Y-114609163D01*
X171687518Y-114258862D01*
X171687514Y-114258859D01*
X171580578Y-114187408D01*
X171548290Y-114174034D01*
X171461758Y-114138191D01*
X171461752Y-114138189D01*
X171335621Y-114113100D01*
X171335619Y-114113100D01*
X171319970Y-114113100D01*
X171252931Y-114093415D01*
X171216161Y-114056922D01*
X171199627Y-114031615D01*
X171130156Y-113925281D01*
X171130154Y-113925279D01*
X171130153Y-113925277D01*
X170977049Y-113758963D01*
X170977048Y-113758962D01*
X170977046Y-113758960D01*
X170798649Y-113620107D01*
X170798647Y-113620106D01*
X170798646Y-113620105D01*
X170798639Y-113620100D01*
X170770836Y-113605055D01*
X170721244Y-113555837D01*
X170706135Y-113487620D01*
X170730306Y-113422064D01*
X170770836Y-113386945D01*
X170798639Y-113371899D01*
X170798642Y-113371896D01*
X170798649Y-113371893D01*
X170977046Y-113233040D01*
X171076832Y-113124643D01*
X171130149Y-113066727D01*
X171130153Y-113066722D01*
X171130156Y-113066719D01*
X171253802Y-112877465D01*
X171344611Y-112670441D01*
X171400107Y-112451293D01*
X171413596Y-112288501D01*
X171418775Y-112226006D01*
X171418775Y-112225993D01*
X171400107Y-112000710D01*
X171400107Y-112000707D01*
X171344611Y-111781559D01*
X171253802Y-111574535D01*
X171252864Y-111573100D01*
X171166711Y-111441232D01*
X171130156Y-111385281D01*
X171130153Y-111385278D01*
X171130149Y-111385272D01*
X170977049Y-111218963D01*
X170977048Y-111218962D01*
X170977046Y-111218960D01*
X170798649Y-111080107D01*
X170798647Y-111080106D01*
X170798646Y-111080105D01*
X170798639Y-111080100D01*
X170770836Y-111065055D01*
X170721244Y-111015837D01*
X170706135Y-110947620D01*
X170730306Y-110882064D01*
X170770836Y-110846945D01*
X170798639Y-110831899D01*
X170798642Y-110831896D01*
X170798649Y-110831893D01*
X170977046Y-110693040D01*
X171130156Y-110526719D01*
X171253802Y-110337465D01*
X171344611Y-110130441D01*
X171400107Y-109911293D01*
X171409843Y-109793800D01*
X171418775Y-109686006D01*
X171418775Y-109685993D01*
X171400107Y-109460710D01*
X171400107Y-109460707D01*
X171344611Y-109241559D01*
X171253802Y-109034535D01*
X171231238Y-108999999D01*
X171166711Y-108901232D01*
X171130156Y-108845281D01*
X171130153Y-108845278D01*
X171130149Y-108845272D01*
X170977049Y-108678963D01*
X170977048Y-108678962D01*
X170977046Y-108678960D01*
X170798649Y-108540107D01*
X170798647Y-108540106D01*
X170798646Y-108540105D01*
X170798639Y-108540100D01*
X170770836Y-108525055D01*
X170721244Y-108475837D01*
X170706135Y-108407620D01*
X170730306Y-108342064D01*
X170770836Y-108306945D01*
X170798639Y-108291899D01*
X170798642Y-108291896D01*
X170798649Y-108291893D01*
X170977046Y-108153040D01*
X171130156Y-107986719D01*
X171253802Y-107797465D01*
X171344611Y-107590441D01*
X171400107Y-107371293D01*
X171413409Y-107210758D01*
X171418775Y-107146006D01*
X171418775Y-107145993D01*
X171400107Y-106920710D01*
X171400107Y-106920707D01*
X171344611Y-106701559D01*
X171253802Y-106494535D01*
X171218089Y-106439873D01*
X171166711Y-106361232D01*
X171130156Y-106305281D01*
X171130153Y-106305278D01*
X171130149Y-106305272D01*
X170977049Y-106138963D01*
X170977048Y-106138962D01*
X170977046Y-106138960D01*
X170798649Y-106000107D01*
X170798647Y-106000106D01*
X170798646Y-106000105D01*
X170798639Y-106000100D01*
X170770836Y-105985055D01*
X170721244Y-105935837D01*
X170706135Y-105867620D01*
X170730306Y-105802064D01*
X170770836Y-105766945D01*
X170798639Y-105751899D01*
X170798642Y-105751896D01*
X170798649Y-105751893D01*
X170977046Y-105613040D01*
X171130156Y-105446719D01*
X171253802Y-105257465D01*
X171344611Y-105050441D01*
X171400107Y-104831293D01*
X171408012Y-104735893D01*
X171418775Y-104606006D01*
X171418775Y-104605993D01*
X171400107Y-104380710D01*
X171400107Y-104380707D01*
X171344611Y-104161559D01*
X171253802Y-103954535D01*
X171234365Y-103924785D01*
X171166711Y-103821232D01*
X171130156Y-103765281D01*
X171130153Y-103765278D01*
X171130149Y-103765272D01*
X170992755Y-103616024D01*
X170961832Y-103553370D01*
X170969692Y-103483944D01*
X171013839Y-103429788D01*
X171040652Y-103415859D01*
X171155684Y-103372955D01*
X171155693Y-103372950D01*
X171270787Y-103286790D01*
X171270790Y-103286787D01*
X171356950Y-103171693D01*
X171356954Y-103171686D01*
X171407196Y-103036979D01*
X171407198Y-103036972D01*
X171413599Y-102977444D01*
X171413600Y-102977427D01*
X171413600Y-102316000D01*
X170492251Y-102316000D01*
X170523381Y-102262081D01*
X170558000Y-102132880D01*
X170558000Y-101999120D01*
X170523381Y-101869919D01*
X170492251Y-101816000D01*
X171413600Y-101816000D01*
X171413600Y-101154572D01*
X171413599Y-101154555D01*
X171407198Y-101095027D01*
X171407196Y-101095020D01*
X171356954Y-100960313D01*
X171356950Y-100960306D01*
X171270790Y-100845212D01*
X171270787Y-100845209D01*
X171155693Y-100759049D01*
X171155686Y-100759045D01*
X171040651Y-100716140D01*
X170984717Y-100674269D01*
X170960300Y-100608804D01*
X170975152Y-100540531D01*
X170992749Y-100515981D01*
X171130156Y-100366719D01*
X171253802Y-100177465D01*
X171344611Y-99970441D01*
X171400107Y-99751293D01*
X171418775Y-99526000D01*
X171418775Y-99525993D01*
X171400107Y-99300710D01*
X171400107Y-99300707D01*
X171344611Y-99081559D01*
X171253802Y-98874535D01*
X171218089Y-98819873D01*
X171130157Y-98685283D01*
X171130149Y-98685272D01*
X170977049Y-98518963D01*
X170977048Y-98518962D01*
X170977046Y-98518960D01*
X170798649Y-98380107D01*
X170798647Y-98380106D01*
X170798646Y-98380105D01*
X170798639Y-98380100D01*
X170770836Y-98365055D01*
X170721244Y-98315837D01*
X170706135Y-98247620D01*
X170730306Y-98182064D01*
X170770836Y-98146945D01*
X170798639Y-98131899D01*
X170798642Y-98131896D01*
X170798649Y-98131893D01*
X170977046Y-97993040D01*
X171130156Y-97826719D01*
X171253802Y-97637465D01*
X171344611Y-97430441D01*
X171400107Y-97211293D01*
X171418775Y-96986000D01*
X171418775Y-96985993D01*
X171400107Y-96760710D01*
X171400107Y-96760707D01*
X171344611Y-96541559D01*
X171253802Y-96334535D01*
X171218089Y-96279873D01*
X171130157Y-96145283D01*
X171130149Y-96145272D01*
X170977049Y-95978963D01*
X170977048Y-95978962D01*
X170977046Y-95978960D01*
X170798649Y-95840107D01*
X170798647Y-95840106D01*
X170798646Y-95840105D01*
X170798639Y-95840100D01*
X170770836Y-95825055D01*
X170721244Y-95775837D01*
X170706135Y-95707620D01*
X170730306Y-95642064D01*
X170770836Y-95606945D01*
X170798639Y-95591899D01*
X170798642Y-95591896D01*
X170798649Y-95591893D01*
X170977046Y-95453040D01*
X171130156Y-95286719D01*
X171253802Y-95097465D01*
X171344611Y-94890441D01*
X171400107Y-94671293D01*
X171418775Y-94446000D01*
X171418775Y-94445993D01*
X171400107Y-94220710D01*
X171400107Y-94220707D01*
X171344611Y-94001559D01*
X171253802Y-93794535D01*
X171252864Y-93793100D01*
X171130157Y-93605283D01*
X171130149Y-93605272D01*
X170977049Y-93438963D01*
X170977048Y-93438962D01*
X170977046Y-93438960D01*
X170798649Y-93300107D01*
X170725477Y-93260508D01*
X170599832Y-93192512D01*
X170599827Y-93192510D01*
X170386017Y-93119109D01*
X170217860Y-93091049D01*
X170163033Y-93081900D01*
X169936967Y-93081900D01*
X169892370Y-93089341D01*
X169713982Y-93119109D01*
X169500172Y-93192510D01*
X169500167Y-93192512D01*
X169301352Y-93300106D01*
X169122955Y-93438959D01*
X169122950Y-93438963D01*
X168969846Y-93605277D01*
X168883839Y-93736922D01*
X168830692Y-93782278D01*
X168780030Y-93793100D01*
X165456993Y-93793100D01*
X165330861Y-93818189D01*
X165330855Y-93818191D01*
X165212037Y-93867407D01*
X165105097Y-93938861D01*
X165105096Y-93938862D01*
X145110763Y-113933194D01*
X145110762Y-113933195D01*
X145103521Y-113944033D01*
X145045002Y-114031614D01*
X145042720Y-114035027D01*
X145039307Y-114040136D01*
X144990091Y-114158955D01*
X144990089Y-114158961D01*
X144965000Y-114285092D01*
X144965000Y-119233751D01*
X144945994Y-119299722D01*
X144892109Y-119385479D01*
X144832533Y-119555737D01*
X144832530Y-119555750D01*
X144812335Y-119734996D01*
X144812335Y-119735003D01*
X144832530Y-119914249D01*
X144832531Y-119914254D01*
X144892111Y-120084523D01*
X144979818Y-120224107D01*
X144988084Y-120237262D01*
X145115638Y-120364816D01*
X145175292Y-120402299D01*
X145258456Y-120454555D01*
X145268378Y-120460789D01*
X145322020Y-120479559D01*
X145438645Y-120520368D01*
X145438650Y-120520369D01*
X145617896Y-120540565D01*
X145617900Y-120540565D01*
X145617904Y-120540565D01*
X145797149Y-120520369D01*
X145797152Y-120520368D01*
X145797155Y-120520368D01*
X145967422Y-120460789D01*
X146120162Y-120364816D01*
X146247716Y-120237262D01*
X146343689Y-120084522D01*
X146403268Y-119914255D01*
X146419646Y-119768894D01*
X146423465Y-119735003D01*
X146423465Y-119734996D01*
X146403269Y-119555750D01*
X146403266Y-119555737D01*
X146343690Y-119385479D01*
X146289806Y-119299722D01*
X146270800Y-119233751D01*
X146270800Y-114671202D01*
X146290485Y-114604163D01*
X146307119Y-114583521D01*
X148157585Y-112733055D01*
X150082424Y-110808215D01*
X150143745Y-110774732D01*
X150213437Y-110779716D01*
X150236075Y-110790904D01*
X150301309Y-110831893D01*
X150384378Y-110884089D01*
X150554645Y-110943668D01*
X150558047Y-110944051D01*
X150560096Y-110944911D01*
X150561433Y-110945217D01*
X150561379Y-110945451D01*
X150622462Y-110971114D01*
X150631851Y-110979591D01*
X153404181Y-113751921D01*
X153437666Y-113813244D01*
X153440500Y-113839602D01*
X153440500Y-115426860D01*
X153420815Y-115493899D01*
X153368011Y-115539654D01*
X153298853Y-115549598D01*
X153235297Y-115520573D01*
X153228819Y-115514541D01*
X153205362Y-115491084D01*
X153052623Y-115395111D01*
X152882354Y-115335531D01*
X152882349Y-115335530D01*
X152703104Y-115315335D01*
X152703096Y-115315335D01*
X152523850Y-115335530D01*
X152523845Y-115335531D01*
X152353576Y-115395111D01*
X152200837Y-115491084D01*
X152073284Y-115618637D01*
X151977310Y-115771378D01*
X151917730Y-115941649D01*
X151917347Y-115945056D01*
X151916483Y-115947109D01*
X151916180Y-115948441D01*
X151915946Y-115948387D01*
X151890278Y-116009469D01*
X151881808Y-116018850D01*
X151662363Y-116238294D01*
X151662357Y-116238301D01*
X151602677Y-116327620D01*
X151602678Y-116327621D01*
X151590906Y-116345238D01*
X151541691Y-116464055D01*
X151541689Y-116464061D01*
X151516600Y-116590192D01*
X151516600Y-120008697D01*
X151496915Y-120075736D01*
X151480281Y-120096378D01*
X146365177Y-125211481D01*
X146303854Y-125244966D01*
X146234162Y-125239982D01*
X146178229Y-125198110D01*
X146172503Y-125189773D01*
X146129817Y-125121839D01*
X146002262Y-124994284D01*
X145849521Y-124898310D01*
X145679255Y-124838732D01*
X145679248Y-124838731D01*
X145675834Y-124838346D01*
X145673781Y-124837483D01*
X145672466Y-124837183D01*
X145672518Y-124836952D01*
X145611422Y-124811272D01*
X145602049Y-124802808D01*
X145367719Y-124568478D01*
X145334234Y-124507155D01*
X145331400Y-124480797D01*
X145331400Y-122364192D01*
X145306310Y-122238061D01*
X145306309Y-122238060D01*
X145306309Y-122238056D01*
X145277477Y-122168452D01*
X145257092Y-122119235D01*
X145243906Y-122099502D01*
X145243905Y-122099500D01*
X145185640Y-122012300D01*
X145185638Y-122012297D01*
X143689219Y-120515878D01*
X143655734Y-120454555D01*
X143652900Y-120428197D01*
X143652900Y-112859192D01*
X143627810Y-112733061D01*
X143627809Y-112733060D01*
X143627809Y-112733056D01*
X143578592Y-112614236D01*
X143578591Y-112614235D01*
X143578587Y-112614227D01*
X143558257Y-112583802D01*
X143558255Y-112583799D01*
X143507145Y-112507305D01*
X143507141Y-112507300D01*
X140859541Y-109859700D01*
X140826056Y-109798377D01*
X140824001Y-109785897D01*
X140823618Y-109782495D01*
X140764039Y-109612228D01*
X140668066Y-109459488D01*
X140540512Y-109331934D01*
X140523851Y-109321465D01*
X140387773Y-109235961D01*
X140217504Y-109176381D01*
X140217499Y-109176380D01*
X140038254Y-109156185D01*
X140038246Y-109156185D01*
X139859000Y-109176380D01*
X139858995Y-109176381D01*
X139688726Y-109235961D01*
X139535987Y-109331934D01*
X139408434Y-109459487D01*
X139312461Y-109612226D01*
X139252881Y-109782495D01*
X139252880Y-109782500D01*
X139232685Y-109961746D01*
X139232685Y-109961753D01*
X139252880Y-110140999D01*
X139252881Y-110141004D01*
X139312461Y-110311273D01*
X139376625Y-110413389D01*
X139408434Y-110464012D01*
X139535988Y-110591566D01*
X139688728Y-110687539D01*
X139858995Y-110747118D01*
X139862397Y-110747501D01*
X139864445Y-110748361D01*
X139865783Y-110748667D01*
X139865729Y-110748901D01*
X139926812Y-110774565D01*
X139936200Y-110783041D01*
X142310781Y-113157622D01*
X142344266Y-113218945D01*
X142347100Y-113245303D01*
X142347100Y-120814305D01*
X142362614Y-120892296D01*
X142372191Y-120940444D01*
X142372192Y-120940446D01*
X142421407Y-121059262D01*
X142492862Y-121166204D01*
X142492863Y-121166205D01*
X143989281Y-122662621D01*
X144022766Y-122723944D01*
X144025600Y-122750302D01*
X144025600Y-123862137D01*
X144005915Y-123929176D01*
X143953111Y-123974931D01*
X143915483Y-123985357D01*
X143820750Y-123996030D01*
X143820745Y-123996031D01*
X143650477Y-124055611D01*
X143564724Y-124109494D01*
X143498752Y-124128500D01*
X138654293Y-124128500D01*
X138538246Y-124151584D01*
X138528156Y-124153591D01*
X138528155Y-124153591D01*
X138409337Y-124202807D01*
X138302397Y-124274261D01*
X138302396Y-124274262D01*
X123368439Y-139208218D01*
X123307116Y-139241703D01*
X123237424Y-139236719D01*
X123181491Y-139194847D01*
X123157182Y-139130779D01*
X123140107Y-138924707D01*
X123084611Y-138705559D01*
X122993802Y-138498535D01*
X122992864Y-138497100D01*
X122870157Y-138309283D01*
X122870149Y-138309272D01*
X122717049Y-138142963D01*
X122717048Y-138142962D01*
X122717046Y-138142960D01*
X122538649Y-138004107D01*
X122538647Y-138004106D01*
X122538646Y-138004105D01*
X122538639Y-138004100D01*
X122510836Y-137989055D01*
X122461244Y-137939837D01*
X122446135Y-137871620D01*
X122470306Y-137806064D01*
X122510836Y-137770945D01*
X122538639Y-137755899D01*
X122538642Y-137755896D01*
X122538649Y-137755893D01*
X122717046Y-137617040D01*
X122870156Y-137450719D01*
X122993802Y-137261465D01*
X123084611Y-137054441D01*
X123140107Y-136835293D01*
X123148277Y-136736691D01*
X123158775Y-136610006D01*
X123158775Y-136609993D01*
X123140107Y-136384710D01*
X123140107Y-136384707D01*
X123084611Y-136165559D01*
X122993802Y-135958535D01*
X122992864Y-135957100D01*
X122870157Y-135769283D01*
X122870149Y-135769272D01*
X122717049Y-135602963D01*
X122717048Y-135602962D01*
X122717046Y-135602960D01*
X122538649Y-135464107D01*
X122538647Y-135464106D01*
X122538646Y-135464105D01*
X122538639Y-135464100D01*
X122510836Y-135449055D01*
X122461244Y-135399837D01*
X122446135Y-135331620D01*
X122470306Y-135266064D01*
X122510836Y-135230945D01*
X122538639Y-135215899D01*
X122538642Y-135215896D01*
X122538649Y-135215893D01*
X122717046Y-135077040D01*
X122834511Y-134949440D01*
X122870149Y-134910727D01*
X122870153Y-134910722D01*
X122870156Y-134910719D01*
X122993802Y-134721465D01*
X123084611Y-134514441D01*
X123140107Y-134295293D01*
X123158775Y-134070000D01*
X123158775Y-134069993D01*
X123140107Y-133844710D01*
X123140107Y-133844707D01*
X123084611Y-133625559D01*
X122993802Y-133418535D01*
X122992864Y-133417100D01*
X122870157Y-133229283D01*
X122870149Y-133229272D01*
X122717049Y-133062963D01*
X122717048Y-133062962D01*
X122717046Y-133062960D01*
X122538649Y-132924107D01*
X122538647Y-132924106D01*
X122538646Y-132924105D01*
X122538639Y-132924100D01*
X122510836Y-132909055D01*
X122461244Y-132859837D01*
X122446135Y-132791620D01*
X122470306Y-132726064D01*
X122510836Y-132690945D01*
X122538639Y-132675899D01*
X122538642Y-132675896D01*
X122538649Y-132675893D01*
X122717046Y-132537040D01*
X122870156Y-132370719D01*
X122993802Y-132181465D01*
X123084611Y-131974441D01*
X123140107Y-131755293D01*
X123154401Y-131582791D01*
X123158775Y-131530006D01*
X123158775Y-131529993D01*
X123140107Y-131304710D01*
X123140107Y-131304707D01*
X123084611Y-131085559D01*
X122993802Y-130878535D01*
X122973264Y-130847100D01*
X122896471Y-130729559D01*
X122870156Y-130689281D01*
X122870153Y-130689278D01*
X122870149Y-130689272D01*
X122717049Y-130522963D01*
X122717048Y-130522962D01*
X122717046Y-130522960D01*
X122538649Y-130384107D01*
X122538647Y-130384106D01*
X122538646Y-130384105D01*
X122538639Y-130384100D01*
X122510836Y-130369055D01*
X122461244Y-130319837D01*
X122446135Y-130251620D01*
X122470306Y-130186064D01*
X122510836Y-130150945D01*
X122538639Y-130135899D01*
X122538642Y-130135896D01*
X122538649Y-130135893D01*
X122717046Y-129997040D01*
X122825924Y-129878768D01*
X122870149Y-129830727D01*
X122870153Y-129830722D01*
X122870156Y-129830719D01*
X122993802Y-129641465D01*
X123084611Y-129434441D01*
X123140107Y-129215293D01*
X123151048Y-129083258D01*
X123158775Y-128990006D01*
X123158775Y-128989993D01*
X123140107Y-128764710D01*
X123140107Y-128764707D01*
X123084611Y-128545559D01*
X122993802Y-128338535D01*
X122993256Y-128337700D01*
X122870157Y-128149283D01*
X122870149Y-128149272D01*
X122717049Y-127982963D01*
X122717048Y-127982962D01*
X122717046Y-127982960D01*
X122538649Y-127844107D01*
X122538647Y-127844106D01*
X122538646Y-127844105D01*
X122538639Y-127844100D01*
X122510836Y-127829055D01*
X122461244Y-127779837D01*
X122446135Y-127711620D01*
X122470306Y-127646064D01*
X122510836Y-127610945D01*
X122538639Y-127595899D01*
X122538642Y-127595896D01*
X122538649Y-127595893D01*
X122717046Y-127457040D01*
X122825924Y-127338768D01*
X122870149Y-127290727D01*
X122870150Y-127290725D01*
X122870156Y-127290719D01*
X122993802Y-127101465D01*
X123084611Y-126894441D01*
X123140107Y-126675293D01*
X123154401Y-126502791D01*
X123158775Y-126450006D01*
X123158775Y-126449993D01*
X123142527Y-126253916D01*
X123140107Y-126224707D01*
X123084611Y-126005559D01*
X122993802Y-125798535D01*
X122977910Y-125774211D01*
X122870157Y-125609283D01*
X122870149Y-125609272D01*
X122717049Y-125442963D01*
X122717048Y-125442962D01*
X122717046Y-125442960D01*
X122538649Y-125304107D01*
X122445943Y-125253937D01*
X122339832Y-125196512D01*
X122339826Y-125196510D01*
X122284356Y-125177467D01*
X122227340Y-125137081D01*
X122201210Y-125072281D01*
X122214262Y-125003642D01*
X122236935Y-124972508D01*
X142520225Y-104689219D01*
X142581548Y-104655734D01*
X142607906Y-104652900D01*
X143314307Y-104652900D01*
X143399165Y-104636019D01*
X143440444Y-104627809D01*
X143559264Y-104578592D01*
X143666200Y-104507141D01*
X146655990Y-101517348D01*
X146655995Y-101517345D01*
X146666198Y-101507141D01*
X146666200Y-101507141D01*
X167257140Y-80916200D01*
X167328592Y-80809264D01*
X167377809Y-80690444D01*
X167386550Y-80646500D01*
X167402900Y-80564305D01*
X167402900Y-71751248D01*
X167421906Y-71685276D01*
X167433494Y-71666834D01*
X167475789Y-71599522D01*
X167535368Y-71429255D01*
X167535369Y-71429249D01*
X167555565Y-71250003D01*
X167555565Y-71249996D01*
X167535369Y-71070750D01*
X167535368Y-71070745D01*
X167519887Y-71026502D01*
X167475789Y-70900478D01*
X167379816Y-70747738D01*
X167270389Y-70638311D01*
X167236904Y-70576988D01*
X167241888Y-70507296D01*
X167270385Y-70462954D01*
X168473092Y-69260246D01*
X168534413Y-69226763D01*
X168604105Y-69231747D01*
X168660038Y-69273619D01*
X168684347Y-69337689D01*
X168699892Y-69525289D01*
X168755388Y-69744439D01*
X168846198Y-69951466D01*
X168969842Y-70140716D01*
X168969850Y-70140727D01*
X169085585Y-70266447D01*
X169122954Y-70307040D01*
X169301351Y-70445893D01*
X169329165Y-70460945D01*
X169378755Y-70510165D01*
X169393863Y-70578382D01*
X169369692Y-70643937D01*
X169329165Y-70679055D01*
X169301352Y-70694106D01*
X169122955Y-70832959D01*
X169122950Y-70832963D01*
X168969850Y-70999272D01*
X168969842Y-70999283D01*
X168846198Y-71188533D01*
X168755388Y-71395560D01*
X168699892Y-71614710D01*
X168681225Y-71839993D01*
X168681225Y-71840006D01*
X168699892Y-72065289D01*
X168755388Y-72284439D01*
X168846198Y-72491466D01*
X168969842Y-72680716D01*
X168969850Y-72680727D01*
X169122950Y-72847036D01*
X169122954Y-72847040D01*
X169301351Y-72985893D01*
X169500169Y-73093488D01*
X169500172Y-73093489D01*
X169713982Y-73166890D01*
X169713984Y-73166890D01*
X169713986Y-73166891D01*
X169936967Y-73204100D01*
X169936968Y-73204100D01*
X170163032Y-73204100D01*
X170163033Y-73204100D01*
X170386014Y-73166891D01*
X170599831Y-73093488D01*
X170798649Y-72985893D01*
X170977046Y-72847040D01*
X171130156Y-72680719D01*
X171253802Y-72491465D01*
X171344611Y-72284441D01*
X171400107Y-72065293D01*
X171417011Y-71861292D01*
X171418775Y-71840006D01*
X171418775Y-71839993D01*
X171404426Y-71666834D01*
X171400107Y-71614707D01*
X171344611Y-71395559D01*
X171253802Y-71188535D01*
X171214252Y-71128000D01*
X171130157Y-70999283D01*
X171130149Y-70999272D01*
X170977049Y-70832963D01*
X170977048Y-70832962D01*
X170977046Y-70832960D01*
X170798649Y-70694107D01*
X170798647Y-70694106D01*
X170798646Y-70694105D01*
X170798639Y-70694100D01*
X170770836Y-70679055D01*
X170721244Y-70629837D01*
X170706135Y-70561620D01*
X170730306Y-70496064D01*
X170770836Y-70460945D01*
X170798639Y-70445899D01*
X170798642Y-70445896D01*
X170798649Y-70445893D01*
X170977046Y-70307040D01*
X171130156Y-70140719D01*
X171253802Y-69951465D01*
X171344611Y-69744441D01*
X171400107Y-69525293D01*
X171412119Y-69380324D01*
X171418775Y-69300006D01*
X171418775Y-69299993D01*
X171405707Y-69142294D01*
X171400107Y-69074707D01*
X171344611Y-68855559D01*
X171253802Y-68648535D01*
X171252864Y-68647100D01*
X171130157Y-68459283D01*
X171130149Y-68459272D01*
X170977049Y-68292963D01*
X170977048Y-68292962D01*
X170977046Y-68292960D01*
X170798649Y-68154107D01*
X170798647Y-68154106D01*
X170798646Y-68154105D01*
X170798639Y-68154100D01*
X170770836Y-68139055D01*
X170721244Y-68089837D01*
X170706135Y-68021620D01*
X170730306Y-67956064D01*
X170770836Y-67920945D01*
X170798639Y-67905899D01*
X170798642Y-67905896D01*
X170798649Y-67905893D01*
X170977046Y-67767040D01*
X171121676Y-67609931D01*
X171130149Y-67600727D01*
X171130150Y-67600725D01*
X171130156Y-67600719D01*
X171253802Y-67411465D01*
X171344611Y-67204441D01*
X171400107Y-66985293D01*
X171411879Y-66843229D01*
X171418775Y-66760006D01*
X171418775Y-66759993D01*
X171405707Y-66602294D01*
X171400107Y-66534707D01*
X171344611Y-66315559D01*
X171253802Y-66108535D01*
X171214252Y-66048000D01*
X171130157Y-65919283D01*
X171130149Y-65919272D01*
X170977049Y-65752963D01*
X170977048Y-65752962D01*
X170977046Y-65752960D01*
X170798649Y-65614107D01*
X170798647Y-65614106D01*
X170798646Y-65614105D01*
X170798639Y-65614100D01*
X170770836Y-65599055D01*
X170721244Y-65549837D01*
X170706135Y-65481620D01*
X170730306Y-65416064D01*
X170770836Y-65380945D01*
X170798639Y-65365899D01*
X170798642Y-65365896D01*
X170798649Y-65365893D01*
X170977046Y-65227040D01*
X171121676Y-65069931D01*
X171130149Y-65060727D01*
X171130150Y-65060725D01*
X171130156Y-65060719D01*
X171253802Y-64871465D01*
X171344611Y-64664441D01*
X171400107Y-64445293D01*
X171414632Y-64270000D01*
X171418775Y-64220006D01*
X171418775Y-64219993D01*
X171400107Y-63994710D01*
X171400107Y-63994707D01*
X171344611Y-63775559D01*
X171253802Y-63568535D01*
X171130156Y-63379281D01*
X171130153Y-63379278D01*
X171130149Y-63379272D01*
X170977049Y-63212963D01*
X170977048Y-63212962D01*
X170977046Y-63212960D01*
X170798649Y-63074107D01*
X170798647Y-63074106D01*
X170798646Y-63074105D01*
X170798639Y-63074100D01*
X170770836Y-63059055D01*
X170721244Y-63009837D01*
X170706135Y-62941620D01*
X170730306Y-62876064D01*
X170770836Y-62840945D01*
X170798639Y-62825899D01*
X170798642Y-62825896D01*
X170798649Y-62825893D01*
X170977046Y-62687040D01*
X171121676Y-62529931D01*
X171130149Y-62520727D01*
X171130150Y-62520725D01*
X171130156Y-62520719D01*
X171253802Y-62331465D01*
X171344611Y-62124441D01*
X171400107Y-61905293D01*
X171414632Y-61730000D01*
X171418775Y-61680006D01*
X171418775Y-61679993D01*
X171400107Y-61454710D01*
X171400107Y-61454707D01*
X171344611Y-61235559D01*
X171253802Y-61028535D01*
X171130156Y-60839281D01*
X171130153Y-60839278D01*
X171130149Y-60839272D01*
X170977049Y-60672963D01*
X170977048Y-60672962D01*
X170977046Y-60672960D01*
X170798649Y-60534107D01*
X170772390Y-60519896D01*
X170599832Y-60426512D01*
X170599827Y-60426510D01*
X170386017Y-60353109D01*
X170218778Y-60325202D01*
X170163033Y-60315900D01*
X169936967Y-60315900D01*
X169892370Y-60323341D01*
X169713982Y-60353109D01*
X169500172Y-60426510D01*
X169500167Y-60426512D01*
X169301352Y-60534106D01*
X169122955Y-60672959D01*
X169122950Y-60672963D01*
X168969850Y-60839272D01*
X168969842Y-60839283D01*
X168846198Y-61028533D01*
X168755388Y-61235560D01*
X168699892Y-61454710D01*
X168681225Y-61679993D01*
X168681225Y-61680006D01*
X168699892Y-61905289D01*
X168755388Y-62124439D01*
X168846198Y-62331466D01*
X168969842Y-62520716D01*
X168969850Y-62520727D01*
X169122950Y-62687036D01*
X169122954Y-62687040D01*
X169301351Y-62825893D01*
X169329165Y-62840945D01*
X169378755Y-62890165D01*
X169393863Y-62958382D01*
X169369692Y-63023937D01*
X169329165Y-63059055D01*
X169301352Y-63074106D01*
X169122955Y-63212959D01*
X169122950Y-63212963D01*
X168969850Y-63379272D01*
X168969842Y-63379283D01*
X168846198Y-63568533D01*
X168755388Y-63775560D01*
X168699892Y-63994710D01*
X168681225Y-64219993D01*
X168681225Y-64220006D01*
X168699892Y-64445289D01*
X168755388Y-64664439D01*
X168846198Y-64871466D01*
X168969842Y-65060716D01*
X168969850Y-65060727D01*
X169085585Y-65186447D01*
X169122954Y-65227040D01*
X169301351Y-65365893D01*
X169329165Y-65380945D01*
X169378755Y-65430165D01*
X169393863Y-65498382D01*
X169369692Y-65563937D01*
X169329165Y-65599055D01*
X169301352Y-65614106D01*
X169122955Y-65752959D01*
X169122950Y-65752963D01*
X168969850Y-65919272D01*
X168969842Y-65919283D01*
X168846198Y-66108533D01*
X168755388Y-66315560D01*
X168699892Y-66534710D01*
X168681225Y-66759993D01*
X168681225Y-66760006D01*
X168699892Y-66985291D01*
X168723307Y-67077756D01*
X168720681Y-67147576D01*
X168690782Y-67195876D01*
X145089747Y-90796910D01*
X145028424Y-90830395D01*
X144958732Y-90825411D01*
X144902799Y-90783539D01*
X144897072Y-90775201D01*
X144879815Y-90747737D01*
X144752262Y-90620184D01*
X144599523Y-90524211D01*
X144429254Y-90464631D01*
X144429249Y-90464630D01*
X144250004Y-90444435D01*
X144249996Y-90444435D01*
X144070750Y-90464630D01*
X144070745Y-90464631D01*
X143900477Y-90524211D01*
X143814724Y-90578094D01*
X143748752Y-90597100D01*
X128001248Y-90597100D01*
X127935276Y-90578094D01*
X127849522Y-90524211D01*
X127679254Y-90464631D01*
X127679249Y-90464630D01*
X127500004Y-90444435D01*
X127499996Y-90444435D01*
X127320750Y-90464630D01*
X127320745Y-90464631D01*
X127150476Y-90524211D01*
X126997737Y-90620184D01*
X126870184Y-90747737D01*
X126774211Y-90900476D01*
X126714631Y-91070745D01*
X126714630Y-91070750D01*
X126694435Y-91249996D01*
X126694435Y-91250003D01*
X126714630Y-91429249D01*
X126714631Y-91429254D01*
X126774211Y-91599523D01*
X126837425Y-91700127D01*
X126870184Y-91752262D01*
X126997738Y-91879816D01*
X127150478Y-91975789D01*
X127236556Y-92005909D01*
X127320745Y-92035368D01*
X127320750Y-92035369D01*
X127499996Y-92055565D01*
X127500000Y-92055565D01*
X127500004Y-92055565D01*
X127679249Y-92035369D01*
X127679252Y-92035368D01*
X127679255Y-92035368D01*
X127849522Y-91975789D01*
X127935276Y-91921905D01*
X128001248Y-91902900D01*
X143684396Y-91902900D01*
X143751435Y-91922585D01*
X143797190Y-91975389D01*
X143807134Y-92044547D01*
X143778109Y-92108103D01*
X143772077Y-92114581D01*
X126092858Y-109793800D01*
X126092854Y-109793805D01*
X126041010Y-109871399D01*
X126041008Y-109871402D01*
X126021412Y-109900727D01*
X126021406Y-109900738D01*
X125972191Y-110019555D01*
X125972189Y-110019561D01*
X125947100Y-110145692D01*
X125947100Y-117078197D01*
X125927415Y-117145236D01*
X125910781Y-117165878D01*
X123665878Y-119410781D01*
X123604555Y-119444266D01*
X123578197Y-119447100D01*
X123277600Y-119447100D01*
X123210561Y-119427415D01*
X123164806Y-119374611D01*
X123153600Y-119323100D01*
X123153600Y-119080000D01*
X122232251Y-119080000D01*
X122263381Y-119026081D01*
X122298000Y-118896880D01*
X122298000Y-118763120D01*
X122263381Y-118633919D01*
X122232251Y-118580000D01*
X123153600Y-118580000D01*
X123153600Y-118123148D01*
X123173285Y-118056109D01*
X123208713Y-118020043D01*
X123216500Y-118014841D01*
X123711841Y-117519499D01*
X123783292Y-117412564D01*
X123832509Y-117293744D01*
X123835126Y-117280586D01*
X123853854Y-117186435D01*
X123857600Y-117167606D01*
X123857600Y-112640392D01*
X123832510Y-112514261D01*
X123832509Y-112514260D01*
X123832509Y-112514256D01*
X123791959Y-112416360D01*
X123783293Y-112395437D01*
X123711841Y-112288501D01*
X123711839Y-112288498D01*
X123711838Y-112288497D01*
X123416205Y-111992863D01*
X123416204Y-111992862D01*
X123416200Y-111992859D01*
X123309264Y-111921408D01*
X123309261Y-111921406D01*
X123309260Y-111921406D01*
X123190447Y-111872192D01*
X123190445Y-111872191D01*
X123190444Y-111872191D01*
X123190442Y-111872190D01*
X123190440Y-111872190D01*
X123186271Y-111871361D01*
X123156607Y-111865460D01*
X123094696Y-111833074D01*
X123060123Y-111772358D01*
X123063864Y-111702588D01*
X123067245Y-111694032D01*
X123084610Y-111654444D01*
X123086965Y-111645144D01*
X123140107Y-111435293D01*
X123148052Y-111339414D01*
X123158775Y-111210006D01*
X123158775Y-111209993D01*
X123140107Y-110984710D01*
X123140107Y-110984707D01*
X123084611Y-110765559D01*
X122993802Y-110558535D01*
X122976336Y-110531802D01*
X122870157Y-110369283D01*
X122870149Y-110369272D01*
X122717049Y-110202963D01*
X122717048Y-110202962D01*
X122717046Y-110202960D01*
X122538649Y-110064107D01*
X122538647Y-110064106D01*
X122538646Y-110064105D01*
X122538639Y-110064100D01*
X122510836Y-110049055D01*
X122461244Y-109999837D01*
X122446135Y-109931620D01*
X122470306Y-109866064D01*
X122510836Y-109830945D01*
X122538639Y-109815899D01*
X122538642Y-109815896D01*
X122538649Y-109815893D01*
X122717046Y-109677040D01*
X122870156Y-109510719D01*
X122993802Y-109321465D01*
X123084611Y-109114441D01*
X123140107Y-108895293D01*
X123150938Y-108764586D01*
X123158775Y-108670006D01*
X123158775Y-108669993D01*
X123140107Y-108444710D01*
X123140107Y-108444707D01*
X123084611Y-108225559D01*
X122993802Y-108018535D01*
X122956542Y-107961505D01*
X122870157Y-107829283D01*
X122870149Y-107829272D01*
X122717049Y-107662963D01*
X122717048Y-107662962D01*
X122717046Y-107662960D01*
X122538649Y-107524107D01*
X122538647Y-107524106D01*
X122538646Y-107524105D01*
X122538639Y-107524100D01*
X122510836Y-107509055D01*
X122461244Y-107459837D01*
X122446135Y-107391620D01*
X122470306Y-107326064D01*
X122510836Y-107290945D01*
X122538639Y-107275899D01*
X122538642Y-107275896D01*
X122538649Y-107275893D01*
X122717046Y-107137040D01*
X122870156Y-106970719D01*
X122993802Y-106781465D01*
X123084611Y-106574441D01*
X123140107Y-106355293D01*
X123155126Y-106174035D01*
X123158775Y-106130004D01*
X123158775Y-106129993D01*
X123140107Y-105904710D01*
X123140107Y-105904707D01*
X123084611Y-105685559D01*
X122993802Y-105478535D01*
X122984086Y-105463664D01*
X122870157Y-105289283D01*
X122870149Y-105289272D01*
X122717049Y-105122963D01*
X122717048Y-105122962D01*
X122717046Y-105122960D01*
X122538649Y-104984107D01*
X122538647Y-104984106D01*
X122538646Y-104984105D01*
X122538639Y-104984100D01*
X122510836Y-104969055D01*
X122461244Y-104919837D01*
X122446135Y-104851620D01*
X122470306Y-104786064D01*
X122510836Y-104750945D01*
X122538639Y-104735899D01*
X122538642Y-104735896D01*
X122538649Y-104735893D01*
X122717046Y-104597040D01*
X122870156Y-104430719D01*
X122993802Y-104241465D01*
X123084611Y-104034441D01*
X123140107Y-103815293D01*
X123152566Y-103664937D01*
X123158775Y-103590006D01*
X123158775Y-103589993D01*
X123145500Y-103429788D01*
X123140107Y-103364707D01*
X123084611Y-103145559D01*
X122993802Y-102938535D01*
X122870156Y-102749281D01*
X122870153Y-102749278D01*
X122870149Y-102749272D01*
X122717049Y-102582963D01*
X122717048Y-102582962D01*
X122717046Y-102582960D01*
X122538649Y-102444107D01*
X122512390Y-102429896D01*
X122339832Y-102336512D01*
X122339827Y-102336510D01*
X122126017Y-102263109D01*
X121958778Y-102235202D01*
X121903033Y-102225900D01*
X121676967Y-102225900D01*
X121632370Y-102233341D01*
X121453982Y-102263109D01*
X121357663Y-102296176D01*
X121287864Y-102299326D01*
X121227443Y-102264240D01*
X121195582Y-102202057D01*
X121193400Y-102178895D01*
X121193400Y-99281591D01*
X121213085Y-99214552D01*
X121229719Y-99193910D01*
X123697031Y-96726598D01*
X126184705Y-94238924D01*
X126196878Y-94220707D01*
X126281175Y-94094547D01*
X126347624Y-93934124D01*
X126353944Y-93902352D01*
X126370685Y-93818191D01*
X126381500Y-93763823D01*
X126381500Y-62804777D01*
X126347625Y-62634481D01*
X126347624Y-62634480D01*
X126347624Y-62634476D01*
X126347622Y-62634471D01*
X126281178Y-62474059D01*
X126281171Y-62474046D01*
X126184707Y-62329678D01*
X126164424Y-62309395D01*
X126061923Y-62206894D01*
X125390671Y-61535642D01*
X123347027Y-59491996D01*
X123347026Y-59491995D01*
X123202643Y-59395522D01*
X123042228Y-59329077D01*
X123042218Y-59329074D01*
X122871923Y-59295200D01*
X122871921Y-59295200D01*
X122871920Y-59295200D01*
X117182000Y-59295200D01*
X117114961Y-59275515D01*
X117101468Y-59265490D01*
X117059136Y-59229335D01*
X117059134Y-59229333D01*
X117059132Y-59229332D01*
X116855605Y-59104611D01*
X116855604Y-59104610D01*
X116855600Y-59104608D01*
X116635068Y-59013261D01*
X116402962Y-58957538D01*
X116402963Y-58957538D01*
X116165000Y-58938811D01*
X115927036Y-58957538D01*
X115694931Y-59013261D01*
X115474399Y-59104608D01*
X115270867Y-59229332D01*
X115089357Y-59384357D01*
X114934332Y-59565867D01*
X114809608Y-59769399D01*
X114718261Y-59989931D01*
X114662538Y-60222036D01*
X114643811Y-60460000D01*
X114662538Y-60697963D01*
X114718261Y-60930068D01*
X114809608Y-61150600D01*
X114809610Y-61150604D01*
X114809611Y-61150605D01*
X114934332Y-61354132D01*
X115089357Y-61535643D01*
X115174876Y-61608683D01*
X115206520Y-61635710D01*
X115244713Y-61694217D01*
X115245211Y-61764085D01*
X115207857Y-61823131D01*
X115206520Y-61824290D01*
X115089357Y-61924357D01*
X114960667Y-62075032D01*
X114902162Y-62113225D01*
X114866379Y-62118500D01*
X113913178Y-62118500D01*
X113742881Y-62152374D01*
X113742871Y-62152377D01*
X113671452Y-62181960D01*
X113601983Y-62189429D01*
X113539504Y-62158153D01*
X113503852Y-62098064D01*
X113500000Y-62067399D01*
X113500000Y-55621288D01*
X122399500Y-55621288D01*
X122431161Y-55861785D01*
X122493947Y-56096104D01*
X122572646Y-56286100D01*
X122586776Y-56320212D01*
X122708064Y-56530289D01*
X122708066Y-56530292D01*
X122708067Y-56530293D01*
X122855733Y-56722736D01*
X122855739Y-56722743D01*
X123027256Y-56894260D01*
X123027263Y-56894266D01*
X123051343Y-56912743D01*
X123219711Y-57041936D01*
X123429788Y-57163224D01*
X123653900Y-57256054D01*
X123888211Y-57318838D01*
X124068586Y-57342584D01*
X124128711Y-57350500D01*
X124128712Y-57350500D01*
X124371289Y-57350500D01*
X124419388Y-57344167D01*
X124611789Y-57318838D01*
X124846100Y-57256054D01*
X125070212Y-57163224D01*
X125280289Y-57041936D01*
X125472738Y-56894265D01*
X125644265Y-56722738D01*
X125791936Y-56530289D01*
X125913224Y-56320212D01*
X126006054Y-56096100D01*
X126068838Y-55861789D01*
X126100500Y-55621288D01*
X165899500Y-55621288D01*
X165931161Y-55861785D01*
X165993947Y-56096104D01*
X166072646Y-56286100D01*
X166086776Y-56320212D01*
X166208064Y-56530289D01*
X166208066Y-56530292D01*
X166208067Y-56530293D01*
X166355733Y-56722736D01*
X166355739Y-56722743D01*
X166527256Y-56894260D01*
X166527263Y-56894266D01*
X166551343Y-56912743D01*
X166719711Y-57041936D01*
X166929788Y-57163224D01*
X167153900Y-57256054D01*
X167388211Y-57318838D01*
X167568586Y-57342584D01*
X167628711Y-57350500D01*
X167628712Y-57350500D01*
X167871289Y-57350500D01*
X167919388Y-57344167D01*
X168111789Y-57318838D01*
X168346100Y-57256054D01*
X168570212Y-57163224D01*
X168780289Y-57041936D01*
X168972738Y-56894265D01*
X169144265Y-56722738D01*
X169291936Y-56530289D01*
X169413224Y-56320212D01*
X169506054Y-56096100D01*
X169568838Y-55861789D01*
X169600500Y-55621288D01*
X169600500Y-55378712D01*
X169568838Y-55138211D01*
X169506054Y-54903900D01*
X169413224Y-54679788D01*
X169291936Y-54469711D01*
X169144265Y-54277262D01*
X169144260Y-54277256D01*
X168972743Y-54105739D01*
X168972736Y-54105733D01*
X168780293Y-53958067D01*
X168780292Y-53958066D01*
X168780289Y-53958064D01*
X168570212Y-53836776D01*
X168570205Y-53836773D01*
X168346104Y-53743947D01*
X168111785Y-53681161D01*
X167871289Y-53649500D01*
X167871288Y-53649500D01*
X167628712Y-53649500D01*
X167628711Y-53649500D01*
X167388214Y-53681161D01*
X167153895Y-53743947D01*
X166929794Y-53836773D01*
X166929785Y-53836777D01*
X166719706Y-53958067D01*
X166527263Y-54105733D01*
X166527256Y-54105739D01*
X166355739Y-54277256D01*
X166355733Y-54277263D01*
X166208067Y-54469706D01*
X166086777Y-54679785D01*
X166086773Y-54679794D01*
X165993947Y-54903895D01*
X165931161Y-55138214D01*
X165899500Y-55378711D01*
X165899500Y-55621288D01*
X126100500Y-55621288D01*
X126100500Y-55378712D01*
X126068838Y-55138211D01*
X126006054Y-54903900D01*
X125913224Y-54679788D01*
X125791936Y-54469711D01*
X125644265Y-54277262D01*
X125644260Y-54277256D01*
X125472743Y-54105739D01*
X125472736Y-54105733D01*
X125280293Y-53958067D01*
X125280292Y-53958066D01*
X125280289Y-53958064D01*
X125070212Y-53836776D01*
X125070205Y-53836773D01*
X124846104Y-53743947D01*
X124611785Y-53681161D01*
X124371289Y-53649500D01*
X124371288Y-53649500D01*
X124128712Y-53649500D01*
X124128711Y-53649500D01*
X123888214Y-53681161D01*
X123653895Y-53743947D01*
X123429794Y-53836773D01*
X123429785Y-53836777D01*
X123219706Y-53958067D01*
X123027263Y-54105733D01*
X123027256Y-54105739D01*
X122855739Y-54277256D01*
X122855733Y-54277263D01*
X122708067Y-54469706D01*
X122586777Y-54679785D01*
X122586773Y-54679794D01*
X122493947Y-54903895D01*
X122431161Y-55138214D01*
X122399500Y-55378711D01*
X122399500Y-55621288D01*
X113500000Y-55621288D01*
X113500000Y-51124500D01*
X113519685Y-51057461D01*
X113572489Y-51011706D01*
X113624000Y-51000500D01*
X167684108Y-51000500D01*
X167747294Y-51000500D01*
X167752702Y-51000617D01*
G37*
%TD.AperFunction*%
%TA.AperFunction,Conductor*%
G36*
X168847069Y-95118585D02*
G01*
X168883839Y-95155078D01*
X168969846Y-95286722D01*
X169040268Y-95363220D01*
X169122954Y-95453040D01*
X169301351Y-95591893D01*
X169329165Y-95606945D01*
X169378755Y-95656165D01*
X169393863Y-95724382D01*
X169369692Y-95789937D01*
X169329165Y-95825055D01*
X169301352Y-95840106D01*
X169122955Y-95978959D01*
X169122950Y-95978963D01*
X168969850Y-96145272D01*
X168969842Y-96145283D01*
X168846198Y-96334533D01*
X168755388Y-96541560D01*
X168699892Y-96760710D01*
X168681225Y-96985993D01*
X168681225Y-96986006D01*
X168699892Y-97211289D01*
X168755388Y-97430439D01*
X168846198Y-97637466D01*
X168969842Y-97826716D01*
X168969850Y-97826727D01*
X169120183Y-97990030D01*
X169122954Y-97993040D01*
X169301351Y-98131893D01*
X169329165Y-98146945D01*
X169378755Y-98196165D01*
X169393863Y-98264382D01*
X169369692Y-98329937D01*
X169329165Y-98365055D01*
X169301352Y-98380106D01*
X169122955Y-98518959D01*
X169122950Y-98518963D01*
X168969850Y-98685272D01*
X168969842Y-98685283D01*
X168846198Y-98874533D01*
X168755388Y-99081560D01*
X168699892Y-99300710D01*
X168681225Y-99525993D01*
X168681225Y-99526006D01*
X168699892Y-99751289D01*
X168755388Y-99970439D01*
X168846198Y-100177466D01*
X168946351Y-100330760D01*
X168969844Y-100366719D01*
X169107245Y-100515976D01*
X169138167Y-100578629D01*
X169130307Y-100648055D01*
X169086160Y-100702211D01*
X169059349Y-100716140D01*
X168944311Y-100759046D01*
X168944306Y-100759049D01*
X168829212Y-100845209D01*
X168829209Y-100845212D01*
X168743049Y-100960306D01*
X168743045Y-100960313D01*
X168692803Y-101095020D01*
X168692801Y-101095027D01*
X168686400Y-101154555D01*
X168686400Y-101816000D01*
X169607749Y-101816000D01*
X169576619Y-101869919D01*
X169542000Y-101999120D01*
X169542000Y-102132880D01*
X169576619Y-102262081D01*
X169607749Y-102316000D01*
X168686400Y-102316000D01*
X168686400Y-102977444D01*
X168692801Y-103036972D01*
X168692803Y-103036979D01*
X168743045Y-103171686D01*
X168743049Y-103171693D01*
X168829209Y-103286787D01*
X168829212Y-103286790D01*
X168944306Y-103372950D01*
X168944313Y-103372954D01*
X169059348Y-103415859D01*
X169115282Y-103457730D01*
X169139699Y-103523194D01*
X169124848Y-103591467D01*
X169107245Y-103616024D01*
X168969845Y-103765279D01*
X168969842Y-103765283D01*
X168846198Y-103954533D01*
X168755388Y-104161560D01*
X168699892Y-104380710D01*
X168681225Y-104605993D01*
X168681225Y-104606006D01*
X168699892Y-104831289D01*
X168755388Y-105050439D01*
X168846198Y-105257466D01*
X168969842Y-105446716D01*
X168969850Y-105446727D01*
X169122950Y-105613036D01*
X169122954Y-105613040D01*
X169301351Y-105751893D01*
X169329165Y-105766945D01*
X169378755Y-105816165D01*
X169393863Y-105884382D01*
X169369692Y-105949937D01*
X169329165Y-105985055D01*
X169301352Y-106000106D01*
X169122955Y-106138959D01*
X169122950Y-106138963D01*
X168969850Y-106305272D01*
X168969842Y-106305283D01*
X168846198Y-106494533D01*
X168755388Y-106701560D01*
X168699892Y-106920710D01*
X168681225Y-107145993D01*
X168681225Y-107146006D01*
X168699892Y-107371289D01*
X168755388Y-107590439D01*
X168846198Y-107797466D01*
X168969842Y-107986716D01*
X168969850Y-107986727D01*
X169100454Y-108128599D01*
X169122954Y-108153040D01*
X169301351Y-108291893D01*
X169329165Y-108306945D01*
X169378755Y-108356165D01*
X169393863Y-108424382D01*
X169369692Y-108489937D01*
X169329165Y-108525055D01*
X169301352Y-108540106D01*
X169122955Y-108678959D01*
X169122950Y-108678963D01*
X168969850Y-108845272D01*
X168969842Y-108845283D01*
X168846198Y-109034533D01*
X168755388Y-109241560D01*
X168699892Y-109460710D01*
X168681225Y-109685993D01*
X168681225Y-109686006D01*
X168699892Y-109911289D01*
X168755388Y-110130439D01*
X168846198Y-110337466D01*
X168969842Y-110526716D01*
X168969850Y-110526727D01*
X169102701Y-110671040D01*
X169122954Y-110693040D01*
X169301351Y-110831893D01*
X169329165Y-110846945D01*
X169378755Y-110896165D01*
X169393863Y-110964382D01*
X169369692Y-111029937D01*
X169329165Y-111065055D01*
X169301352Y-111080106D01*
X169122955Y-111218959D01*
X169122950Y-111218963D01*
X168969846Y-111385277D01*
X168883839Y-111516922D01*
X168830692Y-111562278D01*
X168780030Y-111573100D01*
X168209693Y-111573100D01*
X168083561Y-111598189D01*
X168083555Y-111598191D01*
X167964737Y-111647407D01*
X167857797Y-111718861D01*
X167857796Y-111718862D01*
X166992863Y-112583794D01*
X166992862Y-112583795D01*
X166921641Y-112690388D01*
X166921606Y-112690440D01*
X166921406Y-112690738D01*
X166921405Y-112690739D01*
X166872192Y-112809551D01*
X166872189Y-112809561D01*
X166847100Y-112935692D01*
X166847100Y-115564307D01*
X166871381Y-115686370D01*
X166871384Y-115686383D01*
X166872191Y-115690445D01*
X166921405Y-115809260D01*
X166992862Y-115916204D01*
X167673795Y-116597137D01*
X167673798Y-116597139D01*
X167673800Y-116597141D01*
X167746270Y-116645563D01*
X167768151Y-116660183D01*
X167768153Y-116660185D01*
X167780727Y-116668587D01*
X167780735Y-116668591D01*
X167780736Y-116668592D01*
X167899556Y-116717809D01*
X167899560Y-116717809D01*
X167899561Y-116717810D01*
X168025692Y-116742900D01*
X168025695Y-116742900D01*
X168626122Y-116742900D01*
X168693161Y-116762585D01*
X168738916Y-116815389D01*
X168748860Y-116884547D01*
X168746328Y-116897340D01*
X168699892Y-117080710D01*
X168681225Y-117305993D01*
X168681225Y-117306006D01*
X168699892Y-117531289D01*
X168755388Y-117750439D01*
X168846198Y-117957466D01*
X168969842Y-118146716D01*
X168969850Y-118146727D01*
X169122949Y-118313035D01*
X169122954Y-118313040D01*
X169301351Y-118451893D01*
X169500169Y-118559488D01*
X169500172Y-118559489D01*
X169713982Y-118632890D01*
X169713984Y-118632890D01*
X169713986Y-118632891D01*
X169936967Y-118670100D01*
X169936968Y-118670100D01*
X170163032Y-118670100D01*
X170163033Y-118670100D01*
X170386014Y-118632891D01*
X170525138Y-118585129D01*
X170594935Y-118581980D01*
X170655357Y-118617066D01*
X170687217Y-118679248D01*
X170689400Y-118702411D01*
X170689400Y-119973588D01*
X170669715Y-120040627D01*
X170616911Y-120086382D01*
X170547753Y-120096326D01*
X170525138Y-120090869D01*
X170386019Y-120043109D01*
X170179794Y-120008697D01*
X170163033Y-120005900D01*
X169936967Y-120005900D01*
X169920206Y-120008697D01*
X169713982Y-120043109D01*
X169500172Y-120116510D01*
X169500167Y-120116512D01*
X169301352Y-120224106D01*
X169122955Y-120362959D01*
X169122950Y-120362963D01*
X168969850Y-120529272D01*
X168969842Y-120529283D01*
X168846198Y-120718533D01*
X168755388Y-120925560D01*
X168699892Y-121144710D01*
X168681225Y-121369993D01*
X168681225Y-121370006D01*
X168699892Y-121595289D01*
X168755388Y-121814439D01*
X168846198Y-122021466D01*
X168969842Y-122210716D01*
X168969850Y-122210727D01*
X169111129Y-122364195D01*
X169122954Y-122377040D01*
X169301351Y-122515893D01*
X169329165Y-122530945D01*
X169378755Y-122580165D01*
X169393863Y-122648382D01*
X169369692Y-122713937D01*
X169329165Y-122749054D01*
X169320866Y-122753545D01*
X169301352Y-122764106D01*
X169122955Y-122902958D01*
X169031045Y-123002798D01*
X168971157Y-123038788D01*
X168901319Y-123036687D01*
X168852135Y-123006495D01*
X164233005Y-118387363D01*
X164233004Y-118387362D01*
X164218545Y-118377701D01*
X164179532Y-118351633D01*
X164126060Y-118315905D01*
X164007245Y-118266691D01*
X164007240Y-118266690D01*
X164006732Y-118266589D01*
X164006732Y-118266588D01*
X164006727Y-118266588D01*
X163881107Y-118241600D01*
X163881105Y-118241600D01*
X160094707Y-118241600D01*
X160028735Y-118222594D01*
X159942822Y-118168611D01*
X159772554Y-118109031D01*
X159772549Y-118109030D01*
X159593304Y-118088835D01*
X159593296Y-118088835D01*
X159414050Y-118109030D01*
X159414045Y-118109031D01*
X159243776Y-118168611D01*
X159091037Y-118264584D01*
X158963484Y-118392137D01*
X158867511Y-118544876D01*
X158807931Y-118715145D01*
X158807930Y-118715150D01*
X158787735Y-118894396D01*
X158787735Y-118894403D01*
X158807930Y-119073649D01*
X158807931Y-119073654D01*
X158867511Y-119243923D01*
X158917262Y-119323100D01*
X158963484Y-119396662D01*
X159091038Y-119524216D01*
X159243778Y-119620189D01*
X159414045Y-119679768D01*
X159414050Y-119679769D01*
X159593296Y-119699965D01*
X159593300Y-119699965D01*
X159593304Y-119699965D01*
X159772549Y-119679769D01*
X159772552Y-119679768D01*
X159772555Y-119679768D01*
X159942822Y-119620189D01*
X160028417Y-119566405D01*
X160094389Y-119547400D01*
X163494997Y-119547400D01*
X163562036Y-119567085D01*
X163582678Y-119583719D01*
X168416094Y-124417135D01*
X168416097Y-124417137D01*
X168416100Y-124417140D01*
X168434613Y-124429510D01*
X168443871Y-124435696D01*
X168523029Y-124488588D01*
X168523035Y-124488591D01*
X168523036Y-124488592D01*
X168641856Y-124537809D01*
X168641860Y-124537809D01*
X168641861Y-124537810D01*
X168767992Y-124562900D01*
X168767995Y-124562900D01*
X168780030Y-124562900D01*
X168847069Y-124582585D01*
X168883838Y-124619077D01*
X168914885Y-124666598D01*
X168969846Y-124750722D01*
X169122950Y-124917036D01*
X169122954Y-124917040D01*
X169301351Y-125055893D01*
X169329165Y-125070945D01*
X169378755Y-125120165D01*
X169393863Y-125188382D01*
X169369692Y-125253937D01*
X169329165Y-125289055D01*
X169301352Y-125304106D01*
X169122955Y-125442959D01*
X169122950Y-125442963D01*
X168969850Y-125609272D01*
X168969842Y-125609283D01*
X168846198Y-125798533D01*
X168755388Y-126005560D01*
X168699892Y-126224710D01*
X168681225Y-126449993D01*
X168681225Y-126450006D01*
X168699892Y-126675289D01*
X168755388Y-126894439D01*
X168846198Y-127101466D01*
X168969842Y-127290716D01*
X168969850Y-127290727D01*
X169122950Y-127457036D01*
X169122954Y-127457040D01*
X169301351Y-127595893D01*
X169328897Y-127610800D01*
X169329165Y-127610945D01*
X169378755Y-127660165D01*
X169393863Y-127728382D01*
X169369692Y-127793937D01*
X169329165Y-127829055D01*
X169301352Y-127844106D01*
X169122955Y-127982959D01*
X169122950Y-127982963D01*
X168969846Y-128149277D01*
X168896394Y-128261705D01*
X168843247Y-128307061D01*
X168774016Y-128316485D01*
X168710680Y-128286983D01*
X168704904Y-128281564D01*
X166821291Y-126397951D01*
X166787806Y-126336628D01*
X166785751Y-126324147D01*
X166785368Y-126320745D01*
X166725789Y-126150478D01*
X166629816Y-125997738D01*
X166502262Y-125870184D01*
X166432916Y-125826611D01*
X166349523Y-125774211D01*
X166179254Y-125714631D01*
X166179249Y-125714630D01*
X166000004Y-125694435D01*
X165999996Y-125694435D01*
X165820750Y-125714630D01*
X165820745Y-125714631D01*
X165650476Y-125774211D01*
X165497737Y-125870184D01*
X165370184Y-125997737D01*
X165274211Y-126150476D01*
X165214631Y-126320745D01*
X165214630Y-126320750D01*
X165194435Y-126499996D01*
X165194435Y-126500003D01*
X165214630Y-126679249D01*
X165214631Y-126679254D01*
X165274211Y-126849523D01*
X165337125Y-126949649D01*
X165370184Y-127002262D01*
X165497738Y-127129816D01*
X165650478Y-127225789D01*
X165820745Y-127285368D01*
X165824147Y-127285751D01*
X165826196Y-127286611D01*
X165827533Y-127286917D01*
X165827479Y-127287151D01*
X165888562Y-127312814D01*
X165897951Y-127321291D01*
X167988518Y-129411858D01*
X167988528Y-129411869D01*
X167992858Y-129416199D01*
X167992859Y-129416200D01*
X168083800Y-129507141D01*
X168169354Y-129564305D01*
X168190736Y-129578592D01*
X168309556Y-129627809D01*
X168397401Y-129645282D01*
X168435690Y-129652898D01*
X168435694Y-129652899D01*
X168435695Y-129652899D01*
X168564304Y-129652899D01*
X168564305Y-129652899D01*
X168602599Y-129645281D01*
X168626789Y-129642900D01*
X168780030Y-129642900D01*
X168847069Y-129662585D01*
X168883838Y-129699077D01*
X168914885Y-129746598D01*
X168969846Y-129830722D01*
X169122950Y-129997036D01*
X169122954Y-129997040D01*
X169301351Y-130135893D01*
X169322642Y-130147415D01*
X169329165Y-130150945D01*
X169378755Y-130200165D01*
X169393863Y-130268382D01*
X169369692Y-130333937D01*
X169329165Y-130369055D01*
X169301352Y-130384106D01*
X169122955Y-130522959D01*
X169122950Y-130522963D01*
X168969850Y-130689272D01*
X168969842Y-130689283D01*
X168846198Y-130878533D01*
X168755388Y-131085560D01*
X168699892Y-131304710D01*
X168681225Y-131529993D01*
X168681225Y-131530006D01*
X168699892Y-131755289D01*
X168755388Y-131974439D01*
X168846198Y-132181466D01*
X168969842Y-132370716D01*
X168969850Y-132370727D01*
X169122950Y-132537036D01*
X169122954Y-132537040D01*
X169301351Y-132675893D01*
X169322642Y-132687415D01*
X169329165Y-132690945D01*
X169378755Y-132740165D01*
X169393863Y-132808382D01*
X169369692Y-132873937D01*
X169329165Y-132909055D01*
X169301352Y-132924106D01*
X169122955Y-133062959D01*
X169122950Y-133062963D01*
X168969846Y-133229277D01*
X168883839Y-133360922D01*
X168830692Y-133406278D01*
X168780030Y-133417100D01*
X160391803Y-133417100D01*
X160324764Y-133397415D01*
X160304122Y-133380781D01*
X158068619Y-131145278D01*
X158035134Y-131083955D01*
X158032300Y-131057597D01*
X158032300Y-114433992D01*
X158007210Y-114307861D01*
X158007209Y-114307860D01*
X158007209Y-114307856D01*
X157957992Y-114189036D01*
X157947969Y-114174035D01*
X157945738Y-114170695D01*
X157945738Y-114170694D01*
X157886544Y-114082105D01*
X157886538Y-114082097D01*
X152749991Y-108945551D01*
X152716506Y-108884228D01*
X152714451Y-108871747D01*
X152714068Y-108868345D01*
X152654489Y-108698078D01*
X152558516Y-108545338D01*
X152539590Y-108526412D01*
X152506105Y-108465089D01*
X152511089Y-108395397D01*
X152539590Y-108351050D01*
X165755421Y-95135219D01*
X165816744Y-95101734D01*
X165843102Y-95098900D01*
X168780030Y-95098900D01*
X168847069Y-95118585D01*
G37*
%TD.AperFunction*%
%TA.AperFunction,Conductor*%
G36*
X120369439Y-118180285D02*
G01*
X120415194Y-118233089D01*
X120426400Y-118284600D01*
X120426400Y-118580000D01*
X121347749Y-118580000D01*
X121316619Y-118633919D01*
X121282000Y-118763120D01*
X121282000Y-118896880D01*
X121316619Y-119026081D01*
X121347749Y-119080000D01*
X120426400Y-119080000D01*
X120426400Y-119323100D01*
X120406715Y-119390139D01*
X120353911Y-119435894D01*
X120302400Y-119447100D01*
X117749793Y-119447100D01*
X117623661Y-119472189D01*
X117623655Y-119472191D01*
X117504837Y-119521407D01*
X117397897Y-119592861D01*
X117397896Y-119592862D01*
X114640572Y-122350185D01*
X114579249Y-122383670D01*
X114509557Y-122378686D01*
X114480005Y-122362822D01*
X114476929Y-122360587D01*
X114476928Y-122360586D01*
X114336788Y-122258768D01*
X114182445Y-122180127D01*
X114017701Y-122126598D01*
X114017699Y-122126597D01*
X114017698Y-122126597D01*
X113886271Y-122105781D01*
X113846611Y-122099500D01*
X112873389Y-122099500D01*
X112833728Y-122105781D01*
X112702302Y-122126597D01*
X112537552Y-122180128D01*
X112383212Y-122258767D01*
X112349785Y-122283054D01*
X112283978Y-122306533D01*
X112215924Y-122290707D01*
X112167230Y-122240601D01*
X112152900Y-122182735D01*
X112152900Y-121855334D01*
X112172585Y-121788295D01*
X112189210Y-121767662D01*
X112301246Y-121655626D01*
X112362564Y-121622144D01*
X112432256Y-121627128D01*
X112445212Y-121632822D01*
X112537555Y-121679873D01*
X112702299Y-121733402D01*
X112873389Y-121760500D01*
X112873390Y-121760500D01*
X113846610Y-121760500D01*
X113846611Y-121760500D01*
X114017701Y-121733402D01*
X114182445Y-121679873D01*
X114336788Y-121601232D01*
X114476928Y-121499414D01*
X114599414Y-121376928D01*
X114608797Y-121364013D01*
X114664126Y-121321349D01*
X114709114Y-121312900D01*
X114778407Y-121312900D01*
X114891121Y-121290479D01*
X114904544Y-121287809D01*
X115023364Y-121238592D01*
X115044800Y-121224269D01*
X115130300Y-121167141D01*
X118100521Y-118196918D01*
X118161844Y-118163434D01*
X118188202Y-118160600D01*
X120302400Y-118160600D01*
X120369439Y-118180285D01*
G37*
%TD.AperFunction*%
%TA.AperFunction,Conductor*%
G36*
X121983039Y-118180285D02*
G01*
X122028794Y-118233089D01*
X122040000Y-118284600D01*
X122040000Y-118387748D01*
X121986081Y-118356619D01*
X121856880Y-118322000D01*
X121723120Y-118322000D01*
X121593919Y-118356619D01*
X121540000Y-118387748D01*
X121540000Y-118284600D01*
X121559685Y-118217561D01*
X121612489Y-118171806D01*
X121664000Y-118160600D01*
X121916000Y-118160600D01*
X121983039Y-118180285D01*
G37*
%TD.AperFunction*%
%TA.AperFunction,Conductor*%
G36*
X120760034Y-114651185D02*
G01*
X120784222Y-114671514D01*
X120817019Y-114707141D01*
X120847245Y-114739975D01*
X120878167Y-114802630D01*
X120870307Y-114872056D01*
X120826160Y-114926211D01*
X120799349Y-114940140D01*
X120684311Y-114983046D01*
X120684306Y-114983049D01*
X120569212Y-115069209D01*
X120569209Y-115069212D01*
X120483049Y-115184306D01*
X120483045Y-115184313D01*
X120432803Y-115319020D01*
X120432801Y-115319027D01*
X120426400Y-115378555D01*
X120426400Y-116040000D01*
X121347749Y-116040000D01*
X121316619Y-116093919D01*
X121282000Y-116223120D01*
X121282000Y-116356880D01*
X121316619Y-116486081D01*
X121347749Y-116540000D01*
X120426400Y-116540000D01*
X120426400Y-116730800D01*
X120406715Y-116797839D01*
X120353911Y-116843594D01*
X120302400Y-116854800D01*
X118309691Y-116854800D01*
X118242652Y-116835115D01*
X118196897Y-116782311D01*
X118186953Y-116713153D01*
X118215978Y-116649597D01*
X118222010Y-116643119D01*
X120197310Y-114667819D01*
X120258633Y-114634334D01*
X120284991Y-114631500D01*
X120692995Y-114631500D01*
X120760034Y-114651185D01*
G37*
%TD.AperFunction*%
%TA.AperFunction,Conductor*%
G36*
X121593919Y-116763381D02*
G01*
X121723120Y-116798000D01*
X121856880Y-116798000D01*
X121986081Y-116763381D01*
X122039486Y-116732547D01*
X122020315Y-116797839D01*
X121967511Y-116843594D01*
X121916000Y-116854800D01*
X121664000Y-116854800D01*
X121596961Y-116835115D01*
X121551206Y-116782311D01*
X121540361Y-116732459D01*
X121593919Y-116763381D01*
G37*
%TD.AperFunction*%
%TA.AperFunction,Conductor*%
G36*
X166016434Y-71819420D02*
G01*
X166072367Y-71861292D01*
X166096784Y-71926756D01*
X166097100Y-71935602D01*
X166097100Y-80178197D01*
X166077415Y-80245236D01*
X166060781Y-80265878D01*
X145742857Y-100583802D01*
X145369077Y-100957581D01*
X145307754Y-100991066D01*
X145238062Y-100986082D01*
X145182129Y-100944210D01*
X145158176Y-100883783D01*
X145146669Y-100781649D01*
X145146668Y-100781645D01*
X145118873Y-100702211D01*
X145087089Y-100611378D01*
X145066511Y-100578629D01*
X145027143Y-100515975D01*
X144991116Y-100458638D01*
X144863562Y-100331084D01*
X144845976Y-100320034D01*
X144710823Y-100235111D01*
X144540554Y-100175531D01*
X144540549Y-100175530D01*
X144361304Y-100155335D01*
X144361296Y-100155335D01*
X144182050Y-100175530D01*
X144182037Y-100175533D01*
X144011781Y-100235109D01*
X144011778Y-100235111D01*
X143876620Y-100320035D01*
X143854095Y-100330305D01*
X143854284Y-100330760D01*
X143729836Y-100382307D01*
X143622898Y-100453760D01*
X143622895Y-100453763D01*
X127464581Y-116612078D01*
X127403258Y-116645563D01*
X127333566Y-116640579D01*
X127277633Y-116598707D01*
X127253216Y-116533243D01*
X127252900Y-116524397D01*
X127252900Y-110531802D01*
X127272585Y-110464763D01*
X127289219Y-110444121D01*
X165885419Y-71847921D01*
X165946742Y-71814436D01*
X166016434Y-71819420D01*
G37*
%TD.AperFunction*%
%TA.AperFunction,Conductor*%
G36*
X83943039Y-51020185D02*
G01*
X83988794Y-51072989D01*
X84000000Y-51124500D01*
X84000000Y-79454007D01*
X83980315Y-79521046D01*
X83927511Y-79566801D01*
X83858353Y-79576745D01*
X83794797Y-79547720D01*
X83788319Y-79541688D01*
X83326926Y-79080295D01*
X83182543Y-78983822D01*
X83022128Y-78917377D01*
X83022118Y-78917374D01*
X82851823Y-78883500D01*
X82851821Y-78883500D01*
X82851820Y-78883500D01*
X81755094Y-78883500D01*
X81688055Y-78863815D01*
X81654775Y-78832385D01*
X81626894Y-78794010D01*
X81626890Y-78794004D01*
X81460996Y-78628110D01*
X81460994Y-78628108D01*
X81460989Y-78628104D01*
X81271195Y-78490212D01*
X81271194Y-78490211D01*
X81271192Y-78490210D01*
X81166672Y-78436954D01*
X81062150Y-78383697D01*
X80839027Y-78311201D01*
X80723165Y-78292850D01*
X80607305Y-78274500D01*
X78392695Y-78274500D01*
X78315454Y-78286733D01*
X78160972Y-78311201D01*
X77937849Y-78383697D01*
X77728804Y-78490212D01*
X77539010Y-78628104D01*
X77539005Y-78628108D01*
X77373108Y-78794005D01*
X77373104Y-78794010D01*
X77235212Y-78983804D01*
X77128697Y-79192849D01*
X77056201Y-79415972D01*
X77019500Y-79647695D01*
X77019500Y-79882304D01*
X77056201Y-80114027D01*
X77128697Y-80337150D01*
X77235212Y-80546195D01*
X77373104Y-80735989D01*
X77373108Y-80735994D01*
X77539005Y-80901891D01*
X77539010Y-80901895D01*
X77704558Y-81022171D01*
X77728808Y-81039790D01*
X77937847Y-81146301D01*
X77937849Y-81146302D01*
X78049410Y-81182550D01*
X78160974Y-81218799D01*
X78392695Y-81255500D01*
X78392696Y-81255500D01*
X80607304Y-81255500D01*
X80607305Y-81255500D01*
X80839026Y-81218799D01*
X81062153Y-81146301D01*
X81271192Y-81039790D01*
X81460996Y-80901890D01*
X81626890Y-80735996D01*
X81654775Y-80697614D01*
X81710105Y-80654949D01*
X81755094Y-80646500D01*
X82348508Y-80646500D01*
X82415547Y-80666185D01*
X82436189Y-80682819D01*
X82582181Y-80828811D01*
X82615666Y-80890134D01*
X82618500Y-80916492D01*
X82618500Y-89083507D01*
X82598815Y-89150546D01*
X82582181Y-89171188D01*
X80315296Y-91438072D01*
X80315295Y-91438073D01*
X80218822Y-91582456D01*
X80152377Y-91742871D01*
X80152374Y-91742883D01*
X80125137Y-91879814D01*
X80125136Y-91879821D01*
X80121181Y-91899698D01*
X80088792Y-91961608D01*
X80028074Y-91996178D01*
X79999565Y-91999500D01*
X79652130Y-91999500D01*
X79652123Y-91999501D01*
X79592516Y-92005908D01*
X79457671Y-92056202D01*
X79457664Y-92056206D01*
X79342455Y-92142452D01*
X79342452Y-92142455D01*
X79256206Y-92257664D01*
X79256202Y-92257671D01*
X79205908Y-92392517D01*
X79199501Y-92452116D01*
X79199501Y-92452123D01*
X79199500Y-92452135D01*
X79199500Y-95147870D01*
X79199501Y-95147876D01*
X79205908Y-95207483D01*
X79256202Y-95342328D01*
X79256206Y-95342335D01*
X79342452Y-95457544D01*
X79342455Y-95457547D01*
X79457664Y-95543793D01*
X79457671Y-95543797D01*
X79500551Y-95559790D01*
X79592517Y-95594091D01*
X79652127Y-95600500D01*
X79994500Y-95600499D01*
X80061539Y-95620183D01*
X80107294Y-95672987D01*
X80118500Y-95724499D01*
X80118500Y-99472007D01*
X80098815Y-99539046D01*
X80082181Y-99559688D01*
X76164872Y-103476997D01*
X76103549Y-103510482D01*
X76033857Y-103505498D01*
X75977924Y-103463626D01*
X75953507Y-103398162D01*
X75956985Y-103358876D01*
X75985107Y-103247824D01*
X75985108Y-103247821D01*
X76002579Y-103036979D01*
X76005643Y-103000005D01*
X76005643Y-102999994D01*
X75985109Y-102752187D01*
X75985107Y-102752175D01*
X75924063Y-102511118D01*
X75824173Y-102283393D01*
X75688166Y-102075217D01*
X75656286Y-102040586D01*
X75519744Y-101892262D01*
X75323509Y-101739526D01*
X75323507Y-101739525D01*
X75323506Y-101739524D01*
X75104811Y-101621172D01*
X75104802Y-101621169D01*
X74869616Y-101540429D01*
X74624335Y-101499500D01*
X74375665Y-101499500D01*
X74130383Y-101540429D01*
X73895197Y-101621169D01*
X73895188Y-101621172D01*
X73676493Y-101739524D01*
X73480255Y-101892262D01*
X73480252Y-101892265D01*
X73465729Y-101908042D01*
X73405842Y-101944033D01*
X73336004Y-101941932D01*
X73278388Y-101902408D01*
X73251287Y-101838008D01*
X73250500Y-101824059D01*
X73250500Y-98500004D01*
X76194953Y-98500004D01*
X76215113Y-98769026D01*
X76215113Y-98769028D01*
X76275142Y-99032033D01*
X76275148Y-99032052D01*
X76373709Y-99283181D01*
X76373708Y-99283181D01*
X76508602Y-99516822D01*
X76562294Y-99584151D01*
X76562295Y-99584151D01*
X77284153Y-98862293D01*
X77291049Y-98878942D01*
X77378599Y-99009970D01*
X77490030Y-99121401D01*
X77621058Y-99208951D01*
X77637705Y-99215846D01*
X76914848Y-99938702D01*
X77097483Y-100063220D01*
X77097485Y-100063221D01*
X77340539Y-100180269D01*
X77340537Y-100180269D01*
X77598337Y-100259790D01*
X77598343Y-100259792D01*
X77865101Y-100299999D01*
X77865110Y-100300000D01*
X78134890Y-100300000D01*
X78134898Y-100299999D01*
X78401656Y-100259792D01*
X78401662Y-100259790D01*
X78659461Y-100180269D01*
X78902521Y-100063218D01*
X79085150Y-99938702D01*
X78362294Y-99215846D01*
X78378942Y-99208951D01*
X78509970Y-99121401D01*
X78621401Y-99009970D01*
X78708951Y-98878942D01*
X78715846Y-98862294D01*
X79437703Y-99584151D01*
X79437704Y-99584150D01*
X79491393Y-99516828D01*
X79491400Y-99516817D01*
X79626290Y-99283181D01*
X79724851Y-99032052D01*
X79724857Y-99032033D01*
X79784886Y-98769028D01*
X79784886Y-98769026D01*
X79805047Y-98500004D01*
X79805047Y-98499995D01*
X79784886Y-98230973D01*
X79784886Y-98230971D01*
X79724857Y-97967966D01*
X79724851Y-97967947D01*
X79626290Y-97716818D01*
X79626291Y-97716818D01*
X79491397Y-97483177D01*
X79437704Y-97415847D01*
X78715846Y-98137705D01*
X78708951Y-98121058D01*
X78621401Y-97990030D01*
X78509970Y-97878599D01*
X78378942Y-97791049D01*
X78362294Y-97784153D01*
X79085150Y-97061296D01*
X78902517Y-96936779D01*
X78902516Y-96936778D01*
X78659460Y-96819730D01*
X78659462Y-96819730D01*
X78401662Y-96740209D01*
X78401656Y-96740207D01*
X78134898Y-96700000D01*
X77865101Y-96700000D01*
X77598343Y-96740207D01*
X77598337Y-96740209D01*
X77340538Y-96819730D01*
X77097485Y-96936778D01*
X77097476Y-96936783D01*
X76914848Y-97061296D01*
X77637705Y-97784153D01*
X77621058Y-97791049D01*
X77490030Y-97878599D01*
X77378599Y-97990030D01*
X77291049Y-98121058D01*
X77284153Y-98137706D01*
X76562295Y-97415848D01*
X76508600Y-97483180D01*
X76373709Y-97716818D01*
X76275148Y-97967947D01*
X76275142Y-97967966D01*
X76215113Y-98230971D01*
X76215113Y-98230973D01*
X76194953Y-98499995D01*
X76194953Y-98500004D01*
X73250500Y-98500004D01*
X73250500Y-94832550D01*
X73270185Y-94765511D01*
X73322989Y-94719756D01*
X73392147Y-94709812D01*
X73455703Y-94738837D01*
X73481887Y-94770550D01*
X73508602Y-94816822D01*
X73562294Y-94884151D01*
X73562295Y-94884151D01*
X74284153Y-94162293D01*
X74291049Y-94178942D01*
X74378599Y-94309970D01*
X74490030Y-94421401D01*
X74621058Y-94508951D01*
X74637705Y-94515846D01*
X73914848Y-95238702D01*
X74097483Y-95363220D01*
X74097485Y-95363221D01*
X74340539Y-95480269D01*
X74340537Y-95480269D01*
X74598337Y-95559790D01*
X74598343Y-95559792D01*
X74865101Y-95599999D01*
X74865110Y-95600000D01*
X75134890Y-95600000D01*
X75134898Y-95599999D01*
X75401656Y-95559792D01*
X75401662Y-95559790D01*
X75659461Y-95480269D01*
X75902521Y-95363218D01*
X76085150Y-95238702D01*
X75362294Y-94515846D01*
X75378942Y-94508951D01*
X75509970Y-94421401D01*
X75621401Y-94309970D01*
X75708951Y-94178942D01*
X75715846Y-94162294D01*
X76437703Y-94884151D01*
X76437704Y-94884150D01*
X76491393Y-94816828D01*
X76491400Y-94816817D01*
X76626290Y-94583181D01*
X76724851Y-94332052D01*
X76724857Y-94332033D01*
X76784886Y-94069028D01*
X76784886Y-94069026D01*
X76805047Y-93800004D01*
X76805047Y-93799995D01*
X76784886Y-93530973D01*
X76784886Y-93530971D01*
X76724857Y-93267966D01*
X76724851Y-93267947D01*
X76626290Y-93016818D01*
X76626291Y-93016818D01*
X76491397Y-92783177D01*
X76437704Y-92715847D01*
X75715846Y-93437705D01*
X75708951Y-93421058D01*
X75621401Y-93290030D01*
X75509970Y-93178599D01*
X75378942Y-93091049D01*
X75362294Y-93084153D01*
X76085150Y-92361296D01*
X75902517Y-92236779D01*
X75902516Y-92236778D01*
X75659460Y-92119730D01*
X75659462Y-92119730D01*
X75401662Y-92040209D01*
X75401656Y-92040207D01*
X75134898Y-92000000D01*
X74865101Y-92000000D01*
X74598343Y-92040207D01*
X74598337Y-92040209D01*
X74340538Y-92119730D01*
X74097485Y-92236778D01*
X74097476Y-92236783D01*
X73914848Y-92361296D01*
X74637705Y-93084153D01*
X74621058Y-93091049D01*
X74490030Y-93178599D01*
X74378599Y-93290030D01*
X74291049Y-93421058D01*
X74284153Y-93437706D01*
X73562295Y-92715848D01*
X73508602Y-92783178D01*
X73481887Y-92829450D01*
X73431319Y-92877665D01*
X73362712Y-92890887D01*
X73297848Y-92864919D01*
X73257320Y-92808005D01*
X73250500Y-92767449D01*
X73250500Y-85802844D01*
X77020000Y-85802844D01*
X77026401Y-85862372D01*
X77026403Y-85862379D01*
X77076645Y-85997086D01*
X77076649Y-85997093D01*
X77162809Y-86112187D01*
X77162812Y-86112190D01*
X77277906Y-86198350D01*
X77277913Y-86198354D01*
X77412620Y-86248596D01*
X77412627Y-86248598D01*
X77472155Y-86254999D01*
X77472172Y-86255000D01*
X79250000Y-86255000D01*
X79250000Y-85375824D01*
X79307485Y-85399636D01*
X79434996Y-85425000D01*
X79565004Y-85425000D01*
X79692515Y-85399636D01*
X79750000Y-85375824D01*
X79750000Y-86255000D01*
X81527828Y-86255000D01*
X81527844Y-86254999D01*
X81587372Y-86248598D01*
X81587379Y-86248596D01*
X81722086Y-86198354D01*
X81722093Y-86198350D01*
X81837187Y-86112190D01*
X81837190Y-86112187D01*
X81923350Y-85997093D01*
X81923354Y-85997086D01*
X81973596Y-85862379D01*
X81973598Y-85862372D01*
X81979999Y-85802844D01*
X81980000Y-85802827D01*
X81980000Y-85015000D01*
X80110825Y-85015000D01*
X80134636Y-84957515D01*
X80160000Y-84830004D01*
X80160000Y-84699996D01*
X80134636Y-84572485D01*
X80110825Y-84515000D01*
X81980000Y-84515000D01*
X81980000Y-83727172D01*
X81979999Y-83727155D01*
X81973598Y-83667627D01*
X81973596Y-83667620D01*
X81923354Y-83532913D01*
X81923350Y-83532906D01*
X81837190Y-83417812D01*
X81837187Y-83417809D01*
X81722093Y-83331649D01*
X81722086Y-83331645D01*
X81587379Y-83281403D01*
X81587372Y-83281401D01*
X81527844Y-83275000D01*
X79750000Y-83275000D01*
X79750000Y-84154175D01*
X79692515Y-84130364D01*
X79565004Y-84105000D01*
X79434996Y-84105000D01*
X79307485Y-84130364D01*
X79250000Y-84154175D01*
X79250000Y-83275000D01*
X77472155Y-83275000D01*
X77412627Y-83281401D01*
X77412620Y-83281403D01*
X77277913Y-83331645D01*
X77277906Y-83331649D01*
X77162812Y-83417809D01*
X77162809Y-83417812D01*
X77076649Y-83532906D01*
X77076645Y-83532913D01*
X77026403Y-83667620D01*
X77026401Y-83667627D01*
X77020000Y-83727155D01*
X77020000Y-84515000D01*
X78889175Y-84515000D01*
X78865364Y-84572485D01*
X78840000Y-84699996D01*
X78840000Y-84830004D01*
X78865364Y-84957515D01*
X78889175Y-85015000D01*
X77020000Y-85015000D01*
X77020000Y-85802844D01*
X73250500Y-85802844D01*
X73250500Y-71617309D01*
X73270185Y-71550270D01*
X73286819Y-71529628D01*
X74060504Y-70755942D01*
X74076619Y-70816081D01*
X74143498Y-70931920D01*
X74238080Y-71026502D01*
X74353919Y-71093381D01*
X74414057Y-71109494D01*
X73666781Y-71856769D01*
X73859621Y-71974943D01*
X74080075Y-72066257D01*
X74080072Y-72066257D01*
X74312116Y-72121966D01*
X74550000Y-72140687D01*
X74787883Y-72121966D01*
X75019925Y-72066257D01*
X75240378Y-71974943D01*
X75433217Y-71856770D01*
X75433217Y-71856769D01*
X74685942Y-71109495D01*
X74746081Y-71093381D01*
X74861920Y-71026502D01*
X74956502Y-70931920D01*
X75023381Y-70816081D01*
X75039494Y-70755942D01*
X75786769Y-71503217D01*
X75786770Y-71503217D01*
X75904943Y-71310378D01*
X75996257Y-71089925D01*
X76051966Y-70857883D01*
X76070687Y-70620000D01*
X76051966Y-70382116D01*
X75996257Y-70150074D01*
X75904943Y-69929621D01*
X75786769Y-69736781D01*
X75039494Y-70484056D01*
X75023381Y-70423919D01*
X74956502Y-70308080D01*
X74861920Y-70213498D01*
X74746081Y-70146619D01*
X74685942Y-70130505D01*
X75433217Y-69383229D01*
X75431009Y-69364575D01*
X75431009Y-69335423D01*
X75433217Y-69316769D01*
X74685942Y-68569495D01*
X74746081Y-68553381D01*
X74861920Y-68486502D01*
X74956502Y-68391920D01*
X75023381Y-68276081D01*
X75039494Y-68215942D01*
X75786769Y-68963217D01*
X75786770Y-68963217D01*
X75904943Y-68770378D01*
X75996257Y-68549925D01*
X76051966Y-68317883D01*
X76070687Y-68080000D01*
X76051966Y-67842116D01*
X75996257Y-67610074D01*
X75904943Y-67389621D01*
X75786769Y-67196781D01*
X75039494Y-67944056D01*
X75023381Y-67883919D01*
X74956502Y-67768080D01*
X74861920Y-67673498D01*
X74746081Y-67606619D01*
X74685942Y-67590505D01*
X75433217Y-66843229D01*
X75431009Y-66824575D01*
X75431009Y-66795423D01*
X75433217Y-66776769D01*
X74685942Y-66029495D01*
X74746081Y-66013381D01*
X74861920Y-65946502D01*
X74956502Y-65851920D01*
X75023381Y-65736081D01*
X75039495Y-65675942D01*
X75786769Y-66423217D01*
X75786770Y-66423217D01*
X75904943Y-66230378D01*
X75996257Y-66009925D01*
X76051966Y-65777883D01*
X76070687Y-65540000D01*
X76051966Y-65302116D01*
X75996257Y-65070074D01*
X75904943Y-64849621D01*
X75786769Y-64656781D01*
X75039494Y-65404056D01*
X75023381Y-65343919D01*
X74956502Y-65228080D01*
X74861920Y-65133498D01*
X74746081Y-65066619D01*
X74685942Y-65050505D01*
X75436122Y-64300324D01*
X75445878Y-64242728D01*
X75476816Y-64202752D01*
X75625643Y-64075643D01*
X75780668Y-63894132D01*
X75905389Y-63690605D01*
X75996737Y-63470073D01*
X76052461Y-63237966D01*
X76071189Y-63000000D01*
X76052461Y-62762034D01*
X75996737Y-62529927D01*
X75907833Y-62315295D01*
X75905391Y-62309399D01*
X75849887Y-62218825D01*
X75780668Y-62105868D01*
X75625643Y-61924357D01*
X75508478Y-61824288D01*
X75470286Y-61765783D01*
X75469787Y-61695916D01*
X75507141Y-61636869D01*
X75508439Y-61635744D01*
X75625643Y-61535643D01*
X75780668Y-61354132D01*
X75905389Y-61150605D01*
X75996737Y-60930073D01*
X76052461Y-60697966D01*
X76071189Y-60460000D01*
X76052461Y-60222034D01*
X75996737Y-59989927D01*
X75905389Y-59769395D01*
X75780668Y-59565868D01*
X75625643Y-59384357D01*
X75444132Y-59229332D01*
X75240605Y-59104611D01*
X75240604Y-59104610D01*
X75240600Y-59104608D01*
X75020068Y-59013261D01*
X74787962Y-58957538D01*
X74787963Y-58957538D01*
X74550000Y-58938811D01*
X74312036Y-58957538D01*
X74079931Y-59013261D01*
X73859399Y-59104608D01*
X73655867Y-59229332D01*
X73474358Y-59384356D01*
X73468788Y-59390878D01*
X73410279Y-59429069D01*
X73340412Y-59429565D01*
X73281367Y-59392210D01*
X73251891Y-59328862D01*
X73250500Y-59310343D01*
X73250500Y-55811288D01*
X75899500Y-55811288D01*
X75931161Y-56051785D01*
X75993947Y-56286104D01*
X76008076Y-56320214D01*
X76086776Y-56510212D01*
X76208064Y-56720289D01*
X76208066Y-56720292D01*
X76208067Y-56720293D01*
X76355733Y-56912736D01*
X76355739Y-56912743D01*
X76527256Y-57084260D01*
X76527262Y-57084265D01*
X76719711Y-57231936D01*
X76929788Y-57353224D01*
X77153900Y-57446054D01*
X77388211Y-57508838D01*
X77568586Y-57532584D01*
X77628711Y-57540500D01*
X77628712Y-57540500D01*
X77871289Y-57540500D01*
X77919388Y-57534167D01*
X78111789Y-57508838D01*
X78346100Y-57446054D01*
X78570212Y-57353224D01*
X78780289Y-57231936D01*
X78972738Y-57084265D01*
X79144265Y-56912738D01*
X79291936Y-56720289D01*
X79413224Y-56510212D01*
X79506054Y-56286100D01*
X79568838Y-56051789D01*
X79600500Y-55811288D01*
X79600500Y-55568712D01*
X79568838Y-55328211D01*
X79506054Y-55093900D01*
X79413224Y-54869788D01*
X79291936Y-54659711D01*
X79146144Y-54469711D01*
X79144266Y-54467263D01*
X79144260Y-54467256D01*
X78972743Y-54295739D01*
X78972736Y-54295733D01*
X78780293Y-54148067D01*
X78780292Y-54148066D01*
X78780289Y-54148064D01*
X78570212Y-54026776D01*
X78570205Y-54026773D01*
X78346104Y-53933947D01*
X78111785Y-53871161D01*
X77871289Y-53839500D01*
X77871288Y-53839500D01*
X77628712Y-53839500D01*
X77628711Y-53839500D01*
X77388214Y-53871161D01*
X77153895Y-53933947D01*
X76929794Y-54026773D01*
X76929785Y-54026777D01*
X76719706Y-54148067D01*
X76527263Y-54295733D01*
X76527256Y-54295739D01*
X76355739Y-54467256D01*
X76355733Y-54467263D01*
X76208067Y-54659706D01*
X76086777Y-54869785D01*
X76086773Y-54869794D01*
X75993947Y-55093895D01*
X75931161Y-55328214D01*
X75899500Y-55568711D01*
X75899500Y-55811288D01*
X73250500Y-55811288D01*
X73250500Y-55502706D01*
X73250618Y-55497297D01*
X73253377Y-55434108D01*
X73267386Y-55113226D01*
X73268326Y-55102495D01*
X73318152Y-54724025D01*
X73320025Y-54713405D01*
X73402649Y-54340709D01*
X73405440Y-54330295D01*
X73520230Y-53966227D01*
X73523917Y-53956095D01*
X73670003Y-53603412D01*
X73674561Y-53593638D01*
X73850822Y-53255045D01*
X73856217Y-53245700D01*
X74061325Y-52923744D01*
X74067515Y-52914905D01*
X74299896Y-52612060D01*
X74306834Y-52603791D01*
X74564726Y-52322352D01*
X74572352Y-52314726D01*
X74853791Y-52056834D01*
X74862060Y-52049896D01*
X75164905Y-51817515D01*
X75173744Y-51811325D01*
X75495700Y-51606217D01*
X75505045Y-51600822D01*
X75843638Y-51424561D01*
X75853412Y-51420003D01*
X76206095Y-51273917D01*
X76216227Y-51270230D01*
X76580295Y-51155440D01*
X76590709Y-51152649D01*
X76963405Y-51070025D01*
X76974025Y-51068152D01*
X77352495Y-51018326D01*
X77363226Y-51017386D01*
X77747297Y-51000617D01*
X77752706Y-51000500D01*
X77815892Y-51000500D01*
X83876000Y-51000500D01*
X83943039Y-51020185D01*
G37*
%TD.AperFunction*%
%TA.AperFunction,Conductor*%
G36*
X114933418Y-63901185D02*
G01*
X114960666Y-63924966D01*
X115089357Y-64075643D01*
X115174876Y-64148683D01*
X115206520Y-64175710D01*
X115244713Y-64234217D01*
X115245211Y-64304085D01*
X115207857Y-64363131D01*
X115206520Y-64364290D01*
X115089357Y-64464357D01*
X114934332Y-64645867D01*
X114809608Y-64849399D01*
X114718261Y-65069931D01*
X114662538Y-65302036D01*
X114643811Y-65540000D01*
X114662538Y-65777963D01*
X114718261Y-66010068D01*
X114809608Y-66230600D01*
X114809610Y-66230604D01*
X114809611Y-66230605D01*
X114934332Y-66434132D01*
X115089357Y-66615643D01*
X115174876Y-66688683D01*
X115206520Y-66715710D01*
X115244713Y-66774217D01*
X115245211Y-66844085D01*
X115207857Y-66903131D01*
X115206520Y-66904290D01*
X115089357Y-67004357D01*
X114934332Y-67185867D01*
X114809608Y-67389399D01*
X114718261Y-67609931D01*
X114662538Y-67842036D01*
X114643811Y-68080000D01*
X114662538Y-68317963D01*
X114718261Y-68550068D01*
X114809608Y-68770600D01*
X114809610Y-68770604D01*
X114809611Y-68770605D01*
X114934332Y-68974132D01*
X115089357Y-69155643D01*
X115211834Y-69260248D01*
X115238180Y-69282750D01*
X115276373Y-69341257D01*
X115279887Y-69381335D01*
X116029057Y-70130504D01*
X115968919Y-70146619D01*
X115853080Y-70213498D01*
X115758498Y-70308080D01*
X115691619Y-70423919D01*
X115675505Y-70484057D01*
X114928229Y-69736781D01*
X114810056Y-69929621D01*
X114718742Y-70150074D01*
X114663033Y-70382116D01*
X114644312Y-70620000D01*
X114663033Y-70857883D01*
X114718742Y-71089925D01*
X114810056Y-71310378D01*
X114928229Y-71503217D01*
X115675504Y-70755941D01*
X115691619Y-70816081D01*
X115758498Y-70931920D01*
X115853080Y-71026502D01*
X115968919Y-71093381D01*
X116029057Y-71109494D01*
X115281781Y-71856769D01*
X115474621Y-71974943D01*
X115695075Y-72066257D01*
X115695072Y-72066257D01*
X115927116Y-72121966D01*
X116165000Y-72140687D01*
X116402883Y-72121966D01*
X116634925Y-72066257D01*
X116855378Y-71974943D01*
X117048217Y-71856770D01*
X117048217Y-71856769D01*
X116300942Y-71109495D01*
X116361081Y-71093381D01*
X116476920Y-71026502D01*
X116571502Y-70931920D01*
X116638381Y-70816081D01*
X116654495Y-70755942D01*
X117401769Y-71503217D01*
X117401770Y-71503217D01*
X117519943Y-71310378D01*
X117608539Y-71096488D01*
X117652380Y-71042085D01*
X117718674Y-71020020D01*
X117786373Y-71037299D01*
X117833984Y-71088436D01*
X117847100Y-71143941D01*
X117847100Y-72876000D01*
X117827415Y-72943039D01*
X117774611Y-72988794D01*
X117723100Y-73000000D01*
X113624000Y-73000000D01*
X113556961Y-72980315D01*
X113511206Y-72927511D01*
X113500000Y-72876000D01*
X113500000Y-64797991D01*
X113519685Y-64730952D01*
X113536319Y-64710310D01*
X114328810Y-63917819D01*
X114390133Y-63884334D01*
X114416491Y-63881500D01*
X114866379Y-63881500D01*
X114933418Y-63901185D01*
G37*
%TD.AperFunction*%
%TA.AperFunction,Conductor*%
G36*
X74076619Y-68276081D02*
G01*
X74143498Y-68391920D01*
X74238080Y-68486502D01*
X74353919Y-68553381D01*
X74414057Y-68569494D01*
X73666781Y-69316769D01*
X73668990Y-69335425D01*
X73668990Y-69364573D01*
X73666781Y-69383229D01*
X74414057Y-70130504D01*
X74353919Y-70146619D01*
X74238080Y-70213498D01*
X74143498Y-70308080D01*
X74076619Y-70423919D01*
X74060505Y-70484057D01*
X73286819Y-69710371D01*
X73253334Y-69649048D01*
X73250500Y-69622690D01*
X73250500Y-69077309D01*
X73270185Y-69010270D01*
X73286819Y-68989628D01*
X74060504Y-68215942D01*
X74076619Y-68276081D01*
G37*
%TD.AperFunction*%
%TA.AperFunction,Conductor*%
G36*
X117786373Y-68498603D02*
G01*
X117833984Y-68549740D01*
X117847100Y-68605245D01*
X117847100Y-70096058D01*
X117827415Y-70163097D01*
X117774611Y-70208852D01*
X117705453Y-70218796D01*
X117641897Y-70189771D01*
X117608539Y-70143511D01*
X117519943Y-69929621D01*
X117401769Y-69736781D01*
X116654494Y-70484056D01*
X116638381Y-70423919D01*
X116571502Y-70308080D01*
X116476920Y-70213498D01*
X116361081Y-70146619D01*
X116300942Y-70130505D01*
X117051122Y-69380324D01*
X117060878Y-69322728D01*
X117091816Y-69282752D01*
X117240643Y-69155643D01*
X117395668Y-68974132D01*
X117520389Y-68770605D01*
X117608540Y-68557790D01*
X117652380Y-68503389D01*
X117718674Y-68481324D01*
X117786373Y-68498603D01*
G37*
%TD.AperFunction*%
%TA.AperFunction,Conductor*%
G36*
X74076619Y-65736081D02*
G01*
X74143498Y-65851920D01*
X74238080Y-65946502D01*
X74353919Y-66013381D01*
X74414057Y-66029494D01*
X73666781Y-66776769D01*
X73668990Y-66795425D01*
X73668990Y-66824573D01*
X73666781Y-66843229D01*
X74414057Y-67590504D01*
X74353919Y-67606619D01*
X74238080Y-67673498D01*
X74143498Y-67768080D01*
X74076619Y-67883919D01*
X74060505Y-67944057D01*
X73286819Y-67170371D01*
X73253334Y-67109048D01*
X73250500Y-67082690D01*
X73250500Y-66537309D01*
X73270185Y-66470270D01*
X73286819Y-66449628D01*
X74060504Y-65675942D01*
X74076619Y-65736081D01*
G37*
%TD.AperFunction*%
%TA.AperFunction,Conductor*%
G36*
X73455703Y-64055943D02*
G01*
X73468784Y-64069118D01*
X73474356Y-64075642D01*
X73474358Y-64075644D01*
X73623180Y-64202750D01*
X73661373Y-64261257D01*
X73664887Y-64301335D01*
X74414057Y-65050504D01*
X74353919Y-65066619D01*
X74238080Y-65133498D01*
X74143498Y-65228080D01*
X74076619Y-65343919D01*
X74060505Y-65404057D01*
X73286819Y-64630371D01*
X73253334Y-64569048D01*
X73250500Y-64542690D01*
X73250500Y-64149656D01*
X73270185Y-64082617D01*
X73322989Y-64036862D01*
X73392147Y-64026918D01*
X73455703Y-64055943D01*
G37*
%TD.AperFunction*%
%TD*%
M02*
