%TF.GenerationSoftware,KiCad,Pcbnew,8.0.0*%
%TF.CreationDate,2024-06-28T13:29:57-04:00*%
%TF.ProjectId,myBaseBoardDesignv1,6d794261-7365-4426-9f61-726444657369,rev?*%
%TF.SameCoordinates,Original*%
%TF.FileFunction,Soldermask,Top*%
%TF.FilePolarity,Negative*%
%FSLAX46Y46*%
G04 Gerber Fmt 4.6, Leading zero omitted, Abs format (unit mm)*
G04 Created by KiCad (PCBNEW 8.0.0) date 2024-06-28 13:29:57*
%MOMM*%
%LPD*%
G01*
G04 APERTURE LIST*
G04 Aperture macros list*
%AMRoundRect*
0 Rectangle with rounded corners*
0 $1 Rounding radius*
0 $2 $3 $4 $5 $6 $7 $8 $9 X,Y pos of 4 corners*
0 Add a 4 corners polygon primitive as box body*
4,1,4,$2,$3,$4,$5,$6,$7,$8,$9,$2,$3,0*
0 Add four circle primitives for the rounded corners*
1,1,$1+$1,$2,$3*
1,1,$1+$1,$4,$5*
1,1,$1+$1,$6,$7*
1,1,$1+$1,$8,$9*
0 Add four rect primitives between the rounded corners*
20,1,$1+$1,$2,$3,$4,$5,0*
20,1,$1+$1,$4,$5,$6,$7,0*
20,1,$1+$1,$6,$7,$8,$9,0*
20,1,$1+$1,$8,$9,$2,$3,0*%
G04 Aperture macros list end*
%ADD10RoundRect,0.250000X1.000000X0.650000X-1.000000X0.650000X-1.000000X-0.650000X1.000000X-0.650000X0*%
%ADD11R,1.700000X1.700000*%
%ADD12O,1.700000X1.700000*%
%ADD13RoundRect,0.250000X-0.400000X-0.625000X0.400000X-0.625000X0.400000X0.625000X-0.400000X0.625000X0*%
%ADD14RoundRect,0.250000X0.850000X0.350000X-0.850000X0.350000X-0.850000X-0.350000X0.850000X-0.350000X0*%
%ADD15RoundRect,0.249997X2.950003X2.650003X-2.950003X2.650003X-2.950003X-2.650003X2.950003X-2.650003X0*%
%ADD16C,2.032000*%
%ADD17O,1.727200X1.727200*%
%ADD18R,1.727200X1.727200*%
%ADD19C,3.200000*%
%ADD20R,3.960000X1.980000*%
%ADD21O,3.960000X1.980000*%
%ADD22RoundRect,0.250000X0.400000X0.625000X-0.400000X0.625000X-0.400000X-0.625000X0.400000X-0.625000X0*%
%ADD23RoundRect,0.225000X-0.225000X-0.375000X0.225000X-0.375000X0.225000X0.375000X-0.225000X0.375000X0*%
%ADD24RoundRect,0.250001X-0.462499X-0.624999X0.462499X-0.624999X0.462499X0.624999X-0.462499X0.624999X0*%
%ADD25C,1.700000*%
%ADD26C,2.000000*%
%ADD27O,2.000000X1.200000*%
%ADD28R,2.000000X1.200000*%
%ADD29R,2.600000X2.600000*%
%ADD30C,2.600000*%
G04 APERTURE END LIST*
D10*
%TO.C,D5*%
X87000000Y-148250000D03*
X83000000Y-148250000D03*
%TD*%
D11*
%TO.C,J3*%
X83225000Y-143250000D03*
D12*
X85765000Y-143250000D03*
%TD*%
D13*
%TO.C,R1*%
X80974000Y-127508000D03*
X84074000Y-127508000D03*
%TD*%
D14*
%TO.C,Q2*%
X82984000Y-123310000D03*
D15*
X76684000Y-121030000D03*
D14*
X82984000Y-118750000D03*
%TD*%
D16*
%TO.C,J1*%
X116165000Y-60460000D03*
X116165000Y-63000000D03*
X116165000Y-65540000D03*
X116165000Y-68080000D03*
X116165000Y-70620000D03*
X74550000Y-70620000D03*
X74550000Y-68080000D03*
X74550000Y-65540000D03*
X74550000Y-63000000D03*
X74550000Y-60460000D03*
D17*
X170050000Y-94446000D03*
X170050000Y-96986000D03*
X170050000Y-71840000D03*
X170050000Y-66760000D03*
X170050000Y-61680000D03*
X170050000Y-136610000D03*
X170050000Y-139150000D03*
X170050000Y-64220000D03*
X121790000Y-64220000D03*
X121790000Y-66760000D03*
X121790000Y-69300000D03*
X121790000Y-71840000D03*
X170050000Y-99526000D03*
D18*
X170050000Y-102066000D03*
D17*
X121790000Y-103590000D03*
X121790000Y-106130000D03*
X121790000Y-108670000D03*
X121790000Y-111210000D03*
X121790000Y-113750000D03*
D18*
X121790000Y-116290000D03*
X121790000Y-118830000D03*
D17*
X121790000Y-121370000D03*
X170050000Y-69300000D03*
X121790000Y-136610000D03*
X121790000Y-134070000D03*
X121790000Y-131530000D03*
X121790000Y-128990000D03*
X121790000Y-126450000D03*
X170050000Y-104606000D03*
X170050000Y-107146000D03*
X170050000Y-109686000D03*
X170050000Y-112226000D03*
X170050000Y-114766000D03*
X170050000Y-117306000D03*
X170050000Y-121370000D03*
X170050000Y-123910000D03*
X170050000Y-126450000D03*
X170050000Y-128990000D03*
X170050000Y-131530000D03*
X170050000Y-134070000D03*
X121790000Y-139150000D03*
X121790000Y-61680000D03*
D19*
X167750000Y-145500000D03*
X167750000Y-55500000D03*
X124250000Y-145500000D03*
X124250000Y-55500000D03*
X77750000Y-145750000D03*
X77750000Y-55690000D03*
%TD*%
D20*
%TO.C,J4*%
X79500000Y-84765000D03*
D21*
X79500000Y-79765000D03*
%TD*%
D22*
%TO.C,R4*%
X83719000Y-135763000D03*
X80619000Y-135763000D03*
%TD*%
D23*
%TO.C,D1*%
X74551000Y-127381000D03*
X77851000Y-127381000D03*
%TD*%
D24*
%TO.C,D3*%
X74484500Y-139954000D03*
X77459500Y-139954000D03*
%TD*%
D25*
%TO.C,SW1*%
X78750000Y-113000000D03*
X78750000Y-109000000D03*
X78750000Y-105000000D03*
D26*
X74500000Y-115000000D03*
X80500000Y-115000000D03*
X74500000Y-103000000D03*
X80500000Y-103000000D03*
%TD*%
D24*
%TO.C,D4*%
X74484500Y-135763000D03*
X77459500Y-135763000D03*
%TD*%
%TO.C,D2*%
X74495000Y-131572000D03*
X77470000Y-131572000D03*
%TD*%
D27*
%TO.C,U1*%
X113360000Y-87640000D03*
X113360000Y-90180000D03*
X113360000Y-92720000D03*
X113360000Y-95260000D03*
X113360000Y-97800000D03*
X113360000Y-100340000D03*
X113360000Y-102880000D03*
X113360000Y-105420000D03*
X113360000Y-107960000D03*
X113360000Y-110500000D03*
X113360000Y-113040000D03*
X113360000Y-115580000D03*
X113360000Y-118120000D03*
X113360000Y-120660000D03*
X113360000Y-123200000D03*
X113360000Y-125740000D03*
X113360000Y-128280000D03*
X113360000Y-130820000D03*
X113360000Y-133360000D03*
X113360000Y-135900000D03*
X113360000Y-138440000D03*
X113360000Y-140980000D03*
X90496320Y-140977280D03*
X90496320Y-138437280D03*
X90496320Y-135897280D03*
X90500000Y-133360000D03*
X90500000Y-130820000D03*
X90500000Y-128280000D03*
X90500000Y-125740000D03*
X90500000Y-123200000D03*
X90500000Y-120660000D03*
X90500000Y-118120000D03*
X90500000Y-115580000D03*
X90500000Y-113040000D03*
X90500000Y-110500000D03*
X90500000Y-107960000D03*
X90500000Y-105420000D03*
X90500000Y-102880000D03*
X90500000Y-100340000D03*
X90500000Y-97800000D03*
X90500000Y-95260000D03*
X90500000Y-92720000D03*
X90500000Y-90180000D03*
D28*
X90500000Y-87640000D03*
%TD*%
D22*
%TO.C,R2*%
X83719000Y-131572000D03*
X80619000Y-131572000D03*
%TD*%
%TO.C,R3*%
X83846000Y-139954000D03*
X80746000Y-139954000D03*
%TD*%
D29*
%TO.C,J2*%
X81000000Y-93800000D03*
D30*
X75000000Y-93800000D03*
X78000000Y-98500000D03*
%TD*%
M02*
