%TF.GenerationSoftware,KiCad,Pcbnew,8.0.0*%
%TF.CreationDate,2024-06-28T13:29:57-04:00*%
%TF.ProjectId,myBaseBoardDesignv1,6d794261-7365-4426-9f61-726444657369,rev?*%
%TF.SameCoordinates,Original*%
%TF.FileFunction,Copper,L1,Top*%
%TF.FilePolarity,Positive*%
%FSLAX46Y46*%
G04 Gerber Fmt 4.6, Leading zero omitted, Abs format (unit mm)*
G04 Created by KiCad (PCBNEW 8.0.0) date 2024-06-28 13:29:57*
%MOMM*%
%LPD*%
G01*
G04 APERTURE LIST*
G04 Aperture macros list*
%AMRoundRect*
0 Rectangle with rounded corners*
0 $1 Rounding radius*
0 $2 $3 $4 $5 $6 $7 $8 $9 X,Y pos of 4 corners*
0 Add a 4 corners polygon primitive as box body*
4,1,4,$2,$3,$4,$5,$6,$7,$8,$9,$2,$3,0*
0 Add four circle primitives for the rounded corners*
1,1,$1+$1,$2,$3*
1,1,$1+$1,$4,$5*
1,1,$1+$1,$6,$7*
1,1,$1+$1,$8,$9*
0 Add four rect primitives between the rounded corners*
20,1,$1+$1,$2,$3,$4,$5,0*
20,1,$1+$1,$4,$5,$6,$7,0*
20,1,$1+$1,$6,$7,$8,$9,0*
20,1,$1+$1,$8,$9,$2,$3,0*%
G04 Aperture macros list end*
%TA.AperFunction,SMDPad,CuDef*%
%ADD10RoundRect,0.250000X1.000000X0.650000X-1.000000X0.650000X-1.000000X-0.650000X1.000000X-0.650000X0*%
%TD*%
%TA.AperFunction,ComponentPad*%
%ADD11R,1.700000X1.700000*%
%TD*%
%TA.AperFunction,ComponentPad*%
%ADD12O,1.700000X1.700000*%
%TD*%
%TA.AperFunction,SMDPad,CuDef*%
%ADD13RoundRect,0.250000X-0.400000X-0.625000X0.400000X-0.625000X0.400000X0.625000X-0.400000X0.625000X0*%
%TD*%
%TA.AperFunction,SMDPad,CuDef*%
%ADD14RoundRect,0.250000X0.850000X0.350000X-0.850000X0.350000X-0.850000X-0.350000X0.850000X-0.350000X0*%
%TD*%
%TA.AperFunction,SMDPad,CuDef*%
%ADD15RoundRect,0.250000X1.275000X1.125000X-1.275000X1.125000X-1.275000X-1.125000X1.275000X-1.125000X0*%
%TD*%
%TA.AperFunction,SMDPad,CuDef*%
%ADD16RoundRect,0.249997X2.950003X2.650003X-2.950003X2.650003X-2.950003X-2.650003X2.950003X-2.650003X0*%
%TD*%
%TA.AperFunction,ComponentPad*%
%ADD17C,2.032000*%
%TD*%
%TA.AperFunction,ComponentPad*%
%ADD18O,1.727200X1.727200*%
%TD*%
%TA.AperFunction,ComponentPad*%
%ADD19R,1.727200X1.727200*%
%TD*%
%TA.AperFunction,ComponentPad*%
%ADD20R,3.960000X1.980000*%
%TD*%
%TA.AperFunction,ComponentPad*%
%ADD21O,3.960000X1.980000*%
%TD*%
%TA.AperFunction,SMDPad,CuDef*%
%ADD22RoundRect,0.250000X0.400000X0.625000X-0.400000X0.625000X-0.400000X-0.625000X0.400000X-0.625000X0*%
%TD*%
%TA.AperFunction,SMDPad,CuDef*%
%ADD23RoundRect,0.225000X-0.225000X-0.375000X0.225000X-0.375000X0.225000X0.375000X-0.225000X0.375000X0*%
%TD*%
%TA.AperFunction,SMDPad,CuDef*%
%ADD24RoundRect,0.250001X-0.462499X-0.624999X0.462499X-0.624999X0.462499X0.624999X-0.462499X0.624999X0*%
%TD*%
%TA.AperFunction,ComponentPad*%
%ADD25C,1.700000*%
%TD*%
%TA.AperFunction,ComponentPad*%
%ADD26C,2.000000*%
%TD*%
%TA.AperFunction,ComponentPad*%
%ADD27O,2.000000X1.200000*%
%TD*%
%TA.AperFunction,ComponentPad*%
%ADD28R,2.000000X1.200000*%
%TD*%
%TA.AperFunction,ComponentPad*%
%ADD29R,2.600000X2.600000*%
%TD*%
%TA.AperFunction,ComponentPad*%
%ADD30C,2.600000*%
%TD*%
%TA.AperFunction,ViaPad*%
%ADD31C,0.600000*%
%TD*%
%TA.AperFunction,ViaPad*%
%ADD32C,0.700000*%
%TD*%
%TA.AperFunction,Conductor*%
%ADD33C,0.762000*%
%TD*%
%TA.AperFunction,Conductor*%
%ADD34C,0.304800*%
%TD*%
G04 APERTURE END LIST*
D10*
%TO.P,D5,1,K*%
%TO.N,/5V_AFT2*%
X87000000Y-148250000D03*
%TO.P,D5,2,A*%
%TO.N,/5V_AFT1*%
X83000000Y-148250000D03*
%TD*%
D11*
%TO.P,J3,1,Pin_1*%
%TO.N,+5V*%
X83225000Y-143250000D03*
D12*
%TO.P,J3,2,Pin_2*%
%TO.N,/5V_AFT1*%
X85765000Y-143250000D03*
%TD*%
D13*
%TO.P,R1,1*%
%TO.N,Net-(D1-A)*%
X80974000Y-127508000D03*
%TO.P,R1,2*%
%TO.N,GND*%
X84074000Y-127508000D03*
%TD*%
D14*
%TO.P,Q2,1,G*%
%TO.N,Net-(D1-A)*%
X82984000Y-123310000D03*
D15*
%TO.P,Q2,2,D*%
%TO.N,/PWRB*%
X78359000Y-122555000D03*
X78359000Y-119505000D03*
D16*
X76684000Y-121030000D03*
D15*
X75009000Y-122555000D03*
X75009000Y-119505000D03*
D14*
%TO.P,Q2,3,S*%
%TO.N,VIN*%
X82984000Y-118750000D03*
%TD*%
D17*
%TO.P,J1,62,+3V3*%
%TO.N,+3V3*%
X116165000Y-60460000D03*
%TO.P,J1,61,+5V*%
%TO.N,+5V*%
X116165000Y-63000000D03*
%TO.P,J1,60,VOUT1*%
%TO.N,unconnected-(J1-VOUT1-Pad60)*%
X116165000Y-65540000D03*
%TO.P,J1,59,VOUT2*%
%TO.N,unconnected-(J1-VOUT2-Pad59)*%
X116165000Y-68080000D03*
%TO.P,J1,58,GND*%
%TO.N,GND*%
X116165000Y-70620000D03*
%TO.P,J1,57,GND*%
X74550000Y-70620000D03*
%TO.P,J1,56,GND*%
X74550000Y-68080000D03*
%TO.P,J1,55,GND*%
X74550000Y-65540000D03*
%TO.P,J1,54,VIN*%
%TO.N,VIN*%
X74550000Y-63000000D03*
%TO.P,J1,53,VIN*%
X74550000Y-60460000D03*
D18*
%TO.P,J1,48,SCL_GP48*%
%TO.N,GP48*%
X170050000Y-94446000D03*
%TO.P,J1,47,SDA_GP47*%
%TO.N,GP47*%
X170050000Y-96986000D03*
%TO.P,J1,46,GP46*%
%TO.N,GP46*%
X170050000Y-71840000D03*
%TO.P,J1,45,GP45*%
%TO.N,GP45*%
X170050000Y-66760000D03*
%TO.P,J1,42,GP42*%
%TO.N,GP42*%
X170050000Y-61680000D03*
%TO.P,J1,41,RX_GP41*%
%TO.N,GP41*%
X170050000Y-136610000D03*
%TO.P,J1,40,TX_GP40*%
%TO.N,GP40*%
X170050000Y-139150000D03*
%TO.P,J1,39,GP39*%
%TO.N,GP39*%
X170050000Y-64220000D03*
%TO.P,J1,38,GP38*%
%TO.N,GP38*%
X121790000Y-64220000D03*
%TO.P,J1,37,GP37*%
%TO.N,GP37*%
X121790000Y-66760000D03*
%TO.P,J1,36,GP36*%
%TO.N,GP36*%
X121790000Y-69300000D03*
%TO.P,J1,35,GP35*%
%TO.N,GP35*%
X121790000Y-71840000D03*
%TO.P,J1,32,+3V3*%
%TO.N,+3V3*%
X170050000Y-99526000D03*
D19*
%TO.P,J1,30,GND*%
%TO.N,GND*%
X170050000Y-102066000D03*
D18*
%TO.P,J1,29,NC*%
%TO.N,unconnected-(J1-NC-Pad29)*%
X121790000Y-103590000D03*
%TO.P,J1,28,IOREF*%
%TO.N,unconnected-(J1-IOREF-Pad28)*%
X121790000Y-106130000D03*
%TO.P,J1,27,~{RST}*%
%TO.N,~{RST}*%
X121790000Y-108670000D03*
%TO.P,J1,26,+3V3*%
%TO.N,+3V3*%
X121790000Y-111210000D03*
%TO.P,J1,25,+5V*%
%TO.N,+5V*%
X121790000Y-113750000D03*
D19*
%TO.P,J1,24,GND*%
%TO.N,GND*%
X121790000Y-116290000D03*
%TO.P,J1,23,GND*%
X121790000Y-118830000D03*
D18*
%TO.P,J1,22,VIN*%
%TO.N,VIN*%
X121790000Y-121370000D03*
%TO.P,J1,21,GP21*%
%TO.N,GP21*%
X170050000Y-69300000D03*
%TO.P,J1,18,GP18*%
%TO.N,GP18*%
X121790000Y-136610000D03*
%TO.P,J1,17,GP17*%
%TO.N,GP17*%
X121790000Y-134070000D03*
%TO.P,J1,16,GP16*%
%TO.N,GP16*%
X121790000Y-131530000D03*
%TO.P,J1,15,GP15*%
%TO.N,GP15*%
X121790000Y-128990000D03*
%TO.P,J1,14,GP14*%
%TO.N,GP14*%
X121790000Y-126450000D03*
%TO.P,J1,13,GP13*%
%TO.N,GP13*%
X170050000Y-104606000D03*
%TO.P,J1,12,GP12*%
%TO.N,GP12*%
X170050000Y-107146000D03*
%TO.P,J1,11,GP11*%
%TO.N,GP11*%
X170050000Y-109686000D03*
%TO.P,J1,10,GP10*%
%TO.N,GP10*%
X170050000Y-112226000D03*
%TO.P,J1,9,GP9*%
%TO.N,GP9*%
X170050000Y-114766000D03*
%TO.P,J1,8,GP8*%
%TO.N,GP8*%
X170050000Y-117306000D03*
%TO.P,J1,7,GP7*%
%TO.N,GP7*%
X170050000Y-121370000D03*
%TO.P,J1,6,GP6*%
%TO.N,GP6*%
X170050000Y-123910000D03*
%TO.P,J1,5,GP5*%
%TO.N,GP5*%
X170050000Y-126450000D03*
%TO.P,J1,4,GP4*%
%TO.N,GP4*%
X170050000Y-128990000D03*
%TO.P,J1,3,GP3*%
%TO.N,GP3*%
X170050000Y-131530000D03*
%TO.P,J1,2,GP2*%
%TO.N,GP2*%
X170050000Y-134070000D03*
%TO.P,J1,1,GP1*%
%TO.N,GP1*%
X121790000Y-139150000D03*
%TO.P,J1,0,GP0*%
%TO.N,GP0*%
X121790000Y-61680000D03*
%TD*%
D20*
%TO.P,J4,1,Pin_1*%
%TO.N,GND*%
X79500000Y-84765000D03*
D21*
%TO.P,J4,2,Pin_2*%
%TO.N,/PWRA*%
X79500000Y-79765000D03*
%TD*%
D22*
%TO.P,R4,1*%
%TO.N,+3V3*%
X83719000Y-135763000D03*
%TO.P,R4,2*%
%TO.N,Net-(D4-A)*%
X80619000Y-135763000D03*
%TD*%
D23*
%TO.P,D1,1,K*%
%TO.N,VIN*%
X74551000Y-127381000D03*
%TO.P,D1,2,A*%
%TO.N,Net-(D1-A)*%
X77851000Y-127381000D03*
%TD*%
D24*
%TO.P,D3,1,K*%
%TO.N,GND*%
X74484500Y-139954000D03*
%TO.P,D3,2,A*%
%TO.N,Net-(D3-A)*%
X77459500Y-139954000D03*
%TD*%
D25*
%TO.P,SW1,3,C*%
%TO.N,unconnected-(SW1-C-Pad3)*%
X78750000Y-113000000D03*
%TO.P,SW1,2,B*%
%TO.N,/PWRA*%
X78750000Y-109000000D03*
%TO.P,SW1,1,A*%
%TO.N,/PWRB*%
X78750000Y-105000000D03*
D26*
%TO.P,SW1,*%
%TO.N,*%
X74500000Y-115000000D03*
X80500000Y-115000000D03*
X74500000Y-103000000D03*
X80500000Y-103000000D03*
%TD*%
D24*
%TO.P,D4,1,K*%
%TO.N,GND*%
X74484500Y-135763000D03*
%TO.P,D4,2,A*%
%TO.N,Net-(D4-A)*%
X77459500Y-135763000D03*
%TD*%
%TO.P,D2,1,K*%
%TO.N,GND*%
X74495000Y-131572000D03*
%TO.P,D2,2,A*%
%TO.N,Net-(D2-A)*%
X77470000Y-131572000D03*
%TD*%
D27*
%TO.P,U1,44,GND*%
%TO.N,GND*%
X113360000Y-87640000D03*
%TO.P,U1,43,GPIO43/U0TXD*%
%TO.N,unconnected-(U1-GPIO43{slash}U0TXD-Pad43)*%
X113360000Y-90180000D03*
%TO.P,U1,42,GPIO44/U0RXD*%
%TO.N,unconnected-(U1-GPIO44{slash}U0RXD-Pad42)*%
X113360000Y-92720000D03*
%TO.P,U1,41,GPIO1/ADC1_CH0*%
%TO.N,GP1*%
X113360000Y-95260000D03*
%TO.P,U1,40,GPIO2/ADC1_CH1*%
%TO.N,GP2*%
X113360000Y-97800000D03*
%TO.P,U1,39,GPIO42/MTMS*%
%TO.N,GP42*%
X113360000Y-100340000D03*
%TO.P,U1,38,GPIO41/MTDI*%
%TO.N,GP41*%
X113360000Y-102880000D03*
%TO.P,U1,37,GPIO40/MTDO*%
%TO.N,GP40*%
X113360000Y-105420000D03*
%TO.P,U1,36,GPIO39/MTCK*%
%TO.N,GP39*%
X113360000Y-107960000D03*
%TO.P,U1,35,GPIO38*%
%TO.N,GP38*%
X113360000Y-110500000D03*
%TO.P,U1,34,GPIO37*%
%TO.N,GP37*%
X113360000Y-113040000D03*
%TO.P,U1,33,GPIO36*%
%TO.N,GP36*%
X113360000Y-115580000D03*
%TO.P,U1,32,GPIO35*%
%TO.N,GP35*%
X113360000Y-118120000D03*
%TO.P,U1,31,GPIO0*%
%TO.N,GP0*%
X113360000Y-120660000D03*
%TO.P,U1,30,GPIO45*%
%TO.N,GP45*%
X113360000Y-123200000D03*
%TO.P,U1,29,GPIO48*%
%TO.N,GP48*%
X113360000Y-125740000D03*
%TO.P,U1,28,GPIO47*%
%TO.N,GP47*%
X113360000Y-128280000D03*
%TO.P,U1,27,GPIO21*%
%TO.N,GP21*%
X113360000Y-130820000D03*
%TO.P,U1,26,GPIO20/USB_D+*%
%TO.N,unconnected-(U1-GPIO20{slash}USB_D+-Pad26)*%
X113360000Y-133360000D03*
%TO.P,U1,25,GPIO19/USB_D-*%
%TO.N,unconnected-(U1-GPIO19{slash}USB_D--Pad25)*%
X113360000Y-135900000D03*
%TO.P,U1,24,GND*%
%TO.N,GND*%
X113360000Y-138440000D03*
%TO.P,U1,23,GND*%
X113360000Y-140980000D03*
%TO.P,U1,22,GND*%
X90496320Y-140977280D03*
%TO.P,U1,21,5V*%
%TO.N,/5V_AFT2*%
X90496320Y-138437280D03*
%TO.P,U1,20,GPIO14/ADC2_CH3*%
%TO.N,GP14*%
X90496320Y-135897280D03*
%TO.P,U1,19,GPIO13/ADC2_CH2*%
%TO.N,GP13*%
X90500000Y-133360000D03*
%TO.P,U1,18,GPIO12/ADC2_CH1*%
%TO.N,GP12*%
X90500000Y-130820000D03*
%TO.P,U1,17,GPIO11/ADC2_CH0*%
%TO.N,GP11*%
X90500000Y-128280000D03*
%TO.P,U1,16,GPIO10/ADC1_CH9*%
%TO.N,GP10*%
X90500000Y-125740000D03*
%TO.P,U1,15,GPIO9/ADC1_CH8*%
%TO.N,GP9*%
X90500000Y-123200000D03*
%TO.P,U1,14,GPIO46*%
%TO.N,GP46*%
X90500000Y-120660000D03*
%TO.P,U1,13,GPIO3/ADC1_CH2*%
%TO.N,GP3*%
X90500000Y-118120000D03*
%TO.P,U1,12,GPIO8/ADC1_CH7*%
%TO.N,GP8*%
X90500000Y-115580000D03*
%TO.P,U1,11,GPIO18/ADC2_CH7*%
%TO.N,GP18*%
X90500000Y-113040000D03*
%TO.P,U1,10,GPIO17/ADC2_CH6*%
%TO.N,GP17*%
X90500000Y-110500000D03*
%TO.P,U1,9,GPIO16/ADC2_CH5/32K_N*%
%TO.N,GP16*%
X90500000Y-107960000D03*
%TO.P,U1,8,GPIO15/ADC2_CH4/32K_P*%
%TO.N,GP15*%
X90500000Y-105420000D03*
%TO.P,U1,7,GPIO7/ADC1_CH6*%
%TO.N,GP7*%
X90500000Y-102880000D03*
%TO.P,U1,6,GPIO6/ADC1_CH5*%
%TO.N,GP6*%
X90500000Y-100340000D03*
%TO.P,U1,5,GPIO5/ADC1_CH4*%
%TO.N,GP5*%
X90500000Y-97800000D03*
%TO.P,U1,4,GPIO4/ADC1_CH3*%
%TO.N,GP4*%
X90500000Y-95260000D03*
%TO.P,U1,3,CHIP_PU*%
%TO.N,~{RST}*%
X90500000Y-92720000D03*
%TO.P,U1,2,3V3*%
%TO.N,unconnected-(U1-3V3-Pad1)_0*%
X90500000Y-90180000D03*
D28*
%TO.P,U1,1,3V3*%
%TO.N,unconnected-(U1-3V3-Pad1)*%
X90500000Y-87640000D03*
%TD*%
D22*
%TO.P,R2,1*%
%TO.N,VIN*%
X83719000Y-131572000D03*
%TO.P,R2,2*%
%TO.N,Net-(D2-A)*%
X80619000Y-131572000D03*
%TD*%
%TO.P,R3,1*%
%TO.N,+5V*%
X83846000Y-139954000D03*
%TO.P,R3,2*%
%TO.N,Net-(D3-A)*%
X80746000Y-139954000D03*
%TD*%
D29*
%TO.P,J2,1*%
%TO.N,/PWRA*%
X81000000Y-93800000D03*
D30*
%TO.P,J2,2*%
%TO.N,GND*%
X75000000Y-93800000D03*
%TO.P,J2,3*%
X78000000Y-98500000D03*
%TD*%
D31*
%TO.N,GND*%
X73750000Y-146250000D03*
X81750000Y-145500000D03*
X82750000Y-101250000D03*
X82750000Y-103750000D03*
X82750000Y-106500000D03*
X82750000Y-108500000D03*
X82750000Y-110750000D03*
X90000000Y-147000000D03*
X90000000Y-148500000D03*
X91500000Y-147000000D03*
X91500000Y-148500000D03*
X93000000Y-149500000D03*
X93000000Y-140000000D03*
X93000000Y-142000000D03*
X95500000Y-142000000D03*
X101000000Y-149500000D03*
X99000000Y-149500000D03*
X97000000Y-149500000D03*
X95000000Y-149500000D03*
D32*
%TO.N,VIN*%
X102731800Y-123316900D03*
X99749500Y-120453600D03*
D31*
%TO.N,GND*%
X150000000Y-70000000D03*
X160000000Y-65000000D03*
X76000000Y-141750000D03*
X145000000Y-60000000D03*
X79000000Y-117000000D03*
X123750000Y-136500000D03*
X160000000Y-60000000D03*
X155000000Y-90000000D03*
X140000000Y-116000000D03*
X140000000Y-89000000D03*
X129000000Y-131750000D03*
X80500000Y-143000000D03*
X116000000Y-55250000D03*
X134000000Y-116000000D03*
X150000000Y-60000000D03*
X75500000Y-90000000D03*
X140000000Y-70000000D03*
X130000000Y-75000000D03*
X110000000Y-137000000D03*
X137500000Y-86000000D03*
X74000000Y-143000000D03*
X82169000Y-129413000D03*
X171000000Y-86000000D03*
X171000000Y-83500000D03*
X116500000Y-139500000D03*
X144250000Y-115750000D03*
X160000000Y-85000000D03*
X127800000Y-112600000D03*
X108000000Y-138500000D03*
X135000000Y-70000000D03*
X140000000Y-55000000D03*
X123600000Y-118400000D03*
X102600000Y-141000000D03*
X171000000Y-78000000D03*
X103000000Y-149500000D03*
X102000000Y-138500000D03*
X145000000Y-55000000D03*
X130000000Y-65000000D03*
X124400000Y-117200000D03*
X105800000Y-141000000D03*
X76500000Y-129250000D03*
X135000000Y-65000000D03*
X84328000Y-133731000D03*
X164750000Y-132000000D03*
X120250000Y-115250000D03*
X130000000Y-55000000D03*
X150000000Y-95000000D03*
X75500000Y-79500000D03*
X120000000Y-118800000D03*
X139500000Y-86000000D03*
X79500000Y-74000000D03*
X130000000Y-80000000D03*
X167500000Y-88500000D03*
X118000000Y-149000000D03*
X130000000Y-92500000D03*
X155000000Y-60000000D03*
X155000000Y-75000000D03*
X124000000Y-132000000D03*
X80500000Y-133500000D03*
X77000000Y-137750000D03*
X132500000Y-86000000D03*
X164000000Y-93000000D03*
D32*
X116000000Y-51500000D03*
D31*
X164500000Y-123500000D03*
X165000000Y-80000000D03*
X135000000Y-86000000D03*
X142000000Y-149000000D03*
X162000000Y-109000000D03*
X82750000Y-114500000D03*
X140000000Y-60000000D03*
X80500000Y-137750000D03*
X79200000Y-128800000D03*
X160000000Y-70000000D03*
X130000000Y-70000000D03*
X127750000Y-115000000D03*
X129500000Y-113000000D03*
X155000000Y-55000000D03*
X85217000Y-137795000D03*
X145000000Y-113000000D03*
X135000000Y-80000000D03*
X145000000Y-75000000D03*
X130000000Y-60000000D03*
X118600000Y-118800000D03*
X145600000Y-98800000D03*
X155000000Y-70000000D03*
X115400000Y-141400000D03*
X119250000Y-116750000D03*
X158000000Y-93000000D03*
X93000000Y-124000000D03*
X75500000Y-109500000D03*
X171000000Y-80500000D03*
X150000000Y-65000000D03*
X130000000Y-89000000D03*
X140000000Y-75000000D03*
X148000000Y-116000000D03*
X135000000Y-60000000D03*
X158000000Y-98500000D03*
X160000000Y-55000000D03*
X171000000Y-75500000D03*
X97000000Y-124000000D03*
X76500000Y-74000000D03*
X79000000Y-141500000D03*
X145000000Y-65000000D03*
X108200000Y-141000000D03*
X140000000Y-80000000D03*
X169000000Y-119500000D03*
X75500000Y-101000000D03*
X75500000Y-112500000D03*
X145000000Y-80000000D03*
X152000000Y-98500000D03*
X135000000Y-92500000D03*
X129000000Y-86000000D03*
X151000000Y-116000000D03*
X75500000Y-84500000D03*
X73750000Y-125000000D03*
X150000000Y-55000000D03*
X135000000Y-55000000D03*
X115400000Y-138400000D03*
X167500000Y-103500000D03*
X135000000Y-75000000D03*
X135000000Y-89000000D03*
X150000000Y-75000000D03*
X158000000Y-113000000D03*
X161750000Y-132000000D03*
X79100000Y-149500000D03*
X150000000Y-80000000D03*
X125000000Y-115000000D03*
X155000000Y-65000000D03*
X163000000Y-149000000D03*
X163500000Y-107500000D03*
X140000000Y-65000000D03*
X129000000Y-149000000D03*
X145000000Y-70000000D03*
%TO.N,GP6*%
X111301300Y-120809600D03*
X159593300Y-118894400D03*
%TO.N,GP3*%
X101767400Y-126770400D03*
%TO.N,GP17*%
X109412700Y-128572800D03*
%TO.N,GP8*%
X144000000Y-124781400D03*
%TO.N,GP48*%
X145617900Y-119735000D03*
%TO.N,GP40*%
X150733900Y-110158300D03*
%TO.N,GP14*%
X117633400Y-132460800D03*
%TO.N,GP37*%
X115905200Y-111303200D03*
%TO.N,GP7*%
X145500000Y-125624100D03*
X140038250Y-109961750D03*
%TO.N,GP46*%
X144250000Y-91250000D03*
X127500000Y-91250000D03*
%TO.N,GP12*%
X141959500Y-125500000D03*
%TO.N,GP4*%
X111809600Y-127092800D03*
X166000000Y-126500000D03*
%TO.N,GP16*%
X115278950Y-130221050D03*
%TO.N,GP5*%
X117242600Y-127478700D03*
%TO.N,GP1*%
X112133000Y-111369100D03*
X99832800Y-122104000D03*
%TO.N,GP41*%
X151688700Y-109947100D03*
%TO.N,GP21*%
X166750000Y-71250000D03*
%TO.N,GP11*%
X153057000Y-117307100D03*
%TO.N,GP13*%
X152703100Y-116120900D03*
%TO.N,GP15*%
X115572800Y-127610800D03*
%TO.N,GP2*%
X151928700Y-109047600D03*
%TO.N,GP47*%
X144361300Y-100960900D03*
%TD*%
D33*
%TO.N,/5V_AFT2*%
X87000000Y-148250000D02*
X87000000Y-146750000D01*
X88250000Y-139500000D02*
X89312720Y-138437280D01*
X87000000Y-146750000D02*
X88250000Y-145500000D01*
X88250000Y-145500000D02*
X88250000Y-139500000D01*
X89312720Y-138437280D02*
X90496320Y-138437280D01*
%TO.N,/5V_AFT1*%
X85250000Y-145500000D02*
X84000000Y-145500000D01*
X85765000Y-143250000D02*
X85765000Y-144985000D01*
X85765000Y-144985000D02*
X85250000Y-145500000D01*
X84000000Y-145500000D02*
X83000000Y-146500000D01*
X83000000Y-146500000D02*
X83000000Y-148250000D01*
%TO.N,+5V*%
X83846000Y-139954000D02*
X83846000Y-140904000D01*
X83846000Y-140904000D02*
X83225000Y-141525000D01*
X83225000Y-141525000D02*
X83225000Y-143250000D01*
X87058500Y-137941500D02*
X85046000Y-139954000D01*
X121790000Y-113750000D02*
X118603300Y-113750000D01*
X91333100Y-134630500D02*
X89270500Y-134630500D01*
X118603300Y-113750000D02*
X115503300Y-116850000D01*
X115503300Y-116850000D02*
X108317500Y-116850000D01*
X101768100Y-124195500D02*
X91333100Y-134630500D01*
X108317500Y-116850000D02*
X102814300Y-122353200D01*
X89270500Y-134630500D02*
X87058500Y-136842500D01*
X102814300Y-122353200D02*
X102332700Y-122353200D01*
X87058500Y-136842500D02*
X87058500Y-137941500D01*
X102332700Y-122353200D02*
X101768100Y-122917800D01*
X101768100Y-122917800D02*
X101768100Y-124195500D01*
X85046000Y-139954000D02*
X83846000Y-139954000D01*
D34*
%TO.N,Net-(D1-A)*%
X77672500Y-127477500D02*
X80927500Y-127477500D01*
X82423000Y-124587000D02*
X82550000Y-124587000D01*
X80927500Y-127477500D02*
X80927500Y-126082500D01*
X80927500Y-127477500D02*
X80950000Y-127500000D01*
X82984000Y-124153000D02*
X82984000Y-123310000D01*
X82550000Y-124587000D02*
X82984000Y-124153000D01*
X80927500Y-126082500D02*
X82423000Y-124587000D01*
D33*
%TO.N,VIN*%
X102803000Y-123388100D02*
X102731800Y-123316900D01*
X82984000Y-116660000D02*
X82984000Y-118750000D01*
X98354400Y-121848700D02*
X86360000Y-121848700D01*
X75730000Y-61730000D02*
X85000000Y-71000000D01*
X86360000Y-121848700D02*
X84616700Y-121848700D01*
X79728000Y-125250000D02*
X81026000Y-123952000D01*
X98354400Y-121848700D02*
X99749500Y-120453600D01*
X107546700Y-119451900D02*
X103610500Y-123388100D01*
X74550000Y-60460000D02*
X74550000Y-61730000D01*
X84616700Y-121848700D02*
X82984000Y-120216000D01*
X83719000Y-131572000D02*
X84836000Y-131572000D01*
X84836000Y-131572000D02*
X86360000Y-130048000D01*
X82984000Y-118750000D02*
X82984000Y-120216000D01*
X86360000Y-130048000D02*
X86360000Y-121848700D01*
X103610500Y-123388100D02*
X102803000Y-123388100D01*
X117432100Y-119451900D02*
X107546700Y-119451900D01*
X85000000Y-114644000D02*
X82984000Y-116660000D01*
X74550000Y-61730000D02*
X74550000Y-63000000D01*
X74551000Y-127381000D02*
X74551000Y-127656000D01*
X74551000Y-126199000D02*
X75500000Y-125250000D01*
X74550000Y-61730000D02*
X75730000Y-61730000D01*
X81026000Y-122174000D02*
X82984000Y-120216000D01*
X75500000Y-125250000D02*
X79728000Y-125250000D01*
X85000000Y-71000000D02*
X85000000Y-114644000D01*
X121790000Y-121370000D02*
X119350200Y-121370000D01*
X81026000Y-123952000D02*
X81026000Y-122174000D01*
X119350200Y-121370000D02*
X117432100Y-119451900D01*
X74551000Y-127381000D02*
X74551000Y-126199000D01*
D34*
%TO.N,Net-(D2-A)*%
X80619000Y-131572000D02*
X77470000Y-131572000D01*
D33*
%TO.N,GND*%
X125200000Y-116290000D02*
X121790000Y-116290000D01*
X132500000Y-86000000D02*
X132542100Y-86042100D01*
X129500000Y-113000000D02*
X127750000Y-114750000D01*
X132457900Y-86042100D02*
X132500000Y-86000000D01*
X139457900Y-86042100D02*
X139500000Y-86000000D01*
X139542100Y-86042100D02*
X139957900Y-86042100D01*
X128957900Y-86042100D02*
X129000000Y-86000000D01*
X132542100Y-86042100D02*
X134957900Y-86042100D01*
X121386400Y-86042100D02*
X116540600Y-86042100D01*
X135042100Y-86042100D02*
X137457900Y-86042100D01*
X134957900Y-86042100D02*
X135000000Y-86000000D01*
X139957900Y-86042100D02*
X140000000Y-86000000D01*
X129000000Y-86000000D02*
X129042100Y-86042100D01*
X127750000Y-114750000D02*
X127750000Y-115000000D01*
X137457900Y-86042100D02*
X137500000Y-86000000D01*
X137542100Y-86042100D02*
X139457900Y-86042100D01*
X126042100Y-86042100D02*
X128957900Y-86042100D01*
X126210000Y-116290000D02*
X125200000Y-116290000D01*
X74550000Y-68080000D02*
X74550000Y-70620000D01*
X126000000Y-86000000D02*
X126042100Y-86042100D01*
X113360000Y-87640000D02*
X114942700Y-87640000D01*
X116540600Y-86042100D02*
X114942700Y-87640000D01*
X121386400Y-86042100D02*
X125957900Y-86042100D01*
X125957900Y-86042100D02*
X126000000Y-86000000D01*
X135000000Y-86000000D02*
X135042100Y-86042100D01*
X129042100Y-86042100D02*
X132457900Y-86042100D01*
X158000000Y-113000000D02*
X145000000Y-113000000D01*
X127750000Y-115000000D02*
X127500000Y-115000000D01*
X127500000Y-115000000D02*
X126210000Y-116290000D01*
X113360000Y-138440000D02*
X113360000Y-140980000D01*
X145000000Y-113000000D02*
X129500000Y-113000000D01*
X121790000Y-116290000D02*
X121790000Y-118830000D01*
X170050000Y-102066000D02*
X168934000Y-102066000D01*
X168934000Y-102066000D02*
X158000000Y-113000000D01*
X137500000Y-86000000D02*
X137542100Y-86042100D01*
X74550000Y-65540000D02*
X74550000Y-68080000D01*
X139500000Y-86000000D02*
X139542100Y-86042100D01*
D34*
%TO.N,Net-(D3-A)*%
X80746000Y-139954000D02*
X77459500Y-139954000D01*
%TO.N,Net-(D4-A)*%
X80619000Y-135763000D02*
X77459500Y-135763000D01*
%TO.N,GP6*%
X111301300Y-120809600D02*
X112421700Y-121930000D01*
X122300500Y-122613000D02*
X126019100Y-118894400D01*
X114712600Y-121930000D02*
X115395600Y-122613000D01*
X112421700Y-121930000D02*
X114712600Y-121930000D01*
X126019100Y-118894400D02*
X159593300Y-118894400D01*
X115395600Y-122613000D02*
X122300500Y-122613000D01*
%TO.N,GP3*%
X167560800Y-130258500D02*
X118351400Y-130258500D01*
X108553500Y-126770400D02*
X101767400Y-126770400D01*
X117587900Y-129495000D02*
X111278100Y-129495000D01*
X168832300Y-131530000D02*
X167560800Y-130258500D01*
X118351400Y-130258500D02*
X117587900Y-129495000D01*
X111278100Y-129495000D02*
X108553500Y-126770400D01*
X170050000Y-131530000D02*
X168832300Y-131530000D01*
D33*
%TO.N,+3V3*%
X118798000Y-111210000D02*
X115781200Y-114226800D01*
X123236300Y-111210000D02*
X156919700Y-111210000D01*
X86614000Y-134620000D02*
X85471000Y-135763000D01*
X85471000Y-135763000D02*
X83719000Y-135763000D01*
X88890000Y-129550000D02*
X86614000Y-131826000D01*
X121790000Y-111210000D02*
X118798000Y-111210000D01*
X156919700Y-111210000D02*
X168603700Y-99526000D01*
X121790000Y-111210000D02*
X123236300Y-111210000D01*
X93773100Y-129550000D02*
X88890000Y-129550000D01*
X109096300Y-114226800D02*
X93773100Y-129550000D01*
X86614000Y-131826000D02*
X86614000Y-134620000D01*
X170050000Y-99526000D02*
X168603700Y-99526000D01*
X115781200Y-114226800D02*
X109096300Y-114226800D01*
D34*
%TO.N,GP17*%
X118240400Y-131738100D02*
X120572300Y-134070000D01*
X121790000Y-134070000D02*
X120572300Y-134070000D01*
X117336100Y-131738100D02*
X118240400Y-131738100D01*
X112565900Y-131808200D02*
X117266000Y-131808200D01*
X117266000Y-131808200D02*
X117336100Y-131738100D01*
X109412700Y-128572800D02*
X109412700Y-128655000D01*
X109412700Y-128655000D02*
X112565900Y-131808200D01*
%TO.N,GP42*%
X168750000Y-74000000D02*
X170250000Y-74000000D01*
X134881800Y-100500000D02*
X142250000Y-100500000D01*
X171430000Y-61680000D02*
X170050000Y-61680000D01*
X142250000Y-100500000D02*
X168750000Y-74000000D01*
X172000000Y-72250000D02*
X172000000Y-62250000D01*
X113360000Y-100340000D02*
X134721800Y-100340000D01*
X134721800Y-100340000D02*
X134881800Y-100500000D01*
X170250000Y-74000000D02*
X172000000Y-72250000D01*
X172000000Y-62250000D02*
X171430000Y-61680000D01*
%TO.N,GP8*%
X144000000Y-124781400D02*
X161356900Y-124781400D01*
X168832300Y-117306000D02*
X170050000Y-117306000D01*
X161356900Y-124781400D02*
X168832300Y-117306000D01*
%TO.N,GP48*%
X113360000Y-125740000D02*
X114714100Y-125740000D01*
X140637300Y-124715600D02*
X115738500Y-124715600D01*
X115738500Y-124715600D02*
X114714100Y-125740000D01*
X145617900Y-119735000D02*
X140637300Y-124715600D01*
%TO.N,GP40*%
X114714100Y-105420000D02*
X116643900Y-107349800D01*
X113360000Y-105420000D02*
X114714100Y-105420000D01*
X147925400Y-107349800D02*
X150733900Y-110158300D01*
X116643900Y-107349800D02*
X147925400Y-107349800D01*
%TO.N,GP14*%
X92996200Y-134751500D02*
X91850400Y-135897300D01*
X117633400Y-132460800D02*
X115342700Y-134751500D01*
X90496300Y-135897300D02*
X91850400Y-135897300D01*
X115342700Y-134751500D02*
X92996200Y-134751500D01*
%TO.N,GP37*%
X114168400Y-113040000D02*
X115905200Y-111303200D01*
X113360000Y-113040000D02*
X114168400Y-113040000D01*
%TO.N,GP7*%
X91854100Y-102880000D02*
X90500000Y-102880000D01*
X115799000Y-109908700D02*
X115391500Y-109501200D01*
X145500000Y-125624100D02*
X164578200Y-125624100D01*
X139985200Y-109908700D02*
X115799000Y-109908700D01*
X98475300Y-109501200D02*
X91854100Y-102880000D01*
X140038250Y-109961750D02*
X139985200Y-109908700D01*
X168832300Y-121370000D02*
X170050000Y-121370000D01*
X115391500Y-109501200D02*
X98475300Y-109501200D01*
X164578200Y-125624100D02*
X168832300Y-121370000D01*
%TO.N,~{RST}*%
X108084100Y-108950000D02*
X91854100Y-92720000D01*
X90500000Y-92720000D02*
X91854100Y-92720000D01*
X120292300Y-108950000D02*
X108084100Y-108950000D01*
X120572300Y-108670000D02*
X120292300Y-108950000D01*
X121790000Y-108670000D02*
X120572300Y-108670000D01*
%TO.N,GP46*%
X127500000Y-91250000D02*
X88750000Y-91250000D01*
X88410000Y-120660000D02*
X90500000Y-120660000D01*
X144250000Y-91250000D02*
X148150000Y-91250000D01*
X88750000Y-91250000D02*
X87500000Y-92500000D01*
X87500000Y-92500000D02*
X87500000Y-119750000D01*
X167560000Y-71840000D02*
X170050000Y-71840000D01*
X148150000Y-91250000D02*
X167560000Y-71840000D01*
X87500000Y-119750000D02*
X88410000Y-120660000D01*
%TO.N,GP12*%
X171146000Y-107146000D02*
X170050000Y-107146000D01*
X172000000Y-110000000D02*
X172000000Y-108000000D01*
X160772500Y-119576300D02*
X166500000Y-113848800D01*
X166500000Y-113000000D02*
X168598000Y-110902000D01*
X141959500Y-125500000D02*
X147883200Y-119576300D01*
X166500000Y-113848800D02*
X166500000Y-113000000D01*
X172000000Y-108000000D02*
X171146000Y-107146000D01*
X147883200Y-119576300D02*
X160772500Y-119576300D01*
X168598000Y-110902000D02*
X171098000Y-110902000D01*
X171098000Y-110902000D02*
X172000000Y-110000000D01*
%TO.N,GP4*%
X119561700Y-125227200D02*
X138538500Y-125227200D01*
X139635200Y-126323900D02*
X165823900Y-126323900D01*
X112204700Y-126697700D02*
X118091200Y-126697700D01*
X138538500Y-125227200D02*
X139635200Y-126323900D01*
X111809600Y-127092800D02*
X112204700Y-126697700D01*
X165823900Y-126323900D02*
X166000000Y-126500000D01*
X118091200Y-126697700D02*
X119561700Y-125227200D01*
%TO.N,GP16*%
X115278950Y-130221050D02*
X116083400Y-131025500D01*
X120572300Y-131530000D02*
X121790000Y-131530000D01*
X116083400Y-131025500D02*
X120067800Y-131025500D01*
X120067800Y-131025500D02*
X120572300Y-131530000D01*
%TO.N,GP5*%
X168832300Y-126450000D02*
X167612900Y-127669400D01*
X117433300Y-127669400D02*
X117242600Y-127478700D01*
X167612900Y-127669400D02*
X117433300Y-127669400D01*
X170050000Y-126450000D02*
X168832300Y-126450000D01*
%TO.N,GP1*%
X110567700Y-111369100D02*
X112133000Y-111369100D01*
X99832800Y-122104000D02*
X110567700Y-111369100D01*
%TO.N,GP39*%
X110500000Y-95500000D02*
X112010000Y-93990000D01*
X168780000Y-64220000D02*
X170050000Y-64220000D01*
X139062300Y-93990000D02*
X139062300Y-93937700D01*
X113360000Y-107960000D02*
X112005900Y-107960000D01*
X110500000Y-106454100D02*
X110500000Y-95500000D01*
X112005900Y-107960000D02*
X110500000Y-106454100D01*
X139062300Y-93937700D02*
X168780000Y-64220000D01*
X112010000Y-93990000D02*
X139062300Y-93990000D01*
%TO.N,GP41*%
X114714100Y-102880000D02*
X116694100Y-104860000D01*
X146601600Y-104860000D02*
X151688700Y-109947100D01*
X113360000Y-102880000D02*
X114714100Y-102880000D01*
X116694100Y-104860000D02*
X146601600Y-104860000D01*
%TO.N,GP21*%
X168700000Y-69300000D02*
X170050000Y-69300000D01*
X166750000Y-71250000D02*
X168700000Y-69300000D01*
%TO.N,GP11*%
X161211200Y-117307100D02*
X153057000Y-117307100D01*
X168832300Y-109686000D02*
X161211200Y-117307100D01*
X170050000Y-109686000D02*
X168832300Y-109686000D01*
%TO.N,GP13*%
X157317400Y-116120900D02*
X168832300Y-104606000D01*
X152703100Y-116120900D02*
X157317400Y-116120900D01*
X170050000Y-104606000D02*
X168832300Y-104606000D01*
%TO.N,GP15*%
X120067800Y-128485500D02*
X120572300Y-128990000D01*
X121790000Y-128990000D02*
X120572300Y-128990000D01*
X116447500Y-128485500D02*
X120067800Y-128485500D01*
X115572800Y-127610800D02*
X116447500Y-128485500D01*
%TO.N,GP2*%
X112500400Y-101615100D02*
X144496200Y-101615100D01*
X111500000Y-100614700D02*
X112500400Y-101615100D01*
X111500000Y-98500000D02*
X111500000Y-100614700D01*
X112200000Y-97800000D02*
X111500000Y-98500000D01*
X113360000Y-97800000D02*
X112200000Y-97800000D01*
X144496200Y-101615100D02*
X151928700Y-109047600D01*
%TO.N,GP47*%
X164857400Y-100960900D02*
X144361300Y-100960900D01*
X170050000Y-96986000D02*
X168832300Y-96986000D01*
X168832300Y-96986000D02*
X164857400Y-100960900D01*
D33*
%TO.N,/PWRB*%
X76684000Y-106316000D02*
X76684000Y-121030000D01*
X78000000Y-105000000D02*
X76684000Y-106316000D01*
X78750000Y-105000000D02*
X78000000Y-105000000D01*
%TD*%
%TA.AperFunction,Conductor*%
%TO.N,GND*%
G36*
X172168833Y-110857020D02*
G01*
X172224767Y-110898891D01*
X172249184Y-110964356D01*
X172249500Y-110973202D01*
X172249500Y-145497293D01*
X172249382Y-145502702D01*
X172232614Y-145886750D01*
X172231671Y-145897526D01*
X172181849Y-146275957D01*
X172179971Y-146286610D01*
X172097354Y-146659272D01*
X172094554Y-146669721D01*
X171979775Y-147033755D01*
X171976075Y-147043921D01*
X171830002Y-147396572D01*
X171825430Y-147406376D01*
X171649183Y-147744942D01*
X171643775Y-147754310D01*
X171438681Y-148076244D01*
X171432476Y-148085105D01*
X171200110Y-148387930D01*
X171193156Y-148396217D01*
X170935284Y-148677635D01*
X170927635Y-148685284D01*
X170646217Y-148943156D01*
X170637930Y-148950110D01*
X170335105Y-149182476D01*
X170326244Y-149188681D01*
X170004310Y-149393775D01*
X169994942Y-149399183D01*
X169656376Y-149575430D01*
X169646572Y-149580002D01*
X169293921Y-149726075D01*
X169283755Y-149729775D01*
X168919721Y-149844554D01*
X168909272Y-149847354D01*
X168536610Y-149929971D01*
X168525957Y-149931849D01*
X168147526Y-149981671D01*
X168136750Y-149982614D01*
X167752703Y-149999382D01*
X167747294Y-149999500D01*
X77752706Y-149999500D01*
X77747297Y-149999382D01*
X77363249Y-149982614D01*
X77352473Y-149981671D01*
X76974042Y-149931849D01*
X76963389Y-149929971D01*
X76590727Y-149847354D01*
X76580278Y-149844554D01*
X76216244Y-149729775D01*
X76206078Y-149726075D01*
X75853427Y-149580002D01*
X75843623Y-149575430D01*
X75505057Y-149399183D01*
X75495689Y-149393775D01*
X75173755Y-149188681D01*
X75164894Y-149182476D01*
X74862069Y-148950110D01*
X74853782Y-148943156D01*
X74572364Y-148685284D01*
X74564715Y-148677635D01*
X74306843Y-148396217D01*
X74299889Y-148387930D01*
X74067523Y-148085105D01*
X74061318Y-148076244D01*
X73856224Y-147754310D01*
X73850816Y-147744942D01*
X73749331Y-147549991D01*
X73674566Y-147406369D01*
X73669997Y-147396572D01*
X73523920Y-147043911D01*
X73520224Y-147033755D01*
X73405442Y-146669710D01*
X73402648Y-146659284D01*
X73320025Y-146286597D01*
X73318152Y-146275971D01*
X73268326Y-145897506D01*
X73267386Y-145886771D01*
X73266710Y-145871288D01*
X75899500Y-145871288D01*
X75929096Y-146096100D01*
X75931162Y-146111789D01*
X75962554Y-146228944D01*
X75993947Y-146346104D01*
X76070239Y-146530289D01*
X76086776Y-146570212D01*
X76208064Y-146780289D01*
X76208066Y-146780292D01*
X76208067Y-146780293D01*
X76355733Y-146972736D01*
X76355739Y-146972743D01*
X76527256Y-147144260D01*
X76527263Y-147144266D01*
X76640321Y-147231018D01*
X76719711Y-147291936D01*
X76929788Y-147413224D01*
X77153900Y-147506054D01*
X77388211Y-147568838D01*
X77568586Y-147592584D01*
X77628711Y-147600500D01*
X77628712Y-147600500D01*
X77871289Y-147600500D01*
X77919388Y-147594167D01*
X78111789Y-147568838D01*
X78346100Y-147506054D01*
X78570212Y-147413224D01*
X78780289Y-147291936D01*
X78972738Y-147144265D01*
X79144265Y-146972738D01*
X79291936Y-146780289D01*
X79413224Y-146570212D01*
X79506054Y-146346100D01*
X79568838Y-146111789D01*
X79600500Y-145871288D01*
X79600500Y-145628712D01*
X79568838Y-145388211D01*
X79506054Y-145153900D01*
X79413224Y-144929788D01*
X79291936Y-144719711D01*
X79144265Y-144527262D01*
X79144260Y-144527256D01*
X78972743Y-144355739D01*
X78972736Y-144355733D01*
X78780293Y-144208067D01*
X78780292Y-144208066D01*
X78780289Y-144208064D01*
X78603050Y-144105735D01*
X78570214Y-144086777D01*
X78570205Y-144086773D01*
X78346104Y-143993947D01*
X78111785Y-143931161D01*
X77871289Y-143899500D01*
X77871288Y-143899500D01*
X77628712Y-143899500D01*
X77628711Y-143899500D01*
X77388214Y-143931161D01*
X77153895Y-143993947D01*
X76929794Y-144086773D01*
X76929785Y-144086777D01*
X76747851Y-144191817D01*
X76720718Y-144207483D01*
X76719706Y-144208067D01*
X76527263Y-144355733D01*
X76527256Y-144355739D01*
X76355739Y-144527256D01*
X76355733Y-144527263D01*
X76208067Y-144719706D01*
X76086777Y-144929785D01*
X76086773Y-144929794D01*
X75993947Y-145153895D01*
X75931161Y-145388214D01*
X75899500Y-145628711D01*
X75899500Y-145871288D01*
X73266710Y-145871288D01*
X73250618Y-145502702D01*
X73250500Y-145497293D01*
X73250500Y-141167522D01*
X73270185Y-141100483D01*
X73322989Y-141054728D01*
X73392147Y-141044784D01*
X73455703Y-141073809D01*
X73462181Y-141079841D01*
X73553655Y-141171315D01*
X73702876Y-141263356D01*
X73702881Y-141263358D01*
X73869303Y-141318505D01*
X73869310Y-141318506D01*
X73972014Y-141328999D01*
X73972027Y-141329000D01*
X74234500Y-141329000D01*
X74234500Y-140204000D01*
X74734500Y-140204000D01*
X74734500Y-141329000D01*
X74996973Y-141329000D01*
X74996985Y-141328999D01*
X75099689Y-141318506D01*
X75099696Y-141318505D01*
X75266118Y-141263358D01*
X75266123Y-141263356D01*
X75415344Y-141171315D01*
X75539315Y-141047344D01*
X75631356Y-140898123D01*
X75631358Y-140898118D01*
X75686505Y-140731696D01*
X75686506Y-140731689D01*
X75696996Y-140629015D01*
X76246500Y-140629015D01*
X76257000Y-140731795D01*
X76257001Y-140731797D01*
X76258121Y-140735177D01*
X76312186Y-140898335D01*
X76312187Y-140898337D01*
X76404286Y-141047651D01*
X76404289Y-141047655D01*
X76528344Y-141171710D01*
X76528348Y-141171713D01*
X76677662Y-141263812D01*
X76677664Y-141263813D01*
X76677666Y-141263814D01*
X76844203Y-141318999D01*
X76946992Y-141329500D01*
X76946997Y-141329500D01*
X77972003Y-141329500D01*
X77972008Y-141329500D01*
X78074797Y-141318999D01*
X78241334Y-141263814D01*
X78390655Y-141171711D01*
X78514711Y-141047655D01*
X78606814Y-140898334D01*
X78661999Y-140731797D01*
X78663378Y-140718297D01*
X78689774Y-140653606D01*
X78746954Y-140613455D01*
X78786736Y-140606900D01*
X79481264Y-140606900D01*
X79548303Y-140626585D01*
X79594058Y-140679389D01*
X79604622Y-140718298D01*
X79606001Y-140731797D01*
X79606001Y-140731799D01*
X79661185Y-140898331D01*
X79661187Y-140898336D01*
X79679076Y-140927339D01*
X79753288Y-141047656D01*
X79877344Y-141171712D01*
X80026666Y-141263814D01*
X80193203Y-141318999D01*
X80295991Y-141329500D01*
X81196008Y-141329499D01*
X81196016Y-141329498D01*
X81196019Y-141329498D01*
X81252302Y-141323748D01*
X81298797Y-141318999D01*
X81465334Y-141263814D01*
X81614656Y-141171712D01*
X81738712Y-141047656D01*
X81830814Y-140898334D01*
X81885999Y-140731797D01*
X81896500Y-140629009D01*
X81896499Y-139278992D01*
X81885999Y-139176203D01*
X81830814Y-139009666D01*
X81738712Y-138860344D01*
X81614656Y-138736288D01*
X81465334Y-138644186D01*
X81298797Y-138589001D01*
X81298795Y-138589000D01*
X81196010Y-138578500D01*
X80295998Y-138578500D01*
X80295980Y-138578501D01*
X80193203Y-138589000D01*
X80193200Y-138589001D01*
X80026668Y-138644185D01*
X80026663Y-138644187D01*
X79877342Y-138736289D01*
X79753289Y-138860342D01*
X79661187Y-139009663D01*
X79661185Y-139009668D01*
X79637209Y-139082024D01*
X79613290Y-139154208D01*
X79606001Y-139176204D01*
X79606000Y-139176205D01*
X79604622Y-139189702D01*
X79578226Y-139254394D01*
X79521046Y-139294545D01*
X79481264Y-139301100D01*
X78786736Y-139301100D01*
X78719697Y-139281415D01*
X78673942Y-139228611D01*
X78663378Y-139189702D01*
X78661999Y-139176205D01*
X78661999Y-139176204D01*
X78661999Y-139176203D01*
X78606814Y-139009666D01*
X78606813Y-139009664D01*
X78606812Y-139009662D01*
X78514713Y-138860348D01*
X78514710Y-138860344D01*
X78390655Y-138736289D01*
X78390651Y-138736286D01*
X78241337Y-138644187D01*
X78241335Y-138644186D01*
X78158065Y-138616593D01*
X78074797Y-138589001D01*
X78074795Y-138589000D01*
X77972015Y-138578500D01*
X77972008Y-138578500D01*
X76946992Y-138578500D01*
X76946984Y-138578500D01*
X76844204Y-138589000D01*
X76844203Y-138589001D01*
X76677664Y-138644186D01*
X76677662Y-138644187D01*
X76528348Y-138736286D01*
X76528344Y-138736289D01*
X76404289Y-138860344D01*
X76404286Y-138860348D01*
X76312187Y-139009662D01*
X76312186Y-139009664D01*
X76257001Y-139176203D01*
X76257000Y-139176204D01*
X76246500Y-139278984D01*
X76246500Y-140629015D01*
X75696996Y-140629015D01*
X75696999Y-140628985D01*
X75697000Y-140628972D01*
X75697000Y-140204000D01*
X74734500Y-140204000D01*
X74234500Y-140204000D01*
X74234500Y-138579000D01*
X74734500Y-138579000D01*
X74734500Y-139704000D01*
X75697000Y-139704000D01*
X75697000Y-139279027D01*
X75696999Y-139279014D01*
X75686506Y-139176310D01*
X75686505Y-139176303D01*
X75631358Y-139009881D01*
X75631356Y-139009876D01*
X75539315Y-138860655D01*
X75415344Y-138736684D01*
X75266123Y-138644643D01*
X75266118Y-138644641D01*
X75099696Y-138589494D01*
X75099689Y-138589493D01*
X74996985Y-138579000D01*
X74734500Y-138579000D01*
X74234500Y-138579000D01*
X73972014Y-138579000D01*
X73869310Y-138589493D01*
X73869303Y-138589494D01*
X73702881Y-138644641D01*
X73702876Y-138644643D01*
X73553655Y-138736684D01*
X73462181Y-138828159D01*
X73400858Y-138861644D01*
X73331166Y-138856660D01*
X73275233Y-138814788D01*
X73250816Y-138749324D01*
X73250500Y-138740478D01*
X73250500Y-136976522D01*
X73270185Y-136909483D01*
X73322989Y-136863728D01*
X73392147Y-136853784D01*
X73455703Y-136882809D01*
X73462181Y-136888841D01*
X73553655Y-136980315D01*
X73702876Y-137072356D01*
X73702881Y-137072358D01*
X73869303Y-137127505D01*
X73869310Y-137127506D01*
X73972014Y-137137999D01*
X73972027Y-137138000D01*
X74234500Y-137138000D01*
X74234500Y-136013000D01*
X74734500Y-136013000D01*
X74734500Y-137138000D01*
X74996973Y-137138000D01*
X74996985Y-137137999D01*
X75099689Y-137127506D01*
X75099696Y-137127505D01*
X75266118Y-137072358D01*
X75266123Y-137072356D01*
X75415344Y-136980315D01*
X75539315Y-136856344D01*
X75631356Y-136707123D01*
X75631358Y-136707118D01*
X75686505Y-136540696D01*
X75686506Y-136540689D01*
X75696996Y-136438015D01*
X76246500Y-136438015D01*
X76257000Y-136540795D01*
X76257001Y-136540797D01*
X76268118Y-136574346D01*
X76312186Y-136707335D01*
X76312187Y-136707337D01*
X76404286Y-136856651D01*
X76404289Y-136856655D01*
X76528344Y-136980710D01*
X76528348Y-136980713D01*
X76677662Y-137072812D01*
X76677664Y-137072813D01*
X76677666Y-137072814D01*
X76844203Y-137127999D01*
X76946992Y-137138500D01*
X76946997Y-137138500D01*
X77972003Y-137138500D01*
X77972008Y-137138500D01*
X78074797Y-137127999D01*
X78241334Y-137072814D01*
X78390655Y-136980711D01*
X78514711Y-136856655D01*
X78606814Y-136707334D01*
X78661999Y-136540797D01*
X78663378Y-136527297D01*
X78689774Y-136462606D01*
X78746954Y-136422455D01*
X78786736Y-136415900D01*
X79354264Y-136415900D01*
X79421303Y-136435585D01*
X79467058Y-136488389D01*
X79477622Y-136527298D01*
X79479001Y-136540797D01*
X79479001Y-136540799D01*
X79532884Y-136703404D01*
X79534186Y-136707334D01*
X79626288Y-136856656D01*
X79750344Y-136980712D01*
X79899666Y-137072814D01*
X80066203Y-137127999D01*
X80168991Y-137138500D01*
X81069008Y-137138499D01*
X81069016Y-137138498D01*
X81069019Y-137138498D01*
X81125302Y-137132748D01*
X81171797Y-137127999D01*
X81338334Y-137072814D01*
X81487656Y-136980712D01*
X81611712Y-136856656D01*
X81703814Y-136707334D01*
X81758999Y-136540797D01*
X81769500Y-136438009D01*
X81769499Y-135087992D01*
X81758999Y-134985203D01*
X81703814Y-134818666D01*
X81611712Y-134669344D01*
X81487656Y-134545288D01*
X81338334Y-134453186D01*
X81171797Y-134398001D01*
X81171795Y-134398000D01*
X81069010Y-134387500D01*
X80168998Y-134387500D01*
X80168980Y-134387501D01*
X80066203Y-134398000D01*
X80066200Y-134398001D01*
X79899668Y-134453185D01*
X79899663Y-134453187D01*
X79750342Y-134545289D01*
X79626289Y-134669342D01*
X79534187Y-134818663D01*
X79534185Y-134818668D01*
X79479001Y-134985204D01*
X79479000Y-134985205D01*
X79477622Y-134998702D01*
X79451226Y-135063394D01*
X79394046Y-135103545D01*
X79354264Y-135110100D01*
X78786736Y-135110100D01*
X78719697Y-135090415D01*
X78673942Y-135037611D01*
X78663378Y-134998702D01*
X78661999Y-134985205D01*
X78661999Y-134985204D01*
X78661999Y-134985203D01*
X78606814Y-134818666D01*
X78606813Y-134818664D01*
X78606812Y-134818662D01*
X78514713Y-134669348D01*
X78514709Y-134669343D01*
X78390655Y-134545289D01*
X78390651Y-134545286D01*
X78241337Y-134453187D01*
X78241335Y-134453186D01*
X78158065Y-134425593D01*
X78074797Y-134398001D01*
X78074795Y-134398000D01*
X77972015Y-134387500D01*
X77972008Y-134387500D01*
X76946992Y-134387500D01*
X76946984Y-134387500D01*
X76844204Y-134398000D01*
X76844203Y-134398001D01*
X76677664Y-134453186D01*
X76677662Y-134453187D01*
X76528348Y-134545286D01*
X76528344Y-134545289D01*
X76404291Y-134669343D01*
X76404286Y-134669348D01*
X76312187Y-134818662D01*
X76312186Y-134818664D01*
X76257001Y-134985203D01*
X76257000Y-134985204D01*
X76246500Y-135087984D01*
X76246500Y-136438015D01*
X75696996Y-136438015D01*
X75696999Y-136437985D01*
X75697000Y-136437972D01*
X75697000Y-136013000D01*
X74734500Y-136013000D01*
X74234500Y-136013000D01*
X74234500Y-134388000D01*
X74734500Y-134388000D01*
X74734500Y-135513000D01*
X75697000Y-135513000D01*
X75697000Y-135088027D01*
X75696999Y-135088014D01*
X75686506Y-134985310D01*
X75686505Y-134985303D01*
X75631358Y-134818881D01*
X75631356Y-134818876D01*
X75539315Y-134669655D01*
X75415344Y-134545684D01*
X75266123Y-134453643D01*
X75266118Y-134453641D01*
X75099696Y-134398494D01*
X75099689Y-134398493D01*
X74996985Y-134388000D01*
X74734500Y-134388000D01*
X74234500Y-134388000D01*
X73972014Y-134388000D01*
X73869310Y-134398493D01*
X73869303Y-134398494D01*
X73702881Y-134453641D01*
X73702876Y-134453643D01*
X73553655Y-134545684D01*
X73462181Y-134637159D01*
X73400858Y-134670644D01*
X73331166Y-134665660D01*
X73275233Y-134623788D01*
X73250816Y-134558324D01*
X73250500Y-134549478D01*
X73250500Y-132775022D01*
X73270185Y-132707983D01*
X73322989Y-132662228D01*
X73392147Y-132652284D01*
X73455703Y-132681309D01*
X73462181Y-132687341D01*
X73564155Y-132789315D01*
X73713376Y-132881356D01*
X73713381Y-132881358D01*
X73879803Y-132936505D01*
X73879810Y-132936506D01*
X73982514Y-132946999D01*
X73982527Y-132947000D01*
X74245000Y-132947000D01*
X74245000Y-131822000D01*
X74745000Y-131822000D01*
X74745000Y-132947000D01*
X75007473Y-132947000D01*
X75007485Y-132946999D01*
X75110189Y-132936506D01*
X75110196Y-132936505D01*
X75276618Y-132881358D01*
X75276623Y-132881356D01*
X75425844Y-132789315D01*
X75549815Y-132665344D01*
X75641856Y-132516123D01*
X75641858Y-132516118D01*
X75697005Y-132349696D01*
X75697006Y-132349689D01*
X75707496Y-132247015D01*
X76257000Y-132247015D01*
X76267500Y-132349795D01*
X76267501Y-132349797D01*
X76268621Y-132353177D01*
X76322686Y-132516335D01*
X76322687Y-132516337D01*
X76414786Y-132665651D01*
X76414789Y-132665655D01*
X76538844Y-132789710D01*
X76538848Y-132789713D01*
X76688162Y-132881812D01*
X76688164Y-132881813D01*
X76688166Y-132881814D01*
X76854703Y-132936999D01*
X76957492Y-132947500D01*
X76957497Y-132947500D01*
X77982503Y-132947500D01*
X77982508Y-132947500D01*
X78085297Y-132936999D01*
X78251834Y-132881814D01*
X78401155Y-132789711D01*
X78525211Y-132665655D01*
X78617314Y-132516334D01*
X78672499Y-132349797D01*
X78673878Y-132336297D01*
X78700274Y-132271606D01*
X78757454Y-132231455D01*
X78797236Y-132224900D01*
X79354264Y-132224900D01*
X79421303Y-132244585D01*
X79467058Y-132297389D01*
X79477622Y-132336298D01*
X79479001Y-132349797D01*
X79479001Y-132349799D01*
X79534185Y-132516331D01*
X79534187Y-132516336D01*
X79536810Y-132520588D01*
X79626288Y-132665656D01*
X79750344Y-132789712D01*
X79899666Y-132881814D01*
X80066203Y-132936999D01*
X80168991Y-132947500D01*
X81069008Y-132947499D01*
X81069016Y-132947498D01*
X81069019Y-132947498D01*
X81125302Y-132941748D01*
X81171797Y-132936999D01*
X81338334Y-132881814D01*
X81487656Y-132789712D01*
X81611712Y-132665656D01*
X81703814Y-132516334D01*
X81758999Y-132349797D01*
X81769500Y-132247009D01*
X81769499Y-130896992D01*
X81758999Y-130794203D01*
X81703814Y-130627666D01*
X81611712Y-130478344D01*
X81487656Y-130354288D01*
X81394888Y-130297069D01*
X81338336Y-130262187D01*
X81338331Y-130262185D01*
X81281074Y-130243212D01*
X81171797Y-130207001D01*
X81171795Y-130207000D01*
X81069010Y-130196500D01*
X80168998Y-130196500D01*
X80168980Y-130196501D01*
X80066203Y-130207000D01*
X80066200Y-130207001D01*
X79899668Y-130262185D01*
X79899663Y-130262187D01*
X79750342Y-130354289D01*
X79626289Y-130478342D01*
X79534187Y-130627663D01*
X79534185Y-130627668D01*
X79479001Y-130794204D01*
X79479000Y-130794205D01*
X79477622Y-130807702D01*
X79451226Y-130872394D01*
X79394046Y-130912545D01*
X79354264Y-130919100D01*
X78797236Y-130919100D01*
X78730197Y-130899415D01*
X78684442Y-130846611D01*
X78673878Y-130807702D01*
X78672499Y-130794205D01*
X78672499Y-130794204D01*
X78672499Y-130794203D01*
X78617314Y-130627666D01*
X78617313Y-130627664D01*
X78617312Y-130627662D01*
X78525213Y-130478348D01*
X78525210Y-130478344D01*
X78401155Y-130354289D01*
X78401151Y-130354286D01*
X78251837Y-130262187D01*
X78251835Y-130262186D01*
X78168565Y-130234593D01*
X78085297Y-130207001D01*
X78085295Y-130207000D01*
X77982515Y-130196500D01*
X77982508Y-130196500D01*
X76957492Y-130196500D01*
X76957484Y-130196500D01*
X76854704Y-130207000D01*
X76854703Y-130207001D01*
X76688164Y-130262186D01*
X76688162Y-130262187D01*
X76538848Y-130354286D01*
X76538844Y-130354289D01*
X76414789Y-130478344D01*
X76414786Y-130478348D01*
X76322687Y-130627662D01*
X76322686Y-130627664D01*
X76267501Y-130794203D01*
X76267500Y-130794204D01*
X76257000Y-130896984D01*
X76257000Y-132247015D01*
X75707496Y-132247015D01*
X75707499Y-132246985D01*
X75707500Y-132246972D01*
X75707500Y-131822000D01*
X74745000Y-131822000D01*
X74245000Y-131822000D01*
X74245000Y-130197000D01*
X74745000Y-130197000D01*
X74745000Y-131322000D01*
X75707500Y-131322000D01*
X75707500Y-130897027D01*
X75707499Y-130897014D01*
X75697006Y-130794310D01*
X75697005Y-130794303D01*
X75641858Y-130627881D01*
X75641856Y-130627876D01*
X75549815Y-130478655D01*
X75425844Y-130354684D01*
X75276623Y-130262643D01*
X75276618Y-130262641D01*
X75110196Y-130207494D01*
X75110189Y-130207493D01*
X75007485Y-130197000D01*
X74745000Y-130197000D01*
X74245000Y-130197000D01*
X73982514Y-130197000D01*
X73879810Y-130207493D01*
X73879803Y-130207494D01*
X73713381Y-130262641D01*
X73713376Y-130262643D01*
X73564155Y-130354684D01*
X73462181Y-130456659D01*
X73400858Y-130490144D01*
X73331166Y-130485160D01*
X73275233Y-130443288D01*
X73250816Y-130377824D01*
X73250500Y-130368978D01*
X73250500Y-124482136D01*
X73270185Y-124415097D01*
X73322989Y-124369342D01*
X73392147Y-124359398D01*
X73413504Y-124364430D01*
X73414661Y-124364813D01*
X73414664Y-124364815D01*
X73581200Y-124419999D01*
X73683988Y-124430500D01*
X73683991Y-124430500D01*
X74773508Y-124430500D01*
X74840547Y-124450185D01*
X74886302Y-124502989D01*
X74896246Y-124572147D01*
X74867221Y-124635703D01*
X74861189Y-124642181D01*
X73866296Y-125637072D01*
X73866295Y-125637073D01*
X73769823Y-125781456D01*
X73703377Y-125941872D01*
X73703376Y-125941876D01*
X73690709Y-126005559D01*
X73684944Y-126034540D01*
X73669500Y-126112178D01*
X73669500Y-126660684D01*
X73663206Y-126699687D01*
X73610651Y-126858288D01*
X73600500Y-126957647D01*
X73600500Y-127804337D01*
X73600501Y-127804355D01*
X73610650Y-127903707D01*
X73610651Y-127903710D01*
X73663996Y-128064694D01*
X73664001Y-128064705D01*
X73753029Y-128209040D01*
X73753032Y-128209044D01*
X73872955Y-128328967D01*
X73872959Y-128328970D01*
X74017294Y-128417998D01*
X74017297Y-128417999D01*
X74017303Y-128418003D01*
X74178292Y-128471349D01*
X74210206Y-128474609D01*
X74210216Y-128474610D01*
X74245068Y-128483407D01*
X74293876Y-128503624D01*
X74293880Y-128503624D01*
X74293881Y-128503625D01*
X74464177Y-128537500D01*
X74464180Y-128537500D01*
X74637822Y-128537500D01*
X74808119Y-128503625D01*
X74808119Y-128503624D01*
X74808124Y-128503624D01*
X74808129Y-128503621D01*
X74808132Y-128503621D01*
X74856932Y-128483407D01*
X74891787Y-128474609D01*
X74923708Y-128471349D01*
X75084697Y-128418003D01*
X75229044Y-128328968D01*
X75348968Y-128209044D01*
X75438003Y-128064697D01*
X75491349Y-127903708D01*
X75501500Y-127804345D01*
X75501499Y-126957656D01*
X75491349Y-126858292D01*
X75491347Y-126858285D01*
X75438794Y-126699687D01*
X75432500Y-126660684D01*
X75432500Y-126615491D01*
X75452185Y-126548452D01*
X75468819Y-126527810D01*
X75828810Y-126167819D01*
X75890133Y-126134334D01*
X75916491Y-126131500D01*
X77224578Y-126131500D01*
X77291617Y-126151185D01*
X77337372Y-126203989D01*
X77347316Y-126273147D01*
X77318291Y-126336703D01*
X77289675Y-126361038D01*
X77172959Y-126433029D01*
X77172955Y-126433032D01*
X77053032Y-126552955D01*
X77053029Y-126552959D01*
X76964001Y-126697294D01*
X76963996Y-126697305D01*
X76910651Y-126858290D01*
X76900500Y-126957647D01*
X76900500Y-127804337D01*
X76900501Y-127804355D01*
X76910650Y-127903707D01*
X76910651Y-127903710D01*
X76963996Y-128064694D01*
X76964001Y-128064705D01*
X77053029Y-128209040D01*
X77053032Y-128209044D01*
X77172955Y-128328967D01*
X77172959Y-128328970D01*
X77317294Y-128417998D01*
X77317297Y-128417999D01*
X77317303Y-128418003D01*
X77478292Y-128471349D01*
X77577655Y-128481500D01*
X78124344Y-128481499D01*
X78124352Y-128481498D01*
X78124355Y-128481498D01*
X78191794Y-128474609D01*
X78223708Y-128471349D01*
X78384697Y-128418003D01*
X78529044Y-128328968D01*
X78648968Y-128209044D01*
X78653426Y-128201816D01*
X78661145Y-128189303D01*
X78713093Y-128142578D01*
X78766683Y-128130400D01*
X79706148Y-128130400D01*
X79773187Y-128150085D01*
X79818942Y-128202889D01*
X79829506Y-128241797D01*
X79834001Y-128285797D01*
X79834001Y-128285799D01*
X79871165Y-128397951D01*
X79889186Y-128452334D01*
X79981288Y-128601656D01*
X80105344Y-128725712D01*
X80254666Y-128817814D01*
X80421203Y-128872999D01*
X80523991Y-128883500D01*
X81424008Y-128883499D01*
X81424016Y-128883498D01*
X81424019Y-128883498D01*
X81480302Y-128877748D01*
X81526797Y-128872999D01*
X81693334Y-128817814D01*
X81842656Y-128725712D01*
X81966712Y-128601656D01*
X82058814Y-128452334D01*
X82113999Y-128285797D01*
X82124500Y-128183009D01*
X82124500Y-127758000D01*
X82924001Y-127758000D01*
X82924001Y-128182986D01*
X82934494Y-128285697D01*
X82989641Y-128452119D01*
X82989643Y-128452124D01*
X83081684Y-128601345D01*
X83205654Y-128725315D01*
X83354875Y-128817356D01*
X83354880Y-128817358D01*
X83521302Y-128872505D01*
X83521309Y-128872506D01*
X83624019Y-128882999D01*
X83823999Y-128882999D01*
X83824000Y-128882998D01*
X83824000Y-127758000D01*
X84324000Y-127758000D01*
X84324000Y-128882999D01*
X84523972Y-128882999D01*
X84523986Y-128882998D01*
X84626697Y-128872505D01*
X84793119Y-128817358D01*
X84793124Y-128817356D01*
X84942345Y-128725315D01*
X85066315Y-128601345D01*
X85158356Y-128452124D01*
X85158358Y-128452119D01*
X85213505Y-128285697D01*
X85213506Y-128285690D01*
X85223999Y-128182986D01*
X85224000Y-128182973D01*
X85224000Y-127758000D01*
X84324000Y-127758000D01*
X83824000Y-127758000D01*
X82924001Y-127758000D01*
X82124500Y-127758000D01*
X82124499Y-127258000D01*
X82924000Y-127258000D01*
X83824000Y-127258000D01*
X83824000Y-126133000D01*
X84324000Y-126133000D01*
X84324000Y-127258000D01*
X85223999Y-127258000D01*
X85223999Y-126833028D01*
X85223998Y-126833013D01*
X85213505Y-126730302D01*
X85158358Y-126563880D01*
X85158356Y-126563875D01*
X85066315Y-126414654D01*
X84942345Y-126290684D01*
X84793124Y-126198643D01*
X84793119Y-126198641D01*
X84626697Y-126143494D01*
X84626690Y-126143493D01*
X84523986Y-126133000D01*
X84324000Y-126133000D01*
X83824000Y-126133000D01*
X83624029Y-126133000D01*
X83624012Y-126133001D01*
X83521302Y-126143494D01*
X83354880Y-126198641D01*
X83354875Y-126198643D01*
X83205654Y-126290684D01*
X83081684Y-126414654D01*
X82989643Y-126563875D01*
X82989641Y-126563880D01*
X82934494Y-126730302D01*
X82934493Y-126730309D01*
X82924000Y-126833013D01*
X82924000Y-127258000D01*
X82124499Y-127258000D01*
X82124499Y-126832992D01*
X82118105Y-126770403D01*
X82113999Y-126730203D01*
X82113998Y-126730200D01*
X82103094Y-126697294D01*
X82058814Y-126563666D01*
X81966712Y-126414344D01*
X81842656Y-126290288D01*
X81842652Y-126290284D01*
X81840482Y-126288568D01*
X81839380Y-126287012D01*
X81837549Y-126285181D01*
X81837862Y-126284867D01*
X81800107Y-126231545D01*
X81796971Y-126161746D01*
X81829713Y-126103626D01*
X82687027Y-125246312D01*
X82734991Y-125217564D01*
X82734816Y-125217140D01*
X82737674Y-125215955D01*
X82738714Y-125215333D01*
X82740429Y-125214811D01*
X82740444Y-125214809D01*
X82859264Y-125165592D01*
X82866771Y-125160576D01*
X82881885Y-125150478D01*
X82937967Y-125113004D01*
X82966200Y-125094141D01*
X83491141Y-124569199D01*
X83560358Y-124465608D01*
X83613970Y-124420803D01*
X83663460Y-124410499D01*
X83884002Y-124410499D01*
X83884008Y-124410499D01*
X83986797Y-124399999D01*
X84153334Y-124344814D01*
X84302656Y-124252712D01*
X84426712Y-124128656D01*
X84518814Y-123979334D01*
X84573999Y-123812797D01*
X84584500Y-123710009D01*
X84584499Y-122909992D01*
X84580087Y-122866801D01*
X84592857Y-122798109D01*
X84640737Y-122747225D01*
X84703445Y-122730200D01*
X85354500Y-122730200D01*
X85421539Y-122749885D01*
X85467294Y-122802689D01*
X85478500Y-122854200D01*
X85478500Y-129631508D01*
X85458815Y-129698547D01*
X85442181Y-129719189D01*
X84785050Y-130376320D01*
X84723727Y-130409805D01*
X84654035Y-130404821D01*
X84609688Y-130376320D01*
X84587657Y-130354289D01*
X84587656Y-130354288D01*
X84494888Y-130297069D01*
X84438336Y-130262187D01*
X84438331Y-130262185D01*
X84381074Y-130243212D01*
X84271797Y-130207001D01*
X84271795Y-130207000D01*
X84169010Y-130196500D01*
X83268998Y-130196500D01*
X83268980Y-130196501D01*
X83166203Y-130207000D01*
X83166200Y-130207001D01*
X82999668Y-130262185D01*
X82999663Y-130262187D01*
X82850342Y-130354289D01*
X82726289Y-130478342D01*
X82634187Y-130627663D01*
X82634185Y-130627668D01*
X82624569Y-130656687D01*
X82579001Y-130794203D01*
X82579001Y-130794204D01*
X82579000Y-130794204D01*
X82568500Y-130896983D01*
X82568500Y-132247001D01*
X82568501Y-132247018D01*
X82579000Y-132349796D01*
X82579001Y-132349799D01*
X82634185Y-132516331D01*
X82634187Y-132516336D01*
X82636810Y-132520588D01*
X82726288Y-132665656D01*
X82850344Y-132789712D01*
X82999666Y-132881814D01*
X83166203Y-132936999D01*
X83268991Y-132947500D01*
X84169008Y-132947499D01*
X84169016Y-132947498D01*
X84169019Y-132947498D01*
X84225302Y-132941748D01*
X84271797Y-132936999D01*
X84438334Y-132881814D01*
X84587656Y-132789712D01*
X84711712Y-132665656D01*
X84803814Y-132516334D01*
X84803814Y-132516333D01*
X84806238Y-132512404D01*
X84858186Y-132465679D01*
X84911777Y-132453500D01*
X84922823Y-132453500D01*
X85037393Y-132430709D01*
X85093124Y-132419624D01*
X85173335Y-132386399D01*
X85253543Y-132353177D01*
X85253544Y-132353176D01*
X85253547Y-132353175D01*
X85397924Y-132256706D01*
X85520819Y-132133810D01*
X85582141Y-132100326D01*
X85651833Y-132105310D01*
X85707767Y-132147181D01*
X85732184Y-132212645D01*
X85732500Y-132221492D01*
X85732500Y-134203508D01*
X85712815Y-134270547D01*
X85696181Y-134291189D01*
X85142189Y-134845181D01*
X85080866Y-134878666D01*
X85054508Y-134881500D01*
X84911777Y-134881500D01*
X84844738Y-134861815D01*
X84806238Y-134822596D01*
X84803812Y-134818663D01*
X84711712Y-134669344D01*
X84587656Y-134545288D01*
X84438334Y-134453186D01*
X84271797Y-134398001D01*
X84271795Y-134398000D01*
X84169010Y-134387500D01*
X83268998Y-134387500D01*
X83268980Y-134387501D01*
X83166203Y-134398000D01*
X83166200Y-134398001D01*
X82999668Y-134453185D01*
X82999663Y-134453187D01*
X82850342Y-134545289D01*
X82726289Y-134669342D01*
X82634187Y-134818663D01*
X82634185Y-134818668D01*
X82614815Y-134877124D01*
X82579001Y-134985203D01*
X82579001Y-134985204D01*
X82579000Y-134985204D01*
X82568500Y-135087983D01*
X82568500Y-136438001D01*
X82568501Y-136438018D01*
X82579000Y-136540796D01*
X82579001Y-136540799D01*
X82632884Y-136703404D01*
X82634186Y-136707334D01*
X82726288Y-136856656D01*
X82850344Y-136980712D01*
X82999666Y-137072814D01*
X83166203Y-137127999D01*
X83268991Y-137138500D01*
X84169008Y-137138499D01*
X84169016Y-137138498D01*
X84169019Y-137138498D01*
X84225302Y-137132748D01*
X84271797Y-137127999D01*
X84438334Y-137072814D01*
X84587656Y-136980712D01*
X84711712Y-136856656D01*
X84803814Y-136707334D01*
X84803814Y-136707333D01*
X84806238Y-136703404D01*
X84858186Y-136656679D01*
X84911777Y-136644500D01*
X85557823Y-136644500D01*
X85710126Y-136614204D01*
X85728124Y-136610624D01*
X85888547Y-136544175D01*
X86020824Y-136455790D01*
X86087501Y-136434913D01*
X86154881Y-136453398D01*
X86201571Y-136505376D01*
X86212747Y-136574346D01*
X86211331Y-136583084D01*
X86180236Y-136739408D01*
X86180236Y-136739414D01*
X86177000Y-136755680D01*
X86177000Y-136755683D01*
X86177000Y-137525007D01*
X86157315Y-137592046D01*
X86140681Y-137612688D01*
X84953549Y-138799819D01*
X84892226Y-138833304D01*
X84822534Y-138828320D01*
X84778187Y-138799819D01*
X84714657Y-138736289D01*
X84714656Y-138736288D01*
X84565334Y-138644186D01*
X84398797Y-138589001D01*
X84398795Y-138589000D01*
X84296010Y-138578500D01*
X83395998Y-138578500D01*
X83395980Y-138578501D01*
X83293203Y-138589000D01*
X83293200Y-138589001D01*
X83126668Y-138644185D01*
X83126663Y-138644187D01*
X82977342Y-138736289D01*
X82853289Y-138860342D01*
X82761187Y-139009663D01*
X82761185Y-139009668D01*
X82737209Y-139082024D01*
X82706001Y-139176203D01*
X82706001Y-139176204D01*
X82706000Y-139176204D01*
X82695500Y-139278983D01*
X82695500Y-140629001D01*
X82695501Y-140629019D01*
X82706090Y-140732673D01*
X82693320Y-140801366D01*
X82670414Y-140832955D01*
X82540293Y-140963077D01*
X82483780Y-141047656D01*
X82443823Y-141107455D01*
X82377377Y-141267871D01*
X82377374Y-141267881D01*
X82343500Y-141438177D01*
X82343500Y-141791473D01*
X82323815Y-141858512D01*
X82271011Y-141904267D01*
X82262833Y-141907655D01*
X82132671Y-141956202D01*
X82132664Y-141956206D01*
X82017455Y-142042452D01*
X82017452Y-142042455D01*
X81931206Y-142157664D01*
X81931202Y-142157671D01*
X81880908Y-142292517D01*
X81874501Y-142352116D01*
X81874500Y-142352135D01*
X81874500Y-144147870D01*
X81874501Y-144147876D01*
X81880908Y-144207483D01*
X81931202Y-144342328D01*
X81931206Y-144342335D01*
X82017452Y-144457544D01*
X82017455Y-144457547D01*
X82132664Y-144543793D01*
X82132671Y-144543797D01*
X82267517Y-144594091D01*
X82267516Y-144594091D01*
X82274444Y-144594835D01*
X82327127Y-144600500D01*
X83353509Y-144600499D01*
X83420547Y-144620183D01*
X83466302Y-144672987D01*
X83476246Y-144742146D01*
X83447221Y-144805702D01*
X83441189Y-144812180D01*
X82315296Y-145938072D01*
X82315295Y-145938073D01*
X82218822Y-146082456D01*
X82152377Y-146242871D01*
X82152374Y-146242883D01*
X82124802Y-146381498D01*
X82124802Y-146381501D01*
X82118500Y-146413179D01*
X82118500Y-146725500D01*
X82098815Y-146792539D01*
X82046011Y-146838294D01*
X81994503Y-146849500D01*
X81950000Y-146849500D01*
X81949980Y-146849501D01*
X81847203Y-146860000D01*
X81847200Y-146860001D01*
X81680668Y-146915185D01*
X81680663Y-146915187D01*
X81531342Y-147007289D01*
X81407289Y-147131342D01*
X81315187Y-147280663D01*
X81315186Y-147280666D01*
X81260001Y-147447203D01*
X81260001Y-147447204D01*
X81260000Y-147447204D01*
X81249500Y-147549983D01*
X81249500Y-148950001D01*
X81249501Y-148950018D01*
X81260000Y-149052796D01*
X81260001Y-149052799D01*
X81315185Y-149219331D01*
X81315186Y-149219334D01*
X81407288Y-149368656D01*
X81531344Y-149492712D01*
X81680666Y-149584814D01*
X81847203Y-149639999D01*
X81949991Y-149650500D01*
X84050008Y-149650499D01*
X84152797Y-149639999D01*
X84319334Y-149584814D01*
X84468656Y-149492712D01*
X84592712Y-149368656D01*
X84684814Y-149219334D01*
X84739999Y-149052797D01*
X84750500Y-148950009D01*
X84750499Y-147549992D01*
X84746010Y-147506052D01*
X84739999Y-147447203D01*
X84739998Y-147447200D01*
X84724878Y-147401571D01*
X84684814Y-147280666D01*
X84592712Y-147131344D01*
X84468656Y-147007288D01*
X84319334Y-146915186D01*
X84152797Y-146860001D01*
X84152795Y-146860000D01*
X84146371Y-146857872D01*
X84147088Y-146855706D01*
X84095030Y-146827480D01*
X84061364Y-146766256D01*
X84066141Y-146696550D01*
X84094768Y-146651860D01*
X84328810Y-146417819D01*
X84390133Y-146384334D01*
X84416491Y-146381500D01*
X85336823Y-146381500D01*
X85451393Y-146358709D01*
X85507124Y-146347624D01*
X85654426Y-146286610D01*
X85667543Y-146281177D01*
X85667544Y-146281176D01*
X85667547Y-146281175D01*
X85811924Y-146184706D01*
X86449706Y-145546924D01*
X86546175Y-145402547D01*
X86612624Y-145242124D01*
X86630840Y-145150546D01*
X86646500Y-145071823D01*
X86646500Y-144329758D01*
X86666185Y-144262719D01*
X86682819Y-144242077D01*
X86717413Y-144207483D01*
X86803495Y-144121401D01*
X86939035Y-143927830D01*
X87038903Y-143713663D01*
X87100063Y-143485408D01*
X87120659Y-143250000D01*
X87120346Y-143246428D01*
X87100063Y-143014596D01*
X87100063Y-143014592D01*
X87038903Y-142786337D01*
X86939035Y-142572171D01*
X86803495Y-142378599D01*
X86803494Y-142378597D01*
X86636402Y-142211506D01*
X86636395Y-142211501D01*
X86442834Y-142075967D01*
X86442830Y-142075965D01*
X86387564Y-142050194D01*
X86228663Y-141976097D01*
X86228659Y-141976096D01*
X86228655Y-141976094D01*
X86000413Y-141914938D01*
X86000403Y-141914936D01*
X85765001Y-141894341D01*
X85764999Y-141894341D01*
X85529596Y-141914936D01*
X85529586Y-141914938D01*
X85301344Y-141976094D01*
X85301335Y-141976098D01*
X85087171Y-142075964D01*
X85087169Y-142075965D01*
X84893600Y-142211503D01*
X84771673Y-142333430D01*
X84710350Y-142366914D01*
X84640658Y-142361930D01*
X84584725Y-142320058D01*
X84567810Y-142289081D01*
X84518797Y-142157671D01*
X84518793Y-142157664D01*
X84432547Y-142042455D01*
X84432544Y-142042452D01*
X84317335Y-141956206D01*
X84317324Y-141956200D01*
X84296430Y-141948407D01*
X84240496Y-141906536D01*
X84216080Y-141841071D01*
X84230932Y-141772798D01*
X84252077Y-141744551D01*
X84530706Y-141465923D01*
X84549244Y-141438179D01*
X84627175Y-141321547D01*
X84651089Y-141263814D01*
X84665173Y-141229809D01*
X84709012Y-141175406D01*
X84714612Y-141171738D01*
X84714656Y-141171712D01*
X84838712Y-141047656D01*
X84930814Y-140898334D01*
X84930814Y-140898333D01*
X84933238Y-140894404D01*
X84985186Y-140847679D01*
X85038777Y-140835500D01*
X85132823Y-140835500D01*
X85247393Y-140812709D01*
X85303124Y-140801624D01*
X85383335Y-140768399D01*
X85463543Y-140735177D01*
X85463544Y-140735176D01*
X85463547Y-140735175D01*
X85607924Y-140638706D01*
X86652191Y-139594439D01*
X87243441Y-139003189D01*
X87304764Y-138969704D01*
X87374456Y-138974688D01*
X87430389Y-139016560D01*
X87454806Y-139082024D01*
X87445683Y-139138322D01*
X87402376Y-139242874D01*
X87402376Y-139242875D01*
X87402376Y-139242876D01*
X87387278Y-139318780D01*
X87387278Y-139318781D01*
X87368500Y-139413178D01*
X87368500Y-143242768D01*
X87367425Y-143246428D01*
X87368500Y-143257231D01*
X87368500Y-145083507D01*
X87348815Y-145150546D01*
X87332181Y-145171188D01*
X86315296Y-146188072D01*
X86315292Y-146188077D01*
X86285981Y-146231945D01*
X86278678Y-146242876D01*
X86256574Y-146275957D01*
X86218823Y-146332455D01*
X86152377Y-146492871D01*
X86152374Y-146492881D01*
X86118500Y-146663177D01*
X86118500Y-146725500D01*
X86098815Y-146792539D01*
X86046011Y-146838294D01*
X85994503Y-146849500D01*
X85950000Y-146849500D01*
X85949980Y-146849501D01*
X85847203Y-146860000D01*
X85847200Y-146860001D01*
X85680668Y-146915185D01*
X85680663Y-146915187D01*
X85531342Y-147007289D01*
X85407289Y-147131342D01*
X85315187Y-147280663D01*
X85315186Y-147280666D01*
X85260001Y-147447203D01*
X85260001Y-147447204D01*
X85260000Y-147447204D01*
X85249500Y-147549983D01*
X85249500Y-148950001D01*
X85249501Y-148950018D01*
X85260000Y-149052796D01*
X85260001Y-149052799D01*
X85315185Y-149219331D01*
X85315186Y-149219334D01*
X85407288Y-149368656D01*
X85531344Y-149492712D01*
X85680666Y-149584814D01*
X85847203Y-149639999D01*
X85949991Y-149650500D01*
X88050008Y-149650499D01*
X88152797Y-149639999D01*
X88319334Y-149584814D01*
X88468656Y-149492712D01*
X88592712Y-149368656D01*
X88684814Y-149219334D01*
X88739999Y-149052797D01*
X88750500Y-148950009D01*
X88750499Y-147549992D01*
X88746010Y-147506052D01*
X88739999Y-147447203D01*
X88739998Y-147447200D01*
X88724878Y-147401571D01*
X88684814Y-147280666D01*
X88592712Y-147131344D01*
X88468656Y-147007288D01*
X88319334Y-146915186D01*
X88319333Y-146915185D01*
X88319329Y-146915183D01*
X88317591Y-146914373D01*
X88316599Y-146913499D01*
X88313187Y-146911395D01*
X88313546Y-146910811D01*
X88265153Y-146868200D01*
X88246002Y-146801006D01*
X88266219Y-146734125D01*
X88282311Y-146714317D01*
X88934706Y-146061924D01*
X89031175Y-145917547D01*
X89043932Y-145886750D01*
X89097622Y-145757128D01*
X89097624Y-145757124D01*
X89123167Y-145628712D01*
X89124644Y-145621288D01*
X122399500Y-145621288D01*
X122431161Y-145861785D01*
X122493947Y-146096104D01*
X122586773Y-146320205D01*
X122586776Y-146320212D01*
X122708064Y-146530289D01*
X122708066Y-146530292D01*
X122708067Y-146530293D01*
X122855733Y-146722736D01*
X122855739Y-146722743D01*
X123027256Y-146894260D01*
X123027263Y-146894266D01*
X123054527Y-146915186D01*
X123219711Y-147041936D01*
X123429788Y-147163224D01*
X123653900Y-147256054D01*
X123888211Y-147318838D01*
X124068586Y-147342584D01*
X124128711Y-147350500D01*
X124128712Y-147350500D01*
X124371289Y-147350500D01*
X124419388Y-147344167D01*
X124611789Y-147318838D01*
X124846100Y-147256054D01*
X125070212Y-147163224D01*
X125280289Y-147041936D01*
X125472738Y-146894265D01*
X125644265Y-146722738D01*
X125791936Y-146530289D01*
X125913224Y-146320212D01*
X126006054Y-146096100D01*
X126068838Y-145861789D01*
X126100500Y-145621288D01*
X165899500Y-145621288D01*
X165931161Y-145861785D01*
X165993947Y-146096104D01*
X166086773Y-146320205D01*
X166086776Y-146320212D01*
X166208064Y-146530289D01*
X166208066Y-146530292D01*
X166208067Y-146530293D01*
X166355733Y-146722736D01*
X166355739Y-146722743D01*
X166527256Y-146894260D01*
X166527263Y-146894266D01*
X166554527Y-146915186D01*
X166719711Y-147041936D01*
X166929788Y-147163224D01*
X167153900Y-147256054D01*
X167388211Y-147318838D01*
X167568586Y-147342584D01*
X167628711Y-147350500D01*
X167628712Y-147350500D01*
X167871289Y-147350500D01*
X167919388Y-147344167D01*
X168111789Y-147318838D01*
X168346100Y-147256054D01*
X168570212Y-147163224D01*
X168780289Y-147041936D01*
X168972738Y-146894265D01*
X169144265Y-146722738D01*
X169291936Y-146530289D01*
X169413224Y-146320212D01*
X169506054Y-146096100D01*
X169568838Y-145861789D01*
X169600500Y-145621288D01*
X169600500Y-145378712D01*
X169568838Y-145138211D01*
X169506054Y-144903900D01*
X169413224Y-144679788D01*
X169291936Y-144469711D01*
X169144265Y-144277262D01*
X169144260Y-144277256D01*
X168972743Y-144105739D01*
X168972736Y-144105733D01*
X168780293Y-143958067D01*
X168780292Y-143958066D01*
X168780289Y-143958064D01*
X168570212Y-143836776D01*
X168570205Y-143836773D01*
X168346104Y-143743947D01*
X168111785Y-143681161D01*
X167871289Y-143649500D01*
X167871288Y-143649500D01*
X167628712Y-143649500D01*
X167628711Y-143649500D01*
X167388214Y-143681161D01*
X167153895Y-143743947D01*
X166929794Y-143836773D01*
X166929785Y-143836777D01*
X166719706Y-143958067D01*
X166527263Y-144105733D01*
X166527256Y-144105739D01*
X166355739Y-144277256D01*
X166355733Y-144277263D01*
X166208067Y-144469706D01*
X166086777Y-144679785D01*
X166086773Y-144679794D01*
X165993947Y-144903895D01*
X165931161Y-145138214D01*
X165899500Y-145378711D01*
X165899500Y-145621288D01*
X126100500Y-145621288D01*
X126100500Y-145378712D01*
X126068838Y-145138211D01*
X126006054Y-144903900D01*
X125913224Y-144679788D01*
X125791936Y-144469711D01*
X125644265Y-144277262D01*
X125644260Y-144277256D01*
X125472743Y-144105739D01*
X125472736Y-144105733D01*
X125280293Y-143958067D01*
X125280292Y-143958066D01*
X125280289Y-143958064D01*
X125070212Y-143836776D01*
X125070205Y-143836773D01*
X124846104Y-143743947D01*
X124611785Y-143681161D01*
X124371289Y-143649500D01*
X124371288Y-143649500D01*
X124128712Y-143649500D01*
X124128711Y-143649500D01*
X123888214Y-143681161D01*
X123653895Y-143743947D01*
X123429794Y-143836773D01*
X123429785Y-143836777D01*
X123219706Y-143958067D01*
X123027263Y-144105733D01*
X123027256Y-144105739D01*
X122855739Y-144277256D01*
X122855733Y-144277263D01*
X122708067Y-144469706D01*
X122586777Y-144679785D01*
X122586773Y-144679794D01*
X122493947Y-144903895D01*
X122431161Y-145138214D01*
X122399500Y-145378711D01*
X122399500Y-145621288D01*
X89124644Y-145621288D01*
X89131500Y-145586823D01*
X89131500Y-141867457D01*
X89151185Y-141800418D01*
X89203989Y-141754663D01*
X89273147Y-141744719D01*
X89336703Y-141773744D01*
X89343181Y-141779776D01*
X89379717Y-141816312D01*
X89519795Y-141918084D01*
X89674062Y-141996688D01*
X89838735Y-142050194D01*
X90009749Y-142077280D01*
X90246320Y-142077280D01*
X90246320Y-141292966D01*
X90250714Y-141297360D01*
X90341926Y-141350021D01*
X90443659Y-141377280D01*
X90548981Y-141377280D01*
X90650714Y-141350021D01*
X90741926Y-141297360D01*
X90746320Y-141292966D01*
X90746320Y-142077280D01*
X90982891Y-142077280D01*
X91153904Y-142050194D01*
X91318577Y-141996688D01*
X91472844Y-141918084D01*
X91612922Y-141816312D01*
X91735352Y-141693882D01*
X91837124Y-141553804D01*
X91915728Y-141399535D01*
X91969234Y-141234864D01*
X91970435Y-141227280D01*
X90812006Y-141227280D01*
X90816400Y-141222886D01*
X90869061Y-141131674D01*
X90896320Y-141029941D01*
X90896320Y-140924619D01*
X90869061Y-140822886D01*
X90816400Y-140731674D01*
X90814725Y-140729999D01*
X111885884Y-140729999D01*
X111885885Y-140730000D01*
X113044314Y-140730000D01*
X113039920Y-140734394D01*
X112987259Y-140825606D01*
X112960000Y-140927339D01*
X112960000Y-141032661D01*
X112987259Y-141134394D01*
X113039920Y-141225606D01*
X113044314Y-141230000D01*
X111885885Y-141230000D01*
X111887085Y-141237584D01*
X111940591Y-141402255D01*
X112019195Y-141556524D01*
X112120967Y-141696602D01*
X112243397Y-141819032D01*
X112383475Y-141920804D01*
X112537742Y-141999408D01*
X112702415Y-142052914D01*
X112873429Y-142080000D01*
X113110000Y-142080000D01*
X113110000Y-141295686D01*
X113114394Y-141300080D01*
X113205606Y-141352741D01*
X113307339Y-141380000D01*
X113412661Y-141380000D01*
X113514394Y-141352741D01*
X113605606Y-141300080D01*
X113610000Y-141295686D01*
X113610000Y-142080000D01*
X113846571Y-142080000D01*
X114017584Y-142052914D01*
X114182257Y-141999408D01*
X114336524Y-141920804D01*
X114476602Y-141819032D01*
X114599032Y-141696602D01*
X114700804Y-141556524D01*
X114779408Y-141402255D01*
X114832914Y-141237584D01*
X114834115Y-141230000D01*
X113675686Y-141230000D01*
X113680080Y-141225606D01*
X113732741Y-141134394D01*
X113760000Y-141032661D01*
X113760000Y-140927339D01*
X113732741Y-140825606D01*
X113680080Y-140734394D01*
X113675686Y-140730000D01*
X114834115Y-140730000D01*
X114834115Y-140729999D01*
X114832914Y-140722415D01*
X114779408Y-140557744D01*
X114700804Y-140403475D01*
X114599032Y-140263397D01*
X114476602Y-140140967D01*
X114336524Y-140039195D01*
X114182257Y-139960591D01*
X114017584Y-139907085D01*
X113846571Y-139880000D01*
X113610000Y-139880000D01*
X113610000Y-140664314D01*
X113605606Y-140659920D01*
X113514394Y-140607259D01*
X113412661Y-140580000D01*
X113307339Y-140580000D01*
X113205606Y-140607259D01*
X113114394Y-140659920D01*
X113110000Y-140664314D01*
X113110000Y-139880000D01*
X112873429Y-139880000D01*
X112702415Y-139907085D01*
X112537742Y-139960591D01*
X112383475Y-140039195D01*
X112243397Y-140140967D01*
X112120967Y-140263397D01*
X112019195Y-140403475D01*
X111940591Y-140557744D01*
X111887085Y-140722415D01*
X111885884Y-140729999D01*
X90814725Y-140729999D01*
X90812006Y-140727280D01*
X91970435Y-140727280D01*
X91970435Y-140727279D01*
X91969234Y-140719695D01*
X91915728Y-140555024D01*
X91837124Y-140400755D01*
X91735352Y-140260677D01*
X91612922Y-140138247D01*
X91472844Y-140036475D01*
X91318577Y-139957871D01*
X91153904Y-139904365D01*
X90982891Y-139877280D01*
X90746320Y-139877280D01*
X90746320Y-140661594D01*
X90741926Y-140657200D01*
X90650714Y-140604539D01*
X90548981Y-140577280D01*
X90443659Y-140577280D01*
X90341926Y-140604539D01*
X90250714Y-140657200D01*
X90246320Y-140661594D01*
X90246320Y-139877280D01*
X90009749Y-139877280D01*
X89838735Y-139904365D01*
X89674062Y-139957871D01*
X89519795Y-140036475D01*
X89379717Y-140138247D01*
X89343181Y-140174784D01*
X89281858Y-140208269D01*
X89212166Y-140203285D01*
X89156233Y-140161413D01*
X89131816Y-140095949D01*
X89131500Y-140087103D01*
X89131500Y-139916491D01*
X89151185Y-139849452D01*
X89167815Y-139828814D01*
X89521138Y-139475490D01*
X89582459Y-139442007D01*
X89652150Y-139446991D01*
X89665113Y-139452689D01*
X89673870Y-139457151D01*
X89673872Y-139457151D01*
X89673875Y-139457153D01*
X89838619Y-139510682D01*
X90009709Y-139537780D01*
X90009710Y-139537780D01*
X90982930Y-139537780D01*
X90982931Y-139537780D01*
X91154021Y-139510682D01*
X91318765Y-139457153D01*
X91473108Y-139378512D01*
X91613248Y-139276694D01*
X91735734Y-139154208D01*
X91837552Y-139014068D01*
X91916193Y-138859725D01*
X91969722Y-138694981D01*
X91996820Y-138523891D01*
X91996820Y-138350669D01*
X91971372Y-138189999D01*
X111885884Y-138189999D01*
X111885885Y-138190000D01*
X113044314Y-138190000D01*
X113039920Y-138194394D01*
X112987259Y-138285606D01*
X112960000Y-138387339D01*
X112960000Y-138492661D01*
X112987259Y-138594394D01*
X113039920Y-138685606D01*
X113044314Y-138690000D01*
X111885885Y-138690000D01*
X111887085Y-138697584D01*
X111940591Y-138862255D01*
X112019195Y-139016524D01*
X112120967Y-139156602D01*
X112243397Y-139279032D01*
X112383475Y-139380804D01*
X112537742Y-139459408D01*
X112702415Y-139512914D01*
X112873429Y-139540000D01*
X113110000Y-139540000D01*
X113110000Y-138755686D01*
X113114394Y-138760080D01*
X113205606Y-138812741D01*
X113307339Y-138840000D01*
X113412661Y-138840000D01*
X113514394Y-138812741D01*
X113605606Y-138760080D01*
X113610000Y-138755686D01*
X113610000Y-139540000D01*
X113846571Y-139540000D01*
X114017584Y-139512914D01*
X114182257Y-139459408D01*
X114336524Y-139380804D01*
X114476602Y-139279032D01*
X114599032Y-139156602D01*
X114700804Y-139016524D01*
X114779408Y-138862255D01*
X114832914Y-138697584D01*
X114834115Y-138690000D01*
X113675686Y-138690000D01*
X113680080Y-138685606D01*
X113732741Y-138594394D01*
X113760000Y-138492661D01*
X113760000Y-138387339D01*
X113732741Y-138285606D01*
X113680080Y-138194394D01*
X113675686Y-138190000D01*
X114834115Y-138190000D01*
X114834115Y-138189999D01*
X114832914Y-138182415D01*
X114779408Y-138017744D01*
X114700804Y-137863475D01*
X114599032Y-137723397D01*
X114476602Y-137600967D01*
X114336524Y-137499195D01*
X114182257Y-137420591D01*
X114017584Y-137367085D01*
X113846571Y-137340000D01*
X113610000Y-137340000D01*
X113610000Y-138124314D01*
X113605606Y-138119920D01*
X113514394Y-138067259D01*
X113412661Y-138040000D01*
X113307339Y-138040000D01*
X113205606Y-138067259D01*
X113114394Y-138119920D01*
X113110000Y-138124314D01*
X113110000Y-137340000D01*
X112873429Y-137340000D01*
X112702415Y-137367085D01*
X112537742Y-137420591D01*
X112383475Y-137499195D01*
X112243397Y-137600967D01*
X112120967Y-137723397D01*
X112019195Y-137863475D01*
X111940591Y-138017744D01*
X111887085Y-138182415D01*
X111885884Y-138189999D01*
X91971372Y-138189999D01*
X91969722Y-138179579D01*
X91916193Y-138014835D01*
X91837552Y-137860492D01*
X91735734Y-137720352D01*
X91613248Y-137597866D01*
X91473108Y-137496048D01*
X91318765Y-137417407D01*
X91154021Y-137363878D01*
X91154019Y-137363877D01*
X91154018Y-137363877D01*
X91003261Y-137340000D01*
X90982931Y-137336780D01*
X90009709Y-137336780D01*
X89989379Y-137340000D01*
X89838622Y-137363877D01*
X89673872Y-137417408D01*
X89519531Y-137496048D01*
X89487336Y-137519439D01*
X89469912Y-137532098D01*
X89404108Y-137555578D01*
X89397028Y-137555780D01*
X89225897Y-137555780D01*
X89055601Y-137589654D01*
X89055591Y-137589657D01*
X88895176Y-137656102D01*
X88750793Y-137752575D01*
X88065060Y-138438308D01*
X88003737Y-138471793D01*
X87934045Y-138466809D01*
X87878112Y-138424937D01*
X87853695Y-138359473D01*
X87862819Y-138303172D01*
X87882244Y-138256278D01*
X87891065Y-138234980D01*
X87906125Y-138198624D01*
X87940000Y-138028321D01*
X87940000Y-137854679D01*
X87940000Y-137258991D01*
X87959685Y-137191952D01*
X87976319Y-137171310D01*
X88410938Y-136736691D01*
X88872428Y-136275200D01*
X88933749Y-136241717D01*
X89003440Y-136246701D01*
X89059374Y-136288573D01*
X89074670Y-136315435D01*
X89076446Y-136319724D01*
X89125450Y-136415900D01*
X89155088Y-136474068D01*
X89256906Y-136614208D01*
X89379392Y-136736694D01*
X89519532Y-136838512D01*
X89673875Y-136917153D01*
X89838619Y-136970682D01*
X90009709Y-136997780D01*
X90009710Y-136997780D01*
X90982930Y-136997780D01*
X90982931Y-136997780D01*
X91154021Y-136970682D01*
X91318765Y-136917153D01*
X91473108Y-136838512D01*
X91613248Y-136736694D01*
X91735734Y-136614208D01*
X91745104Y-136601312D01*
X91800435Y-136558648D01*
X91845420Y-136550200D01*
X91914707Y-136550200D01*
X92029839Y-136527298D01*
X92040844Y-136525109D01*
X92159664Y-136475892D01*
X92166509Y-136471317D01*
X92166515Y-136471316D01*
X92166514Y-136471315D01*
X92179548Y-136462606D01*
X92266600Y-136404441D01*
X93230321Y-135440718D01*
X93291644Y-135407234D01*
X93318002Y-135404400D01*
X111793225Y-135404400D01*
X111860264Y-135424085D01*
X111906019Y-135476889D01*
X111915963Y-135546047D01*
X111911156Y-135566718D01*
X111886597Y-135642301D01*
X111866487Y-135769272D01*
X111859500Y-135813389D01*
X111859500Y-135986611D01*
X111886598Y-136157701D01*
X111940127Y-136322445D01*
X112018768Y-136476788D01*
X112120586Y-136616928D01*
X112243072Y-136739414D01*
X112383212Y-136841232D01*
X112537555Y-136919873D01*
X112702299Y-136973402D01*
X112873389Y-137000500D01*
X112873390Y-137000500D01*
X113846610Y-137000500D01*
X113846611Y-137000500D01*
X114017701Y-136973402D01*
X114182445Y-136919873D01*
X114336788Y-136841232D01*
X114476928Y-136739414D01*
X114599414Y-136616928D01*
X114701232Y-136476788D01*
X114779873Y-136322445D01*
X114833402Y-136157701D01*
X114860500Y-135986611D01*
X114860500Y-135813389D01*
X114833402Y-135642299D01*
X114808843Y-135566717D01*
X114806849Y-135496877D01*
X114842929Y-135437044D01*
X114905630Y-135406216D01*
X114926775Y-135404400D01*
X115407007Y-135404400D01*
X115491865Y-135387519D01*
X115533144Y-135379309D01*
X115651964Y-135330092D01*
X115758900Y-135258641D01*
X117735450Y-133282089D01*
X117796771Y-133248606D01*
X117809248Y-133246551D01*
X117812655Y-133246168D01*
X117982922Y-133186589D01*
X118135662Y-133090616D01*
X118263216Y-132963062D01*
X118288076Y-132923497D01*
X118340407Y-132877209D01*
X118409461Y-132866559D01*
X118473309Y-132894934D01*
X118480749Y-132901790D01*
X120156098Y-134577139D01*
X120156101Y-134577141D01*
X120263037Y-134648593D01*
X120313136Y-134669344D01*
X120313137Y-134669345D01*
X120313138Y-134669345D01*
X120381856Y-134697809D01*
X120381860Y-134697809D01*
X120381861Y-134697810D01*
X120507992Y-134722900D01*
X120507995Y-134722900D01*
X120520030Y-134722900D01*
X120587069Y-134742585D01*
X120623838Y-134779077D01*
X120683369Y-134870196D01*
X120709846Y-134910722D01*
X120850392Y-135063394D01*
X120862954Y-135077040D01*
X121041351Y-135215893D01*
X121069165Y-135230945D01*
X121118755Y-135280165D01*
X121133863Y-135348382D01*
X121109692Y-135413937D01*
X121069165Y-135449055D01*
X121041352Y-135464106D01*
X120862955Y-135602959D01*
X120862950Y-135602963D01*
X120709850Y-135769272D01*
X120709842Y-135769283D01*
X120586198Y-135958533D01*
X120495388Y-136165560D01*
X120439892Y-136384710D01*
X120421225Y-136609993D01*
X120421225Y-136610006D01*
X120439892Y-136835289D01*
X120495388Y-137054439D01*
X120586198Y-137261466D01*
X120709842Y-137450716D01*
X120709850Y-137450727D01*
X120862950Y-137617036D01*
X120862954Y-137617040D01*
X121041351Y-137755893D01*
X121069165Y-137770945D01*
X121118755Y-137820165D01*
X121133863Y-137888382D01*
X121109692Y-137953937D01*
X121069165Y-137989055D01*
X121041352Y-138004106D01*
X120862955Y-138142959D01*
X120862950Y-138142963D01*
X120709850Y-138309272D01*
X120709842Y-138309283D01*
X120586198Y-138498533D01*
X120495388Y-138705560D01*
X120439892Y-138924710D01*
X120421225Y-139149993D01*
X120421225Y-139150006D01*
X120439892Y-139375289D01*
X120495388Y-139594439D01*
X120586198Y-139801466D01*
X120709842Y-139990716D01*
X120709850Y-139990727D01*
X120862950Y-140157036D01*
X120862954Y-140157040D01*
X121041351Y-140295893D01*
X121240169Y-140403488D01*
X121240172Y-140403489D01*
X121453982Y-140476890D01*
X121453984Y-140476890D01*
X121453986Y-140476891D01*
X121676967Y-140514100D01*
X121676968Y-140514100D01*
X121903032Y-140514100D01*
X121903033Y-140514100D01*
X122126014Y-140476891D01*
X122339831Y-140403488D01*
X122538649Y-140295893D01*
X122717046Y-140157040D01*
X122816832Y-140048643D01*
X122870149Y-139990727D01*
X122870150Y-139990725D01*
X122870156Y-139990719D01*
X122993802Y-139801465D01*
X123084611Y-139594441D01*
X123140107Y-139375293D01*
X123151079Y-139242875D01*
X123158775Y-139150006D01*
X123158775Y-139149993D01*
X123140107Y-138924710D01*
X123140107Y-138924707D01*
X123084611Y-138705559D01*
X122993802Y-138498535D01*
X122989964Y-138492661D01*
X122870157Y-138309283D01*
X122870149Y-138309272D01*
X122717049Y-138142963D01*
X122717048Y-138142962D01*
X122717046Y-138142960D01*
X122538649Y-138004107D01*
X122538647Y-138004106D01*
X122538646Y-138004105D01*
X122538639Y-138004100D01*
X122510836Y-137989055D01*
X122461244Y-137939837D01*
X122446135Y-137871620D01*
X122470306Y-137806064D01*
X122510836Y-137770945D01*
X122538639Y-137755899D01*
X122538642Y-137755896D01*
X122538649Y-137755893D01*
X122717046Y-137617040D01*
X122816832Y-137508643D01*
X122870149Y-137450727D01*
X122870150Y-137450725D01*
X122870156Y-137450719D01*
X122993802Y-137261465D01*
X123084611Y-137054441D01*
X123140107Y-136835293D01*
X123150728Y-136707118D01*
X123158775Y-136610006D01*
X123158775Y-136609993D01*
X123140107Y-136384710D01*
X123140107Y-136384707D01*
X123084611Y-136165559D01*
X122993802Y-135958535D01*
X122870156Y-135769281D01*
X122870153Y-135769278D01*
X122870149Y-135769272D01*
X122717049Y-135602963D01*
X122717048Y-135602962D01*
X122717046Y-135602960D01*
X122538649Y-135464107D01*
X122538647Y-135464106D01*
X122538646Y-135464105D01*
X122538639Y-135464100D01*
X122510836Y-135449055D01*
X122461244Y-135399837D01*
X122446135Y-135331620D01*
X122470306Y-135266064D01*
X122510836Y-135230945D01*
X122538639Y-135215899D01*
X122538642Y-135215896D01*
X122538649Y-135215893D01*
X122717046Y-135077040D01*
X122870156Y-134910719D01*
X122993802Y-134721465D01*
X123084611Y-134514441D01*
X123140107Y-134295293D01*
X123147712Y-134203508D01*
X123158775Y-134070006D01*
X123158775Y-134069993D01*
X123145707Y-133912294D01*
X123140107Y-133844707D01*
X123084611Y-133625559D01*
X122993802Y-133418535D01*
X122870156Y-133229281D01*
X122870153Y-133229278D01*
X122870149Y-133229272D01*
X122717049Y-133062963D01*
X122717048Y-133062962D01*
X122717046Y-133062960D01*
X122538649Y-132924107D01*
X122538647Y-132924106D01*
X122538646Y-132924105D01*
X122538639Y-132924100D01*
X122510836Y-132909055D01*
X122461244Y-132859837D01*
X122446135Y-132791620D01*
X122470306Y-132726064D01*
X122510836Y-132690945D01*
X122538639Y-132675899D01*
X122538642Y-132675896D01*
X122538649Y-132675893D01*
X122717046Y-132537040D01*
X122870156Y-132370719D01*
X122993802Y-132181465D01*
X123084611Y-131974441D01*
X123140107Y-131755293D01*
X123158775Y-131530000D01*
X123158775Y-131529993D01*
X123140107Y-131304710D01*
X123140107Y-131304707D01*
X123084611Y-131085559D01*
X123084455Y-131085203D01*
X123084434Y-131085046D01*
X123082948Y-131080716D01*
X123083839Y-131080409D01*
X123075556Y-131015902D01*
X123105537Y-130952792D01*
X123164879Y-130915909D01*
X123198014Y-130911400D01*
X167238997Y-130911400D01*
X167306036Y-130931085D01*
X167326678Y-130947719D01*
X168416098Y-132037139D01*
X168416101Y-132037141D01*
X168523037Y-132108593D01*
X168584190Y-132133923D01*
X168584191Y-132133923D01*
X168584192Y-132133924D01*
X168634616Y-132154810D01*
X168641856Y-132157809D01*
X168641860Y-132157809D01*
X168641861Y-132157810D01*
X168767992Y-132182900D01*
X168767995Y-132182900D01*
X168780030Y-132182900D01*
X168847069Y-132202585D01*
X168883838Y-132239077D01*
X168956109Y-132349696D01*
X168969846Y-132370722D01*
X169122950Y-132537036D01*
X169122954Y-132537040D01*
X169301351Y-132675893D01*
X169329165Y-132690945D01*
X169378755Y-132740165D01*
X169393863Y-132808382D01*
X169369692Y-132873937D01*
X169329165Y-132909055D01*
X169301352Y-132924106D01*
X169122955Y-133062959D01*
X169122950Y-133062963D01*
X168969850Y-133229272D01*
X168969842Y-133229283D01*
X168846198Y-133418533D01*
X168755388Y-133625560D01*
X168699892Y-133844710D01*
X168681225Y-134069993D01*
X168681225Y-134070006D01*
X168699892Y-134295289D01*
X168755388Y-134514439D01*
X168846198Y-134721466D01*
X168969842Y-134910716D01*
X168969850Y-134910727D01*
X169110392Y-135063394D01*
X169122954Y-135077040D01*
X169301351Y-135215893D01*
X169329165Y-135230945D01*
X169378755Y-135280165D01*
X169393863Y-135348382D01*
X169369692Y-135413937D01*
X169329165Y-135449055D01*
X169301352Y-135464106D01*
X169122955Y-135602959D01*
X169122950Y-135602963D01*
X168969850Y-135769272D01*
X168969842Y-135769283D01*
X168846198Y-135958533D01*
X168755388Y-136165560D01*
X168699892Y-136384710D01*
X168681225Y-136609993D01*
X168681225Y-136610006D01*
X168699892Y-136835289D01*
X168755388Y-137054439D01*
X168846198Y-137261466D01*
X168969842Y-137450716D01*
X168969850Y-137450727D01*
X169122950Y-137617036D01*
X169122954Y-137617040D01*
X169301351Y-137755893D01*
X169329165Y-137770945D01*
X169378755Y-137820165D01*
X169393863Y-137888382D01*
X169369692Y-137953937D01*
X169329165Y-137989055D01*
X169301352Y-138004106D01*
X169122955Y-138142959D01*
X169122950Y-138142963D01*
X168969850Y-138309272D01*
X168969842Y-138309283D01*
X168846198Y-138498533D01*
X168755388Y-138705560D01*
X168699892Y-138924710D01*
X168681225Y-139149993D01*
X168681225Y-139150006D01*
X168699892Y-139375289D01*
X168755388Y-139594439D01*
X168846198Y-139801466D01*
X168969842Y-139990716D01*
X168969850Y-139990727D01*
X169122950Y-140157036D01*
X169122954Y-140157040D01*
X169301351Y-140295893D01*
X169500169Y-140403488D01*
X169500172Y-140403489D01*
X169713982Y-140476890D01*
X169713984Y-140476890D01*
X169713986Y-140476891D01*
X169936967Y-140514100D01*
X169936968Y-140514100D01*
X170163032Y-140514100D01*
X170163033Y-140514100D01*
X170386014Y-140476891D01*
X170599831Y-140403488D01*
X170798649Y-140295893D01*
X170977046Y-140157040D01*
X171076832Y-140048643D01*
X171130149Y-139990727D01*
X171130150Y-139990725D01*
X171130156Y-139990719D01*
X171253802Y-139801465D01*
X171344611Y-139594441D01*
X171400107Y-139375293D01*
X171411079Y-139242875D01*
X171418775Y-139150006D01*
X171418775Y-139149993D01*
X171400107Y-138924710D01*
X171400107Y-138924707D01*
X171344611Y-138705559D01*
X171253802Y-138498535D01*
X171249964Y-138492661D01*
X171130157Y-138309283D01*
X171130149Y-138309272D01*
X170977049Y-138142963D01*
X170977048Y-138142962D01*
X170977046Y-138142960D01*
X170798649Y-138004107D01*
X170798647Y-138004106D01*
X170798646Y-138004105D01*
X170798639Y-138004100D01*
X170770836Y-137989055D01*
X170721244Y-137939837D01*
X170706135Y-137871620D01*
X170730306Y-137806064D01*
X170770836Y-137770945D01*
X170798639Y-137755899D01*
X170798642Y-137755896D01*
X170798649Y-137755893D01*
X170977046Y-137617040D01*
X171076832Y-137508643D01*
X171130149Y-137450727D01*
X171130150Y-137450725D01*
X171130156Y-137450719D01*
X171253802Y-137261465D01*
X171344611Y-137054441D01*
X171400107Y-136835293D01*
X171410728Y-136707118D01*
X171418775Y-136610006D01*
X171418775Y-136609993D01*
X171400107Y-136384710D01*
X171400107Y-136384707D01*
X171344611Y-136165559D01*
X171253802Y-135958535D01*
X171130156Y-135769281D01*
X171130153Y-135769278D01*
X171130149Y-135769272D01*
X170977049Y-135602963D01*
X170977048Y-135602962D01*
X170977046Y-135602960D01*
X170798649Y-135464107D01*
X170798647Y-135464106D01*
X170798646Y-135464105D01*
X170798639Y-135464100D01*
X170770836Y-135449055D01*
X170721244Y-135399837D01*
X170706135Y-135331620D01*
X170730306Y-135266064D01*
X170770836Y-135230945D01*
X170798639Y-135215899D01*
X170798642Y-135215896D01*
X170798649Y-135215893D01*
X170977046Y-135077040D01*
X171130156Y-134910719D01*
X171253802Y-134721465D01*
X171344611Y-134514441D01*
X171400107Y-134295293D01*
X171407712Y-134203508D01*
X171418775Y-134070006D01*
X171418775Y-134069993D01*
X171405707Y-133912294D01*
X171400107Y-133844707D01*
X171344611Y-133625559D01*
X171253802Y-133418535D01*
X171130156Y-133229281D01*
X171130153Y-133229278D01*
X171130149Y-133229272D01*
X170977049Y-133062963D01*
X170977048Y-133062962D01*
X170977046Y-133062960D01*
X170798649Y-132924107D01*
X170798647Y-132924106D01*
X170798646Y-132924105D01*
X170798639Y-132924100D01*
X170770836Y-132909055D01*
X170721244Y-132859837D01*
X170706135Y-132791620D01*
X170730306Y-132726064D01*
X170770836Y-132690945D01*
X170798639Y-132675899D01*
X170798642Y-132675896D01*
X170798649Y-132675893D01*
X170977046Y-132537040D01*
X171130156Y-132370719D01*
X171253802Y-132181465D01*
X171344611Y-131974441D01*
X171400107Y-131755293D01*
X171418775Y-131530000D01*
X171418775Y-131529993D01*
X171400107Y-131304710D01*
X171400107Y-131304707D01*
X171344611Y-131085559D01*
X171253802Y-130878535D01*
X171238907Y-130855737D01*
X171158973Y-130733389D01*
X171130156Y-130689281D01*
X171130153Y-130689278D01*
X171130149Y-130689272D01*
X170977049Y-130522963D01*
X170977048Y-130522962D01*
X170977046Y-130522960D01*
X170798649Y-130384107D01*
X170798647Y-130384106D01*
X170798646Y-130384105D01*
X170798639Y-130384100D01*
X170770836Y-130369055D01*
X170721244Y-130319837D01*
X170706135Y-130251620D01*
X170730306Y-130186064D01*
X170770836Y-130150945D01*
X170798639Y-130135899D01*
X170798642Y-130135896D01*
X170798649Y-130135893D01*
X170977046Y-129997040D01*
X171130156Y-129830719D01*
X171253802Y-129641465D01*
X171344611Y-129434441D01*
X171400107Y-129215293D01*
X171418775Y-128990000D01*
X171418775Y-128989993D01*
X171404470Y-128817358D01*
X171400107Y-128764707D01*
X171344611Y-128545559D01*
X171253802Y-128338535D01*
X171246142Y-128326811D01*
X171169200Y-128209042D01*
X171130156Y-128149281D01*
X171130153Y-128149278D01*
X171130149Y-128149272D01*
X170977049Y-127982963D01*
X170977048Y-127982962D01*
X170977046Y-127982960D01*
X170798649Y-127844107D01*
X170798647Y-127844106D01*
X170798646Y-127844105D01*
X170798639Y-127844100D01*
X170770836Y-127829055D01*
X170721244Y-127779837D01*
X170706135Y-127711620D01*
X170730306Y-127646064D01*
X170770836Y-127610945D01*
X170798639Y-127595899D01*
X170798642Y-127595896D01*
X170798649Y-127595893D01*
X170977046Y-127457040D01*
X171098595Y-127325003D01*
X171130149Y-127290727D01*
X171130150Y-127290725D01*
X171130156Y-127290719D01*
X171253802Y-127101465D01*
X171344611Y-126894441D01*
X171400107Y-126675293D01*
X171414632Y-126500000D01*
X171418775Y-126450006D01*
X171418775Y-126449993D01*
X171401385Y-126240128D01*
X171400107Y-126224707D01*
X171344611Y-126005559D01*
X171253802Y-125798535D01*
X171252864Y-125797100D01*
X171148313Y-125637072D01*
X171130156Y-125609281D01*
X171130153Y-125609278D01*
X171130149Y-125609272D01*
X170977049Y-125442963D01*
X170977048Y-125442962D01*
X170977046Y-125442960D01*
X170798649Y-125304107D01*
X170798647Y-125304106D01*
X170798646Y-125304105D01*
X170798639Y-125304100D01*
X170770836Y-125289055D01*
X170721244Y-125239837D01*
X170706135Y-125171620D01*
X170730306Y-125106064D01*
X170770836Y-125070945D01*
X170798639Y-125055899D01*
X170798642Y-125055896D01*
X170798649Y-125055893D01*
X170977046Y-124917040D01*
X171130156Y-124750719D01*
X171253802Y-124561465D01*
X171344611Y-124354441D01*
X171400107Y-124135293D01*
X171413030Y-123979331D01*
X171418775Y-123910006D01*
X171418775Y-123909993D01*
X171402204Y-123710016D01*
X171400107Y-123684707D01*
X171344611Y-123465559D01*
X171253802Y-123258535D01*
X171242220Y-123240808D01*
X171189351Y-123159886D01*
X171130156Y-123069281D01*
X171130153Y-123069278D01*
X171130149Y-123069272D01*
X170977049Y-122902963D01*
X170977048Y-122902962D01*
X170977046Y-122902960D01*
X170798649Y-122764107D01*
X170798647Y-122764106D01*
X170798646Y-122764105D01*
X170798639Y-122764100D01*
X170770836Y-122749055D01*
X170721244Y-122699837D01*
X170706135Y-122631620D01*
X170730306Y-122566064D01*
X170770836Y-122530945D01*
X170798639Y-122515899D01*
X170798642Y-122515896D01*
X170798649Y-122515893D01*
X170977046Y-122377040D01*
X171130156Y-122210719D01*
X171253802Y-122021465D01*
X171344611Y-121814441D01*
X171400107Y-121595293D01*
X171418775Y-121370000D01*
X171418775Y-121369993D01*
X171404571Y-121198578D01*
X171400107Y-121144707D01*
X171344611Y-120925559D01*
X171253802Y-120718535D01*
X171252864Y-120717100D01*
X171158973Y-120573389D01*
X171130156Y-120529281D01*
X171130153Y-120529278D01*
X171130149Y-120529272D01*
X170977049Y-120362963D01*
X170977048Y-120362962D01*
X170977046Y-120362960D01*
X170798649Y-120224107D01*
X170761694Y-120204108D01*
X170599832Y-120116512D01*
X170599827Y-120116510D01*
X170386017Y-120043109D01*
X170217842Y-120015046D01*
X170163033Y-120005900D01*
X169936967Y-120005900D01*
X169892370Y-120013341D01*
X169713982Y-120043109D01*
X169500172Y-120116510D01*
X169500167Y-120116512D01*
X169301352Y-120224106D01*
X169122955Y-120362959D01*
X169122950Y-120362963D01*
X168969846Y-120529277D01*
X168883839Y-120660922D01*
X168830692Y-120706278D01*
X168780030Y-120717100D01*
X168767993Y-120717100D01*
X168641861Y-120742189D01*
X168641855Y-120742191D01*
X168523036Y-120791407D01*
X168416098Y-120862860D01*
X168416095Y-120862863D01*
X164344078Y-124934881D01*
X164282755Y-124968366D01*
X164256397Y-124971200D01*
X162389803Y-124971200D01*
X162322764Y-124951515D01*
X162277009Y-124898711D01*
X162267065Y-124829553D01*
X162296090Y-124765997D01*
X162302122Y-124759519D01*
X163378512Y-123683129D01*
X168852137Y-118209501D01*
X168913458Y-118176018D01*
X168983150Y-118181002D01*
X169031044Y-118213199D01*
X169122954Y-118313040D01*
X169301351Y-118451893D01*
X169500169Y-118559488D01*
X169500172Y-118559489D01*
X169713982Y-118632890D01*
X169713984Y-118632890D01*
X169713986Y-118632891D01*
X169936967Y-118670100D01*
X169936968Y-118670100D01*
X170163032Y-118670100D01*
X170163033Y-118670100D01*
X170386014Y-118632891D01*
X170599831Y-118559488D01*
X170798649Y-118451893D01*
X170977046Y-118313040D01*
X171130156Y-118146719D01*
X171253802Y-117957465D01*
X171344611Y-117750441D01*
X171400107Y-117531293D01*
X171411343Y-117395689D01*
X171418775Y-117306006D01*
X171418775Y-117305993D01*
X171400107Y-117080710D01*
X171400107Y-117080707D01*
X171344611Y-116861559D01*
X171253802Y-116654535D01*
X171252864Y-116653100D01*
X171133515Y-116470423D01*
X171130156Y-116465281D01*
X171130153Y-116465278D01*
X171130149Y-116465272D01*
X170977049Y-116298963D01*
X170977048Y-116298962D01*
X170977046Y-116298960D01*
X170798649Y-116160107D01*
X170798647Y-116160106D01*
X170798646Y-116160105D01*
X170798639Y-116160100D01*
X170770836Y-116145055D01*
X170721244Y-116095837D01*
X170706135Y-116027620D01*
X170730306Y-115962064D01*
X170770836Y-115926945D01*
X170798639Y-115911899D01*
X170798642Y-115911896D01*
X170798649Y-115911893D01*
X170977046Y-115773040D01*
X171130156Y-115606719D01*
X171253802Y-115417465D01*
X171344611Y-115210441D01*
X171400107Y-114991293D01*
X171418775Y-114766000D01*
X171418775Y-114765993D01*
X171400107Y-114540710D01*
X171400107Y-114540707D01*
X171344611Y-114321559D01*
X171253802Y-114114535D01*
X171218089Y-114059873D01*
X171191979Y-114019908D01*
X171130156Y-113925281D01*
X171130153Y-113925278D01*
X171130149Y-113925272D01*
X170977049Y-113758963D01*
X170977048Y-113758962D01*
X170977046Y-113758960D01*
X170798649Y-113620107D01*
X170798647Y-113620106D01*
X170798646Y-113620105D01*
X170798639Y-113620100D01*
X170770836Y-113605055D01*
X170721244Y-113555837D01*
X170706135Y-113487620D01*
X170730306Y-113422064D01*
X170770836Y-113386945D01*
X170798639Y-113371899D01*
X170798642Y-113371896D01*
X170798649Y-113371893D01*
X170977046Y-113233040D01*
X171130156Y-113066719D01*
X171253802Y-112877465D01*
X171344611Y-112670441D01*
X171400107Y-112451293D01*
X171418775Y-112226000D01*
X171418775Y-112225993D01*
X171404023Y-112047969D01*
X171400107Y-112000707D01*
X171344611Y-111781559D01*
X171293375Y-111664754D01*
X171284473Y-111595456D01*
X171314450Y-111532344D01*
X171359480Y-111500385D01*
X171368886Y-111496488D01*
X171407264Y-111480592D01*
X171514200Y-111409141D01*
X172037819Y-110885520D01*
X172099142Y-110852036D01*
X172168833Y-110857020D01*
G37*
%TD.AperFunction*%
%TA.AperFunction,Conductor*%
G36*
X99085317Y-122466922D02*
G01*
X99141251Y-122508792D01*
X99146979Y-122517132D01*
X99202982Y-122606260D01*
X99248914Y-122652192D01*
X99282399Y-122713515D01*
X99277415Y-122783207D01*
X99248914Y-122827554D01*
X93444289Y-128632181D01*
X93382966Y-128665666D01*
X93356608Y-128668500D01*
X92097871Y-128668500D01*
X92030832Y-128648815D01*
X91985077Y-128596011D01*
X91975133Y-128526853D01*
X91975398Y-128525103D01*
X92000500Y-128366611D01*
X92000500Y-128193389D01*
X91997832Y-128176542D01*
X91973402Y-128022299D01*
X91919873Y-127857555D01*
X91841232Y-127703212D01*
X91739414Y-127563072D01*
X91616928Y-127440586D01*
X91476788Y-127338768D01*
X91322445Y-127260127D01*
X91157701Y-127206598D01*
X91157699Y-127206597D01*
X91157698Y-127206597D01*
X91026271Y-127185781D01*
X90986611Y-127179500D01*
X90013389Y-127179500D01*
X89973728Y-127185781D01*
X89842302Y-127206597D01*
X89677552Y-127260128D01*
X89523211Y-127338768D01*
X89497841Y-127357201D01*
X89383072Y-127440586D01*
X89383070Y-127440588D01*
X89383069Y-127440588D01*
X89260588Y-127563069D01*
X89260588Y-127563070D01*
X89260586Y-127563072D01*
X89225804Y-127610945D01*
X89158768Y-127703211D01*
X89080128Y-127857552D01*
X89026597Y-128022302D01*
X88999500Y-128193389D01*
X88999500Y-128366611D01*
X88999499Y-128366611D01*
X89024602Y-128525103D01*
X89015647Y-128594396D01*
X88970651Y-128647848D01*
X88903899Y-128668487D01*
X88902129Y-128668500D01*
X88803177Y-128668500D01*
X88632881Y-128702374D01*
X88632871Y-128702377D01*
X88472456Y-128768822D01*
X88328073Y-128865295D01*
X88328072Y-128865296D01*
X87453181Y-129740188D01*
X87391858Y-129773673D01*
X87322166Y-129768689D01*
X87266233Y-129726817D01*
X87241816Y-129661353D01*
X87241500Y-129652507D01*
X87241500Y-125826610D01*
X88999500Y-125826610D01*
X89022576Y-125972311D01*
X89026598Y-125997701D01*
X89076468Y-126151185D01*
X89080128Y-126162447D01*
X89144389Y-126288568D01*
X89158768Y-126316788D01*
X89260586Y-126456928D01*
X89383072Y-126579414D01*
X89523212Y-126681232D01*
X89677555Y-126759873D01*
X89842299Y-126813402D01*
X90013389Y-126840500D01*
X90013390Y-126840500D01*
X90986610Y-126840500D01*
X90986611Y-126840500D01*
X91157701Y-126813402D01*
X91322445Y-126759873D01*
X91476788Y-126681232D01*
X91616928Y-126579414D01*
X91739414Y-126456928D01*
X91841232Y-126316788D01*
X91919873Y-126162445D01*
X91973402Y-125997701D01*
X92000500Y-125826611D01*
X92000500Y-125653389D01*
X91973402Y-125482299D01*
X91919873Y-125317555D01*
X91841232Y-125163212D01*
X91739414Y-125023072D01*
X91616928Y-124900586D01*
X91476788Y-124798768D01*
X91322445Y-124720127D01*
X91157701Y-124666598D01*
X91157699Y-124666597D01*
X91157698Y-124666597D01*
X91003538Y-124642181D01*
X90986611Y-124639500D01*
X90013389Y-124639500D01*
X89996462Y-124642181D01*
X89842302Y-124666597D01*
X89677552Y-124720128D01*
X89523211Y-124798768D01*
X89480840Y-124829553D01*
X89383072Y-124900586D01*
X89383070Y-124900588D01*
X89383069Y-124900588D01*
X89260588Y-125023069D01*
X89260588Y-125023070D01*
X89260586Y-125023072D01*
X89236736Y-125055899D01*
X89158768Y-125163211D01*
X89080128Y-125317552D01*
X89080127Y-125317554D01*
X89080127Y-125317555D01*
X89077539Y-125325520D01*
X89026597Y-125482302D01*
X88999500Y-125653389D01*
X88999500Y-125826610D01*
X87241500Y-125826610D01*
X87241500Y-122854200D01*
X87261185Y-122787161D01*
X87313989Y-122741406D01*
X87365500Y-122730200D01*
X88924842Y-122730200D01*
X88991881Y-122749885D01*
X89037636Y-122802689D01*
X89047580Y-122871847D01*
X89042773Y-122892518D01*
X89026597Y-122942301D01*
X89006487Y-123069272D01*
X88999500Y-123113389D01*
X88999500Y-123286611D01*
X89026598Y-123457701D01*
X89080127Y-123622445D01*
X89158768Y-123776788D01*
X89260586Y-123916928D01*
X89383072Y-124039414D01*
X89523212Y-124141232D01*
X89677555Y-124219873D01*
X89842299Y-124273402D01*
X90013389Y-124300500D01*
X90013390Y-124300500D01*
X90986610Y-124300500D01*
X90986611Y-124300500D01*
X91157701Y-124273402D01*
X91322445Y-124219873D01*
X91476788Y-124141232D01*
X91616928Y-124039414D01*
X91739414Y-123916928D01*
X91841232Y-123776788D01*
X91919873Y-123622445D01*
X91973402Y-123457701D01*
X92000500Y-123286611D01*
X92000500Y-123113389D01*
X91973402Y-122942299D01*
X91957226Y-122892517D01*
X91955232Y-122822677D01*
X91991313Y-122762844D01*
X92054014Y-122732016D01*
X92075158Y-122730200D01*
X98441223Y-122730200D01*
X98593863Y-122699837D01*
X98611524Y-122696324D01*
X98727267Y-122648382D01*
X98771943Y-122629877D01*
X98771944Y-122629876D01*
X98771947Y-122629875D01*
X98916324Y-122533406D01*
X98954304Y-122495425D01*
X99015625Y-122461939D01*
X99085317Y-122466922D01*
G37*
%TD.AperFunction*%
%TA.AperFunction,Conductor*%
G36*
X76169953Y-63422030D02*
G01*
X76194361Y-63440991D01*
X83963681Y-71210310D01*
X83997166Y-71271633D01*
X84000000Y-71297991D01*
X84000000Y-114346007D01*
X83980315Y-114413046D01*
X83963681Y-114433688D01*
X82299296Y-116098072D01*
X82299295Y-116098073D01*
X82202823Y-116242456D01*
X82136377Y-116402872D01*
X82136374Y-116402882D01*
X82125098Y-116459572D01*
X82102500Y-116573177D01*
X82102500Y-117535631D01*
X82082815Y-117602670D01*
X82030011Y-117648425D01*
X81991108Y-117658988D01*
X81981209Y-117659999D01*
X81981200Y-117660001D01*
X81814668Y-117715185D01*
X81814663Y-117715187D01*
X81665342Y-117807289D01*
X81541289Y-117931342D01*
X81449187Y-118080663D01*
X81449185Y-118080668D01*
X81421349Y-118164670D01*
X81394001Y-118247203D01*
X81394001Y-118247204D01*
X81394000Y-118247204D01*
X81383500Y-118349983D01*
X81383500Y-119150001D01*
X81383501Y-119150019D01*
X81394000Y-119252796D01*
X81394001Y-119252799D01*
X81449185Y-119419331D01*
X81449186Y-119419334D01*
X81541288Y-119568656D01*
X81665344Y-119692712D01*
X81814666Y-119784814D01*
X81889646Y-119809660D01*
X81947090Y-119849431D01*
X81973914Y-119913947D01*
X81961599Y-119982723D01*
X81938323Y-120015046D01*
X80596181Y-121357189D01*
X80534858Y-121390674D01*
X80465166Y-121385690D01*
X80409233Y-121343818D01*
X80384816Y-121278354D01*
X80384500Y-121269508D01*
X80384500Y-118329993D01*
X80384499Y-118329980D01*
X80383051Y-118315803D01*
X80373999Y-118227200D01*
X80318815Y-118060664D01*
X80318811Y-118060658D01*
X80318810Y-118060655D01*
X80226714Y-117911346D01*
X80226711Y-117911342D01*
X80102657Y-117787288D01*
X80102653Y-117787285D01*
X79953344Y-117695189D01*
X79953338Y-117695186D01*
X79953336Y-117695185D01*
X79844100Y-117658988D01*
X79786801Y-117640001D01*
X79684019Y-117629500D01*
X79684012Y-117629500D01*
X77689500Y-117629500D01*
X77622461Y-117609815D01*
X77576706Y-117557011D01*
X77565500Y-117505500D01*
X77565500Y-114024758D01*
X77585185Y-113957719D01*
X77637989Y-113911964D01*
X77707147Y-113902020D01*
X77770703Y-113931045D01*
X77777181Y-113937077D01*
X77878599Y-114038495D01*
X77975384Y-114106265D01*
X78072165Y-114174032D01*
X78072167Y-114174033D01*
X78072170Y-114174035D01*
X78286337Y-114273903D01*
X78286343Y-114273904D01*
X78286344Y-114273905D01*
X78324494Y-114284127D01*
X78514592Y-114335063D01*
X78702918Y-114351539D01*
X78749999Y-114355659D01*
X78750000Y-114355659D01*
X78750001Y-114355659D01*
X78766863Y-114354183D01*
X78951465Y-114338032D01*
X79019962Y-114351798D01*
X79070145Y-114400413D01*
X79086079Y-114468442D01*
X79077088Y-114506100D01*
X79077600Y-114506276D01*
X79075936Y-114511120D01*
X79014892Y-114752175D01*
X79014890Y-114752187D01*
X78994357Y-114999994D01*
X78994357Y-115000000D01*
X79014890Y-115247812D01*
X79014892Y-115247824D01*
X79075936Y-115488881D01*
X79175826Y-115716606D01*
X79311833Y-115924782D01*
X79311836Y-115924785D01*
X79480256Y-116107738D01*
X79676491Y-116260474D01*
X79895190Y-116378828D01*
X80130386Y-116459571D01*
X80375665Y-116500500D01*
X80624335Y-116500500D01*
X80869614Y-116459571D01*
X81104810Y-116378828D01*
X81323509Y-116260474D01*
X81519744Y-116107738D01*
X81688164Y-115924785D01*
X81824173Y-115716607D01*
X81924063Y-115488881D01*
X81985108Y-115247821D01*
X81988206Y-115210441D01*
X82005643Y-115000000D01*
X82005643Y-114999994D01*
X81985109Y-114752187D01*
X81985107Y-114752175D01*
X81924063Y-114511118D01*
X81824173Y-114283393D01*
X81688166Y-114075217D01*
X81641715Y-114024758D01*
X81519744Y-113892262D01*
X81323509Y-113739526D01*
X81323507Y-113739525D01*
X81323506Y-113739524D01*
X81104811Y-113621172D01*
X81104802Y-113621169D01*
X80869616Y-113540429D01*
X80624335Y-113499500D01*
X80375665Y-113499500D01*
X80187440Y-113530908D01*
X80118075Y-113522526D01*
X80064253Y-113477973D01*
X80043063Y-113411394D01*
X80047256Y-113376506D01*
X80085063Y-113235408D01*
X80105659Y-113000000D01*
X80085063Y-112764592D01*
X80023903Y-112536337D01*
X79924035Y-112322171D01*
X79856699Y-112226004D01*
X79788494Y-112128597D01*
X79621402Y-111961506D01*
X79621395Y-111961501D01*
X79427834Y-111825967D01*
X79427830Y-111825965D01*
X79383861Y-111805462D01*
X79213663Y-111726097D01*
X79213659Y-111726096D01*
X79213655Y-111726094D01*
X78985413Y-111664938D01*
X78985403Y-111664936D01*
X78750001Y-111644341D01*
X78749999Y-111644341D01*
X78514596Y-111664936D01*
X78514586Y-111664938D01*
X78286344Y-111726094D01*
X78286335Y-111726098D01*
X78072171Y-111825964D01*
X78072169Y-111825965D01*
X77878597Y-111961505D01*
X77777181Y-112062922D01*
X77715858Y-112096407D01*
X77646166Y-112091423D01*
X77590233Y-112049551D01*
X77565816Y-111984087D01*
X77565500Y-111975241D01*
X77565500Y-110024758D01*
X77585185Y-109957719D01*
X77637989Y-109911964D01*
X77707147Y-109902020D01*
X77770703Y-109931045D01*
X77777181Y-109937077D01*
X77878599Y-110038495D01*
X77937577Y-110079792D01*
X78072165Y-110174032D01*
X78072167Y-110174033D01*
X78072170Y-110174035D01*
X78286337Y-110273903D01*
X78514592Y-110335063D01*
X78702918Y-110351539D01*
X78749999Y-110355659D01*
X78750000Y-110355659D01*
X78750001Y-110355659D01*
X78789234Y-110352226D01*
X78985408Y-110335063D01*
X79213663Y-110273903D01*
X79427830Y-110174035D01*
X79621401Y-110038495D01*
X79788495Y-109871401D01*
X79924035Y-109677830D01*
X80023903Y-109463663D01*
X80085063Y-109235408D01*
X80105659Y-109000000D01*
X80085063Y-108764592D01*
X80023903Y-108536337D01*
X79924035Y-108322171D01*
X79923783Y-108321810D01*
X79788494Y-108128597D01*
X79621402Y-107961506D01*
X79621395Y-107961501D01*
X79427834Y-107825967D01*
X79427830Y-107825965D01*
X79366714Y-107797466D01*
X79213663Y-107726097D01*
X79213659Y-107726096D01*
X79213655Y-107726094D01*
X78985413Y-107664938D01*
X78985403Y-107664936D01*
X78750001Y-107644341D01*
X78749999Y-107644341D01*
X78514596Y-107664936D01*
X78514586Y-107664938D01*
X78286344Y-107726094D01*
X78286335Y-107726098D01*
X78072171Y-107825964D01*
X78072169Y-107825965D01*
X77878597Y-107961505D01*
X77777181Y-108062922D01*
X77715858Y-108096407D01*
X77646166Y-108091423D01*
X77590233Y-108049551D01*
X77565816Y-107984087D01*
X77565500Y-107975241D01*
X77565500Y-106732491D01*
X77585185Y-106665452D01*
X77601815Y-106644814D01*
X78011065Y-106235563D01*
X78072386Y-106202080D01*
X78142077Y-106207064D01*
X78151148Y-106210864D01*
X78286330Y-106273900D01*
X78286332Y-106273900D01*
X78286337Y-106273903D01*
X78514592Y-106335063D01*
X78702918Y-106351539D01*
X78749999Y-106355659D01*
X78750000Y-106355659D01*
X78750001Y-106355659D01*
X78789234Y-106352226D01*
X78985408Y-106335063D01*
X79213663Y-106273903D01*
X79427830Y-106174035D01*
X79621401Y-106038495D01*
X79788495Y-105871401D01*
X79924035Y-105677830D01*
X80023903Y-105463663D01*
X80085063Y-105235408D01*
X80105659Y-105000000D01*
X80085063Y-104764592D01*
X80047256Y-104623492D01*
X80048919Y-104553643D01*
X80088082Y-104495781D01*
X80152310Y-104468277D01*
X80187436Y-104469090D01*
X80375665Y-104500500D01*
X80375666Y-104500500D01*
X80624335Y-104500500D01*
X80869614Y-104459571D01*
X81104810Y-104378828D01*
X81323509Y-104260474D01*
X81519744Y-104107738D01*
X81688164Y-103924785D01*
X81824173Y-103716607D01*
X81924063Y-103488881D01*
X81985108Y-103247821D01*
X82002579Y-103036979D01*
X82005643Y-103000005D01*
X82005643Y-102999994D01*
X81985109Y-102752187D01*
X81985107Y-102752175D01*
X81924063Y-102511118D01*
X81824173Y-102283393D01*
X81688166Y-102075217D01*
X81656286Y-102040586D01*
X81519744Y-101892262D01*
X81323509Y-101739526D01*
X81323507Y-101739525D01*
X81323506Y-101739524D01*
X81104811Y-101621172D01*
X81104802Y-101621169D01*
X80869616Y-101540429D01*
X80624335Y-101499500D01*
X80375665Y-101499500D01*
X80130383Y-101540429D01*
X79895197Y-101621169D01*
X79895188Y-101621172D01*
X79676493Y-101739524D01*
X79480257Y-101892261D01*
X79311833Y-102075217D01*
X79175826Y-102283393D01*
X79075936Y-102511118D01*
X79014892Y-102752175D01*
X79014890Y-102752187D01*
X78994357Y-102999994D01*
X78994357Y-103000005D01*
X79014890Y-103247812D01*
X79014892Y-103247824D01*
X79075936Y-103488879D01*
X79077600Y-103493724D01*
X79076531Y-103494090D01*
X79084726Y-103557946D01*
X79054740Y-103621054D01*
X78995395Y-103657933D01*
X78951462Y-103661967D01*
X78750001Y-103644341D01*
X78749999Y-103644341D01*
X78514596Y-103664936D01*
X78514586Y-103664938D01*
X78286344Y-103726094D01*
X78286335Y-103726098D01*
X78072171Y-103825964D01*
X78072169Y-103825965D01*
X77878597Y-103961505D01*
X77711508Y-104128595D01*
X77711498Y-104128606D01*
X77695967Y-104150787D01*
X77641850Y-104194220D01*
X77582458Y-104218822D01*
X77582446Y-104218828D01*
X77438075Y-104315293D01*
X75999295Y-105754073D01*
X75902823Y-105898456D01*
X75836376Y-106058874D01*
X75836376Y-106058875D01*
X75836376Y-106058876D01*
X75820737Y-106137500D01*
X75820737Y-106137501D01*
X75802500Y-106229178D01*
X75802500Y-113881632D01*
X75782815Y-113948671D01*
X75730011Y-113994426D01*
X75660853Y-114004370D01*
X75597297Y-113975345D01*
X75587271Y-113965615D01*
X75519747Y-113892265D01*
X75519744Y-113892262D01*
X75492942Y-113871401D01*
X75323509Y-113739526D01*
X75323507Y-113739525D01*
X75323506Y-113739524D01*
X75104811Y-113621172D01*
X75104802Y-113621169D01*
X74869616Y-113540429D01*
X74624335Y-113499500D01*
X74375665Y-113499500D01*
X74130383Y-113540429D01*
X73895197Y-113621169D01*
X73895188Y-113621172D01*
X73676493Y-113739524D01*
X73480255Y-113892262D01*
X73480252Y-113892265D01*
X73465729Y-113908042D01*
X73405842Y-113944033D01*
X73336004Y-113941932D01*
X73278388Y-113902408D01*
X73251287Y-113838008D01*
X73250500Y-113824059D01*
X73250500Y-104175940D01*
X73270185Y-104108901D01*
X73322989Y-104063146D01*
X73392147Y-104053202D01*
X73455703Y-104082227D01*
X73465725Y-104091953D01*
X73480256Y-104107738D01*
X73676491Y-104260474D01*
X73895190Y-104378828D01*
X74130386Y-104459571D01*
X74375665Y-104500500D01*
X74624335Y-104500500D01*
X74869614Y-104459571D01*
X75104810Y-104378828D01*
X75323509Y-104260474D01*
X75519744Y-104107738D01*
X75688164Y-103924785D01*
X75824173Y-103716607D01*
X75924063Y-103488881D01*
X75985108Y-103247821D01*
X76002579Y-103036979D01*
X76005643Y-103000005D01*
X76005643Y-102999994D01*
X75985109Y-102752187D01*
X75985107Y-102752175D01*
X75924063Y-102511118D01*
X75824173Y-102283393D01*
X75688166Y-102075217D01*
X75656286Y-102040586D01*
X75519744Y-101892262D01*
X75323509Y-101739526D01*
X75323507Y-101739525D01*
X75323506Y-101739524D01*
X75104811Y-101621172D01*
X75104802Y-101621169D01*
X74869616Y-101540429D01*
X74624335Y-101499500D01*
X74375665Y-101499500D01*
X74130383Y-101540429D01*
X73895197Y-101621169D01*
X73895188Y-101621172D01*
X73676493Y-101739524D01*
X73480255Y-101892262D01*
X73480252Y-101892265D01*
X73465729Y-101908042D01*
X73405842Y-101944033D01*
X73336004Y-101941932D01*
X73278388Y-101902408D01*
X73251287Y-101838008D01*
X73250500Y-101824059D01*
X73250500Y-98500004D01*
X76194953Y-98500004D01*
X76215113Y-98769026D01*
X76215113Y-98769028D01*
X76275142Y-99032033D01*
X76275148Y-99032052D01*
X76373709Y-99283181D01*
X76373708Y-99283181D01*
X76508602Y-99516822D01*
X76562294Y-99584151D01*
X76562295Y-99584151D01*
X77284153Y-98862293D01*
X77291049Y-98878942D01*
X77378599Y-99009970D01*
X77490030Y-99121401D01*
X77621058Y-99208951D01*
X77637705Y-99215846D01*
X76914848Y-99938702D01*
X77097483Y-100063220D01*
X77097485Y-100063221D01*
X77340539Y-100180269D01*
X77340537Y-100180269D01*
X77598337Y-100259790D01*
X77598343Y-100259792D01*
X77865101Y-100299999D01*
X77865110Y-100300000D01*
X78134890Y-100300000D01*
X78134898Y-100299999D01*
X78401656Y-100259792D01*
X78401662Y-100259790D01*
X78659461Y-100180269D01*
X78902521Y-100063218D01*
X79085150Y-99938702D01*
X78362294Y-99215846D01*
X78378942Y-99208951D01*
X78509970Y-99121401D01*
X78621401Y-99009970D01*
X78708951Y-98878942D01*
X78715846Y-98862294D01*
X79437703Y-99584151D01*
X79437704Y-99584150D01*
X79491393Y-99516828D01*
X79491400Y-99516817D01*
X79626290Y-99283181D01*
X79724851Y-99032052D01*
X79724857Y-99032033D01*
X79784886Y-98769028D01*
X79784886Y-98769026D01*
X79805047Y-98500004D01*
X79805047Y-98499995D01*
X79784886Y-98230973D01*
X79784886Y-98230971D01*
X79724857Y-97967966D01*
X79724851Y-97967947D01*
X79626290Y-97716818D01*
X79626291Y-97716818D01*
X79491397Y-97483177D01*
X79437704Y-97415847D01*
X78715846Y-98137705D01*
X78708951Y-98121058D01*
X78621401Y-97990030D01*
X78509970Y-97878599D01*
X78378942Y-97791049D01*
X78362294Y-97784153D01*
X79085150Y-97061296D01*
X78902517Y-96936779D01*
X78902516Y-96936778D01*
X78659460Y-96819730D01*
X78659462Y-96819730D01*
X78401662Y-96740209D01*
X78401656Y-96740207D01*
X78134898Y-96700000D01*
X77865101Y-96700000D01*
X77598343Y-96740207D01*
X77598337Y-96740209D01*
X77340538Y-96819730D01*
X77097485Y-96936778D01*
X77097476Y-96936783D01*
X76914848Y-97061296D01*
X77637705Y-97784153D01*
X77621058Y-97791049D01*
X77490030Y-97878599D01*
X77378599Y-97990030D01*
X77291049Y-98121058D01*
X77284153Y-98137706D01*
X76562295Y-97415848D01*
X76508600Y-97483180D01*
X76373709Y-97716818D01*
X76275148Y-97967947D01*
X76275142Y-97967966D01*
X76215113Y-98230971D01*
X76215113Y-98230973D01*
X76194953Y-98499995D01*
X76194953Y-98500004D01*
X73250500Y-98500004D01*
X73250500Y-94832550D01*
X73270185Y-94765511D01*
X73322989Y-94719756D01*
X73392147Y-94709812D01*
X73455703Y-94738837D01*
X73481887Y-94770550D01*
X73508602Y-94816822D01*
X73562294Y-94884151D01*
X73562295Y-94884151D01*
X74284153Y-94162293D01*
X74291049Y-94178942D01*
X74378599Y-94309970D01*
X74490030Y-94421401D01*
X74621058Y-94508951D01*
X74637705Y-94515846D01*
X73914848Y-95238702D01*
X74097483Y-95363220D01*
X74097485Y-95363221D01*
X74340539Y-95480269D01*
X74340537Y-95480269D01*
X74598337Y-95559790D01*
X74598343Y-95559792D01*
X74865101Y-95599999D01*
X74865110Y-95600000D01*
X75134890Y-95600000D01*
X75134898Y-95599999D01*
X75401656Y-95559792D01*
X75401662Y-95559790D01*
X75659461Y-95480269D01*
X75902521Y-95363218D01*
X76085150Y-95238702D01*
X75994318Y-95147870D01*
X79199500Y-95147870D01*
X79199501Y-95147876D01*
X79205908Y-95207483D01*
X79256202Y-95342328D01*
X79256206Y-95342335D01*
X79342452Y-95457544D01*
X79342455Y-95457547D01*
X79457664Y-95543793D01*
X79457671Y-95543797D01*
X79592517Y-95594091D01*
X79592516Y-95594091D01*
X79599444Y-95594835D01*
X79652127Y-95600500D01*
X82347872Y-95600499D01*
X82407483Y-95594091D01*
X82542331Y-95543796D01*
X82657546Y-95457546D01*
X82743796Y-95342331D01*
X82794091Y-95207483D01*
X82800500Y-95147873D01*
X82800499Y-92452128D01*
X82794091Y-92392517D01*
X82782446Y-92361296D01*
X82743797Y-92257671D01*
X82743793Y-92257664D01*
X82657547Y-92142455D01*
X82657544Y-92142452D01*
X82542335Y-92056206D01*
X82542328Y-92056202D01*
X82407482Y-92005908D01*
X82407483Y-92005908D01*
X82347883Y-91999501D01*
X82347881Y-91999500D01*
X82347873Y-91999500D01*
X82347864Y-91999500D01*
X79652129Y-91999500D01*
X79652123Y-91999501D01*
X79592516Y-92005908D01*
X79457671Y-92056202D01*
X79457664Y-92056206D01*
X79342455Y-92142452D01*
X79342452Y-92142455D01*
X79256206Y-92257664D01*
X79256202Y-92257671D01*
X79205908Y-92392517D01*
X79199501Y-92452116D01*
X79199501Y-92452123D01*
X79199500Y-92452135D01*
X79199500Y-95147870D01*
X75994318Y-95147870D01*
X75362294Y-94515846D01*
X75378942Y-94508951D01*
X75509970Y-94421401D01*
X75621401Y-94309970D01*
X75708951Y-94178942D01*
X75715846Y-94162294D01*
X76437703Y-94884151D01*
X76437704Y-94884150D01*
X76491393Y-94816828D01*
X76491400Y-94816817D01*
X76626290Y-94583181D01*
X76724851Y-94332052D01*
X76724857Y-94332033D01*
X76784886Y-94069028D01*
X76784886Y-94069026D01*
X76805047Y-93800004D01*
X76805047Y-93799995D01*
X76784886Y-93530973D01*
X76784886Y-93530971D01*
X76724857Y-93267966D01*
X76724851Y-93267947D01*
X76626290Y-93016818D01*
X76626291Y-93016818D01*
X76491397Y-92783177D01*
X76437704Y-92715847D01*
X75715846Y-93437705D01*
X75708951Y-93421058D01*
X75621401Y-93290030D01*
X75509970Y-93178599D01*
X75378942Y-93091049D01*
X75362294Y-93084153D01*
X76085150Y-92361296D01*
X75902517Y-92236779D01*
X75902516Y-92236778D01*
X75659460Y-92119730D01*
X75659462Y-92119730D01*
X75401662Y-92040209D01*
X75401656Y-92040207D01*
X75134898Y-92000000D01*
X74865101Y-92000000D01*
X74598343Y-92040207D01*
X74598337Y-92040209D01*
X74340538Y-92119730D01*
X74097485Y-92236778D01*
X74097476Y-92236783D01*
X73914848Y-92361296D01*
X74637705Y-93084153D01*
X74621058Y-93091049D01*
X74490030Y-93178599D01*
X74378599Y-93290030D01*
X74291049Y-93421058D01*
X74284153Y-93437706D01*
X73562295Y-92715848D01*
X73508602Y-92783178D01*
X73481887Y-92829450D01*
X73431319Y-92877665D01*
X73362712Y-92890887D01*
X73297848Y-92864919D01*
X73257320Y-92808005D01*
X73250500Y-92767449D01*
X73250500Y-85802844D01*
X77020000Y-85802844D01*
X77026401Y-85862372D01*
X77026403Y-85862379D01*
X77076645Y-85997086D01*
X77076649Y-85997093D01*
X77162809Y-86112187D01*
X77162812Y-86112190D01*
X77277906Y-86198350D01*
X77277913Y-86198354D01*
X77412620Y-86248596D01*
X77412627Y-86248598D01*
X77472155Y-86254999D01*
X77472172Y-86255000D01*
X79250000Y-86255000D01*
X79250000Y-85375824D01*
X79307485Y-85399636D01*
X79434996Y-85425000D01*
X79565004Y-85425000D01*
X79692515Y-85399636D01*
X79750000Y-85375824D01*
X79750000Y-86255000D01*
X81527828Y-86255000D01*
X81527844Y-86254999D01*
X81587372Y-86248598D01*
X81587379Y-86248596D01*
X81722086Y-86198354D01*
X81722093Y-86198350D01*
X81837187Y-86112190D01*
X81837190Y-86112187D01*
X81923350Y-85997093D01*
X81923354Y-85997086D01*
X81973596Y-85862379D01*
X81973598Y-85862372D01*
X81979999Y-85802844D01*
X81980000Y-85802827D01*
X81980000Y-85015000D01*
X80110825Y-85015000D01*
X80134636Y-84957515D01*
X80160000Y-84830004D01*
X80160000Y-84699996D01*
X80134636Y-84572485D01*
X80110825Y-84515000D01*
X81980000Y-84515000D01*
X81980000Y-83727172D01*
X81979999Y-83727155D01*
X81973598Y-83667627D01*
X81973596Y-83667620D01*
X81923354Y-83532913D01*
X81923350Y-83532906D01*
X81837190Y-83417812D01*
X81837187Y-83417809D01*
X81722093Y-83331649D01*
X81722086Y-83331645D01*
X81587379Y-83281403D01*
X81587372Y-83281401D01*
X81527844Y-83275000D01*
X79750000Y-83275000D01*
X79750000Y-84154175D01*
X79692515Y-84130364D01*
X79565004Y-84105000D01*
X79434996Y-84105000D01*
X79307485Y-84130364D01*
X79250000Y-84154175D01*
X79250000Y-83275000D01*
X77472155Y-83275000D01*
X77412627Y-83281401D01*
X77412620Y-83281403D01*
X77277913Y-83331645D01*
X77277906Y-83331649D01*
X77162812Y-83417809D01*
X77162809Y-83417812D01*
X77076649Y-83532906D01*
X77076645Y-83532913D01*
X77026403Y-83667620D01*
X77026401Y-83667627D01*
X77020000Y-83727155D01*
X77020000Y-84515000D01*
X78889175Y-84515000D01*
X78865364Y-84572485D01*
X78840000Y-84699996D01*
X78840000Y-84830004D01*
X78865364Y-84957515D01*
X78889175Y-85015000D01*
X77020000Y-85015000D01*
X77020000Y-85802844D01*
X73250500Y-85802844D01*
X73250500Y-79882304D01*
X77019500Y-79882304D01*
X77056201Y-80114027D01*
X77128697Y-80337150D01*
X77235212Y-80546195D01*
X77373104Y-80735989D01*
X77373108Y-80735994D01*
X77539005Y-80901891D01*
X77539010Y-80901895D01*
X77704558Y-81022171D01*
X77728808Y-81039790D01*
X77937847Y-81146301D01*
X77937849Y-81146302D01*
X78049410Y-81182550D01*
X78160974Y-81218799D01*
X78392695Y-81255500D01*
X78392696Y-81255500D01*
X80607304Y-81255500D01*
X80607305Y-81255500D01*
X80839026Y-81218799D01*
X81062153Y-81146301D01*
X81271192Y-81039790D01*
X81460996Y-80901890D01*
X81626890Y-80735996D01*
X81764790Y-80546192D01*
X81871301Y-80337153D01*
X81943799Y-80114026D01*
X81980500Y-79882305D01*
X81980500Y-79647695D01*
X81943799Y-79415974D01*
X81871301Y-79192847D01*
X81764790Y-78983808D01*
X81747171Y-78959558D01*
X81626895Y-78794010D01*
X81626891Y-78794005D01*
X81460994Y-78628108D01*
X81460989Y-78628104D01*
X81271195Y-78490212D01*
X81271194Y-78490211D01*
X81271192Y-78490210D01*
X81166672Y-78436954D01*
X81062150Y-78383697D01*
X80839027Y-78311201D01*
X80723165Y-78292850D01*
X80607305Y-78274500D01*
X78392695Y-78274500D01*
X78315454Y-78286733D01*
X78160972Y-78311201D01*
X77937849Y-78383697D01*
X77728804Y-78490212D01*
X77539010Y-78628104D01*
X77539005Y-78628108D01*
X77373108Y-78794005D01*
X77373104Y-78794010D01*
X77235212Y-78983804D01*
X77128697Y-79192849D01*
X77056201Y-79415972D01*
X77019500Y-79647695D01*
X77019500Y-79882304D01*
X73250500Y-79882304D01*
X73250500Y-71617309D01*
X73270185Y-71550270D01*
X73286819Y-71529628D01*
X74060504Y-70755942D01*
X74076619Y-70816081D01*
X74143498Y-70931920D01*
X74238080Y-71026502D01*
X74353919Y-71093381D01*
X74414057Y-71109494D01*
X73666781Y-71856769D01*
X73859621Y-71974943D01*
X74080075Y-72066257D01*
X74080072Y-72066257D01*
X74312116Y-72121966D01*
X74550000Y-72140687D01*
X74787883Y-72121966D01*
X75019925Y-72066257D01*
X75240378Y-71974943D01*
X75433217Y-71856770D01*
X75433217Y-71856769D01*
X74685942Y-71109495D01*
X74746081Y-71093381D01*
X74861920Y-71026502D01*
X74956502Y-70931920D01*
X75023381Y-70816081D01*
X75039494Y-70755942D01*
X75786769Y-71503217D01*
X75786770Y-71503217D01*
X75904943Y-71310378D01*
X75996257Y-71089925D01*
X76051966Y-70857883D01*
X76070687Y-70620000D01*
X76051966Y-70382116D01*
X75996257Y-70150074D01*
X75904943Y-69929621D01*
X75786769Y-69736781D01*
X75039494Y-70484056D01*
X75023381Y-70423919D01*
X74956502Y-70308080D01*
X74861920Y-70213498D01*
X74746081Y-70146619D01*
X74685942Y-70130505D01*
X75433217Y-69383229D01*
X75431009Y-69364575D01*
X75431009Y-69335423D01*
X75433217Y-69316769D01*
X74685942Y-68569495D01*
X74746081Y-68553381D01*
X74861920Y-68486502D01*
X74956502Y-68391920D01*
X75023381Y-68276081D01*
X75039494Y-68215942D01*
X75786769Y-68963217D01*
X75786770Y-68963217D01*
X75904943Y-68770378D01*
X75996257Y-68549925D01*
X76051966Y-68317883D01*
X76070687Y-68080000D01*
X76051966Y-67842116D01*
X75996257Y-67610074D01*
X75904943Y-67389621D01*
X75786769Y-67196781D01*
X75039494Y-67944056D01*
X75023381Y-67883919D01*
X74956502Y-67768080D01*
X74861920Y-67673498D01*
X74746081Y-67606619D01*
X74685942Y-67590505D01*
X75433217Y-66843229D01*
X75431009Y-66824575D01*
X75431009Y-66795423D01*
X75433217Y-66776769D01*
X74685942Y-66029495D01*
X74746081Y-66013381D01*
X74861920Y-65946502D01*
X74956502Y-65851920D01*
X75023381Y-65736081D01*
X75039495Y-65675942D01*
X75786769Y-66423217D01*
X75786770Y-66423217D01*
X75904943Y-66230378D01*
X75996257Y-66009925D01*
X76051966Y-65777883D01*
X76070687Y-65540000D01*
X76051966Y-65302116D01*
X75996257Y-65070074D01*
X75904943Y-64849621D01*
X75786769Y-64656781D01*
X75039494Y-65404056D01*
X75023381Y-65343919D01*
X74956502Y-65228080D01*
X74861920Y-65133498D01*
X74746081Y-65066619D01*
X74685942Y-65050505D01*
X75436122Y-64300324D01*
X75445878Y-64242728D01*
X75476816Y-64202752D01*
X75625643Y-64075643D01*
X75780668Y-63894132D01*
X75905389Y-63690605D01*
X75992120Y-63481218D01*
X76035960Y-63426816D01*
X76102254Y-63404751D01*
X76169953Y-63422030D01*
G37*
%TD.AperFunction*%
%TA.AperFunction,Conductor*%
G36*
X168665529Y-100813313D02*
G01*
X168721462Y-100855185D01*
X168745879Y-100920649D01*
X168738377Y-100972827D01*
X168692803Y-101095017D01*
X168692801Y-101095027D01*
X168686400Y-101154555D01*
X168686400Y-101816000D01*
X169607749Y-101816000D01*
X169576619Y-101869919D01*
X169542000Y-101999120D01*
X169542000Y-102132880D01*
X169576619Y-102262081D01*
X169607749Y-102316000D01*
X168686400Y-102316000D01*
X168686400Y-102977444D01*
X168692801Y-103036972D01*
X168692803Y-103036979D01*
X168743045Y-103171686D01*
X168743049Y-103171693D01*
X168829209Y-103286787D01*
X168829212Y-103286790D01*
X168944306Y-103372950D01*
X168944313Y-103372954D01*
X169059348Y-103415859D01*
X169115282Y-103457730D01*
X169139699Y-103523194D01*
X169124848Y-103591467D01*
X169107245Y-103616024D01*
X169005915Y-103726098D01*
X168969844Y-103765281D01*
X168933290Y-103821232D01*
X168883839Y-103896922D01*
X168830692Y-103942278D01*
X168780030Y-103953100D01*
X168767993Y-103953100D01*
X168641861Y-103978189D01*
X168641855Y-103978191D01*
X168541227Y-104019873D01*
X168541226Y-104019873D01*
X168523038Y-104027406D01*
X168416098Y-104098860D01*
X168416095Y-104098863D01*
X157083278Y-115431681D01*
X157021955Y-115465166D01*
X156995597Y-115468000D01*
X153204348Y-115468000D01*
X153138376Y-115448994D01*
X153052622Y-115395111D01*
X152882354Y-115335531D01*
X152882349Y-115335530D01*
X152703104Y-115315335D01*
X152703096Y-115315335D01*
X152523850Y-115335530D01*
X152523845Y-115335531D01*
X152353576Y-115395111D01*
X152200837Y-115491084D01*
X152073284Y-115618637D01*
X151977311Y-115771376D01*
X151917731Y-115941645D01*
X151917730Y-115941650D01*
X151897535Y-116120896D01*
X151897535Y-116120903D01*
X151917730Y-116300149D01*
X151917731Y-116300154D01*
X151977311Y-116470423D01*
X152059937Y-116601920D01*
X152073284Y-116623162D01*
X152200838Y-116750716D01*
X152283575Y-116802703D01*
X152329865Y-116855037D01*
X152340513Y-116924090D01*
X152332565Y-116950675D01*
X152333510Y-116951006D01*
X152271633Y-117127837D01*
X152271630Y-117127850D01*
X152251435Y-117307096D01*
X152251435Y-117307103D01*
X152271630Y-117486349D01*
X152271631Y-117486354D01*
X152331211Y-117656623D01*
X152401081Y-117767819D01*
X152427184Y-117809362D01*
X152554738Y-117936916D01*
X152587442Y-117957465D01*
X152675038Y-118012506D01*
X152721329Y-118064841D01*
X152731977Y-118133895D01*
X152703602Y-118197743D01*
X152645212Y-118236115D01*
X152609066Y-118241500D01*
X125954793Y-118241500D01*
X125828661Y-118266589D01*
X125828651Y-118266592D01*
X125806558Y-118275744D01*
X125709844Y-118315803D01*
X125709833Y-118315809D01*
X125602898Y-118387260D01*
X125602897Y-118387261D01*
X123206842Y-120783315D01*
X123145519Y-120816800D01*
X123075827Y-120811816D01*
X123019894Y-120769944D01*
X123005604Y-120745442D01*
X123004177Y-120742189D01*
X122993802Y-120718535D01*
X122993801Y-120718533D01*
X122993801Y-120718532D01*
X122870157Y-120529283D01*
X122870149Y-120529272D01*
X122732755Y-120380024D01*
X122701832Y-120317370D01*
X122709692Y-120247944D01*
X122753839Y-120193788D01*
X122780652Y-120179859D01*
X122895684Y-120136955D01*
X122895693Y-120136950D01*
X123010787Y-120050790D01*
X123010790Y-120050787D01*
X123096950Y-119935693D01*
X123096954Y-119935686D01*
X123147196Y-119800979D01*
X123147198Y-119800972D01*
X123153599Y-119741444D01*
X123153600Y-119741427D01*
X123153600Y-119080000D01*
X122232251Y-119080000D01*
X122263381Y-119026081D01*
X122298000Y-118896880D01*
X122298000Y-118763120D01*
X122263381Y-118633919D01*
X122232251Y-118580000D01*
X123153600Y-118580000D01*
X123153600Y-117918572D01*
X123153599Y-117918555D01*
X123147198Y-117859027D01*
X123147196Y-117859020D01*
X123096954Y-117724313D01*
X123096952Y-117724310D01*
X123029579Y-117634312D01*
X123005161Y-117568848D01*
X123020012Y-117500574D01*
X123029579Y-117485688D01*
X123096952Y-117395689D01*
X123096954Y-117395686D01*
X123147196Y-117260979D01*
X123147198Y-117260972D01*
X123153599Y-117201444D01*
X123153600Y-117201427D01*
X123153600Y-116540000D01*
X122232251Y-116540000D01*
X122263381Y-116486081D01*
X122298000Y-116356880D01*
X122298000Y-116223120D01*
X122263381Y-116093919D01*
X122232251Y-116040000D01*
X123153600Y-116040000D01*
X123153600Y-115378572D01*
X123153599Y-115378555D01*
X123147198Y-115319027D01*
X123147196Y-115319020D01*
X123096954Y-115184313D01*
X123096950Y-115184306D01*
X123010790Y-115069212D01*
X123010787Y-115069209D01*
X122895693Y-114983049D01*
X122895686Y-114983045D01*
X122780651Y-114940140D01*
X122724717Y-114898269D01*
X122700300Y-114832804D01*
X122715152Y-114764531D01*
X122732749Y-114739981D01*
X122870156Y-114590719D01*
X122993802Y-114401465D01*
X123084611Y-114194441D01*
X123140107Y-113975293D01*
X123151483Y-113838008D01*
X123158775Y-113750006D01*
X123158775Y-113749993D01*
X123140107Y-113524710D01*
X123140107Y-113524707D01*
X123084611Y-113305559D01*
X122993802Y-113098535D01*
X122870156Y-112909281D01*
X122870153Y-112909278D01*
X122870149Y-112909272D01*
X122717049Y-112742963D01*
X122717048Y-112742962D01*
X122717046Y-112742960D01*
X122538649Y-112604107D01*
X122538647Y-112604106D01*
X122538646Y-112604105D01*
X122538639Y-112604100D01*
X122510836Y-112589055D01*
X122461244Y-112539837D01*
X122446135Y-112471620D01*
X122470306Y-112406064D01*
X122510836Y-112370945D01*
X122538639Y-112355899D01*
X122538642Y-112355896D01*
X122538649Y-112355893D01*
X122717046Y-112217040D01*
X122795776Y-112131516D01*
X122855662Y-112095526D01*
X122887005Y-112091500D01*
X157006523Y-112091500D01*
X157121093Y-112068709D01*
X157176824Y-112057624D01*
X157276295Y-112016422D01*
X157337243Y-111991177D01*
X157337244Y-111991176D01*
X157337247Y-111991175D01*
X157481624Y-111894706D01*
X168534516Y-100841812D01*
X168595837Y-100808329D01*
X168665529Y-100813313D01*
G37*
%TD.AperFunction*%
%TA.AperFunction,Conductor*%
G36*
X120760034Y-114651185D02*
G01*
X120784222Y-114671514D01*
X120838817Y-114730820D01*
X120847245Y-114739975D01*
X120878167Y-114802630D01*
X120870307Y-114872056D01*
X120826160Y-114926211D01*
X120799349Y-114940140D01*
X120684311Y-114983046D01*
X120684306Y-114983049D01*
X120569212Y-115069209D01*
X120569209Y-115069212D01*
X120483049Y-115184306D01*
X120483045Y-115184313D01*
X120432803Y-115319020D01*
X120432801Y-115319027D01*
X120426400Y-115378555D01*
X120426400Y-116040000D01*
X121347749Y-116040000D01*
X121316619Y-116093919D01*
X121282000Y-116223120D01*
X121282000Y-116356880D01*
X121316619Y-116486081D01*
X121347749Y-116540000D01*
X120426400Y-116540000D01*
X120426400Y-117201444D01*
X120432801Y-117260972D01*
X120432803Y-117260979D01*
X120483045Y-117395686D01*
X120483047Y-117395688D01*
X120550421Y-117485689D01*
X120574838Y-117551153D01*
X120559987Y-117619426D01*
X120550421Y-117634311D01*
X120483047Y-117724311D01*
X120483045Y-117724313D01*
X120432803Y-117859020D01*
X120432801Y-117859027D01*
X120426400Y-117918555D01*
X120426400Y-118580000D01*
X121347749Y-118580000D01*
X121316619Y-118633919D01*
X121282000Y-118763120D01*
X121282000Y-118896880D01*
X121316619Y-119026081D01*
X121347749Y-119080000D01*
X120426400Y-119080000D01*
X120426400Y-119741444D01*
X120432801Y-119800972D01*
X120432803Y-119800979D01*
X120483045Y-119935686D01*
X120483049Y-119935693D01*
X120569209Y-120050787D01*
X120569212Y-120050790D01*
X120684306Y-120136950D01*
X120684313Y-120136954D01*
X120799348Y-120179859D01*
X120855282Y-120221730D01*
X120879699Y-120287194D01*
X120864848Y-120355467D01*
X120847245Y-120380023D01*
X120784225Y-120448482D01*
X120724339Y-120484473D01*
X120692995Y-120488500D01*
X119766692Y-120488500D01*
X119699653Y-120468815D01*
X119679011Y-120452181D01*
X117994027Y-118767196D01*
X117994026Y-118767195D01*
X117849643Y-118670722D01*
X117689228Y-118604277D01*
X117689218Y-118604274D01*
X117518923Y-118570400D01*
X117518921Y-118570400D01*
X117518920Y-118570400D01*
X114941461Y-118570400D01*
X114874422Y-118550715D01*
X114828667Y-118497911D01*
X114818723Y-118428753D01*
X114823527Y-118408090D01*
X114833402Y-118377701D01*
X114860500Y-118206611D01*
X114860500Y-118033389D01*
X114860421Y-118032889D01*
X114835398Y-117874897D01*
X114844353Y-117805604D01*
X114889349Y-117752152D01*
X114956101Y-117731513D01*
X114957871Y-117731500D01*
X115590123Y-117731500D01*
X115704693Y-117708709D01*
X115760424Y-117697624D01*
X115845851Y-117662239D01*
X115920843Y-117631177D01*
X115920844Y-117631176D01*
X115920847Y-117631175D01*
X116065224Y-117534706D01*
X118563611Y-115036319D01*
X118624934Y-115002834D01*
X118651292Y-115000000D01*
X119000000Y-115000000D01*
X119000000Y-114755500D01*
X119019685Y-114688461D01*
X119072489Y-114642706D01*
X119124000Y-114631500D01*
X120692995Y-114631500D01*
X120760034Y-114651185D01*
G37*
%TD.AperFunction*%
%TA.AperFunction,Conductor*%
G36*
X122040000Y-118387748D02*
G01*
X121986081Y-118356619D01*
X121856880Y-118322000D01*
X121723120Y-118322000D01*
X121593919Y-118356619D01*
X121540000Y-118387748D01*
X121540000Y-116732251D01*
X121593919Y-116763381D01*
X121723120Y-116798000D01*
X121856880Y-116798000D01*
X121986081Y-116763381D01*
X122040000Y-116732251D01*
X122040000Y-118387748D01*
G37*
%TD.AperFunction*%
%TA.AperFunction,Conductor*%
G36*
X172168833Y-73107020D02*
G01*
X172224767Y-73148891D01*
X172249184Y-73214356D01*
X172249500Y-73223202D01*
X172249500Y-107026796D01*
X172229815Y-107093835D01*
X172177011Y-107139590D01*
X172107853Y-107149534D01*
X172044297Y-107120509D01*
X172037819Y-107114477D01*
X171562204Y-106638862D01*
X171562200Y-106638859D01*
X171455264Y-106567408D01*
X171425919Y-106555253D01*
X171336444Y-106518191D01*
X171336436Y-106518189D01*
X171310334Y-106512997D01*
X171248423Y-106480613D01*
X171230721Y-106459207D01*
X171130156Y-106305281D01*
X171130151Y-106305276D01*
X171130149Y-106305272D01*
X170977049Y-106138963D01*
X170977048Y-106138962D01*
X170977046Y-106138960D01*
X170798649Y-106000107D01*
X170798647Y-106000106D01*
X170798646Y-106000105D01*
X170798639Y-106000100D01*
X170770836Y-105985055D01*
X170721244Y-105935837D01*
X170706135Y-105867620D01*
X170730306Y-105802064D01*
X170770836Y-105766945D01*
X170798639Y-105751899D01*
X170798642Y-105751896D01*
X170798649Y-105751893D01*
X170977046Y-105613040D01*
X171130156Y-105446719D01*
X171253802Y-105257465D01*
X171344611Y-105050441D01*
X171400107Y-104831293D01*
X171418775Y-104606000D01*
X171418775Y-104605993D01*
X171400107Y-104380710D01*
X171400107Y-104380707D01*
X171344611Y-104161559D01*
X171253802Y-103954535D01*
X171252864Y-103953100D01*
X171166711Y-103821232D01*
X171130156Y-103765281D01*
X171130153Y-103765278D01*
X171130149Y-103765272D01*
X170992755Y-103616024D01*
X170961832Y-103553370D01*
X170969692Y-103483944D01*
X171013839Y-103429788D01*
X171040652Y-103415859D01*
X171155684Y-103372955D01*
X171155693Y-103372950D01*
X171270787Y-103286790D01*
X171270790Y-103286787D01*
X171356950Y-103171693D01*
X171356954Y-103171686D01*
X171407196Y-103036979D01*
X171407198Y-103036972D01*
X171413599Y-102977444D01*
X171413600Y-102977427D01*
X171413600Y-102316000D01*
X170492251Y-102316000D01*
X170523381Y-102262081D01*
X170558000Y-102132880D01*
X170558000Y-101999120D01*
X170523381Y-101869919D01*
X170492251Y-101816000D01*
X171413600Y-101816000D01*
X171413600Y-101154572D01*
X171413599Y-101154555D01*
X171407198Y-101095027D01*
X171407196Y-101095020D01*
X171356954Y-100960313D01*
X171356950Y-100960306D01*
X171270790Y-100845212D01*
X171270787Y-100845209D01*
X171155693Y-100759049D01*
X171155686Y-100759045D01*
X171040651Y-100716140D01*
X170984717Y-100674269D01*
X170960300Y-100608804D01*
X170975152Y-100540531D01*
X170992749Y-100515981D01*
X171130156Y-100366719D01*
X171253802Y-100177465D01*
X171344611Y-99970441D01*
X171400107Y-99751293D01*
X171418775Y-99526000D01*
X171418775Y-99525993D01*
X171400107Y-99300710D01*
X171400107Y-99300707D01*
X171344611Y-99081559D01*
X171253802Y-98874535D01*
X171218089Y-98819873D01*
X171130157Y-98685283D01*
X171130149Y-98685272D01*
X170977049Y-98518963D01*
X170977048Y-98518962D01*
X170977046Y-98518960D01*
X170798649Y-98380107D01*
X170798647Y-98380106D01*
X170798646Y-98380105D01*
X170798639Y-98380100D01*
X170770836Y-98365055D01*
X170721244Y-98315837D01*
X170706135Y-98247620D01*
X170730306Y-98182064D01*
X170770836Y-98146945D01*
X170798639Y-98131899D01*
X170798642Y-98131896D01*
X170798649Y-98131893D01*
X170977046Y-97993040D01*
X171130156Y-97826719D01*
X171253802Y-97637465D01*
X171344611Y-97430441D01*
X171400107Y-97211293D01*
X171418775Y-96986000D01*
X171418775Y-96985993D01*
X171400107Y-96760710D01*
X171400107Y-96760707D01*
X171344611Y-96541559D01*
X171253802Y-96334535D01*
X171252864Y-96333100D01*
X171130157Y-96145283D01*
X171130149Y-96145272D01*
X170977049Y-95978963D01*
X170977048Y-95978962D01*
X170977046Y-95978960D01*
X170798649Y-95840107D01*
X170798647Y-95840106D01*
X170798646Y-95840105D01*
X170798639Y-95840100D01*
X170770836Y-95825055D01*
X170721244Y-95775837D01*
X170706135Y-95707620D01*
X170730306Y-95642064D01*
X170770836Y-95606945D01*
X170798639Y-95591899D01*
X170798642Y-95591896D01*
X170798649Y-95591893D01*
X170977046Y-95453040D01*
X171130156Y-95286719D01*
X171253802Y-95097465D01*
X171344611Y-94890441D01*
X171400107Y-94671293D01*
X171413559Y-94508951D01*
X171418775Y-94446006D01*
X171418775Y-94445993D01*
X171400107Y-94220710D01*
X171400107Y-94220707D01*
X171344611Y-94001559D01*
X171253802Y-93794535D01*
X171218089Y-93739873D01*
X171130157Y-93605283D01*
X171130149Y-93605272D01*
X170977049Y-93438963D01*
X170977048Y-93438962D01*
X170977046Y-93438960D01*
X170798649Y-93300107D01*
X170733058Y-93264611D01*
X170599832Y-93192512D01*
X170599827Y-93192510D01*
X170386017Y-93119109D01*
X170217860Y-93091049D01*
X170163033Y-93081900D01*
X169936967Y-93081900D01*
X169892370Y-93089341D01*
X169713982Y-93119109D01*
X169500172Y-93192510D01*
X169500167Y-93192512D01*
X169301352Y-93300106D01*
X169122955Y-93438959D01*
X169122950Y-93438963D01*
X168969850Y-93605272D01*
X168969842Y-93605283D01*
X168846198Y-93794533D01*
X168755388Y-94001560D01*
X168699892Y-94220710D01*
X168681225Y-94445993D01*
X168681225Y-94446006D01*
X168699892Y-94671289D01*
X168755388Y-94890439D01*
X168846198Y-95097466D01*
X168969842Y-95286716D01*
X168969850Y-95286727D01*
X169122950Y-95453036D01*
X169122954Y-95453040D01*
X169301351Y-95591893D01*
X169329165Y-95606945D01*
X169378755Y-95656165D01*
X169393863Y-95724382D01*
X169369692Y-95789937D01*
X169329165Y-95825055D01*
X169301352Y-95840106D01*
X169122955Y-95978959D01*
X169122950Y-95978963D01*
X168969846Y-96145277D01*
X168883839Y-96276922D01*
X168830692Y-96322278D01*
X168780030Y-96333100D01*
X168767993Y-96333100D01*
X168641861Y-96358189D01*
X168641855Y-96358191D01*
X168523037Y-96407407D01*
X168416097Y-96478861D01*
X168416096Y-96478862D01*
X164623278Y-100271681D01*
X164561955Y-100305166D01*
X164535597Y-100308000D01*
X144862548Y-100308000D01*
X144796576Y-100288994D01*
X144750101Y-100259792D01*
X144710822Y-100235111D01*
X144540554Y-100175531D01*
X144540549Y-100175530D01*
X144361304Y-100155335D01*
X144361296Y-100155335D01*
X144182050Y-100175530D01*
X144182045Y-100175531D01*
X144011776Y-100235111D01*
X143859037Y-100331084D01*
X143731484Y-100458637D01*
X143635511Y-100611376D01*
X143575931Y-100781645D01*
X143575930Y-100781650D01*
X143567995Y-100852083D01*
X143540929Y-100916497D01*
X143483334Y-100956053D01*
X143444775Y-100962200D01*
X143010503Y-100962200D01*
X142943464Y-100942515D01*
X142897709Y-100889711D01*
X142887765Y-100820553D01*
X142916790Y-100756997D01*
X142922822Y-100750519D01*
X168984121Y-74689219D01*
X169045444Y-74655734D01*
X169071802Y-74652900D01*
X170314307Y-74652900D01*
X170399165Y-74636019D01*
X170440444Y-74627809D01*
X170559264Y-74578592D01*
X170666200Y-74507141D01*
X172037819Y-73135520D01*
X172099142Y-73102036D01*
X172168833Y-73107020D01*
G37*
%TD.AperFunction*%
%TA.AperFunction,Conductor*%
G36*
X167752702Y-51000617D02*
G01*
X168136771Y-51017386D01*
X168147506Y-51018326D01*
X168525971Y-51068152D01*
X168536597Y-51070025D01*
X168909284Y-51152648D01*
X168919710Y-51155442D01*
X169283765Y-51270227D01*
X169293911Y-51273920D01*
X169646578Y-51420000D01*
X169656369Y-51424566D01*
X169994942Y-51600816D01*
X170004310Y-51606224D01*
X170326244Y-51811318D01*
X170335105Y-51817523D01*
X170637930Y-52049889D01*
X170646217Y-52056843D01*
X170927635Y-52314715D01*
X170935284Y-52322364D01*
X171193156Y-52603782D01*
X171200110Y-52612069D01*
X171432476Y-52914894D01*
X171438681Y-52923755D01*
X171643775Y-53245689D01*
X171649183Y-53255057D01*
X171825430Y-53593623D01*
X171830002Y-53603427D01*
X171976075Y-53956078D01*
X171979775Y-53966244D01*
X172094554Y-54330278D01*
X172097354Y-54340727D01*
X172179971Y-54713389D01*
X172181849Y-54724042D01*
X172231671Y-55102473D01*
X172232614Y-55113249D01*
X172249382Y-55497297D01*
X172249500Y-55502706D01*
X172249500Y-61276796D01*
X172229815Y-61343835D01*
X172177011Y-61389590D01*
X172107853Y-61399534D01*
X172044297Y-61370509D01*
X172037819Y-61364477D01*
X171846204Y-61172862D01*
X171846200Y-61172859D01*
X171739264Y-61101408D01*
X171620444Y-61052191D01*
X171620438Y-61052189D01*
X171494307Y-61027100D01*
X171494305Y-61027100D01*
X171319970Y-61027100D01*
X171252931Y-61007415D01*
X171216161Y-60970922D01*
X171130156Y-60839281D01*
X171130154Y-60839279D01*
X171130153Y-60839277D01*
X170977049Y-60672963D01*
X170977048Y-60672962D01*
X170977046Y-60672960D01*
X170798649Y-60534107D01*
X170772390Y-60519896D01*
X170599832Y-60426512D01*
X170599827Y-60426510D01*
X170386017Y-60353109D01*
X170218778Y-60325202D01*
X170163033Y-60315900D01*
X169936967Y-60315900D01*
X169892370Y-60323341D01*
X169713982Y-60353109D01*
X169500172Y-60426510D01*
X169500167Y-60426512D01*
X169301352Y-60534106D01*
X169122955Y-60672959D01*
X169122950Y-60672963D01*
X168969850Y-60839272D01*
X168969842Y-60839283D01*
X168846198Y-61028533D01*
X168755388Y-61235560D01*
X168699892Y-61454710D01*
X168681225Y-61679993D01*
X168681225Y-61680006D01*
X168699892Y-61905289D01*
X168755388Y-62124439D01*
X168846198Y-62331466D01*
X168969842Y-62520716D01*
X168969850Y-62520727D01*
X169122950Y-62687036D01*
X169122954Y-62687040D01*
X169301351Y-62825893D01*
X169329165Y-62840945D01*
X169378755Y-62890165D01*
X169393863Y-62958382D01*
X169369692Y-63023937D01*
X169329165Y-63059055D01*
X169301352Y-63074106D01*
X169122955Y-63212959D01*
X169122950Y-63212963D01*
X168969846Y-63379277D01*
X168883839Y-63510922D01*
X168830692Y-63556278D01*
X168780030Y-63567100D01*
X168715693Y-63567100D01*
X168589561Y-63592189D01*
X168589555Y-63592191D01*
X168470737Y-63641407D01*
X168363797Y-63712861D01*
X168363796Y-63712862D01*
X138775878Y-93300781D01*
X138714555Y-93334266D01*
X138688197Y-93337100D01*
X119124000Y-93337100D01*
X119056961Y-93317415D01*
X119011206Y-93264611D01*
X119000000Y-93213100D01*
X119000000Y-92026900D01*
X119019685Y-91959861D01*
X119072489Y-91914106D01*
X119124000Y-91902900D01*
X126998752Y-91902900D01*
X127064723Y-91921905D01*
X127150478Y-91975789D01*
X127296545Y-92026900D01*
X127320745Y-92035368D01*
X127320750Y-92035369D01*
X127499996Y-92055565D01*
X127500000Y-92055565D01*
X127500004Y-92055565D01*
X127679249Y-92035369D01*
X127679252Y-92035368D01*
X127679255Y-92035368D01*
X127849522Y-91975789D01*
X128002262Y-91879816D01*
X128129816Y-91752262D01*
X128225789Y-91599522D01*
X128285368Y-91429255D01*
X128305565Y-91250000D01*
X128285368Y-91070745D01*
X128225789Y-90900478D01*
X128129816Y-90747738D01*
X128002262Y-90620184D01*
X127961014Y-90594266D01*
X127849523Y-90524211D01*
X127679254Y-90464631D01*
X127679249Y-90464630D01*
X127500004Y-90444435D01*
X127499996Y-90444435D01*
X127320750Y-90464630D01*
X127320745Y-90464631D01*
X127150477Y-90524211D01*
X127092277Y-90560781D01*
X127065805Y-90577415D01*
X127064724Y-90578094D01*
X126998752Y-90597100D01*
X119124000Y-90597100D01*
X119056961Y-90577415D01*
X119011206Y-90524611D01*
X119000000Y-90473100D01*
X119000000Y-73000000D01*
X113624000Y-73000000D01*
X113556961Y-72980315D01*
X113511206Y-72927511D01*
X113500000Y-72876000D01*
X113500000Y-68080000D01*
X114643811Y-68080000D01*
X114662538Y-68317963D01*
X114718261Y-68550068D01*
X114809608Y-68770600D01*
X114809610Y-68770604D01*
X114809611Y-68770605D01*
X114934332Y-68974132D01*
X115089357Y-69155643D01*
X115215225Y-69263144D01*
X115238180Y-69282750D01*
X115276373Y-69341257D01*
X115279887Y-69381335D01*
X116029057Y-70130504D01*
X115968919Y-70146619D01*
X115853080Y-70213498D01*
X115758498Y-70308080D01*
X115691619Y-70423919D01*
X115675505Y-70484057D01*
X114928229Y-69736781D01*
X114810056Y-69929621D01*
X114718742Y-70150074D01*
X114663033Y-70382116D01*
X114644312Y-70620000D01*
X114663033Y-70857883D01*
X114718742Y-71089925D01*
X114810056Y-71310378D01*
X114928229Y-71503217D01*
X115675504Y-70755941D01*
X115691619Y-70816081D01*
X115758498Y-70931920D01*
X115853080Y-71026502D01*
X115968919Y-71093381D01*
X116029057Y-71109494D01*
X115281781Y-71856769D01*
X115474621Y-71974943D01*
X115695075Y-72066257D01*
X115695072Y-72066257D01*
X115927116Y-72121966D01*
X116165000Y-72140687D01*
X116402883Y-72121966D01*
X116634925Y-72066257D01*
X116855378Y-71974943D01*
X117048217Y-71856770D01*
X117048217Y-71856769D01*
X117031454Y-71840006D01*
X120421225Y-71840006D01*
X120439892Y-72065289D01*
X120495388Y-72284439D01*
X120586198Y-72491466D01*
X120709842Y-72680716D01*
X120709850Y-72680727D01*
X120862950Y-72847036D01*
X120862954Y-72847040D01*
X121041351Y-72985893D01*
X121240169Y-73093488D01*
X121240172Y-73093489D01*
X121453982Y-73166890D01*
X121453984Y-73166890D01*
X121453986Y-73166891D01*
X121676967Y-73204100D01*
X121676968Y-73204100D01*
X121903032Y-73204100D01*
X121903033Y-73204100D01*
X122126014Y-73166891D01*
X122339831Y-73093488D01*
X122538649Y-72985893D01*
X122717046Y-72847040D01*
X122870156Y-72680719D01*
X122993802Y-72491465D01*
X123084611Y-72284441D01*
X123140107Y-72065293D01*
X123155476Y-71879815D01*
X123158775Y-71840006D01*
X123158775Y-71839993D01*
X123145707Y-71682294D01*
X123140107Y-71614707D01*
X123084611Y-71395559D01*
X122993802Y-71188535D01*
X122992864Y-71187100D01*
X122896692Y-71039898D01*
X122870156Y-70999281D01*
X122870153Y-70999278D01*
X122870149Y-70999272D01*
X122717049Y-70832963D01*
X122717048Y-70832962D01*
X122717046Y-70832960D01*
X122538649Y-70694107D01*
X122538647Y-70694106D01*
X122538646Y-70694105D01*
X122538639Y-70694100D01*
X122510836Y-70679055D01*
X122461244Y-70629837D01*
X122446135Y-70561620D01*
X122470306Y-70496064D01*
X122510836Y-70460945D01*
X122538639Y-70445899D01*
X122538642Y-70445896D01*
X122538649Y-70445893D01*
X122717046Y-70307040D01*
X122870156Y-70140719D01*
X122993802Y-69951465D01*
X123084611Y-69744441D01*
X123140107Y-69525293D01*
X123152119Y-69380324D01*
X123158775Y-69300006D01*
X123158775Y-69299993D01*
X123145707Y-69142294D01*
X123140107Y-69074707D01*
X123084611Y-68855559D01*
X122993802Y-68648535D01*
X122992864Y-68647100D01*
X122896692Y-68499898D01*
X122870156Y-68459281D01*
X122870153Y-68459278D01*
X122870149Y-68459272D01*
X122717049Y-68292963D01*
X122717048Y-68292962D01*
X122717046Y-68292960D01*
X122538649Y-68154107D01*
X122538647Y-68154106D01*
X122538646Y-68154105D01*
X122538639Y-68154100D01*
X122510836Y-68139055D01*
X122461244Y-68089837D01*
X122446135Y-68021620D01*
X122470306Y-67956064D01*
X122510836Y-67920945D01*
X122538639Y-67905899D01*
X122538642Y-67905896D01*
X122538649Y-67905893D01*
X122717046Y-67767040D01*
X122861676Y-67609931D01*
X122870149Y-67600727D01*
X122870150Y-67600725D01*
X122870156Y-67600719D01*
X122993802Y-67411465D01*
X123084611Y-67204441D01*
X123140107Y-66985293D01*
X123151879Y-66843229D01*
X123158775Y-66760006D01*
X123158775Y-66759993D01*
X123145707Y-66602294D01*
X123140107Y-66534707D01*
X123084611Y-66315559D01*
X122993802Y-66108535D01*
X122954252Y-66048000D01*
X122896692Y-65959898D01*
X122870156Y-65919281D01*
X122870153Y-65919278D01*
X122870149Y-65919272D01*
X122717049Y-65752963D01*
X122717048Y-65752962D01*
X122717046Y-65752960D01*
X122538649Y-65614107D01*
X122538647Y-65614106D01*
X122538646Y-65614105D01*
X122538639Y-65614100D01*
X122510836Y-65599055D01*
X122461244Y-65549837D01*
X122446135Y-65481620D01*
X122470306Y-65416064D01*
X122510836Y-65380945D01*
X122538639Y-65365899D01*
X122538642Y-65365896D01*
X122538649Y-65365893D01*
X122717046Y-65227040D01*
X122861676Y-65069931D01*
X122870149Y-65060727D01*
X122870150Y-65060725D01*
X122870156Y-65060719D01*
X122993802Y-64871465D01*
X123084611Y-64664441D01*
X123140107Y-64445293D01*
X123154632Y-64270000D01*
X123158775Y-64220006D01*
X123158775Y-64219993D01*
X123140107Y-63994710D01*
X123140107Y-63994707D01*
X123084611Y-63775559D01*
X122993802Y-63568535D01*
X122992864Y-63567100D01*
X122896692Y-63419898D01*
X122870156Y-63379281D01*
X122870153Y-63379278D01*
X122870149Y-63379272D01*
X122717049Y-63212963D01*
X122717048Y-63212962D01*
X122717046Y-63212960D01*
X122538649Y-63074107D01*
X122538647Y-63074106D01*
X122538646Y-63074105D01*
X122538639Y-63074100D01*
X122510836Y-63059055D01*
X122461244Y-63009837D01*
X122446135Y-62941620D01*
X122470306Y-62876064D01*
X122510836Y-62840945D01*
X122538639Y-62825899D01*
X122538642Y-62825896D01*
X122538649Y-62825893D01*
X122717046Y-62687040D01*
X122861676Y-62529931D01*
X122870149Y-62520727D01*
X122870150Y-62520725D01*
X122870156Y-62520719D01*
X122993802Y-62331465D01*
X123084611Y-62124441D01*
X123140107Y-61905293D01*
X123157250Y-61698408D01*
X123158775Y-61680006D01*
X123158775Y-61679993D01*
X123140107Y-61454710D01*
X123140107Y-61454707D01*
X123084611Y-61235559D01*
X122993802Y-61028535D01*
X122992864Y-61027100D01*
X122929470Y-60930068D01*
X122870156Y-60839281D01*
X122870153Y-60839278D01*
X122870149Y-60839272D01*
X122717049Y-60672963D01*
X122717048Y-60672962D01*
X122717046Y-60672960D01*
X122538649Y-60534107D01*
X122512390Y-60519896D01*
X122339832Y-60426512D01*
X122339827Y-60426510D01*
X122126017Y-60353109D01*
X121958778Y-60325202D01*
X121903033Y-60315900D01*
X121676967Y-60315900D01*
X121632370Y-60323341D01*
X121453982Y-60353109D01*
X121240172Y-60426510D01*
X121240167Y-60426512D01*
X121041352Y-60534106D01*
X120862955Y-60672959D01*
X120862950Y-60672963D01*
X120709850Y-60839272D01*
X120709842Y-60839283D01*
X120586198Y-61028533D01*
X120495388Y-61235560D01*
X120439892Y-61454710D01*
X120421225Y-61679993D01*
X120421225Y-61680006D01*
X120439892Y-61905289D01*
X120495388Y-62124439D01*
X120586198Y-62331466D01*
X120709842Y-62520716D01*
X120709850Y-62520727D01*
X120862950Y-62687036D01*
X120862954Y-62687040D01*
X121041351Y-62825893D01*
X121069165Y-62840945D01*
X121118755Y-62890165D01*
X121133863Y-62958382D01*
X121109692Y-63023937D01*
X121069165Y-63059055D01*
X121041352Y-63074106D01*
X120862955Y-63212959D01*
X120862950Y-63212963D01*
X120709850Y-63379272D01*
X120709842Y-63379283D01*
X120586198Y-63568533D01*
X120495388Y-63775560D01*
X120439892Y-63994710D01*
X120421225Y-64219993D01*
X120421225Y-64220006D01*
X120439892Y-64445289D01*
X120495388Y-64664439D01*
X120586198Y-64871466D01*
X120709842Y-65060716D01*
X120709850Y-65060727D01*
X120825585Y-65186447D01*
X120862954Y-65227040D01*
X121041351Y-65365893D01*
X121069165Y-65380945D01*
X121118755Y-65430165D01*
X121133863Y-65498382D01*
X121109692Y-65563937D01*
X121069165Y-65599055D01*
X121041352Y-65614106D01*
X120862955Y-65752959D01*
X120862950Y-65752963D01*
X120709850Y-65919272D01*
X120709842Y-65919283D01*
X120586198Y-66108533D01*
X120495388Y-66315560D01*
X120439892Y-66534710D01*
X120421225Y-66759993D01*
X120421225Y-66760006D01*
X120439892Y-66985289D01*
X120495388Y-67204439D01*
X120586198Y-67411466D01*
X120709842Y-67600716D01*
X120709850Y-67600727D01*
X120825585Y-67726447D01*
X120862954Y-67767040D01*
X121041351Y-67905893D01*
X121069165Y-67920945D01*
X121118755Y-67970165D01*
X121133863Y-68038382D01*
X121109692Y-68103937D01*
X121069165Y-68139055D01*
X121041352Y-68154106D01*
X120862955Y-68292959D01*
X120862950Y-68292963D01*
X120709850Y-68459272D01*
X120709842Y-68459283D01*
X120586198Y-68648533D01*
X120495388Y-68855560D01*
X120439892Y-69074710D01*
X120421225Y-69299993D01*
X120421225Y-69300006D01*
X120439892Y-69525289D01*
X120495388Y-69744439D01*
X120586198Y-69951466D01*
X120709842Y-70140716D01*
X120709850Y-70140727D01*
X120825585Y-70266447D01*
X120862954Y-70307040D01*
X121041351Y-70445893D01*
X121069165Y-70460945D01*
X121118755Y-70510165D01*
X121133863Y-70578382D01*
X121109692Y-70643937D01*
X121069165Y-70679055D01*
X121041352Y-70694106D01*
X120862955Y-70832959D01*
X120862950Y-70832963D01*
X120709850Y-70999272D01*
X120709842Y-70999283D01*
X120586198Y-71188533D01*
X120495388Y-71395560D01*
X120439892Y-71614710D01*
X120421225Y-71839993D01*
X120421225Y-71840006D01*
X117031454Y-71840006D01*
X116300942Y-71109495D01*
X116361081Y-71093381D01*
X116476920Y-71026502D01*
X116571502Y-70931920D01*
X116638381Y-70816081D01*
X116654495Y-70755942D01*
X117401769Y-71503217D01*
X117401770Y-71503217D01*
X117519943Y-71310378D01*
X117611257Y-71089925D01*
X117666966Y-70857883D01*
X117685687Y-70620000D01*
X117666966Y-70382116D01*
X117611257Y-70150074D01*
X117519943Y-69929621D01*
X117401769Y-69736781D01*
X116654494Y-70484056D01*
X116638381Y-70423919D01*
X116571502Y-70308080D01*
X116476920Y-70213498D01*
X116361081Y-70146619D01*
X116300942Y-70130505D01*
X117051122Y-69380324D01*
X117060878Y-69322728D01*
X117091816Y-69282752D01*
X117240643Y-69155643D01*
X117395668Y-68974132D01*
X117520389Y-68770605D01*
X117611737Y-68550073D01*
X117667461Y-68317966D01*
X117686189Y-68080000D01*
X117667461Y-67842034D01*
X117611737Y-67609927D01*
X117520389Y-67389395D01*
X117395668Y-67185868D01*
X117240643Y-67004357D01*
X117123478Y-66904288D01*
X117085286Y-66845783D01*
X117084787Y-66775916D01*
X117122141Y-66716869D01*
X117123439Y-66715744D01*
X117240643Y-66615643D01*
X117395668Y-66434132D01*
X117520389Y-66230605D01*
X117611737Y-66010073D01*
X117667461Y-65777966D01*
X117686189Y-65540000D01*
X117667461Y-65302034D01*
X117611737Y-65069927D01*
X117520389Y-64849395D01*
X117395668Y-64645868D01*
X117240643Y-64464357D01*
X117123478Y-64364288D01*
X117085286Y-64305783D01*
X117084787Y-64235916D01*
X117122141Y-64176869D01*
X117123439Y-64175744D01*
X117240643Y-64075643D01*
X117395668Y-63894132D01*
X117520389Y-63690605D01*
X117611737Y-63470073D01*
X117667461Y-63237966D01*
X117686189Y-63000000D01*
X117667461Y-62762034D01*
X117611737Y-62529927D01*
X117520389Y-62309395D01*
X117395668Y-62105868D01*
X117240643Y-61924357D01*
X117123478Y-61824288D01*
X117085286Y-61765783D01*
X117084787Y-61695916D01*
X117122141Y-61636869D01*
X117123439Y-61635744D01*
X117240643Y-61535643D01*
X117395668Y-61354132D01*
X117520389Y-61150605D01*
X117611737Y-60930073D01*
X117667461Y-60697966D01*
X117686189Y-60460000D01*
X117667461Y-60222034D01*
X117611737Y-59989927D01*
X117520389Y-59769395D01*
X117395668Y-59565868D01*
X117240643Y-59384357D01*
X117059132Y-59229332D01*
X116855605Y-59104611D01*
X116855604Y-59104610D01*
X116855600Y-59104608D01*
X116635068Y-59013261D01*
X116402962Y-58957538D01*
X116402963Y-58957538D01*
X116165000Y-58938811D01*
X115927036Y-58957538D01*
X115694931Y-59013261D01*
X115474399Y-59104608D01*
X115270867Y-59229332D01*
X115089357Y-59384357D01*
X114934332Y-59565867D01*
X114809608Y-59769399D01*
X114718261Y-59989931D01*
X114662538Y-60222036D01*
X114643811Y-60460000D01*
X114662538Y-60697963D01*
X114718261Y-60930068D01*
X114809608Y-61150600D01*
X114809610Y-61150604D01*
X114809611Y-61150605D01*
X114934332Y-61354132D01*
X115089357Y-61535643D01*
X115174876Y-61608683D01*
X115206520Y-61635710D01*
X115244713Y-61694217D01*
X115245211Y-61764085D01*
X115207857Y-61823131D01*
X115206520Y-61824290D01*
X115089357Y-61924357D01*
X114934332Y-62105867D01*
X114809608Y-62309399D01*
X114718261Y-62529931D01*
X114662538Y-62762036D01*
X114643811Y-63000000D01*
X114662538Y-63237963D01*
X114718261Y-63470068D01*
X114809608Y-63690600D01*
X114809610Y-63690604D01*
X114809611Y-63690605D01*
X114934332Y-63894132D01*
X115089357Y-64075643D01*
X115174876Y-64148683D01*
X115206520Y-64175710D01*
X115244713Y-64234217D01*
X115245211Y-64304085D01*
X115207857Y-64363131D01*
X115206520Y-64364290D01*
X115089357Y-64464357D01*
X114934332Y-64645867D01*
X114809608Y-64849399D01*
X114718261Y-65069931D01*
X114662538Y-65302036D01*
X114643811Y-65540000D01*
X114662538Y-65777963D01*
X114718261Y-66010068D01*
X114809608Y-66230600D01*
X114809610Y-66230604D01*
X114809611Y-66230605D01*
X114934332Y-66434132D01*
X115089357Y-66615643D01*
X115174876Y-66688683D01*
X115206520Y-66715710D01*
X115244713Y-66774217D01*
X115245211Y-66844085D01*
X115207857Y-66903131D01*
X115206520Y-66904290D01*
X115089357Y-67004357D01*
X114934332Y-67185867D01*
X114809608Y-67389399D01*
X114718261Y-67609931D01*
X114662538Y-67842036D01*
X114643811Y-68080000D01*
X113500000Y-68080000D01*
X113500000Y-55621288D01*
X122399500Y-55621288D01*
X122431161Y-55861785D01*
X122493947Y-56096104D01*
X122572646Y-56286100D01*
X122586776Y-56320212D01*
X122708064Y-56530289D01*
X122708066Y-56530292D01*
X122708067Y-56530293D01*
X122855733Y-56722736D01*
X122855739Y-56722743D01*
X123027256Y-56894260D01*
X123027263Y-56894266D01*
X123051343Y-56912743D01*
X123219711Y-57041936D01*
X123429788Y-57163224D01*
X123653900Y-57256054D01*
X123888211Y-57318838D01*
X124068586Y-57342584D01*
X124128711Y-57350500D01*
X124128712Y-57350500D01*
X124371289Y-57350500D01*
X124419388Y-57344167D01*
X124611789Y-57318838D01*
X124846100Y-57256054D01*
X125070212Y-57163224D01*
X125280289Y-57041936D01*
X125472738Y-56894265D01*
X125644265Y-56722738D01*
X125791936Y-56530289D01*
X125913224Y-56320212D01*
X126006054Y-56096100D01*
X126068838Y-55861789D01*
X126100500Y-55621288D01*
X165899500Y-55621288D01*
X165931161Y-55861785D01*
X165993947Y-56096104D01*
X166072646Y-56286100D01*
X166086776Y-56320212D01*
X166208064Y-56530289D01*
X166208066Y-56530292D01*
X166208067Y-56530293D01*
X166355733Y-56722736D01*
X166355739Y-56722743D01*
X166527256Y-56894260D01*
X166527263Y-56894266D01*
X166551343Y-56912743D01*
X166719711Y-57041936D01*
X166929788Y-57163224D01*
X167153900Y-57256054D01*
X167388211Y-57318838D01*
X167568586Y-57342584D01*
X167628711Y-57350500D01*
X167628712Y-57350500D01*
X167871289Y-57350500D01*
X167919388Y-57344167D01*
X168111789Y-57318838D01*
X168346100Y-57256054D01*
X168570212Y-57163224D01*
X168780289Y-57041936D01*
X168972738Y-56894265D01*
X169144265Y-56722738D01*
X169291936Y-56530289D01*
X169413224Y-56320212D01*
X169506054Y-56096100D01*
X169568838Y-55861789D01*
X169600500Y-55621288D01*
X169600500Y-55378712D01*
X169568838Y-55138211D01*
X169506054Y-54903900D01*
X169413224Y-54679788D01*
X169291936Y-54469711D01*
X169144265Y-54277262D01*
X169144260Y-54277256D01*
X168972743Y-54105739D01*
X168972736Y-54105733D01*
X168780293Y-53958067D01*
X168780292Y-53958066D01*
X168780289Y-53958064D01*
X168570212Y-53836776D01*
X168570205Y-53836773D01*
X168346104Y-53743947D01*
X168111785Y-53681161D01*
X167871289Y-53649500D01*
X167871288Y-53649500D01*
X167628712Y-53649500D01*
X167628711Y-53649500D01*
X167388214Y-53681161D01*
X167153895Y-53743947D01*
X166929794Y-53836773D01*
X166929785Y-53836777D01*
X166719706Y-53958067D01*
X166527263Y-54105733D01*
X166527256Y-54105739D01*
X166355739Y-54277256D01*
X166355733Y-54277263D01*
X166208067Y-54469706D01*
X166086777Y-54679785D01*
X166086773Y-54679794D01*
X165993947Y-54903895D01*
X165931161Y-55138214D01*
X165899500Y-55378711D01*
X165899500Y-55621288D01*
X126100500Y-55621288D01*
X126100500Y-55378712D01*
X126068838Y-55138211D01*
X126006054Y-54903900D01*
X125913224Y-54679788D01*
X125791936Y-54469711D01*
X125644265Y-54277262D01*
X125644260Y-54277256D01*
X125472743Y-54105739D01*
X125472736Y-54105733D01*
X125280293Y-53958067D01*
X125280292Y-53958066D01*
X125280289Y-53958064D01*
X125070212Y-53836776D01*
X125070205Y-53836773D01*
X124846104Y-53743947D01*
X124611785Y-53681161D01*
X124371289Y-53649500D01*
X124371288Y-53649500D01*
X124128712Y-53649500D01*
X124128711Y-53649500D01*
X123888214Y-53681161D01*
X123653895Y-53743947D01*
X123429794Y-53836773D01*
X123429785Y-53836777D01*
X123219706Y-53958067D01*
X123027263Y-54105733D01*
X123027256Y-54105739D01*
X122855739Y-54277256D01*
X122855733Y-54277263D01*
X122708067Y-54469706D01*
X122586777Y-54679785D01*
X122586773Y-54679794D01*
X122493947Y-54903895D01*
X122431161Y-55138214D01*
X122399500Y-55378711D01*
X122399500Y-55621288D01*
X113500000Y-55621288D01*
X113500000Y-51124500D01*
X113519685Y-51057461D01*
X113572489Y-51011706D01*
X113624000Y-51000500D01*
X167684108Y-51000500D01*
X167747294Y-51000500D01*
X167752702Y-51000617D01*
G37*
%TD.AperFunction*%
%TA.AperFunction,Conductor*%
G36*
X74076619Y-68276081D02*
G01*
X74143498Y-68391920D01*
X74238080Y-68486502D01*
X74353919Y-68553381D01*
X74414057Y-68569494D01*
X73666781Y-69316769D01*
X73668990Y-69335425D01*
X73668990Y-69364573D01*
X73666781Y-69383229D01*
X74414057Y-70130504D01*
X74353919Y-70146619D01*
X74238080Y-70213498D01*
X74143498Y-70308080D01*
X74076619Y-70423919D01*
X74060505Y-70484057D01*
X73286819Y-69710371D01*
X73253334Y-69649048D01*
X73250500Y-69622690D01*
X73250500Y-69077309D01*
X73270185Y-69010270D01*
X73286819Y-68989628D01*
X74060504Y-68215942D01*
X74076619Y-68276081D01*
G37*
%TD.AperFunction*%
%TA.AperFunction,Conductor*%
G36*
X74076619Y-65736081D02*
G01*
X74143498Y-65851920D01*
X74238080Y-65946502D01*
X74353919Y-66013381D01*
X74414057Y-66029494D01*
X73666781Y-66776769D01*
X73668990Y-66795425D01*
X73668990Y-66824573D01*
X73666781Y-66843229D01*
X74414057Y-67590504D01*
X74353919Y-67606619D01*
X74238080Y-67673498D01*
X74143498Y-67768080D01*
X74076619Y-67883919D01*
X74060505Y-67944057D01*
X73286819Y-67170371D01*
X73253334Y-67109048D01*
X73250500Y-67082690D01*
X73250500Y-66537309D01*
X73270185Y-66470270D01*
X73286819Y-66449628D01*
X74060504Y-65675942D01*
X74076619Y-65736081D01*
G37*
%TD.AperFunction*%
%TA.AperFunction,Conductor*%
G36*
X73455703Y-64055943D02*
G01*
X73468784Y-64069118D01*
X73474356Y-64075642D01*
X73474358Y-64075644D01*
X73623180Y-64202750D01*
X73661373Y-64261257D01*
X73664887Y-64301335D01*
X74414057Y-65050504D01*
X74353919Y-65066619D01*
X74238080Y-65133498D01*
X74143498Y-65228080D01*
X74076619Y-65343919D01*
X74060505Y-65404057D01*
X73286819Y-64630371D01*
X73253334Y-64569048D01*
X73250500Y-64542690D01*
X73250500Y-64149656D01*
X73270185Y-64082617D01*
X73322989Y-64036862D01*
X73392147Y-64026918D01*
X73455703Y-64055943D01*
G37*
%TD.AperFunction*%
%TD*%
M02*
