%TF.GenerationSoftware,KiCad,Pcbnew,8.0.5*%
%TF.CreationDate,2024-09-22T23:27:43-04:00*%
%TF.ProjectId,myPowerBoardDesign,6d79506f-7765-4724-926f-617264446573,rev?*%
%TF.SameCoordinates,Original*%
%TF.FileFunction,Legend,Bot*%
%TF.FilePolarity,Positive*%
%FSLAX46Y46*%
G04 Gerber Fmt 4.6, Leading zero omitted, Abs format (unit mm)*
G04 Created by KiCad (PCBNEW 8.0.5) date 2024-09-22 23:27:43*
%MOMM*%
%LPD*%
G01*
G04 APERTURE LIST*
%ADD10C,0.150000*%
%ADD11C,0.000000*%
G04 APERTURE END LIST*
D10*
X85512969Y-54928013D02*
X85398684Y-54985156D01*
X85398684Y-54985156D02*
X85227255Y-54985156D01*
X85227255Y-54985156D02*
X85055826Y-54928013D01*
X85055826Y-54928013D02*
X84941541Y-54813727D01*
X84941541Y-54813727D02*
X84884398Y-54699441D01*
X84884398Y-54699441D02*
X84827255Y-54470870D01*
X84827255Y-54470870D02*
X84827255Y-54299441D01*
X84827255Y-54299441D02*
X84884398Y-54070870D01*
X84884398Y-54070870D02*
X84941541Y-53956584D01*
X84941541Y-53956584D02*
X85055826Y-53842299D01*
X85055826Y-53842299D02*
X85227255Y-53785156D01*
X85227255Y-53785156D02*
X85341541Y-53785156D01*
X85341541Y-53785156D02*
X85512969Y-53842299D01*
X85512969Y-53842299D02*
X85570112Y-53899441D01*
X85570112Y-53899441D02*
X85570112Y-54299441D01*
X85570112Y-54299441D02*
X85341541Y-54299441D01*
X86084398Y-53785156D02*
X86084398Y-54985156D01*
X86084398Y-54985156D02*
X86770112Y-53785156D01*
X86770112Y-53785156D02*
X86770112Y-54985156D01*
X87341541Y-53785156D02*
X87341541Y-54985156D01*
X87341541Y-54985156D02*
X87627255Y-54985156D01*
X87627255Y-54985156D02*
X87798684Y-54928013D01*
X87798684Y-54928013D02*
X87912969Y-54813727D01*
X87912969Y-54813727D02*
X87970112Y-54699441D01*
X87970112Y-54699441D02*
X88027255Y-54470870D01*
X88027255Y-54470870D02*
X88027255Y-54299441D01*
X88027255Y-54299441D02*
X87970112Y-54070870D01*
X87970112Y-54070870D02*
X87912969Y-53956584D01*
X87912969Y-53956584D02*
X87798684Y-53842299D01*
X87798684Y-53842299D02*
X87627255Y-53785156D01*
X87627255Y-53785156D02*
X87341541Y-53785156D01*
X51145826Y-52428013D02*
X51031541Y-52485156D01*
X51031541Y-52485156D02*
X50860112Y-52485156D01*
X50860112Y-52485156D02*
X50688683Y-52428013D01*
X50688683Y-52428013D02*
X50574398Y-52313727D01*
X50574398Y-52313727D02*
X50517255Y-52199441D01*
X50517255Y-52199441D02*
X50460112Y-51970870D01*
X50460112Y-51970870D02*
X50460112Y-51799441D01*
X50460112Y-51799441D02*
X50517255Y-51570870D01*
X50517255Y-51570870D02*
X50574398Y-51456584D01*
X50574398Y-51456584D02*
X50688683Y-51342299D01*
X50688683Y-51342299D02*
X50860112Y-51285156D01*
X50860112Y-51285156D02*
X50974398Y-51285156D01*
X50974398Y-51285156D02*
X51145826Y-51342299D01*
X51145826Y-51342299D02*
X51202969Y-51399441D01*
X51202969Y-51399441D02*
X51202969Y-51799441D01*
X51202969Y-51799441D02*
X50974398Y-51799441D01*
X51717255Y-51285156D02*
X51717255Y-52485156D01*
X51717255Y-52485156D02*
X52402969Y-51285156D01*
X52402969Y-51285156D02*
X52402969Y-52485156D01*
X52974398Y-51285156D02*
X52974398Y-52485156D01*
X52974398Y-52485156D02*
X53260112Y-52485156D01*
X53260112Y-52485156D02*
X53431541Y-52428013D01*
X53431541Y-52428013D02*
X53545826Y-52313727D01*
X53545826Y-52313727D02*
X53602969Y-52199441D01*
X53602969Y-52199441D02*
X53660112Y-51970870D01*
X53660112Y-51970870D02*
X53660112Y-51799441D01*
X53660112Y-51799441D02*
X53602969Y-51570870D01*
X53602969Y-51570870D02*
X53545826Y-51456584D01*
X53545826Y-51456584D02*
X53431541Y-51342299D01*
X53431541Y-51342299D02*
X53260112Y-51285156D01*
X53260112Y-51285156D02*
X52974398Y-51285156D01*
X51145826Y-54928013D02*
X51031541Y-54985156D01*
X51031541Y-54985156D02*
X50860112Y-54985156D01*
X50860112Y-54985156D02*
X50688683Y-54928013D01*
X50688683Y-54928013D02*
X50574398Y-54813727D01*
X50574398Y-54813727D02*
X50517255Y-54699441D01*
X50517255Y-54699441D02*
X50460112Y-54470870D01*
X50460112Y-54470870D02*
X50460112Y-54299441D01*
X50460112Y-54299441D02*
X50517255Y-54070870D01*
X50517255Y-54070870D02*
X50574398Y-53956584D01*
X50574398Y-53956584D02*
X50688683Y-53842299D01*
X50688683Y-53842299D02*
X50860112Y-53785156D01*
X50860112Y-53785156D02*
X50974398Y-53785156D01*
X50974398Y-53785156D02*
X51145826Y-53842299D01*
X51145826Y-53842299D02*
X51202969Y-53899441D01*
X51202969Y-53899441D02*
X51202969Y-54299441D01*
X51202969Y-54299441D02*
X50974398Y-54299441D01*
X51717255Y-53785156D02*
X51717255Y-54985156D01*
X51717255Y-54985156D02*
X52402969Y-53785156D01*
X52402969Y-53785156D02*
X52402969Y-54985156D01*
X52974398Y-53785156D02*
X52974398Y-54985156D01*
X52974398Y-54985156D02*
X53260112Y-54985156D01*
X53260112Y-54985156D02*
X53431541Y-54928013D01*
X53431541Y-54928013D02*
X53545826Y-54813727D01*
X53545826Y-54813727D02*
X53602969Y-54699441D01*
X53602969Y-54699441D02*
X53660112Y-54470870D01*
X53660112Y-54470870D02*
X53660112Y-54299441D01*
X53660112Y-54299441D02*
X53602969Y-54070870D01*
X53602969Y-54070870D02*
X53545826Y-53956584D01*
X53545826Y-53956584D02*
X53431541Y-53842299D01*
X53431541Y-53842299D02*
X53260112Y-53785156D01*
X53260112Y-53785156D02*
X52974398Y-53785156D01*
X85017256Y-46742300D02*
X85931542Y-46742300D01*
X85474399Y-46285157D02*
X85474399Y-47199442D01*
X87074398Y-47485157D02*
X86502970Y-47485157D01*
X86502970Y-47485157D02*
X86445827Y-46913728D01*
X86445827Y-46913728D02*
X86502970Y-46970871D01*
X86502970Y-46970871D02*
X86617256Y-47028014D01*
X86617256Y-47028014D02*
X86902970Y-47028014D01*
X86902970Y-47028014D02*
X87017256Y-46970871D01*
X87017256Y-46970871D02*
X87074398Y-46913728D01*
X87074398Y-46913728D02*
X87131541Y-46799442D01*
X87131541Y-46799442D02*
X87131541Y-46513728D01*
X87131541Y-46513728D02*
X87074398Y-46399442D01*
X87074398Y-46399442D02*
X87017256Y-46342300D01*
X87017256Y-46342300D02*
X86902970Y-46285157D01*
X86902970Y-46285157D02*
X86617256Y-46285157D01*
X86617256Y-46285157D02*
X86502970Y-46342300D01*
X86502970Y-46342300D02*
X86445827Y-46399442D01*
X87474398Y-47485157D02*
X87874398Y-46285157D01*
X87874398Y-46285157D02*
X88274398Y-47485157D01*
X51145826Y-49928013D02*
X51031541Y-49985156D01*
X51031541Y-49985156D02*
X50860112Y-49985156D01*
X50860112Y-49985156D02*
X50688683Y-49928013D01*
X50688683Y-49928013D02*
X50574398Y-49813727D01*
X50574398Y-49813727D02*
X50517255Y-49699441D01*
X50517255Y-49699441D02*
X50460112Y-49470870D01*
X50460112Y-49470870D02*
X50460112Y-49299441D01*
X50460112Y-49299441D02*
X50517255Y-49070870D01*
X50517255Y-49070870D02*
X50574398Y-48956584D01*
X50574398Y-48956584D02*
X50688683Y-48842299D01*
X50688683Y-48842299D02*
X50860112Y-48785156D01*
X50860112Y-48785156D02*
X50974398Y-48785156D01*
X50974398Y-48785156D02*
X51145826Y-48842299D01*
X51145826Y-48842299D02*
X51202969Y-48899441D01*
X51202969Y-48899441D02*
X51202969Y-49299441D01*
X51202969Y-49299441D02*
X50974398Y-49299441D01*
X51717255Y-48785156D02*
X51717255Y-49985156D01*
X51717255Y-49985156D02*
X52402969Y-48785156D01*
X52402969Y-48785156D02*
X52402969Y-49985156D01*
X52974398Y-48785156D02*
X52974398Y-49985156D01*
X52974398Y-49985156D02*
X53260112Y-49985156D01*
X53260112Y-49985156D02*
X53431541Y-49928013D01*
X53431541Y-49928013D02*
X53545826Y-49813727D01*
X53545826Y-49813727D02*
X53602969Y-49699441D01*
X53602969Y-49699441D02*
X53660112Y-49470870D01*
X53660112Y-49470870D02*
X53660112Y-49299441D01*
X53660112Y-49299441D02*
X53602969Y-49070870D01*
X53602969Y-49070870D02*
X53545826Y-48956584D01*
X53545826Y-48956584D02*
X53431541Y-48842299D01*
X53431541Y-48842299D02*
X53260112Y-48785156D01*
X53260112Y-48785156D02*
X52974398Y-48785156D01*
X50712969Y-47354657D02*
X51112969Y-46154657D01*
X51112969Y-46154657D02*
X51512969Y-47354657D01*
X51912969Y-46154657D02*
X51912969Y-47354657D01*
X52484398Y-46154657D02*
X52484398Y-47354657D01*
X52484398Y-47354657D02*
X53170112Y-46154657D01*
X53170112Y-46154657D02*
X53170112Y-47354657D01*
X61336779Y-37740124D02*
X61336779Y-38740124D01*
X61336779Y-38263934D02*
X61908207Y-38263934D01*
X61908207Y-37740124D02*
X61908207Y-38740124D01*
X62812969Y-38406791D02*
X62812969Y-37740124D01*
X62384398Y-38406791D02*
X62384398Y-37882982D01*
X62384398Y-37882982D02*
X62432017Y-37787744D01*
X62432017Y-37787744D02*
X62527255Y-37740124D01*
X62527255Y-37740124D02*
X62670112Y-37740124D01*
X62670112Y-37740124D02*
X62765350Y-37787744D01*
X62765350Y-37787744D02*
X62812969Y-37835363D01*
X63241541Y-37787744D02*
X63336779Y-37740124D01*
X63336779Y-37740124D02*
X63527255Y-37740124D01*
X63527255Y-37740124D02*
X63622493Y-37787744D01*
X63622493Y-37787744D02*
X63670112Y-37882982D01*
X63670112Y-37882982D02*
X63670112Y-37930601D01*
X63670112Y-37930601D02*
X63622493Y-38025839D01*
X63622493Y-38025839D02*
X63527255Y-38073458D01*
X63527255Y-38073458D02*
X63384398Y-38073458D01*
X63384398Y-38073458D02*
X63289160Y-38121077D01*
X63289160Y-38121077D02*
X63241541Y-38216315D01*
X63241541Y-38216315D02*
X63241541Y-38263934D01*
X63241541Y-38263934D02*
X63289160Y-38359172D01*
X63289160Y-38359172D02*
X63384398Y-38406791D01*
X63384398Y-38406791D02*
X63527255Y-38406791D01*
X63527255Y-38406791D02*
X63622493Y-38359172D01*
X64051065Y-37787744D02*
X64146303Y-37740124D01*
X64146303Y-37740124D02*
X64336779Y-37740124D01*
X64336779Y-37740124D02*
X64432017Y-37787744D01*
X64432017Y-37787744D02*
X64479636Y-37882982D01*
X64479636Y-37882982D02*
X64479636Y-37930601D01*
X64479636Y-37930601D02*
X64432017Y-38025839D01*
X64432017Y-38025839D02*
X64336779Y-38073458D01*
X64336779Y-38073458D02*
X64193922Y-38073458D01*
X64193922Y-38073458D02*
X64098684Y-38121077D01*
X64098684Y-38121077D02*
X64051065Y-38216315D01*
X64051065Y-38216315D02*
X64051065Y-38263934D01*
X64051065Y-38263934D02*
X64098684Y-38359172D01*
X64098684Y-38359172D02*
X64193922Y-38406791D01*
X64193922Y-38406791D02*
X64336779Y-38406791D01*
X64336779Y-38406791D02*
X64432017Y-38359172D01*
X65336779Y-37740124D02*
X65336779Y-38263934D01*
X65336779Y-38263934D02*
X65289160Y-38359172D01*
X65289160Y-38359172D02*
X65193922Y-38406791D01*
X65193922Y-38406791D02*
X65003446Y-38406791D01*
X65003446Y-38406791D02*
X64908208Y-38359172D01*
X65336779Y-37787744D02*
X65241541Y-37740124D01*
X65241541Y-37740124D02*
X65003446Y-37740124D01*
X65003446Y-37740124D02*
X64908208Y-37787744D01*
X64908208Y-37787744D02*
X64860589Y-37882982D01*
X64860589Y-37882982D02*
X64860589Y-37978220D01*
X64860589Y-37978220D02*
X64908208Y-38073458D01*
X64908208Y-38073458D02*
X65003446Y-38121077D01*
X65003446Y-38121077D02*
X65241541Y-38121077D01*
X65241541Y-38121077D02*
X65336779Y-38168696D01*
X65812970Y-37740124D02*
X65812970Y-38406791D01*
X65812970Y-38311553D02*
X65860589Y-38359172D01*
X65860589Y-38359172D02*
X65955827Y-38406791D01*
X65955827Y-38406791D02*
X66098684Y-38406791D01*
X66098684Y-38406791D02*
X66193922Y-38359172D01*
X66193922Y-38359172D02*
X66241541Y-38263934D01*
X66241541Y-38263934D02*
X66241541Y-37740124D01*
X66241541Y-38263934D02*
X66289160Y-38359172D01*
X66289160Y-38359172D02*
X66384398Y-38406791D01*
X66384398Y-38406791D02*
X66527255Y-38406791D01*
X66527255Y-38406791D02*
X66622494Y-38359172D01*
X66622494Y-38359172D02*
X66670113Y-38263934D01*
X66670113Y-38263934D02*
X66670113Y-37740124D01*
X67860589Y-38025839D02*
X68336779Y-38025839D01*
X67765351Y-37740124D02*
X68098684Y-38740124D01*
X68098684Y-38740124D02*
X68432017Y-37740124D01*
X68908208Y-37740124D02*
X68812970Y-37787744D01*
X68812970Y-37787744D02*
X68765351Y-37882982D01*
X68765351Y-37882982D02*
X68765351Y-38740124D01*
X69289161Y-38121077D02*
X70051066Y-38121077D01*
X70527256Y-37740124D02*
X70527256Y-38740124D01*
X70527256Y-38263934D02*
X71098684Y-38263934D01*
X71098684Y-37740124D02*
X71098684Y-38740124D01*
X71955827Y-37787744D02*
X71860589Y-37740124D01*
X71860589Y-37740124D02*
X71670113Y-37740124D01*
X71670113Y-37740124D02*
X71574875Y-37787744D01*
X71574875Y-37787744D02*
X71527256Y-37882982D01*
X71527256Y-37882982D02*
X71527256Y-38263934D01*
X71527256Y-38263934D02*
X71574875Y-38359172D01*
X71574875Y-38359172D02*
X71670113Y-38406791D01*
X71670113Y-38406791D02*
X71860589Y-38406791D01*
X71860589Y-38406791D02*
X71955827Y-38359172D01*
X71955827Y-38359172D02*
X72003446Y-38263934D01*
X72003446Y-38263934D02*
X72003446Y-38168696D01*
X72003446Y-38168696D02*
X71527256Y-38073458D01*
X72432018Y-37740124D02*
X72432018Y-38406791D01*
X72432018Y-38216315D02*
X72479637Y-38311553D01*
X72479637Y-38311553D02*
X72527256Y-38359172D01*
X72527256Y-38359172D02*
X72622494Y-38406791D01*
X72622494Y-38406791D02*
X72717732Y-38406791D01*
X72908209Y-38406791D02*
X73289161Y-38406791D01*
X73051066Y-38740124D02*
X73051066Y-37882982D01*
X73051066Y-37882982D02*
X73098685Y-37787744D01*
X73098685Y-37787744D02*
X73193923Y-37740124D01*
X73193923Y-37740124D02*
X73289161Y-37740124D01*
X74051066Y-37740124D02*
X74051066Y-38263934D01*
X74051066Y-38263934D02*
X74003447Y-38359172D01*
X74003447Y-38359172D02*
X73908209Y-38406791D01*
X73908209Y-38406791D02*
X73717733Y-38406791D01*
X73717733Y-38406791D02*
X73622495Y-38359172D01*
X74051066Y-37787744D02*
X73955828Y-37740124D01*
X73955828Y-37740124D02*
X73717733Y-37740124D01*
X73717733Y-37740124D02*
X73622495Y-37787744D01*
X73622495Y-37787744D02*
X73574876Y-37882982D01*
X73574876Y-37882982D02*
X73574876Y-37978220D01*
X73574876Y-37978220D02*
X73622495Y-38073458D01*
X73622495Y-38073458D02*
X73717733Y-38121077D01*
X73717733Y-38121077D02*
X73955828Y-38121077D01*
X73955828Y-38121077D02*
X74051066Y-38168696D01*
X74527257Y-38406791D02*
X74527257Y-37740124D01*
X74527257Y-38311553D02*
X74574876Y-38359172D01*
X74574876Y-38359172D02*
X74670114Y-38406791D01*
X74670114Y-38406791D02*
X74812971Y-38406791D01*
X74812971Y-38406791D02*
X74908209Y-38359172D01*
X74908209Y-38359172D02*
X74955828Y-38263934D01*
X74955828Y-38263934D02*
X74955828Y-37740124D01*
X75432019Y-37740124D02*
X75432019Y-38406791D01*
X75432019Y-38740124D02*
X75384400Y-38692505D01*
X75384400Y-38692505D02*
X75432019Y-38644886D01*
X75432019Y-38644886D02*
X75479638Y-38692505D01*
X75479638Y-38692505D02*
X75432019Y-38740124D01*
X75432019Y-38740124D02*
X75432019Y-38644886D01*
X61336779Y-36130180D02*
X61336779Y-37130180D01*
X61336779Y-37130180D02*
X61717731Y-37130180D01*
X61717731Y-37130180D02*
X61812969Y-37082561D01*
X61812969Y-37082561D02*
X61860588Y-37034942D01*
X61860588Y-37034942D02*
X61908207Y-36939704D01*
X61908207Y-36939704D02*
X61908207Y-36796847D01*
X61908207Y-36796847D02*
X61860588Y-36701609D01*
X61860588Y-36701609D02*
X61812969Y-36653990D01*
X61812969Y-36653990D02*
X61717731Y-36606371D01*
X61717731Y-36606371D02*
X61336779Y-36606371D01*
X62479636Y-36130180D02*
X62384398Y-36177800D01*
X62384398Y-36177800D02*
X62336779Y-36225419D01*
X62336779Y-36225419D02*
X62289160Y-36320657D01*
X62289160Y-36320657D02*
X62289160Y-36606371D01*
X62289160Y-36606371D02*
X62336779Y-36701609D01*
X62336779Y-36701609D02*
X62384398Y-36749228D01*
X62384398Y-36749228D02*
X62479636Y-36796847D01*
X62479636Y-36796847D02*
X62622493Y-36796847D01*
X62622493Y-36796847D02*
X62717731Y-36749228D01*
X62717731Y-36749228D02*
X62765350Y-36701609D01*
X62765350Y-36701609D02*
X62812969Y-36606371D01*
X62812969Y-36606371D02*
X62812969Y-36320657D01*
X62812969Y-36320657D02*
X62765350Y-36225419D01*
X62765350Y-36225419D02*
X62717731Y-36177800D01*
X62717731Y-36177800D02*
X62622493Y-36130180D01*
X62622493Y-36130180D02*
X62479636Y-36130180D01*
X63146303Y-36796847D02*
X63336779Y-36130180D01*
X63336779Y-36130180D02*
X63527255Y-36606371D01*
X63527255Y-36606371D02*
X63717731Y-36130180D01*
X63717731Y-36130180D02*
X63908207Y-36796847D01*
X64670112Y-36177800D02*
X64574874Y-36130180D01*
X64574874Y-36130180D02*
X64384398Y-36130180D01*
X64384398Y-36130180D02*
X64289160Y-36177800D01*
X64289160Y-36177800D02*
X64241541Y-36273038D01*
X64241541Y-36273038D02*
X64241541Y-36653990D01*
X64241541Y-36653990D02*
X64289160Y-36749228D01*
X64289160Y-36749228D02*
X64384398Y-36796847D01*
X64384398Y-36796847D02*
X64574874Y-36796847D01*
X64574874Y-36796847D02*
X64670112Y-36749228D01*
X64670112Y-36749228D02*
X64717731Y-36653990D01*
X64717731Y-36653990D02*
X64717731Y-36558752D01*
X64717731Y-36558752D02*
X64241541Y-36463514D01*
X65146303Y-36130180D02*
X65146303Y-36796847D01*
X65146303Y-36606371D02*
X65193922Y-36701609D01*
X65193922Y-36701609D02*
X65241541Y-36749228D01*
X65241541Y-36749228D02*
X65336779Y-36796847D01*
X65336779Y-36796847D02*
X65432017Y-36796847D01*
X65765351Y-36130180D02*
X65765351Y-37130180D01*
X65765351Y-36749228D02*
X65860589Y-36796847D01*
X65860589Y-36796847D02*
X66051065Y-36796847D01*
X66051065Y-36796847D02*
X66146303Y-36749228D01*
X66146303Y-36749228D02*
X66193922Y-36701609D01*
X66193922Y-36701609D02*
X66241541Y-36606371D01*
X66241541Y-36606371D02*
X66241541Y-36320657D01*
X66241541Y-36320657D02*
X66193922Y-36225419D01*
X66193922Y-36225419D02*
X66146303Y-36177800D01*
X66146303Y-36177800D02*
X66051065Y-36130180D01*
X66051065Y-36130180D02*
X65860589Y-36130180D01*
X65860589Y-36130180D02*
X65765351Y-36177800D01*
X66812970Y-36130180D02*
X66717732Y-36177800D01*
X66717732Y-36177800D02*
X66670113Y-36225419D01*
X66670113Y-36225419D02*
X66622494Y-36320657D01*
X66622494Y-36320657D02*
X66622494Y-36606371D01*
X66622494Y-36606371D02*
X66670113Y-36701609D01*
X66670113Y-36701609D02*
X66717732Y-36749228D01*
X66717732Y-36749228D02*
X66812970Y-36796847D01*
X66812970Y-36796847D02*
X66955827Y-36796847D01*
X66955827Y-36796847D02*
X67051065Y-36749228D01*
X67051065Y-36749228D02*
X67098684Y-36701609D01*
X67098684Y-36701609D02*
X67146303Y-36606371D01*
X67146303Y-36606371D02*
X67146303Y-36320657D01*
X67146303Y-36320657D02*
X67098684Y-36225419D01*
X67098684Y-36225419D02*
X67051065Y-36177800D01*
X67051065Y-36177800D02*
X66955827Y-36130180D01*
X66955827Y-36130180D02*
X66812970Y-36130180D01*
X68003446Y-36130180D02*
X68003446Y-36653990D01*
X68003446Y-36653990D02*
X67955827Y-36749228D01*
X67955827Y-36749228D02*
X67860589Y-36796847D01*
X67860589Y-36796847D02*
X67670113Y-36796847D01*
X67670113Y-36796847D02*
X67574875Y-36749228D01*
X68003446Y-36177800D02*
X67908208Y-36130180D01*
X67908208Y-36130180D02*
X67670113Y-36130180D01*
X67670113Y-36130180D02*
X67574875Y-36177800D01*
X67574875Y-36177800D02*
X67527256Y-36273038D01*
X67527256Y-36273038D02*
X67527256Y-36368276D01*
X67527256Y-36368276D02*
X67574875Y-36463514D01*
X67574875Y-36463514D02*
X67670113Y-36511133D01*
X67670113Y-36511133D02*
X67908208Y-36511133D01*
X67908208Y-36511133D02*
X68003446Y-36558752D01*
X68479637Y-36130180D02*
X68479637Y-36796847D01*
X68479637Y-36606371D02*
X68527256Y-36701609D01*
X68527256Y-36701609D02*
X68574875Y-36749228D01*
X68574875Y-36749228D02*
X68670113Y-36796847D01*
X68670113Y-36796847D02*
X68765351Y-36796847D01*
X69527256Y-36130180D02*
X69527256Y-37130180D01*
X69527256Y-36177800D02*
X69432018Y-36130180D01*
X69432018Y-36130180D02*
X69241542Y-36130180D01*
X69241542Y-36130180D02*
X69146304Y-36177800D01*
X69146304Y-36177800D02*
X69098685Y-36225419D01*
X69098685Y-36225419D02*
X69051066Y-36320657D01*
X69051066Y-36320657D02*
X69051066Y-36606371D01*
X69051066Y-36606371D02*
X69098685Y-36701609D01*
X69098685Y-36701609D02*
X69146304Y-36749228D01*
X69146304Y-36749228D02*
X69241542Y-36796847D01*
X69241542Y-36796847D02*
X69432018Y-36796847D01*
X69432018Y-36796847D02*
X69527256Y-36749228D01*
X70670114Y-36796847D02*
X70908209Y-36130180D01*
X70908209Y-36130180D02*
X71146304Y-36796847D01*
X71717733Y-37130180D02*
X71812971Y-37130180D01*
X71812971Y-37130180D02*
X71908209Y-37082561D01*
X71908209Y-37082561D02*
X71955828Y-37034942D01*
X71955828Y-37034942D02*
X72003447Y-36939704D01*
X72003447Y-36939704D02*
X72051066Y-36749228D01*
X72051066Y-36749228D02*
X72051066Y-36511133D01*
X72051066Y-36511133D02*
X72003447Y-36320657D01*
X72003447Y-36320657D02*
X71955828Y-36225419D01*
X71955828Y-36225419D02*
X71908209Y-36177800D01*
X71908209Y-36177800D02*
X71812971Y-36130180D01*
X71812971Y-36130180D02*
X71717733Y-36130180D01*
X71717733Y-36130180D02*
X71622495Y-36177800D01*
X71622495Y-36177800D02*
X71574876Y-36225419D01*
X71574876Y-36225419D02*
X71527257Y-36320657D01*
X71527257Y-36320657D02*
X71479638Y-36511133D01*
X71479638Y-36511133D02*
X71479638Y-36749228D01*
X71479638Y-36749228D02*
X71527257Y-36939704D01*
X71527257Y-36939704D02*
X71574876Y-37034942D01*
X71574876Y-37034942D02*
X71622495Y-37082561D01*
X71622495Y-37082561D02*
X71717733Y-37130180D01*
X72479638Y-36225419D02*
X72527257Y-36177800D01*
X72527257Y-36177800D02*
X72479638Y-36130180D01*
X72479638Y-36130180D02*
X72432019Y-36177800D01*
X72432019Y-36177800D02*
X72479638Y-36225419D01*
X72479638Y-36225419D02*
X72479638Y-36130180D01*
X72908209Y-37034942D02*
X72955828Y-37082561D01*
X72955828Y-37082561D02*
X73051066Y-37130180D01*
X73051066Y-37130180D02*
X73289161Y-37130180D01*
X73289161Y-37130180D02*
X73384399Y-37082561D01*
X73384399Y-37082561D02*
X73432018Y-37034942D01*
X73432018Y-37034942D02*
X73479637Y-36939704D01*
X73479637Y-36939704D02*
X73479637Y-36844466D01*
X73479637Y-36844466D02*
X73432018Y-36701609D01*
X73432018Y-36701609D02*
X72860590Y-36130180D01*
X72860590Y-36130180D02*
X73479637Y-36130180D01*
X83874399Y-44242299D02*
X84788685Y-44242299D01*
X84331542Y-43785156D02*
X84331542Y-44699441D01*
X85245827Y-44985156D02*
X85988684Y-44985156D01*
X85988684Y-44985156D02*
X85588684Y-44528013D01*
X85588684Y-44528013D02*
X85760113Y-44528013D01*
X85760113Y-44528013D02*
X85874399Y-44470870D01*
X85874399Y-44470870D02*
X85931541Y-44413727D01*
X85931541Y-44413727D02*
X85988684Y-44299441D01*
X85988684Y-44299441D02*
X85988684Y-44013727D01*
X85988684Y-44013727D02*
X85931541Y-43899441D01*
X85931541Y-43899441D02*
X85874399Y-43842299D01*
X85874399Y-43842299D02*
X85760113Y-43785156D01*
X85760113Y-43785156D02*
X85417256Y-43785156D01*
X85417256Y-43785156D02*
X85302970Y-43842299D01*
X85302970Y-43842299D02*
X85245827Y-43899441D01*
X86331541Y-44985156D02*
X86731541Y-43785156D01*
X86731541Y-43785156D02*
X87131541Y-44985156D01*
X87417255Y-44985156D02*
X88160112Y-44985156D01*
X88160112Y-44985156D02*
X87760112Y-44528013D01*
X87760112Y-44528013D02*
X87931541Y-44528013D01*
X87931541Y-44528013D02*
X88045827Y-44470870D01*
X88045827Y-44470870D02*
X88102969Y-44413727D01*
X88102969Y-44413727D02*
X88160112Y-44299441D01*
X88160112Y-44299441D02*
X88160112Y-44013727D01*
X88160112Y-44013727D02*
X88102969Y-43899441D01*
X88102969Y-43899441D02*
X88045827Y-43842299D01*
X88045827Y-43842299D02*
X87931541Y-43785156D01*
X87931541Y-43785156D02*
X87588684Y-43785156D01*
X87588684Y-43785156D02*
X87474398Y-43842299D01*
X87474398Y-43842299D02*
X87417255Y-43899441D01*
X50812969Y-44754657D02*
X51212969Y-43554657D01*
X51212969Y-43554657D02*
X51612969Y-44754657D01*
X52012969Y-43554657D02*
X52012969Y-44754657D01*
X52584398Y-43554657D02*
X52584398Y-44754657D01*
X52584398Y-44754657D02*
X53270112Y-43554657D01*
X53270112Y-43554657D02*
X53270112Y-44754657D01*
D11*
%TO.C,G\u002A\u002A\u002A*%
G36*
X59088233Y-51552898D02*
G01*
X59173398Y-51640513D01*
X59148025Y-51726827D01*
X59144400Y-51728936D01*
X59012257Y-51723178D01*
X58872751Y-51630936D01*
X58808000Y-51505633D01*
X58815535Y-51464965D01*
X58905572Y-51445243D01*
X59088233Y-51552898D01*
G37*
G36*
X66252999Y-48500377D02*
G01*
X66366212Y-48586030D01*
X66412241Y-48786082D01*
X66415126Y-48824009D01*
X66377515Y-49041771D01*
X66229026Y-49135468D01*
X65962144Y-49110518D01*
X65911284Y-49092826D01*
X65774188Y-48955921D01*
X65751691Y-48759603D01*
X65855905Y-48565961D01*
X65969804Y-48505279D01*
X66173405Y-48485528D01*
X66252999Y-48500377D01*
G37*
G36*
X65602500Y-43320075D02*
G01*
X65775185Y-43336962D01*
X65961280Y-43378892D01*
X66024194Y-43430333D01*
X65992382Y-43474364D01*
X65854861Y-43523631D01*
X65736340Y-43530626D01*
X65543633Y-43555412D01*
X65447922Y-43625170D01*
X65415335Y-43781333D01*
X65412000Y-44065333D01*
X65411750Y-44126541D01*
X65398336Y-44396019D01*
X65358743Y-44534320D01*
X65285000Y-44573333D01*
X65235401Y-44558100D01*
X65188353Y-44468061D01*
X65164577Y-44270186D01*
X65158000Y-43933909D01*
X65158000Y-43294484D01*
X65602500Y-43320075D01*
G37*
G36*
X64588965Y-43308138D02*
G01*
X64763182Y-43341014D01*
X64797745Y-43409166D01*
X64752259Y-43468015D01*
X64600189Y-43523631D01*
X64474970Y-43530323D01*
X64276982Y-43554496D01*
X64178741Y-43624233D01*
X64145373Y-43780768D01*
X64142000Y-44065333D01*
X64141750Y-44126541D01*
X64128336Y-44396019D01*
X64088743Y-44534320D01*
X64015000Y-44573333D01*
X63978643Y-44566385D01*
X63923705Y-44492489D01*
X63895781Y-44312388D01*
X63888000Y-43994778D01*
X63888000Y-43993338D01*
X63895780Y-43694802D01*
X63916051Y-43467227D01*
X63944445Y-43359778D01*
X63987087Y-43340989D01*
X64164201Y-43313956D01*
X64417167Y-43303333D01*
X64588965Y-43308138D01*
G37*
G36*
X66442750Y-46879743D02*
G01*
X66437217Y-47122941D01*
X66426002Y-47539947D01*
X66414685Y-47876459D01*
X66404322Y-48102873D01*
X66395971Y-48189585D01*
X66389158Y-48191979D01*
X66274446Y-48186753D01*
X66069662Y-48158943D01*
X66045003Y-48154895D01*
X65860381Y-48111451D01*
X65804571Y-48040777D01*
X65841274Y-47902041D01*
X65850002Y-47875184D01*
X65885374Y-47658871D01*
X65907800Y-47337507D01*
X65917467Y-46956755D01*
X65914567Y-46562277D01*
X65899289Y-46199733D01*
X65871821Y-45914787D01*
X65832355Y-45753100D01*
X65812544Y-45714139D01*
X65798386Y-45631298D01*
X65885374Y-45596409D01*
X66107521Y-45589215D01*
X66470334Y-45589097D01*
X66442750Y-46879743D01*
G37*
G36*
X76549640Y-52565975D02*
G01*
X76951701Y-52665487D01*
X77088489Y-52702472D01*
X77527299Y-52847043D01*
X77850942Y-52997634D01*
X78041866Y-53144725D01*
X78082516Y-53278796D01*
X78075377Y-53299699D01*
X78014671Y-53465528D01*
X77909072Y-53746745D01*
X77771190Y-54109931D01*
X77613631Y-54521666D01*
X77190861Y-55622333D01*
X75867033Y-55645682D01*
X74543204Y-55669031D01*
X74601466Y-55476349D01*
X74665193Y-55301563D01*
X74788213Y-55009718D01*
X74973741Y-54594776D01*
X75226038Y-54047212D01*
X75549365Y-53357500D01*
X75565257Y-53323805D01*
X75750740Y-52942975D01*
X75904301Y-52695340D01*
X76063559Y-52562338D01*
X76266132Y-52525405D01*
X76549640Y-52565975D01*
G37*
G36*
X61579477Y-43317821D02*
G01*
X61765078Y-43422795D01*
X61795026Y-43465633D01*
X61801826Y-43573775D01*
X61696490Y-43612010D01*
X61519083Y-43558270D01*
X61442394Y-43527316D01*
X61226944Y-43536527D01*
X61051454Y-43661711D01*
X60955050Y-43863575D01*
X60976857Y-44102824D01*
X61105442Y-44257114D01*
X61321883Y-44338861D01*
X61540250Y-44305413D01*
X61633164Y-44269180D01*
X61768349Y-44272986D01*
X61812152Y-44347112D01*
X61725644Y-44459257D01*
X61485442Y-44557600D01*
X61200307Y-44540403D01*
X60937765Y-44415806D01*
X60745367Y-44207289D01*
X60670667Y-43938333D01*
X60670789Y-43930661D01*
X60734098Y-43717498D01*
X60878485Y-43511151D01*
X61055273Y-43387823D01*
X61321782Y-43308265D01*
X61579477Y-43317821D01*
G37*
G36*
X57787943Y-50182322D02*
G01*
X57972363Y-50245216D01*
X58046000Y-50347167D01*
X58042538Y-50360134D01*
X57938675Y-50393074D01*
X57718873Y-50374949D01*
X57671565Y-50368090D01*
X57378410Y-50389177D01*
X57184661Y-50522905D01*
X57114667Y-50754000D01*
X57116581Y-50797033D01*
X57208889Y-51014742D01*
X57421632Y-51134754D01*
X57729682Y-51141247D01*
X57866551Y-51123148D01*
X58006250Y-51131056D01*
X58025654Y-51196251D01*
X57959786Y-51271434D01*
X57768014Y-51343006D01*
X57517393Y-51364413D01*
X57270829Y-51324930D01*
X57174828Y-51282106D01*
X56982597Y-51089822D01*
X56897270Y-50826366D01*
X56927997Y-50542463D01*
X57083928Y-50288834D01*
X57117337Y-50261166D01*
X57305694Y-50186978D01*
X57547474Y-50161803D01*
X57787943Y-50182322D01*
G37*
G36*
X68616700Y-43326875D02*
G01*
X68794799Y-43425673D01*
X68837534Y-43500267D01*
X68868400Y-43675234D01*
X68839373Y-43833686D01*
X68756334Y-43902707D01*
X68700190Y-43867201D01*
X68643933Y-43724843D01*
X68562598Y-43549056D01*
X68394471Y-43498650D01*
X68163013Y-43592309D01*
X68082049Y-43657649D01*
X67970152Y-43856812D01*
X67979707Y-44065803D01*
X68088976Y-44240721D01*
X68276223Y-44337663D01*
X68519710Y-44312727D01*
X68650943Y-44275991D01*
X68799795Y-44281575D01*
X68844413Y-44349327D01*
X68752977Y-44459257D01*
X68525505Y-44556397D01*
X68216861Y-44544553D01*
X67921085Y-44397855D01*
X67813054Y-44287079D01*
X67700448Y-44017471D01*
X67723078Y-43727958D01*
X67883298Y-43475965D01*
X68089279Y-43358827D01*
X68358695Y-43305852D01*
X68616700Y-43326875D01*
G37*
G36*
X60790742Y-50212725D02*
G01*
X60819092Y-50227949D01*
X60901907Y-50354296D01*
X60926531Y-50530220D01*
X60892079Y-50686521D01*
X60797667Y-50754000D01*
X60724900Y-50724149D01*
X60670667Y-50589663D01*
X60650857Y-50466056D01*
X60525888Y-50353995D01*
X60286144Y-50366318D01*
X60236901Y-50382784D01*
X60073035Y-50530269D01*
X60014563Y-50757699D01*
X60079147Y-51010142D01*
X60152416Y-51113959D01*
X60281151Y-51166889D01*
X60509680Y-51153085D01*
X60697958Y-51142284D01*
X60824164Y-51177945D01*
X60802587Y-51253050D01*
X60622458Y-51348900D01*
X60572081Y-51366001D01*
X60276911Y-51385378D01*
X60023500Y-51282218D01*
X59835909Y-51090843D01*
X59738199Y-50845577D01*
X59754431Y-50580744D01*
X59908667Y-50330666D01*
X59942232Y-50301221D01*
X60186530Y-50191564D01*
X60495121Y-50158622D01*
X60790742Y-50212725D01*
G37*
G36*
X59126642Y-50168880D02*
G01*
X59324115Y-50199633D01*
X59400667Y-50246000D01*
X59392031Y-50264979D01*
X59274074Y-50311888D01*
X59062000Y-50330666D01*
X58866523Y-50340254D01*
X58751734Y-50389216D01*
X58723334Y-50500000D01*
X58733020Y-50576444D01*
X58815428Y-50650391D01*
X59019667Y-50669333D01*
X59058557Y-50670064D01*
X59241571Y-50698038D01*
X59316000Y-50754000D01*
X59313441Y-50765111D01*
X59215534Y-50817401D01*
X59019667Y-50838666D01*
X58885889Y-50844202D01*
X58756482Y-50891292D01*
X58723334Y-51008000D01*
X58732037Y-51081295D01*
X58812536Y-51157674D01*
X59014670Y-51177333D01*
X59156776Y-51182617D01*
X59320891Y-51217857D01*
X59333440Y-51271090D01*
X59202222Y-51324429D01*
X58935033Y-51359989D01*
X58469103Y-51389000D01*
X58469218Y-50775166D01*
X58469334Y-50161333D01*
X58935000Y-50161333D01*
X59126642Y-50168880D01*
G37*
G36*
X63215356Y-43416011D02*
G01*
X63395320Y-43623537D01*
X63461974Y-43917166D01*
X63455811Y-44031809D01*
X63365638Y-44315825D01*
X63160165Y-44478878D01*
X62829046Y-44531000D01*
X62753505Y-44529483D01*
X62444949Y-44468172D01*
X62251622Y-44301132D01*
X62144763Y-44006312D01*
X62133919Y-43933632D01*
X62371923Y-43933632D01*
X62436008Y-44127208D01*
X62668410Y-44302632D01*
X62788931Y-44343617D01*
X62983151Y-44311470D01*
X63125622Y-44178093D01*
X63194340Y-43986875D01*
X63167299Y-43781203D01*
X63022495Y-43604467D01*
X62974556Y-43571159D01*
X62824060Y-43488586D01*
X62708252Y-43511061D01*
X62549298Y-43645298D01*
X62476061Y-43721375D01*
X62371923Y-43933632D01*
X62133919Y-43933632D01*
X62129032Y-43900873D01*
X62159958Y-43709657D01*
X62308357Y-43520612D01*
X62393059Y-43446677D01*
X62674480Y-43313918D01*
X62961828Y-43308251D01*
X63215356Y-43416011D01*
G37*
G36*
X69850837Y-43304704D02*
G01*
X70111803Y-43330382D01*
X70264384Y-43380509D01*
X70288314Y-43444514D01*
X70163331Y-43511827D01*
X70063364Y-43537714D01*
X69929268Y-43550230D01*
X69818527Y-43539196D01*
X69633305Y-43575369D01*
X69560667Y-43679222D01*
X69560669Y-43679807D01*
X69641925Y-43776942D01*
X69878167Y-43827389D01*
X69935108Y-43833475D01*
X70120775Y-43877671D01*
X70195667Y-43938333D01*
X70190516Y-43953944D01*
X70082407Y-44012403D01*
X69878167Y-44049277D01*
X69860603Y-44050856D01*
X69631647Y-44107049D01*
X69556673Y-44194732D01*
X69636418Y-44281610D01*
X69871622Y-44335389D01*
X69917310Y-44340396D01*
X70118421Y-44393250D01*
X70218919Y-44472224D01*
X70201743Y-44534217D01*
X70072180Y-44562096D01*
X69802130Y-44556890D01*
X69349000Y-44531000D01*
X69324124Y-43917166D01*
X69299248Y-43303333D01*
X69763628Y-43303333D01*
X69850837Y-43304704D01*
G37*
G36*
X61993667Y-50168164D02*
G01*
X62214181Y-50198903D01*
X62321667Y-50246000D01*
X62324367Y-50270348D01*
X62223321Y-50314564D01*
X61987997Y-50330666D01*
X61951981Y-50330777D01*
X61728934Y-50344583D01*
X61626580Y-50394715D01*
X61602000Y-50500000D01*
X61610704Y-50573295D01*
X61691203Y-50649674D01*
X61893337Y-50669333D01*
X61951610Y-50671385D01*
X62129499Y-50704737D01*
X62240883Y-50760898D01*
X62253768Y-50816373D01*
X62136164Y-50847666D01*
X62041713Y-50853502D01*
X61815181Y-50868833D01*
X61715566Y-50901622D01*
X61618472Y-51029166D01*
X61622355Y-51113976D01*
X61713400Y-51164476D01*
X61934459Y-51177333D01*
X62015888Y-51179733D01*
X62204132Y-51209375D01*
X62279334Y-51262000D01*
X62237823Y-51296844D01*
X62068682Y-51332748D01*
X61813667Y-51346666D01*
X61348000Y-51346666D01*
X61348000Y-50754000D01*
X61348000Y-50161333D01*
X61808670Y-50161333D01*
X61993667Y-50168164D01*
G37*
G36*
X62871882Y-50112933D02*
G01*
X62956667Y-50288333D01*
X62961966Y-50301867D01*
X63078392Y-50456898D01*
X63287190Y-50500000D01*
X63528832Y-50548399D01*
X63728625Y-50710190D01*
X63803334Y-50954781D01*
X63796615Y-51047639D01*
X63710680Y-51222872D01*
X63508210Y-51317995D01*
X63167027Y-51346666D01*
X62733921Y-51346666D01*
X62756005Y-50986833D01*
X62756422Y-50979778D01*
X62956667Y-50979778D01*
X62962241Y-51059248D01*
X63029603Y-51154176D01*
X63213324Y-51177333D01*
X63287270Y-51172045D01*
X63467964Y-51098997D01*
X63546690Y-50971757D01*
X63490860Y-50830993D01*
X63474093Y-50816069D01*
X63315714Y-50739057D01*
X63130509Y-50705069D01*
X63006756Y-50732133D01*
X62975963Y-50804943D01*
X62956667Y-50979778D01*
X62756422Y-50979778D01*
X62759082Y-50934804D01*
X62774162Y-50622775D01*
X62782711Y-50351833D01*
X62785944Y-50262762D01*
X62814792Y-50104477D01*
X62871882Y-50112933D01*
G37*
G36*
X67105272Y-43315469D02*
G01*
X67287053Y-43355070D01*
X67369397Y-43406896D01*
X67330277Y-43454954D01*
X67147667Y-43483250D01*
X66985455Y-43492658D01*
X66810496Y-43516411D01*
X66730756Y-43565246D01*
X66699225Y-43657422D01*
X66695624Y-43689613D01*
X66752049Y-43782527D01*
X66945545Y-43826755D01*
X66961413Y-43828424D01*
X67177591Y-43883280D01*
X67257267Y-43962736D01*
X67195011Y-44034263D01*
X66985389Y-44065333D01*
X66925830Y-44066958D01*
X66725149Y-44112905D01*
X66671752Y-44196267D01*
X66763811Y-44282082D01*
X66999500Y-44335389D01*
X67122066Y-44350402D01*
X67272557Y-44401035D01*
X67272267Y-44463024D01*
X67131404Y-44520182D01*
X66860174Y-44556323D01*
X66443460Y-44581646D01*
X66414563Y-44079594D01*
X66404989Y-43856508D01*
X66402829Y-43596453D01*
X66413042Y-43440438D01*
X66467217Y-43359243D01*
X66617664Y-43315609D01*
X66899875Y-43303333D01*
X67105272Y-43315469D01*
G37*
G36*
X64439679Y-45589375D02*
G01*
X64679780Y-45599066D01*
X64776041Y-45630590D01*
X64751600Y-45690933D01*
X64748388Y-45694387D01*
X64695083Y-45847169D01*
X64661610Y-46149587D01*
X64650000Y-46583782D01*
X64652356Y-46915679D01*
X64666214Y-47180664D01*
X64700580Y-47353855D01*
X64764426Y-47476976D01*
X64866722Y-47591752D01*
X65068546Y-47741941D01*
X65290055Y-47768978D01*
X65389083Y-47756345D01*
X65477219Y-47802159D01*
X65496667Y-47971741D01*
X65493983Y-48049317D01*
X65444222Y-48180981D01*
X65301182Y-48214000D01*
X65154651Y-48190091D01*
X64941349Y-48089693D01*
X64794955Y-47993375D01*
X64683333Y-47979533D01*
X64650000Y-48096058D01*
X64629273Y-48172865D01*
X64516075Y-48180725D01*
X64394417Y-48149982D01*
X64174430Y-48129333D01*
X64096547Y-48126883D01*
X64012869Y-48086878D01*
X64054355Y-47965566D01*
X64062921Y-47946156D01*
X64100659Y-47755851D01*
X64125830Y-47450991D01*
X64138327Y-47077237D01*
X64138043Y-46680252D01*
X64124870Y-46305695D01*
X64098701Y-45999228D01*
X64059429Y-45806512D01*
X64020143Y-45687451D01*
X64040456Y-45618768D01*
X64160482Y-45593149D01*
X64415029Y-45589333D01*
X64439679Y-45589375D01*
G37*
G36*
X68389833Y-45644789D02*
G01*
X68425817Y-45679117D01*
X68528900Y-45819640D01*
X68522931Y-45902162D01*
X68405737Y-45892804D01*
X68260893Y-45891009D01*
X68067070Y-45970364D01*
X68051159Y-45980933D01*
X67965677Y-46052119D01*
X67911793Y-46149566D01*
X67882267Y-46309036D01*
X67869860Y-46566293D01*
X67867334Y-46957100D01*
X67867334Y-47812962D01*
X68198495Y-47768544D01*
X68378669Y-47752288D01*
X68512488Y-47780531D01*
X68570287Y-47879494D01*
X68584422Y-47944491D01*
X68567950Y-48061391D01*
X68447866Y-48115900D01*
X68191889Y-48129333D01*
X67867334Y-48129333D01*
X67867334Y-48552666D01*
X67863154Y-48684631D01*
X67820256Y-48909613D01*
X67743599Y-48975310D01*
X67648927Y-48878551D01*
X67551984Y-48616166D01*
X67417710Y-48305187D01*
X67195757Y-48103380D01*
X67134965Y-48066158D01*
X66968054Y-47927726D01*
X66965226Y-47830769D01*
X67126500Y-47775388D01*
X67176362Y-47766151D01*
X67243511Y-47730347D01*
X67288362Y-47644409D01*
X67317934Y-47478564D01*
X67339251Y-47203035D01*
X67359334Y-46788047D01*
X67365496Y-46651955D01*
X67386954Y-46272958D01*
X67413887Y-46019169D01*
X67453695Y-45856303D01*
X67513781Y-45750079D01*
X67601547Y-45666213D01*
X67847160Y-45536961D01*
X68137879Y-45521154D01*
X68389833Y-45644789D01*
G37*
G36*
X82071960Y-47861566D02*
G01*
X82814415Y-48079524D01*
X83521063Y-48438767D01*
X83848940Y-48668475D01*
X84389170Y-49128604D01*
X84931412Y-49677840D01*
X85436632Y-50275525D01*
X85865795Y-50881000D01*
X86026990Y-51135000D01*
X85688995Y-50885476D01*
X85573494Y-50798712D01*
X85396727Y-50658896D01*
X85308667Y-50578862D01*
X85265291Y-50536734D01*
X85090024Y-50409068D01*
X84826768Y-50238953D01*
X84515829Y-50050507D01*
X84197517Y-49867846D01*
X83912138Y-49715088D01*
X83700000Y-49616350D01*
X83339647Y-49506050D01*
X82720439Y-49420770D01*
X82086596Y-49439214D01*
X81510949Y-49563153D01*
X81506926Y-49564522D01*
X80840834Y-49876328D01*
X80200442Y-50343087D01*
X79601946Y-50950767D01*
X79061545Y-51685333D01*
X78913905Y-51915852D01*
X78795519Y-52098714D01*
X78741672Y-52179220D01*
X78734347Y-52180062D01*
X78626409Y-52133674D01*
X78419740Y-52022138D01*
X78150493Y-51864690D01*
X78126481Y-51850283D01*
X77805320Y-51669618D01*
X77500700Y-51516975D01*
X77275603Y-51424075D01*
X77232076Y-51409714D01*
X77018101Y-51325480D01*
X76889748Y-51252953D01*
X76885295Y-51173868D01*
X76968035Y-50984223D01*
X77129745Y-50716406D01*
X77351944Y-50396757D01*
X77616151Y-50051616D01*
X77903886Y-49707325D01*
X78196667Y-49390225D01*
X78372384Y-49218384D01*
X78869444Y-48793064D01*
X79394605Y-48417575D01*
X79905079Y-48120793D01*
X80358078Y-47931595D01*
X80597870Y-47868465D01*
X81323258Y-47789633D01*
X82071960Y-47861566D01*
G37*
G36*
X62780651Y-45509217D02*
G01*
X63029647Y-45531772D01*
X63197418Y-45594232D01*
X63341515Y-45712485D01*
X63448997Y-45832876D01*
X63538915Y-45986802D01*
X63524558Y-46070042D01*
X63401167Y-46055240D01*
X63277420Y-46007742D01*
X62815700Y-45895347D01*
X62406753Y-45919433D01*
X62011381Y-46080719D01*
X61885670Y-46171839D01*
X61679580Y-46449640D01*
X61602000Y-46778650D01*
X61605644Y-46825662D01*
X61638604Y-46880256D01*
X61729355Y-46914890D01*
X61905779Y-46934060D01*
X62195759Y-46942264D01*
X62627179Y-46944000D01*
X63652357Y-46944000D01*
X63594569Y-47176833D01*
X63481285Y-47513283D01*
X63245927Y-47866384D01*
X62910014Y-48089306D01*
X62460523Y-48193728D01*
X62034362Y-48180186D01*
X61610245Y-48036910D01*
X61276226Y-47778018D01*
X61051558Y-47425574D01*
X61030029Y-47330566D01*
X61602000Y-47330566D01*
X61606460Y-47377754D01*
X61714410Y-47571481D01*
X61927859Y-47728262D01*
X62195009Y-47819012D01*
X62464061Y-47814643D01*
X62700523Y-47713242D01*
X62883500Y-47558252D01*
X62956667Y-47396544D01*
X62945968Y-47363199D01*
X62850975Y-47315664D01*
X62637075Y-47290217D01*
X62279334Y-47282666D01*
X62183597Y-47283147D01*
X61887200Y-47291570D01*
X61679978Y-47308321D01*
X61602000Y-47330566D01*
X61030029Y-47330566D01*
X60955492Y-47001641D01*
X61007282Y-46528285D01*
X61129356Y-46237834D01*
X61417991Y-45885425D01*
X61813667Y-45626716D01*
X61971751Y-45577510D01*
X62270887Y-45528335D01*
X62600682Y-45507981D01*
X62780651Y-45509217D01*
G37*
G36*
X76675220Y-45525323D02*
G01*
X76967884Y-45593986D01*
X77147564Y-45714638D01*
X77255275Y-45890231D01*
X77254860Y-45998487D01*
X77118646Y-46017796D01*
X76839252Y-45953887D01*
X76611302Y-45902622D01*
X76171111Y-45904948D01*
X75799012Y-46053200D01*
X75511034Y-46342687D01*
X75471103Y-46402751D01*
X75342929Y-46618309D01*
X75301576Y-46767671D01*
X75363526Y-46862878D01*
X75545259Y-46915974D01*
X75863256Y-46939000D01*
X76334000Y-46944000D01*
X76672011Y-46944721D01*
X76991137Y-46950420D01*
X77190356Y-46966045D01*
X77297810Y-46996519D01*
X77341643Y-47046765D01*
X77350000Y-47121704D01*
X77349173Y-47142857D01*
X77304088Y-47350276D01*
X77211349Y-47591594D01*
X77157282Y-47689917D01*
X76896892Y-47963713D01*
X76551787Y-48133688D01*
X76158745Y-48201506D01*
X75754544Y-48168829D01*
X75375960Y-48037321D01*
X75059771Y-47808646D01*
X74842754Y-47484466D01*
X74816790Y-47407715D01*
X75402667Y-47407715D01*
X75433872Y-47495912D01*
X75580544Y-47643243D01*
X75795222Y-47767570D01*
X76019501Y-47829002D01*
X76118745Y-47825745D01*
X76367066Y-47748521D01*
X76584077Y-47605874D01*
X76701041Y-47437309D01*
X76708369Y-47401757D01*
X76692228Y-47337961D01*
X76601937Y-47302045D01*
X76405788Y-47286212D01*
X76072074Y-47282666D01*
X75794645Y-47286184D01*
X75557110Y-47304358D01*
X75436335Y-47343022D01*
X75402667Y-47407715D01*
X74816790Y-47407715D01*
X74766181Y-47258115D01*
X74721837Y-46786726D01*
X74833105Y-46352243D01*
X75091370Y-45978624D01*
X75488017Y-45689831D01*
X75603366Y-45638498D01*
X75944558Y-45546855D01*
X76317977Y-45509371D01*
X76675220Y-45525323D01*
G37*
G36*
X69853224Y-45536241D02*
G01*
X70083167Y-45644789D01*
X70160451Y-45719057D01*
X70224939Y-45825110D01*
X70145481Y-45876252D01*
X69910028Y-45889515D01*
X69587888Y-45936815D01*
X69378592Y-46081722D01*
X69306667Y-46317415D01*
X69307337Y-46338688D01*
X69401941Y-46549452D01*
X69649117Y-46710531D01*
X70038317Y-46814754D01*
X70388966Y-46871114D01*
X70396431Y-46340799D01*
X70396715Y-46322540D01*
X70421638Y-45969906D01*
X70496781Y-45746319D01*
X70644585Y-45615174D01*
X70887494Y-45539868D01*
X70989795Y-45523398D01*
X71148665Y-45545324D01*
X71253053Y-45672229D01*
X71311240Y-45797267D01*
X71324360Y-45871751D01*
X71228437Y-45920293D01*
X71096533Y-46004042D01*
X71013457Y-46110161D01*
X70965024Y-46275344D01*
X70937045Y-46536287D01*
X70915334Y-46929683D01*
X70891414Y-47295059D01*
X70836961Y-47667738D01*
X70739852Y-47917528D01*
X70580794Y-48071122D01*
X70340495Y-48155207D01*
X69999663Y-48196474D01*
X69996425Y-48196708D01*
X69714189Y-48211134D01*
X69543747Y-48190448D01*
X69428857Y-48116036D01*
X69313276Y-47969281D01*
X69202580Y-47803085D01*
X69190052Y-47725206D01*
X69299662Y-47727932D01*
X69550844Y-47797186D01*
X69777013Y-47840357D01*
X70056307Y-47815800D01*
X70250115Y-47701251D01*
X70322667Y-47510019D01*
X70320537Y-47478402D01*
X70221346Y-47296543D01*
X70008028Y-47164375D01*
X69727730Y-47113333D01*
X69689071Y-47111730D01*
X69442212Y-47057829D01*
X69168212Y-46949095D01*
X68931423Y-46815093D01*
X68796197Y-46685385D01*
X68726985Y-46503238D01*
X68722491Y-46169002D01*
X68857865Y-45864064D01*
X69118295Y-45636645D01*
X69227803Y-45586574D01*
X69545789Y-45516647D01*
X69853224Y-45536241D01*
G37*
G36*
X57726883Y-45592225D02*
G01*
X57876237Y-45611157D01*
X57916254Y-45660131D01*
X57879646Y-45753100D01*
X57865932Y-45787689D01*
X57828208Y-45988692D01*
X57801889Y-46291429D01*
X57792000Y-46644787D01*
X57792000Y-47372707D01*
X58786834Y-47348853D01*
X59781667Y-47325000D01*
X59781667Y-46538607D01*
X59777329Y-46203624D01*
X59757711Y-45921035D01*
X59718269Y-45753715D01*
X59654667Y-45672070D01*
X59639256Y-45627394D01*
X59775657Y-45600053D01*
X60073767Y-45590630D01*
X60211162Y-45591307D01*
X60443261Y-45603604D01*
X60538109Y-45635116D01*
X60518267Y-45690933D01*
X60505015Y-45713565D01*
X60470059Y-45882762D01*
X60443165Y-46177583D01*
X60424334Y-46565276D01*
X60413565Y-47013089D01*
X60410859Y-47488271D01*
X60416216Y-47958069D01*
X60429635Y-48389733D01*
X60451116Y-48750510D01*
X60480660Y-49007650D01*
X60518267Y-49128400D01*
X60538611Y-49154136D01*
X60514963Y-49199549D01*
X60367535Y-49222708D01*
X60073767Y-49228703D01*
X59794245Y-49220514D01*
X59643498Y-49193979D01*
X59652808Y-49148274D01*
X59719789Y-49055576D01*
X59776330Y-48818817D01*
X59810228Y-48429904D01*
X59842508Y-47790666D01*
X58817254Y-47790666D01*
X57792000Y-47790666D01*
X57792000Y-48421459D01*
X57795061Y-48661710D01*
X57815173Y-48913744D01*
X57860915Y-49059981D01*
X57940167Y-49138551D01*
X57967875Y-49157264D01*
X57966777Y-49197600D01*
X57830539Y-49219727D01*
X57542233Y-49227425D01*
X57404766Y-49227071D01*
X57172714Y-49215345D01*
X57077889Y-49184129D01*
X57097733Y-49128400D01*
X57101379Y-49123967D01*
X57135978Y-48991747D01*
X57163479Y-48726332D01*
X57183748Y-48360597D01*
X57196647Y-47927419D01*
X57202042Y-47459673D01*
X57199796Y-46990236D01*
X57189774Y-46551984D01*
X57171839Y-46177793D01*
X57145856Y-45900540D01*
X57111688Y-45753100D01*
X57076760Y-45672275D01*
X57101642Y-45616895D01*
X57230373Y-45593898D01*
X57495667Y-45589333D01*
X57726883Y-45592225D01*
G37*
G36*
X74017263Y-49908126D02*
G01*
X74431912Y-49913093D01*
X74763829Y-49921858D01*
X74984146Y-49933538D01*
X75064000Y-49947252D01*
X75039946Y-50020071D01*
X74963308Y-50208889D01*
X74852334Y-50465787D01*
X74757473Y-50691993D01*
X74673148Y-50922454D01*
X74640667Y-51054129D01*
X74673505Y-51103954D01*
X74859633Y-51169221D01*
X75212167Y-51218818D01*
X75918765Y-51316902D01*
X76920041Y-51578451D01*
X77826324Y-51978204D01*
X78645058Y-52520519D01*
X79383689Y-53209753D01*
X80049663Y-54050265D01*
X80142441Y-54186385D01*
X80316854Y-54451420D01*
X80437563Y-54647871D01*
X80482667Y-54740811D01*
X80479947Y-54743277D01*
X80401360Y-54687364D01*
X80230451Y-54535419D01*
X79989178Y-54307544D01*
X79699500Y-54023843D01*
X79224572Y-53584881D01*
X78496910Y-53045291D01*
X77748611Y-52653605D01*
X76958473Y-52397243D01*
X76715676Y-52350101D01*
X76218781Y-52300772D01*
X75691439Y-52297721D01*
X75166751Y-52336548D01*
X74677819Y-52412855D01*
X74257744Y-52522246D01*
X73939627Y-52660320D01*
X73756570Y-52822681D01*
X73707904Y-52904101D01*
X73577958Y-53123353D01*
X73401674Y-53421957D01*
X73202837Y-53759666D01*
X73105594Y-53922871D01*
X72433815Y-54937510D01*
X71738543Y-55796836D01*
X71022941Y-56498079D01*
X70290174Y-57038471D01*
X69543405Y-57415242D01*
X68785799Y-57625623D01*
X68256710Y-57665711D01*
X67538715Y-57573027D01*
X66813058Y-57314094D01*
X66083443Y-56890341D01*
X65353577Y-56303194D01*
X65144616Y-56101170D01*
X64862658Y-55804772D01*
X64577440Y-55484229D01*
X64313205Y-55168669D01*
X64094195Y-54887222D01*
X63944650Y-54669015D01*
X63888814Y-54543177D01*
X63895266Y-54538624D01*
X63989885Y-54589085D01*
X64173931Y-54720763D01*
X64417167Y-54912522D01*
X64463688Y-54949747D01*
X64821964Y-55205426D01*
X65241871Y-55467047D01*
X65641993Y-55683371D01*
X66021110Y-55857142D01*
X66336937Y-55967657D01*
X66654167Y-56030548D01*
X67046756Y-56065957D01*
X67433215Y-56072128D01*
X68064436Y-55986940D01*
X68652375Y-55769520D01*
X69223201Y-55408738D01*
X69803084Y-54893459D01*
X69909711Y-54783164D01*
X70462882Y-54112052D01*
X70995221Y-53305181D01*
X71491162Y-52390733D01*
X71935139Y-51396890D01*
X72311587Y-50351833D01*
X72452942Y-49907333D01*
X73758471Y-49907333D01*
X74017263Y-49908126D01*
G37*
G36*
X73074580Y-44260888D02*
G01*
X73453638Y-44326879D01*
X73676353Y-44387484D01*
X74059779Y-44577611D01*
X74311404Y-44838549D01*
X74419323Y-45154936D01*
X74371630Y-45511409D01*
X74301332Y-45645100D01*
X74069131Y-45838974D01*
X73692877Y-45977157D01*
X73163286Y-46063895D01*
X73138437Y-46066453D01*
X72849965Y-46100597D01*
X72703853Y-46133671D01*
X72675204Y-46175855D01*
X72739122Y-46237329D01*
X72864885Y-46302711D01*
X73094720Y-46351333D01*
X73332983Y-46383319D01*
X73635166Y-46525603D01*
X73868235Y-46750872D01*
X74009283Y-47025067D01*
X74035405Y-47314124D01*
X73923693Y-47583984D01*
X73910474Y-47601568D01*
X73812545Y-47762414D01*
X73846584Y-47847871D01*
X74026834Y-47901826D01*
X74212124Y-47962156D01*
X74429000Y-48083259D01*
X74482354Y-48133145D01*
X74481354Y-48170190D01*
X74398464Y-48192380D01*
X74211842Y-48202168D01*
X73899646Y-48202006D01*
X73440034Y-48194350D01*
X73314440Y-48191608D01*
X72792486Y-48169412D01*
X72407068Y-48124983D01*
X72131169Y-48047835D01*
X71937772Y-47927479D01*
X71799859Y-47753428D01*
X71690415Y-47515196D01*
X71643014Y-47368551D01*
X72200440Y-47368551D01*
X72275148Y-47546285D01*
X72444134Y-47727279D01*
X72711432Y-47821514D01*
X73003934Y-47785242D01*
X73023353Y-47777610D01*
X73290485Y-47601889D01*
X73430962Y-47365128D01*
X73433297Y-47105038D01*
X73286000Y-46859333D01*
X73206404Y-46791494D01*
X72940309Y-46691617D01*
X72661503Y-46745809D01*
X72404526Y-46950496D01*
X72329772Y-47041626D01*
X72214126Y-47221155D01*
X72200440Y-47368551D01*
X71643014Y-47368551D01*
X71632746Y-47336785D01*
X71629390Y-47147987D01*
X71715354Y-46922713D01*
X71729944Y-46893525D01*
X71885626Y-46670313D01*
X72061265Y-46519098D01*
X72189800Y-46444206D01*
X72211180Y-46380558D01*
X72099767Y-46290373D01*
X71989011Y-46187753D01*
X71942434Y-46005480D01*
X72064381Y-45807047D01*
X72200862Y-45730099D01*
X72443259Y-45687100D01*
X72821660Y-45674000D01*
X73101708Y-45669327D01*
X73351583Y-45643278D01*
X73524760Y-45583652D01*
X73673128Y-45478539D01*
X73788782Y-45351033D01*
X73850722Y-45145477D01*
X73770491Y-44956920D01*
X73564749Y-44801837D01*
X73250157Y-44696705D01*
X72843377Y-44658000D01*
X72511053Y-44680596D01*
X72214585Y-44778224D01*
X72060666Y-44956600D01*
X72043763Y-45219611D01*
X72062905Y-45402598D01*
X72018513Y-45487524D01*
X71878111Y-45504666D01*
X71613709Y-45466571D01*
X71409310Y-45325203D01*
X71338667Y-45087734D01*
X71342474Y-45010446D01*
X71447218Y-44723946D01*
X71699233Y-44509054D01*
X72103729Y-44360821D01*
X72399830Y-44295406D01*
X72749654Y-44249734D01*
X73074580Y-44260888D01*
G37*
%TD*%
M02*
