M48
; DRILL file {KiCad 8.0.5} date 2024-09-22T23:27:47-0400
; FORMAT={-:-/ absolute / metric / decimal}
; #@! TF.CreationDate,2024-09-22T23:27:47-04:00
; #@! TF.GenerationSoftware,Kicad,Pcbnew,8.0.5
; #@! TF.FileFunction,MixedPlating,1,2
FMAT,2
METRIC
; #@! TA.AperFunction,Plated,PTH,ViaDrill
T1C0.300
; #@! TA.AperFunction,Plated,PTH,ComponentDrill
T2C1.016
%
G90
G05
T1
X48.2Y-38.2
X48.2Y-39.4
X48.2Y-40.8
X49.2Y-56.6
X49.6Y-37.0
X49.6Y-38.2
X49.6Y-39.4
X49.6Y-40.8
X50.8Y-37.0
X50.8Y-38.2
X50.8Y-39.4
X50.8Y-40.8
X51.2Y-48.8
X51.2Y-51.2
X51.2Y-53.4
X51.2Y-55.6
X51.2Y-58.0
X53.4Y-35.6
X53.4Y-58.0
X54.4Y-39.4
X54.6Y-35.6
X55.8Y-35.6
X55.8Y-39.4
X57.0Y-35.6
X59.0Y-58.2
X62.4Y-54.4
X64.6Y-58.2
X65.6Y-54.4
X68.4Y-54.0
X68.4Y-58.2
X71.0Y-58.2
X76.8Y-58.0
X77.8Y-40.2
X77.8Y-42.4
X77.8Y-44.6
X77.8Y-47.0
X78.0Y-35.4
X78.0Y-37.8
X79.2Y-58.0
X81.4Y-35.4
X81.4Y-37.8
X81.6Y-52.6
X81.6Y-54.2
X81.6Y-56.4
X81.6Y-58.0
X83.8Y-58.0
X84.0Y-56.4
X84.4Y-35.4
X84.4Y-37.8
X86.6Y-52.8
X86.6Y-54.6
X86.6Y-56.4
X86.6Y-58.0
X87.2Y-35.4
X87.2Y-37.8
X88.2Y-52.8
X88.2Y-54.6
X88.4Y-56.4
T2
X48.67Y-44.11
X48.67Y-46.65
X48.67Y-49.19
X48.67Y-51.73
X48.67Y-54.27
X90.285Y-44.11
X90.285Y-46.65
X90.285Y-49.19
X90.285Y-51.73
X90.285Y-54.27
M30
