%TF.GenerationSoftware,KiCad,Pcbnew,8.0.5*%
%TF.CreationDate,2024-09-22T23:27:43-04:00*%
%TF.ProjectId,myPowerBoardDesign,6d79506f-7765-4724-926f-617264446573,rev?*%
%TF.SameCoordinates,Original*%
%TF.FileFunction,Copper,L1,Top*%
%TF.FilePolarity,Positive*%
%FSLAX46Y46*%
G04 Gerber Fmt 4.6, Leading zero omitted, Abs format (unit mm)*
G04 Created by KiCad (PCBNEW 8.0.5) date 2024-09-22 23:27:43*
%MOMM*%
%LPD*%
G01*
G04 APERTURE LIST*
G04 Aperture macros list*
%AMRoundRect*
0 Rectangle with rounded corners*
0 $1 Rounding radius*
0 $2 $3 $4 $5 $6 $7 $8 $9 X,Y pos of 4 corners*
0 Add a 4 corners polygon primitive as box body*
4,1,4,$2,$3,$4,$5,$6,$7,$8,$9,$2,$3,0*
0 Add four circle primitives for the rounded corners*
1,1,$1+$1,$2,$3*
1,1,$1+$1,$4,$5*
1,1,$1+$1,$6,$7*
1,1,$1+$1,$8,$9*
0 Add four rect primitives between the rounded corners*
20,1,$1+$1,$2,$3,$4,$5,0*
20,1,$1+$1,$4,$5,$6,$7,0*
20,1,$1+$1,$6,$7,$8,$9,0*
20,1,$1+$1,$8,$9,$2,$3,0*%
G04 Aperture macros list end*
%TA.AperFunction,SMDPad,CuDef*%
%ADD10RoundRect,0.250000X-0.650000X0.412500X-0.650000X-0.412500X0.650000X-0.412500X0.650000X0.412500X0*%
%TD*%
%TA.AperFunction,SMDPad,CuDef*%
%ADD11RoundRect,0.250000X-1.000000X1.950000X-1.000000X-1.950000X1.000000X-1.950000X1.000000X1.950000X0*%
%TD*%
%TA.AperFunction,SMDPad,CuDef*%
%ADD12R,10.200000X3.500000*%
%TD*%
%TA.AperFunction,SMDPad,CuDef*%
%ADD13RoundRect,0.250000X-0.900000X1.000000X-0.900000X-1.000000X0.900000X-1.000000X0.900000X1.000000X0*%
%TD*%
%TA.AperFunction,SMDPad,CuDef*%
%ADD14RoundRect,0.250000X0.412500X0.650000X-0.412500X0.650000X-0.412500X-0.650000X0.412500X-0.650000X0*%
%TD*%
%TA.AperFunction,SMDPad,CuDef*%
%ADD15RoundRect,0.250000X0.650000X-0.412500X0.650000X0.412500X-0.650000X0.412500X-0.650000X-0.412500X0*%
%TD*%
%TA.AperFunction,ComponentPad*%
%ADD16C,2.032000*%
%TD*%
%TA.AperFunction,SMDPad,CuDef*%
%ADD17RoundRect,0.375000X-0.375000X0.625000X-0.375000X-0.625000X0.375000X-0.625000X0.375000X0.625000X0*%
%TD*%
%TA.AperFunction,SMDPad,CuDef*%
%ADD18RoundRect,0.500000X-1.400000X0.500000X-1.400000X-0.500000X1.400000X-0.500000X1.400000X0.500000X0*%
%TD*%
%TA.AperFunction,SMDPad,CuDef*%
%ADD19RoundRect,0.150000X0.150000X-0.675000X0.150000X0.675000X-0.150000X0.675000X-0.150000X-0.675000X0*%
%TD*%
%TA.AperFunction,ViaPad*%
%ADD20C,0.700000*%
%TD*%
%TA.AperFunction,Conductor*%
%ADD21C,0.635000*%
%TD*%
G04 APERTURE END LIST*
D10*
%TO.P,C5,1*%
%TO.N,GND*%
X89500000Y-37937500D03*
%TO.P,C5,2*%
%TO.N,+3V3*%
X89500000Y-41062500D03*
%TD*%
D11*
%TO.P,C1,1*%
%TO.N,VIN*%
X56400000Y-48900000D03*
%TO.P,C1,2*%
%TO.N,GND*%
X56400000Y-56300000D03*
%TD*%
D12*
%TO.P,L1,1,1*%
%TO.N,Net-(D1-K)*%
X67000000Y-43300000D03*
%TO.P,L1,2,2*%
%TO.N,+5V*%
X67000000Y-36700000D03*
%TD*%
D13*
%TO.P,D1,1,K*%
%TO.N,Net-(D1-K)*%
X63977500Y-47872500D03*
%TO.P,D1,2,A*%
%TO.N,GND*%
X63977500Y-52172500D03*
%TD*%
D14*
%TO.P,C2,1*%
%TO.N,GND*%
X66062500Y-56250000D03*
%TO.P,C2,2*%
%TO.N,VIN*%
X62937500Y-56250000D03*
%TD*%
D15*
%TO.P,C7,1*%
%TO.N,GND*%
X84000000Y-54312500D03*
%TO.P,C7,2*%
%TO.N,+5V*%
X84000000Y-51187500D03*
%TD*%
D16*
%TO.P,J1,1,VIN*%
%TO.N,VIN*%
X48670000Y-44110000D03*
%TO.P,J1,2,VIN*%
X48670000Y-46650000D03*
%TO.P,J1,3,GND*%
%TO.N,GND*%
X48670000Y-49190000D03*
%TO.P,J1,4,GND*%
X48670000Y-51730000D03*
%TO.P,J1,5,GND*%
X48670000Y-54270000D03*
%TO.P,J1,6,GND*%
X90285000Y-54270000D03*
%TO.P,J1,7,VOUT2*%
%TO.N,unconnected-(J1-VOUT2-Pad7)*%
X90285000Y-51730000D03*
%TO.P,J1,8,VOUT1*%
%TO.N,unconnected-(J1-VOUT1-Pad8)*%
X90285000Y-49190000D03*
%TO.P,J1,9,5V*%
%TO.N,+5V*%
X90285000Y-46650000D03*
%TO.P,J1,10,3V3*%
%TO.N,+3V3*%
X90285000Y-44110000D03*
%TD*%
D17*
%TO.P,U1,1,GND*%
%TO.N,GND*%
X85850000Y-41150000D03*
%TO.P,U1,2,VO*%
%TO.N,+3V3*%
X83550000Y-41150000D03*
D18*
X83550000Y-47450000D03*
D17*
%TO.P,U1,3,VI*%
%TO.N,+5V*%
X81250000Y-41150000D03*
%TD*%
D11*
%TO.P,C6,1*%
%TO.N,+5V*%
X75000000Y-48600000D03*
%TO.P,C6,2*%
%TO.N,GND*%
X75000000Y-56000000D03*
%TD*%
D19*
%TO.P,U2,1,VIN*%
%TO.N,VIN*%
X53095000Y-42825000D03*
%TO.P,U2,2,OUTPUT*%
%TO.N,Net-(D1-K)*%
X54365000Y-42825000D03*
%TO.P,U2,3,FB*%
%TO.N,+5V*%
X55635000Y-42825000D03*
%TO.P,U2,4,SD*%
%TO.N,GND*%
X56905000Y-42825000D03*
%TO.P,U2,5,GND*%
X56905000Y-37575000D03*
%TO.P,U2,6,GND*%
X55635000Y-37575000D03*
%TO.P,U2,7,GND*%
X54365000Y-37575000D03*
%TO.P,U2,8,GND*%
X53095000Y-37575000D03*
%TD*%
D20*
%TO.N,GND*%
X59000000Y-58200000D03*
X51200000Y-55600000D03*
X88200000Y-52800000D03*
X71000000Y-58200000D03*
X48200000Y-38200000D03*
X78000000Y-37800000D03*
X50800000Y-37000000D03*
X86600000Y-58000000D03*
X55800000Y-35600000D03*
X87200000Y-35400000D03*
X53400000Y-35600000D03*
X88200000Y-54600000D03*
X79200000Y-58000000D03*
X76800000Y-58000000D03*
X84400000Y-37800000D03*
X77800000Y-44600000D03*
X81600000Y-58000000D03*
X81600000Y-54200000D03*
X81600000Y-56400000D03*
X51200000Y-48800000D03*
X48200000Y-39400000D03*
X49200000Y-56600000D03*
X88400000Y-56400000D03*
X77800000Y-42400000D03*
X78000000Y-35400000D03*
X49600000Y-40800000D03*
X68400000Y-54000000D03*
X50800000Y-40800000D03*
X87200000Y-37800000D03*
X50800000Y-38200000D03*
X54400000Y-39400000D03*
X51200000Y-53400000D03*
X65600000Y-54400000D03*
X49600000Y-38200000D03*
X57000000Y-35600000D03*
X53400000Y-58000000D03*
X51200000Y-51200000D03*
X54600000Y-35600000D03*
X81400000Y-35400000D03*
X64600000Y-58200000D03*
X86600000Y-54600000D03*
X48200000Y-40800000D03*
X84400000Y-35400000D03*
X86600000Y-56400000D03*
X62400000Y-54400000D03*
X55800000Y-39400000D03*
X49600000Y-39400000D03*
X50800000Y-39400000D03*
X83800000Y-58000000D03*
X49600000Y-37000000D03*
X84000000Y-56400000D03*
X81400000Y-37800000D03*
X86600000Y-52800000D03*
X51200000Y-58000000D03*
X77800000Y-40200000D03*
X68400000Y-58200000D03*
X81600000Y-52600000D03*
X77800000Y-47000000D03*
%TD*%
D21*
%TO.N,VIN*%
X60200000Y-50400000D02*
X60200000Y-55450000D01*
X56400000Y-48900000D02*
X58700000Y-48900000D01*
X58700000Y-48900000D02*
X60200000Y-50400000D01*
X61000000Y-56250000D02*
X62937500Y-56250000D01*
X60200000Y-55450000D02*
X61000000Y-56250000D01*
%TO.N,+3V3*%
X90285000Y-44110000D02*
X84460000Y-44110000D01*
X83550000Y-43200000D02*
X83550000Y-47450000D01*
X90285000Y-43035000D02*
X89500000Y-42250000D01*
X83550000Y-41150000D02*
X83550000Y-43200000D01*
X84460000Y-44110000D02*
X83550000Y-43200000D01*
X90285000Y-44110000D02*
X90285000Y-43035000D01*
X89500000Y-42250000D02*
X89500000Y-41125000D01*
%TO.N,+5V*%
X89150000Y-46650000D02*
X90285000Y-46650000D01*
X80400000Y-48000000D02*
X80400000Y-44600000D01*
X80400000Y-44600000D02*
X81250000Y-43750000D01*
X88000000Y-49200000D02*
X88000000Y-47800000D01*
X84500000Y-51237500D02*
X85962500Y-51237500D01*
X84500000Y-51237500D02*
X82037500Y-51237500D01*
X80400000Y-48400000D02*
X80400000Y-48000000D01*
X82037500Y-51237500D02*
X80400000Y-49600000D01*
X81250000Y-43750000D02*
X81250000Y-41150000D01*
X88000000Y-47800000D02*
X89150000Y-46650000D01*
X85962500Y-51237500D02*
X88000000Y-49200000D01*
X80400000Y-49600000D02*
X80400000Y-48400000D01*
X75000000Y-48600000D02*
X79800000Y-48600000D01*
X79800000Y-48600000D02*
X80400000Y-48000000D01*
%TD*%
%TA.AperFunction,Conductor*%
%TO.N,GND*%
G36*
X53543039Y-47619685D02*
G01*
X53588794Y-47672489D01*
X53600000Y-47724000D01*
X53600000Y-51600000D01*
X53800000Y-51800000D01*
X58600000Y-51800000D01*
X58600000Y-50256189D01*
X58619685Y-50189150D01*
X58672489Y-50143395D01*
X58741647Y-50133451D01*
X58805203Y-50162476D01*
X58811681Y-50168508D01*
X59345681Y-50702508D01*
X59379166Y-50763831D01*
X59382000Y-50790189D01*
X59382000Y-55530570D01*
X59413433Y-55688595D01*
X59413436Y-55688605D01*
X59429985Y-55728557D01*
X59475097Y-55837468D01*
X59475098Y-55837471D01*
X59564617Y-55971444D01*
X59564620Y-55971448D01*
X60360277Y-56767103D01*
X60360287Y-56767114D01*
X60364617Y-56771444D01*
X60364618Y-56771445D01*
X60478555Y-56885382D01*
X60532216Y-56921236D01*
X60532218Y-56921238D01*
X60532219Y-56921238D01*
X60612532Y-56974903D01*
X60686963Y-57005732D01*
X60686964Y-57005733D01*
X60686965Y-57005733D01*
X60761398Y-57036565D01*
X60842993Y-57052795D01*
X60919429Y-57067999D01*
X60919433Y-57068000D01*
X60919434Y-57068000D01*
X61080566Y-57068000D01*
X61700498Y-57068000D01*
X61767537Y-57087685D01*
X61813292Y-57140489D01*
X61818202Y-57152993D01*
X61840186Y-57219334D01*
X61932288Y-57368656D01*
X62056344Y-57492712D01*
X62205666Y-57584814D01*
X62372203Y-57639999D01*
X62474991Y-57650500D01*
X63400008Y-57650499D01*
X63400016Y-57650498D01*
X63400019Y-57650498D01*
X63456302Y-57644748D01*
X63502797Y-57639999D01*
X63669334Y-57584814D01*
X63818656Y-57492712D01*
X63942712Y-57368656D01*
X64034814Y-57219334D01*
X64089999Y-57052797D01*
X64100500Y-56950009D01*
X64100500Y-56943053D01*
X65100000Y-56943053D01*
X65110613Y-57031443D01*
X65166079Y-57172095D01*
X65257435Y-57292564D01*
X65377904Y-57383920D01*
X65518556Y-57439386D01*
X65606946Y-57450000D01*
X65712500Y-57450000D01*
X66412500Y-57450000D01*
X66518054Y-57450000D01*
X66606443Y-57439386D01*
X66747095Y-57383920D01*
X66867564Y-57292564D01*
X66958920Y-57172095D01*
X67014386Y-57031443D01*
X67025000Y-56943053D01*
X67025000Y-56600000D01*
X66412500Y-56600000D01*
X66412500Y-57450000D01*
X65712500Y-57450000D01*
X65712500Y-56600000D01*
X65100000Y-56600000D01*
X65100000Y-56943053D01*
X64100500Y-56943053D01*
X64100499Y-55556946D01*
X65100000Y-55556946D01*
X65100000Y-55900000D01*
X65712500Y-55900000D01*
X66412500Y-55900000D01*
X67025000Y-55900000D01*
X67025000Y-55556946D01*
X67014386Y-55468556D01*
X66958920Y-55327904D01*
X66867564Y-55207435D01*
X66747095Y-55116079D01*
X66606443Y-55060613D01*
X66518054Y-55050000D01*
X66412500Y-55050000D01*
X66412500Y-55900000D01*
X65712500Y-55900000D01*
X65712500Y-55050000D01*
X65606946Y-55050000D01*
X65518556Y-55060613D01*
X65377904Y-55116079D01*
X65257435Y-55207435D01*
X65166079Y-55327904D01*
X65110613Y-55468556D01*
X65100000Y-55556946D01*
X64100499Y-55556946D01*
X64100499Y-55549992D01*
X64097728Y-55522870D01*
X64089999Y-55447203D01*
X64089998Y-55447200D01*
X64079011Y-55414044D01*
X64034814Y-55280666D01*
X63942712Y-55131344D01*
X63818656Y-55007288D01*
X63669334Y-54915186D01*
X63502797Y-54860001D01*
X63502795Y-54860000D01*
X63400010Y-54849500D01*
X62474998Y-54849500D01*
X62474980Y-54849501D01*
X62372203Y-54860000D01*
X62372200Y-54860001D01*
X62205668Y-54915185D01*
X62205663Y-54915187D01*
X62056342Y-55007289D01*
X61932289Y-55131342D01*
X61840187Y-55280663D01*
X61840185Y-55280668D01*
X61818204Y-55347004D01*
X61778431Y-55404449D01*
X61713915Y-55431272D01*
X61700498Y-55432000D01*
X61390188Y-55432000D01*
X61323149Y-55412315D01*
X61302507Y-55395681D01*
X61054319Y-55147492D01*
X61020834Y-55086169D01*
X61018000Y-55059811D01*
X61018000Y-54006946D01*
X73450000Y-54006946D01*
X73450000Y-55650000D01*
X74650000Y-55650000D01*
X75350000Y-55650000D01*
X76550000Y-55650000D01*
X76550000Y-54768053D01*
X82800000Y-54768053D01*
X82810613Y-54856443D01*
X82866079Y-54997095D01*
X82957435Y-55117564D01*
X83077904Y-55208920D01*
X83218556Y-55264386D01*
X83306946Y-55275000D01*
X83650000Y-55275000D01*
X84350000Y-55275000D01*
X84693054Y-55275000D01*
X84781443Y-55264386D01*
X84922095Y-55208920D01*
X85042564Y-55117564D01*
X85133920Y-54997095D01*
X85189386Y-54856443D01*
X85200000Y-54768053D01*
X85200000Y-54662500D01*
X84350000Y-54662500D01*
X84350000Y-55275000D01*
X83650000Y-55275000D01*
X83650000Y-54662500D01*
X82800000Y-54662500D01*
X82800000Y-54768053D01*
X76550000Y-54768053D01*
X76550000Y-54006946D01*
X76539386Y-53918556D01*
X76515090Y-53856946D01*
X82800000Y-53856946D01*
X82800000Y-53962500D01*
X83650000Y-53962500D01*
X84350000Y-53962500D01*
X85200000Y-53962500D01*
X85200000Y-53856946D01*
X85189386Y-53768556D01*
X85133920Y-53627904D01*
X85042564Y-53507435D01*
X84922095Y-53416079D01*
X84781443Y-53360613D01*
X84693054Y-53350000D01*
X84350000Y-53350000D01*
X84350000Y-53962500D01*
X83650000Y-53962500D01*
X83650000Y-53350000D01*
X83306946Y-53350000D01*
X83218556Y-53360613D01*
X83077904Y-53416079D01*
X82957435Y-53507435D01*
X82866079Y-53627904D01*
X82810613Y-53768556D01*
X82800000Y-53856946D01*
X76515090Y-53856946D01*
X76483920Y-53777904D01*
X76392564Y-53657435D01*
X76272095Y-53566079D01*
X76131443Y-53510613D01*
X76043054Y-53500000D01*
X75350000Y-53500000D01*
X75350000Y-55650000D01*
X74650000Y-55650000D01*
X74650000Y-53500000D01*
X73956946Y-53500000D01*
X73868556Y-53510613D01*
X73727904Y-53566079D01*
X73607435Y-53657435D01*
X73516079Y-53777904D01*
X73460613Y-53918556D01*
X73450000Y-54006946D01*
X61018000Y-54006946D01*
X61018000Y-53215553D01*
X62527500Y-53215553D01*
X62538113Y-53303943D01*
X62593579Y-53444595D01*
X62684935Y-53565064D01*
X62805404Y-53656420D01*
X62946056Y-53711886D01*
X63034446Y-53722500D01*
X63627500Y-53722500D01*
X64327500Y-53722500D01*
X64920554Y-53722500D01*
X65008943Y-53711886D01*
X65149595Y-53656420D01*
X65270064Y-53565064D01*
X65361420Y-53444595D01*
X65416886Y-53303943D01*
X65427500Y-53215553D01*
X65427500Y-52522500D01*
X64327500Y-52522500D01*
X64327500Y-53722500D01*
X63627500Y-53722500D01*
X63627500Y-52522500D01*
X62527500Y-52522500D01*
X62527500Y-53215553D01*
X61018000Y-53215553D01*
X61018000Y-51129446D01*
X62527500Y-51129446D01*
X62527500Y-51822500D01*
X63627500Y-51822500D01*
X64327500Y-51822500D01*
X65427500Y-51822500D01*
X65427500Y-51129446D01*
X65416886Y-51041056D01*
X65361420Y-50900404D01*
X65270064Y-50779935D01*
X65149595Y-50688579D01*
X65008943Y-50633113D01*
X64920554Y-50622500D01*
X64327500Y-50622500D01*
X64327500Y-51822500D01*
X63627500Y-51822500D01*
X63627500Y-50622500D01*
X63034446Y-50622500D01*
X62946056Y-50633113D01*
X62805404Y-50688579D01*
X62684935Y-50779935D01*
X62593579Y-50900404D01*
X62538113Y-51041056D01*
X62527500Y-51129446D01*
X61018000Y-51129446D01*
X61018000Y-50319433D01*
X61017999Y-50319429D01*
X61005420Y-50256189D01*
X60986565Y-50161398D01*
X60929860Y-50024501D01*
X60924902Y-50012531D01*
X60911779Y-49992891D01*
X60890901Y-49926213D01*
X60909386Y-49858833D01*
X60961365Y-49812143D01*
X61014881Y-49800000D01*
X67076000Y-49800000D01*
X67143039Y-49819685D01*
X67188794Y-49872489D01*
X67200000Y-49924000D01*
X67200000Y-53000000D01*
X77000000Y-53000000D01*
X77000000Y-49542000D01*
X77019685Y-49474961D01*
X77072489Y-49429206D01*
X77124000Y-49418000D01*
X79458000Y-49418000D01*
X79525039Y-49437685D01*
X79570794Y-49490489D01*
X79582000Y-49542000D01*
X79582000Y-49680570D01*
X79613433Y-49838594D01*
X79613436Y-49838606D01*
X79675093Y-49987461D01*
X79675100Y-49987474D01*
X79764617Y-50121444D01*
X79764620Y-50121448D01*
X81397777Y-51754603D01*
X81397787Y-51754614D01*
X81402117Y-51758944D01*
X81402118Y-51758945D01*
X81516055Y-51872882D01*
X81569717Y-51908736D01*
X81569719Y-51908739D01*
X81569719Y-51908738D01*
X81645520Y-51959388D01*
X81650032Y-51962403D01*
X81650036Y-51962405D01*
X81794828Y-52022379D01*
X81797389Y-52023547D01*
X81798895Y-52024063D01*
X81798896Y-52024064D01*
X81798898Y-52024065D01*
X81956931Y-52055499D01*
X81956933Y-52055500D01*
X81956934Y-52055500D01*
X81956935Y-52055500D01*
X82118066Y-52055500D01*
X82692769Y-52055500D01*
X82759808Y-52075185D01*
X82780450Y-52091818D01*
X82881344Y-52192712D01*
X83030666Y-52284814D01*
X83197203Y-52339999D01*
X83299991Y-52350500D01*
X84700008Y-52350499D01*
X84802797Y-52339999D01*
X84969334Y-52284814D01*
X85118656Y-52192712D01*
X85219550Y-52091818D01*
X85280873Y-52058334D01*
X85307231Y-52055500D01*
X86043067Y-52055500D01*
X86043068Y-52055499D01*
X86201102Y-52024065D01*
X86275535Y-51993233D01*
X86349968Y-51962403D01*
X86483945Y-51872882D01*
X88635382Y-49721445D01*
X88647430Y-49703412D01*
X88701039Y-49658608D01*
X88770363Y-49649898D01*
X88833392Y-49680050D01*
X88865094Y-49724849D01*
X88929608Y-49880600D01*
X88929610Y-49880604D01*
X88929611Y-49880605D01*
X89054332Y-50084132D01*
X89209357Y-50265643D01*
X89272337Y-50319433D01*
X89326520Y-50365710D01*
X89364713Y-50424217D01*
X89365211Y-50494085D01*
X89327857Y-50553131D01*
X89326520Y-50554290D01*
X89209357Y-50654357D01*
X89054332Y-50835867D01*
X88929608Y-51039399D01*
X88838261Y-51259931D01*
X88782538Y-51492036D01*
X88763811Y-51730000D01*
X88782538Y-51967963D01*
X88838261Y-52200068D01*
X88929608Y-52420600D01*
X88929610Y-52420604D01*
X88929611Y-52420605D01*
X89054332Y-52624132D01*
X89209357Y-52805643D01*
X89390868Y-52960668D01*
X89565795Y-53067863D01*
X89584379Y-53079251D01*
X89607271Y-53097298D01*
X90271975Y-53762000D01*
X90218120Y-53762000D01*
X90088919Y-53796619D01*
X89973080Y-53863498D01*
X89878498Y-53958080D01*
X89811619Y-54073919D01*
X89777000Y-54203120D01*
X89777000Y-54256974D01*
X89137316Y-53617290D01*
X89043643Y-53818175D01*
X89043639Y-53818186D01*
X88984042Y-54040604D01*
X88984041Y-54040611D01*
X88963973Y-54269997D01*
X88963973Y-54270002D01*
X88984041Y-54499388D01*
X88984042Y-54499395D01*
X89043639Y-54721813D01*
X89043643Y-54721824D01*
X89137316Y-54922708D01*
X89777000Y-54283024D01*
X89777000Y-54336880D01*
X89811619Y-54466081D01*
X89878498Y-54581920D01*
X89973080Y-54676502D01*
X90088919Y-54743381D01*
X90218120Y-54778000D01*
X90271973Y-54778000D01*
X89632291Y-55417681D01*
X89833178Y-55511357D01*
X90055604Y-55570957D01*
X90055611Y-55570958D01*
X90284998Y-55591027D01*
X90285002Y-55591027D01*
X90514388Y-55570958D01*
X90514395Y-55570957D01*
X90736813Y-55511360D01*
X90736824Y-55511356D01*
X90945510Y-55414044D01*
X90945514Y-55414042D01*
X90953384Y-55408532D01*
X91019590Y-55386204D01*
X91087358Y-55403213D01*
X91135171Y-55454161D01*
X91147850Y-55522870D01*
X91142770Y-55547391D01*
X91135340Y-55570958D01*
X91099775Y-55683756D01*
X91096075Y-55693921D01*
X90950002Y-56046572D01*
X90945430Y-56056376D01*
X90769183Y-56394942D01*
X90763775Y-56404310D01*
X90558681Y-56726244D01*
X90552476Y-56735105D01*
X90320110Y-57037930D01*
X90313156Y-57046217D01*
X90055284Y-57327635D01*
X90047635Y-57335284D01*
X89766217Y-57593156D01*
X89757930Y-57600110D01*
X89455105Y-57832476D01*
X89446244Y-57838681D01*
X89124310Y-58043775D01*
X89114942Y-58049183D01*
X88776376Y-58225430D01*
X88766572Y-58230002D01*
X88413921Y-58376075D01*
X88403755Y-58379775D01*
X88039721Y-58494554D01*
X88029272Y-58497354D01*
X87656610Y-58579971D01*
X87645957Y-58581849D01*
X87267526Y-58631671D01*
X87256750Y-58632614D01*
X86872703Y-58649382D01*
X86867294Y-58649500D01*
X76356548Y-58649500D01*
X76289509Y-58629815D01*
X76243754Y-58577011D01*
X76233810Y-58507853D01*
X76262835Y-58444297D01*
X76281622Y-58426696D01*
X76392564Y-58342564D01*
X76483920Y-58222095D01*
X76539386Y-58081443D01*
X76550000Y-57993053D01*
X76550000Y-56350000D01*
X73450000Y-56350000D01*
X73450000Y-57993053D01*
X73460613Y-58081443D01*
X73516079Y-58222095D01*
X73607435Y-58342564D01*
X73718378Y-58426696D01*
X73759901Y-58482889D01*
X73764452Y-58552610D01*
X73730587Y-58613724D01*
X73669057Y-58646828D01*
X73643452Y-58649500D01*
X58015872Y-58649500D01*
X57948833Y-58629815D01*
X57903078Y-58577011D01*
X57893134Y-58507853D01*
X57900517Y-58480011D01*
X57939385Y-58381444D01*
X57950000Y-58293053D01*
X57950000Y-56650000D01*
X54850000Y-56650000D01*
X54850000Y-58293053D01*
X54860614Y-58381444D01*
X54899483Y-58480011D01*
X54905764Y-58549597D01*
X54873427Y-58611533D01*
X54812738Y-58646154D01*
X54784128Y-58649500D01*
X51872706Y-58649500D01*
X51867297Y-58649382D01*
X51483249Y-58632614D01*
X51472473Y-58631671D01*
X51094042Y-58581849D01*
X51083389Y-58579971D01*
X50710727Y-58497354D01*
X50700278Y-58494554D01*
X50336244Y-58379775D01*
X50326078Y-58376075D01*
X49973427Y-58230002D01*
X49963623Y-58225430D01*
X49625057Y-58049183D01*
X49615689Y-58043775D01*
X49293755Y-57838681D01*
X49284894Y-57832476D01*
X48982069Y-57600110D01*
X48973782Y-57593156D01*
X48692364Y-57335284D01*
X48684715Y-57327635D01*
X48426843Y-57046217D01*
X48419889Y-57037930D01*
X48187523Y-56735105D01*
X48181318Y-56726244D01*
X47976224Y-56404310D01*
X47970816Y-56394942D01*
X47794569Y-56056376D01*
X47789997Y-56046572D01*
X47758880Y-55971448D01*
X47643920Y-55693911D01*
X47640227Y-55683765D01*
X47525442Y-55319710D01*
X47522648Y-55309284D01*
X47467519Y-55060613D01*
X47467162Y-55059001D01*
X47471870Y-54989290D01*
X47500542Y-54944482D01*
X48162000Y-54283024D01*
X48162000Y-54336880D01*
X48196619Y-54466081D01*
X48263498Y-54581920D01*
X48358080Y-54676502D01*
X48473919Y-54743381D01*
X48603120Y-54778000D01*
X48656974Y-54778000D01*
X48017291Y-55417681D01*
X48218178Y-55511357D01*
X48440604Y-55570957D01*
X48440611Y-55570958D01*
X48669998Y-55591027D01*
X48670002Y-55591027D01*
X48899388Y-55570958D01*
X48899395Y-55570957D01*
X49121821Y-55511357D01*
X49322708Y-55417681D01*
X48683027Y-54778000D01*
X48736880Y-54778000D01*
X48866081Y-54743381D01*
X48981920Y-54676502D01*
X49076502Y-54581920D01*
X49143381Y-54466081D01*
X49178000Y-54336880D01*
X49178000Y-54283026D01*
X49817681Y-54922707D01*
X49911357Y-54721821D01*
X49970957Y-54499395D01*
X49970958Y-54499388D01*
X49987795Y-54306946D01*
X54850000Y-54306946D01*
X54850000Y-55950000D01*
X56050000Y-55950000D01*
X56750000Y-55950000D01*
X57950000Y-55950000D01*
X57950000Y-54306946D01*
X57939386Y-54218556D01*
X57883920Y-54077904D01*
X57792564Y-53957435D01*
X57672095Y-53866079D01*
X57531443Y-53810613D01*
X57443054Y-53800000D01*
X56750000Y-53800000D01*
X56750000Y-55950000D01*
X56050000Y-55950000D01*
X56050000Y-53800000D01*
X55356946Y-53800000D01*
X55268556Y-53810613D01*
X55127904Y-53866079D01*
X55007435Y-53957435D01*
X54916079Y-54077904D01*
X54860613Y-54218556D01*
X54850000Y-54306946D01*
X49987795Y-54306946D01*
X49991027Y-54270002D01*
X49991027Y-54269997D01*
X49970958Y-54040611D01*
X49970957Y-54040604D01*
X49911357Y-53818178D01*
X49817681Y-53617291D01*
X49178000Y-54256972D01*
X49178000Y-54203120D01*
X49143381Y-54073919D01*
X49076502Y-53958080D01*
X48981920Y-53863498D01*
X48866081Y-53796619D01*
X48736880Y-53762000D01*
X48683026Y-53762000D01*
X49322708Y-53122316D01*
X49301401Y-53112381D01*
X49248962Y-53066208D01*
X49229810Y-52999015D01*
X49250026Y-52932134D01*
X49301402Y-52887617D01*
X49322708Y-52877681D01*
X48683027Y-52238000D01*
X48736880Y-52238000D01*
X48866081Y-52203381D01*
X48981920Y-52136502D01*
X49076502Y-52041920D01*
X49143381Y-51926081D01*
X49178000Y-51796880D01*
X49178000Y-51743026D01*
X49817681Y-52382707D01*
X49911357Y-52181821D01*
X49970957Y-51959395D01*
X49970958Y-51959388D01*
X49991027Y-51730002D01*
X49991027Y-51729997D01*
X49970958Y-51500611D01*
X49970957Y-51500604D01*
X49911357Y-51278178D01*
X49817681Y-51077291D01*
X49178000Y-51716972D01*
X49178000Y-51663120D01*
X49143381Y-51533919D01*
X49076502Y-51418080D01*
X48981920Y-51323498D01*
X48866081Y-51256619D01*
X48736880Y-51222000D01*
X48683026Y-51222000D01*
X49322708Y-50582316D01*
X49301401Y-50572381D01*
X49248962Y-50526208D01*
X49229810Y-50459015D01*
X49250026Y-50392134D01*
X49301402Y-50347617D01*
X49322708Y-50337681D01*
X48683027Y-49698000D01*
X48736880Y-49698000D01*
X48866081Y-49663381D01*
X48981920Y-49596502D01*
X49076502Y-49501920D01*
X49143381Y-49386081D01*
X49178000Y-49256880D01*
X49178000Y-49203026D01*
X49817681Y-49842707D01*
X49911357Y-49641821D01*
X49970957Y-49419395D01*
X49970958Y-49419388D01*
X49991027Y-49190002D01*
X49991027Y-49189997D01*
X49970958Y-48960611D01*
X49970957Y-48960604D01*
X49911357Y-48738178D01*
X49817681Y-48537291D01*
X49178000Y-49176972D01*
X49178000Y-49123120D01*
X49143381Y-48993919D01*
X49076502Y-48878080D01*
X48981920Y-48783498D01*
X48866081Y-48716619D01*
X48736880Y-48682000D01*
X48683026Y-48682000D01*
X49347727Y-48017298D01*
X49370610Y-47999257D01*
X49564132Y-47880668D01*
X49745643Y-47725643D01*
X49815827Y-47643467D01*
X49874332Y-47605275D01*
X49910116Y-47600000D01*
X53476000Y-47600000D01*
X53543039Y-47619685D01*
G37*
%TD.AperFunction*%
%TA.AperFunction,Conductor*%
G36*
X48162000Y-51796880D02*
G01*
X48196619Y-51926081D01*
X48263498Y-52041920D01*
X48358080Y-52136502D01*
X48473919Y-52203381D01*
X48603120Y-52238000D01*
X48656974Y-52238000D01*
X48017291Y-52877682D01*
X48038597Y-52887617D01*
X48091037Y-52933789D01*
X48110189Y-53000982D01*
X48089974Y-53067863D01*
X48038598Y-53112381D01*
X48017290Y-53122316D01*
X48656975Y-53762000D01*
X48603120Y-53762000D01*
X48473919Y-53796619D01*
X48358080Y-53863498D01*
X48263498Y-53958080D01*
X48196619Y-54073919D01*
X48162000Y-54203120D01*
X48162000Y-54256974D01*
X47522316Y-53617290D01*
X47516032Y-53618399D01*
X47446593Y-53610655D01*
X47392364Y-53566598D01*
X47370562Y-53500217D01*
X47370500Y-53496283D01*
X47370500Y-52503715D01*
X47390185Y-52436676D01*
X47442989Y-52390921D01*
X47512147Y-52380977D01*
X47516034Y-52381599D01*
X47522317Y-52382707D01*
X48162000Y-51743024D01*
X48162000Y-51796880D01*
G37*
%TD.AperFunction*%
%TA.AperFunction,Conductor*%
G36*
X91314759Y-52962573D02*
G01*
X91359372Y-53016345D01*
X91369500Y-53065428D01*
X91369500Y-53629111D01*
X91349815Y-53696150D01*
X91333181Y-53716792D01*
X90793000Y-54256971D01*
X90793000Y-54203120D01*
X90758381Y-54073919D01*
X90691502Y-53958080D01*
X90596920Y-53863498D01*
X90481081Y-53796619D01*
X90351880Y-53762000D01*
X90298026Y-53762000D01*
X90962727Y-53097298D01*
X90985610Y-53079257D01*
X91179132Y-52960668D01*
X91179133Y-52960666D01*
X91180711Y-52959700D01*
X91248157Y-52941456D01*
X91314759Y-52962573D01*
G37*
%TD.AperFunction*%
%TA.AperFunction,Conductor*%
G36*
X48162000Y-49256880D02*
G01*
X48196619Y-49386081D01*
X48263498Y-49501920D01*
X48358080Y-49596502D01*
X48473919Y-49663381D01*
X48603120Y-49698000D01*
X48656974Y-49698000D01*
X48017291Y-50337682D01*
X48038597Y-50347617D01*
X48091037Y-50393789D01*
X48110189Y-50460982D01*
X48089974Y-50527863D01*
X48038598Y-50572381D01*
X48017290Y-50582316D01*
X48656975Y-51222000D01*
X48603120Y-51222000D01*
X48473919Y-51256619D01*
X48358080Y-51323498D01*
X48263498Y-51418080D01*
X48196619Y-51533919D01*
X48162000Y-51663120D01*
X48162000Y-51716974D01*
X47522316Y-51077290D01*
X47516032Y-51078399D01*
X47446593Y-51070655D01*
X47392364Y-51026598D01*
X47370562Y-50960217D01*
X47370500Y-50956283D01*
X47370500Y-49963715D01*
X47390185Y-49896676D01*
X47442989Y-49850921D01*
X47512147Y-49840977D01*
X47516034Y-49841599D01*
X47522317Y-49842707D01*
X48162000Y-49203024D01*
X48162000Y-49256880D01*
G37*
%TD.AperFunction*%
%TA.AperFunction,Conductor*%
G36*
X47575703Y-47705943D02*
G01*
X47588784Y-47719118D01*
X47594357Y-47725643D01*
X47775868Y-47880668D01*
X47895681Y-47954089D01*
X47969379Y-47999251D01*
X47992271Y-48017298D01*
X48656975Y-48682000D01*
X48603120Y-48682000D01*
X48473919Y-48716619D01*
X48358080Y-48783498D01*
X48263498Y-48878080D01*
X48196619Y-48993919D01*
X48162000Y-49123120D01*
X48162000Y-49176974D01*
X47522316Y-48537290D01*
X47516032Y-48538399D01*
X47446593Y-48530655D01*
X47392364Y-48486598D01*
X47370562Y-48420217D01*
X47370500Y-48416283D01*
X47370500Y-47799656D01*
X47390185Y-47732617D01*
X47442989Y-47686862D01*
X47512147Y-47676918D01*
X47575703Y-47705943D01*
G37*
%TD.AperFunction*%
%TA.AperFunction,Conductor*%
G36*
X86872702Y-34650617D02*
G01*
X87256771Y-34667386D01*
X87267506Y-34668326D01*
X87645971Y-34718152D01*
X87656597Y-34720025D01*
X88029284Y-34802648D01*
X88039710Y-34805442D01*
X88403765Y-34920227D01*
X88413911Y-34923920D01*
X88766578Y-35070000D01*
X88776369Y-35074566D01*
X89114942Y-35250816D01*
X89124310Y-35256224D01*
X89446244Y-35461318D01*
X89455105Y-35467523D01*
X89757930Y-35699889D01*
X89766217Y-35706843D01*
X90047635Y-35964715D01*
X90055284Y-35972364D01*
X90313156Y-36253782D01*
X90320110Y-36262069D01*
X90552476Y-36564894D01*
X90558681Y-36573755D01*
X90763775Y-36895689D01*
X90769183Y-36905057D01*
X90945430Y-37243623D01*
X90950002Y-37253427D01*
X91096075Y-37606078D01*
X91099775Y-37616244D01*
X91214554Y-37980278D01*
X91217354Y-37990727D01*
X91299971Y-38363389D01*
X91301849Y-38374042D01*
X91351671Y-38752473D01*
X91352614Y-38763249D01*
X91369382Y-39147297D01*
X91369500Y-39152706D01*
X91369500Y-42774571D01*
X91349815Y-42841610D01*
X91297011Y-42887365D01*
X91227853Y-42897309D01*
X91180710Y-42880298D01*
X91115364Y-42840254D01*
X91068489Y-42788443D01*
X91065594Y-42781981D01*
X91054257Y-42754612D01*
X91054256Y-42754610D01*
X91009905Y-42647536D01*
X91009904Y-42647535D01*
X91009903Y-42647532D01*
X90954501Y-42564618D01*
X90920382Y-42513555D01*
X90920380Y-42513553D01*
X90920378Y-42513550D01*
X90802126Y-42395298D01*
X90802103Y-42395277D01*
X90634278Y-42227452D01*
X90600793Y-42166129D01*
X90605777Y-42096437D01*
X90634278Y-42052090D01*
X90638937Y-42047431D01*
X90742712Y-41943656D01*
X90834814Y-41794334D01*
X90889999Y-41627797D01*
X90900500Y-41525009D01*
X90900499Y-40599992D01*
X90889999Y-40497203D01*
X90834814Y-40330666D01*
X90742712Y-40181344D01*
X90618656Y-40057288D01*
X90509154Y-39989747D01*
X90469336Y-39965187D01*
X90469331Y-39965185D01*
X90467862Y-39964698D01*
X90302797Y-39910001D01*
X90302795Y-39910000D01*
X90200010Y-39899500D01*
X88799998Y-39899500D01*
X88799981Y-39899501D01*
X88697203Y-39910000D01*
X88697200Y-39910001D01*
X88530668Y-39965185D01*
X88530663Y-39965187D01*
X88381342Y-40057289D01*
X88257289Y-40181342D01*
X88165187Y-40330663D01*
X88165186Y-40330666D01*
X88110001Y-40497203D01*
X88110001Y-40497204D01*
X88110000Y-40497204D01*
X88099500Y-40599983D01*
X88099500Y-41525001D01*
X88099501Y-41525019D01*
X88110000Y-41627796D01*
X88110001Y-41627799D01*
X88138915Y-41715054D01*
X88165186Y-41794334D01*
X88257288Y-41943656D01*
X88381344Y-42067712D01*
X88530666Y-42159814D01*
X88597005Y-42181796D01*
X88654448Y-42221567D01*
X88681272Y-42286082D01*
X88682000Y-42299501D01*
X88682000Y-42330570D01*
X88713433Y-42488594D01*
X88713436Y-42488606D01*
X88775093Y-42637461D01*
X88775100Y-42637474D01*
X88864617Y-42771444D01*
X88864620Y-42771448D01*
X89090611Y-42997438D01*
X89124096Y-43058761D01*
X89119112Y-43128452D01*
X89097221Y-43165650D01*
X89054332Y-43215866D01*
X89054329Y-43215871D01*
X89043963Y-43232788D01*
X88992152Y-43279664D01*
X88938235Y-43292000D01*
X84850189Y-43292000D01*
X84783150Y-43272315D01*
X84762508Y-43255681D01*
X84404319Y-42897492D01*
X84370834Y-42836169D01*
X84368000Y-42809811D01*
X84368000Y-42601606D01*
X84387685Y-42534567D01*
X84414313Y-42504959D01*
X84482686Y-42449999D01*
X84547722Y-42397722D01*
X84667030Y-42249296D01*
X84704553Y-42173635D01*
X84751972Y-42122326D01*
X84819607Y-42104796D01*
X84885982Y-42126616D01*
X84921757Y-42164583D01*
X84939746Y-42194341D01*
X85055657Y-42310252D01*
X85055662Y-42310256D01*
X85195934Y-42395052D01*
X85352437Y-42443820D01*
X85420444Y-42449999D01*
X86200000Y-42449999D01*
X86279565Y-42449999D01*
X86347561Y-42443821D01*
X86347572Y-42443818D01*
X86504060Y-42395055D01*
X86504064Y-42395053D01*
X86644337Y-42310256D01*
X86644342Y-42310252D01*
X86760252Y-42194342D01*
X86760256Y-42194337D01*
X86845052Y-42054065D01*
X86893820Y-41897562D01*
X86900000Y-41829556D01*
X86900000Y-41500000D01*
X86200000Y-41500000D01*
X86200000Y-42449999D01*
X85420444Y-42449999D01*
X85499999Y-42449998D01*
X85500000Y-42449998D01*
X85500000Y-40800000D01*
X86200000Y-40800000D01*
X86899999Y-40800000D01*
X86899999Y-40470433D01*
X86893821Y-40402438D01*
X86893818Y-40402427D01*
X86845055Y-40245939D01*
X86845053Y-40245935D01*
X86760256Y-40105662D01*
X86760252Y-40105657D01*
X86644342Y-39989747D01*
X86644337Y-39989743D01*
X86504065Y-39904947D01*
X86347562Y-39856179D01*
X86279556Y-39850000D01*
X86200000Y-39850000D01*
X86200000Y-40800000D01*
X85500000Y-40800000D01*
X85500000Y-39850000D01*
X85499999Y-39849999D01*
X85420432Y-39850000D01*
X85352438Y-39856178D01*
X85352427Y-39856181D01*
X85195939Y-39904944D01*
X85195935Y-39904946D01*
X85055662Y-39989743D01*
X85055657Y-39989747D01*
X84939747Y-40105657D01*
X84939744Y-40105661D01*
X84921756Y-40135417D01*
X84870228Y-40182604D01*
X84801368Y-40194442D01*
X84737040Y-40167172D01*
X84704552Y-40126360D01*
X84667032Y-40050707D01*
X84667030Y-40050704D01*
X84547722Y-39902278D01*
X84547721Y-39902277D01*
X84399295Y-39782969D01*
X84399292Y-39782967D01*
X84228697Y-39698360D01*
X84043892Y-39652400D01*
X84022506Y-39650950D01*
X84001123Y-39649500D01*
X84001120Y-39649500D01*
X83098877Y-39649500D01*
X83098874Y-39649501D01*
X83056113Y-39652399D01*
X83056112Y-39652399D01*
X82871303Y-39698360D01*
X82700707Y-39782967D01*
X82700704Y-39782969D01*
X82552278Y-39902277D01*
X82552277Y-39902278D01*
X82496647Y-39971486D01*
X82439304Y-40011405D01*
X82369482Y-40013985D01*
X82309349Y-39978406D01*
X82303353Y-39971486D01*
X82247722Y-39902278D01*
X82247721Y-39902277D01*
X82099295Y-39782969D01*
X82099292Y-39782967D01*
X81928697Y-39698360D01*
X81743892Y-39652400D01*
X81722506Y-39650950D01*
X81701123Y-39649500D01*
X81701120Y-39649500D01*
X80798877Y-39649500D01*
X80798874Y-39649501D01*
X80756113Y-39652399D01*
X80756112Y-39652399D01*
X80571303Y-39698360D01*
X80400707Y-39782967D01*
X80400704Y-39782969D01*
X80252278Y-39902277D01*
X80252277Y-39902278D01*
X80132969Y-40050704D01*
X80132967Y-40050707D01*
X80048360Y-40221302D01*
X80002400Y-40406107D01*
X79999500Y-40448879D01*
X79999500Y-41851122D01*
X79999501Y-41851125D01*
X80002399Y-41893886D01*
X80002399Y-41893887D01*
X80014777Y-41943657D01*
X80040584Y-42047431D01*
X80048360Y-42078696D01*
X80132967Y-42249292D01*
X80132969Y-42249295D01*
X80252277Y-42397721D01*
X80252278Y-42397722D01*
X80385687Y-42504959D01*
X80425606Y-42562302D01*
X80432000Y-42601606D01*
X80432000Y-43359810D01*
X80412315Y-43426849D01*
X80395681Y-43447491D01*
X79764620Y-44078551D01*
X79764617Y-44078555D01*
X79675098Y-44212528D01*
X79675097Y-44212531D01*
X79650695Y-44271444D01*
X79650695Y-44271445D01*
X79613435Y-44361397D01*
X79613433Y-44361405D01*
X79582000Y-44519429D01*
X79582000Y-47609811D01*
X79562315Y-47676850D01*
X79545681Y-47697492D01*
X79497492Y-47745681D01*
X79436169Y-47779166D01*
X79409811Y-47782000D01*
X77124000Y-47782000D01*
X77056961Y-47762315D01*
X77011206Y-47709511D01*
X77000000Y-47658000D01*
X77000000Y-38393053D01*
X88300000Y-38393053D01*
X88310613Y-38481443D01*
X88366079Y-38622095D01*
X88457435Y-38742564D01*
X88577904Y-38833920D01*
X88718556Y-38889386D01*
X88806946Y-38900000D01*
X89150000Y-38900000D01*
X89850000Y-38900000D01*
X90193054Y-38900000D01*
X90281443Y-38889386D01*
X90422095Y-38833920D01*
X90542564Y-38742564D01*
X90633920Y-38622095D01*
X90689386Y-38481443D01*
X90700000Y-38393053D01*
X90700000Y-38287500D01*
X89850000Y-38287500D01*
X89850000Y-38900000D01*
X89150000Y-38900000D01*
X89150000Y-38287500D01*
X88300000Y-38287500D01*
X88300000Y-38393053D01*
X77000000Y-38393053D01*
X77000000Y-37481946D01*
X88300000Y-37481946D01*
X88300000Y-37587500D01*
X89150000Y-37587500D01*
X89850000Y-37587500D01*
X90700000Y-37587500D01*
X90700000Y-37481946D01*
X90689386Y-37393556D01*
X90633920Y-37252904D01*
X90542564Y-37132435D01*
X90422095Y-37041079D01*
X90281443Y-36985613D01*
X90193054Y-36975000D01*
X89850000Y-36975000D01*
X89850000Y-37587500D01*
X89150000Y-37587500D01*
X89150000Y-36975000D01*
X88806946Y-36975000D01*
X88718556Y-36985613D01*
X88577904Y-37041079D01*
X88457435Y-37132435D01*
X88366079Y-37252904D01*
X88310613Y-37393556D01*
X88300000Y-37481946D01*
X77000000Y-37481946D01*
X77000000Y-34774500D01*
X77019685Y-34707461D01*
X77072489Y-34661706D01*
X77124000Y-34650500D01*
X86804108Y-34650500D01*
X86867294Y-34650500D01*
X86872702Y-34650617D01*
G37*
%TD.AperFunction*%
%TD*%
%TA.AperFunction,Conductor*%
%TO.N,Net-(D1-K)*%
G36*
X61687912Y-41125185D02*
G01*
X61733667Y-41177989D01*
X61743611Y-41247147D01*
X61714586Y-41310703D01*
X61708554Y-41317181D01*
X61648214Y-41377520D01*
X61648211Y-41377525D01*
X61602910Y-41480122D01*
X61602910Y-41480124D01*
X61600000Y-41505205D01*
X61600000Y-42950000D01*
X72399999Y-42950000D01*
X72399999Y-41505214D01*
X72399997Y-41505191D01*
X72397091Y-41480130D01*
X72397090Y-41480126D01*
X72351788Y-41377525D01*
X72351785Y-41377520D01*
X72291446Y-41317181D01*
X72257961Y-41255858D01*
X72262945Y-41186166D01*
X72304817Y-41130233D01*
X72370281Y-41105816D01*
X72379127Y-41105500D01*
X72770500Y-41105500D01*
X72837539Y-41125185D01*
X72883294Y-41177989D01*
X72894500Y-41229500D01*
X72894500Y-45370500D01*
X72874815Y-45437539D01*
X72822011Y-45483294D01*
X72770500Y-45494500D01*
X72379127Y-45494500D01*
X72312088Y-45474815D01*
X72266333Y-45422011D01*
X72256389Y-45352853D01*
X72285414Y-45289297D01*
X72291446Y-45282819D01*
X72351785Y-45222479D01*
X72351788Y-45222474D01*
X72397089Y-45119877D01*
X72397089Y-45119875D01*
X72399999Y-45094794D01*
X72400000Y-45094791D01*
X72400000Y-43650000D01*
X67350000Y-43650000D01*
X67350000Y-45380322D01*
X67330315Y-45447361D01*
X67277511Y-45493116D01*
X67239256Y-45503611D01*
X67216548Y-45506052D01*
X67216537Y-45506054D01*
X67165027Y-45517260D01*
X67062502Y-45551383D01*
X67062496Y-45551386D01*
X66941462Y-45629171D01*
X66941451Y-45629179D01*
X66888659Y-45674923D01*
X66794433Y-45783664D01*
X66794430Y-45783668D01*
X66734664Y-45914534D01*
X66714976Y-45981582D01*
X66694500Y-46124001D01*
X66694500Y-49170500D01*
X66674815Y-49237539D01*
X66622011Y-49283294D01*
X66570500Y-49294500D01*
X65484499Y-49294500D01*
X65417460Y-49274815D01*
X65371705Y-49222011D01*
X65361761Y-49152853D01*
X65369144Y-49125010D01*
X65416886Y-49003943D01*
X65427500Y-48915553D01*
X65427500Y-48222500D01*
X62527500Y-48222500D01*
X62527500Y-48915553D01*
X62538113Y-49003943D01*
X62585856Y-49125010D01*
X62592137Y-49194597D01*
X62559800Y-49256533D01*
X62499111Y-49291154D01*
X62470501Y-49294500D01*
X61014878Y-49294500D01*
X60903023Y-49307030D01*
X60903019Y-49307031D01*
X60849512Y-49319172D01*
X60743200Y-49356145D01*
X60623567Y-49436080D01*
X60589489Y-49466690D01*
X60526461Y-49496843D01*
X60457136Y-49488134D01*
X60418948Y-49462120D01*
X59221448Y-48264620D01*
X59221444Y-48264617D01*
X59087471Y-48175098D01*
X59087468Y-48175097D01*
X58996798Y-48137541D01*
X58938602Y-48113435D01*
X58938594Y-48113433D01*
X58780570Y-48082000D01*
X58780566Y-48082000D01*
X58724000Y-48082000D01*
X58656961Y-48062315D01*
X58611206Y-48009511D01*
X58600000Y-47958000D01*
X58600000Y-46829446D01*
X62527500Y-46829446D01*
X62527500Y-47522500D01*
X63627500Y-47522500D01*
X64327500Y-47522500D01*
X65427500Y-47522500D01*
X65427500Y-46829446D01*
X65416886Y-46741056D01*
X65361420Y-46600404D01*
X65270064Y-46479935D01*
X65149595Y-46388579D01*
X65008943Y-46333113D01*
X64920554Y-46322500D01*
X64327500Y-46322500D01*
X64327500Y-47522500D01*
X63627500Y-47522500D01*
X63627500Y-46322500D01*
X63034446Y-46322500D01*
X62946056Y-46333113D01*
X62805404Y-46388579D01*
X62684935Y-46479935D01*
X62593579Y-46600404D01*
X62538113Y-46741056D01*
X62527500Y-46829446D01*
X58600000Y-46829446D01*
X58600000Y-46000000D01*
X53924000Y-46000000D01*
X53856961Y-45980315D01*
X53811206Y-45927511D01*
X53800000Y-45876000D01*
X53800000Y-43998632D01*
X53819685Y-43931593D01*
X53872489Y-43885838D01*
X53941647Y-43875894D01*
X53997635Y-43898863D01*
X54002354Y-43902346D01*
X54002356Y-43902347D01*
X54064999Y-43924266D01*
X54065000Y-43924266D01*
X54065000Y-42649000D01*
X54084685Y-42581961D01*
X54137489Y-42536206D01*
X54189000Y-42525000D01*
X54541000Y-42525000D01*
X54608039Y-42544685D01*
X54653794Y-42597489D01*
X54665000Y-42649000D01*
X54665000Y-43509642D01*
X54645315Y-43576681D01*
X54636118Y-43588810D01*
X54636145Y-43588831D01*
X54634252Y-43591270D01*
X54633703Y-43591996D01*
X54633604Y-43592107D01*
X54628837Y-43598253D01*
X54627553Y-43600038D01*
X54627516Y-43600011D01*
X54627026Y-43600699D01*
X54627063Y-43600726D01*
X54626098Y-43602063D01*
X54626094Y-43602069D01*
X54622083Y-43607631D01*
X54594434Y-43645969D01*
X54534663Y-43776845D01*
X54514976Y-43843890D01*
X54503420Y-43924266D01*
X54494500Y-43986308D01*
X54494500Y-44876000D01*
X54494501Y-44876009D01*
X54506052Y-44983450D01*
X54506054Y-44983462D01*
X54517260Y-45034972D01*
X54551383Y-45137497D01*
X54551386Y-45137503D01*
X54629171Y-45258537D01*
X54629179Y-45258548D01*
X54674923Y-45311340D01*
X54674926Y-45311343D01*
X54674930Y-45311347D01*
X54783664Y-45405567D01*
X54783667Y-45405568D01*
X54783668Y-45405569D01*
X54877925Y-45448616D01*
X54914541Y-45465338D01*
X54981580Y-45485023D01*
X54981584Y-45485024D01*
X55124000Y-45505500D01*
X55124003Y-45505500D01*
X59075990Y-45505500D01*
X59076000Y-45505500D01*
X59183456Y-45493947D01*
X59234967Y-45482741D01*
X59269197Y-45471347D01*
X59337497Y-45448616D01*
X59337501Y-45448613D01*
X59337504Y-45448613D01*
X59458543Y-45370825D01*
X59511347Y-45325070D01*
X59605567Y-45216336D01*
X59661079Y-45094785D01*
X61600001Y-45094785D01*
X61600002Y-45094808D01*
X61602908Y-45119869D01*
X61602909Y-45119873D01*
X61648211Y-45222474D01*
X61648214Y-45222479D01*
X61727520Y-45301785D01*
X61727525Y-45301788D01*
X61830123Y-45347089D01*
X61855206Y-45349999D01*
X66649999Y-45349999D01*
X66650000Y-45349998D01*
X66650000Y-43650000D01*
X61600001Y-43650000D01*
X61600001Y-45094785D01*
X59661079Y-45094785D01*
X59665338Y-45085459D01*
X59685023Y-45018420D01*
X59685024Y-45018416D01*
X59705500Y-44876000D01*
X59705500Y-41229500D01*
X59725185Y-41162461D01*
X59777989Y-41116706D01*
X59829500Y-41105500D01*
X61620873Y-41105500D01*
X61687912Y-41125185D01*
G37*
%TD.AperFunction*%
%TD*%
%TA.AperFunction,Conductor*%
%TO.N,GND*%
G36*
X57743039Y-34670185D02*
G01*
X57788794Y-34722989D01*
X57800000Y-34774500D01*
X57800000Y-43876000D01*
X57780315Y-43943039D01*
X57727511Y-43988794D01*
X57676000Y-44000000D01*
X56462439Y-44000000D01*
X56395400Y-43980315D01*
X56349645Y-43927511D01*
X56339701Y-43858353D01*
X56355707Y-43812879D01*
X56356888Y-43810880D01*
X56386744Y-43760398D01*
X56432598Y-43602569D01*
X56435500Y-43565694D01*
X56435500Y-42084306D01*
X56432598Y-42047431D01*
X56386744Y-41889602D01*
X56303081Y-41748135D01*
X56303079Y-41748133D01*
X56303076Y-41748129D01*
X56236319Y-41681372D01*
X56202834Y-41620049D01*
X56200000Y-41593691D01*
X56200000Y-41400000D01*
X47494500Y-41400000D01*
X47427461Y-41380315D01*
X47381706Y-41327511D01*
X47370500Y-41276000D01*
X47370500Y-39152706D01*
X47370618Y-39147297D01*
X47373377Y-39084108D01*
X47387386Y-38763226D01*
X47388326Y-38752495D01*
X47438152Y-38374025D01*
X47440025Y-38363405D01*
X47522649Y-37990709D01*
X47525440Y-37980295D01*
X47640230Y-37616227D01*
X47643917Y-37606095D01*
X47790003Y-37253412D01*
X47794561Y-37243638D01*
X47970822Y-36905045D01*
X47976217Y-36895700D01*
X48181325Y-36573744D01*
X48187515Y-36564905D01*
X48419896Y-36262060D01*
X48426834Y-36253791D01*
X48684726Y-35972352D01*
X48692352Y-35964726D01*
X48973791Y-35706834D01*
X48982060Y-35699896D01*
X49284905Y-35467515D01*
X49293744Y-35461325D01*
X49615700Y-35256217D01*
X49625045Y-35250822D01*
X49963638Y-35074561D01*
X49973412Y-35070003D01*
X50326095Y-34923917D01*
X50336227Y-34920230D01*
X50700295Y-34805440D01*
X50710709Y-34802649D01*
X51083405Y-34720025D01*
X51094025Y-34718152D01*
X51472495Y-34668326D01*
X51483226Y-34667386D01*
X51867297Y-34650617D01*
X51872706Y-34650500D01*
X57676000Y-34650500D01*
X57743039Y-34670185D01*
G37*
%TD.AperFunction*%
%TD*%
%TA.AperFunction,Conductor*%
%TO.N,+5V*%
G36*
X61581037Y-34670185D02*
G01*
X61626792Y-34722989D01*
X61636736Y-34792147D01*
X61627433Y-34824586D01*
X61602910Y-34880125D01*
X61600000Y-34905205D01*
X61600000Y-36350000D01*
X72399999Y-36350000D01*
X72399999Y-34905214D01*
X72399997Y-34905191D01*
X72397091Y-34880130D01*
X72397090Y-34880126D01*
X72372567Y-34824585D01*
X72363496Y-34755306D01*
X72393321Y-34692122D01*
X72452571Y-34655092D01*
X72486002Y-34650500D01*
X76370500Y-34650500D01*
X76437539Y-34670185D01*
X76483294Y-34722989D01*
X76494500Y-34774500D01*
X76494500Y-46085080D01*
X76474815Y-46152119D01*
X76422011Y-46197874D01*
X76352853Y-46207818D01*
X76295575Y-46183884D01*
X76272097Y-46166080D01*
X76131443Y-46110613D01*
X76043054Y-46100000D01*
X75350000Y-46100000D01*
X75350000Y-48250000D01*
X76550000Y-48250000D01*
X76552750Y-48247249D01*
X76569685Y-48189578D01*
X76622489Y-48143823D01*
X76691647Y-48133879D01*
X76755200Y-48162902D01*
X76780667Y-48184970D01*
X76783664Y-48187567D01*
X76783668Y-48187569D01*
X76914542Y-48247339D01*
X76918685Y-48248884D01*
X76917969Y-48250803D01*
X76969702Y-48284040D01*
X76998735Y-48347592D01*
X77000000Y-48365256D01*
X77000000Y-48834204D01*
X76980315Y-48901243D01*
X76927511Y-48946998D01*
X76915159Y-48951858D01*
X76862502Y-48969383D01*
X76862492Y-48969388D01*
X76741039Y-49047442D01*
X76674000Y-49067127D01*
X76606961Y-49047442D01*
X76561206Y-48994638D01*
X76551910Y-48951910D01*
X76550000Y-48950000D01*
X75350000Y-48950000D01*
X75350000Y-51100000D01*
X76043054Y-51100000D01*
X76131443Y-51089386D01*
X76272095Y-51033920D01*
X76295573Y-51016116D01*
X76360884Y-50991292D01*
X76429248Y-51005719D01*
X76478960Y-51054816D01*
X76494500Y-51114919D01*
X76494500Y-52370500D01*
X76474815Y-52437539D01*
X76422011Y-52483294D01*
X76370500Y-52494500D01*
X67829500Y-52494500D01*
X67762461Y-52474815D01*
X67716706Y-52422011D01*
X67705500Y-52370500D01*
X67705500Y-50593053D01*
X73450000Y-50593053D01*
X73460613Y-50681443D01*
X73516079Y-50822095D01*
X73607435Y-50942564D01*
X73727904Y-51033920D01*
X73868556Y-51089386D01*
X73956946Y-51100000D01*
X74650000Y-51100000D01*
X74650000Y-48950000D01*
X73450000Y-48950000D01*
X73450000Y-50593053D01*
X67705500Y-50593053D01*
X67705500Y-49924010D01*
X67705500Y-49924000D01*
X67693947Y-49816544D01*
X67682741Y-49765033D01*
X67677080Y-49748024D01*
X67648616Y-49662502D01*
X67648613Y-49662496D01*
X67570828Y-49541462D01*
X67570825Y-49541457D01*
X67570820Y-49541451D01*
X67525076Y-49488659D01*
X67525072Y-49488656D01*
X67525070Y-49488653D01*
X67416336Y-49394433D01*
X67416333Y-49394431D01*
X67416331Y-49394430D01*
X67285457Y-49334660D01*
X67281315Y-49333116D01*
X67282017Y-49331232D01*
X67230182Y-49297825D01*
X67201239Y-49234231D01*
X67200000Y-49216743D01*
X67200000Y-46606946D01*
X73450000Y-46606946D01*
X73450000Y-48250000D01*
X74650000Y-48250000D01*
X74650000Y-46100000D01*
X73956946Y-46100000D01*
X73868556Y-46110613D01*
X73727904Y-46166079D01*
X73607435Y-46257435D01*
X73516079Y-46377904D01*
X73460613Y-46518556D01*
X73450000Y-46606946D01*
X67200000Y-46606946D01*
X67200000Y-46124000D01*
X67219685Y-46056961D01*
X67272489Y-46011206D01*
X67324000Y-46000000D01*
X73400000Y-46000000D01*
X73400000Y-40600000D01*
X59200000Y-40600000D01*
X59200000Y-44876000D01*
X59180315Y-44943039D01*
X59127511Y-44988794D01*
X59076000Y-45000000D01*
X55124000Y-45000000D01*
X55056961Y-44980315D01*
X55011206Y-44927511D01*
X55000000Y-44876000D01*
X55000000Y-43986308D01*
X55019685Y-43919269D01*
X55028571Y-43908243D01*
X55028298Y-43908031D01*
X55033077Y-43901868D01*
X55033081Y-43901865D01*
X55035690Y-43897452D01*
X55086755Y-43849767D01*
X55155495Y-43837259D01*
X55216059Y-43860798D01*
X55272354Y-43902346D01*
X55272356Y-43902347D01*
X55334999Y-43924266D01*
X55335000Y-43924266D01*
X55335000Y-42649000D01*
X55354685Y-42581961D01*
X55407489Y-42536206D01*
X55459000Y-42525000D01*
X55806000Y-42525000D01*
X55873039Y-42544685D01*
X55918794Y-42597489D01*
X55930000Y-42649000D01*
X55930000Y-43502989D01*
X55925075Y-43537585D01*
X55921411Y-43550196D01*
X55921312Y-43550540D01*
X55914636Y-43568309D01*
X55878882Y-43645045D01*
X55872105Y-43664298D01*
X55862875Y-43690521D01*
X55839346Y-43786415D01*
X55839346Y-43930293D01*
X55839547Y-43931688D01*
X55849291Y-43999455D01*
X55849292Y-43999460D01*
X55849293Y-43999463D01*
X55889825Y-44137501D01*
X55889828Y-44137507D01*
X55967610Y-44258537D01*
X55967618Y-44258548D01*
X56013362Y-44311340D01*
X56013365Y-44311343D01*
X56013369Y-44311347D01*
X56122103Y-44405567D01*
X56122106Y-44405568D01*
X56122107Y-44405569D01*
X56252007Y-44464894D01*
X56252980Y-44465338D01*
X56320019Y-44485023D01*
X56320023Y-44485024D01*
X56462439Y-44505500D01*
X56462442Y-44505500D01*
X57675990Y-44505500D01*
X57676000Y-44505500D01*
X57783456Y-44493947D01*
X57834967Y-44482741D01*
X57869197Y-44471347D01*
X57937497Y-44448616D01*
X57937501Y-44448613D01*
X57937504Y-44448613D01*
X58058543Y-44370825D01*
X58111347Y-44325070D01*
X58205567Y-44216336D01*
X58265338Y-44085459D01*
X58285023Y-44018420D01*
X58285024Y-44018416D01*
X58305500Y-43876000D01*
X58305500Y-38494785D01*
X61600001Y-38494785D01*
X61600002Y-38494808D01*
X61602908Y-38519869D01*
X61602909Y-38519873D01*
X61648211Y-38622474D01*
X61648214Y-38622479D01*
X61727520Y-38701785D01*
X61727525Y-38701788D01*
X61830123Y-38747089D01*
X61855206Y-38749999D01*
X66649999Y-38749999D01*
X67350000Y-38749999D01*
X72144786Y-38749999D01*
X72144808Y-38749997D01*
X72169869Y-38747091D01*
X72169873Y-38747090D01*
X72272474Y-38701788D01*
X72272479Y-38701785D01*
X72351785Y-38622479D01*
X72351788Y-38622474D01*
X72397089Y-38519877D01*
X72397089Y-38519875D01*
X72399999Y-38494794D01*
X72400000Y-38494791D01*
X72400000Y-37050000D01*
X67350000Y-37050000D01*
X67350000Y-38749999D01*
X66649999Y-38749999D01*
X66650000Y-38749998D01*
X66650000Y-37050000D01*
X61600001Y-37050000D01*
X61600001Y-38494785D01*
X58305500Y-38494785D01*
X58305500Y-34774500D01*
X58325185Y-34707461D01*
X58377989Y-34661706D01*
X58429500Y-34650500D01*
X61513998Y-34650500D01*
X61581037Y-34670185D01*
G37*
%TD.AperFunction*%
%TD*%
%TA.AperFunction,Conductor*%
%TO.N,VIN*%
G36*
X52446078Y-41925185D02*
G01*
X52491833Y-41977989D01*
X52501777Y-42047147D01*
X52499135Y-42057952D01*
X52499461Y-42058024D01*
X52497850Y-42065399D01*
X52495000Y-42095793D01*
X52495000Y-42525000D01*
X53271000Y-42525000D01*
X53338039Y-42544685D01*
X53383794Y-42597489D01*
X53395000Y-42649000D01*
X53395000Y-43630078D01*
X53383794Y-43681590D01*
X53334664Y-43789166D01*
X53314976Y-43856214D01*
X53308343Y-43902347D01*
X53294500Y-43998632D01*
X53294500Y-45876000D01*
X53294501Y-45876009D01*
X53306052Y-45983450D01*
X53306054Y-45983462D01*
X53317260Y-46034972D01*
X53351383Y-46137497D01*
X53351386Y-46137503D01*
X53429171Y-46258537D01*
X53429179Y-46258548D01*
X53474923Y-46311340D01*
X53474926Y-46311343D01*
X53474930Y-46311347D01*
X53583664Y-46405567D01*
X53583667Y-46405568D01*
X53583668Y-46405569D01*
X53713268Y-46464757D01*
X53714541Y-46465338D01*
X53781580Y-46485023D01*
X53781584Y-46485024D01*
X53924000Y-46505500D01*
X54801874Y-46505500D01*
X54868913Y-46525185D01*
X54914668Y-46577989D01*
X54924612Y-46647147D01*
X54917229Y-46674990D01*
X54860613Y-46818556D01*
X54850000Y-46906946D01*
X54850000Y-48550000D01*
X57950000Y-48550000D01*
X57950000Y-48328444D01*
X57969685Y-48261405D01*
X58022489Y-48215650D01*
X58091647Y-48205706D01*
X58155203Y-48234731D01*
X58178315Y-48261405D01*
X58229166Y-48340531D01*
X58229179Y-48340548D01*
X58274923Y-48393340D01*
X58274926Y-48393343D01*
X58274930Y-48393347D01*
X58383664Y-48487567D01*
X58383667Y-48487568D01*
X58383668Y-48487569D01*
X58514542Y-48547339D01*
X58518685Y-48548884D01*
X58517969Y-48550803D01*
X58569702Y-48584040D01*
X58598735Y-48647592D01*
X58600000Y-48665256D01*
X58600000Y-49550376D01*
X58580315Y-49617415D01*
X58527511Y-49663170D01*
X58510935Y-49669353D01*
X58462498Y-49683575D01*
X58462492Y-49683578D01*
X58341462Y-49761360D01*
X58341451Y-49761368D01*
X58288659Y-49807112D01*
X58194433Y-49915853D01*
X58194431Y-49915855D01*
X58186794Y-49932579D01*
X58141038Y-49985382D01*
X58073998Y-50005066D01*
X58006959Y-49985381D01*
X57961205Y-49932576D01*
X57950000Y-49881066D01*
X57950000Y-49250000D01*
X54850000Y-49250000D01*
X54850000Y-50893053D01*
X54860613Y-50981443D01*
X54917229Y-51125010D01*
X54923510Y-51194597D01*
X54891173Y-51256533D01*
X54830484Y-51291154D01*
X54801874Y-51294500D01*
X54229500Y-51294500D01*
X54162461Y-51274815D01*
X54116706Y-51222011D01*
X54105500Y-51170500D01*
X54105500Y-47724010D01*
X54105500Y-47724000D01*
X54093947Y-47616544D01*
X54082741Y-47565033D01*
X54077540Y-47549406D01*
X54048616Y-47462502D01*
X54048613Y-47462496D01*
X53970828Y-47341462D01*
X53970825Y-47341457D01*
X53969211Y-47339594D01*
X53925076Y-47288659D01*
X53925072Y-47288656D01*
X53925070Y-47288653D01*
X53816336Y-47194433D01*
X53816333Y-47194431D01*
X53816331Y-47194430D01*
X53685465Y-47134664D01*
X53685460Y-47134662D01*
X53685459Y-47134662D01*
X53618420Y-47114977D01*
X53618422Y-47114977D01*
X53618417Y-47114976D01*
X53550275Y-47105179D01*
X53476000Y-47094500D01*
X50074920Y-47094500D01*
X50007881Y-47074815D01*
X49962126Y-47022011D01*
X49952182Y-46952853D01*
X49955145Y-46938406D01*
X49970957Y-46879395D01*
X49970958Y-46879388D01*
X49991027Y-46650002D01*
X49991027Y-46649997D01*
X49970958Y-46420611D01*
X49970957Y-46420604D01*
X49911357Y-46198178D01*
X49817681Y-45997291D01*
X49178000Y-46636972D01*
X49178000Y-46583120D01*
X49143381Y-46453919D01*
X49076502Y-46338080D01*
X48981920Y-46243498D01*
X48866081Y-46176619D01*
X48736880Y-46142000D01*
X48683026Y-46142000D01*
X49322708Y-45502316D01*
X49301401Y-45492381D01*
X49248962Y-45446208D01*
X49229810Y-45379015D01*
X49250026Y-45312134D01*
X49301402Y-45267617D01*
X49322708Y-45257681D01*
X48683027Y-44618000D01*
X48736880Y-44618000D01*
X48866081Y-44583381D01*
X48981920Y-44516502D01*
X49076502Y-44421920D01*
X49143381Y-44306081D01*
X49178000Y-44176880D01*
X49178000Y-44123026D01*
X49817681Y-44762707D01*
X49911357Y-44561821D01*
X49970957Y-44339395D01*
X49970958Y-44339388D01*
X49991027Y-44110002D01*
X49991027Y-44109997D01*
X49970958Y-43880611D01*
X49970957Y-43880604D01*
X49911357Y-43658178D01*
X49862869Y-43554196D01*
X52495001Y-43554196D01*
X52497851Y-43584606D01*
X52542653Y-43712645D01*
X52623207Y-43821792D01*
X52732354Y-43902346D01*
X52732356Y-43902347D01*
X52794999Y-43924266D01*
X52795000Y-43924266D01*
X52795000Y-43125000D01*
X52495001Y-43125000D01*
X52495001Y-43554196D01*
X49862869Y-43554196D01*
X49817681Y-43457291D01*
X49178000Y-44096972D01*
X49178000Y-44043120D01*
X49143381Y-43913919D01*
X49076502Y-43798080D01*
X48981920Y-43703498D01*
X48866081Y-43636619D01*
X48736880Y-43602000D01*
X48683026Y-43602000D01*
X49322708Y-42962316D01*
X49121824Y-42868643D01*
X49121813Y-42868639D01*
X48899395Y-42809042D01*
X48899388Y-42809041D01*
X48670002Y-42788973D01*
X48669998Y-42788973D01*
X48440611Y-42809041D01*
X48440604Y-42809042D01*
X48218186Y-42868639D01*
X48218175Y-42868643D01*
X48017290Y-42962316D01*
X48656975Y-43602000D01*
X48603120Y-43602000D01*
X48473919Y-43636619D01*
X48358080Y-43703498D01*
X48263498Y-43798080D01*
X48196619Y-43913919D01*
X48162000Y-44043120D01*
X48162000Y-44096974D01*
X47522316Y-43457290D01*
X47516032Y-43458399D01*
X47446593Y-43450655D01*
X47392364Y-43406598D01*
X47370562Y-43340217D01*
X47370500Y-43336283D01*
X47370500Y-42029500D01*
X47390185Y-41962461D01*
X47442989Y-41916706D01*
X47494500Y-41905500D01*
X52379039Y-41905500D01*
X52446078Y-41925185D01*
G37*
%TD.AperFunction*%
%TA.AperFunction,Conductor*%
G36*
X48162000Y-44176880D02*
G01*
X48196619Y-44306081D01*
X48263498Y-44421920D01*
X48358080Y-44516502D01*
X48473919Y-44583381D01*
X48603120Y-44618000D01*
X48656974Y-44618000D01*
X48017291Y-45257682D01*
X48038597Y-45267617D01*
X48091037Y-45313789D01*
X48110189Y-45380982D01*
X48089974Y-45447863D01*
X48038598Y-45492381D01*
X48017290Y-45502316D01*
X48656975Y-46142000D01*
X48603120Y-46142000D01*
X48473919Y-46176619D01*
X48358080Y-46243498D01*
X48263498Y-46338080D01*
X48196619Y-46453919D01*
X48162000Y-46583120D01*
X48162000Y-46636974D01*
X47522316Y-45997290D01*
X47516032Y-45998399D01*
X47446593Y-45990655D01*
X47392364Y-45946598D01*
X47370562Y-45880217D01*
X47370500Y-45876283D01*
X47370500Y-44883715D01*
X47390185Y-44816676D01*
X47442989Y-44770921D01*
X47512147Y-44760977D01*
X47516034Y-44761599D01*
X47522317Y-44762707D01*
X48162000Y-44123024D01*
X48162000Y-44176880D01*
G37*
%TD.AperFunction*%
%TD*%
M02*
