%TF.GenerationSoftware,KiCad,Pcbnew,8.0.5*%
%TF.CreationDate,2024-09-22T23:27:43-04:00*%
%TF.ProjectId,myPowerBoardDesign,6d79506f-7765-4724-926f-617264446573,rev?*%
%TF.SameCoordinates,Original*%
%TF.FileFunction,Soldermask,Top*%
%TF.FilePolarity,Negative*%
%FSLAX46Y46*%
G04 Gerber Fmt 4.6, Leading zero omitted, Abs format (unit mm)*
G04 Created by KiCad (PCBNEW 8.0.5) date 2024-09-22 23:27:43*
%MOMM*%
%LPD*%
G01*
G04 APERTURE LIST*
G04 Aperture macros list*
%AMRoundRect*
0 Rectangle with rounded corners*
0 $1 Rounding radius*
0 $2 $3 $4 $5 $6 $7 $8 $9 X,Y pos of 4 corners*
0 Add a 4 corners polygon primitive as box body*
4,1,4,$2,$3,$4,$5,$6,$7,$8,$9,$2,$3,0*
0 Add four circle primitives for the rounded corners*
1,1,$1+$1,$2,$3*
1,1,$1+$1,$4,$5*
1,1,$1+$1,$6,$7*
1,1,$1+$1,$8,$9*
0 Add four rect primitives between the rounded corners*
20,1,$1+$1,$2,$3,$4,$5,0*
20,1,$1+$1,$4,$5,$6,$7,0*
20,1,$1+$1,$6,$7,$8,$9,0*
20,1,$1+$1,$8,$9,$2,$3,0*%
G04 Aperture macros list end*
%ADD10RoundRect,0.250000X-0.650000X0.412500X-0.650000X-0.412500X0.650000X-0.412500X0.650000X0.412500X0*%
%ADD11RoundRect,0.250000X-1.000000X1.950000X-1.000000X-1.950000X1.000000X-1.950000X1.000000X1.950000X0*%
%ADD12R,10.200000X3.500000*%
%ADD13RoundRect,0.250000X-0.900000X1.000000X-0.900000X-1.000000X0.900000X-1.000000X0.900000X1.000000X0*%
%ADD14RoundRect,0.250000X0.412500X0.650000X-0.412500X0.650000X-0.412500X-0.650000X0.412500X-0.650000X0*%
%ADD15RoundRect,0.250000X0.650000X-0.412500X0.650000X0.412500X-0.650000X0.412500X-0.650000X-0.412500X0*%
%ADD16C,2.032000*%
%ADD17RoundRect,0.375000X-0.375000X0.625000X-0.375000X-0.625000X0.375000X-0.625000X0.375000X0.625000X0*%
%ADD18RoundRect,0.500000X-1.400000X0.500000X-1.400000X-0.500000X1.400000X-0.500000X1.400000X0.500000X0*%
%ADD19RoundRect,0.150000X0.150000X-0.675000X0.150000X0.675000X-0.150000X0.675000X-0.150000X-0.675000X0*%
G04 APERTURE END LIST*
D10*
%TO.C,C5*%
X89500000Y-37937500D03*
X89500000Y-41062500D03*
%TD*%
D11*
%TO.C,C1*%
X56400000Y-48900000D03*
X56400000Y-56300000D03*
%TD*%
D12*
%TO.C,L1*%
X67000000Y-43300000D03*
X67000000Y-36700000D03*
%TD*%
D13*
%TO.C,D1*%
X63977500Y-47872500D03*
X63977500Y-52172500D03*
%TD*%
D14*
%TO.C,C2*%
X66062500Y-56250000D03*
X62937500Y-56250000D03*
%TD*%
D15*
%TO.C,C7*%
X84000000Y-54312500D03*
X84000000Y-51187500D03*
%TD*%
D16*
%TO.C,J1*%
X48670000Y-44110000D03*
X48670000Y-46650000D03*
X48670000Y-49190000D03*
X48670000Y-51730000D03*
X48670000Y-54270000D03*
X90285000Y-54270000D03*
X90285000Y-51730000D03*
X90285000Y-49190000D03*
X90285000Y-46650000D03*
X90285000Y-44110000D03*
%TD*%
D17*
%TO.C,U1*%
X85850000Y-41150000D03*
X83550000Y-41150000D03*
D18*
X83550000Y-47450000D03*
D17*
X81250000Y-41150000D03*
%TD*%
D11*
%TO.C,C6*%
X75000000Y-48600000D03*
X75000000Y-56000000D03*
%TD*%
D19*
%TO.C,U2*%
X53095000Y-42825000D03*
X54365000Y-42825000D03*
X55635000Y-42825000D03*
X56905000Y-42825000D03*
X56905000Y-37575000D03*
X55635000Y-37575000D03*
X54365000Y-37575000D03*
X53095000Y-37575000D03*
%TD*%
G36*
X57343039Y-34219685D02*
G01*
X57388794Y-34272489D01*
X57400000Y-34324000D01*
X57400000Y-37476000D01*
X57380315Y-37543039D01*
X57327511Y-37588794D01*
X57276000Y-37600000D01*
X52000000Y-37600000D01*
X52000000Y-40076000D01*
X51980315Y-40143039D01*
X51927511Y-40188794D01*
X51876000Y-40200000D01*
X46994000Y-40200000D01*
X46926961Y-40180315D01*
X46881206Y-40127511D01*
X46870000Y-40076000D01*
X46870000Y-39150710D01*
X46870007Y-39149358D01*
X46872328Y-38936528D01*
X46872793Y-38927073D01*
X46909943Y-38502450D01*
X46911355Y-38491725D01*
X46985253Y-38072623D01*
X46987594Y-38062061D01*
X47097743Y-37650980D01*
X47100996Y-37640664D01*
X47246549Y-37240759D01*
X47250689Y-37230764D01*
X47430545Y-36845062D01*
X47435540Y-36835467D01*
X47648323Y-36466916D01*
X47654135Y-36457792D01*
X47898237Y-36109179D01*
X47904822Y-36100597D01*
X48178383Y-35774579D01*
X48185692Y-35766604D01*
X48486604Y-35465692D01*
X48494579Y-35458383D01*
X48820597Y-35184822D01*
X48829179Y-35178237D01*
X49177792Y-34934135D01*
X49186916Y-34928323D01*
X49555467Y-34715540D01*
X49565062Y-34710545D01*
X49950764Y-34530689D01*
X49960759Y-34526549D01*
X50360664Y-34380996D01*
X50370980Y-34377743D01*
X50782061Y-34267594D01*
X50792623Y-34265253D01*
X51152013Y-34201884D01*
X51173545Y-34200000D01*
X57276000Y-34200000D01*
X57343039Y-34219685D01*
G37*
M02*
