%TF.GenerationSoftware,KiCad,Pcbnew,7.0.7*%
%TF.CreationDate,2023-08-30T15:56:39-04:00*%
%TF.ProjectId,RailSplitter,5261696c-5370-46c6-9974-7465722e6b69,rev?*%
%TF.SameCoordinates,Original*%
%TF.FileFunction,Copper,L1,Top*%
%TF.FilePolarity,Positive*%
%FSLAX46Y46*%
G04 Gerber Fmt 4.6, Leading zero omitted, Abs format (unit mm)*
G04 Created by KiCad (PCBNEW 7.0.7) date 2023-08-30 15:56:39*
%MOMM*%
%LPD*%
G01*
G04 APERTURE LIST*
G04 Aperture macros list*
%AMRoundRect*
0 Rectangle with rounded corners*
0 $1 Rounding radius*
0 $2 $3 $4 $5 $6 $7 $8 $9 X,Y pos of 4 corners*
0 Add a 4 corners polygon primitive as box body*
4,1,4,$2,$3,$4,$5,$6,$7,$8,$9,$2,$3,0*
0 Add four circle primitives for the rounded corners*
1,1,$1+$1,$2,$3*
1,1,$1+$1,$4,$5*
1,1,$1+$1,$6,$7*
1,1,$1+$1,$8,$9*
0 Add four rect primitives between the rounded corners*
20,1,$1+$1,$2,$3,$4,$5,0*
20,1,$1+$1,$4,$5,$6,$7,0*
20,1,$1+$1,$6,$7,$8,$9,0*
20,1,$1+$1,$8,$9,$2,$3,0*%
G04 Aperture macros list end*
%TA.AperFunction,SMDPad,CuDef*%
%ADD10RoundRect,0.250000X-0.625000X0.400000X-0.625000X-0.400000X0.625000X-0.400000X0.625000X0.400000X0*%
%TD*%
%TA.AperFunction,ComponentPad*%
%ADD11C,2.000000*%
%TD*%
%TA.AperFunction,SMDPad,CuDef*%
%ADD12R,1.560000X0.650000*%
%TD*%
%TA.AperFunction,SMDPad,CuDef*%
%ADD13RoundRect,0.250000X1.950000X1.000000X-1.950000X1.000000X-1.950000X-1.000000X1.950000X-1.000000X0*%
%TD*%
%TA.AperFunction,ComponentPad*%
%ADD14R,3.960000X1.980000*%
%TD*%
%TA.AperFunction,ComponentPad*%
%ADD15O,3.960000X1.980000*%
%TD*%
%TA.AperFunction,SMDPad,CuDef*%
%ADD16RoundRect,0.250000X0.412500X0.650000X-0.412500X0.650000X-0.412500X-0.650000X0.412500X-0.650000X0*%
%TD*%
%TA.AperFunction,SMDPad,CuDef*%
%ADD17RoundRect,0.250001X0.624999X-0.462499X0.624999X0.462499X-0.624999X0.462499X-0.624999X-0.462499X0*%
%TD*%
%TA.AperFunction,SMDPad,CuDef*%
%ADD18RoundRect,0.250000X-2.050000X-0.300000X2.050000X-0.300000X2.050000X0.300000X-2.050000X0.300000X0*%
%TD*%
%TA.AperFunction,SMDPad,CuDef*%
%ADD19RoundRect,0.250000X-2.025000X-2.375000X2.025000X-2.375000X2.025000X2.375000X-2.025000X2.375000X0*%
%TD*%
%TA.AperFunction,SMDPad,CuDef*%
%ADD20RoundRect,0.250002X-4.449998X-5.149998X4.449998X-5.149998X4.449998X5.149998X-4.449998X5.149998X0*%
%TD*%
%TA.AperFunction,SMDPad,CuDef*%
%ADD21RoundRect,0.250000X0.850000X0.350000X-0.850000X0.350000X-0.850000X-0.350000X0.850000X-0.350000X0*%
%TD*%
%TA.AperFunction,SMDPad,CuDef*%
%ADD22RoundRect,0.250000X1.275000X1.125000X-1.275000X1.125000X-1.275000X-1.125000X1.275000X-1.125000X0*%
%TD*%
%TA.AperFunction,SMDPad,CuDef*%
%ADD23RoundRect,0.249997X2.950003X2.650003X-2.950003X2.650003X-2.950003X-2.650003X2.950003X-2.650003X0*%
%TD*%
%TA.AperFunction,SMDPad,CuDef*%
%ADD24RoundRect,0.225000X-0.375000X0.225000X-0.375000X-0.225000X0.375000X-0.225000X0.375000X0.225000X0*%
%TD*%
%TA.AperFunction,SMDPad,CuDef*%
%ADD25RoundRect,0.250000X-0.412500X-0.650000X0.412500X-0.650000X0.412500X0.650000X-0.412500X0.650000X0*%
%TD*%
%TA.AperFunction,ViaPad*%
%ADD26C,0.800000*%
%TD*%
%TA.AperFunction,Conductor*%
%ADD27C,1.397000*%
%TD*%
%TA.AperFunction,Conductor*%
%ADD28C,0.250000*%
%TD*%
G04 APERTURE END LIST*
D10*
%TO.P,R1,1*%
%TO.N,Net-(D1-A)*%
X111000000Y-113000000D03*
%TO.P,R1,2*%
%TO.N,VEE*%
X111000000Y-116100000D03*
%TD*%
%TO.P,R4,1*%
%TO.N,Net-(U1-+)*%
X119500000Y-113150000D03*
%TO.P,R4,2*%
%TO.N,VEE*%
X119500000Y-116250000D03*
%TD*%
D11*
%TO.P,TP4,1,1*%
%TO.N,VEE*%
X154000000Y-122000000D03*
%TD*%
D12*
%TO.P,U1,1,+*%
%TO.N,Net-(U1-+)*%
X124550000Y-117100000D03*
%TO.P,U1,2,V-*%
%TO.N,VEE*%
X124550000Y-118050000D03*
%TO.P,U1,3,-*%
%TO.N,GND*%
X124550000Y-119000000D03*
%TO.P,U1,4*%
%TO.N,Net-(Q2-B)*%
X127250000Y-119000000D03*
%TO.P,U1,5,V+*%
%TO.N,VCC*%
X127250000Y-117100000D03*
%TD*%
D13*
%TO.P,C2,1*%
%TO.N,GND*%
X158400000Y-134500000D03*
%TO.P,C2,2*%
%TO.N,VEE*%
X151000000Y-134500000D03*
%TD*%
D14*
%TO.P,J1,1,Pin_1*%
%TO.N,VEE*%
X101750000Y-126100000D03*
D15*
%TO.P,J1,2,Pin_2*%
%TO.N,/PWRIN*%
X101750000Y-121100000D03*
%TD*%
D16*
%TO.P,C4,1*%
%TO.N,GND*%
X166375000Y-128500000D03*
%TO.P,C4,2*%
%TO.N,VEE*%
X163250000Y-128500000D03*
%TD*%
D11*
%TO.P,TP2,1,1*%
%TO.N,VCC*%
X153750000Y-112000000D03*
%TD*%
D17*
%TO.P,D2,1,K*%
%TO.N,VEE*%
X115250000Y-116125000D03*
%TO.P,D2,2,A*%
%TO.N,Net-(D2-A)*%
X115250000Y-113150000D03*
%TD*%
D14*
%TO.P,J2,1,Pin_1*%
%TO.N,VCC*%
X163240000Y-111955000D03*
D15*
%TO.P,J2,2,Pin_2*%
%TO.N,GND*%
X163240000Y-116955000D03*
%TO.P,J2,3,Pin_3*%
%TO.N,VEE*%
X163240000Y-121955000D03*
%TD*%
D18*
%TO.P,Q2,1,B*%
%TO.N,Net-(Q2-B)*%
X133925000Y-122935000D03*
D19*
%TO.P,Q2,2,C*%
%TO.N,VEE*%
X140650000Y-122700000D03*
X140650000Y-128250000D03*
D20*
X143075000Y-125475000D03*
D19*
X145500000Y-122700000D03*
X145500000Y-128250000D03*
D18*
%TO.P,Q2,3,E*%
%TO.N,GND*%
X133925000Y-128015000D03*
%TD*%
D21*
%TO.P,Q1,1,G*%
%TO.N,Net-(D1-A)*%
X105250000Y-110500000D03*
D22*
%TO.P,Q1,2,D*%
%TO.N,/PWRIN*%
X100625000Y-109745000D03*
X100625000Y-106695000D03*
D23*
X98950000Y-108220000D03*
D22*
X97275000Y-109745000D03*
X97275000Y-106695000D03*
D21*
%TO.P,Q1,3,S*%
%TO.N,VCC*%
X105250000Y-105940000D03*
%TD*%
D11*
%TO.P,TP3,1,1*%
%TO.N,GND*%
X153750000Y-117000000D03*
%TD*%
D10*
%TO.P,R3,1*%
%TO.N,VCC*%
X119500000Y-105900000D03*
%TO.P,R3,2*%
%TO.N,Net-(U1-+)*%
X119500000Y-109000000D03*
%TD*%
D24*
%TO.P,D1,1,K*%
%TO.N,VCC*%
X111000000Y-105850000D03*
%TO.P,D1,2,A*%
%TO.N,Net-(D1-A)*%
X111000000Y-109150000D03*
%TD*%
D11*
%TO.P,TP1,1,1*%
%TO.N,/PWRIN*%
X100000000Y-114750000D03*
%TD*%
D13*
%TO.P,C1,1*%
%TO.N,VCC*%
X158400000Y-100500000D03*
%TO.P,C1,2*%
%TO.N,GND*%
X151000000Y-100500000D03*
%TD*%
D18*
%TO.P,Q3,1,B*%
%TO.N,Net-(Q2-B)*%
X133925000Y-106935000D03*
D19*
%TO.P,Q3,2,C*%
%TO.N,VCC*%
X140650000Y-106700000D03*
X140650000Y-112250000D03*
D20*
X143075000Y-109475000D03*
D19*
X145500000Y-106700000D03*
X145500000Y-112250000D03*
D18*
%TO.P,Q3,3,E*%
%TO.N,GND*%
X133925000Y-112015000D03*
%TD*%
D25*
%TO.P,C3,1*%
%TO.N,VCC*%
X163187500Y-106750000D03*
%TO.P,C3,2*%
%TO.N,GND*%
X166312500Y-106750000D03*
%TD*%
D10*
%TO.P,R2,1*%
%TO.N,VCC*%
X115250000Y-105900000D03*
%TO.P,R2,2*%
%TO.N,Net-(D2-A)*%
X115250000Y-109000000D03*
%TD*%
D26*
%TO.N,GND*%
X130250000Y-103250000D03*
X130500000Y-139250000D03*
X100000000Y-139250000D03*
X128500000Y-121000000D03*
X157750000Y-107000000D03*
X149750000Y-128250000D03*
X127000000Y-106750000D03*
X161250000Y-130750000D03*
X140000000Y-97250000D03*
X165500000Y-139500000D03*
X148500000Y-117000000D03*
X104000000Y-112750000D03*
X125500000Y-112750000D03*
X128750000Y-131250000D03*
X121500000Y-139250000D03*
X96000000Y-114000000D03*
X123250000Y-97250000D03*
X107000000Y-139250000D03*
X163500000Y-96000000D03*
X169250000Y-101500000D03*
X131500000Y-117000000D03*
X137500000Y-103000000D03*
X113000000Y-110750000D03*
X149500000Y-113500000D03*
X141250000Y-139250000D03*
X154750000Y-125750000D03*
X123000000Y-125250000D03*
X153250000Y-139500000D03*
X134750000Y-131750000D03*
X123250000Y-103000000D03*
X169250000Y-106750000D03*
X168500000Y-97500000D03*
X146000000Y-137750000D03*
X96000000Y-103250000D03*
X115000000Y-102750000D03*
X169250000Y-123750000D03*
X99000000Y-96000000D03*
X111500000Y-125500000D03*
X149500000Y-120750000D03*
X140500000Y-131750000D03*
X131500000Y-97250000D03*
X95750000Y-134000000D03*
X117250000Y-110750000D03*
X117250000Y-130250000D03*
X145250000Y-101750000D03*
X146000000Y-133250000D03*
X128750000Y-109000000D03*
X96000000Y-126500000D03*
X118250000Y-118750000D03*
X104000000Y-116750000D03*
X128750000Y-115250000D03*
X150000000Y-107250000D03*
X107500000Y-97250000D03*
X96000000Y-118750000D03*
X106750000Y-132250000D03*
X148500000Y-97250000D03*
X124500000Y-110500000D03*
X107500000Y-102750000D03*
X111500000Y-118750000D03*
X107500000Y-116750000D03*
X121750000Y-110500000D03*
X159000000Y-119500000D03*
X115000000Y-97250000D03*
X96000000Y-99000000D03*
X169250000Y-115000000D03*
X169250000Y-134500000D03*
X122250000Y-115250000D03*
X161250000Y-104000000D03*
X158750000Y-114500000D03*
X109000000Y-110750000D03*
X139250000Y-117000000D03*
%TD*%
D27*
%TO.N,VCC*%
X151500000Y-112000000D02*
X149000000Y-109500000D01*
X124600000Y-105900000D02*
X129250000Y-101250000D01*
X153750000Y-112000000D02*
X151500000Y-112000000D01*
X115250000Y-105900000D02*
X119500000Y-105900000D01*
X161000000Y-107000000D02*
X163187500Y-107000000D01*
X149000000Y-109500000D02*
X143100000Y-109500000D01*
X158400000Y-100500000D02*
X158400000Y-104400000D01*
X163187500Y-107000000D02*
X163187500Y-111902500D01*
X124600000Y-105900000D02*
X124600000Y-108100000D01*
X163187500Y-106750000D02*
X163187500Y-107000000D01*
X119500000Y-105900000D02*
X124600000Y-105900000D01*
X115200000Y-105850000D02*
X115250000Y-105900000D01*
X143100000Y-109500000D02*
X143075000Y-109475000D01*
X111000000Y-105850000D02*
X115200000Y-105850000D01*
X129250000Y-101250000D02*
X140750000Y-101250000D01*
X124600000Y-108100000D02*
X127250000Y-110750000D01*
X153795000Y-111955000D02*
X153750000Y-112000000D01*
X163187500Y-111902500D02*
X163240000Y-111955000D01*
X143075000Y-103575000D02*
X143075000Y-109475000D01*
X127250000Y-110750000D02*
X127250000Y-117100000D01*
X163240000Y-111955000D02*
X153795000Y-111955000D01*
X110910000Y-105940000D02*
X111000000Y-105850000D01*
X158400000Y-104400000D02*
X161000000Y-107000000D01*
X140750000Y-101250000D02*
X143075000Y-103575000D01*
X105250000Y-105940000D02*
X110910000Y-105940000D01*
D28*
%TO.N,VEE*%
X119500000Y-116250000D02*
X119500000Y-117250000D01*
D27*
X119350000Y-116100000D02*
X119500000Y-116250000D01*
X151000000Y-131000000D02*
X151000000Y-134500000D01*
X142000000Y-133500000D02*
X143075000Y-132425000D01*
X154045000Y-121955000D02*
X154000000Y-122000000D01*
X111000000Y-116100000D02*
X110900000Y-116100000D01*
X152250000Y-122000000D02*
X148775000Y-125475000D01*
X111000000Y-116100000D02*
X119350000Y-116100000D01*
X154000000Y-122000000D02*
X152250000Y-122000000D01*
D28*
X120300000Y-118050000D02*
X124550000Y-118050000D01*
D27*
X163240000Y-121955000D02*
X163240000Y-128490000D01*
D28*
X119500000Y-117250000D02*
X120300000Y-118050000D01*
D27*
X163240000Y-128490000D02*
X163250000Y-128500000D01*
X163240000Y-121955000D02*
X154045000Y-121955000D01*
X148775000Y-125475000D02*
X143075000Y-125475000D01*
X153500000Y-128500000D02*
X151000000Y-131000000D01*
X116250000Y-133500000D02*
X142000000Y-133500000D01*
X163250000Y-128500000D02*
X153500000Y-128500000D01*
X109000000Y-125950000D02*
X108850000Y-126100000D01*
X143075000Y-132425000D02*
X143075000Y-125475000D01*
X101750000Y-126100000D02*
X108850000Y-126100000D01*
X109000000Y-118000000D02*
X109000000Y-125950000D01*
X108850000Y-126100000D02*
X116250000Y-133500000D01*
X110900000Y-116100000D02*
X109000000Y-118000000D01*
D28*
%TO.N,Net-(D1-A)*%
X105250000Y-110500000D02*
X106750000Y-109000000D01*
X110850000Y-109000000D02*
X111000000Y-109150000D01*
X106750000Y-109000000D02*
X110850000Y-109000000D01*
X111000000Y-109150000D02*
X111000000Y-113000000D01*
%TO.N,Net-(D2-A)*%
X115250000Y-109000000D02*
X115250000Y-113150000D01*
D27*
%TO.N,/PWRIN*%
X100000000Y-116750000D02*
X101750000Y-118500000D01*
X101750000Y-118500000D02*
X101750000Y-121100000D01*
X100000000Y-114750000D02*
X100000000Y-114000000D01*
X100000000Y-114750000D02*
X100000000Y-116750000D01*
X100000000Y-114000000D02*
X98950000Y-112950000D01*
X98950000Y-112950000D02*
X98950000Y-108220000D01*
D28*
%TO.N,Net-(Q2-B)*%
X131185000Y-122935000D02*
X133925000Y-122935000D01*
X133925000Y-106935000D02*
X130815000Y-106935000D01*
X130815000Y-106935000D02*
X130000000Y-107750000D01*
X127250000Y-119000000D02*
X130000000Y-119000000D01*
X130000000Y-121750000D02*
X131185000Y-122935000D01*
X130000000Y-107750000D02*
X130000000Y-119000000D01*
X130000000Y-119000000D02*
X130000000Y-121750000D01*
%TO.N,Net-(U1-+)*%
X119500000Y-113150000D02*
X123150000Y-113150000D01*
X119500000Y-109000000D02*
X119500000Y-113150000D01*
X124550000Y-114550000D02*
X124550000Y-117100000D01*
X123150000Y-113150000D02*
X124550000Y-114550000D01*
%TD*%
%TA.AperFunction,Conductor*%
%TO.N,GND*%
G36*
X165217318Y-95009488D02*
G01*
X165415934Y-95018160D01*
X165420865Y-95018574D01*
X165636792Y-95045489D01*
X165832940Y-95071313D01*
X165837265Y-95071883D01*
X165841894Y-95072671D01*
X166054183Y-95117183D01*
X166252534Y-95161157D01*
X166256778Y-95162257D01*
X166464544Y-95224112D01*
X166658658Y-95285317D01*
X166662530Y-95286680D01*
X166864457Y-95365472D01*
X167052817Y-95443494D01*
X167056252Y-95445045D01*
X167131343Y-95481755D01*
X167250992Y-95540249D01*
X167388629Y-95611897D01*
X167432009Y-95634479D01*
X167435107Y-95636207D01*
X167621382Y-95747202D01*
X167793662Y-95856957D01*
X167796377Y-95858789D01*
X167972918Y-95984837D01*
X168135098Y-96109282D01*
X168137426Y-96111159D01*
X168303055Y-96251439D01*
X168454895Y-96390574D01*
X168609424Y-96545103D01*
X168748555Y-96696938D01*
X168763008Y-96714003D01*
X168888839Y-96862572D01*
X168890716Y-96864900D01*
X169015162Y-97027081D01*
X169141209Y-97203621D01*
X169143040Y-97206335D01*
X169252797Y-97378617D01*
X169363791Y-97564891D01*
X169365525Y-97568000D01*
X169459750Y-97749007D01*
X169525992Y-97884503D01*
X169554953Y-97943744D01*
X169556524Y-97947229D01*
X169634536Y-98135566D01*
X169713309Y-98337445D01*
X169714681Y-98341340D01*
X169775899Y-98535496D01*
X169837735Y-98743200D01*
X169838843Y-98747472D01*
X169882818Y-98945826D01*
X169927326Y-99158101D01*
X169928115Y-99162733D01*
X169954524Y-99363319D01*
X169981422Y-99579114D01*
X169981839Y-99584080D01*
X169990513Y-99782728D01*
X169999500Y-100000000D01*
X169999500Y-135000000D01*
X169990513Y-135217271D01*
X169981839Y-135415918D01*
X169981422Y-135420884D01*
X169954524Y-135636680D01*
X169928115Y-135837265D01*
X169927326Y-135841897D01*
X169882818Y-136054173D01*
X169838843Y-136252526D01*
X169837735Y-136256798D01*
X169775899Y-136464503D01*
X169714681Y-136658658D01*
X169713309Y-136662552D01*
X169634536Y-136864433D01*
X169556524Y-137052769D01*
X169554944Y-137056274D01*
X169459750Y-137250992D01*
X169365525Y-137431998D01*
X169363791Y-137435107D01*
X169252797Y-137621382D01*
X169143040Y-137793663D01*
X169141209Y-137796377D01*
X169015162Y-137972918D01*
X168890716Y-138135099D01*
X168888839Y-138137426D01*
X168748557Y-138303059D01*
X168609426Y-138454895D01*
X168454895Y-138609426D01*
X168303059Y-138748557D01*
X168137426Y-138888839D01*
X168135099Y-138890716D01*
X167972918Y-139015162D01*
X167796377Y-139141209D01*
X167793663Y-139143040D01*
X167621382Y-139252797D01*
X167435107Y-139363791D01*
X167431998Y-139365525D01*
X167250992Y-139459750D01*
X167056274Y-139554944D01*
X167052769Y-139556524D01*
X166864433Y-139634536D01*
X166662552Y-139713309D01*
X166658658Y-139714681D01*
X166464503Y-139775899D01*
X166256798Y-139837735D01*
X166252526Y-139838843D01*
X166054173Y-139882818D01*
X165841897Y-139927326D01*
X165837265Y-139928115D01*
X165636680Y-139954524D01*
X165420884Y-139981422D01*
X165415918Y-139981839D01*
X165217271Y-139990513D01*
X165000000Y-139999500D01*
X100000000Y-139999500D01*
X99782728Y-139990513D01*
X99584080Y-139981839D01*
X99579114Y-139981422D01*
X99363319Y-139954524D01*
X99162733Y-139928115D01*
X99158101Y-139927326D01*
X98945826Y-139882818D01*
X98747472Y-139838843D01*
X98743200Y-139837735D01*
X98535496Y-139775899D01*
X98341340Y-139714681D01*
X98337445Y-139713309D01*
X98135566Y-139634536D01*
X97947229Y-139556524D01*
X97943744Y-139554953D01*
X97884503Y-139525992D01*
X97749007Y-139459750D01*
X97568000Y-139365525D01*
X97564891Y-139363791D01*
X97378617Y-139252797D01*
X97206335Y-139143040D01*
X97203621Y-139141209D01*
X97027081Y-139015162D01*
X96864900Y-138890716D01*
X96862572Y-138888839D01*
X96696940Y-138748557D01*
X96545103Y-138609424D01*
X96390574Y-138454895D01*
X96251439Y-138303055D01*
X96111159Y-138137426D01*
X96109282Y-138135098D01*
X95984837Y-137972918D01*
X95858789Y-137796377D01*
X95856957Y-137793662D01*
X95747202Y-137621382D01*
X95636207Y-137435107D01*
X95634473Y-137431998D01*
X95540249Y-137250992D01*
X95481755Y-137131343D01*
X95445045Y-137056252D01*
X95443494Y-137052817D01*
X95365463Y-136864433D01*
X95286680Y-136662530D01*
X95285317Y-136658658D01*
X95224100Y-136464503D01*
X95213246Y-136428044D01*
X95162257Y-136256778D01*
X95161155Y-136252526D01*
X95160126Y-136247886D01*
X95117175Y-136054145D01*
X95111495Y-136027057D01*
X95072671Y-135841894D01*
X95071883Y-135837265D01*
X95057194Y-135725690D01*
X95045489Y-135636791D01*
X95018574Y-135420865D01*
X95018160Y-135415934D01*
X95009486Y-135217271D01*
X95003303Y-135067763D01*
X98145787Y-135067763D01*
X98175413Y-135337013D01*
X98175415Y-135337024D01*
X98231237Y-135550545D01*
X98243928Y-135599088D01*
X98349870Y-135848390D01*
X98421998Y-135966575D01*
X98490979Y-136079605D01*
X98490986Y-136079615D01*
X98664253Y-136287819D01*
X98664259Y-136287824D01*
X98865998Y-136468582D01*
X99091910Y-136618044D01*
X99337176Y-136733020D01*
X99337183Y-136733022D01*
X99337185Y-136733023D01*
X99596557Y-136811057D01*
X99596564Y-136811058D01*
X99596569Y-136811060D01*
X99864561Y-136850500D01*
X99864566Y-136850500D01*
X100067636Y-136850500D01*
X100119133Y-136846730D01*
X100270156Y-136835677D01*
X100382758Y-136810593D01*
X100534546Y-136776782D01*
X100534548Y-136776781D01*
X100534553Y-136776780D01*
X100787558Y-136680014D01*
X101023777Y-136547441D01*
X101238177Y-136381888D01*
X101426186Y-136186881D01*
X101583799Y-135966579D01*
X101659613Y-135819119D01*
X101707649Y-135725690D01*
X101707651Y-135725684D01*
X101707656Y-135725675D01*
X101795118Y-135469305D01*
X101844319Y-135202933D01*
X101854212Y-134932235D01*
X101824586Y-134662982D01*
X101756072Y-134400912D01*
X101650130Y-134151610D01*
X101509018Y-133920390D01*
X101419747Y-133813119D01*
X101335746Y-133712180D01*
X101335740Y-133712175D01*
X101134002Y-133531418D01*
X100908092Y-133381957D01*
X100830480Y-133345574D01*
X100662824Y-133266980D01*
X100662819Y-133266978D01*
X100662814Y-133266976D01*
X100403442Y-133188942D01*
X100403428Y-133188939D01*
X100287791Y-133171921D01*
X100135439Y-133149500D01*
X99932369Y-133149500D01*
X99932364Y-133149500D01*
X99729844Y-133164323D01*
X99729831Y-133164325D01*
X99465453Y-133223217D01*
X99465446Y-133223220D01*
X99212439Y-133319987D01*
X98976226Y-133452557D01*
X98761822Y-133618112D01*
X98573822Y-133813109D01*
X98573816Y-133813116D01*
X98416202Y-134033419D01*
X98416199Y-134033424D01*
X98292350Y-134274309D01*
X98292343Y-134274327D01*
X98204884Y-134530685D01*
X98204881Y-134530699D01*
X98155681Y-134797068D01*
X98155680Y-134797075D01*
X98145787Y-135067763D01*
X95003303Y-135067763D01*
X95000500Y-135000000D01*
X95000500Y-134999500D01*
X95000500Y-127138654D01*
X99261500Y-127138654D01*
X99268011Y-127199202D01*
X99268011Y-127199204D01*
X99317874Y-127332887D01*
X99319111Y-127336204D01*
X99406739Y-127453261D01*
X99523796Y-127540889D01*
X99626913Y-127579350D01*
X99648385Y-127587359D01*
X99660799Y-127591989D01*
X99688050Y-127594918D01*
X99721345Y-127598499D01*
X99721362Y-127598500D01*
X103778638Y-127598500D01*
X103778654Y-127598499D01*
X103805692Y-127595591D01*
X103839201Y-127591989D01*
X103976204Y-127540889D01*
X104093261Y-127453261D01*
X104165554Y-127356688D01*
X104221488Y-127314818D01*
X104264821Y-127307000D01*
X108298683Y-127307000D01*
X108365722Y-127326685D01*
X108386364Y-127343319D01*
X115346124Y-134303080D01*
X115350761Y-134308268D01*
X115374060Y-134337484D01*
X115423698Y-134380852D01*
X115426731Y-134383687D01*
X115434855Y-134391811D01*
X115434859Y-134391815D01*
X115434863Y-134391818D01*
X115466069Y-134417870D01*
X115537675Y-134480431D01*
X115541006Y-134482421D01*
X115556874Y-134493680D01*
X115559853Y-134496167D01*
X115559856Y-134496169D01*
X115559858Y-134496170D01*
X115620704Y-134530695D01*
X115642547Y-134543089D01*
X115724185Y-134591865D01*
X115727818Y-134593228D01*
X115745437Y-134601471D01*
X115748816Y-134603388D01*
X115838018Y-134634600D01*
X115838564Y-134634791D01*
X115927596Y-134668206D01*
X115931416Y-134668899D01*
X115950230Y-134673865D01*
X115953889Y-134675146D01*
X116047795Y-134690019D01*
X116047796Y-134690019D01*
X116141365Y-134707000D01*
X116141368Y-134707000D01*
X116145254Y-134707000D01*
X116164640Y-134708525D01*
X116168478Y-134709133D01*
X116263515Y-134707000D01*
X141928730Y-134707000D01*
X141935670Y-134707389D01*
X141972808Y-134711574D01*
X141972810Y-134711573D01*
X141972811Y-134711574D01*
X141989954Y-134710417D01*
X142038581Y-134707139D01*
X142042737Y-134707000D01*
X142054206Y-134707000D01*
X142054211Y-134707000D01*
X142094703Y-134703355D01*
X142189580Y-134696959D01*
X142193336Y-134696012D01*
X142212524Y-134692751D01*
X142216389Y-134692404D01*
X142308057Y-134667104D01*
X142400258Y-134643872D01*
X142403782Y-134642270D01*
X142422083Y-134635634D01*
X142425824Y-134634603D01*
X142511521Y-134593333D01*
X142598072Y-134554020D01*
X142601255Y-134551814D01*
X142618070Y-134542022D01*
X142621572Y-134540336D01*
X142698525Y-134484425D01*
X142776663Y-134430292D01*
X142779396Y-134427557D01*
X142794214Y-134414903D01*
X142797342Y-134412631D01*
X142863068Y-134343886D01*
X143878091Y-133328863D01*
X143883260Y-133324243D01*
X143912484Y-133300940D01*
X143955850Y-133251302D01*
X143958683Y-133248271D01*
X143966811Y-133240145D01*
X143992870Y-133208930D01*
X144055431Y-133137325D01*
X144057414Y-133134005D01*
X144068681Y-133118124D01*
X144071167Y-133115147D01*
X144118092Y-133032446D01*
X144166865Y-132950815D01*
X144168224Y-132947191D01*
X144176479Y-132929547D01*
X144178389Y-132926182D01*
X144209803Y-132836404D01*
X144243206Y-132747404D01*
X144243898Y-132743592D01*
X144248867Y-132724769D01*
X144249012Y-132724354D01*
X144250147Y-132721111D01*
X144265026Y-132627162D01*
X144282000Y-132533634D01*
X144282000Y-132529751D01*
X144283527Y-132510354D01*
X144283594Y-132509926D01*
X144284134Y-132506521D01*
X144282000Y-132411439D01*
X144282000Y-131507500D01*
X144301685Y-131440461D01*
X144354489Y-131394706D01*
X144406000Y-131383500D01*
X147575540Y-131383500D01*
X147575544Y-131383500D01*
X147669796Y-131373870D01*
X147679426Y-131372887D01*
X147847738Y-131317115D01*
X147998652Y-131224030D01*
X148124030Y-131098652D01*
X148217115Y-130947738D01*
X148272887Y-130779426D01*
X148283500Y-130675545D01*
X148283500Y-128310420D01*
X148283500Y-126805999D01*
X148303185Y-126738961D01*
X148355989Y-126693206D01*
X148407500Y-126682000D01*
X148703730Y-126682000D01*
X148710670Y-126682389D01*
X148747808Y-126686574D01*
X148747810Y-126686573D01*
X148747811Y-126686574D01*
X148764954Y-126685417D01*
X148813581Y-126682139D01*
X148817737Y-126682000D01*
X148829206Y-126682000D01*
X148829211Y-126682000D01*
X148869703Y-126678355D01*
X148964580Y-126671959D01*
X148968336Y-126671012D01*
X148987524Y-126667751D01*
X148991389Y-126667404D01*
X149083057Y-126642104D01*
X149175258Y-126618872D01*
X149178782Y-126617270D01*
X149197083Y-126610634D01*
X149200824Y-126609603D01*
X149286521Y-126568333D01*
X149373072Y-126529020D01*
X149376255Y-126526814D01*
X149393070Y-126517022D01*
X149396572Y-126515336D01*
X149473525Y-126459425D01*
X149551663Y-126405292D01*
X149554396Y-126402557D01*
X149569214Y-126389903D01*
X149572342Y-126387631D01*
X149638069Y-126318885D01*
X152713636Y-123243319D01*
X152774960Y-123209834D01*
X152801318Y-123207000D01*
X153047585Y-123207000D01*
X153112373Y-123225272D01*
X153288980Y-123333498D01*
X153313037Y-123348240D01*
X153313040Y-123348242D01*
X153532403Y-123439104D01*
X153532404Y-123439104D01*
X153532406Y-123439105D01*
X153763289Y-123494535D01*
X154000000Y-123513165D01*
X154236711Y-123494535D01*
X154467594Y-123439105D01*
X154467596Y-123439104D01*
X154467597Y-123439104D01*
X154686959Y-123348242D01*
X154686960Y-123348241D01*
X154686963Y-123348240D01*
X154889416Y-123224176D01*
X154927429Y-123191709D01*
X154991189Y-123163139D01*
X155007960Y-123162000D01*
X161320786Y-123162000D01*
X161387825Y-123181685D01*
X161388572Y-123182167D01*
X161534348Y-123277408D01*
X161761770Y-123377165D01*
X161939440Y-123422156D01*
X161999595Y-123457695D01*
X162030988Y-123520115D01*
X162033000Y-123542362D01*
X162033000Y-127169000D01*
X162013315Y-127236039D01*
X161960511Y-127281794D01*
X161909000Y-127293000D01*
X153571271Y-127293000D01*
X153564330Y-127292610D01*
X153540254Y-127289897D01*
X153527195Y-127288426D01*
X153527189Y-127288425D01*
X153483446Y-127291375D01*
X153461417Y-127292860D01*
X153457264Y-127293000D01*
X153445783Y-127293000D01*
X153405293Y-127296644D01*
X153310424Y-127303040D01*
X153310417Y-127303041D01*
X153306638Y-127303993D01*
X153287485Y-127307247D01*
X153283613Y-127307595D01*
X153283609Y-127307596D01*
X153191967Y-127332887D01*
X153099749Y-127356124D01*
X153099729Y-127356131D01*
X153096190Y-127357739D01*
X153077930Y-127364360D01*
X153074183Y-127365394D01*
X153074176Y-127365397D01*
X152988514Y-127406649D01*
X152901926Y-127445979D01*
X152898725Y-127448197D01*
X152881934Y-127457975D01*
X152878428Y-127459663D01*
X152878426Y-127459665D01*
X152801487Y-127515565D01*
X152723340Y-127569704D01*
X152723332Y-127569711D01*
X152720580Y-127572463D01*
X152705809Y-127585078D01*
X152702669Y-127587359D01*
X152702657Y-127587369D01*
X152636930Y-127656114D01*
X150196918Y-130096125D01*
X150191731Y-130100760D01*
X150162517Y-130124058D01*
X150162514Y-130124061D01*
X150119152Y-130173690D01*
X150116310Y-130176730D01*
X150108192Y-130184850D01*
X150082129Y-130216069D01*
X150019568Y-130287674D01*
X150019566Y-130287677D01*
X150017569Y-130291020D01*
X150006328Y-130306862D01*
X150003842Y-130309839D01*
X150003836Y-130309848D01*
X149956907Y-130392553D01*
X149908132Y-130474189D01*
X149906768Y-130477825D01*
X149898529Y-130495438D01*
X149896608Y-130498822D01*
X149896607Y-130498824D01*
X149865202Y-130588577D01*
X149831792Y-130677600D01*
X149831791Y-130677607D01*
X149831095Y-130681438D01*
X149826143Y-130700201D01*
X149824855Y-130703883D01*
X149809977Y-130797815D01*
X149793000Y-130891363D01*
X149792999Y-130891375D01*
X149792999Y-130895260D01*
X149791475Y-130914626D01*
X149790866Y-130918473D01*
X149790865Y-130918478D01*
X149793000Y-131013558D01*
X149793000Y-132617500D01*
X149773315Y-132684539D01*
X149720511Y-132730294D01*
X149669000Y-132741500D01*
X148999462Y-132741500D01*
X148999446Y-132741501D01*
X148895572Y-132752113D01*
X148727264Y-132807884D01*
X148727259Y-132807886D01*
X148576346Y-132900971D01*
X148450971Y-133026346D01*
X148357886Y-133177259D01*
X148357884Y-133177264D01*
X148302113Y-133345572D01*
X148291500Y-133449447D01*
X148291500Y-135550537D01*
X148291501Y-135550553D01*
X148300300Y-135636680D01*
X148302113Y-135654426D01*
X148357885Y-135822738D01*
X148450970Y-135973652D01*
X148576348Y-136099030D01*
X148727262Y-136192115D01*
X148895574Y-136247887D01*
X148999455Y-136258500D01*
X153000544Y-136258499D01*
X153104426Y-136247887D01*
X153272738Y-136192115D01*
X153423652Y-136099030D01*
X153549030Y-135973652D01*
X153642115Y-135822738D01*
X153697887Y-135654426D01*
X153708500Y-135550545D01*
X153708499Y-134750000D01*
X155700001Y-134750000D01*
X155700001Y-135549986D01*
X155710494Y-135652697D01*
X155765641Y-135819119D01*
X155765643Y-135819124D01*
X155857684Y-135968345D01*
X155981654Y-136092315D01*
X156130875Y-136184356D01*
X156130880Y-136184358D01*
X156297302Y-136239505D01*
X156297309Y-136239506D01*
X156400019Y-136249999D01*
X158149999Y-136249999D01*
X158150000Y-136249998D01*
X158150000Y-134750000D01*
X158650000Y-134750000D01*
X158650000Y-136249999D01*
X160399972Y-136249999D01*
X160399986Y-136249998D01*
X160502697Y-136239505D01*
X160669119Y-136184358D01*
X160669124Y-136184356D01*
X160818345Y-136092315D01*
X160942315Y-135968345D01*
X161034356Y-135819124D01*
X161034358Y-135819119D01*
X161089505Y-135652697D01*
X161089506Y-135652690D01*
X161099999Y-135549986D01*
X161100000Y-135549973D01*
X161100000Y-135067763D01*
X163145787Y-135067763D01*
X163175413Y-135337013D01*
X163175415Y-135337024D01*
X163231237Y-135550545D01*
X163243928Y-135599088D01*
X163349870Y-135848390D01*
X163421998Y-135966575D01*
X163490979Y-136079605D01*
X163490986Y-136079615D01*
X163664253Y-136287819D01*
X163664259Y-136287824D01*
X163865998Y-136468582D01*
X164091910Y-136618044D01*
X164337176Y-136733020D01*
X164337183Y-136733022D01*
X164337185Y-136733023D01*
X164596557Y-136811057D01*
X164596564Y-136811058D01*
X164596569Y-136811060D01*
X164864561Y-136850500D01*
X164864566Y-136850500D01*
X165067636Y-136850500D01*
X165119133Y-136846730D01*
X165270156Y-136835677D01*
X165382758Y-136810593D01*
X165534546Y-136776782D01*
X165534548Y-136776781D01*
X165534553Y-136776780D01*
X165787558Y-136680014D01*
X166023777Y-136547441D01*
X166238177Y-136381888D01*
X166426186Y-136186881D01*
X166583799Y-135966579D01*
X166659613Y-135819119D01*
X166707649Y-135725690D01*
X166707651Y-135725684D01*
X166707656Y-135725675D01*
X166795118Y-135469305D01*
X166844319Y-135202933D01*
X166854212Y-134932235D01*
X166824586Y-134662982D01*
X166756072Y-134400912D01*
X166650130Y-134151610D01*
X166509018Y-133920390D01*
X166419747Y-133813119D01*
X166335746Y-133712180D01*
X166335740Y-133712175D01*
X166134002Y-133531418D01*
X165908092Y-133381957D01*
X165830480Y-133345574D01*
X165662824Y-133266980D01*
X165662819Y-133266978D01*
X165662814Y-133266976D01*
X165403442Y-133188942D01*
X165403428Y-133188939D01*
X165287791Y-133171921D01*
X165135439Y-133149500D01*
X164932369Y-133149500D01*
X164932364Y-133149500D01*
X164729844Y-133164323D01*
X164729831Y-133164325D01*
X164465453Y-133223217D01*
X164465446Y-133223220D01*
X164212439Y-133319987D01*
X163976226Y-133452557D01*
X163761822Y-133618112D01*
X163573822Y-133813109D01*
X163573816Y-133813116D01*
X163416202Y-134033419D01*
X163416199Y-134033424D01*
X163292350Y-134274309D01*
X163292343Y-134274327D01*
X163204884Y-134530685D01*
X163204881Y-134530699D01*
X163155681Y-134797068D01*
X163155680Y-134797075D01*
X163145787Y-135067763D01*
X161100000Y-135067763D01*
X161100000Y-134750000D01*
X158650000Y-134750000D01*
X158150000Y-134750000D01*
X155700001Y-134750000D01*
X153708499Y-134750000D01*
X153708499Y-134250000D01*
X155700000Y-134250000D01*
X158150000Y-134250000D01*
X158150000Y-134249999D01*
X158649999Y-134249999D01*
X158650000Y-134250000D01*
X161099998Y-134250000D01*
X161099999Y-133450028D01*
X161099998Y-133450013D01*
X161089505Y-133347302D01*
X161034358Y-133180880D01*
X161034356Y-133180875D01*
X160942315Y-133031654D01*
X160818345Y-132907684D01*
X160669124Y-132815643D01*
X160669119Y-132815641D01*
X160502697Y-132760494D01*
X160502690Y-132760493D01*
X160399986Y-132750000D01*
X158650000Y-132750000D01*
X158649999Y-134249999D01*
X158150000Y-134249999D01*
X158150000Y-132750000D01*
X156400028Y-132750000D01*
X156400012Y-132750001D01*
X156297302Y-132760494D01*
X156130880Y-132815641D01*
X156130875Y-132815643D01*
X155981654Y-132907684D01*
X155857684Y-133031654D01*
X155765643Y-133180875D01*
X155765641Y-133180880D01*
X155710494Y-133347302D01*
X155710493Y-133347309D01*
X155700000Y-133450013D01*
X155700000Y-134250000D01*
X153708499Y-134250000D01*
X153708499Y-133449456D01*
X153697887Y-133345574D01*
X153642115Y-133177262D01*
X153549030Y-133026348D01*
X153423652Y-132900970D01*
X153285316Y-132815643D01*
X153272740Y-132807886D01*
X153272735Y-132807884D01*
X153104427Y-132752113D01*
X153000552Y-132741500D01*
X153000545Y-132741500D01*
X152331000Y-132741500D01*
X152263961Y-132721815D01*
X152218206Y-132669011D01*
X152207000Y-132617500D01*
X152207000Y-131551317D01*
X152226685Y-131484278D01*
X152243319Y-131463636D01*
X153963637Y-129743319D01*
X154024960Y-129709834D01*
X154051318Y-129707000D01*
X162270456Y-129707000D01*
X162337495Y-129726685D01*
X162358137Y-129743319D01*
X162363848Y-129749030D01*
X162514762Y-129842115D01*
X162683074Y-129897887D01*
X162786955Y-129908500D01*
X163713044Y-129908499D01*
X163816926Y-129897887D01*
X163985238Y-129842115D01*
X164136152Y-129749030D01*
X164261530Y-129623652D01*
X164354615Y-129472738D01*
X164410387Y-129304426D01*
X164421000Y-129200545D01*
X164420999Y-128815415D01*
X164426239Y-128779751D01*
X164435173Y-128750000D01*
X165212501Y-128750000D01*
X165212501Y-129199986D01*
X165222994Y-129302697D01*
X165278141Y-129469119D01*
X165278143Y-129469124D01*
X165370184Y-129618345D01*
X165494154Y-129742315D01*
X165643375Y-129834356D01*
X165643380Y-129834358D01*
X165809802Y-129889505D01*
X165809809Y-129889506D01*
X165912519Y-129899999D01*
X166124999Y-129899999D01*
X166125000Y-129899998D01*
X166125000Y-128750000D01*
X166625000Y-128750000D01*
X166625000Y-129899999D01*
X166837472Y-129899999D01*
X166837486Y-129899998D01*
X166940197Y-129889505D01*
X167106619Y-129834358D01*
X167106624Y-129834356D01*
X167255845Y-129742315D01*
X167379815Y-129618345D01*
X167471856Y-129469124D01*
X167471858Y-129469119D01*
X167527005Y-129302697D01*
X167527006Y-129302690D01*
X167537499Y-129199986D01*
X167537500Y-129199973D01*
X167537500Y-128750000D01*
X166625000Y-128750000D01*
X166125000Y-128750000D01*
X165212501Y-128750000D01*
X164435173Y-128750000D01*
X164437246Y-128743096D01*
X164437247Y-128743093D01*
X164437246Y-128743093D01*
X164437248Y-128743090D01*
X164441432Y-128705947D01*
X164442592Y-128699114D01*
X164450911Y-128662674D01*
X164453869Y-128596799D01*
X164454191Y-128592710D01*
X164461574Y-128527192D01*
X164459059Y-128489904D01*
X164458982Y-128482953D01*
X164460659Y-128445629D01*
X164451810Y-128380309D01*
X164451392Y-128376184D01*
X164447139Y-128313095D01*
X164447000Y-128308943D01*
X164447000Y-128250000D01*
X165212500Y-128250000D01*
X166125000Y-128250000D01*
X166125000Y-127100000D01*
X166625000Y-127100000D01*
X166625000Y-128250000D01*
X167537499Y-128250000D01*
X167537499Y-127800028D01*
X167537498Y-127800013D01*
X167527005Y-127697302D01*
X167471858Y-127530880D01*
X167471856Y-127530875D01*
X167379815Y-127381654D01*
X167255845Y-127257684D01*
X167106624Y-127165643D01*
X167106619Y-127165641D01*
X166940197Y-127110494D01*
X166940190Y-127110493D01*
X166837486Y-127100000D01*
X166625000Y-127100000D01*
X166125000Y-127100000D01*
X165912529Y-127100000D01*
X165912512Y-127100001D01*
X165809802Y-127110494D01*
X165643380Y-127165641D01*
X165643375Y-127165643D01*
X165494154Y-127257684D01*
X165370184Y-127381654D01*
X165278143Y-127530875D01*
X165278141Y-127530880D01*
X165222994Y-127697302D01*
X165222993Y-127697309D01*
X165212500Y-127800013D01*
X165212500Y-128250000D01*
X164447000Y-128250000D01*
X164447000Y-123542362D01*
X164466685Y-123475323D01*
X164519489Y-123429568D01*
X164540556Y-123422157D01*
X164718230Y-123377165D01*
X164945652Y-123277408D01*
X165153552Y-123141580D01*
X165336261Y-122973385D01*
X165488794Y-122777411D01*
X165606990Y-122559004D01*
X165687625Y-122324121D01*
X165728500Y-122079169D01*
X165728500Y-121830831D01*
X165687625Y-121585879D01*
X165636251Y-121436232D01*
X165606991Y-121350999D01*
X165606989Y-121350994D01*
X165488794Y-121132589D01*
X165488790Y-121132584D01*
X165336266Y-120936621D01*
X165336263Y-120936618D01*
X165336261Y-120936615D01*
X165153552Y-120768420D01*
X164945652Y-120632592D01*
X164945649Y-120632590D01*
X164945648Y-120632590D01*
X164718230Y-120532835D01*
X164477486Y-120471871D01*
X164328829Y-120459553D01*
X164291981Y-120456500D01*
X162188019Y-120456500D01*
X162154499Y-120459277D01*
X162002513Y-120471871D01*
X161761769Y-120532835D01*
X161534351Y-120632590D01*
X161388608Y-120727809D01*
X161321718Y-120747996D01*
X161320786Y-120748000D01*
X154878983Y-120748000D01*
X154814193Y-120729727D01*
X154686962Y-120651759D01*
X154686959Y-120651757D01*
X154467596Y-120560895D01*
X154236714Y-120505465D01*
X154000000Y-120486835D01*
X153763285Y-120505465D01*
X153532404Y-120560895D01*
X153532402Y-120560895D01*
X153313040Y-120651757D01*
X153313037Y-120651759D01*
X153188937Y-120727809D01*
X153112373Y-120774727D01*
X153047585Y-120793000D01*
X152321270Y-120793000D01*
X152314329Y-120792610D01*
X152290253Y-120789897D01*
X152277194Y-120788426D01*
X152277188Y-120788425D01*
X152231894Y-120791480D01*
X152211418Y-120792860D01*
X152207263Y-120793000D01*
X152195786Y-120793000D01*
X152155295Y-120796644D01*
X152060416Y-120803040D01*
X152056644Y-120803991D01*
X152037485Y-120807247D01*
X152033613Y-120807595D01*
X152033602Y-120807597D01*
X151941942Y-120832895D01*
X151849740Y-120856128D01*
X151846203Y-120857735D01*
X151827925Y-120864362D01*
X151824172Y-120865397D01*
X151738478Y-120906666D01*
X151651922Y-120945982D01*
X151651921Y-120945982D01*
X151648726Y-120948196D01*
X151631951Y-120957966D01*
X151628432Y-120959661D01*
X151628425Y-120959665D01*
X151551484Y-121015566D01*
X151473339Y-121069704D01*
X151473331Y-121069711D01*
X151470577Y-121072465D01*
X151455808Y-121085079D01*
X151452666Y-121087361D01*
X151452657Y-121087369D01*
X151386951Y-121156092D01*
X148495181Y-124047862D01*
X148433858Y-124081347D01*
X148364166Y-124076363D01*
X148308233Y-124034491D01*
X148283816Y-123969027D01*
X148283500Y-123960181D01*
X148283500Y-120274461D01*
X148283499Y-120274448D01*
X148273208Y-120173717D01*
X148273122Y-120172035D01*
X148272889Y-120170594D01*
X148272887Y-120170575D01*
X148272887Y-120170574D01*
X148217115Y-120002262D01*
X148124030Y-119851348D01*
X147998652Y-119725970D01*
X147904898Y-119668142D01*
X147847740Y-119632886D01*
X147847735Y-119632884D01*
X147679427Y-119577113D01*
X147575552Y-119566500D01*
X147575545Y-119566500D01*
X147575544Y-119566500D01*
X138574456Y-119566500D01*
X138574446Y-119566500D01*
X138501953Y-119573906D01*
X138480203Y-119576129D01*
X138476918Y-119576464D01*
X138470578Y-119577112D01*
X138470567Y-119577115D01*
X138302266Y-119632883D01*
X138302259Y-119632886D01*
X138151346Y-119725971D01*
X138025971Y-119851346D01*
X137932886Y-120002259D01*
X137932883Y-120002266D01*
X137877114Y-120170570D01*
X137876877Y-120172035D01*
X137876792Y-120173717D01*
X137866500Y-120274448D01*
X137866500Y-130675551D01*
X137876129Y-130769797D01*
X137877112Y-130779425D01*
X137923189Y-130918478D01*
X137932885Y-130947738D01*
X138025970Y-131098652D01*
X138151348Y-131224030D01*
X138302262Y-131317115D01*
X138470574Y-131372887D01*
X138556387Y-131381654D01*
X138563700Y-131383500D01*
X138571294Y-131383500D01*
X138577599Y-131383821D01*
X138600002Y-131386109D01*
X138601995Y-131385150D01*
X138622157Y-131383500D01*
X141744000Y-131383500D01*
X141811039Y-131403185D01*
X141856794Y-131455989D01*
X141868000Y-131507500D01*
X141868000Y-131873681D01*
X141848315Y-131940720D01*
X141831681Y-131961362D01*
X141536363Y-132256681D01*
X141475040Y-132290166D01*
X141448682Y-132293000D01*
X116801318Y-132293000D01*
X116734279Y-132273315D01*
X116713637Y-132256681D01*
X113511461Y-129054505D01*
X112721956Y-128265000D01*
X131125001Y-128265000D01*
X131125001Y-128364986D01*
X131135494Y-128467697D01*
X131190641Y-128634119D01*
X131190643Y-128634124D01*
X131282684Y-128783345D01*
X131406654Y-128907315D01*
X131555875Y-128999356D01*
X131555880Y-128999358D01*
X131722302Y-129054505D01*
X131722309Y-129054506D01*
X131825019Y-129064999D01*
X133674999Y-129064999D01*
X133675000Y-129064998D01*
X133675000Y-128265000D01*
X134175000Y-128265000D01*
X134175000Y-129064999D01*
X136024972Y-129064999D01*
X136024986Y-129064998D01*
X136127697Y-129054505D01*
X136294119Y-128999358D01*
X136294124Y-128999356D01*
X136443345Y-128907315D01*
X136567315Y-128783345D01*
X136659356Y-128634124D01*
X136659358Y-128634119D01*
X136714505Y-128467697D01*
X136714506Y-128467690D01*
X136724999Y-128364986D01*
X136725000Y-128364973D01*
X136725000Y-128265000D01*
X134175000Y-128265000D01*
X133675000Y-128265000D01*
X131125001Y-128265000D01*
X112721956Y-128265000D01*
X112221956Y-127765000D01*
X131125000Y-127765000D01*
X133675000Y-127765000D01*
X133675000Y-126965000D01*
X134175000Y-126965000D01*
X134175000Y-127765000D01*
X136724999Y-127765000D01*
X136724999Y-127665028D01*
X136724998Y-127665013D01*
X136714505Y-127562302D01*
X136659358Y-127395880D01*
X136659356Y-127395875D01*
X136567315Y-127246654D01*
X136443345Y-127122684D01*
X136294124Y-127030643D01*
X136294119Y-127030641D01*
X136127697Y-126975494D01*
X136127690Y-126975493D01*
X136024986Y-126965000D01*
X134175000Y-126965000D01*
X133675000Y-126965000D01*
X131825028Y-126965000D01*
X131825012Y-126965001D01*
X131722302Y-126975494D01*
X131555880Y-127030641D01*
X131555875Y-127030643D01*
X131406654Y-127122684D01*
X131282684Y-127246654D01*
X131190643Y-127395875D01*
X131190641Y-127395880D01*
X131135494Y-127562302D01*
X131135493Y-127562309D01*
X131125000Y-127665013D01*
X131125000Y-127765000D01*
X112221956Y-127765000D01*
X110243316Y-125786360D01*
X110209833Y-125725040D01*
X110207000Y-125698691D01*
X110207000Y-119250000D01*
X123270000Y-119250000D01*
X123270000Y-119372844D01*
X123276401Y-119432372D01*
X123276403Y-119432379D01*
X123326645Y-119567086D01*
X123326649Y-119567093D01*
X123412809Y-119682187D01*
X123412812Y-119682190D01*
X123527906Y-119768350D01*
X123527913Y-119768354D01*
X123662620Y-119818596D01*
X123662627Y-119818598D01*
X123722155Y-119824999D01*
X123722172Y-119825000D01*
X124300000Y-119825000D01*
X124300000Y-119250000D01*
X123270000Y-119250000D01*
X110207000Y-119250000D01*
X110207000Y-118551317D01*
X110226685Y-118484278D01*
X110243319Y-118463636D01*
X111363637Y-117343319D01*
X111424960Y-117309834D01*
X111451318Y-117307000D01*
X114364898Y-117307000D01*
X114403900Y-117313293D01*
X114470575Y-117335387D01*
X114574456Y-117346000D01*
X114574461Y-117346000D01*
X115925539Y-117346000D01*
X115925544Y-117346000D01*
X116029425Y-117335387D01*
X116096099Y-117313293D01*
X116135102Y-117307000D01*
X118460166Y-117307000D01*
X118525262Y-117325461D01*
X118552262Y-117342115D01*
X118720574Y-117397887D01*
X118803415Y-117406350D01*
X118805094Y-117406522D01*
X118869785Y-117432918D01*
X118909937Y-117490099D01*
X118911566Y-117495280D01*
X118913981Y-117503592D01*
X118924372Y-117521162D01*
X118932932Y-117538635D01*
X118940447Y-117557617D01*
X118968209Y-117595827D01*
X118971416Y-117600710D01*
X118995458Y-117641362D01*
X118995462Y-117641366D01*
X119009889Y-117655793D01*
X119022526Y-117670588D01*
X119034528Y-117687107D01*
X119070931Y-117717222D01*
X119075231Y-117721135D01*
X119441415Y-118087319D01*
X119792909Y-118438813D01*
X119802818Y-118451181D01*
X119803028Y-118451008D01*
X119807998Y-118457017D01*
X119859079Y-118504984D01*
X119880224Y-118526130D01*
X119880228Y-118526133D01*
X119880230Y-118526135D01*
X119885813Y-118530466D01*
X119890245Y-118534252D01*
X119908419Y-118551317D01*
X119924680Y-118566587D01*
X119942562Y-118576417D01*
X119958829Y-118587102D01*
X119974960Y-118599615D01*
X119996838Y-118609081D01*
X120018307Y-118618371D01*
X120023533Y-118620931D01*
X120064940Y-118643695D01*
X120084716Y-118648772D01*
X120103124Y-118655075D01*
X120121850Y-118663179D01*
X120121852Y-118663180D01*
X120121853Y-118663180D01*
X120121855Y-118663181D01*
X120162784Y-118669663D01*
X120168503Y-118670569D01*
X120174212Y-118671751D01*
X120219970Y-118683500D01*
X120240384Y-118683500D01*
X120259783Y-118685027D01*
X120279943Y-118688220D01*
X120326965Y-118683775D01*
X120332804Y-118683500D01*
X123152138Y-118683500D01*
X123219177Y-118703185D01*
X123239819Y-118719819D01*
X123270000Y-118750000D01*
X123381149Y-118750000D01*
X123448188Y-118769685D01*
X123455456Y-118774730D01*
X123523796Y-118825889D01*
X123660799Y-118876989D01*
X123688050Y-118879918D01*
X123721345Y-118883499D01*
X123721362Y-118883500D01*
X124676000Y-118883500D01*
X124743039Y-118903185D01*
X124788794Y-118955989D01*
X124800000Y-119007500D01*
X124800000Y-119825000D01*
X125377828Y-119825000D01*
X125377844Y-119824999D01*
X125437372Y-119818598D01*
X125437379Y-119818596D01*
X125572086Y-119768354D01*
X125572093Y-119768350D01*
X125687187Y-119682190D01*
X125687190Y-119682187D01*
X125773350Y-119567093D01*
X125773351Y-119567091D01*
X125779280Y-119551195D01*
X125821150Y-119495260D01*
X125886613Y-119470840D01*
X125954886Y-119485689D01*
X126004294Y-119535093D01*
X126011644Y-119551187D01*
X126019110Y-119571203D01*
X126041140Y-119600632D01*
X126106739Y-119688261D01*
X126223796Y-119775889D01*
X126338297Y-119818596D01*
X126355463Y-119824999D01*
X126360799Y-119826989D01*
X126388050Y-119829918D01*
X126421345Y-119833499D01*
X126421362Y-119833500D01*
X128078638Y-119833500D01*
X128078654Y-119833499D01*
X128105692Y-119830591D01*
X128139201Y-119826989D01*
X128144537Y-119824999D01*
X128161703Y-119818596D01*
X128276204Y-119775889D01*
X128393261Y-119688261D01*
X128397057Y-119683189D01*
X128452990Y-119641318D01*
X128496324Y-119633500D01*
X129242500Y-119633500D01*
X129309539Y-119653185D01*
X129355294Y-119705989D01*
X129366500Y-119757500D01*
X129366500Y-121666366D01*
X129364761Y-121682113D01*
X129365032Y-121682139D01*
X129364298Y-121689905D01*
X129366500Y-121759957D01*
X129366500Y-121789859D01*
X129367384Y-121796856D01*
X129367842Y-121802679D01*
X129369326Y-121849889D01*
X129369327Y-121849891D01*
X129375022Y-121869495D01*
X129378967Y-121888542D01*
X129381526Y-121908797D01*
X129381527Y-121908800D01*
X129381528Y-121908803D01*
X129398914Y-121952716D01*
X129400806Y-121958244D01*
X129413981Y-122003592D01*
X129424372Y-122021162D01*
X129432932Y-122038635D01*
X129440447Y-122057617D01*
X129468209Y-122095827D01*
X129471416Y-122100710D01*
X129495458Y-122141362D01*
X129495462Y-122141366D01*
X129509889Y-122155793D01*
X129522526Y-122170588D01*
X129534528Y-122187107D01*
X129570931Y-122217222D01*
X129575231Y-122221135D01*
X130495674Y-123141579D01*
X130677912Y-123323817D01*
X130687819Y-123336183D01*
X130688029Y-123336010D01*
X130692996Y-123342015D01*
X130744079Y-123389984D01*
X130765224Y-123411130D01*
X130770813Y-123415466D01*
X130775245Y-123419252D01*
X130796387Y-123439104D01*
X130809680Y-123451587D01*
X130827562Y-123461417D01*
X130843829Y-123472102D01*
X130859960Y-123484615D01*
X130881838Y-123494081D01*
X130903307Y-123503371D01*
X130908533Y-123505931D01*
X130949940Y-123528695D01*
X130969716Y-123533772D01*
X130988124Y-123540075D01*
X131006850Y-123548179D01*
X131006852Y-123548180D01*
X131006853Y-123548180D01*
X131006855Y-123548181D01*
X131047784Y-123554663D01*
X131053503Y-123555569D01*
X131059212Y-123556751D01*
X131104970Y-123568500D01*
X131120316Y-123568500D01*
X131187355Y-123588185D01*
X131225854Y-123627403D01*
X131275967Y-123708648D01*
X131275970Y-123708652D01*
X131401348Y-123834030D01*
X131552262Y-123927115D01*
X131720574Y-123982887D01*
X131824455Y-123993500D01*
X136025544Y-123993499D01*
X136129426Y-123982887D01*
X136297738Y-123927115D01*
X136448652Y-123834030D01*
X136574030Y-123708652D01*
X136667115Y-123557738D01*
X136722887Y-123389426D01*
X136733500Y-123285545D01*
X136733499Y-122584456D01*
X136722887Y-122480574D01*
X136667115Y-122312262D01*
X136574030Y-122161348D01*
X136448652Y-122035970D01*
X136297738Y-121942885D01*
X136297735Y-121942884D01*
X136129427Y-121887113D01*
X136025545Y-121876500D01*
X131824462Y-121876500D01*
X131824446Y-121876501D01*
X131720572Y-121887113D01*
X131552264Y-121942884D01*
X131552259Y-121942886D01*
X131401348Y-122035969D01*
X131379291Y-122058027D01*
X131317967Y-122091511D01*
X131248275Y-122086525D01*
X131203930Y-122058025D01*
X130669819Y-121523913D01*
X130636334Y-121462590D01*
X130633500Y-121436232D01*
X130633500Y-119071605D01*
X130635696Y-119048374D01*
X130637275Y-119040094D01*
X130633621Y-118982018D01*
X130633500Y-118978146D01*
X130633500Y-118960144D01*
X130633500Y-117000005D01*
X152244859Y-117000005D01*
X152265385Y-117247729D01*
X152265387Y-117247738D01*
X152326412Y-117488717D01*
X152426266Y-117716364D01*
X152526564Y-117869882D01*
X153141050Y-117255395D01*
X153202373Y-117221910D01*
X153272064Y-117226894D01*
X153327998Y-117268765D01*
X153333039Y-117276025D01*
X153368239Y-117330798D01*
X153455630Y-117406522D01*
X153483602Y-117430759D01*
X153481293Y-117433422D01*
X153516006Y-117473499D01*
X153525935Y-117542660D01*
X153496898Y-117606210D01*
X153490882Y-117612669D01*
X152879942Y-118223609D01*
X152926768Y-118260055D01*
X152926770Y-118260056D01*
X153145385Y-118378364D01*
X153145396Y-118378369D01*
X153380506Y-118459083D01*
X153625707Y-118500000D01*
X153874293Y-118500000D01*
X154119493Y-118459083D01*
X154354603Y-118378369D01*
X154354614Y-118378364D01*
X154573228Y-118260057D01*
X154573231Y-118260055D01*
X154620056Y-118223609D01*
X154009116Y-117612669D01*
X153975631Y-117551346D01*
X153980615Y-117481654D01*
X154017641Y-117432193D01*
X154016398Y-117430759D01*
X154041744Y-117408797D01*
X154131761Y-117330798D01*
X154166954Y-117276037D01*
X154219755Y-117230283D01*
X154288914Y-117220339D01*
X154352470Y-117249363D01*
X154358949Y-117255396D01*
X154973434Y-117869882D01*
X155073731Y-117716369D01*
X155173587Y-117488717D01*
X155234612Y-117247738D01*
X155234614Y-117247729D01*
X155255141Y-117000005D01*
X155255141Y-116999994D01*
X155234614Y-116752270D01*
X155234612Y-116752261D01*
X155222643Y-116704999D01*
X160781114Y-116704999D01*
X160781116Y-116705000D01*
X162463593Y-116705000D01*
X162530632Y-116724685D01*
X162576387Y-116777489D01*
X162586331Y-116846647D01*
X162583989Y-116858677D01*
X162580000Y-116874859D01*
X162580000Y-117035140D01*
X162583989Y-117051323D01*
X162580921Y-117121125D01*
X162540603Y-117178188D01*
X162475834Y-117204394D01*
X162463593Y-117205000D01*
X160781115Y-117205000D01*
X160800643Y-117322029D01*
X160880818Y-117555570D01*
X160880821Y-117555578D01*
X160998348Y-117772748D01*
X160998352Y-117772754D01*
X161150008Y-117967601D01*
X161150011Y-117967605D01*
X161331688Y-118134851D01*
X161538408Y-118269907D01*
X161764539Y-118369098D01*
X162003909Y-118429715D01*
X162188369Y-118445000D01*
X162990000Y-118445000D01*
X162990000Y-117729458D01*
X163009685Y-117662419D01*
X163062489Y-117616664D01*
X163128944Y-117606362D01*
X163192297Y-117614054D01*
X163200080Y-117615000D01*
X163200081Y-117615000D01*
X163279920Y-117615000D01*
X163287702Y-117614054D01*
X163351055Y-117606362D01*
X163419975Y-117617822D01*
X163471762Y-117664725D01*
X163490000Y-117729458D01*
X163490000Y-118445000D01*
X164291631Y-118445000D01*
X164476090Y-118429715D01*
X164715460Y-118369098D01*
X164941591Y-118269907D01*
X165148311Y-118134851D01*
X165329988Y-117967605D01*
X165329991Y-117967601D01*
X165481647Y-117772754D01*
X165481651Y-117772748D01*
X165599178Y-117555578D01*
X165599181Y-117555570D01*
X165679356Y-117322029D01*
X165698885Y-117205000D01*
X164016407Y-117205000D01*
X163949368Y-117185315D01*
X163903613Y-117132511D01*
X163893669Y-117063353D01*
X163896011Y-117051323D01*
X163897349Y-117045891D01*
X163900000Y-117035138D01*
X163900000Y-116874862D01*
X163896010Y-116858677D01*
X163899079Y-116788875D01*
X163939397Y-116731812D01*
X164004166Y-116705606D01*
X164016407Y-116705000D01*
X165698884Y-116705000D01*
X165698885Y-116704999D01*
X165679356Y-116587970D01*
X165599181Y-116354429D01*
X165599178Y-116354421D01*
X165481651Y-116137251D01*
X165481647Y-116137245D01*
X165329991Y-115942398D01*
X165329988Y-115942394D01*
X165148311Y-115775148D01*
X164941591Y-115640092D01*
X164715460Y-115540901D01*
X164476090Y-115480284D01*
X164291631Y-115465000D01*
X163490000Y-115465000D01*
X163490000Y-116180541D01*
X163470315Y-116247580D01*
X163417511Y-116293335D01*
X163351053Y-116303637D01*
X163279922Y-116295000D01*
X163279919Y-116295000D01*
X163200081Y-116295000D01*
X163200078Y-116295000D01*
X163128947Y-116303637D01*
X163060023Y-116292177D01*
X163008237Y-116245273D01*
X162990000Y-116180541D01*
X162990000Y-115465000D01*
X162188369Y-115465000D01*
X162003909Y-115480284D01*
X161764539Y-115540901D01*
X161538408Y-115640092D01*
X161331688Y-115775148D01*
X161150011Y-115942394D01*
X161150008Y-115942398D01*
X160998352Y-116137245D01*
X160998348Y-116137251D01*
X160880821Y-116354421D01*
X160880818Y-116354429D01*
X160800643Y-116587970D01*
X160781114Y-116704999D01*
X155222643Y-116704999D01*
X155173587Y-116511282D01*
X155073731Y-116283630D01*
X154973434Y-116130116D01*
X154358949Y-116744602D01*
X154297626Y-116778087D01*
X154227934Y-116773103D01*
X154172001Y-116731231D01*
X154166953Y-116723961D01*
X154131761Y-116669202D01*
X154038013Y-116587970D01*
X154023100Y-116575048D01*
X154023099Y-116575047D01*
X154016398Y-116569241D01*
X154018698Y-116566585D01*
X153983960Y-116526428D01*
X153974074Y-116457261D01*
X154003152Y-116393729D01*
X154009116Y-116387329D01*
X154620056Y-115776389D01*
X154573229Y-115739943D01*
X154354614Y-115621635D01*
X154354603Y-115621630D01*
X154119493Y-115540916D01*
X153874293Y-115500000D01*
X153625707Y-115500000D01*
X153380506Y-115540916D01*
X153145396Y-115621630D01*
X153145390Y-115621632D01*
X152926761Y-115739949D01*
X152879942Y-115776388D01*
X152879942Y-115776390D01*
X153490883Y-116387330D01*
X153524368Y-116448653D01*
X153519384Y-116518344D01*
X153482358Y-116567805D01*
X153483602Y-116569241D01*
X153368238Y-116669202D01*
X153333046Y-116723962D01*
X153280242Y-116769717D01*
X153211083Y-116779660D01*
X153147528Y-116750634D01*
X153141050Y-116744603D01*
X152526564Y-116130116D01*
X152426267Y-116283632D01*
X152326412Y-116511282D01*
X152265387Y-116752261D01*
X152265385Y-116752270D01*
X152244859Y-116999994D01*
X152244859Y-117000005D01*
X130633500Y-117000005D01*
X130633500Y-113513164D01*
X130633500Y-112265000D01*
X131125001Y-112265000D01*
X131125001Y-112364986D01*
X131135494Y-112467697D01*
X131190641Y-112634119D01*
X131190643Y-112634124D01*
X131282684Y-112783345D01*
X131406654Y-112907315D01*
X131555875Y-112999356D01*
X131555880Y-112999358D01*
X131722302Y-113054505D01*
X131722309Y-113054506D01*
X131825019Y-113064999D01*
X133674999Y-113064999D01*
X133675000Y-113064998D01*
X133675000Y-112265000D01*
X134175000Y-112265000D01*
X134175000Y-113064999D01*
X136024972Y-113064999D01*
X136024986Y-113064998D01*
X136127697Y-113054505D01*
X136294119Y-112999358D01*
X136294124Y-112999356D01*
X136443345Y-112907315D01*
X136567315Y-112783345D01*
X136659356Y-112634124D01*
X136659358Y-112634119D01*
X136714505Y-112467697D01*
X136714506Y-112467690D01*
X136724999Y-112364986D01*
X136725000Y-112364973D01*
X136725000Y-112265000D01*
X134175000Y-112265000D01*
X133675000Y-112265000D01*
X131125001Y-112265000D01*
X130633500Y-112265000D01*
X130633500Y-111765000D01*
X131125000Y-111765000D01*
X133675000Y-111765000D01*
X133675000Y-110965000D01*
X134175000Y-110965000D01*
X134175000Y-111765000D01*
X136724999Y-111765000D01*
X136724999Y-111665028D01*
X136724998Y-111665013D01*
X136714505Y-111562302D01*
X136659358Y-111395880D01*
X136659356Y-111395875D01*
X136567315Y-111246654D01*
X136443345Y-111122684D01*
X136294124Y-111030643D01*
X136294119Y-111030641D01*
X136127697Y-110975494D01*
X136127690Y-110975493D01*
X136024986Y-110965000D01*
X134175000Y-110965000D01*
X133675000Y-110965000D01*
X131825028Y-110965000D01*
X131825012Y-110965001D01*
X131722302Y-110975494D01*
X131555880Y-111030641D01*
X131555875Y-111030643D01*
X131406654Y-111122684D01*
X131282684Y-111246654D01*
X131190643Y-111395875D01*
X131190641Y-111395880D01*
X131135494Y-111562302D01*
X131135493Y-111562309D01*
X131125000Y-111665013D01*
X131125000Y-111765000D01*
X130633500Y-111765000D01*
X130633499Y-108063762D01*
X130653184Y-107996727D01*
X130669813Y-107976090D01*
X131035860Y-107610043D01*
X131097182Y-107576560D01*
X131166874Y-107581544D01*
X131222807Y-107623416D01*
X131229071Y-107632618D01*
X131275970Y-107708652D01*
X131401348Y-107834030D01*
X131552262Y-107927115D01*
X131720574Y-107982887D01*
X131824455Y-107993500D01*
X136025544Y-107993499D01*
X136129426Y-107982887D01*
X136297738Y-107927115D01*
X136448652Y-107834030D01*
X136574030Y-107708652D01*
X136667115Y-107557738D01*
X136722887Y-107389426D01*
X136733500Y-107285545D01*
X136733499Y-106584456D01*
X136722887Y-106480574D01*
X136667115Y-106312262D01*
X136574030Y-106161348D01*
X136448652Y-106035970D01*
X136354898Y-105978141D01*
X136297740Y-105942886D01*
X136297735Y-105942884D01*
X136129427Y-105887113D01*
X136025545Y-105876500D01*
X131824462Y-105876500D01*
X131824446Y-105876501D01*
X131720572Y-105887113D01*
X131552264Y-105942884D01*
X131552259Y-105942886D01*
X131401346Y-106035971D01*
X131275971Y-106161346D01*
X131275969Y-106161348D01*
X131275970Y-106161348D01*
X131225853Y-106242599D01*
X131173908Y-106289321D01*
X131120317Y-106301500D01*
X130898634Y-106301500D01*
X130882886Y-106299761D01*
X130882861Y-106300032D01*
X130875094Y-106299298D01*
X130875091Y-106299298D01*
X130805042Y-106301500D01*
X130775137Y-106301500D01*
X130768143Y-106302384D01*
X130762320Y-106302842D01*
X130715112Y-106304326D01*
X130715109Y-106304327D01*
X130695506Y-106310022D01*
X130676458Y-106313966D01*
X130656203Y-106316526D01*
X130640347Y-106322803D01*
X130612285Y-106333913D01*
X130606759Y-106335805D01*
X130561407Y-106348981D01*
X130543833Y-106359374D01*
X130526372Y-106367928D01*
X130507386Y-106375446D01*
X130507384Y-106375447D01*
X130469172Y-106403208D01*
X130464290Y-106406415D01*
X130423637Y-106430457D01*
X130409201Y-106444894D01*
X130394415Y-106457523D01*
X130377893Y-106469528D01*
X130377891Y-106469529D01*
X130377891Y-106469530D01*
X130377888Y-106469532D01*
X130347780Y-106505925D01*
X130343849Y-106510246D01*
X129611182Y-107242912D01*
X129598820Y-107252816D01*
X129598994Y-107253026D01*
X129592985Y-107257997D01*
X129545015Y-107309079D01*
X129523872Y-107330222D01*
X129523857Y-107330239D01*
X129519531Y-107335814D01*
X129515747Y-107340244D01*
X129483419Y-107374671D01*
X129483412Y-107374681D01*
X129473579Y-107392567D01*
X129462903Y-107408820D01*
X129450386Y-107424957D01*
X129450385Y-107424959D01*
X129431625Y-107468310D01*
X129429055Y-107473556D01*
X129406303Y-107514941D01*
X129406303Y-107514942D01*
X129401225Y-107534720D01*
X129394925Y-107553122D01*
X129386818Y-107571857D01*
X129379431Y-107618495D01*
X129378246Y-107624216D01*
X129366500Y-107669965D01*
X129366500Y-107690384D01*
X129364973Y-107709783D01*
X129361780Y-107729941D01*
X129361780Y-107729942D01*
X129366225Y-107776966D01*
X129366500Y-107782804D01*
X129366500Y-118242500D01*
X129346815Y-118309539D01*
X129294011Y-118355294D01*
X129242500Y-118366500D01*
X128496324Y-118366500D01*
X128429285Y-118346815D01*
X128397057Y-118316810D01*
X128393262Y-118311740D01*
X128391497Y-118310419D01*
X128276204Y-118224111D01*
X128274858Y-118223609D01*
X128138398Y-118172710D01*
X128082465Y-118130838D01*
X128058049Y-118065373D01*
X128072902Y-117997101D01*
X128088345Y-117974953D01*
X128105280Y-117955570D01*
X128155319Y-117920976D01*
X128276204Y-117875889D01*
X128393261Y-117788261D01*
X128480889Y-117671204D01*
X128531989Y-117534201D01*
X128536173Y-117495280D01*
X128538499Y-117473654D01*
X128538500Y-117473637D01*
X128538500Y-116726362D01*
X128538499Y-116726345D01*
X128534126Y-116685678D01*
X128531989Y-116665799D01*
X128504681Y-116592585D01*
X128480888Y-116528793D01*
X128476637Y-116521008D01*
X128478107Y-116520205D01*
X128457316Y-116464454D01*
X128457000Y-116455612D01*
X128457000Y-110821269D01*
X128457389Y-110814332D01*
X128461574Y-110777193D01*
X128457139Y-110711418D01*
X128457000Y-110707263D01*
X128457000Y-110695794D01*
X128457000Y-110695789D01*
X128453355Y-110655294D01*
X128446959Y-110560420D01*
X128446011Y-110556657D01*
X128442751Y-110537466D01*
X128442405Y-110533620D01*
X128442404Y-110533618D01*
X128442404Y-110533611D01*
X128417111Y-110441966D01*
X128393873Y-110349742D01*
X128393858Y-110349709D01*
X128392266Y-110346203D01*
X128385634Y-110327914D01*
X128384603Y-110324176D01*
X128343341Y-110238494D01*
X128304020Y-110151928D01*
X128301811Y-110148740D01*
X128292022Y-110131928D01*
X128290338Y-110128431D01*
X128290337Y-110128429D01*
X128234425Y-110051474D01*
X128198092Y-109999030D01*
X128180292Y-109973337D01*
X128177551Y-109970596D01*
X128164915Y-109955801D01*
X128162634Y-109952662D01*
X128162632Y-109952660D01*
X128162631Y-109952658D01*
X128093885Y-109886930D01*
X125843316Y-107636360D01*
X125809833Y-107575040D01*
X125807000Y-107548691D01*
X125807000Y-106451317D01*
X125826685Y-106384277D01*
X125843319Y-106363636D01*
X129713637Y-102493319D01*
X129774960Y-102459834D01*
X129801318Y-102457000D01*
X140198683Y-102457000D01*
X140265722Y-102476685D01*
X140286364Y-102493319D01*
X141147863Y-103354819D01*
X141181348Y-103416142D01*
X141176364Y-103485834D01*
X141134492Y-103541767D01*
X141069028Y-103566184D01*
X141060182Y-103566500D01*
X138574446Y-103566500D01*
X138501953Y-103573906D01*
X138480203Y-103576129D01*
X138476918Y-103576464D01*
X138470578Y-103577112D01*
X138470567Y-103577115D01*
X138302266Y-103632883D01*
X138302259Y-103632886D01*
X138151346Y-103725971D01*
X138025971Y-103851346D01*
X137932886Y-104002259D01*
X137932884Y-104002264D01*
X137881641Y-104156908D01*
X137877114Y-104170571D01*
X137877112Y-104170578D01*
X137866500Y-104274448D01*
X137866500Y-114675549D01*
X137874107Y-114749999D01*
X137877113Y-114779427D01*
X137932884Y-114947735D01*
X137932886Y-114947740D01*
X137943657Y-114965202D01*
X138025970Y-115098652D01*
X138151348Y-115224030D01*
X138302262Y-115317115D01*
X138470574Y-115372887D01*
X138556387Y-115381654D01*
X138563700Y-115383500D01*
X138571294Y-115383500D01*
X138577599Y-115383821D01*
X138600002Y-115386109D01*
X138601995Y-115385150D01*
X138622157Y-115383500D01*
X147575540Y-115383500D01*
X147575544Y-115383500D01*
X147669796Y-115373870D01*
X147679426Y-115372887D01*
X147847738Y-115317115D01*
X147998652Y-115224030D01*
X148124030Y-115098652D01*
X148217115Y-114947738D01*
X148272887Y-114779426D01*
X148283500Y-114675545D01*
X148283500Y-112251111D01*
X148283500Y-110830999D01*
X148303185Y-110763961D01*
X148355989Y-110718206D01*
X148407500Y-110707000D01*
X148448683Y-110707000D01*
X148515722Y-110726685D01*
X148536363Y-110743318D01*
X149585310Y-111792266D01*
X150596124Y-112803080D01*
X150600761Y-112808268D01*
X150624060Y-112837484D01*
X150673698Y-112880852D01*
X150676731Y-112883687D01*
X150684855Y-112891811D01*
X150684859Y-112891815D01*
X150684863Y-112891818D01*
X150716069Y-112917870D01*
X150787675Y-112980431D01*
X150791006Y-112982421D01*
X150806874Y-112993680D01*
X150809853Y-112996167D01*
X150809856Y-112996169D01*
X150809858Y-112996170D01*
X150892553Y-113043092D01*
X150974176Y-113091860D01*
X150974178Y-113091860D01*
X150974185Y-113091865D01*
X150977810Y-113093225D01*
X150995441Y-113101473D01*
X150998818Y-113103389D01*
X151088578Y-113134797D01*
X151172754Y-113166389D01*
X151177596Y-113168206D01*
X151181410Y-113168898D01*
X151200221Y-113173862D01*
X151203889Y-113175146D01*
X151297815Y-113190022D01*
X151328999Y-113195681D01*
X151391366Y-113207000D01*
X151391368Y-113207000D01*
X151395248Y-113207000D01*
X151414645Y-113208527D01*
X151415152Y-113208607D01*
X151418478Y-113209134D01*
X151513560Y-113207000D01*
X152797585Y-113207000D01*
X152862373Y-113225272D01*
X152986740Y-113301485D01*
X153063037Y-113348240D01*
X153063040Y-113348242D01*
X153282403Y-113439104D01*
X153282404Y-113439104D01*
X153282406Y-113439105D01*
X153513289Y-113494535D01*
X153750000Y-113513165D01*
X153986711Y-113494535D01*
X154217594Y-113439105D01*
X154217596Y-113439104D01*
X154217597Y-113439104D01*
X154436959Y-113348242D01*
X154436960Y-113348241D01*
X154436963Y-113348240D01*
X154639416Y-113224176D01*
X154677429Y-113191709D01*
X154741189Y-113163139D01*
X154757960Y-113162000D01*
X160725179Y-113162000D01*
X160792218Y-113181685D01*
X160824445Y-113211688D01*
X160896739Y-113308261D01*
X161013796Y-113395889D01*
X161150799Y-113446989D01*
X161178050Y-113449918D01*
X161211345Y-113453499D01*
X161211362Y-113453500D01*
X165268638Y-113453500D01*
X165268654Y-113453499D01*
X165296199Y-113450537D01*
X165329201Y-113446989D01*
X165466204Y-113395889D01*
X165583261Y-113308261D01*
X165670889Y-113191204D01*
X165721989Y-113054201D01*
X165727363Y-113004214D01*
X165728499Y-112993654D01*
X165728500Y-112993637D01*
X165728500Y-110916362D01*
X165728499Y-110916345D01*
X165723800Y-110872646D01*
X165721989Y-110855799D01*
X165712739Y-110831000D01*
X165692669Y-110777189D01*
X165670889Y-110718796D01*
X165583261Y-110601739D01*
X165466204Y-110514111D01*
X165466204Y-110514110D01*
X165329203Y-110463011D01*
X165268654Y-110456500D01*
X165268638Y-110456500D01*
X164518500Y-110456500D01*
X164451461Y-110436815D01*
X164405706Y-110384011D01*
X164394500Y-110332500D01*
X164394500Y-107028487D01*
X164394561Y-107025730D01*
X164395717Y-107000000D01*
X165150001Y-107000000D01*
X165150001Y-107449986D01*
X165160494Y-107552697D01*
X165215641Y-107719119D01*
X165215643Y-107719124D01*
X165307684Y-107868345D01*
X165431654Y-107992315D01*
X165580875Y-108084356D01*
X165580880Y-108084358D01*
X165747302Y-108139505D01*
X165747309Y-108139506D01*
X165850019Y-108149999D01*
X166062499Y-108149999D01*
X166062500Y-108149998D01*
X166062500Y-107000000D01*
X166562500Y-107000000D01*
X166562500Y-108149999D01*
X166774972Y-108149999D01*
X166774986Y-108149998D01*
X166877697Y-108139505D01*
X167044119Y-108084358D01*
X167044124Y-108084356D01*
X167193345Y-107992315D01*
X167317315Y-107868345D01*
X167409356Y-107719124D01*
X167409358Y-107719119D01*
X167464505Y-107552697D01*
X167464506Y-107552690D01*
X167474999Y-107449986D01*
X167475000Y-107449973D01*
X167475000Y-107000000D01*
X166562500Y-107000000D01*
X166062500Y-107000000D01*
X165150001Y-107000000D01*
X164395717Y-107000000D01*
X164398159Y-106945629D01*
X164396232Y-106931404D01*
X164395062Y-106922762D01*
X164394500Y-106914431D01*
X164394500Y-106695795D01*
X164394500Y-106695789D01*
X164379904Y-106533611D01*
X164370627Y-106500000D01*
X165150000Y-106500000D01*
X166062500Y-106500000D01*
X166062500Y-105350000D01*
X166562500Y-105350000D01*
X166562500Y-106500000D01*
X167474999Y-106500000D01*
X167474999Y-106050028D01*
X167474998Y-106050013D01*
X167464505Y-105947302D01*
X167409358Y-105780880D01*
X167409356Y-105780875D01*
X167317315Y-105631654D01*
X167193345Y-105507684D01*
X167044124Y-105415643D01*
X167044119Y-105415641D01*
X166877697Y-105360494D01*
X166877690Y-105360493D01*
X166774986Y-105350000D01*
X166562500Y-105350000D01*
X166062500Y-105350000D01*
X165850029Y-105350000D01*
X165850012Y-105350001D01*
X165747302Y-105360494D01*
X165580880Y-105415641D01*
X165580875Y-105415643D01*
X165431654Y-105507684D01*
X165307684Y-105631654D01*
X165215643Y-105780875D01*
X165215641Y-105780880D01*
X165160494Y-105947302D01*
X165160493Y-105947309D01*
X165150000Y-106050013D01*
X165150000Y-106500000D01*
X164370627Y-106500000D01*
X164362967Y-106472245D01*
X164358499Y-106439256D01*
X164358499Y-106049462D01*
X164358498Y-106049446D01*
X164357121Y-106035970D01*
X164347887Y-105945574D01*
X164292115Y-105777262D01*
X164199030Y-105626348D01*
X164073652Y-105500970D01*
X163935316Y-105415643D01*
X163922740Y-105407886D01*
X163922735Y-105407884D01*
X163754427Y-105352113D01*
X163650546Y-105341500D01*
X162724462Y-105341500D01*
X162724446Y-105341501D01*
X162620572Y-105352113D01*
X162452264Y-105407884D01*
X162452259Y-105407886D01*
X162301346Y-105500971D01*
X162175971Y-105626346D01*
X162109510Y-105734097D01*
X162057562Y-105780822D01*
X162003971Y-105793000D01*
X161551318Y-105793000D01*
X161484279Y-105773315D01*
X161463637Y-105756681D01*
X159643319Y-103936362D01*
X159609834Y-103875039D01*
X159607000Y-103848681D01*
X159607000Y-102382499D01*
X159626685Y-102315460D01*
X159679489Y-102269705D01*
X159731000Y-102258499D01*
X160400537Y-102258499D01*
X160400544Y-102258499D01*
X160504426Y-102247887D01*
X160672738Y-102192115D01*
X160823652Y-102099030D01*
X160949030Y-101973652D01*
X161042115Y-101822738D01*
X161097887Y-101654426D01*
X161108500Y-101550545D01*
X161108499Y-100067763D01*
X163145787Y-100067763D01*
X163175413Y-100337013D01*
X163175415Y-100337024D01*
X163243926Y-100599082D01*
X163243928Y-100599088D01*
X163349870Y-100848390D01*
X163421998Y-100966575D01*
X163490979Y-101079605D01*
X163490986Y-101079615D01*
X163664253Y-101287819D01*
X163664259Y-101287824D01*
X163865998Y-101468582D01*
X164091910Y-101618044D01*
X164337176Y-101733020D01*
X164337183Y-101733022D01*
X164337185Y-101733023D01*
X164596557Y-101811057D01*
X164596564Y-101811058D01*
X164596569Y-101811060D01*
X164864561Y-101850500D01*
X164864566Y-101850500D01*
X165067636Y-101850500D01*
X165119133Y-101846730D01*
X165270156Y-101835677D01*
X165382758Y-101810593D01*
X165534546Y-101776782D01*
X165534548Y-101776781D01*
X165534553Y-101776780D01*
X165787558Y-101680014D01*
X166023777Y-101547441D01*
X166238177Y-101381888D01*
X166426186Y-101186881D01*
X166583799Y-100966579D01*
X166695150Y-100750000D01*
X166707649Y-100725690D01*
X166707651Y-100725684D01*
X166707656Y-100725675D01*
X166795118Y-100469305D01*
X166844319Y-100202933D01*
X166854212Y-99932235D01*
X166824586Y-99662982D01*
X166756072Y-99400912D01*
X166650130Y-99151610D01*
X166509018Y-98920390D01*
X166498444Y-98907684D01*
X166335746Y-98712180D01*
X166335740Y-98712175D01*
X166134002Y-98531418D01*
X165908092Y-98381957D01*
X165821448Y-98341340D01*
X165662824Y-98266980D01*
X165662819Y-98266978D01*
X165662814Y-98266976D01*
X165403442Y-98188942D01*
X165403428Y-98188939D01*
X165287791Y-98171921D01*
X165135439Y-98149500D01*
X164932369Y-98149500D01*
X164932364Y-98149500D01*
X164729844Y-98164323D01*
X164729831Y-98164325D01*
X164465453Y-98223217D01*
X164465446Y-98223220D01*
X164212439Y-98319987D01*
X163976226Y-98452557D01*
X163761822Y-98618112D01*
X163573822Y-98813109D01*
X163573816Y-98813116D01*
X163416202Y-99033419D01*
X163416199Y-99033424D01*
X163292350Y-99274309D01*
X163292343Y-99274327D01*
X163204884Y-99530685D01*
X163204881Y-99530699D01*
X163195938Y-99579115D01*
X163156400Y-99793178D01*
X163155681Y-99797068D01*
X163155680Y-99797075D01*
X163145787Y-100067763D01*
X161108499Y-100067763D01*
X161108499Y-99449456D01*
X161097887Y-99345574D01*
X161042115Y-99177262D01*
X160949030Y-99026348D01*
X160823652Y-98900970D01*
X160685316Y-98815643D01*
X160672740Y-98807886D01*
X160672735Y-98807884D01*
X160504427Y-98752113D01*
X160400545Y-98741500D01*
X156399462Y-98741500D01*
X156399446Y-98741501D01*
X156295572Y-98752113D01*
X156127264Y-98807884D01*
X156127259Y-98807886D01*
X155976346Y-98900971D01*
X155850971Y-99026346D01*
X155757886Y-99177259D01*
X155757884Y-99177264D01*
X155702113Y-99345572D01*
X155691500Y-99449447D01*
X155691500Y-101550537D01*
X155691501Y-101550553D01*
X155698396Y-101618042D01*
X155702113Y-101654426D01*
X155757885Y-101822738D01*
X155850970Y-101973652D01*
X155976348Y-102099030D01*
X156127262Y-102192115D01*
X156295574Y-102247887D01*
X156399455Y-102258500D01*
X157069000Y-102258499D01*
X157136039Y-102278183D01*
X157181794Y-102330987D01*
X157193000Y-102382499D01*
X157193000Y-104328730D01*
X157192610Y-104335668D01*
X157190077Y-104358151D01*
X157188426Y-104372805D01*
X157188425Y-104372811D01*
X157192859Y-104438564D01*
X157193000Y-104442736D01*
X157193000Y-104454214D01*
X157196644Y-104494704D01*
X157203040Y-104589573D01*
X157203040Y-104589575D01*
X157203041Y-104589580D01*
X157203991Y-104593351D01*
X157207247Y-104612514D01*
X157207596Y-104616389D01*
X157207596Y-104616391D01*
X157232895Y-104708057D01*
X157256128Y-104800258D01*
X157257733Y-104803792D01*
X157264362Y-104822074D01*
X157265397Y-104825826D01*
X157290467Y-104877884D01*
X157306666Y-104911521D01*
X157345980Y-104998072D01*
X157345983Y-104998076D01*
X157348189Y-105001261D01*
X157357979Y-105018073D01*
X157359662Y-105021568D01*
X157359665Y-105021574D01*
X157415574Y-105098525D01*
X157469701Y-105176654D01*
X157469705Y-105176659D01*
X157469708Y-105176663D01*
X157469711Y-105176666D01*
X157472450Y-105179405D01*
X157485086Y-105194200D01*
X157487369Y-105197342D01*
X157539576Y-105247257D01*
X157556114Y-105263069D01*
X160096124Y-107803080D01*
X160100761Y-107808268D01*
X160124060Y-107837484D01*
X160173698Y-107880852D01*
X160176731Y-107883687D01*
X160184855Y-107891811D01*
X160184859Y-107891815D01*
X160184863Y-107891818D01*
X160216068Y-107917869D01*
X160282700Y-107976085D01*
X160287675Y-107980431D01*
X160291006Y-107982421D01*
X160306874Y-107993680D01*
X160309853Y-107996167D01*
X160309856Y-107996169D01*
X160309858Y-107996170D01*
X160392547Y-108043089D01*
X160474185Y-108091865D01*
X160477818Y-108093228D01*
X160495437Y-108101471D01*
X160498816Y-108103388D01*
X160588563Y-108134790D01*
X160588564Y-108134791D01*
X160677596Y-108168206D01*
X160681416Y-108168899D01*
X160700230Y-108173865D01*
X160703889Y-108175146D01*
X160797795Y-108190019D01*
X160797796Y-108190019D01*
X160891365Y-108207000D01*
X160891368Y-108207000D01*
X160895254Y-108207000D01*
X160914640Y-108208525D01*
X160918478Y-108209133D01*
X161013535Y-108207000D01*
X161856500Y-108207000D01*
X161923539Y-108226685D01*
X161969294Y-108279489D01*
X161980500Y-108331000D01*
X161980500Y-110332500D01*
X161960815Y-110399539D01*
X161908011Y-110445294D01*
X161856500Y-110456500D01*
X161211345Y-110456500D01*
X161150797Y-110463011D01*
X161150795Y-110463011D01*
X161013795Y-110514111D01*
X160896739Y-110601739D01*
X160824446Y-110698311D01*
X160768512Y-110740182D01*
X160725179Y-110748000D01*
X154628983Y-110748000D01*
X154564193Y-110729727D01*
X154546355Y-110718796D01*
X154508812Y-110695789D01*
X154436962Y-110651759D01*
X154436959Y-110651757D01*
X154217596Y-110560895D01*
X153986714Y-110505465D01*
X153809177Y-110491492D01*
X153750000Y-110486835D01*
X153749999Y-110486835D01*
X153513285Y-110505465D01*
X153282404Y-110560895D01*
X153282402Y-110560895D01*
X153063040Y-110651757D01*
X153063037Y-110651759D01*
X152940771Y-110726685D01*
X152862373Y-110774727D01*
X152797585Y-110793000D01*
X152051317Y-110793000D01*
X151984278Y-110773315D01*
X151963636Y-110756681D01*
X149903874Y-108696918D01*
X149899237Y-108691730D01*
X149875942Y-108662519D01*
X149875940Y-108662516D01*
X149875936Y-108662512D01*
X149875931Y-108662507D01*
X149826300Y-108619146D01*
X149823266Y-108616310D01*
X149815145Y-108608189D01*
X149815144Y-108608188D01*
X149815140Y-108608184D01*
X149815136Y-108608181D01*
X149783931Y-108582130D01*
X149773672Y-108573167D01*
X149712325Y-108519569D01*
X149708990Y-108517576D01*
X149693127Y-108506321D01*
X149690147Y-108503833D01*
X149690145Y-108503831D01*
X149690144Y-108503831D01*
X149690143Y-108503830D01*
X149607446Y-108456907D01*
X149525815Y-108408135D01*
X149525811Y-108408133D01*
X149525810Y-108408132D01*
X149522174Y-108406768D01*
X149504562Y-108398528D01*
X149501190Y-108396615D01*
X149501186Y-108396613D01*
X149501182Y-108396611D01*
X149411421Y-108365202D01*
X149322404Y-108331794D01*
X149322400Y-108331793D01*
X149322397Y-108331792D01*
X149322399Y-108331792D01*
X149318578Y-108331099D01*
X149299782Y-108326138D01*
X149296112Y-108324854D01*
X149242679Y-108316391D01*
X149202184Y-108309977D01*
X149183473Y-108306581D01*
X149108636Y-108293000D01*
X149108632Y-108293000D01*
X149104752Y-108293000D01*
X149085355Y-108291473D01*
X149081529Y-108290867D01*
X149081527Y-108290866D01*
X149081522Y-108290866D01*
X149081516Y-108290866D01*
X149081515Y-108290866D01*
X148998325Y-108292733D01*
X148986440Y-108293000D01*
X148407500Y-108293000D01*
X148340461Y-108273315D01*
X148294706Y-108220511D01*
X148283500Y-108169000D01*
X148283500Y-104274461D01*
X148283499Y-104274448D01*
X148272887Y-104170578D01*
X148272887Y-104170575D01*
X148268359Y-104156909D01*
X148217115Y-104002262D01*
X148124030Y-103851348D01*
X147998652Y-103725970D01*
X147847738Y-103632885D01*
X147847732Y-103632883D01*
X147679427Y-103577113D01*
X147575552Y-103566500D01*
X147575545Y-103566500D01*
X147575544Y-103566500D01*
X144400090Y-103566500D01*
X144333051Y-103546815D01*
X144287296Y-103494011D01*
X144276371Y-103450841D01*
X144271961Y-103385429D01*
X144271960Y-103385426D01*
X144271960Y-103385421D01*
X144271009Y-103381648D01*
X144267751Y-103362473D01*
X144267404Y-103358611D01*
X144266357Y-103354819D01*
X144242113Y-103266973D01*
X144218873Y-103174743D01*
X144217269Y-103171212D01*
X144210634Y-103152913D01*
X144209602Y-103149174D01*
X144168347Y-103063507D01*
X144129022Y-102976930D01*
X144126808Y-102973734D01*
X144117023Y-102956931D01*
X144115336Y-102953428D01*
X144115332Y-102953423D01*
X144115330Y-102953419D01*
X144059447Y-102876503D01*
X144005292Y-102798335D01*
X144002548Y-102795591D01*
X143989909Y-102780793D01*
X143987633Y-102777661D01*
X143987631Y-102777658D01*
X143918907Y-102711951D01*
X141956957Y-100750000D01*
X148300001Y-100750000D01*
X148300001Y-101549986D01*
X148310494Y-101652697D01*
X148365641Y-101819119D01*
X148365643Y-101819124D01*
X148457684Y-101968345D01*
X148581654Y-102092315D01*
X148730875Y-102184356D01*
X148730880Y-102184358D01*
X148897302Y-102239505D01*
X148897309Y-102239506D01*
X149000019Y-102249999D01*
X150749999Y-102249999D01*
X150750000Y-102249998D01*
X150750000Y-100750000D01*
X151250000Y-100750000D01*
X151250000Y-102249999D01*
X152999972Y-102249999D01*
X152999986Y-102249998D01*
X153102697Y-102239505D01*
X153269119Y-102184358D01*
X153269124Y-102184356D01*
X153418345Y-102092315D01*
X153542315Y-101968345D01*
X153634356Y-101819124D01*
X153634358Y-101819119D01*
X153689505Y-101652697D01*
X153689506Y-101652690D01*
X153699999Y-101549986D01*
X153700000Y-101549973D01*
X153700000Y-100750000D01*
X151250000Y-100750000D01*
X150750000Y-100750000D01*
X148300001Y-100750000D01*
X141956957Y-100750000D01*
X141653874Y-100446917D01*
X141649237Y-100441730D01*
X141625942Y-100412519D01*
X141625940Y-100412516D01*
X141625936Y-100412512D01*
X141625931Y-100412507D01*
X141576300Y-100369146D01*
X141573266Y-100366310D01*
X141565145Y-100358189D01*
X141565144Y-100358188D01*
X141565140Y-100358184D01*
X141565136Y-100358181D01*
X141541841Y-100338734D01*
X141533930Y-100332129D01*
X141462325Y-100269569D01*
X141458990Y-100267576D01*
X141443127Y-100256321D01*
X141440147Y-100253833D01*
X141440145Y-100253831D01*
X141440144Y-100253831D01*
X141440143Y-100253830D01*
X141433393Y-100250000D01*
X148300000Y-100250000D01*
X150750000Y-100250000D01*
X150750000Y-98750000D01*
X151250000Y-98750000D01*
X151250000Y-100250000D01*
X153699998Y-100250000D01*
X153699999Y-99450028D01*
X153699998Y-99450013D01*
X153689505Y-99347302D01*
X153634358Y-99180880D01*
X153634356Y-99180875D01*
X153542315Y-99031654D01*
X153418345Y-98907684D01*
X153269124Y-98815643D01*
X153269119Y-98815641D01*
X153102697Y-98760494D01*
X153102690Y-98760493D01*
X152999986Y-98750000D01*
X151250000Y-98750000D01*
X150750000Y-98750000D01*
X149000028Y-98750000D01*
X149000012Y-98750001D01*
X148897302Y-98760494D01*
X148730880Y-98815641D01*
X148730875Y-98815643D01*
X148581654Y-98907684D01*
X148457684Y-99031654D01*
X148365643Y-99180875D01*
X148365641Y-99180880D01*
X148310494Y-99347302D01*
X148310493Y-99347309D01*
X148300000Y-99450013D01*
X148300000Y-100250000D01*
X141433393Y-100250000D01*
X141357446Y-100206907D01*
X141350791Y-100202931D01*
X141275815Y-100158135D01*
X141275811Y-100158133D01*
X141275810Y-100158132D01*
X141272174Y-100156768D01*
X141254562Y-100148528D01*
X141251190Y-100146615D01*
X141251186Y-100146613D01*
X141251182Y-100146611D01*
X141161421Y-100115202D01*
X141072404Y-100081794D01*
X141072400Y-100081793D01*
X141072397Y-100081792D01*
X141072399Y-100081792D01*
X141068578Y-100081099D01*
X141049782Y-100076138D01*
X141046112Y-100074854D01*
X140999147Y-100067415D01*
X140952184Y-100059977D01*
X140932324Y-100056373D01*
X140858636Y-100043000D01*
X140858632Y-100043000D01*
X140854752Y-100043000D01*
X140835355Y-100041473D01*
X140831529Y-100040867D01*
X140831527Y-100040866D01*
X140831522Y-100040866D01*
X140831516Y-100040866D01*
X140831515Y-100040866D01*
X140748325Y-100042733D01*
X140736440Y-100043000D01*
X129321270Y-100043000D01*
X129314329Y-100042610D01*
X129290253Y-100039897D01*
X129277194Y-100038426D01*
X129277188Y-100038425D01*
X129231999Y-100041473D01*
X129211418Y-100042860D01*
X129207263Y-100043000D01*
X129195786Y-100043000D01*
X129155295Y-100046644D01*
X129060416Y-100053040D01*
X129056644Y-100053991D01*
X129037485Y-100057247D01*
X129033613Y-100057595D01*
X129033602Y-100057597D01*
X128941942Y-100082895D01*
X128849740Y-100106128D01*
X128846203Y-100107735D01*
X128827925Y-100114362D01*
X128824172Y-100115397D01*
X128738478Y-100156666D01*
X128651922Y-100195982D01*
X128651921Y-100195982D01*
X128648726Y-100198196D01*
X128631951Y-100207966D01*
X128628432Y-100209661D01*
X128628425Y-100209665D01*
X128551484Y-100265566D01*
X128473339Y-100319704D01*
X128473331Y-100319711D01*
X128470577Y-100322465D01*
X128455808Y-100335079D01*
X128452666Y-100337361D01*
X128452657Y-100337369D01*
X128386951Y-100406092D01*
X124136363Y-104656681D01*
X124075040Y-104690166D01*
X124048682Y-104693000D01*
X115574765Y-104693000D01*
X115531195Y-104685093D01*
X115522407Y-104681794D01*
X115522399Y-104681792D01*
X115518578Y-104681099D01*
X115499782Y-104676138D01*
X115496112Y-104674854D01*
X115449147Y-104667415D01*
X115402184Y-104659977D01*
X115382324Y-104656373D01*
X115308636Y-104643000D01*
X115308632Y-104643000D01*
X115304752Y-104643000D01*
X115285355Y-104641473D01*
X115281529Y-104640867D01*
X115281527Y-104640866D01*
X115281522Y-104640866D01*
X115281516Y-104640866D01*
X115281515Y-104640866D01*
X115198325Y-104642733D01*
X115186440Y-104643000D01*
X111071270Y-104643000D01*
X111064329Y-104642610D01*
X111040253Y-104639897D01*
X111027194Y-104638426D01*
X111027188Y-104638425D01*
X110981999Y-104641473D01*
X110961418Y-104642860D01*
X110957263Y-104643000D01*
X110945786Y-104643000D01*
X110905295Y-104646644D01*
X110810416Y-104653040D01*
X110806644Y-104653991D01*
X110787485Y-104657247D01*
X110783613Y-104657595D01*
X110783602Y-104657597D01*
X110691942Y-104682895D01*
X110599740Y-104706128D01*
X110596203Y-104707735D01*
X110577925Y-104714362D01*
X110574181Y-104715395D01*
X110574171Y-104715399D01*
X110563120Y-104720721D01*
X110509321Y-104733000D01*
X105195789Y-104733000D01*
X105158683Y-104736339D01*
X105033612Y-104747595D01*
X105033606Y-104747596D01*
X104824179Y-104805395D01*
X104795467Y-104819222D01*
X104741668Y-104831500D01*
X104349462Y-104831500D01*
X104349446Y-104831501D01*
X104245572Y-104842113D01*
X104077264Y-104897884D01*
X104077259Y-104897886D01*
X103926346Y-104990971D01*
X103800971Y-105116346D01*
X103707886Y-105267259D01*
X103707884Y-105267264D01*
X103652113Y-105435572D01*
X103641500Y-105539447D01*
X103641500Y-106340537D01*
X103641501Y-106340553D01*
X103652113Y-106444427D01*
X103656454Y-106457527D01*
X103707885Y-106612738D01*
X103800970Y-106763652D01*
X103926348Y-106889030D01*
X104077262Y-106982115D01*
X104245574Y-107037887D01*
X104349455Y-107048500D01*
X104746005Y-107048499D01*
X104789576Y-107056406D01*
X104927596Y-107108206D01*
X105141364Y-107147000D01*
X105141368Y-107147000D01*
X110838730Y-107147000D01*
X110845670Y-107147389D01*
X110882808Y-107151574D01*
X110882810Y-107151573D01*
X110882811Y-107151574D01*
X110899954Y-107150417D01*
X110948581Y-107147139D01*
X110952737Y-107147000D01*
X110964206Y-107147000D01*
X110964211Y-107147000D01*
X111004703Y-107143355D01*
X111099580Y-107136959D01*
X111103336Y-107136012D01*
X111122524Y-107132751D01*
X111126389Y-107132404D01*
X111218057Y-107107104D01*
X111310258Y-107083872D01*
X111313782Y-107082270D01*
X111332082Y-107075635D01*
X111335824Y-107074603D01*
X111346879Y-107069278D01*
X111400679Y-107057000D01*
X114556611Y-107057000D01*
X114562912Y-107057320D01*
X114574455Y-107058500D01*
X114879229Y-107058499D01*
X114922805Y-107066408D01*
X114927596Y-107068206D01*
X114930370Y-107068709D01*
X114931398Y-107068896D01*
X114950223Y-107073864D01*
X114953889Y-107075147D01*
X115047837Y-107090026D01*
X115141365Y-107107000D01*
X115141368Y-107107000D01*
X115145246Y-107107000D01*
X115164644Y-107108526D01*
X115168479Y-107109134D01*
X115263561Y-107107000D01*
X119391368Y-107107000D01*
X123269000Y-107107000D01*
X123336039Y-107126685D01*
X123381794Y-107179489D01*
X123393000Y-107231000D01*
X123392999Y-108028730D01*
X123392609Y-108035676D01*
X123388425Y-108072809D01*
X123388425Y-108072811D01*
X123392859Y-108138564D01*
X123393000Y-108142736D01*
X123393000Y-108154214D01*
X123396644Y-108194704D01*
X123403040Y-108289573D01*
X123403040Y-108289575D01*
X123403041Y-108289580D01*
X123403991Y-108293351D01*
X123407247Y-108312514D01*
X123407596Y-108316389D01*
X123407596Y-108316391D01*
X123432895Y-108408057D01*
X123456128Y-108500258D01*
X123457733Y-108503792D01*
X123464362Y-108522074D01*
X123465397Y-108525826D01*
X123492512Y-108582130D01*
X123506666Y-108611521D01*
X123545980Y-108698072D01*
X123545983Y-108698076D01*
X123548189Y-108701261D01*
X123557979Y-108718073D01*
X123559662Y-108721568D01*
X123559665Y-108721574D01*
X123615574Y-108798525D01*
X123669701Y-108876654D01*
X123669705Y-108876659D01*
X123669708Y-108876663D01*
X123669711Y-108876666D01*
X123672450Y-108879405D01*
X123685086Y-108894200D01*
X123687369Y-108897342D01*
X123756114Y-108963069D01*
X126006681Y-111213636D01*
X126040166Y-111274959D01*
X126043000Y-111301317D01*
X126043000Y-116455612D01*
X126023315Y-116522651D01*
X126019336Y-116528382D01*
X126019113Y-116528790D01*
X126019110Y-116528796D01*
X126019111Y-116528796D01*
X126016179Y-116536654D01*
X125974308Y-116592585D01*
X125908843Y-116617000D01*
X125840570Y-116602147D01*
X125791166Y-116552740D01*
X125783821Y-116536659D01*
X125780889Y-116528796D01*
X125693261Y-116411739D01*
X125576204Y-116324111D01*
X125521312Y-116303637D01*
X125439203Y-116273011D01*
X125378654Y-116266500D01*
X125378638Y-116266500D01*
X125307500Y-116266500D01*
X125240461Y-116246815D01*
X125194706Y-116194011D01*
X125183500Y-116142500D01*
X125183500Y-114633633D01*
X125185239Y-114617886D01*
X125184968Y-114617861D01*
X125185701Y-114610094D01*
X125185702Y-114610091D01*
X125183500Y-114540042D01*
X125183500Y-114510144D01*
X125182614Y-114503136D01*
X125182156Y-114497314D01*
X125180673Y-114450111D01*
X125180672Y-114450109D01*
X125174979Y-114430515D01*
X125171032Y-114411459D01*
X125168474Y-114391203D01*
X125151084Y-114347283D01*
X125149195Y-114341763D01*
X125139531Y-114308500D01*
X125136018Y-114296407D01*
X125125622Y-114278829D01*
X125117066Y-114261362D01*
X125109552Y-114242383D01*
X125081794Y-114204179D01*
X125078587Y-114199296D01*
X125068873Y-114182871D01*
X125054542Y-114158638D01*
X125040108Y-114144204D01*
X125027471Y-114129409D01*
X125015472Y-114112893D01*
X125015470Y-114112890D01*
X124979073Y-114082781D01*
X124974751Y-114078847D01*
X123657088Y-112761183D01*
X123647187Y-112748823D01*
X123646977Y-112748998D01*
X123642002Y-112742986D01*
X123642000Y-112742982D01*
X123615657Y-112718245D01*
X123590921Y-112695015D01*
X123569768Y-112673863D01*
X123567792Y-112672331D01*
X123564183Y-112669531D01*
X123559750Y-112665744D01*
X123525321Y-112633414D01*
X123525319Y-112633412D01*
X123507431Y-112623578D01*
X123491170Y-112612897D01*
X123475039Y-112600384D01*
X123431693Y-112581627D01*
X123426445Y-112579056D01*
X123399251Y-112564106D01*
X123385060Y-112556305D01*
X123381660Y-112555432D01*
X123365287Y-112551228D01*
X123346881Y-112544926D01*
X123328144Y-112536818D01*
X123328146Y-112536818D01*
X123281496Y-112529430D01*
X123275781Y-112528246D01*
X123255612Y-112523068D01*
X123230032Y-112516500D01*
X123230030Y-112516500D01*
X123209616Y-112516500D01*
X123190217Y-112514973D01*
X123170058Y-112511780D01*
X123170057Y-112511780D01*
X123123034Y-112516225D01*
X123117196Y-112516500D01*
X120936226Y-112516500D01*
X120869187Y-112496815D01*
X120823432Y-112444011D01*
X120818525Y-112431517D01*
X120817115Y-112427262D01*
X120724030Y-112276348D01*
X120598652Y-112150970D01*
X120447738Y-112057885D01*
X120447735Y-112057884D01*
X120279427Y-112002113D01*
X120244896Y-111998585D01*
X120180205Y-111972188D01*
X120140054Y-111915007D01*
X120133500Y-111875227D01*
X120133500Y-110274772D01*
X120153185Y-110207733D01*
X120205989Y-110161978D01*
X120244898Y-110151414D01*
X120279426Y-110147887D01*
X120447738Y-110092115D01*
X120598652Y-109999030D01*
X120724030Y-109873652D01*
X120817115Y-109722738D01*
X120872887Y-109554426D01*
X120883500Y-109450545D01*
X120883499Y-108549456D01*
X120872887Y-108445574D01*
X120817115Y-108277262D01*
X120724030Y-108126348D01*
X120598652Y-108000970D01*
X120478915Y-107927115D01*
X120447740Y-107907886D01*
X120447735Y-107907884D01*
X120279427Y-107852113D01*
X120175545Y-107841500D01*
X118824462Y-107841500D01*
X118824446Y-107841501D01*
X118720572Y-107852113D01*
X118552264Y-107907884D01*
X118552259Y-107907886D01*
X118401346Y-108000971D01*
X118275971Y-108126346D01*
X118182886Y-108277259D01*
X118182884Y-108277264D01*
X118127113Y-108445572D01*
X118116500Y-108549447D01*
X118116500Y-109450537D01*
X118116501Y-109450553D01*
X118127113Y-109554427D01*
X118167513Y-109676348D01*
X118182885Y-109722738D01*
X118275970Y-109873652D01*
X118401348Y-109999030D01*
X118552262Y-110092115D01*
X118720574Y-110147887D01*
X118720572Y-110147887D01*
X118733345Y-110149191D01*
X118755101Y-110151414D01*
X118819792Y-110177809D01*
X118859944Y-110234989D01*
X118866499Y-110274772D01*
X118866499Y-111875227D01*
X118846814Y-111942266D01*
X118794010Y-111988021D01*
X118755103Y-111998585D01*
X118720572Y-112002113D01*
X118552264Y-112057884D01*
X118552259Y-112057886D01*
X118401346Y-112150971D01*
X118275971Y-112276346D01*
X118182886Y-112427259D01*
X118182884Y-112427264D01*
X118127113Y-112595572D01*
X118116500Y-112699447D01*
X118116500Y-113600537D01*
X118116501Y-113600553D01*
X118127113Y-113704427D01*
X118161528Y-113808285D01*
X118182885Y-113872738D01*
X118275970Y-114023652D01*
X118401348Y-114149030D01*
X118552262Y-114242115D01*
X118720574Y-114297887D01*
X118824455Y-114308500D01*
X120175544Y-114308499D01*
X120279426Y-114297887D01*
X120447738Y-114242115D01*
X120598652Y-114149030D01*
X120724030Y-114023652D01*
X120817115Y-113872738D01*
X120818520Y-113868495D01*
X120858291Y-113811052D01*
X120922807Y-113784228D01*
X120936226Y-113783500D01*
X122836234Y-113783500D01*
X122903273Y-113803185D01*
X122923915Y-113819819D01*
X123880181Y-114776085D01*
X123913666Y-114837408D01*
X123916500Y-114863766D01*
X123916500Y-116142500D01*
X123896815Y-116209539D01*
X123844011Y-116255294D01*
X123792500Y-116266500D01*
X123721345Y-116266500D01*
X123660797Y-116273011D01*
X123660795Y-116273011D01*
X123523795Y-116324111D01*
X123406739Y-116411739D01*
X123319111Y-116528795D01*
X123268011Y-116665795D01*
X123268011Y-116665797D01*
X123261500Y-116726345D01*
X123261500Y-117292500D01*
X123241815Y-117359539D01*
X123189011Y-117405294D01*
X123137500Y-117416500D01*
X120730544Y-117416500D01*
X120663505Y-117396815D01*
X120617750Y-117344011D01*
X120607806Y-117274853D01*
X120636831Y-117211297D01*
X120642863Y-117204819D01*
X120675608Y-117172074D01*
X120724030Y-117123652D01*
X120817115Y-116972738D01*
X120872887Y-116804426D01*
X120883500Y-116700545D01*
X120883499Y-115799456D01*
X120872887Y-115695574D01*
X120817115Y-115527262D01*
X120724030Y-115376348D01*
X120598652Y-115250970D01*
X120447738Y-115157885D01*
X120447735Y-115157884D01*
X120279427Y-115102113D01*
X120175552Y-115091500D01*
X120175545Y-115091500D01*
X120051140Y-115091500D01*
X119989945Y-115075348D01*
X119957446Y-115056907D01*
X119875815Y-115008135D01*
X119875811Y-115008133D01*
X119875810Y-115008132D01*
X119872174Y-115006768D01*
X119854562Y-114998528D01*
X119851190Y-114996615D01*
X119851186Y-114996613D01*
X119851182Y-114996611D01*
X119761421Y-114965202D01*
X119672404Y-114931794D01*
X119672400Y-114931793D01*
X119672397Y-114931792D01*
X119672399Y-114931792D01*
X119668578Y-114931099D01*
X119649782Y-114926138D01*
X119646112Y-114924854D01*
X119599147Y-114917415D01*
X119552184Y-114909977D01*
X119532324Y-114906373D01*
X119458636Y-114893000D01*
X119458632Y-114893000D01*
X119454752Y-114893000D01*
X119435355Y-114891473D01*
X119431529Y-114890867D01*
X119431527Y-114890866D01*
X119431522Y-114890866D01*
X119431516Y-114890866D01*
X119431515Y-114890866D01*
X119348325Y-114892733D01*
X119336440Y-114893000D01*
X110971271Y-114893000D01*
X110964330Y-114892610D01*
X110940254Y-114889897D01*
X110927195Y-114888426D01*
X110927189Y-114888425D01*
X110882000Y-114891473D01*
X110861419Y-114892860D01*
X110857264Y-114893000D01*
X110845784Y-114893000D01*
X110805292Y-114896644D01*
X110710423Y-114903040D01*
X110706658Y-114903989D01*
X110687486Y-114907247D01*
X110683615Y-114907595D01*
X110683607Y-114907597D01*
X110591960Y-114932889D01*
X110572700Y-114937742D01*
X110542404Y-114941500D01*
X110324461Y-114941500D01*
X110324446Y-114941501D01*
X110220572Y-114952113D01*
X110052264Y-115007884D01*
X110052259Y-115007886D01*
X109901346Y-115100971D01*
X109775971Y-115226346D01*
X109682886Y-115377259D01*
X109682884Y-115377264D01*
X109627113Y-115545572D01*
X109617900Y-115635743D01*
X109591503Y-115700434D01*
X109582223Y-115710820D01*
X108196918Y-117096125D01*
X108191731Y-117100760D01*
X108162517Y-117124058D01*
X108162514Y-117124061D01*
X108119152Y-117173690D01*
X108116310Y-117176730D01*
X108108192Y-117184850D01*
X108082129Y-117216069D01*
X108019568Y-117287674D01*
X108019566Y-117287677D01*
X108017569Y-117291020D01*
X108006328Y-117306862D01*
X108003847Y-117309834D01*
X108003836Y-117309848D01*
X108003833Y-117309852D01*
X108003833Y-117309853D01*
X107985527Y-117342115D01*
X107956907Y-117392553D01*
X107908132Y-117474189D01*
X107906768Y-117477825D01*
X107898529Y-117495438D01*
X107896608Y-117498822D01*
X107896607Y-117498824D01*
X107865202Y-117588577D01*
X107831792Y-117677600D01*
X107831791Y-117677607D01*
X107831095Y-117681438D01*
X107826143Y-117700201D01*
X107824855Y-117703883D01*
X107824854Y-117703888D01*
X107824854Y-117703889D01*
X107811491Y-117788260D01*
X107809977Y-117797816D01*
X107793000Y-117891365D01*
X107793000Y-117895245D01*
X107791473Y-117914647D01*
X107790865Y-117918478D01*
X107793000Y-118013558D01*
X107793000Y-124769000D01*
X107773315Y-124836039D01*
X107720511Y-124881794D01*
X107669000Y-124893000D01*
X104264821Y-124893000D01*
X104197782Y-124873315D01*
X104165554Y-124843311D01*
X104109925Y-124769000D01*
X104093261Y-124746739D01*
X103976204Y-124659111D01*
X103976203Y-124659110D01*
X103839203Y-124608011D01*
X103778654Y-124601500D01*
X103778638Y-124601500D01*
X99721362Y-124601500D01*
X99721345Y-124601500D01*
X99660797Y-124608011D01*
X99660795Y-124608011D01*
X99523795Y-124659111D01*
X99406739Y-124746739D01*
X99319111Y-124863795D01*
X99268011Y-125000795D01*
X99268011Y-125000797D01*
X99261500Y-125061345D01*
X99261500Y-127138654D01*
X95000500Y-127138654D01*
X95000500Y-110995384D01*
X95020185Y-110928345D01*
X95072989Y-110882590D01*
X95142147Y-110872646D01*
X95205703Y-110901671D01*
X95243477Y-110960449D01*
X95247858Y-110982781D01*
X95252113Y-111024429D01*
X95307885Y-111192740D01*
X95400969Y-111343653D01*
X95526347Y-111469031D01*
X95677260Y-111562115D01*
X95845571Y-111617887D01*
X95949452Y-111628500D01*
X95949455Y-111628500D01*
X97619000Y-111628500D01*
X97686039Y-111648185D01*
X97731794Y-111700989D01*
X97743000Y-111752500D01*
X97743000Y-112878730D01*
X97742610Y-112885668D01*
X97741918Y-112891815D01*
X97738426Y-112922805D01*
X97738425Y-112922811D01*
X97742859Y-112988564D01*
X97743000Y-112992736D01*
X97743000Y-113004214D01*
X97746644Y-113044704D01*
X97753040Y-113139573D01*
X97753040Y-113139575D01*
X97753041Y-113139580D01*
X97753991Y-113143351D01*
X97757247Y-113162514D01*
X97757596Y-113166389D01*
X97757596Y-113166391D01*
X97782895Y-113258057D01*
X97806128Y-113350258D01*
X97807733Y-113353792D01*
X97814362Y-113372074D01*
X97815397Y-113375826D01*
X97845871Y-113439105D01*
X97856666Y-113461521D01*
X97895980Y-113548072D01*
X97895983Y-113548076D01*
X97898189Y-113551261D01*
X97907979Y-113568073D01*
X97909662Y-113571568D01*
X97909665Y-113571574D01*
X97965574Y-113648525D01*
X98019701Y-113726654D01*
X98019705Y-113726659D01*
X98019708Y-113726663D01*
X98019711Y-113726666D01*
X98022450Y-113729405D01*
X98035086Y-113744200D01*
X98037369Y-113747342D01*
X98075949Y-113784228D01*
X98106113Y-113813068D01*
X98514609Y-114221564D01*
X98548094Y-114282887D01*
X98547502Y-114338192D01*
X98505465Y-114513286D01*
X98486835Y-114749999D01*
X98505465Y-114986714D01*
X98560895Y-115217595D01*
X98560895Y-115217597D01*
X98651757Y-115436959D01*
X98651759Y-115436962D01*
X98651760Y-115436963D01*
X98774727Y-115637626D01*
X98793000Y-115702415D01*
X98793000Y-116678730D01*
X98792610Y-116685668D01*
X98790364Y-116705606D01*
X98788426Y-116722805D01*
X98788425Y-116722811D01*
X98792859Y-116788564D01*
X98793000Y-116792736D01*
X98793000Y-116804214D01*
X98796644Y-116844704D01*
X98803040Y-116939573D01*
X98803040Y-116939575D01*
X98803041Y-116939580D01*
X98803991Y-116943351D01*
X98807247Y-116962514D01*
X98807596Y-116966389D01*
X98807596Y-116966391D01*
X98832895Y-117058057D01*
X98856128Y-117150258D01*
X98857733Y-117153792D01*
X98864362Y-117172074D01*
X98865397Y-117175826D01*
X98900651Y-117249030D01*
X98906666Y-117261521D01*
X98945980Y-117348072D01*
X98945983Y-117348076D01*
X98948189Y-117351261D01*
X98957979Y-117368073D01*
X98959662Y-117371568D01*
X98959665Y-117371574D01*
X99015574Y-117448525D01*
X99069701Y-117526654D01*
X99069705Y-117526659D01*
X99069708Y-117526663D01*
X99069711Y-117526666D01*
X99072450Y-117529405D01*
X99085086Y-117544200D01*
X99087369Y-117547342D01*
X99140553Y-117598191D01*
X99156114Y-117613069D01*
X100506681Y-118963636D01*
X100540166Y-119024959D01*
X100543000Y-119051317D01*
X100543000Y-119512637D01*
X100523315Y-119579676D01*
X100470511Y-119625431D01*
X100449440Y-119632843D01*
X100271769Y-119677835D01*
X100044351Y-119777590D01*
X99836448Y-119913420D01*
X99653736Y-120081618D01*
X99653733Y-120081621D01*
X99501209Y-120277584D01*
X99501205Y-120277589D01*
X99383010Y-120495994D01*
X99383008Y-120495999D01*
X99302375Y-120730875D01*
X99269674Y-120926840D01*
X99266112Y-120948196D01*
X99261500Y-120975832D01*
X99261500Y-121224167D01*
X99302375Y-121469124D01*
X99383008Y-121704000D01*
X99383010Y-121704005D01*
X99501205Y-121922410D01*
X99501209Y-121922415D01*
X99653733Y-122118378D01*
X99653735Y-122118380D01*
X99653739Y-122118385D01*
X99836448Y-122286580D01*
X100044348Y-122422408D01*
X100271770Y-122522165D01*
X100512510Y-122583128D01*
X100698019Y-122598500D01*
X100698021Y-122598500D01*
X102801979Y-122598500D01*
X102801981Y-122598500D01*
X102987490Y-122583128D01*
X103228230Y-122522165D01*
X103455652Y-122422408D01*
X103663552Y-122286580D01*
X103846261Y-122118385D01*
X103998794Y-121922411D01*
X104116990Y-121704004D01*
X104197625Y-121469121D01*
X104238500Y-121224169D01*
X104238500Y-120975831D01*
X104197625Y-120730879D01*
X104116990Y-120495996D01*
X103998794Y-120277589D01*
X103916638Y-120172035D01*
X103846266Y-120081621D01*
X103846263Y-120081618D01*
X103846261Y-120081615D01*
X103663552Y-119913420D01*
X103455652Y-119777592D01*
X103455649Y-119777590D01*
X103455648Y-119777590D01*
X103228230Y-119677835D01*
X103050560Y-119632843D01*
X102990404Y-119597303D01*
X102959012Y-119534883D01*
X102957000Y-119512637D01*
X102957000Y-118571269D01*
X102957389Y-118564332D01*
X102961574Y-118527193D01*
X102961502Y-118526130D01*
X102959738Y-118499955D01*
X102957139Y-118461418D01*
X102957000Y-118457263D01*
X102957000Y-118445794D01*
X102957000Y-118445789D01*
X102953355Y-118405293D01*
X102946959Y-118310421D01*
X102946014Y-118306673D01*
X102942750Y-118287464D01*
X102942404Y-118283611D01*
X102917110Y-118191961D01*
X102893873Y-118099742D01*
X102893872Y-118099738D01*
X102892266Y-118096203D01*
X102885634Y-118077914D01*
X102884603Y-118074176D01*
X102843350Y-117988514D01*
X102804021Y-117901928D01*
X102801812Y-117898740D01*
X102792016Y-117881917D01*
X102790336Y-117878428D01*
X102788491Y-117875889D01*
X102734434Y-117801487D01*
X102714524Y-117772748D01*
X102680292Y-117723337D01*
X102677551Y-117720596D01*
X102664915Y-117705801D01*
X102662634Y-117702662D01*
X102662632Y-117702660D01*
X102662631Y-117702658D01*
X102593885Y-117636930D01*
X101919469Y-116962514D01*
X101243319Y-116286363D01*
X101209834Y-116225040D01*
X101207000Y-116198682D01*
X101207000Y-115702415D01*
X101225272Y-115637626D01*
X101348240Y-115436963D01*
X101369305Y-115386109D01*
X101439104Y-115217597D01*
X101439104Y-115217596D01*
X101439105Y-115217594D01*
X101494535Y-114986711D01*
X101513165Y-114750000D01*
X101494535Y-114513289D01*
X101439105Y-114282406D01*
X101439104Y-114282403D01*
X101439104Y-114282402D01*
X101348242Y-114063040D01*
X101348240Y-114063037D01*
X101224179Y-113860589D01*
X101224176Y-113860584D01*
X101222351Y-113858447D01*
X101221679Y-113857148D01*
X101221316Y-113856648D01*
X101221392Y-113856592D01*
X101196421Y-113808285D01*
X101196388Y-113808157D01*
X101196024Y-113806711D01*
X101192750Y-113787462D01*
X101192404Y-113783611D01*
X101167104Y-113691942D01*
X101143872Y-113599742D01*
X101142268Y-113596212D01*
X101135634Y-113577913D01*
X101134603Y-113574176D01*
X101127428Y-113559278D01*
X101093333Y-113488478D01*
X101093332Y-113488478D01*
X101054020Y-113401928D01*
X101054014Y-113401919D01*
X101051812Y-113398740D01*
X101042023Y-113381930D01*
X101040338Y-113378431D01*
X101040337Y-113378429D01*
X100984433Y-113301485D01*
X100930291Y-113223335D01*
X100927549Y-113220593D01*
X100914908Y-113205791D01*
X100912635Y-113202663D01*
X100912633Y-113202661D01*
X100912631Y-113202658D01*
X100843907Y-113136951D01*
X100544440Y-112837484D01*
X100193319Y-112486362D01*
X100159834Y-112425039D01*
X100157000Y-112398681D01*
X100157000Y-111752500D01*
X100176685Y-111685461D01*
X100229489Y-111639706D01*
X100281000Y-111628500D01*
X101950543Y-111628500D01*
X101950548Y-111628500D01*
X102054429Y-111617887D01*
X102222740Y-111562115D01*
X102373653Y-111469031D01*
X102499031Y-111343653D01*
X102592115Y-111192740D01*
X102647887Y-111024429D01*
X102658500Y-110920548D01*
X102658500Y-110900537D01*
X103641500Y-110900537D01*
X103641501Y-110900553D01*
X103652113Y-111004427D01*
X103707884Y-111172735D01*
X103707886Y-111172740D01*
X103733111Y-111213636D01*
X103800970Y-111323652D01*
X103926348Y-111449030D01*
X104077262Y-111542115D01*
X104245574Y-111597887D01*
X104349455Y-111608500D01*
X106150544Y-111608499D01*
X106254426Y-111597887D01*
X106422738Y-111542115D01*
X106573652Y-111449030D01*
X106699030Y-111323652D01*
X106792115Y-111172738D01*
X106847887Y-111004426D01*
X106858500Y-110900545D01*
X106858499Y-110099456D01*
X106847887Y-109995574D01*
X106822773Y-109919786D01*
X106820372Y-109849960D01*
X106852796Y-109793107D01*
X106976086Y-109669817D01*
X107037409Y-109636334D01*
X107063766Y-109633500D01*
X109853430Y-109633500D01*
X109920469Y-109653185D01*
X109958968Y-109692403D01*
X110045712Y-109833036D01*
X110045715Y-109833040D01*
X110166959Y-109954284D01*
X110166963Y-109954287D01*
X110307597Y-110041032D01*
X110354322Y-110092980D01*
X110366500Y-110146570D01*
X110366500Y-111725227D01*
X110346815Y-111792266D01*
X110294011Y-111838021D01*
X110255104Y-111848585D01*
X110220572Y-111852113D01*
X110052264Y-111907884D01*
X110052259Y-111907886D01*
X109901346Y-112000971D01*
X109775971Y-112126346D01*
X109682886Y-112277259D01*
X109682884Y-112277264D01*
X109627113Y-112445572D01*
X109616500Y-112549447D01*
X109616500Y-113450537D01*
X109616501Y-113450553D01*
X109627113Y-113554427D01*
X109658294Y-113648525D01*
X109682885Y-113722738D01*
X109775970Y-113873652D01*
X109901348Y-113999030D01*
X110052262Y-114092115D01*
X110220574Y-114147887D01*
X110324455Y-114158500D01*
X111675544Y-114158499D01*
X111779426Y-114147887D01*
X111947738Y-114092115D01*
X112098652Y-113999030D01*
X112224030Y-113873652D01*
X112317115Y-113722738D01*
X112336893Y-113663051D01*
X113866500Y-113663051D01*
X113877113Y-113766928D01*
X113932883Y-113935235D01*
X113932884Y-113935238D01*
X114025967Y-114086147D01*
X114025970Y-114086151D01*
X114151348Y-114211529D01*
X114151352Y-114211532D01*
X114302261Y-114304615D01*
X114302264Y-114304616D01*
X114470571Y-114360386D01*
X114470572Y-114360386D01*
X114470575Y-114360387D01*
X114574456Y-114371000D01*
X114574461Y-114371000D01*
X115925539Y-114371000D01*
X115925544Y-114371000D01*
X116029425Y-114360387D01*
X116197738Y-114304615D01*
X116348651Y-114211530D01*
X116474030Y-114086151D01*
X116567115Y-113935238D01*
X116622887Y-113766925D01*
X116633500Y-113663044D01*
X116633500Y-112636956D01*
X116622887Y-112533075D01*
X116622886Y-112533071D01*
X116567116Y-112364764D01*
X116567115Y-112364761D01*
X116474032Y-112213852D01*
X116474029Y-112213848D01*
X116348651Y-112088470D01*
X116348647Y-112088467D01*
X116197738Y-111995384D01*
X116197735Y-111995383D01*
X116029428Y-111939613D01*
X115994896Y-111936085D01*
X115930204Y-111909688D01*
X115890054Y-111852506D01*
X115883500Y-111812727D01*
X115883500Y-111122684D01*
X115883500Y-110274768D01*
X115903184Y-110207733D01*
X115955987Y-110161978D01*
X115994896Y-110151414D01*
X116029426Y-110147887D01*
X116197738Y-110092115D01*
X116348652Y-109999030D01*
X116474030Y-109873652D01*
X116567115Y-109722738D01*
X116622887Y-109554426D01*
X116633500Y-109450545D01*
X116633499Y-108549456D01*
X116622887Y-108445574D01*
X116567115Y-108277262D01*
X116474030Y-108126348D01*
X116348652Y-108000970D01*
X116228915Y-107927115D01*
X116197740Y-107907886D01*
X116197735Y-107907884D01*
X116029427Y-107852113D01*
X115925545Y-107841500D01*
X114574462Y-107841500D01*
X114574446Y-107841501D01*
X114470572Y-107852113D01*
X114302264Y-107907884D01*
X114302259Y-107907886D01*
X114151346Y-108000971D01*
X114025971Y-108126346D01*
X113932886Y-108277259D01*
X113932884Y-108277264D01*
X113877113Y-108445572D01*
X113866500Y-108549447D01*
X113866500Y-109450537D01*
X113866501Y-109450553D01*
X113877113Y-109554427D01*
X113917513Y-109676348D01*
X113932885Y-109722738D01*
X114025970Y-109873652D01*
X114151348Y-109999030D01*
X114302262Y-110092115D01*
X114470574Y-110147887D01*
X114470572Y-110147887D01*
X114478933Y-110148741D01*
X114505102Y-110151414D01*
X114569793Y-110177809D01*
X114609945Y-110234989D01*
X114616500Y-110274772D01*
X114616499Y-111812727D01*
X114596814Y-111879767D01*
X114544010Y-111925521D01*
X114505104Y-111936085D01*
X114470571Y-111939613D01*
X114302264Y-111995383D01*
X114302261Y-111995384D01*
X114151352Y-112088467D01*
X114151348Y-112088470D01*
X114025970Y-112213848D01*
X114025967Y-112213852D01*
X113932884Y-112364761D01*
X113932883Y-112364764D01*
X113877113Y-112533071D01*
X113866500Y-112636948D01*
X113866500Y-113663051D01*
X112336893Y-113663051D01*
X112372887Y-113554426D01*
X112383500Y-113450545D01*
X112383499Y-112549456D01*
X112372887Y-112445574D01*
X112317115Y-112277262D01*
X112224030Y-112126348D01*
X112098652Y-112000970D01*
X111981971Y-111929000D01*
X111947740Y-111907886D01*
X111947735Y-111907884D01*
X111779426Y-111852112D01*
X111744896Y-111848585D01*
X111680204Y-111822188D01*
X111640053Y-111765007D01*
X111633499Y-111725227D01*
X111633499Y-110960449D01*
X111633499Y-110146566D01*
X111653184Y-110079531D01*
X111692398Y-110041034D01*
X111833040Y-109954285D01*
X111954285Y-109833040D01*
X112044302Y-109687101D01*
X112098236Y-109524336D01*
X112108500Y-109423872D01*
X112108500Y-108876128D01*
X112098236Y-108775664D01*
X112044302Y-108612899D01*
X112044298Y-108612893D01*
X112044297Y-108612890D01*
X111954287Y-108466963D01*
X111954284Y-108466959D01*
X111833040Y-108345715D01*
X111833036Y-108345712D01*
X111687109Y-108255702D01*
X111687103Y-108255699D01*
X111687101Y-108255698D01*
X111524336Y-108201764D01*
X111524335Y-108201764D01*
X111423879Y-108191500D01*
X111423872Y-108191500D01*
X110576128Y-108191500D01*
X110576120Y-108191500D01*
X110475663Y-108201764D01*
X110312901Y-108255697D01*
X110312890Y-108255702D01*
X110163193Y-108348038D01*
X110098096Y-108366500D01*
X106833629Y-108366500D01*
X106817886Y-108364761D01*
X106817861Y-108365033D01*
X106810093Y-108364298D01*
X106740060Y-108366500D01*
X106710142Y-108366500D01*
X106703136Y-108367384D01*
X106697318Y-108367842D01*
X106650111Y-108369326D01*
X106650108Y-108369327D01*
X106630505Y-108375022D01*
X106611459Y-108378966D01*
X106591203Y-108381526D01*
X106591201Y-108381526D01*
X106591199Y-108381527D01*
X106547282Y-108398914D01*
X106541756Y-108400806D01*
X106496406Y-108413982D01*
X106478833Y-108424374D01*
X106461370Y-108432929D01*
X106442385Y-108440446D01*
X106442383Y-108440447D01*
X106404179Y-108468204D01*
X106399296Y-108471412D01*
X106358637Y-108495458D01*
X106344196Y-108509898D01*
X106329408Y-108522527D01*
X106312897Y-108534523D01*
X106312892Y-108534528D01*
X106282790Y-108570914D01*
X106278858Y-108575236D01*
X105498912Y-109355181D01*
X105437589Y-109388666D01*
X105411231Y-109391500D01*
X104349462Y-109391500D01*
X104349446Y-109391501D01*
X104245572Y-109402113D01*
X104077264Y-109457884D01*
X104077259Y-109457886D01*
X103926346Y-109550971D01*
X103800971Y-109676346D01*
X103707886Y-109827259D01*
X103707884Y-109827264D01*
X103652113Y-109995572D01*
X103641500Y-110099447D01*
X103641500Y-110900537D01*
X102658500Y-110900537D01*
X102658500Y-105519452D01*
X102647887Y-105415571D01*
X102592115Y-105247260D01*
X102499031Y-105096347D01*
X102373653Y-104970969D01*
X102222740Y-104877885D01*
X102054429Y-104822113D01*
X102054047Y-104822074D01*
X101950555Y-104811500D01*
X101950548Y-104811500D01*
X95949452Y-104811500D01*
X95949444Y-104811500D01*
X95845570Y-104822113D01*
X95677262Y-104877884D01*
X95677257Y-104877886D01*
X95526345Y-104970970D01*
X95400970Y-105096345D01*
X95307886Y-105247257D01*
X95307884Y-105247262D01*
X95252113Y-105415570D01*
X95247858Y-105457218D01*
X95221462Y-105521910D01*
X95164281Y-105562061D01*
X95094470Y-105564924D01*
X95034193Y-105529589D01*
X95002588Y-105467276D01*
X95000500Y-105444615D01*
X95000500Y-100067763D01*
X98145787Y-100067763D01*
X98175413Y-100337013D01*
X98175415Y-100337024D01*
X98243926Y-100599082D01*
X98243928Y-100599088D01*
X98349870Y-100848390D01*
X98421998Y-100966575D01*
X98490979Y-101079605D01*
X98490986Y-101079615D01*
X98664253Y-101287819D01*
X98664259Y-101287824D01*
X98865998Y-101468582D01*
X99091910Y-101618044D01*
X99337176Y-101733020D01*
X99337183Y-101733022D01*
X99337185Y-101733023D01*
X99596557Y-101811057D01*
X99596564Y-101811058D01*
X99596569Y-101811060D01*
X99864561Y-101850500D01*
X99864566Y-101850500D01*
X100067636Y-101850500D01*
X100119133Y-101846730D01*
X100270156Y-101835677D01*
X100382758Y-101810593D01*
X100534546Y-101776782D01*
X100534548Y-101776781D01*
X100534553Y-101776780D01*
X100787558Y-101680014D01*
X101023777Y-101547441D01*
X101238177Y-101381888D01*
X101426186Y-101186881D01*
X101583799Y-100966579D01*
X101695150Y-100750000D01*
X101707649Y-100725690D01*
X101707651Y-100725684D01*
X101707656Y-100725675D01*
X101795118Y-100469305D01*
X101844319Y-100202933D01*
X101854212Y-99932235D01*
X101824586Y-99662982D01*
X101756072Y-99400912D01*
X101650130Y-99151610D01*
X101509018Y-98920390D01*
X101498444Y-98907684D01*
X101335746Y-98712180D01*
X101335740Y-98712175D01*
X101134002Y-98531418D01*
X100908092Y-98381957D01*
X100821448Y-98341340D01*
X100662824Y-98266980D01*
X100662819Y-98266978D01*
X100662814Y-98266976D01*
X100403442Y-98188942D01*
X100403428Y-98188939D01*
X100287791Y-98171921D01*
X100135439Y-98149500D01*
X99932369Y-98149500D01*
X99932364Y-98149500D01*
X99729844Y-98164323D01*
X99729831Y-98164325D01*
X99465453Y-98223217D01*
X99465446Y-98223220D01*
X99212439Y-98319987D01*
X98976226Y-98452557D01*
X98761822Y-98618112D01*
X98573822Y-98813109D01*
X98573816Y-98813116D01*
X98416202Y-99033419D01*
X98416199Y-99033424D01*
X98292350Y-99274309D01*
X98292343Y-99274327D01*
X98204884Y-99530685D01*
X98204881Y-99530699D01*
X98195938Y-99579115D01*
X98156400Y-99793178D01*
X98155681Y-99797068D01*
X98155680Y-99797075D01*
X98145787Y-100067763D01*
X95000500Y-100067763D01*
X95000500Y-100000000D01*
X95003303Y-99932235D01*
X95009493Y-99782569D01*
X95018160Y-99584061D01*
X95018574Y-99579138D01*
X95045487Y-99363223D01*
X95071884Y-99162726D01*
X95072669Y-99158114D01*
X95117191Y-98945778D01*
X95161160Y-98747451D01*
X95162253Y-98743235D01*
X95224112Y-98535457D01*
X95285324Y-98341320D01*
X95286673Y-98337488D01*
X95365469Y-98135551D01*
X95443499Y-97947170D01*
X95445033Y-97943771D01*
X95514381Y-97801920D01*
X95540249Y-97749007D01*
X95573419Y-97685284D01*
X95634494Y-97567960D01*
X95636207Y-97564891D01*
X95747211Y-97378601D01*
X95856972Y-97206313D01*
X95858765Y-97203656D01*
X95984856Y-97027054D01*
X96109313Y-96864861D01*
X96111135Y-96862601D01*
X96251448Y-96696933D01*
X96390563Y-96545115D01*
X96545115Y-96390563D01*
X96696933Y-96251448D01*
X96862601Y-96111135D01*
X96864861Y-96109313D01*
X97027054Y-95984856D01*
X97203656Y-95858765D01*
X97206313Y-95856972D01*
X97378601Y-95747211D01*
X97564900Y-95636201D01*
X97567960Y-95634494D01*
X97685284Y-95573419D01*
X97749007Y-95540249D01*
X97823655Y-95503755D01*
X97943771Y-95445033D01*
X97947170Y-95443499D01*
X98135551Y-95365469D01*
X98337488Y-95286673D01*
X98341320Y-95285324D01*
X98535457Y-95224112D01*
X98743235Y-95162253D01*
X98747451Y-95161160D01*
X98945778Y-95117191D01*
X99158114Y-95072669D01*
X99162726Y-95071884D01*
X99363223Y-95045487D01*
X99579138Y-95018574D01*
X99584061Y-95018160D01*
X99782569Y-95009493D01*
X100000000Y-95000500D01*
X100000500Y-95000500D01*
X164999500Y-95000500D01*
X165000000Y-95000500D01*
X165217318Y-95009488D01*
G37*
%TD.AperFunction*%
%TD*%
M02*
