M48
; DRILL file {KiCad 7.0.7} date Wed 30 Aug 2023 03:56:51 PM
; FORMAT={-:-/ absolute / metric / decimal}
; #@! TF.CreationDate,2023-08-30T15:56:51-04:00
; #@! TF.GenerationSoftware,Kicad,Pcbnew,7.0.7
; #@! TF.FileFunction,MixedPlating,1,2
FMAT,2
METRIC
; #@! TA.AperFunction,Plated,PTH,ViaDrill
T1C0.400
; #@! TA.AperFunction,Plated,PTH,ComponentDrill
T2C1.000
; #@! TA.AperFunction,Plated,PTH,ComponentDrill
T3C1.320
; #@! TA.AperFunction,NonPlated,NPTH,ComponentDrill
T4C3.200
%
G90
G05
T1
X95.75Y-134.0
X96.0Y-99.0
X96.0Y-103.25
X96.0Y-114.0
X96.0Y-118.75
X96.0Y-126.5
X99.0Y-96.0
X100.0Y-139.25
X104.0Y-112.75
X104.0Y-116.75
X106.75Y-132.25
X107.0Y-139.25
X107.5Y-97.25
X107.5Y-102.75
X107.5Y-116.75
X109.0Y-110.75
X111.5Y-118.75
X111.5Y-125.5
X113.0Y-110.75
X115.0Y-97.25
X115.0Y-102.75
X117.25Y-110.75
X117.25Y-130.25
X118.25Y-118.75
X121.5Y-139.25
X121.75Y-110.5
X122.25Y-115.25
X123.0Y-125.25
X123.25Y-97.25
X123.25Y-103.0
X124.5Y-110.5
X125.5Y-112.75
X127.0Y-106.75
X128.5Y-121.0
X128.75Y-109.0
X128.75Y-115.25
X128.75Y-131.25
X130.25Y-103.25
X130.5Y-139.25
X131.5Y-97.25
X131.5Y-117.0
X134.75Y-131.75
X137.5Y-103.0
X139.25Y-117.0
X140.0Y-97.25
X140.5Y-131.75
X141.25Y-139.25
X145.25Y-101.75
X146.0Y-133.25
X146.0Y-137.75
X148.5Y-97.25
X148.5Y-117.0
X149.5Y-113.5
X149.5Y-120.75
X149.75Y-128.25
X150.0Y-107.25
X153.25Y-139.5
X154.75Y-125.75
X157.75Y-107.0
X158.75Y-114.5
X159.0Y-119.5
X161.25Y-104.0
X161.25Y-130.75
X163.5Y-96.0
X165.5Y-139.5
X168.5Y-97.5
X169.25Y-101.5
X169.25Y-106.75
X169.25Y-115.0
X169.25Y-123.75
X169.25Y-134.5
T2
X100.0Y-114.75
X153.75Y-112.0
X153.75Y-117.0
X154.0Y-122.0
T3
X101.75Y-121.1
X101.75Y-126.1
X163.24Y-111.955
X163.24Y-116.955
X163.24Y-121.955
T4
X100.0Y-100.0
X100.0Y-135.0
X165.0Y-100.0
X165.0Y-135.0
T0
M30
