M48
; DRILL file {KiCad 8.0.0} date 2024-05-07T14:35:34-0400
; FORMAT={-:-/ absolute / metric / decimal}
; #@! TF.CreationDate,2024-05-07T14:35:34-04:00
; #@! TF.GenerationSoftware,Kicad,Pcbnew,8.0.0
; #@! TF.FileFunction,MixedPlating,1,2
FMAT,2
METRIC
; #@! TA.AperFunction,Plated,PTH,ViaDrill
T1C0.300
; #@! TA.AperFunction,Plated,PTH,ViaDrill
T2C0.400
; #@! TA.AperFunction,Plated,PTH,ComponentDrill
T3C1.000
; #@! TA.AperFunction,Plated,PTH,ComponentDrill
T4C1.320
; #@! TA.AperFunction,NonPlated,NPTH,ComponentDrill
T5C3.200
%
G90
G05
T1
X178.0Y-78.0
X178.5Y-68.5
X178.5Y-71.5
X186.5Y-75.0
T2
X152.5Y-52.5
X152.5Y-57.5
X152.5Y-72.5
X152.5Y-77.5
X152.5Y-82.5
X152.5Y-87.5
X152.5Y-92.5
X157.5Y-52.5
X157.5Y-57.5
X157.5Y-82.5
X157.5Y-87.5
X157.5Y-92.5
X158.0Y-69.0
X158.0Y-75.0
X160.0Y-65.0
X162.5Y-52.5
X162.5Y-57.5
X162.5Y-65.0
X162.5Y-82.5
X162.5Y-87.5
X163.0Y-71.0
X163.0Y-75.0
X165.0Y-67.5
X165.0Y-87.5
X165.0Y-92.5
X167.5Y-52.5
X167.5Y-62.5
X167.5Y-82.5
X169.5Y-74.5
X170.0Y-65.0
X170.0Y-67.5
X170.0Y-87.5
X170.0Y-92.5
X172.5Y-62.5
X172.5Y-82.5
X173.5Y-94.0
X177.5Y-52.5
X177.5Y-57.5
X178.0Y-94.0
X179.0Y-79.5
X180.0Y-65.0
X182.5Y-52.5
X182.5Y-55.5
X182.5Y-62.5
X183.0Y-94.0
X183.5Y-73.5
X187.5Y-52.5
X187.5Y-55.5
X187.5Y-67.5
X187.5Y-87.5
X187.5Y-94.0
X188.0Y-73.5
X190.0Y-62.5
X190.0Y-67.5
X190.0Y-82.5
X192.5Y-52.5
X192.5Y-55.5
X192.5Y-72.5
X192.5Y-87.5
X192.5Y-94.0
X195.0Y-72.5
X197.5Y-52.5
X197.5Y-55.5
X197.5Y-87.5
X198.0Y-94.0
X202.5Y-52.5
X202.5Y-92.5
X205.0Y-57.5
X207.5Y-52.5
X210.0Y-57.5
X210.0Y-62.5
X210.0Y-82.5
X210.0Y-87.5
X210.0Y-92.5
X212.5Y-52.5
X212.5Y-65.0
X212.5Y-72.5
X217.5Y-52.5
X217.5Y-57.5
X217.5Y-62.5
X217.5Y-65.0
X217.5Y-87.5
X217.5Y-92.5
X218.5Y-80.5
X222.5Y-52.5
X222.5Y-57.5
X222.5Y-72.5
X222.5Y-77.5
X222.5Y-87.5
X222.5Y-92.5
T3
X160.5Y-59.5
X186.0Y-80.5
X201.0Y-54.5
X222.0Y-60.5
X222.0Y-84.5
T4
X157.0Y-72.5
X157.0Y-77.5
X218.0Y-68.0
X218.0Y-73.0
X218.0Y-78.0
T5
X155.0Y-55.0
X155.0Y-90.0
X220.0Y-55.0
X220.0Y-90.0
M30
