%TF.GenerationSoftware,KiCad,Pcbnew,8.0.0*%
%TF.CreationDate,2024-05-07T14:34:52-04:00*%
%TF.ProjectId,RailSplitter,5261696c-5370-46c6-9974-7465722e6b69,rev?*%
%TF.SameCoordinates,Original*%
%TF.FileFunction,Copper,L2,Bot*%
%TF.FilePolarity,Positive*%
%FSLAX46Y46*%
G04 Gerber Fmt 4.6, Leading zero omitted, Abs format (unit mm)*
G04 Created by KiCad (PCBNEW 8.0.0) date 2024-05-07 14:34:52*
%MOMM*%
%LPD*%
G01*
G04 APERTURE LIST*
%TA.AperFunction,ComponentPad*%
%ADD10C,2.000000*%
%TD*%
%TA.AperFunction,ComponentPad*%
%ADD11R,3.960000X1.980000*%
%TD*%
%TA.AperFunction,ComponentPad*%
%ADD12O,3.960000X1.980000*%
%TD*%
%TA.AperFunction,ViaPad*%
%ADD13C,0.500000*%
%TD*%
%TA.AperFunction,ViaPad*%
%ADD14C,0.800000*%
%TD*%
%TA.AperFunction,Conductor*%
%ADD15C,0.250000*%
%TD*%
G04 APERTURE END LIST*
D10*
%TO.P,TP2,1,1*%
%TO.N,VCC*%
X222000000Y-60500000D03*
%TD*%
D11*
%TO.P,J1,1,Pin_1*%
%TO.N,/PWRIN*%
X157000000Y-72500000D03*
D12*
%TO.P,J1,2,Pin_2*%
%TO.N,VEE*%
X157000000Y-77500000D03*
%TD*%
D10*
%TO.P,TP5,1,1*%
%TO.N,Net-(U1B--)*%
X186000000Y-80500000D03*
%TD*%
D11*
%TO.P,J2,1,Pin_1*%
%TO.N,VEE*%
X218000000Y-78000000D03*
D12*
%TO.P,J2,2,Pin_2*%
%TO.N,GND*%
X218000000Y-73000000D03*
%TO.P,J2,3,Pin_3*%
%TO.N,VCC*%
X218000000Y-68000000D03*
%TD*%
D10*
%TO.P,TP3,1,1*%
%TO.N,GND*%
X201000000Y-54500000D03*
%TD*%
%TO.P,TP4,1,1*%
%TO.N,VEE*%
X222000000Y-84500000D03*
%TD*%
%TO.P,TP1,1,1*%
%TO.N,/PWRIN*%
X160500000Y-59500000D03*
%TD*%
D13*
%TO.N,VCC*%
X178500000Y-68500000D03*
X186500000Y-75000000D03*
D14*
%TO.N,GND*%
X183000000Y-94000000D03*
X222500000Y-77500000D03*
X222500000Y-87500000D03*
X163000000Y-75000000D03*
X210000000Y-82500000D03*
X162500000Y-57500000D03*
X172500000Y-62500000D03*
X172500000Y-82500000D03*
X198000000Y-94000000D03*
X222500000Y-72500000D03*
X157500000Y-82500000D03*
X197500000Y-87500000D03*
X152500000Y-72500000D03*
X218500000Y-80500000D03*
X170000000Y-67500000D03*
X182500000Y-55500000D03*
X210000000Y-92500000D03*
X187500000Y-87500000D03*
X158000000Y-75000000D03*
X187500000Y-67500000D03*
X210000000Y-87500000D03*
X152500000Y-82500000D03*
X158000000Y-69000000D03*
X157500000Y-87500000D03*
X192500000Y-55500000D03*
X177500000Y-57500000D03*
X210000000Y-57500000D03*
X202500000Y-92500000D03*
X183500000Y-73500000D03*
X190000000Y-67500000D03*
X152500000Y-87500000D03*
X162500000Y-52500000D03*
X217500000Y-87500000D03*
X167500000Y-82500000D03*
X165000000Y-92500000D03*
X190000000Y-62500000D03*
X170000000Y-87500000D03*
X152500000Y-57500000D03*
X187500000Y-94000000D03*
X192500000Y-72500000D03*
X157500000Y-92500000D03*
X197500000Y-52500000D03*
X212500000Y-52500000D03*
X217500000Y-65000000D03*
X207500000Y-52500000D03*
X170000000Y-65000000D03*
X157500000Y-57500000D03*
X217500000Y-92500000D03*
X212500000Y-65000000D03*
X152500000Y-52500000D03*
X202500000Y-52500000D03*
X217500000Y-57500000D03*
X182500000Y-52500000D03*
X210000000Y-62500000D03*
X205000000Y-57500000D03*
X187500000Y-55500000D03*
X162500000Y-87500000D03*
X167500000Y-52500000D03*
X173500000Y-94000000D03*
X169500000Y-74500000D03*
X163000000Y-71000000D03*
X197500000Y-55500000D03*
X178000000Y-94000000D03*
X217500000Y-52500000D03*
X162500000Y-82500000D03*
X162500000Y-65000000D03*
X190000000Y-82500000D03*
X160000000Y-65000000D03*
X192500000Y-52500000D03*
X157500000Y-52500000D03*
X188000000Y-73500000D03*
X167500000Y-62500000D03*
X180000000Y-65000000D03*
X192500000Y-87500000D03*
X165000000Y-87500000D03*
X212500000Y-72500000D03*
X170000000Y-92500000D03*
X165000000Y-67500000D03*
X152500000Y-92500000D03*
X222500000Y-52500000D03*
X195000000Y-72500000D03*
X182500000Y-62500000D03*
X222500000Y-92500000D03*
X179000000Y-79500000D03*
X177500000Y-52500000D03*
X222500000Y-57500000D03*
X187500000Y-52500000D03*
X192500000Y-94000000D03*
X217500000Y-62500000D03*
X152500000Y-77500000D03*
D13*
%TO.N,VEE*%
X178000000Y-78000000D03*
X178500000Y-71500000D03*
%TD*%
D15*
%TO.N,VCC*%
X185500000Y-68500000D02*
X186500000Y-69500000D01*
X178500000Y-68500000D02*
X185500000Y-68500000D01*
X186500000Y-69500000D02*
X186500000Y-75000000D01*
%TO.N,VEE*%
X178000000Y-72000000D02*
X178500000Y-71500000D01*
X178000000Y-77500000D02*
X178000000Y-72000000D01*
X178000000Y-78000000D02*
X178000000Y-77500000D01*
%TD*%
%TA.AperFunction,Conductor*%
%TO.N,GND*%
G36*
X220000641Y-50000006D02*
G01*
X220213481Y-50002328D01*
X220222915Y-50002792D01*
X220647552Y-50039943D01*
X220658270Y-50041354D01*
X221077393Y-50115256D01*
X221087921Y-50117590D01*
X221499033Y-50227747D01*
X221509322Y-50230992D01*
X221909255Y-50376555D01*
X221919221Y-50380683D01*
X222304942Y-50560547D01*
X222314528Y-50565538D01*
X222683088Y-50778326D01*
X222692207Y-50784135D01*
X223040820Y-51028237D01*
X223049402Y-51034822D01*
X223375420Y-51308383D01*
X223383395Y-51315692D01*
X223684307Y-51616604D01*
X223691616Y-51624579D01*
X223965177Y-51950597D01*
X223971762Y-51959179D01*
X224215864Y-52307792D01*
X224221676Y-52316916D01*
X224434459Y-52685467D01*
X224439454Y-52695062D01*
X224600728Y-53040916D01*
X224619310Y-53080764D01*
X224623448Y-53090756D01*
X224679206Y-53243947D01*
X224769003Y-53490664D01*
X224772256Y-53500980D01*
X224882405Y-53912061D01*
X224884746Y-53922623D01*
X224958644Y-54341725D01*
X224960056Y-54352450D01*
X224997206Y-54777073D01*
X224997671Y-54786527D01*
X224999993Y-54999357D01*
X225000000Y-55000710D01*
X225000000Y-89999289D01*
X224999993Y-90000642D01*
X224997671Y-90213472D01*
X224997206Y-90222926D01*
X224960056Y-90647549D01*
X224958644Y-90658274D01*
X224884746Y-91077376D01*
X224882405Y-91087938D01*
X224772256Y-91499019D01*
X224769003Y-91509335D01*
X224623450Y-91909240D01*
X224619310Y-91919235D01*
X224439454Y-92304937D01*
X224434459Y-92314532D01*
X224221676Y-92683083D01*
X224215864Y-92692207D01*
X223971762Y-93040820D01*
X223965177Y-93049402D01*
X223691616Y-93375420D01*
X223684307Y-93383395D01*
X223383395Y-93684307D01*
X223375420Y-93691616D01*
X223049402Y-93965177D01*
X223040820Y-93971762D01*
X222692207Y-94215864D01*
X222683083Y-94221676D01*
X222314532Y-94434459D01*
X222304937Y-94439454D01*
X221919235Y-94619310D01*
X221909240Y-94623450D01*
X221509335Y-94769003D01*
X221499019Y-94772256D01*
X221087938Y-94882405D01*
X221077376Y-94884746D01*
X220658274Y-94958644D01*
X220647549Y-94960056D01*
X220222926Y-94997206D01*
X220213472Y-94997671D01*
X220005455Y-94999940D01*
X220000640Y-94999993D01*
X219999290Y-95000000D01*
X155000710Y-95000000D01*
X154999359Y-94999993D01*
X154994454Y-94999939D01*
X154786527Y-94997671D01*
X154777073Y-94997206D01*
X154352450Y-94960056D01*
X154341725Y-94958644D01*
X153922623Y-94884746D01*
X153912061Y-94882405D01*
X153500980Y-94772256D01*
X153490664Y-94769003D01*
X153090759Y-94623450D01*
X153080764Y-94619310D01*
X152695062Y-94439454D01*
X152685467Y-94434459D01*
X152316916Y-94221676D01*
X152307792Y-94215864D01*
X151959179Y-93971762D01*
X151950597Y-93965177D01*
X151624579Y-93691616D01*
X151616604Y-93684307D01*
X151315692Y-93383395D01*
X151308383Y-93375420D01*
X151034822Y-93049402D01*
X151028237Y-93040820D01*
X150784135Y-92692207D01*
X150778323Y-92683083D01*
X150565540Y-92314532D01*
X150560545Y-92304937D01*
X150380683Y-91919221D01*
X150376555Y-91909255D01*
X150230992Y-91509322D01*
X150227747Y-91499033D01*
X150117590Y-91087921D01*
X150115256Y-91077393D01*
X150041354Y-90658270D01*
X150039943Y-90647549D01*
X150002793Y-90222926D01*
X150002328Y-90213471D01*
X150001323Y-90121288D01*
X153149500Y-90121288D01*
X153181161Y-90361785D01*
X153243947Y-90596104D01*
X153269699Y-90658274D01*
X153336776Y-90820212D01*
X153458064Y-91030289D01*
X153458066Y-91030292D01*
X153458067Y-91030293D01*
X153605733Y-91222736D01*
X153605739Y-91222743D01*
X153777256Y-91394260D01*
X153777262Y-91394265D01*
X153969711Y-91541936D01*
X154179788Y-91663224D01*
X154403900Y-91756054D01*
X154638211Y-91818838D01*
X154818586Y-91842584D01*
X154878711Y-91850500D01*
X154878712Y-91850500D01*
X155121289Y-91850500D01*
X155169388Y-91844167D01*
X155361789Y-91818838D01*
X155596100Y-91756054D01*
X155820212Y-91663224D01*
X156030289Y-91541936D01*
X156222738Y-91394265D01*
X156394265Y-91222738D01*
X156541936Y-91030289D01*
X156663224Y-90820212D01*
X156756054Y-90596100D01*
X156818838Y-90361789D01*
X156850500Y-90121288D01*
X218149500Y-90121288D01*
X218181161Y-90361785D01*
X218243947Y-90596104D01*
X218269699Y-90658274D01*
X218336776Y-90820212D01*
X218458064Y-91030289D01*
X218458066Y-91030292D01*
X218458067Y-91030293D01*
X218605733Y-91222736D01*
X218605739Y-91222743D01*
X218777256Y-91394260D01*
X218777262Y-91394265D01*
X218969711Y-91541936D01*
X219179788Y-91663224D01*
X219403900Y-91756054D01*
X219638211Y-91818838D01*
X219818586Y-91842584D01*
X219878711Y-91850500D01*
X219878712Y-91850500D01*
X220121289Y-91850500D01*
X220169388Y-91844167D01*
X220361789Y-91818838D01*
X220596100Y-91756054D01*
X220820212Y-91663224D01*
X221030289Y-91541936D01*
X221222738Y-91394265D01*
X221394265Y-91222738D01*
X221541936Y-91030289D01*
X221663224Y-90820212D01*
X221756054Y-90596100D01*
X221818838Y-90361789D01*
X221850500Y-90121288D01*
X221850500Y-89878712D01*
X221818838Y-89638211D01*
X221756054Y-89403900D01*
X221663224Y-89179788D01*
X221541936Y-88969711D01*
X221394265Y-88777262D01*
X221394260Y-88777256D01*
X221222743Y-88605739D01*
X221222736Y-88605733D01*
X221030293Y-88458067D01*
X221030292Y-88458066D01*
X221030289Y-88458064D01*
X220820212Y-88336776D01*
X220820205Y-88336773D01*
X220596104Y-88243947D01*
X220361785Y-88181161D01*
X220121289Y-88149500D01*
X220121288Y-88149500D01*
X219878712Y-88149500D01*
X219878711Y-88149500D01*
X219638214Y-88181161D01*
X219403895Y-88243947D01*
X219179794Y-88336773D01*
X219179785Y-88336777D01*
X218969706Y-88458067D01*
X218777263Y-88605733D01*
X218777256Y-88605739D01*
X218605739Y-88777256D01*
X218605733Y-88777263D01*
X218458067Y-88969706D01*
X218336777Y-89179785D01*
X218336773Y-89179794D01*
X218243947Y-89403895D01*
X218181161Y-89638214D01*
X218149500Y-89878711D01*
X218149500Y-90121288D01*
X156850500Y-90121288D01*
X156850500Y-89878712D01*
X156818838Y-89638211D01*
X156756054Y-89403900D01*
X156663224Y-89179788D01*
X156541936Y-88969711D01*
X156394265Y-88777262D01*
X156394260Y-88777256D01*
X156222743Y-88605739D01*
X156222736Y-88605733D01*
X156030293Y-88458067D01*
X156030292Y-88458066D01*
X156030289Y-88458064D01*
X155820212Y-88336776D01*
X155820205Y-88336773D01*
X155596104Y-88243947D01*
X155361785Y-88181161D01*
X155121289Y-88149500D01*
X155121288Y-88149500D01*
X154878712Y-88149500D01*
X154878711Y-88149500D01*
X154638214Y-88181161D01*
X154403895Y-88243947D01*
X154179794Y-88336773D01*
X154179785Y-88336777D01*
X153969706Y-88458067D01*
X153777263Y-88605733D01*
X153777256Y-88605739D01*
X153605739Y-88777256D01*
X153605733Y-88777263D01*
X153458067Y-88969706D01*
X153336777Y-89179785D01*
X153336773Y-89179794D01*
X153243947Y-89403895D01*
X153181161Y-89638214D01*
X153149500Y-89878711D01*
X153149500Y-90121288D01*
X150001323Y-90121288D01*
X150000007Y-90000641D01*
X150000000Y-89999289D01*
X150000000Y-84500000D01*
X220486835Y-84500000D01*
X220505465Y-84736714D01*
X220560895Y-84967595D01*
X220560895Y-84967597D01*
X220651757Y-85186959D01*
X220651759Y-85186962D01*
X220775820Y-85389410D01*
X220775821Y-85389413D01*
X220775824Y-85389416D01*
X220930031Y-85569969D01*
X221069797Y-85689340D01*
X221110586Y-85724178D01*
X221110589Y-85724179D01*
X221313037Y-85848240D01*
X221313040Y-85848242D01*
X221532403Y-85939104D01*
X221532404Y-85939104D01*
X221532406Y-85939105D01*
X221763289Y-85994535D01*
X222000000Y-86013165D01*
X222236711Y-85994535D01*
X222467594Y-85939105D01*
X222467596Y-85939104D01*
X222467597Y-85939104D01*
X222686959Y-85848242D01*
X222686960Y-85848241D01*
X222686963Y-85848240D01*
X222889416Y-85724176D01*
X223069969Y-85569969D01*
X223224176Y-85389416D01*
X223348240Y-85186963D01*
X223439105Y-84967594D01*
X223494535Y-84736711D01*
X223513165Y-84500000D01*
X223494535Y-84263289D01*
X223439105Y-84032406D01*
X223439104Y-84032403D01*
X223439104Y-84032402D01*
X223348242Y-83813040D01*
X223348240Y-83813037D01*
X223224179Y-83610589D01*
X223224178Y-83610586D01*
X223189340Y-83569797D01*
X223069969Y-83430031D01*
X222950596Y-83328076D01*
X222889413Y-83275821D01*
X222889410Y-83275820D01*
X222686962Y-83151759D01*
X222686959Y-83151757D01*
X222467596Y-83060895D01*
X222236714Y-83005465D01*
X222000000Y-82986835D01*
X221763285Y-83005465D01*
X221532404Y-83060895D01*
X221532402Y-83060895D01*
X221313040Y-83151757D01*
X221313037Y-83151759D01*
X221110589Y-83275820D01*
X221110586Y-83275821D01*
X220930031Y-83430031D01*
X220775821Y-83610586D01*
X220775820Y-83610589D01*
X220651759Y-83813037D01*
X220651757Y-83813040D01*
X220560895Y-84032402D01*
X220560895Y-84032404D01*
X220505465Y-84263285D01*
X220486835Y-84500000D01*
X150000000Y-84500000D01*
X150000000Y-80500000D01*
X184486835Y-80500000D01*
X184505465Y-80736714D01*
X184560895Y-80967595D01*
X184560895Y-80967597D01*
X184651757Y-81186959D01*
X184651759Y-81186962D01*
X184775820Y-81389410D01*
X184775821Y-81389413D01*
X184775824Y-81389416D01*
X184930031Y-81569969D01*
X185069797Y-81689340D01*
X185110586Y-81724178D01*
X185110589Y-81724179D01*
X185313037Y-81848240D01*
X185313040Y-81848242D01*
X185532403Y-81939104D01*
X185532404Y-81939104D01*
X185532406Y-81939105D01*
X185763289Y-81994535D01*
X186000000Y-82013165D01*
X186236711Y-81994535D01*
X186467594Y-81939105D01*
X186467596Y-81939104D01*
X186467597Y-81939104D01*
X186686959Y-81848242D01*
X186686960Y-81848241D01*
X186686963Y-81848240D01*
X186889416Y-81724176D01*
X187069969Y-81569969D01*
X187224176Y-81389416D01*
X187348240Y-81186963D01*
X187439105Y-80967594D01*
X187494535Y-80736711D01*
X187513165Y-80500000D01*
X187494535Y-80263289D01*
X187439105Y-80032406D01*
X187439104Y-80032403D01*
X187439104Y-80032402D01*
X187348242Y-79813040D01*
X187348240Y-79813037D01*
X187224179Y-79610589D01*
X187224178Y-79610586D01*
X187122885Y-79491988D01*
X187069969Y-79430031D01*
X186950596Y-79328076D01*
X186889413Y-79275821D01*
X186889410Y-79275820D01*
X186686962Y-79151759D01*
X186686959Y-79151757D01*
X186467596Y-79060895D01*
X186374956Y-79038654D01*
X215511500Y-79038654D01*
X215518011Y-79099202D01*
X215518011Y-79099204D01*
X215569111Y-79236204D01*
X215656739Y-79353261D01*
X215773796Y-79440889D01*
X215910799Y-79491989D01*
X215938050Y-79494918D01*
X215971345Y-79498499D01*
X215971362Y-79498500D01*
X220028638Y-79498500D01*
X220028654Y-79498499D01*
X220055692Y-79495591D01*
X220089201Y-79491989D01*
X220226204Y-79440889D01*
X220343261Y-79353261D01*
X220430889Y-79236204D01*
X220481989Y-79099201D01*
X220486107Y-79060895D01*
X220488499Y-79038654D01*
X220488500Y-79038637D01*
X220488500Y-76961362D01*
X220488499Y-76961345D01*
X220484567Y-76924776D01*
X220481989Y-76900799D01*
X220430889Y-76763796D01*
X220343261Y-76646739D01*
X220226204Y-76559111D01*
X220089203Y-76508011D01*
X220028654Y-76501500D01*
X220028638Y-76501500D01*
X215971362Y-76501500D01*
X215971345Y-76501500D01*
X215910797Y-76508011D01*
X215910795Y-76508011D01*
X215773795Y-76559111D01*
X215656739Y-76646739D01*
X215569111Y-76763795D01*
X215518011Y-76900795D01*
X215518011Y-76900797D01*
X215511500Y-76961345D01*
X215511500Y-79038654D01*
X186374956Y-79038654D01*
X186236714Y-79005465D01*
X186000000Y-78986835D01*
X185763285Y-79005465D01*
X185532404Y-79060895D01*
X185532402Y-79060895D01*
X185313040Y-79151757D01*
X185313037Y-79151759D01*
X185110589Y-79275820D01*
X185110586Y-79275821D01*
X184930031Y-79430031D01*
X184775821Y-79610586D01*
X184775820Y-79610589D01*
X184651759Y-79813037D01*
X184651757Y-79813040D01*
X184560895Y-80032402D01*
X184560895Y-80032404D01*
X184505465Y-80263285D01*
X184486835Y-80500000D01*
X150000000Y-80500000D01*
X150000000Y-77617940D01*
X154511500Y-77617940D01*
X154548398Y-77850901D01*
X154621283Y-78075221D01*
X154621285Y-78075224D01*
X154728368Y-78285385D01*
X154867008Y-78476207D01*
X155033793Y-78642992D01*
X155224615Y-78781632D01*
X155434776Y-78888715D01*
X155434778Y-78888716D01*
X155546938Y-78925158D01*
X155659100Y-78961602D01*
X155766996Y-78978691D01*
X155892060Y-78998500D01*
X155892065Y-78998500D01*
X158107940Y-78998500D01*
X158220877Y-78980611D01*
X158340900Y-78961602D01*
X158565224Y-78888715D01*
X158775385Y-78781632D01*
X158966207Y-78642992D01*
X159132992Y-78476207D01*
X159271632Y-78285385D01*
X159378715Y-78075224D01*
X159403156Y-78000003D01*
X177236701Y-78000003D01*
X177255836Y-78169844D01*
X177255837Y-78169849D01*
X177312291Y-78331183D01*
X177403229Y-78475909D01*
X177524091Y-78596771D01*
X177668817Y-78687709D01*
X177830150Y-78744162D01*
X177830155Y-78744163D01*
X177999996Y-78763299D01*
X178000000Y-78763299D01*
X178000004Y-78763299D01*
X178169844Y-78744163D01*
X178169847Y-78744162D01*
X178169850Y-78744162D01*
X178331183Y-78687709D01*
X178475909Y-78596771D01*
X178596771Y-78475909D01*
X178687709Y-78331183D01*
X178744162Y-78169850D01*
X178763299Y-78000000D01*
X178744162Y-77830150D01*
X178687709Y-77668817D01*
X178655738Y-77617935D01*
X178652506Y-77612791D01*
X178633500Y-77546819D01*
X178633500Y-72344864D01*
X178653185Y-72277825D01*
X178705989Y-72232070D01*
X178716539Y-72227824D01*
X178831183Y-72187709D01*
X178975909Y-72096771D01*
X179096771Y-71975909D01*
X179187709Y-71831183D01*
X179244162Y-71669850D01*
X179252464Y-71596167D01*
X179263299Y-71500003D01*
X179263299Y-71499996D01*
X179244163Y-71330155D01*
X179244162Y-71330150D01*
X179187709Y-71168817D01*
X179096771Y-71024091D01*
X178975909Y-70903229D01*
X178975908Y-70903228D01*
X178831183Y-70812291D01*
X178669849Y-70755837D01*
X178669844Y-70755836D01*
X178500004Y-70736701D01*
X178499996Y-70736701D01*
X178330155Y-70755836D01*
X178330150Y-70755837D01*
X178168816Y-70812291D01*
X178024091Y-70903228D01*
X177903228Y-71024091D01*
X177812289Y-71168819D01*
X177755439Y-71331287D01*
X177726080Y-71378012D01*
X177596167Y-71507928D01*
X177596166Y-71507929D01*
X177507931Y-71596163D01*
X177507928Y-71596167D01*
X177438603Y-71699918D01*
X177438598Y-71699927D01*
X177390845Y-71815214D01*
X177390843Y-71815222D01*
X177366500Y-71937601D01*
X177366500Y-77546819D01*
X177347494Y-77612791D01*
X177312291Y-77668815D01*
X177255837Y-77830150D01*
X177255836Y-77830155D01*
X177236701Y-77999996D01*
X177236701Y-78000003D01*
X159403156Y-78000003D01*
X159451602Y-77850900D01*
X159470611Y-77730877D01*
X159488500Y-77617940D01*
X159488500Y-77382059D01*
X159467034Y-77246534D01*
X159451602Y-77149100D01*
X159415158Y-77036938D01*
X159378716Y-76924778D01*
X159366496Y-76900795D01*
X159271632Y-76714615D01*
X159132992Y-76523793D01*
X158966207Y-76357008D01*
X158775385Y-76218368D01*
X158670304Y-76164826D01*
X158565221Y-76111283D01*
X158340901Y-76038398D01*
X158107940Y-76001500D01*
X158107935Y-76001500D01*
X155892065Y-76001500D01*
X155892060Y-76001500D01*
X155659098Y-76038398D01*
X155434778Y-76111283D01*
X155224611Y-76218370D01*
X155033796Y-76357005D01*
X155033790Y-76357010D01*
X154867010Y-76523790D01*
X154867005Y-76523796D01*
X154728370Y-76714611D01*
X154621283Y-76924778D01*
X154548398Y-77149098D01*
X154511500Y-77382059D01*
X154511500Y-77617940D01*
X150000000Y-77617940D01*
X150000000Y-73538654D01*
X154511500Y-73538654D01*
X154518011Y-73599202D01*
X154518011Y-73599204D01*
X154569111Y-73736204D01*
X154656739Y-73853261D01*
X154773796Y-73940889D01*
X154910799Y-73991989D01*
X154938050Y-73994918D01*
X154971345Y-73998499D01*
X154971362Y-73998500D01*
X159028638Y-73998500D01*
X159028654Y-73998499D01*
X159055692Y-73995591D01*
X159089201Y-73991989D01*
X159226204Y-73940889D01*
X159343261Y-73853261D01*
X159430889Y-73736204D01*
X159481989Y-73599201D01*
X159485591Y-73565692D01*
X159488499Y-73538654D01*
X159488500Y-73538637D01*
X159488500Y-71461362D01*
X159488499Y-71461345D01*
X159485157Y-71430270D01*
X159481989Y-71400799D01*
X159430889Y-71263796D01*
X159343261Y-71146739D01*
X159226204Y-71059111D01*
X159089203Y-71008011D01*
X159028654Y-71001500D01*
X159028638Y-71001500D01*
X154971362Y-71001500D01*
X154971345Y-71001500D01*
X154910797Y-71008011D01*
X154910795Y-71008011D01*
X154773795Y-71059111D01*
X154656739Y-71146739D01*
X154569111Y-71263795D01*
X154518011Y-71400795D01*
X154518011Y-71400797D01*
X154511500Y-71461345D01*
X154511500Y-73538654D01*
X150000000Y-73538654D01*
X150000000Y-68500003D01*
X177736701Y-68500003D01*
X177755836Y-68669844D01*
X177755837Y-68669849D01*
X177812291Y-68831183D01*
X177903229Y-68975909D01*
X178024091Y-69096771D01*
X178168817Y-69187709D01*
X178330147Y-69244161D01*
X178330150Y-69244162D01*
X178330155Y-69244163D01*
X178499996Y-69263299D01*
X178500000Y-69263299D01*
X178500004Y-69263299D01*
X178669844Y-69244163D01*
X178669847Y-69244162D01*
X178669850Y-69244162D01*
X178831183Y-69187709D01*
X178887207Y-69152507D01*
X178953180Y-69133500D01*
X185186234Y-69133500D01*
X185253273Y-69153185D01*
X185273915Y-69169819D01*
X185830181Y-69726085D01*
X185863666Y-69787408D01*
X185866500Y-69813766D01*
X185866500Y-74546819D01*
X185847494Y-74612791D01*
X185812291Y-74668815D01*
X185755837Y-74830150D01*
X185755836Y-74830155D01*
X185736701Y-74999996D01*
X185736701Y-75000003D01*
X185755836Y-75169844D01*
X185755837Y-75169849D01*
X185812291Y-75331183D01*
X185903229Y-75475909D01*
X186024091Y-75596771D01*
X186168817Y-75687709D01*
X186330150Y-75744162D01*
X186330155Y-75744163D01*
X186499996Y-75763299D01*
X186500000Y-75763299D01*
X186500004Y-75763299D01*
X186669844Y-75744163D01*
X186669847Y-75744162D01*
X186669850Y-75744162D01*
X186831183Y-75687709D01*
X186975909Y-75596771D01*
X187096771Y-75475909D01*
X187187709Y-75331183D01*
X187244162Y-75169850D01*
X187263299Y-75000000D01*
X187244162Y-74830150D01*
X187187709Y-74668817D01*
X187187708Y-74668815D01*
X187152506Y-74612791D01*
X187133500Y-74546819D01*
X187133500Y-73500000D01*
X215605782Y-73500000D01*
X215629164Y-73571965D01*
X215735638Y-73780930D01*
X215873494Y-73970672D01*
X216039327Y-74136505D01*
X216229069Y-74274361D01*
X216438034Y-74380835D01*
X216661090Y-74453310D01*
X216892735Y-74490000D01*
X217500000Y-74490000D01*
X217500000Y-73500000D01*
X215605782Y-73500000D01*
X187133500Y-73500000D01*
X187133500Y-73065004D01*
X217340000Y-73065004D01*
X217365364Y-73192515D01*
X217415116Y-73312627D01*
X217487345Y-73420725D01*
X217579275Y-73512655D01*
X217687373Y-73584884D01*
X217807485Y-73634636D01*
X217934996Y-73660000D01*
X218065004Y-73660000D01*
X218192515Y-73634636D01*
X218312627Y-73584884D01*
X218420725Y-73512655D01*
X218433380Y-73500000D01*
X218500000Y-73500000D01*
X218500000Y-74490000D01*
X219107265Y-74490000D01*
X219338909Y-74453310D01*
X219561965Y-74380835D01*
X219770930Y-74274361D01*
X219960672Y-74136505D01*
X220126505Y-73970672D01*
X220264361Y-73780930D01*
X220370835Y-73571965D01*
X220394218Y-73500000D01*
X218500000Y-73500000D01*
X218433380Y-73500000D01*
X218512655Y-73420725D01*
X218584884Y-73312627D01*
X218634636Y-73192515D01*
X218660000Y-73065004D01*
X218660000Y-72934996D01*
X218634636Y-72807485D01*
X218584884Y-72687373D01*
X218512655Y-72579275D01*
X218420725Y-72487345D01*
X218312627Y-72415116D01*
X218192515Y-72365364D01*
X218065004Y-72340000D01*
X217934996Y-72340000D01*
X217807485Y-72365364D01*
X217687373Y-72415116D01*
X217579275Y-72487345D01*
X217487345Y-72579275D01*
X217415116Y-72687373D01*
X217365364Y-72807485D01*
X217340000Y-72934996D01*
X217340000Y-73065004D01*
X187133500Y-73065004D01*
X187133500Y-72500000D01*
X215605782Y-72500000D01*
X217500000Y-72500000D01*
X217500000Y-71510000D01*
X218500000Y-71510000D01*
X218500000Y-72500000D01*
X220394218Y-72500000D01*
X220370835Y-72428034D01*
X220264361Y-72219069D01*
X220126505Y-72029327D01*
X219960672Y-71863494D01*
X219770930Y-71725638D01*
X219561965Y-71619164D01*
X219338909Y-71546689D01*
X219107265Y-71510000D01*
X218500000Y-71510000D01*
X217500000Y-71510000D01*
X216892735Y-71510000D01*
X216661090Y-71546689D01*
X216438034Y-71619164D01*
X216229069Y-71725638D01*
X216039327Y-71863494D01*
X215873494Y-72029327D01*
X215735638Y-72219069D01*
X215629164Y-72428034D01*
X215605782Y-72500000D01*
X187133500Y-72500000D01*
X187133500Y-69437605D01*
X187133499Y-69437601D01*
X187109156Y-69315222D01*
X187109155Y-69315215D01*
X187095245Y-69281632D01*
X187079724Y-69244161D01*
X187061404Y-69199932D01*
X187061403Y-69199931D01*
X187061401Y-69199925D01*
X187041285Y-69169819D01*
X186992072Y-69096166D01*
X186992069Y-69096163D01*
X186013845Y-68117940D01*
X215511500Y-68117940D01*
X215548398Y-68350901D01*
X215621283Y-68575221D01*
X215621285Y-68575224D01*
X215728368Y-68785385D01*
X215867008Y-68976207D01*
X216033793Y-69142992D01*
X216224615Y-69281632D01*
X216434776Y-69388715D01*
X216434778Y-69388716D01*
X216546938Y-69425158D01*
X216659100Y-69461602D01*
X216766996Y-69478691D01*
X216892060Y-69498500D01*
X216892065Y-69498500D01*
X219107940Y-69498500D01*
X219220877Y-69480611D01*
X219340900Y-69461602D01*
X219565224Y-69388715D01*
X219775385Y-69281632D01*
X219966207Y-69142992D01*
X220132992Y-68976207D01*
X220271632Y-68785385D01*
X220378715Y-68575224D01*
X220451602Y-68350900D01*
X220470611Y-68230877D01*
X220488500Y-68117940D01*
X220488500Y-67882059D01*
X220465477Y-67736701D01*
X220451602Y-67649100D01*
X220378715Y-67424776D01*
X220271632Y-67214615D01*
X220132992Y-67023793D01*
X219966207Y-66857008D01*
X219775385Y-66718368D01*
X219670304Y-66664826D01*
X219565221Y-66611283D01*
X219340901Y-66538398D01*
X219107940Y-66501500D01*
X219107935Y-66501500D01*
X216892065Y-66501500D01*
X216892060Y-66501500D01*
X216659098Y-66538398D01*
X216434778Y-66611283D01*
X216224611Y-66718370D01*
X216033796Y-66857005D01*
X216033790Y-66857010D01*
X215867010Y-67023790D01*
X215867005Y-67023796D01*
X215728370Y-67214611D01*
X215621283Y-67424778D01*
X215548398Y-67649098D01*
X215511500Y-67882059D01*
X215511500Y-68117940D01*
X186013845Y-68117940D01*
X185903836Y-68007931D01*
X185903832Y-68007928D01*
X185800081Y-67938603D01*
X185800072Y-67938598D01*
X185684785Y-67890845D01*
X185684777Y-67890843D01*
X185562398Y-67866500D01*
X185562394Y-67866500D01*
X178953180Y-67866500D01*
X178887207Y-67847493D01*
X178831185Y-67812291D01*
X178669849Y-67755837D01*
X178669844Y-67755836D01*
X178500004Y-67736701D01*
X178499996Y-67736701D01*
X178330155Y-67755836D01*
X178330150Y-67755837D01*
X178168816Y-67812291D01*
X178024091Y-67903228D01*
X177903228Y-68024091D01*
X177812291Y-68168816D01*
X177755837Y-68330150D01*
X177755836Y-68330155D01*
X177736701Y-68499996D01*
X177736701Y-68500003D01*
X150000000Y-68500003D01*
X150000000Y-59500000D01*
X158986835Y-59500000D01*
X159005465Y-59736714D01*
X159060895Y-59967595D01*
X159060895Y-59967597D01*
X159151757Y-60186959D01*
X159151759Y-60186962D01*
X159275820Y-60389410D01*
X159275821Y-60389413D01*
X159275824Y-60389416D01*
X159430031Y-60569969D01*
X159569797Y-60689340D01*
X159610586Y-60724178D01*
X159610589Y-60724179D01*
X159813037Y-60848240D01*
X159813040Y-60848242D01*
X160032403Y-60939104D01*
X160032404Y-60939104D01*
X160032406Y-60939105D01*
X160263289Y-60994535D01*
X160500000Y-61013165D01*
X160736711Y-60994535D01*
X160967594Y-60939105D01*
X160967596Y-60939104D01*
X160967597Y-60939104D01*
X161186959Y-60848242D01*
X161186960Y-60848241D01*
X161186963Y-60848240D01*
X161389416Y-60724176D01*
X161569969Y-60569969D01*
X161629728Y-60500000D01*
X220486835Y-60500000D01*
X220505465Y-60736714D01*
X220560895Y-60967595D01*
X220560895Y-60967597D01*
X220651757Y-61186959D01*
X220651759Y-61186962D01*
X220775820Y-61389410D01*
X220775821Y-61389413D01*
X220775824Y-61389416D01*
X220930031Y-61569969D01*
X221069797Y-61689340D01*
X221110586Y-61724178D01*
X221110589Y-61724179D01*
X221313037Y-61848240D01*
X221313040Y-61848242D01*
X221532403Y-61939104D01*
X221532404Y-61939104D01*
X221532406Y-61939105D01*
X221763289Y-61994535D01*
X222000000Y-62013165D01*
X222236711Y-61994535D01*
X222467594Y-61939105D01*
X222467596Y-61939104D01*
X222467597Y-61939104D01*
X222686959Y-61848242D01*
X222686960Y-61848241D01*
X222686963Y-61848240D01*
X222889416Y-61724176D01*
X223069969Y-61569969D01*
X223224176Y-61389416D01*
X223348240Y-61186963D01*
X223420230Y-61013164D01*
X223439104Y-60967597D01*
X223439104Y-60967596D01*
X223439105Y-60967594D01*
X223494535Y-60736711D01*
X223513165Y-60500000D01*
X223494535Y-60263289D01*
X223439105Y-60032406D01*
X223439104Y-60032403D01*
X223439104Y-60032402D01*
X223348242Y-59813040D01*
X223348240Y-59813037D01*
X223224179Y-59610589D01*
X223224178Y-59610586D01*
X223129728Y-59500000D01*
X223069969Y-59430031D01*
X222950596Y-59328076D01*
X222889413Y-59275821D01*
X222889410Y-59275820D01*
X222686962Y-59151759D01*
X222686959Y-59151757D01*
X222467596Y-59060895D01*
X222236714Y-59005465D01*
X222000000Y-58986835D01*
X221763285Y-59005465D01*
X221532404Y-59060895D01*
X221532402Y-59060895D01*
X221313040Y-59151757D01*
X221313037Y-59151759D01*
X221110589Y-59275820D01*
X221110586Y-59275821D01*
X220930031Y-59430031D01*
X220775821Y-59610586D01*
X220775820Y-59610589D01*
X220651759Y-59813037D01*
X220651757Y-59813040D01*
X220560895Y-60032402D01*
X220560895Y-60032404D01*
X220505465Y-60263285D01*
X220486835Y-60500000D01*
X161629728Y-60500000D01*
X161724176Y-60389416D01*
X161848240Y-60186963D01*
X161939105Y-59967594D01*
X161994535Y-59736711D01*
X162013165Y-59500000D01*
X161994535Y-59263289D01*
X161939105Y-59032406D01*
X161939104Y-59032403D01*
X161939104Y-59032402D01*
X161848242Y-58813040D01*
X161848240Y-58813037D01*
X161724179Y-58610589D01*
X161724178Y-58610586D01*
X161689340Y-58569797D01*
X161569969Y-58430031D01*
X161450596Y-58328076D01*
X161389413Y-58275821D01*
X161389410Y-58275820D01*
X161186962Y-58151759D01*
X161186959Y-58151757D01*
X160967596Y-58060895D01*
X160736714Y-58005465D01*
X160500000Y-57986835D01*
X160263285Y-58005465D01*
X160032404Y-58060895D01*
X160032402Y-58060895D01*
X159813040Y-58151757D01*
X159813037Y-58151759D01*
X159610589Y-58275820D01*
X159610586Y-58275821D01*
X159430031Y-58430031D01*
X159275821Y-58610586D01*
X159275820Y-58610589D01*
X159151759Y-58813037D01*
X159151757Y-58813040D01*
X159060895Y-59032402D01*
X159060895Y-59032404D01*
X159005465Y-59263285D01*
X158986835Y-59500000D01*
X150000000Y-59500000D01*
X150000000Y-55121288D01*
X153149500Y-55121288D01*
X153181161Y-55361785D01*
X153243947Y-55596104D01*
X153336773Y-55820205D01*
X153336776Y-55820212D01*
X153458064Y-56030289D01*
X153458066Y-56030292D01*
X153458067Y-56030293D01*
X153605733Y-56222736D01*
X153605739Y-56222743D01*
X153777256Y-56394260D01*
X153777262Y-56394265D01*
X153969711Y-56541936D01*
X154179788Y-56663224D01*
X154403900Y-56756054D01*
X154638211Y-56818838D01*
X154818586Y-56842584D01*
X154878711Y-56850500D01*
X154878712Y-56850500D01*
X155121289Y-56850500D01*
X155169388Y-56844167D01*
X155361789Y-56818838D01*
X155596100Y-56756054D01*
X155820212Y-56663224D01*
X156030289Y-56541936D01*
X156222738Y-56394265D01*
X156394265Y-56222738D01*
X156541936Y-56030289D01*
X156643161Y-55854963D01*
X200352143Y-55854963D01*
X200395385Y-55878364D01*
X200395396Y-55878369D01*
X200630506Y-55959083D01*
X200875707Y-56000000D01*
X201124293Y-56000000D01*
X201369493Y-55959083D01*
X201604601Y-55878370D01*
X201604603Y-55878369D01*
X201647855Y-55854963D01*
X201647855Y-55854962D01*
X201000001Y-55207107D01*
X201000000Y-55207107D01*
X200352143Y-55854963D01*
X156643161Y-55854963D01*
X156663224Y-55820212D01*
X156756054Y-55596100D01*
X156818838Y-55361789D01*
X156850500Y-55121288D01*
X156850500Y-54878712D01*
X156818838Y-54638211D01*
X156781805Y-54500005D01*
X199494859Y-54500005D01*
X199515385Y-54747729D01*
X199515387Y-54747738D01*
X199576412Y-54988717D01*
X199645856Y-55147036D01*
X200227067Y-54565826D01*
X200500000Y-54565826D01*
X200534075Y-54692993D01*
X200599901Y-54807007D01*
X200692993Y-54900099D01*
X200807007Y-54965925D01*
X200934174Y-55000000D01*
X201065826Y-55000000D01*
X201192993Y-54965925D01*
X201307007Y-54900099D01*
X201400099Y-54807007D01*
X201465925Y-54692993D01*
X201500000Y-54565826D01*
X201500000Y-54500000D01*
X201707107Y-54500000D01*
X202354142Y-55147036D01*
X202354143Y-55147035D01*
X202365437Y-55121288D01*
X218149500Y-55121288D01*
X218181161Y-55361785D01*
X218243947Y-55596104D01*
X218336773Y-55820205D01*
X218336776Y-55820212D01*
X218458064Y-56030289D01*
X218458066Y-56030292D01*
X218458067Y-56030293D01*
X218605733Y-56222736D01*
X218605739Y-56222743D01*
X218777256Y-56394260D01*
X218777262Y-56394265D01*
X218969711Y-56541936D01*
X219179788Y-56663224D01*
X219403900Y-56756054D01*
X219638211Y-56818838D01*
X219818586Y-56842584D01*
X219878711Y-56850500D01*
X219878712Y-56850500D01*
X220121289Y-56850500D01*
X220169388Y-56844167D01*
X220361789Y-56818838D01*
X220596100Y-56756054D01*
X220820212Y-56663224D01*
X221030289Y-56541936D01*
X221222738Y-56394265D01*
X221394265Y-56222738D01*
X221541936Y-56030289D01*
X221663224Y-55820212D01*
X221756054Y-55596100D01*
X221818838Y-55361789D01*
X221850500Y-55121288D01*
X221850500Y-54878712D01*
X221818838Y-54638211D01*
X221756054Y-54403900D01*
X221663224Y-54179788D01*
X221541936Y-53969711D01*
X221394265Y-53777262D01*
X221394260Y-53777256D01*
X221222743Y-53605739D01*
X221222736Y-53605733D01*
X221030293Y-53458067D01*
X221030292Y-53458066D01*
X221030289Y-53458064D01*
X220820212Y-53336776D01*
X220820205Y-53336773D01*
X220596104Y-53243947D01*
X220361785Y-53181161D01*
X220121289Y-53149500D01*
X220121288Y-53149500D01*
X219878712Y-53149500D01*
X219878711Y-53149500D01*
X219638214Y-53181161D01*
X219403895Y-53243947D01*
X219179794Y-53336773D01*
X219179785Y-53336777D01*
X218969706Y-53458067D01*
X218777263Y-53605733D01*
X218777256Y-53605739D01*
X218605739Y-53777256D01*
X218605733Y-53777263D01*
X218458067Y-53969706D01*
X218336777Y-54179785D01*
X218336773Y-54179794D01*
X218243947Y-54403895D01*
X218181161Y-54638214D01*
X218149500Y-54878711D01*
X218149500Y-55121288D01*
X202365437Y-55121288D01*
X202423587Y-54988719D01*
X202484612Y-54747738D01*
X202484614Y-54747729D01*
X202505141Y-54500005D01*
X202505141Y-54499994D01*
X202484614Y-54252270D01*
X202484612Y-54252261D01*
X202423587Y-54011280D01*
X202354143Y-53852963D01*
X202354142Y-53852962D01*
X201707107Y-54499999D01*
X201707107Y-54500000D01*
X201500000Y-54500000D01*
X201500000Y-54434174D01*
X201465925Y-54307007D01*
X201400099Y-54192993D01*
X201307007Y-54099901D01*
X201192993Y-54034075D01*
X201065826Y-54000000D01*
X200934174Y-54000000D01*
X200807007Y-54034075D01*
X200692993Y-54099901D01*
X200599901Y-54192993D01*
X200534075Y-54307007D01*
X200500000Y-54434174D01*
X200500000Y-54565826D01*
X200227067Y-54565826D01*
X200292893Y-54500000D01*
X199645856Y-53852963D01*
X199576412Y-54011282D01*
X199515387Y-54252261D01*
X199515385Y-54252270D01*
X199494859Y-54499994D01*
X199494859Y-54500005D01*
X156781805Y-54500005D01*
X156756054Y-54403900D01*
X156663224Y-54179788D01*
X156541936Y-53969711D01*
X156394265Y-53777262D01*
X156394260Y-53777256D01*
X156222743Y-53605739D01*
X156222736Y-53605733D01*
X156030293Y-53458067D01*
X156030292Y-53458066D01*
X156030289Y-53458064D01*
X155820212Y-53336776D01*
X155820205Y-53336773D01*
X155596104Y-53243947D01*
X155361785Y-53181161D01*
X155121289Y-53149500D01*
X155121288Y-53149500D01*
X154878712Y-53149500D01*
X154878711Y-53149500D01*
X154638214Y-53181161D01*
X154403895Y-53243947D01*
X154179794Y-53336773D01*
X154179785Y-53336777D01*
X153969706Y-53458067D01*
X153777263Y-53605733D01*
X153777256Y-53605739D01*
X153605739Y-53777256D01*
X153605733Y-53777263D01*
X153458067Y-53969706D01*
X153336777Y-54179785D01*
X153336773Y-54179794D01*
X153243947Y-54403895D01*
X153181161Y-54638214D01*
X153149500Y-54878711D01*
X153149500Y-55121288D01*
X150000000Y-55121288D01*
X150000000Y-55000710D01*
X150000007Y-54999358D01*
X150002328Y-54786528D01*
X150002793Y-54777073D01*
X150005361Y-54747729D01*
X150039943Y-54352444D01*
X150041355Y-54341725D01*
X150115257Y-53922602D01*
X150117589Y-53912083D01*
X150227749Y-53500959D01*
X150230989Y-53490683D01*
X150356794Y-53145036D01*
X200352143Y-53145036D01*
X201000000Y-53792893D01*
X201000001Y-53792893D01*
X201647856Y-53145036D01*
X201647856Y-53145035D01*
X201604619Y-53121637D01*
X201604599Y-53121629D01*
X201369493Y-53040916D01*
X201124293Y-53000000D01*
X200875707Y-53000000D01*
X200630506Y-53040916D01*
X200395392Y-53121631D01*
X200352143Y-53145036D01*
X150356794Y-53145036D01*
X150376558Y-53090736D01*
X150380679Y-53080786D01*
X150560552Y-52695047D01*
X150565532Y-52685480D01*
X150778332Y-52316900D01*
X150784125Y-52307806D01*
X151028246Y-51959165D01*
X151034812Y-51950609D01*
X151308394Y-51624566D01*
X151315681Y-51616615D01*
X151616615Y-51315681D01*
X151624566Y-51308394D01*
X151950609Y-51034812D01*
X151959165Y-51028246D01*
X152307806Y-50784125D01*
X152316900Y-50778332D01*
X152685480Y-50565532D01*
X152695047Y-50560552D01*
X153080786Y-50380679D01*
X153090736Y-50376558D01*
X153490683Y-50230989D01*
X153500959Y-50227749D01*
X153912083Y-50117589D01*
X153922602Y-50115257D01*
X154341732Y-50041353D01*
X154352444Y-50039943D01*
X154777085Y-50002792D01*
X154786517Y-50002328D01*
X154999358Y-50000006D01*
X155000710Y-50000000D01*
X219999290Y-50000000D01*
X220000641Y-50000006D01*
G37*
%TD.AperFunction*%
%TD*%
M02*
