%TF.GenerationSoftware,KiCad,Pcbnew,8.0.0*%
%TF.CreationDate,2024-05-07T14:35:08-04:00*%
%TF.ProjectId,RailSplitter,5261696c-5370-46c6-9974-7465722e6b69,rev?*%
%TF.SameCoordinates,Original*%
%TF.FileFunction,Soldermask,Top*%
%TF.FilePolarity,Negative*%
%FSLAX46Y46*%
G04 Gerber Fmt 4.6, Leading zero omitted, Abs format (unit mm)*
G04 Created by KiCad (PCBNEW 8.0.0) date 2024-05-07 14:35:08*
%MOMM*%
%LPD*%
G01*
G04 APERTURE LIST*
G04 Aperture macros list*
%AMRoundRect*
0 Rectangle with rounded corners*
0 $1 Rounding radius*
0 $2 $3 $4 $5 $6 $7 $8 $9 X,Y pos of 4 corners*
0 Add a 4 corners polygon primitive as box body*
4,1,4,$2,$3,$4,$5,$6,$7,$8,$9,$2,$3,0*
0 Add four circle primitives for the rounded corners*
1,1,$1+$1,$2,$3*
1,1,$1+$1,$4,$5*
1,1,$1+$1,$6,$7*
1,1,$1+$1,$8,$9*
0 Add four rect primitives between the rounded corners*
20,1,$1+$1,$2,$3,$4,$5,0*
20,1,$1+$1,$4,$5,$6,$7,0*
20,1,$1+$1,$6,$7,$8,$9,0*
20,1,$1+$1,$8,$9,$2,$3,0*%
G04 Aperture macros list end*
%ADD10RoundRect,0.250001X0.624999X-0.462499X0.624999X0.462499X-0.624999X0.462499X-0.624999X-0.462499X0*%
%ADD11RoundRect,0.250000X1.950000X1.000000X-1.950000X1.000000X-1.950000X-1.000000X1.950000X-1.000000X0*%
%ADD12C,2.000000*%
%ADD13RoundRect,0.250000X-2.050000X-0.300000X2.050000X-0.300000X2.050000X0.300000X-2.050000X0.300000X0*%
%ADD14RoundRect,0.250002X-4.449998X-5.149998X4.449998X-5.149998X4.449998X5.149998X-4.449998X5.149998X0*%
%ADD15RoundRect,0.150000X-0.150000X0.825000X-0.150000X-0.825000X0.150000X-0.825000X0.150000X0.825000X0*%
%ADD16RoundRect,0.250000X-0.625000X0.400000X-0.625000X-0.400000X0.625000X-0.400000X0.625000X0.400000X0*%
%ADD17C,3.200000*%
%ADD18RoundRect,0.250000X-0.400000X-0.625000X0.400000X-0.625000X0.400000X0.625000X-0.400000X0.625000X0*%
%ADD19R,3.960000X1.980000*%
%ADD20O,3.960000X1.980000*%
%ADD21RoundRect,0.250000X0.850000X0.350000X-0.850000X0.350000X-0.850000X-0.350000X0.850000X-0.350000X0*%
%ADD22RoundRect,0.249997X2.950003X2.650003X-2.950003X2.650003X-2.950003X-2.650003X2.950003X-2.650003X0*%
%ADD23RoundRect,0.250000X0.400000X0.625000X-0.400000X0.625000X-0.400000X-0.625000X0.400000X-0.625000X0*%
%ADD24RoundRect,0.250000X-0.412500X-0.650000X0.412500X-0.650000X0.412500X0.650000X-0.412500X0.650000X0*%
%ADD25RoundRect,0.250000X0.412500X0.650000X-0.412500X0.650000X-0.412500X-0.650000X0.412500X-0.650000X0*%
%ADD26RoundRect,0.250000X-1.950000X-1.000000X1.950000X-1.000000X1.950000X1.000000X-1.950000X1.000000X0*%
%ADD27RoundRect,0.225000X-0.375000X0.225000X-0.375000X-0.225000X0.375000X-0.225000X0.375000X0.225000X0*%
G04 APERTURE END LIST*
D10*
%TO.C,D2*%
X172000000Y-78900000D03*
X172000000Y-75925000D03*
%TD*%
D11*
%TO.C,C1*%
X213500000Y-55000000D03*
X206100000Y-55000000D03*
%TD*%
D12*
%TO.C,TP2*%
X222000000Y-60500000D03*
%TD*%
D13*
%TO.C,Q3*%
X193925000Y-63960000D03*
D14*
X203075000Y-66500000D03*
D13*
X193925000Y-69040000D03*
%TD*%
D15*
%TO.C,U1*%
X184405000Y-71050000D03*
X183135000Y-71050000D03*
X181865000Y-71050000D03*
X180595000Y-71050000D03*
X180595000Y-76000000D03*
X181865000Y-76000000D03*
X183135000Y-76000000D03*
X184405000Y-76000000D03*
%TD*%
D16*
%TO.C,R2*%
X172000000Y-69862500D03*
X172000000Y-72962500D03*
%TD*%
D17*
%TO.C,H4*%
X220000000Y-90000000D03*
%TD*%
D16*
%TO.C,R1*%
X167500000Y-75862500D03*
X167500000Y-78962500D03*
%TD*%
D18*
%TO.C,R5*%
X176900000Y-87500000D03*
X180000000Y-87500000D03*
%TD*%
D17*
%TO.C,H2*%
X220000000Y-55000000D03*
%TD*%
D13*
%TO.C,Q2*%
X193925000Y-76210000D03*
D14*
X203075000Y-78750000D03*
D13*
X193925000Y-81290000D03*
%TD*%
D19*
%TO.C,J1*%
X157000000Y-72500000D03*
D20*
X157000000Y-77500000D03*
%TD*%
D12*
%TO.C,TP5*%
X186000000Y-80500000D03*
%TD*%
D21*
%TO.C,Q1*%
X160315000Y-67225000D03*
D22*
X154015000Y-64945000D03*
D21*
X160315000Y-62665000D03*
%TD*%
D17*
%TO.C,H3*%
X155000000Y-90000000D03*
%TD*%
D23*
%TO.C,R6*%
X180000000Y-84210000D03*
X176900000Y-84210000D03*
%TD*%
D24*
%TO.C,C3*%
X215375000Y-60500000D03*
X218500000Y-60500000D03*
%TD*%
D19*
%TO.C,J2*%
X218000000Y-78000000D03*
D20*
X218000000Y-73000000D03*
X218000000Y-68000000D03*
%TD*%
D25*
%TO.C,C4*%
X218625000Y-83000000D03*
X215500000Y-83000000D03*
%TD*%
D16*
%TO.C,R4*%
X175500000Y-75900000D03*
X175500000Y-79000000D03*
%TD*%
D26*
%TO.C,C2*%
X206050000Y-89750000D03*
X213450000Y-89750000D03*
%TD*%
D12*
%TO.C,TP3*%
X201000000Y-54500000D03*
%TD*%
D27*
%TO.C,D1*%
X167500000Y-69807500D03*
X167500000Y-73107500D03*
%TD*%
D16*
%TO.C,R3*%
X175500000Y-69850000D03*
X175500000Y-72950000D03*
%TD*%
D17*
%TO.C,H1*%
X155000000Y-55000000D03*
%TD*%
D12*
%TO.C,TP4*%
X222000000Y-84500000D03*
%TD*%
%TO.C,TP1*%
X160500000Y-59500000D03*
%TD*%
M02*
