%TF.GenerationSoftware,KiCad,Pcbnew,7.0.7*%
%TF.CreationDate,2023-08-30T15:56:40-04:00*%
%TF.ProjectId,RailSplitter,5261696c-5370-46c6-9974-7465722e6b69,rev?*%
%TF.SameCoordinates,Original*%
%TF.FileFunction,Legend,Top*%
%TF.FilePolarity,Positive*%
%FSLAX46Y46*%
G04 Gerber Fmt 4.6, Leading zero omitted, Abs format (unit mm)*
G04 Created by KiCad (PCBNEW 7.0.7) date 2023-08-30 15:56:40*
%MOMM*%
%LPD*%
G01*
G04 APERTURE LIST*
%ADD10C,0.150000*%
%ADD11C,0.300000*%
%ADD12C,0.120000*%
G04 APERTURE END LIST*
D10*
X155417438Y-117889411D02*
X155369819Y-117984649D01*
X155369819Y-117984649D02*
X155369819Y-118127506D01*
X155369819Y-118127506D02*
X155417438Y-118270363D01*
X155417438Y-118270363D02*
X155512676Y-118365601D01*
X155512676Y-118365601D02*
X155607914Y-118413220D01*
X155607914Y-118413220D02*
X155798390Y-118460839D01*
X155798390Y-118460839D02*
X155941247Y-118460839D01*
X155941247Y-118460839D02*
X156131723Y-118413220D01*
X156131723Y-118413220D02*
X156226961Y-118365601D01*
X156226961Y-118365601D02*
X156322200Y-118270363D01*
X156322200Y-118270363D02*
X156369819Y-118127506D01*
X156369819Y-118127506D02*
X156369819Y-118032268D01*
X156369819Y-118032268D02*
X156322200Y-117889411D01*
X156322200Y-117889411D02*
X156274580Y-117841792D01*
X156274580Y-117841792D02*
X155941247Y-117841792D01*
X155941247Y-117841792D02*
X155941247Y-118032268D01*
X156369819Y-117413220D02*
X155369819Y-117413220D01*
X155369819Y-117413220D02*
X156369819Y-116841792D01*
X156369819Y-116841792D02*
X155369819Y-116841792D01*
X156369819Y-116365601D02*
X155369819Y-116365601D01*
X155369819Y-116365601D02*
X155369819Y-116127506D01*
X155369819Y-116127506D02*
X155417438Y-115984649D01*
X155417438Y-115984649D02*
X155512676Y-115889411D01*
X155512676Y-115889411D02*
X155607914Y-115841792D01*
X155607914Y-115841792D02*
X155798390Y-115794173D01*
X155798390Y-115794173D02*
X155941247Y-115794173D01*
X155941247Y-115794173D02*
X156131723Y-115841792D01*
X156131723Y-115841792D02*
X156226961Y-115889411D01*
X156226961Y-115889411D02*
X156322200Y-115984649D01*
X156322200Y-115984649D02*
X156369819Y-116127506D01*
X156369819Y-116127506D02*
X156369819Y-116365601D01*
D11*
X112804510Y-134470828D02*
X112804510Y-132970828D01*
X112804510Y-133685114D02*
X113661653Y-133685114D01*
X113661653Y-134470828D02*
X113661653Y-132970828D01*
X115018797Y-133470828D02*
X115018797Y-134470828D01*
X114375939Y-133470828D02*
X114375939Y-134256542D01*
X114375939Y-134256542D02*
X114447368Y-134399400D01*
X114447368Y-134399400D02*
X114590225Y-134470828D01*
X114590225Y-134470828D02*
X114804511Y-134470828D01*
X114804511Y-134470828D02*
X114947368Y-134399400D01*
X114947368Y-134399400D02*
X115018797Y-134327971D01*
X115661654Y-134399400D02*
X115804511Y-134470828D01*
X115804511Y-134470828D02*
X116090225Y-134470828D01*
X116090225Y-134470828D02*
X116233082Y-134399400D01*
X116233082Y-134399400D02*
X116304511Y-134256542D01*
X116304511Y-134256542D02*
X116304511Y-134185114D01*
X116304511Y-134185114D02*
X116233082Y-134042257D01*
X116233082Y-134042257D02*
X116090225Y-133970828D01*
X116090225Y-133970828D02*
X115875940Y-133970828D01*
X115875940Y-133970828D02*
X115733082Y-133899400D01*
X115733082Y-133899400D02*
X115661654Y-133756542D01*
X115661654Y-133756542D02*
X115661654Y-133685114D01*
X115661654Y-133685114D02*
X115733082Y-133542257D01*
X115733082Y-133542257D02*
X115875940Y-133470828D01*
X115875940Y-133470828D02*
X116090225Y-133470828D01*
X116090225Y-133470828D02*
X116233082Y-133542257D01*
X116875940Y-134399400D02*
X117018797Y-134470828D01*
X117018797Y-134470828D02*
X117304511Y-134470828D01*
X117304511Y-134470828D02*
X117447368Y-134399400D01*
X117447368Y-134399400D02*
X117518797Y-134256542D01*
X117518797Y-134256542D02*
X117518797Y-134185114D01*
X117518797Y-134185114D02*
X117447368Y-134042257D01*
X117447368Y-134042257D02*
X117304511Y-133970828D01*
X117304511Y-133970828D02*
X117090226Y-133970828D01*
X117090226Y-133970828D02*
X116947368Y-133899400D01*
X116947368Y-133899400D02*
X116875940Y-133756542D01*
X116875940Y-133756542D02*
X116875940Y-133685114D01*
X116875940Y-133685114D02*
X116947368Y-133542257D01*
X116947368Y-133542257D02*
X117090226Y-133470828D01*
X117090226Y-133470828D02*
X117304511Y-133470828D01*
X117304511Y-133470828D02*
X117447368Y-133542257D01*
X118804512Y-134470828D02*
X118804512Y-133685114D01*
X118804512Y-133685114D02*
X118733083Y-133542257D01*
X118733083Y-133542257D02*
X118590226Y-133470828D01*
X118590226Y-133470828D02*
X118304512Y-133470828D01*
X118304512Y-133470828D02*
X118161654Y-133542257D01*
X118804512Y-134399400D02*
X118661654Y-134470828D01*
X118661654Y-134470828D02*
X118304512Y-134470828D01*
X118304512Y-134470828D02*
X118161654Y-134399400D01*
X118161654Y-134399400D02*
X118090226Y-134256542D01*
X118090226Y-134256542D02*
X118090226Y-134113685D01*
X118090226Y-134113685D02*
X118161654Y-133970828D01*
X118161654Y-133970828D02*
X118304512Y-133899400D01*
X118304512Y-133899400D02*
X118661654Y-133899400D01*
X118661654Y-133899400D02*
X118804512Y-133827971D01*
X119518797Y-134470828D02*
X119518797Y-133470828D01*
X119518797Y-133613685D02*
X119590226Y-133542257D01*
X119590226Y-133542257D02*
X119733083Y-133470828D01*
X119733083Y-133470828D02*
X119947369Y-133470828D01*
X119947369Y-133470828D02*
X120090226Y-133542257D01*
X120090226Y-133542257D02*
X120161655Y-133685114D01*
X120161655Y-133685114D02*
X120161655Y-134470828D01*
X120161655Y-133685114D02*
X120233083Y-133542257D01*
X120233083Y-133542257D02*
X120375940Y-133470828D01*
X120375940Y-133470828D02*
X120590226Y-133470828D01*
X120590226Y-133470828D02*
X120733083Y-133542257D01*
X120733083Y-133542257D02*
X120804512Y-133685114D01*
X120804512Y-133685114D02*
X120804512Y-134470828D01*
X122590226Y-134042257D02*
X123304512Y-134042257D01*
X122447369Y-134470828D02*
X122947369Y-132970828D01*
X122947369Y-132970828D02*
X123447369Y-134470828D01*
X124161654Y-134470828D02*
X124018797Y-134399400D01*
X124018797Y-134399400D02*
X123947368Y-134256542D01*
X123947368Y-134256542D02*
X123947368Y-132970828D01*
X124733082Y-133899400D02*
X125875940Y-133899400D01*
X126590225Y-134470828D02*
X126590225Y-132970828D01*
X126590225Y-133685114D02*
X127447368Y-133685114D01*
X127447368Y-134470828D02*
X127447368Y-132970828D01*
X128733083Y-134399400D02*
X128590226Y-134470828D01*
X128590226Y-134470828D02*
X128304512Y-134470828D01*
X128304512Y-134470828D02*
X128161654Y-134399400D01*
X128161654Y-134399400D02*
X128090226Y-134256542D01*
X128090226Y-134256542D02*
X128090226Y-133685114D01*
X128090226Y-133685114D02*
X128161654Y-133542257D01*
X128161654Y-133542257D02*
X128304512Y-133470828D01*
X128304512Y-133470828D02*
X128590226Y-133470828D01*
X128590226Y-133470828D02*
X128733083Y-133542257D01*
X128733083Y-133542257D02*
X128804512Y-133685114D01*
X128804512Y-133685114D02*
X128804512Y-133827971D01*
X128804512Y-133827971D02*
X128090226Y-133970828D01*
X129447368Y-134470828D02*
X129447368Y-133470828D01*
X129447368Y-133756542D02*
X129518797Y-133613685D01*
X129518797Y-133613685D02*
X129590226Y-133542257D01*
X129590226Y-133542257D02*
X129733083Y-133470828D01*
X129733083Y-133470828D02*
X129875940Y-133470828D01*
X130161654Y-133470828D02*
X130733082Y-133470828D01*
X130375939Y-132970828D02*
X130375939Y-134256542D01*
X130375939Y-134256542D02*
X130447368Y-134399400D01*
X130447368Y-134399400D02*
X130590225Y-134470828D01*
X130590225Y-134470828D02*
X130733082Y-134470828D01*
X131875940Y-134470828D02*
X131875940Y-133685114D01*
X131875940Y-133685114D02*
X131804511Y-133542257D01*
X131804511Y-133542257D02*
X131661654Y-133470828D01*
X131661654Y-133470828D02*
X131375940Y-133470828D01*
X131375940Y-133470828D02*
X131233082Y-133542257D01*
X131875940Y-134399400D02*
X131733082Y-134470828D01*
X131733082Y-134470828D02*
X131375940Y-134470828D01*
X131375940Y-134470828D02*
X131233082Y-134399400D01*
X131233082Y-134399400D02*
X131161654Y-134256542D01*
X131161654Y-134256542D02*
X131161654Y-134113685D01*
X131161654Y-134113685D02*
X131233082Y-133970828D01*
X131233082Y-133970828D02*
X131375940Y-133899400D01*
X131375940Y-133899400D02*
X131733082Y-133899400D01*
X131733082Y-133899400D02*
X131875940Y-133827971D01*
X132590225Y-133470828D02*
X132590225Y-134470828D01*
X132590225Y-133613685D02*
X132661654Y-133542257D01*
X132661654Y-133542257D02*
X132804511Y-133470828D01*
X132804511Y-133470828D02*
X133018797Y-133470828D01*
X133018797Y-133470828D02*
X133161654Y-133542257D01*
X133161654Y-133542257D02*
X133233083Y-133685114D01*
X133233083Y-133685114D02*
X133233083Y-134470828D01*
X133947368Y-134470828D02*
X133947368Y-133470828D01*
X133947368Y-132970828D02*
X133875940Y-133042257D01*
X133875940Y-133042257D02*
X133947368Y-133113685D01*
X133947368Y-133113685D02*
X134018797Y-133042257D01*
X134018797Y-133042257D02*
X133947368Y-132970828D01*
X133947368Y-132970828D02*
X133947368Y-133113685D01*
X113661653Y-136885828D02*
X113161653Y-136171542D01*
X112804510Y-136885828D02*
X112804510Y-135385828D01*
X112804510Y-135385828D02*
X113375939Y-135385828D01*
X113375939Y-135385828D02*
X113518796Y-135457257D01*
X113518796Y-135457257D02*
X113590225Y-135528685D01*
X113590225Y-135528685D02*
X113661653Y-135671542D01*
X113661653Y-135671542D02*
X113661653Y-135885828D01*
X113661653Y-135885828D02*
X113590225Y-136028685D01*
X113590225Y-136028685D02*
X113518796Y-136100114D01*
X113518796Y-136100114D02*
X113375939Y-136171542D01*
X113375939Y-136171542D02*
X112804510Y-136171542D01*
X114947368Y-136885828D02*
X114947368Y-136100114D01*
X114947368Y-136100114D02*
X114875939Y-135957257D01*
X114875939Y-135957257D02*
X114733082Y-135885828D01*
X114733082Y-135885828D02*
X114447368Y-135885828D01*
X114447368Y-135885828D02*
X114304510Y-135957257D01*
X114947368Y-136814400D02*
X114804510Y-136885828D01*
X114804510Y-136885828D02*
X114447368Y-136885828D01*
X114447368Y-136885828D02*
X114304510Y-136814400D01*
X114304510Y-136814400D02*
X114233082Y-136671542D01*
X114233082Y-136671542D02*
X114233082Y-136528685D01*
X114233082Y-136528685D02*
X114304510Y-136385828D01*
X114304510Y-136385828D02*
X114447368Y-136314400D01*
X114447368Y-136314400D02*
X114804510Y-136314400D01*
X114804510Y-136314400D02*
X114947368Y-136242971D01*
X115661653Y-136885828D02*
X115661653Y-135885828D01*
X115661653Y-135385828D02*
X115590225Y-135457257D01*
X115590225Y-135457257D02*
X115661653Y-135528685D01*
X115661653Y-135528685D02*
X115733082Y-135457257D01*
X115733082Y-135457257D02*
X115661653Y-135385828D01*
X115661653Y-135385828D02*
X115661653Y-135528685D01*
X116590225Y-136885828D02*
X116447368Y-136814400D01*
X116447368Y-136814400D02*
X116375939Y-136671542D01*
X116375939Y-136671542D02*
X116375939Y-135385828D01*
X118233082Y-136814400D02*
X118447368Y-136885828D01*
X118447368Y-136885828D02*
X118804510Y-136885828D01*
X118804510Y-136885828D02*
X118947368Y-136814400D01*
X118947368Y-136814400D02*
X119018796Y-136742971D01*
X119018796Y-136742971D02*
X119090225Y-136600114D01*
X119090225Y-136600114D02*
X119090225Y-136457257D01*
X119090225Y-136457257D02*
X119018796Y-136314400D01*
X119018796Y-136314400D02*
X118947368Y-136242971D01*
X118947368Y-136242971D02*
X118804510Y-136171542D01*
X118804510Y-136171542D02*
X118518796Y-136100114D01*
X118518796Y-136100114D02*
X118375939Y-136028685D01*
X118375939Y-136028685D02*
X118304510Y-135957257D01*
X118304510Y-135957257D02*
X118233082Y-135814400D01*
X118233082Y-135814400D02*
X118233082Y-135671542D01*
X118233082Y-135671542D02*
X118304510Y-135528685D01*
X118304510Y-135528685D02*
X118375939Y-135457257D01*
X118375939Y-135457257D02*
X118518796Y-135385828D01*
X118518796Y-135385828D02*
X118875939Y-135385828D01*
X118875939Y-135385828D02*
X119090225Y-135457257D01*
X119733081Y-135885828D02*
X119733081Y-137385828D01*
X119733081Y-135957257D02*
X119875939Y-135885828D01*
X119875939Y-135885828D02*
X120161653Y-135885828D01*
X120161653Y-135885828D02*
X120304510Y-135957257D01*
X120304510Y-135957257D02*
X120375939Y-136028685D01*
X120375939Y-136028685D02*
X120447367Y-136171542D01*
X120447367Y-136171542D02*
X120447367Y-136600114D01*
X120447367Y-136600114D02*
X120375939Y-136742971D01*
X120375939Y-136742971D02*
X120304510Y-136814400D01*
X120304510Y-136814400D02*
X120161653Y-136885828D01*
X120161653Y-136885828D02*
X119875939Y-136885828D01*
X119875939Y-136885828D02*
X119733081Y-136814400D01*
X121304510Y-136885828D02*
X121161653Y-136814400D01*
X121161653Y-136814400D02*
X121090224Y-136671542D01*
X121090224Y-136671542D02*
X121090224Y-135385828D01*
X121875938Y-136885828D02*
X121875938Y-135885828D01*
X121875938Y-135385828D02*
X121804510Y-135457257D01*
X121804510Y-135457257D02*
X121875938Y-135528685D01*
X121875938Y-135528685D02*
X121947367Y-135457257D01*
X121947367Y-135457257D02*
X121875938Y-135385828D01*
X121875938Y-135385828D02*
X121875938Y-135528685D01*
X122375939Y-135885828D02*
X122947367Y-135885828D01*
X122590224Y-135385828D02*
X122590224Y-136671542D01*
X122590224Y-136671542D02*
X122661653Y-136814400D01*
X122661653Y-136814400D02*
X122804510Y-136885828D01*
X122804510Y-136885828D02*
X122947367Y-136885828D01*
X123233082Y-135885828D02*
X123804510Y-135885828D01*
X123447367Y-135385828D02*
X123447367Y-136671542D01*
X123447367Y-136671542D02*
X123518796Y-136814400D01*
X123518796Y-136814400D02*
X123661653Y-136885828D01*
X123661653Y-136885828D02*
X123804510Y-136885828D01*
X124875939Y-136814400D02*
X124733082Y-136885828D01*
X124733082Y-136885828D02*
X124447368Y-136885828D01*
X124447368Y-136885828D02*
X124304510Y-136814400D01*
X124304510Y-136814400D02*
X124233082Y-136671542D01*
X124233082Y-136671542D02*
X124233082Y-136100114D01*
X124233082Y-136100114D02*
X124304510Y-135957257D01*
X124304510Y-135957257D02*
X124447368Y-135885828D01*
X124447368Y-135885828D02*
X124733082Y-135885828D01*
X124733082Y-135885828D02*
X124875939Y-135957257D01*
X124875939Y-135957257D02*
X124947368Y-136100114D01*
X124947368Y-136100114D02*
X124947368Y-136242971D01*
X124947368Y-136242971D02*
X124233082Y-136385828D01*
X125590224Y-136885828D02*
X125590224Y-135885828D01*
X125590224Y-136171542D02*
X125661653Y-136028685D01*
X125661653Y-136028685D02*
X125733082Y-135957257D01*
X125733082Y-135957257D02*
X125875939Y-135885828D01*
X125875939Y-135885828D02*
X126018796Y-135885828D01*
X112590225Y-137800828D02*
X113090225Y-139300828D01*
X113090225Y-139300828D02*
X113590225Y-137800828D01*
X114661653Y-139229400D02*
X114518796Y-139300828D01*
X114518796Y-139300828D02*
X114233082Y-139300828D01*
X114233082Y-139300828D02*
X114090224Y-139229400D01*
X114090224Y-139229400D02*
X114018796Y-139086542D01*
X114018796Y-139086542D02*
X114018796Y-138515114D01*
X114018796Y-138515114D02*
X114090224Y-138372257D01*
X114090224Y-138372257D02*
X114233082Y-138300828D01*
X114233082Y-138300828D02*
X114518796Y-138300828D01*
X114518796Y-138300828D02*
X114661653Y-138372257D01*
X114661653Y-138372257D02*
X114733082Y-138515114D01*
X114733082Y-138515114D02*
X114733082Y-138657971D01*
X114733082Y-138657971D02*
X114018796Y-138800828D01*
X115375938Y-139300828D02*
X115375938Y-138300828D01*
X115375938Y-138586542D02*
X115447367Y-138443685D01*
X115447367Y-138443685D02*
X115518796Y-138372257D01*
X115518796Y-138372257D02*
X115661653Y-138300828D01*
X115661653Y-138300828D02*
X115804510Y-138300828D01*
X117733081Y-137800828D02*
X117875938Y-137800828D01*
X117875938Y-137800828D02*
X118018795Y-137872257D01*
X118018795Y-137872257D02*
X118090224Y-137943685D01*
X118090224Y-137943685D02*
X118161652Y-138086542D01*
X118161652Y-138086542D02*
X118233081Y-138372257D01*
X118233081Y-138372257D02*
X118233081Y-138729400D01*
X118233081Y-138729400D02*
X118161652Y-139015114D01*
X118161652Y-139015114D02*
X118090224Y-139157971D01*
X118090224Y-139157971D02*
X118018795Y-139229400D01*
X118018795Y-139229400D02*
X117875938Y-139300828D01*
X117875938Y-139300828D02*
X117733081Y-139300828D01*
X117733081Y-139300828D02*
X117590224Y-139229400D01*
X117590224Y-139229400D02*
X117518795Y-139157971D01*
X117518795Y-139157971D02*
X117447366Y-139015114D01*
X117447366Y-139015114D02*
X117375938Y-138729400D01*
X117375938Y-138729400D02*
X117375938Y-138372257D01*
X117375938Y-138372257D02*
X117447366Y-138086542D01*
X117447366Y-138086542D02*
X117518795Y-137943685D01*
X117518795Y-137943685D02*
X117590224Y-137872257D01*
X117590224Y-137872257D02*
X117733081Y-137800828D01*
X118875937Y-139157971D02*
X118947366Y-139229400D01*
X118947366Y-139229400D02*
X118875937Y-139300828D01*
X118875937Y-139300828D02*
X118804509Y-139229400D01*
X118804509Y-139229400D02*
X118875937Y-139157971D01*
X118875937Y-139157971D02*
X118875937Y-139300828D01*
X120375938Y-139300828D02*
X119518795Y-139300828D01*
X119947366Y-139300828D02*
X119947366Y-137800828D01*
X119947366Y-137800828D02*
X119804509Y-138015114D01*
X119804509Y-138015114D02*
X119661652Y-138157971D01*
X119661652Y-138157971D02*
X119518795Y-138229400D01*
D10*
X96586779Y-117369819D02*
X96586779Y-116369819D01*
X96586779Y-116369819D02*
X96967731Y-116369819D01*
X96967731Y-116369819D02*
X97062969Y-116417438D01*
X97062969Y-116417438D02*
X97110588Y-116465057D01*
X97110588Y-116465057D02*
X97158207Y-116560295D01*
X97158207Y-116560295D02*
X97158207Y-116703152D01*
X97158207Y-116703152D02*
X97110588Y-116798390D01*
X97110588Y-116798390D02*
X97062969Y-116846009D01*
X97062969Y-116846009D02*
X96967731Y-116893628D01*
X96967731Y-116893628D02*
X96586779Y-116893628D01*
X97491541Y-116369819D02*
X97729636Y-117369819D01*
X97729636Y-117369819D02*
X97920112Y-116655533D01*
X97920112Y-116655533D02*
X98110588Y-117369819D01*
X98110588Y-117369819D02*
X98348684Y-116369819D01*
X99301064Y-117369819D02*
X98967731Y-116893628D01*
X98729636Y-117369819D02*
X98729636Y-116369819D01*
X98729636Y-116369819D02*
X99110588Y-116369819D01*
X99110588Y-116369819D02*
X99205826Y-116417438D01*
X99205826Y-116417438D02*
X99253445Y-116465057D01*
X99253445Y-116465057D02*
X99301064Y-116560295D01*
X99301064Y-116560295D02*
X99301064Y-116703152D01*
X99301064Y-116703152D02*
X99253445Y-116798390D01*
X99253445Y-116798390D02*
X99205826Y-116846009D01*
X99205826Y-116846009D02*
X99110588Y-116893628D01*
X99110588Y-116893628D02*
X98729636Y-116893628D01*
X99729636Y-117369819D02*
X99729636Y-116369819D01*
X100205826Y-117369819D02*
X100205826Y-116369819D01*
X100205826Y-116369819D02*
X100777254Y-117369819D01*
X100777254Y-117369819D02*
X100777254Y-116369819D01*
X102015350Y-116988866D02*
X102777255Y-116988866D01*
X102396302Y-117369819D02*
X102396302Y-116607914D01*
X100193922Y-129869819D02*
X100527255Y-130869819D01*
X100527255Y-130869819D02*
X100860588Y-129869819D01*
X101193922Y-130346009D02*
X101527255Y-130346009D01*
X101670112Y-130869819D02*
X101193922Y-130869819D01*
X101193922Y-130869819D02*
X101193922Y-129869819D01*
X101193922Y-129869819D02*
X101670112Y-129869819D01*
X102098684Y-130346009D02*
X102432017Y-130346009D01*
X102574874Y-130869819D02*
X102098684Y-130869819D01*
X102098684Y-130869819D02*
X102098684Y-129869819D01*
X102098684Y-129869819D02*
X102574874Y-129869819D01*
X103765351Y-130488866D02*
X104527256Y-130488866D01*
X156693922Y-107869819D02*
X157027255Y-108869819D01*
X157027255Y-108869819D02*
X157360588Y-107869819D01*
X158265350Y-108774580D02*
X158217731Y-108822200D01*
X158217731Y-108822200D02*
X158074874Y-108869819D01*
X158074874Y-108869819D02*
X157979636Y-108869819D01*
X157979636Y-108869819D02*
X157836779Y-108822200D01*
X157836779Y-108822200D02*
X157741541Y-108726961D01*
X157741541Y-108726961D02*
X157693922Y-108631723D01*
X157693922Y-108631723D02*
X157646303Y-108441247D01*
X157646303Y-108441247D02*
X157646303Y-108298390D01*
X157646303Y-108298390D02*
X157693922Y-108107914D01*
X157693922Y-108107914D02*
X157741541Y-108012676D01*
X157741541Y-108012676D02*
X157836779Y-107917438D01*
X157836779Y-107917438D02*
X157979636Y-107869819D01*
X157979636Y-107869819D02*
X158074874Y-107869819D01*
X158074874Y-107869819D02*
X158217731Y-107917438D01*
X158217731Y-107917438D02*
X158265350Y-107965057D01*
X159265350Y-108774580D02*
X159217731Y-108822200D01*
X159217731Y-108822200D02*
X159074874Y-108869819D01*
X159074874Y-108869819D02*
X158979636Y-108869819D01*
X158979636Y-108869819D02*
X158836779Y-108822200D01*
X158836779Y-108822200D02*
X158741541Y-108726961D01*
X158741541Y-108726961D02*
X158693922Y-108631723D01*
X158693922Y-108631723D02*
X158646303Y-108441247D01*
X158646303Y-108441247D02*
X158646303Y-108298390D01*
X158646303Y-108298390D02*
X158693922Y-108107914D01*
X158693922Y-108107914D02*
X158741541Y-108012676D01*
X158741541Y-108012676D02*
X158836779Y-107917438D01*
X158836779Y-107917438D02*
X158979636Y-107869819D01*
X158979636Y-107869819D02*
X159074874Y-107869819D01*
X159074874Y-107869819D02*
X159217731Y-107917438D01*
X159217731Y-107917438D02*
X159265350Y-107965057D01*
X160455827Y-108488866D02*
X161217732Y-108488866D01*
X160836779Y-108869819D02*
X160836779Y-108107914D01*
X156943922Y-126119819D02*
X157277255Y-127119819D01*
X157277255Y-127119819D02*
X157610588Y-126119819D01*
X157943922Y-126596009D02*
X158277255Y-126596009D01*
X158420112Y-127119819D02*
X157943922Y-127119819D01*
X157943922Y-127119819D02*
X157943922Y-126119819D01*
X157943922Y-126119819D02*
X158420112Y-126119819D01*
X158848684Y-126596009D02*
X159182017Y-126596009D01*
X159324874Y-127119819D02*
X158848684Y-127119819D01*
X158848684Y-127119819D02*
X158848684Y-126119819D01*
X158848684Y-126119819D02*
X159324874Y-126119819D01*
X160515351Y-126738866D02*
X161277256Y-126738866D01*
X161488095Y-139204819D02*
X161488095Y-138204819D01*
X161488095Y-138681009D02*
X162059523Y-138681009D01*
X162059523Y-139204819D02*
X162059523Y-138204819D01*
X162964285Y-138538152D02*
X162964285Y-139204819D01*
X162726190Y-138157200D02*
X162488095Y-138871485D01*
X162488095Y-138871485D02*
X163107142Y-138871485D01*
X113274819Y-114716666D02*
X112798628Y-115049999D01*
X113274819Y-115288094D02*
X112274819Y-115288094D01*
X112274819Y-115288094D02*
X112274819Y-114907142D01*
X112274819Y-114907142D02*
X112322438Y-114811904D01*
X112322438Y-114811904D02*
X112370057Y-114764285D01*
X112370057Y-114764285D02*
X112465295Y-114716666D01*
X112465295Y-114716666D02*
X112608152Y-114716666D01*
X112608152Y-114716666D02*
X112703390Y-114764285D01*
X112703390Y-114764285D02*
X112751009Y-114811904D01*
X112751009Y-114811904D02*
X112798628Y-114907142D01*
X112798628Y-114907142D02*
X112798628Y-115288094D01*
X113274819Y-113764285D02*
X113274819Y-114335713D01*
X113274819Y-114049999D02*
X112274819Y-114049999D01*
X112274819Y-114049999D02*
X112417676Y-114145237D01*
X112417676Y-114145237D02*
X112512914Y-114240475D01*
X112512914Y-114240475D02*
X112560533Y-114335713D01*
X103988095Y-135954819D02*
X103988095Y-134954819D01*
X103988095Y-135431009D02*
X104559523Y-135431009D01*
X104559523Y-135954819D02*
X104559523Y-134954819D01*
X104940476Y-134954819D02*
X105559523Y-134954819D01*
X105559523Y-134954819D02*
X105226190Y-135335771D01*
X105226190Y-135335771D02*
X105369047Y-135335771D01*
X105369047Y-135335771D02*
X105464285Y-135383390D01*
X105464285Y-135383390D02*
X105511904Y-135431009D01*
X105511904Y-135431009D02*
X105559523Y-135526247D01*
X105559523Y-135526247D02*
X105559523Y-135764342D01*
X105559523Y-135764342D02*
X105511904Y-135859580D01*
X105511904Y-135859580D02*
X105464285Y-135907200D01*
X105464285Y-135907200D02*
X105369047Y-135954819D01*
X105369047Y-135954819D02*
X105083333Y-135954819D01*
X105083333Y-135954819D02*
X104988095Y-135907200D01*
X104988095Y-135907200D02*
X104940476Y-135859580D01*
X121774819Y-114866666D02*
X121298628Y-115199999D01*
X121774819Y-115438094D02*
X120774819Y-115438094D01*
X120774819Y-115438094D02*
X120774819Y-115057142D01*
X120774819Y-115057142D02*
X120822438Y-114961904D01*
X120822438Y-114961904D02*
X120870057Y-114914285D01*
X120870057Y-114914285D02*
X120965295Y-114866666D01*
X120965295Y-114866666D02*
X121108152Y-114866666D01*
X121108152Y-114866666D02*
X121203390Y-114914285D01*
X121203390Y-114914285D02*
X121251009Y-114961904D01*
X121251009Y-114961904D02*
X121298628Y-115057142D01*
X121298628Y-115057142D02*
X121298628Y-115438094D01*
X121108152Y-114009523D02*
X121774819Y-114009523D01*
X120727200Y-114247618D02*
X121441485Y-114485713D01*
X121441485Y-114485713D02*
X121441485Y-113866666D01*
X149738095Y-121704819D02*
X150309523Y-121704819D01*
X150023809Y-122704819D02*
X150023809Y-121704819D01*
X150642857Y-122704819D02*
X150642857Y-121704819D01*
X150642857Y-121704819D02*
X151023809Y-121704819D01*
X151023809Y-121704819D02*
X151119047Y-121752438D01*
X151119047Y-121752438D02*
X151166666Y-121800057D01*
X151166666Y-121800057D02*
X151214285Y-121895295D01*
X151214285Y-121895295D02*
X151214285Y-122038152D01*
X151214285Y-122038152D02*
X151166666Y-122133390D01*
X151166666Y-122133390D02*
X151119047Y-122181009D01*
X151119047Y-122181009D02*
X151023809Y-122228628D01*
X151023809Y-122228628D02*
X150642857Y-122228628D01*
X152071428Y-122038152D02*
X152071428Y-122704819D01*
X151833333Y-121657200D02*
X151595238Y-122371485D01*
X151595238Y-122371485D02*
X152214285Y-122371485D01*
X125138095Y-114604819D02*
X125138095Y-115414342D01*
X125138095Y-115414342D02*
X125185714Y-115509580D01*
X125185714Y-115509580D02*
X125233333Y-115557200D01*
X125233333Y-115557200D02*
X125328571Y-115604819D01*
X125328571Y-115604819D02*
X125519047Y-115604819D01*
X125519047Y-115604819D02*
X125614285Y-115557200D01*
X125614285Y-115557200D02*
X125661904Y-115509580D01*
X125661904Y-115509580D02*
X125709523Y-115414342D01*
X125709523Y-115414342D02*
X125709523Y-114604819D01*
X126709523Y-115604819D02*
X126138095Y-115604819D01*
X126423809Y-115604819D02*
X126423809Y-114604819D01*
X126423809Y-114604819D02*
X126328571Y-114747676D01*
X126328571Y-114747676D02*
X126233333Y-114842914D01*
X126233333Y-114842914D02*
X126138095Y-114890533D01*
X154583333Y-129359580D02*
X154535714Y-129407200D01*
X154535714Y-129407200D02*
X154392857Y-129454819D01*
X154392857Y-129454819D02*
X154297619Y-129454819D01*
X154297619Y-129454819D02*
X154154762Y-129407200D01*
X154154762Y-129407200D02*
X154059524Y-129311961D01*
X154059524Y-129311961D02*
X154011905Y-129216723D01*
X154011905Y-129216723D02*
X153964286Y-129026247D01*
X153964286Y-129026247D02*
X153964286Y-128883390D01*
X153964286Y-128883390D02*
X154011905Y-128692914D01*
X154011905Y-128692914D02*
X154059524Y-128597676D01*
X154059524Y-128597676D02*
X154154762Y-128502438D01*
X154154762Y-128502438D02*
X154297619Y-128454819D01*
X154297619Y-128454819D02*
X154392857Y-128454819D01*
X154392857Y-128454819D02*
X154535714Y-128502438D01*
X154535714Y-128502438D02*
X154583333Y-128550057D01*
X154964286Y-128550057D02*
X155011905Y-128502438D01*
X155011905Y-128502438D02*
X155107143Y-128454819D01*
X155107143Y-128454819D02*
X155345238Y-128454819D01*
X155345238Y-128454819D02*
X155440476Y-128502438D01*
X155440476Y-128502438D02*
X155488095Y-128550057D01*
X155488095Y-128550057D02*
X155535714Y-128645295D01*
X155535714Y-128645295D02*
X155535714Y-128740533D01*
X155535714Y-128740533D02*
X155488095Y-128883390D01*
X155488095Y-128883390D02*
X154916667Y-129454819D01*
X154916667Y-129454819D02*
X155535714Y-129454819D01*
X159988095Y-97954819D02*
X159988095Y-96954819D01*
X159988095Y-97431009D02*
X160559523Y-97431009D01*
X160559523Y-97954819D02*
X160559523Y-96954819D01*
X160988095Y-97050057D02*
X161035714Y-97002438D01*
X161035714Y-97002438D02*
X161130952Y-96954819D01*
X161130952Y-96954819D02*
X161369047Y-96954819D01*
X161369047Y-96954819D02*
X161464285Y-97002438D01*
X161464285Y-97002438D02*
X161511904Y-97050057D01*
X161511904Y-97050057D02*
X161559523Y-97145295D01*
X161559523Y-97145295D02*
X161559523Y-97240533D01*
X161559523Y-97240533D02*
X161511904Y-97383390D01*
X161511904Y-97383390D02*
X160940476Y-97954819D01*
X160940476Y-97954819D02*
X161559523Y-97954819D01*
X108666666Y-120304819D02*
X108666666Y-121019104D01*
X108666666Y-121019104D02*
X108619047Y-121161961D01*
X108619047Y-121161961D02*
X108523809Y-121257200D01*
X108523809Y-121257200D02*
X108380952Y-121304819D01*
X108380952Y-121304819D02*
X108285714Y-121304819D01*
X109666666Y-121304819D02*
X109095238Y-121304819D01*
X109380952Y-121304819D02*
X109380952Y-120304819D01*
X109380952Y-120304819D02*
X109285714Y-120447676D01*
X109285714Y-120447676D02*
X109190476Y-120542914D01*
X109190476Y-120542914D02*
X109095238Y-120590533D01*
X168395833Y-129109580D02*
X168348214Y-129157200D01*
X168348214Y-129157200D02*
X168205357Y-129204819D01*
X168205357Y-129204819D02*
X168110119Y-129204819D01*
X168110119Y-129204819D02*
X167967262Y-129157200D01*
X167967262Y-129157200D02*
X167872024Y-129061961D01*
X167872024Y-129061961D02*
X167824405Y-128966723D01*
X167824405Y-128966723D02*
X167776786Y-128776247D01*
X167776786Y-128776247D02*
X167776786Y-128633390D01*
X167776786Y-128633390D02*
X167824405Y-128442914D01*
X167824405Y-128442914D02*
X167872024Y-128347676D01*
X167872024Y-128347676D02*
X167967262Y-128252438D01*
X167967262Y-128252438D02*
X168110119Y-128204819D01*
X168110119Y-128204819D02*
X168205357Y-128204819D01*
X168205357Y-128204819D02*
X168348214Y-128252438D01*
X168348214Y-128252438D02*
X168395833Y-128300057D01*
X169252976Y-128538152D02*
X169252976Y-129204819D01*
X169014881Y-128157200D02*
X168776786Y-128871485D01*
X168776786Y-128871485D02*
X169395833Y-128871485D01*
X149238095Y-111454819D02*
X149809523Y-111454819D01*
X149523809Y-112454819D02*
X149523809Y-111454819D01*
X150142857Y-112454819D02*
X150142857Y-111454819D01*
X150142857Y-111454819D02*
X150523809Y-111454819D01*
X150523809Y-111454819D02*
X150619047Y-111502438D01*
X150619047Y-111502438D02*
X150666666Y-111550057D01*
X150666666Y-111550057D02*
X150714285Y-111645295D01*
X150714285Y-111645295D02*
X150714285Y-111788152D01*
X150714285Y-111788152D02*
X150666666Y-111883390D01*
X150666666Y-111883390D02*
X150619047Y-111931009D01*
X150619047Y-111931009D02*
X150523809Y-111978628D01*
X150523809Y-111978628D02*
X150142857Y-111978628D01*
X151095238Y-111550057D02*
X151142857Y-111502438D01*
X151142857Y-111502438D02*
X151238095Y-111454819D01*
X151238095Y-111454819D02*
X151476190Y-111454819D01*
X151476190Y-111454819D02*
X151571428Y-111502438D01*
X151571428Y-111502438D02*
X151619047Y-111550057D01*
X151619047Y-111550057D02*
X151666666Y-111645295D01*
X151666666Y-111645295D02*
X151666666Y-111740533D01*
X151666666Y-111740533D02*
X151619047Y-111883390D01*
X151619047Y-111883390D02*
X151047619Y-112454819D01*
X151047619Y-112454819D02*
X151666666Y-112454819D01*
X117704819Y-115375594D02*
X116704819Y-115375594D01*
X116704819Y-115375594D02*
X116704819Y-115137499D01*
X116704819Y-115137499D02*
X116752438Y-114994642D01*
X116752438Y-114994642D02*
X116847676Y-114899404D01*
X116847676Y-114899404D02*
X116942914Y-114851785D01*
X116942914Y-114851785D02*
X117133390Y-114804166D01*
X117133390Y-114804166D02*
X117276247Y-114804166D01*
X117276247Y-114804166D02*
X117466723Y-114851785D01*
X117466723Y-114851785D02*
X117561961Y-114899404D01*
X117561961Y-114899404D02*
X117657200Y-114994642D01*
X117657200Y-114994642D02*
X117704819Y-115137499D01*
X117704819Y-115137499D02*
X117704819Y-115375594D01*
X116800057Y-114423213D02*
X116752438Y-114375594D01*
X116752438Y-114375594D02*
X116704819Y-114280356D01*
X116704819Y-114280356D02*
X116704819Y-114042261D01*
X116704819Y-114042261D02*
X116752438Y-113947023D01*
X116752438Y-113947023D02*
X116800057Y-113899404D01*
X116800057Y-113899404D02*
X116895295Y-113851785D01*
X116895295Y-113851785D02*
X116990533Y-113851785D01*
X116990533Y-113851785D02*
X117133390Y-113899404D01*
X117133390Y-113899404D02*
X117704819Y-114470832D01*
X117704819Y-114470832D02*
X117704819Y-113851785D01*
X168156666Y-107659819D02*
X168156666Y-108374104D01*
X168156666Y-108374104D02*
X168109047Y-108516961D01*
X168109047Y-108516961D02*
X168013809Y-108612200D01*
X168013809Y-108612200D02*
X167870952Y-108659819D01*
X167870952Y-108659819D02*
X167775714Y-108659819D01*
X168585238Y-107755057D02*
X168632857Y-107707438D01*
X168632857Y-107707438D02*
X168728095Y-107659819D01*
X168728095Y-107659819D02*
X168966190Y-107659819D01*
X168966190Y-107659819D02*
X169061428Y-107707438D01*
X169061428Y-107707438D02*
X169109047Y-107755057D01*
X169109047Y-107755057D02*
X169156666Y-107850295D01*
X169156666Y-107850295D02*
X169156666Y-107945533D01*
X169156666Y-107945533D02*
X169109047Y-108088390D01*
X169109047Y-108088390D02*
X168537619Y-108659819D01*
X168537619Y-108659819D02*
X169156666Y-108659819D01*
X141479761Y-119375057D02*
X141384523Y-119327438D01*
X141384523Y-119327438D02*
X141289285Y-119232200D01*
X141289285Y-119232200D02*
X141146428Y-119089342D01*
X141146428Y-119089342D02*
X141051190Y-119041723D01*
X141051190Y-119041723D02*
X140955952Y-119041723D01*
X141003571Y-119279819D02*
X140908333Y-119232200D01*
X140908333Y-119232200D02*
X140813095Y-119136961D01*
X140813095Y-119136961D02*
X140765476Y-118946485D01*
X140765476Y-118946485D02*
X140765476Y-118613152D01*
X140765476Y-118613152D02*
X140813095Y-118422676D01*
X140813095Y-118422676D02*
X140908333Y-118327438D01*
X140908333Y-118327438D02*
X141003571Y-118279819D01*
X141003571Y-118279819D02*
X141194047Y-118279819D01*
X141194047Y-118279819D02*
X141289285Y-118327438D01*
X141289285Y-118327438D02*
X141384523Y-118422676D01*
X141384523Y-118422676D02*
X141432142Y-118613152D01*
X141432142Y-118613152D02*
X141432142Y-118946485D01*
X141432142Y-118946485D02*
X141384523Y-119136961D01*
X141384523Y-119136961D02*
X141289285Y-119232200D01*
X141289285Y-119232200D02*
X141194047Y-119279819D01*
X141194047Y-119279819D02*
X141003571Y-119279819D01*
X141813095Y-118375057D02*
X141860714Y-118327438D01*
X141860714Y-118327438D02*
X141955952Y-118279819D01*
X141955952Y-118279819D02*
X142194047Y-118279819D01*
X142194047Y-118279819D02*
X142289285Y-118327438D01*
X142289285Y-118327438D02*
X142336904Y-118375057D01*
X142336904Y-118375057D02*
X142384523Y-118470295D01*
X142384523Y-118470295D02*
X142384523Y-118565533D01*
X142384523Y-118565533D02*
X142336904Y-118708390D01*
X142336904Y-118708390D02*
X141765476Y-119279819D01*
X141765476Y-119279819D02*
X142384523Y-119279819D01*
X96654761Y-113550057D02*
X96559523Y-113502438D01*
X96559523Y-113502438D02*
X96464285Y-113407200D01*
X96464285Y-113407200D02*
X96321428Y-113264342D01*
X96321428Y-113264342D02*
X96226190Y-113216723D01*
X96226190Y-113216723D02*
X96130952Y-113216723D01*
X96178571Y-113454819D02*
X96083333Y-113407200D01*
X96083333Y-113407200D02*
X95988095Y-113311961D01*
X95988095Y-113311961D02*
X95940476Y-113121485D01*
X95940476Y-113121485D02*
X95940476Y-112788152D01*
X95940476Y-112788152D02*
X95988095Y-112597676D01*
X95988095Y-112597676D02*
X96083333Y-112502438D01*
X96083333Y-112502438D02*
X96178571Y-112454819D01*
X96178571Y-112454819D02*
X96369047Y-112454819D01*
X96369047Y-112454819D02*
X96464285Y-112502438D01*
X96464285Y-112502438D02*
X96559523Y-112597676D01*
X96559523Y-112597676D02*
X96607142Y-112788152D01*
X96607142Y-112788152D02*
X96607142Y-113121485D01*
X96607142Y-113121485D02*
X96559523Y-113311961D01*
X96559523Y-113311961D02*
X96464285Y-113407200D01*
X96464285Y-113407200D02*
X96369047Y-113454819D01*
X96369047Y-113454819D02*
X96178571Y-113454819D01*
X97559523Y-113454819D02*
X96988095Y-113454819D01*
X97273809Y-113454819D02*
X97273809Y-112454819D01*
X97273809Y-112454819D02*
X97178571Y-112597676D01*
X97178571Y-112597676D02*
X97083333Y-112692914D01*
X97083333Y-112692914D02*
X96988095Y-112740533D01*
X103488095Y-98454819D02*
X103488095Y-97454819D01*
X103488095Y-97931009D02*
X104059523Y-97931009D01*
X104059523Y-98454819D02*
X104059523Y-97454819D01*
X105059523Y-98454819D02*
X104488095Y-98454819D01*
X104773809Y-98454819D02*
X104773809Y-97454819D01*
X104773809Y-97454819D02*
X104678571Y-97597676D01*
X104678571Y-97597676D02*
X104583333Y-97692914D01*
X104583333Y-97692914D02*
X104488095Y-97740533D01*
X149238095Y-116704819D02*
X149809523Y-116704819D01*
X149523809Y-117704819D02*
X149523809Y-116704819D01*
X150142857Y-117704819D02*
X150142857Y-116704819D01*
X150142857Y-116704819D02*
X150523809Y-116704819D01*
X150523809Y-116704819D02*
X150619047Y-116752438D01*
X150619047Y-116752438D02*
X150666666Y-116800057D01*
X150666666Y-116800057D02*
X150714285Y-116895295D01*
X150714285Y-116895295D02*
X150714285Y-117038152D01*
X150714285Y-117038152D02*
X150666666Y-117133390D01*
X150666666Y-117133390D02*
X150619047Y-117181009D01*
X150619047Y-117181009D02*
X150523809Y-117228628D01*
X150523809Y-117228628D02*
X150142857Y-117228628D01*
X151047619Y-116704819D02*
X151666666Y-116704819D01*
X151666666Y-116704819D02*
X151333333Y-117085771D01*
X151333333Y-117085771D02*
X151476190Y-117085771D01*
X151476190Y-117085771D02*
X151571428Y-117133390D01*
X151571428Y-117133390D02*
X151619047Y-117181009D01*
X151619047Y-117181009D02*
X151666666Y-117276247D01*
X151666666Y-117276247D02*
X151666666Y-117514342D01*
X151666666Y-117514342D02*
X151619047Y-117609580D01*
X151619047Y-117609580D02*
X151571428Y-117657200D01*
X151571428Y-117657200D02*
X151476190Y-117704819D01*
X151476190Y-117704819D02*
X151190476Y-117704819D01*
X151190476Y-117704819D02*
X151095238Y-117657200D01*
X151095238Y-117657200D02*
X151047619Y-117609580D01*
X121774819Y-107616666D02*
X121298628Y-107949999D01*
X121774819Y-108188094D02*
X120774819Y-108188094D01*
X120774819Y-108188094D02*
X120774819Y-107807142D01*
X120774819Y-107807142D02*
X120822438Y-107711904D01*
X120822438Y-107711904D02*
X120870057Y-107664285D01*
X120870057Y-107664285D02*
X120965295Y-107616666D01*
X120965295Y-107616666D02*
X121108152Y-107616666D01*
X121108152Y-107616666D02*
X121203390Y-107664285D01*
X121203390Y-107664285D02*
X121251009Y-107711904D01*
X121251009Y-107711904D02*
X121298628Y-107807142D01*
X121298628Y-107807142D02*
X121298628Y-108188094D01*
X120774819Y-107283332D02*
X120774819Y-106664285D01*
X120774819Y-106664285D02*
X121155771Y-106997618D01*
X121155771Y-106997618D02*
X121155771Y-106854761D01*
X121155771Y-106854761D02*
X121203390Y-106759523D01*
X121203390Y-106759523D02*
X121251009Y-106711904D01*
X121251009Y-106711904D02*
X121346247Y-106664285D01*
X121346247Y-106664285D02*
X121584342Y-106664285D01*
X121584342Y-106664285D02*
X121679580Y-106711904D01*
X121679580Y-106711904D02*
X121727200Y-106759523D01*
X121727200Y-106759523D02*
X121774819Y-106854761D01*
X121774819Y-106854761D02*
X121774819Y-107140475D01*
X121774819Y-107140475D02*
X121727200Y-107235713D01*
X121727200Y-107235713D02*
X121679580Y-107283332D01*
X113454819Y-108238094D02*
X112454819Y-108238094D01*
X112454819Y-108238094D02*
X112454819Y-107999999D01*
X112454819Y-107999999D02*
X112502438Y-107857142D01*
X112502438Y-107857142D02*
X112597676Y-107761904D01*
X112597676Y-107761904D02*
X112692914Y-107714285D01*
X112692914Y-107714285D02*
X112883390Y-107666666D01*
X112883390Y-107666666D02*
X113026247Y-107666666D01*
X113026247Y-107666666D02*
X113216723Y-107714285D01*
X113216723Y-107714285D02*
X113311961Y-107761904D01*
X113311961Y-107761904D02*
X113407200Y-107857142D01*
X113407200Y-107857142D02*
X113454819Y-107999999D01*
X113454819Y-107999999D02*
X113454819Y-108238094D01*
X113454819Y-106714285D02*
X113454819Y-107285713D01*
X113454819Y-106999999D02*
X112454819Y-106999999D01*
X112454819Y-106999999D02*
X112597676Y-107095237D01*
X112597676Y-107095237D02*
X112692914Y-107190475D01*
X112692914Y-107190475D02*
X112740533Y-107285713D01*
X98738095Y-112206819D02*
X99309523Y-112206819D01*
X99023809Y-113206819D02*
X99023809Y-112206819D01*
X99642857Y-113206819D02*
X99642857Y-112206819D01*
X99642857Y-112206819D02*
X100023809Y-112206819D01*
X100023809Y-112206819D02*
X100119047Y-112254438D01*
X100119047Y-112254438D02*
X100166666Y-112302057D01*
X100166666Y-112302057D02*
X100214285Y-112397295D01*
X100214285Y-112397295D02*
X100214285Y-112540152D01*
X100214285Y-112540152D02*
X100166666Y-112635390D01*
X100166666Y-112635390D02*
X100119047Y-112683009D01*
X100119047Y-112683009D02*
X100023809Y-112730628D01*
X100023809Y-112730628D02*
X99642857Y-112730628D01*
X101166666Y-113206819D02*
X100595238Y-113206819D01*
X100880952Y-113206819D02*
X100880952Y-112206819D01*
X100880952Y-112206819D02*
X100785714Y-112349676D01*
X100785714Y-112349676D02*
X100690476Y-112444914D01*
X100690476Y-112444914D02*
X100595238Y-112492533D01*
X154533333Y-106159580D02*
X154485714Y-106207200D01*
X154485714Y-106207200D02*
X154342857Y-106254819D01*
X154342857Y-106254819D02*
X154247619Y-106254819D01*
X154247619Y-106254819D02*
X154104762Y-106207200D01*
X154104762Y-106207200D02*
X154009524Y-106111961D01*
X154009524Y-106111961D02*
X153961905Y-106016723D01*
X153961905Y-106016723D02*
X153914286Y-105826247D01*
X153914286Y-105826247D02*
X153914286Y-105683390D01*
X153914286Y-105683390D02*
X153961905Y-105492914D01*
X153961905Y-105492914D02*
X154009524Y-105397676D01*
X154009524Y-105397676D02*
X154104762Y-105302438D01*
X154104762Y-105302438D02*
X154247619Y-105254819D01*
X154247619Y-105254819D02*
X154342857Y-105254819D01*
X154342857Y-105254819D02*
X154485714Y-105302438D01*
X154485714Y-105302438D02*
X154533333Y-105350057D01*
X155485714Y-106254819D02*
X154914286Y-106254819D01*
X155200000Y-106254819D02*
X155200000Y-105254819D01*
X155200000Y-105254819D02*
X155104762Y-105397676D01*
X155104762Y-105397676D02*
X155009524Y-105492914D01*
X155009524Y-105492914D02*
X154914286Y-105540533D01*
X141479761Y-103375057D02*
X141384523Y-103327438D01*
X141384523Y-103327438D02*
X141289285Y-103232200D01*
X141289285Y-103232200D02*
X141146428Y-103089342D01*
X141146428Y-103089342D02*
X141051190Y-103041723D01*
X141051190Y-103041723D02*
X140955952Y-103041723D01*
X141003571Y-103279819D02*
X140908333Y-103232200D01*
X140908333Y-103232200D02*
X140813095Y-103136961D01*
X140813095Y-103136961D02*
X140765476Y-102946485D01*
X140765476Y-102946485D02*
X140765476Y-102613152D01*
X140765476Y-102613152D02*
X140813095Y-102422676D01*
X140813095Y-102422676D02*
X140908333Y-102327438D01*
X140908333Y-102327438D02*
X141003571Y-102279819D01*
X141003571Y-102279819D02*
X141194047Y-102279819D01*
X141194047Y-102279819D02*
X141289285Y-102327438D01*
X141289285Y-102327438D02*
X141384523Y-102422676D01*
X141384523Y-102422676D02*
X141432142Y-102613152D01*
X141432142Y-102613152D02*
X141432142Y-102946485D01*
X141432142Y-102946485D02*
X141384523Y-103136961D01*
X141384523Y-103136961D02*
X141289285Y-103232200D01*
X141289285Y-103232200D02*
X141194047Y-103279819D01*
X141194047Y-103279819D02*
X141003571Y-103279819D01*
X141765476Y-102279819D02*
X142384523Y-102279819D01*
X142384523Y-102279819D02*
X142051190Y-102660771D01*
X142051190Y-102660771D02*
X142194047Y-102660771D01*
X142194047Y-102660771D02*
X142289285Y-102708390D01*
X142289285Y-102708390D02*
X142336904Y-102756009D01*
X142336904Y-102756009D02*
X142384523Y-102851247D01*
X142384523Y-102851247D02*
X142384523Y-103089342D01*
X142384523Y-103089342D02*
X142336904Y-103184580D01*
X142336904Y-103184580D02*
X142289285Y-103232200D01*
X142289285Y-103232200D02*
X142194047Y-103279819D01*
X142194047Y-103279819D02*
X141908333Y-103279819D01*
X141908333Y-103279819D02*
X141813095Y-103232200D01*
X141813095Y-103232200D02*
X141765476Y-103184580D01*
X166333333Y-105109580D02*
X166285714Y-105157200D01*
X166285714Y-105157200D02*
X166142857Y-105204819D01*
X166142857Y-105204819D02*
X166047619Y-105204819D01*
X166047619Y-105204819D02*
X165904762Y-105157200D01*
X165904762Y-105157200D02*
X165809524Y-105061961D01*
X165809524Y-105061961D02*
X165761905Y-104966723D01*
X165761905Y-104966723D02*
X165714286Y-104776247D01*
X165714286Y-104776247D02*
X165714286Y-104633390D01*
X165714286Y-104633390D02*
X165761905Y-104442914D01*
X165761905Y-104442914D02*
X165809524Y-104347676D01*
X165809524Y-104347676D02*
X165904762Y-104252438D01*
X165904762Y-104252438D02*
X166047619Y-104204819D01*
X166047619Y-104204819D02*
X166142857Y-104204819D01*
X166142857Y-104204819D02*
X166285714Y-104252438D01*
X166285714Y-104252438D02*
X166333333Y-104300057D01*
X166666667Y-104204819D02*
X167285714Y-104204819D01*
X167285714Y-104204819D02*
X166952381Y-104585771D01*
X166952381Y-104585771D02*
X167095238Y-104585771D01*
X167095238Y-104585771D02*
X167190476Y-104633390D01*
X167190476Y-104633390D02*
X167238095Y-104681009D01*
X167238095Y-104681009D02*
X167285714Y-104776247D01*
X167285714Y-104776247D02*
X167285714Y-105014342D01*
X167285714Y-105014342D02*
X167238095Y-105109580D01*
X167238095Y-105109580D02*
X167190476Y-105157200D01*
X167190476Y-105157200D02*
X167095238Y-105204819D01*
X167095238Y-105204819D02*
X166809524Y-105204819D01*
X166809524Y-105204819D02*
X166714286Y-105157200D01*
X166714286Y-105157200D02*
X166666667Y-105109580D01*
X117524819Y-107616666D02*
X117048628Y-107949999D01*
X117524819Y-108188094D02*
X116524819Y-108188094D01*
X116524819Y-108188094D02*
X116524819Y-107807142D01*
X116524819Y-107807142D02*
X116572438Y-107711904D01*
X116572438Y-107711904D02*
X116620057Y-107664285D01*
X116620057Y-107664285D02*
X116715295Y-107616666D01*
X116715295Y-107616666D02*
X116858152Y-107616666D01*
X116858152Y-107616666D02*
X116953390Y-107664285D01*
X116953390Y-107664285D02*
X117001009Y-107711904D01*
X117001009Y-107711904D02*
X117048628Y-107807142D01*
X117048628Y-107807142D02*
X117048628Y-108188094D01*
X116620057Y-107235713D02*
X116572438Y-107188094D01*
X116572438Y-107188094D02*
X116524819Y-107092856D01*
X116524819Y-107092856D02*
X116524819Y-106854761D01*
X116524819Y-106854761D02*
X116572438Y-106759523D01*
X116572438Y-106759523D02*
X116620057Y-106711904D01*
X116620057Y-106711904D02*
X116715295Y-106664285D01*
X116715295Y-106664285D02*
X116810533Y-106664285D01*
X116810533Y-106664285D02*
X116953390Y-106711904D01*
X116953390Y-106711904D02*
X117524819Y-107283332D01*
X117524819Y-107283332D02*
X117524819Y-106664285D01*
D12*
%TO.C,R1*%
X111910000Y-113822936D02*
X111910000Y-115277064D01*
X110090000Y-113822936D02*
X110090000Y-115277064D01*
%TO.C,R4*%
X120410000Y-113972936D02*
X120410000Y-115427064D01*
X118590000Y-113972936D02*
X118590000Y-115427064D01*
%TO.C,TP4*%
X155200000Y-122000000D02*
G75*
G03*
X155200000Y-122000000I-1200000J0D01*
G01*
%TO.C,U1*%
X125000000Y-119660000D02*
X126800000Y-119660000D01*
X126800000Y-116440000D02*
X124350000Y-116440000D01*
%TO.C,C2*%
X160300000Y-137010000D02*
X159300000Y-137010000D01*
X159800000Y-137510000D02*
X159800000Y-136510000D01*
X159060000Y-137795563D02*
X159060000Y-136010000D01*
X159060000Y-137795563D02*
X157995563Y-138860000D01*
X159060000Y-131204437D02*
X159060000Y-132990000D01*
X159060000Y-131204437D02*
X157995563Y-130140000D01*
X157995563Y-138860000D02*
X150340000Y-138860000D01*
X157995563Y-130140000D02*
X150340000Y-130140000D01*
X150340000Y-138860000D02*
X150340000Y-136010000D01*
X150340000Y-130140000D02*
X150340000Y-132990000D01*
%TO.C,J1*%
X95450000Y-128750000D02*
X108050000Y-128750000D01*
X108050000Y-128750000D02*
X108050000Y-118400000D01*
X100250000Y-118400000D02*
X100550000Y-117900000D01*
X105650000Y-118400000D02*
X100250000Y-118400000D01*
X107100000Y-118400000D02*
X107350000Y-117900000D01*
X108050000Y-118400000D02*
X107100000Y-118400000D01*
X95450000Y-117900000D02*
X95450000Y-128750000D01*
X100550000Y-117900000D02*
X95450000Y-117900000D01*
X105400000Y-117900000D02*
X105650000Y-118400000D01*
X105450000Y-117900000D02*
X105400000Y-117900000D01*
X107350000Y-117900000D02*
X105450000Y-117900000D01*
%TO.C,C4*%
X165523752Y-129410000D02*
X164101248Y-129410000D01*
X165523752Y-127590000D02*
X164101248Y-127590000D01*
%TO.C,TP2*%
X154950000Y-112000000D02*
G75*
G03*
X154950000Y-112000000I-1200000J0D01*
G01*
%TO.C,D2*%
X114115000Y-117097500D02*
X116385000Y-117097500D01*
X116385000Y-117097500D02*
X116385000Y-113037500D01*
X114115000Y-113037500D02*
X114115000Y-117097500D01*
%TO.C,J2*%
X169540000Y-109305000D02*
X156940000Y-109305000D01*
X156940000Y-109305000D02*
X156940000Y-124705000D01*
X164740000Y-124705000D02*
X164490000Y-125205000D01*
X159340000Y-124705000D02*
X164740000Y-124705000D01*
X157890000Y-124705000D02*
X157590000Y-125205000D01*
X156940000Y-124705000D02*
X157890000Y-124705000D01*
X169540000Y-125205000D02*
X169540000Y-109305000D01*
X164490000Y-125205000D02*
X169540000Y-125205000D01*
X159590000Y-125205000D02*
X159340000Y-124705000D01*
X157590000Y-125205000D02*
X159590000Y-125205000D01*
%TO.C,Q2*%
X136750000Y-120275000D02*
X136750000Y-122085000D01*
X136750000Y-122085000D02*
X131625000Y-122085000D01*
X136750000Y-128865000D02*
X135650000Y-128865000D01*
X136750000Y-130675000D02*
X136750000Y-128865000D01*
X138250000Y-120275000D02*
X136750000Y-120275000D01*
X138250000Y-130675000D02*
X136750000Y-130675000D01*
%TO.C,Q1*%
X103520000Y-111670000D02*
X103520000Y-111400000D01*
X103520000Y-111400000D02*
X106350000Y-111400000D01*
X103520000Y-105040000D02*
X104620000Y-105040000D01*
X103520000Y-104770000D02*
X103520000Y-105040000D01*
X97100000Y-111670000D02*
X103520000Y-111670000D01*
X97100000Y-104770000D02*
X103520000Y-104770000D01*
%TO.C,TP3*%
X154950000Y-117000000D02*
G75*
G03*
X154950000Y-117000000I-1200000J0D01*
G01*
%TO.C,R3*%
X120410000Y-106722936D02*
X120410000Y-108177064D01*
X118590000Y-106722936D02*
X118590000Y-108177064D01*
%TO.C,D1*%
X112000000Y-105140000D02*
X110000000Y-105140000D01*
X112000000Y-105140000D02*
X112000000Y-109150000D01*
X110000000Y-105140000D02*
X110000000Y-109150000D01*
%TO.C,TP1*%
X101200000Y-114750000D02*
G75*
G03*
X101200000Y-114750000I-1200000J0D01*
G01*
%TO.C,C1*%
X160300000Y-103010000D02*
X159300000Y-103010000D01*
X159800000Y-103510000D02*
X159800000Y-102510000D01*
X159060000Y-103795563D02*
X159060000Y-102010000D01*
X159060000Y-103795563D02*
X157995563Y-104860000D01*
X159060000Y-97204437D02*
X159060000Y-98990000D01*
X159060000Y-97204437D02*
X157995563Y-96140000D01*
X157995563Y-104860000D02*
X150340000Y-104860000D01*
X157995563Y-96140000D02*
X150340000Y-96140000D01*
X150340000Y-104860000D02*
X150340000Y-102010000D01*
X150340000Y-96140000D02*
X150340000Y-98990000D01*
%TO.C,Q3*%
X136750000Y-104275000D02*
X136750000Y-106085000D01*
X136750000Y-106085000D02*
X131625000Y-106085000D01*
X136750000Y-112865000D02*
X135650000Y-112865000D01*
X136750000Y-114675000D02*
X136750000Y-112865000D01*
X138250000Y-104275000D02*
X136750000Y-104275000D01*
X138250000Y-114675000D02*
X136750000Y-114675000D01*
%TO.C,C3*%
X164038748Y-105840000D02*
X165461252Y-105840000D01*
X164038748Y-107660000D02*
X165461252Y-107660000D01*
%TO.C,R2*%
X116160000Y-106722936D02*
X116160000Y-108177064D01*
X114340000Y-106722936D02*
X114340000Y-108177064D01*
%TD*%
M02*
