%TF.GenerationSoftware,KiCad,Pcbnew,8.0.0*%
%TF.CreationDate,2024-05-07T14:34:52-04:00*%
%TF.ProjectId,RailSplitter,5261696c-5370-46c6-9974-7465722e6b69,rev?*%
%TF.SameCoordinates,Original*%
%TF.FileFunction,Copper,L1,Top*%
%TF.FilePolarity,Positive*%
%FSLAX46Y46*%
G04 Gerber Fmt 4.6, Leading zero omitted, Abs format (unit mm)*
G04 Created by KiCad (PCBNEW 8.0.0) date 2024-05-07 14:34:52*
%MOMM*%
%LPD*%
G01*
G04 APERTURE LIST*
G04 Aperture macros list*
%AMRoundRect*
0 Rectangle with rounded corners*
0 $1 Rounding radius*
0 $2 $3 $4 $5 $6 $7 $8 $9 X,Y pos of 4 corners*
0 Add a 4 corners polygon primitive as box body*
4,1,4,$2,$3,$4,$5,$6,$7,$8,$9,$2,$3,0*
0 Add four circle primitives for the rounded corners*
1,1,$1+$1,$2,$3*
1,1,$1+$1,$4,$5*
1,1,$1+$1,$6,$7*
1,1,$1+$1,$8,$9*
0 Add four rect primitives between the rounded corners*
20,1,$1+$1,$2,$3,$4,$5,0*
20,1,$1+$1,$4,$5,$6,$7,0*
20,1,$1+$1,$6,$7,$8,$9,0*
20,1,$1+$1,$8,$9,$2,$3,0*%
G04 Aperture macros list end*
%TA.AperFunction,SMDPad,CuDef*%
%ADD10RoundRect,0.250001X0.624999X-0.462499X0.624999X0.462499X-0.624999X0.462499X-0.624999X-0.462499X0*%
%TD*%
%TA.AperFunction,SMDPad,CuDef*%
%ADD11RoundRect,0.250000X1.950000X1.000000X-1.950000X1.000000X-1.950000X-1.000000X1.950000X-1.000000X0*%
%TD*%
%TA.AperFunction,ComponentPad*%
%ADD12C,2.000000*%
%TD*%
%TA.AperFunction,SMDPad,CuDef*%
%ADD13RoundRect,0.250000X-2.050000X-0.300000X2.050000X-0.300000X2.050000X0.300000X-2.050000X0.300000X0*%
%TD*%
%TA.AperFunction,SMDPad,CuDef*%
%ADD14RoundRect,0.250000X-2.025000X-2.375000X2.025000X-2.375000X2.025000X2.375000X-2.025000X2.375000X0*%
%TD*%
%TA.AperFunction,SMDPad,CuDef*%
%ADD15RoundRect,0.250002X-4.449998X-5.149998X4.449998X-5.149998X4.449998X5.149998X-4.449998X5.149998X0*%
%TD*%
%TA.AperFunction,SMDPad,CuDef*%
%ADD16RoundRect,0.150000X-0.150000X0.825000X-0.150000X-0.825000X0.150000X-0.825000X0.150000X0.825000X0*%
%TD*%
%TA.AperFunction,SMDPad,CuDef*%
%ADD17RoundRect,0.250000X-0.625000X0.400000X-0.625000X-0.400000X0.625000X-0.400000X0.625000X0.400000X0*%
%TD*%
%TA.AperFunction,SMDPad,CuDef*%
%ADD18RoundRect,0.250000X-0.400000X-0.625000X0.400000X-0.625000X0.400000X0.625000X-0.400000X0.625000X0*%
%TD*%
%TA.AperFunction,ComponentPad*%
%ADD19R,3.960000X1.980000*%
%TD*%
%TA.AperFunction,ComponentPad*%
%ADD20O,3.960000X1.980000*%
%TD*%
%TA.AperFunction,SMDPad,CuDef*%
%ADD21RoundRect,0.250000X0.850000X0.350000X-0.850000X0.350000X-0.850000X-0.350000X0.850000X-0.350000X0*%
%TD*%
%TA.AperFunction,SMDPad,CuDef*%
%ADD22RoundRect,0.250000X1.275000X1.125000X-1.275000X1.125000X-1.275000X-1.125000X1.275000X-1.125000X0*%
%TD*%
%TA.AperFunction,SMDPad,CuDef*%
%ADD23RoundRect,0.249997X2.950003X2.650003X-2.950003X2.650003X-2.950003X-2.650003X2.950003X-2.650003X0*%
%TD*%
%TA.AperFunction,SMDPad,CuDef*%
%ADD24RoundRect,0.250000X0.400000X0.625000X-0.400000X0.625000X-0.400000X-0.625000X0.400000X-0.625000X0*%
%TD*%
%TA.AperFunction,SMDPad,CuDef*%
%ADD25RoundRect,0.250000X-0.412500X-0.650000X0.412500X-0.650000X0.412500X0.650000X-0.412500X0.650000X0*%
%TD*%
%TA.AperFunction,SMDPad,CuDef*%
%ADD26RoundRect,0.250000X0.412500X0.650000X-0.412500X0.650000X-0.412500X-0.650000X0.412500X-0.650000X0*%
%TD*%
%TA.AperFunction,SMDPad,CuDef*%
%ADD27RoundRect,0.250000X-1.950000X-1.000000X1.950000X-1.000000X1.950000X1.000000X-1.950000X1.000000X0*%
%TD*%
%TA.AperFunction,SMDPad,CuDef*%
%ADD28RoundRect,0.225000X-0.375000X0.225000X-0.375000X-0.225000X0.375000X-0.225000X0.375000X0.225000X0*%
%TD*%
%TA.AperFunction,ViaPad*%
%ADD29C,0.500000*%
%TD*%
%TA.AperFunction,ViaPad*%
%ADD30C,0.800000*%
%TD*%
%TA.AperFunction,Conductor*%
%ADD31C,1.397000*%
%TD*%
%TA.AperFunction,Conductor*%
%ADD32C,0.250000*%
%TD*%
G04 APERTURE END LIST*
D10*
%TO.P,D2,1,K*%
%TO.N,VEE*%
X172000000Y-78900000D03*
%TO.P,D2,2,A*%
%TO.N,Net-(D2-A)*%
X172000000Y-75925000D03*
%TD*%
D11*
%TO.P,C1,1*%
%TO.N,VCC*%
X213500000Y-55000000D03*
%TO.P,C1,2*%
%TO.N,GND*%
X206100000Y-55000000D03*
%TD*%
D12*
%TO.P,TP2,1,1*%
%TO.N,VCC*%
X222000000Y-60500000D03*
%TD*%
D13*
%TO.P,Q3,1,B*%
%TO.N,Net-(Q2-B)*%
X193925000Y-63960000D03*
D14*
%TO.P,Q3,2,C*%
%TO.N,VCC*%
X200650000Y-63725000D03*
X200650000Y-69275000D03*
D15*
X203075000Y-66500000D03*
D14*
X205500000Y-63725000D03*
X205500000Y-69275000D03*
D13*
%TO.P,Q3,3,E*%
%TO.N,GND*%
X193925000Y-69040000D03*
%TD*%
D16*
%TO.P,U1,1*%
%TO.N,Net-(Q2-B)*%
X184405000Y-71050000D03*
%TO.P,U1,2,-*%
%TO.N,GND*%
X183135000Y-71050000D03*
%TO.P,U1,3,+*%
%TO.N,Net-(U1A-+)*%
X181865000Y-71050000D03*
%TO.P,U1,4,V-*%
%TO.N,VEE*%
X180595000Y-71050000D03*
%TO.P,U1,5,+*%
%TO.N,Net-(U1B-+)*%
X180595000Y-76000000D03*
%TO.P,U1,6,-*%
%TO.N,Net-(U1B--)*%
X181865000Y-76000000D03*
%TO.P,U1,7*%
X183135000Y-76000000D03*
%TO.P,U1,8,V+*%
%TO.N,VCC*%
X184405000Y-76000000D03*
%TD*%
D17*
%TO.P,R2,1*%
%TO.N,VCC*%
X172000000Y-69862500D03*
%TO.P,R2,2*%
%TO.N,Net-(D2-A)*%
X172000000Y-72962500D03*
%TD*%
%TO.P,R1,1*%
%TO.N,Net-(D1-A)*%
X167500000Y-75862500D03*
%TO.P,R1,2*%
%TO.N,VEE*%
X167500000Y-78962500D03*
%TD*%
D18*
%TO.P,R5,1*%
%TO.N,VCC*%
X176900000Y-87500000D03*
%TO.P,R5,2*%
%TO.N,Net-(U1B-+)*%
X180000000Y-87500000D03*
%TD*%
D13*
%TO.P,Q2,1,B*%
%TO.N,Net-(Q2-B)*%
X193925000Y-76210000D03*
D14*
%TO.P,Q2,2,C*%
%TO.N,VEE*%
X200650000Y-75975000D03*
X200650000Y-81525000D03*
D15*
X203075000Y-78750000D03*
D14*
X205500000Y-75975000D03*
X205500000Y-81525000D03*
D13*
%TO.P,Q2,3,E*%
%TO.N,GND*%
X193925000Y-81290000D03*
%TD*%
D19*
%TO.P,J1,1,Pin_1*%
%TO.N,/PWRIN*%
X157000000Y-72500000D03*
D20*
%TO.P,J1,2,Pin_2*%
%TO.N,VEE*%
X157000000Y-77500000D03*
%TD*%
D12*
%TO.P,TP5,1,1*%
%TO.N,Net-(U1B--)*%
X186000000Y-80500000D03*
%TD*%
D21*
%TO.P,Q1,1,G*%
%TO.N,Net-(D1-A)*%
X160315000Y-67225000D03*
D22*
%TO.P,Q1,2,D*%
%TO.N,/PWRIN*%
X155690000Y-66470000D03*
X155690000Y-63420000D03*
D23*
X154015000Y-64945000D03*
D22*
X152340000Y-66470000D03*
X152340000Y-63420000D03*
D21*
%TO.P,Q1,3,S*%
%TO.N,VCC*%
X160315000Y-62665000D03*
%TD*%
D24*
%TO.P,R6,1*%
%TO.N,Net-(U1B-+)*%
X180000000Y-84210000D03*
%TO.P,R6,2*%
%TO.N,VEE*%
X176900000Y-84210000D03*
%TD*%
D25*
%TO.P,C3,1*%
%TO.N,VCC*%
X215375000Y-60500000D03*
%TO.P,C3,2*%
%TO.N,GND*%
X218500000Y-60500000D03*
%TD*%
D19*
%TO.P,J2,1,Pin_1*%
%TO.N,VEE*%
X218000000Y-78000000D03*
D20*
%TO.P,J2,2,Pin_2*%
%TO.N,GND*%
X218000000Y-73000000D03*
%TO.P,J2,3,Pin_3*%
%TO.N,VCC*%
X218000000Y-68000000D03*
%TD*%
D26*
%TO.P,C4,1*%
%TO.N,GND*%
X218625000Y-83000000D03*
%TO.P,C4,2*%
%TO.N,VEE*%
X215500000Y-83000000D03*
%TD*%
D17*
%TO.P,R4,1*%
%TO.N,Net-(U1A-+)*%
X175500000Y-75900000D03*
%TO.P,R4,2*%
%TO.N,VEE*%
X175500000Y-79000000D03*
%TD*%
D27*
%TO.P,C2,1*%
%TO.N,GND*%
X206050000Y-89750000D03*
%TO.P,C2,2*%
%TO.N,VEE*%
X213450000Y-89750000D03*
%TD*%
D12*
%TO.P,TP3,1,1*%
%TO.N,GND*%
X201000000Y-54500000D03*
%TD*%
D28*
%TO.P,D1,1,K*%
%TO.N,VCC*%
X167500000Y-69807500D03*
%TO.P,D1,2,A*%
%TO.N,Net-(D1-A)*%
X167500000Y-73107500D03*
%TD*%
D17*
%TO.P,R3,1*%
%TO.N,VCC*%
X175500000Y-69850000D03*
%TO.P,R3,2*%
%TO.N,Net-(U1A-+)*%
X175500000Y-72950000D03*
%TD*%
D12*
%TO.P,TP4,1,1*%
%TO.N,VEE*%
X222000000Y-84500000D03*
%TD*%
%TO.P,TP1,1,1*%
%TO.N,/PWRIN*%
X160500000Y-59500000D03*
%TD*%
D29*
%TO.N,VCC*%
X178500000Y-68500000D03*
X186500000Y-75000000D03*
D30*
%TO.N,GND*%
X183000000Y-94000000D03*
X222500000Y-77500000D03*
X222500000Y-87500000D03*
X163000000Y-75000000D03*
X210000000Y-82500000D03*
X162500000Y-57500000D03*
X172500000Y-62500000D03*
X172500000Y-82500000D03*
X198000000Y-94000000D03*
X222500000Y-72500000D03*
X157500000Y-82500000D03*
X197500000Y-87500000D03*
X152500000Y-72500000D03*
X218500000Y-80500000D03*
X170000000Y-67500000D03*
X182500000Y-55500000D03*
X210000000Y-92500000D03*
X187500000Y-87500000D03*
X158000000Y-75000000D03*
X187500000Y-67500000D03*
X210000000Y-87500000D03*
X152500000Y-82500000D03*
X158000000Y-69000000D03*
X157500000Y-87500000D03*
X192500000Y-55500000D03*
X177500000Y-57500000D03*
X210000000Y-57500000D03*
X202500000Y-92500000D03*
X183500000Y-73500000D03*
X190000000Y-67500000D03*
X152500000Y-87500000D03*
X162500000Y-52500000D03*
X217500000Y-87500000D03*
X167500000Y-82500000D03*
X165000000Y-92500000D03*
X190000000Y-62500000D03*
X170000000Y-87500000D03*
X152500000Y-57500000D03*
X187500000Y-94000000D03*
X192500000Y-72500000D03*
X157500000Y-92500000D03*
X197500000Y-52500000D03*
X212500000Y-52500000D03*
X217500000Y-65000000D03*
X207500000Y-52500000D03*
X170000000Y-65000000D03*
X157500000Y-57500000D03*
X217500000Y-92500000D03*
X212500000Y-65000000D03*
X152500000Y-52500000D03*
X202500000Y-52500000D03*
X217500000Y-57500000D03*
X182500000Y-52500000D03*
X210000000Y-62500000D03*
X205000000Y-57500000D03*
X187500000Y-55500000D03*
X162500000Y-87500000D03*
X167500000Y-52500000D03*
X173500000Y-94000000D03*
X169500000Y-74500000D03*
X163000000Y-71000000D03*
X197500000Y-55500000D03*
X178000000Y-94000000D03*
X217500000Y-52500000D03*
X162500000Y-82500000D03*
X162500000Y-65000000D03*
X190000000Y-82500000D03*
X160000000Y-65000000D03*
X192500000Y-52500000D03*
X157500000Y-52500000D03*
X188000000Y-73500000D03*
X167500000Y-62500000D03*
X180000000Y-65000000D03*
X192500000Y-87500000D03*
X165000000Y-87500000D03*
X212500000Y-72500000D03*
X170000000Y-92500000D03*
X165000000Y-67500000D03*
X152500000Y-92500000D03*
X222500000Y-52500000D03*
X195000000Y-72500000D03*
X182500000Y-62500000D03*
X222500000Y-92500000D03*
X179000000Y-79500000D03*
X177500000Y-52500000D03*
X222500000Y-57500000D03*
X187500000Y-52500000D03*
X192500000Y-94000000D03*
X217500000Y-62500000D03*
X152500000Y-77500000D03*
D29*
%TO.N,VEE*%
X178000000Y-78000000D03*
X178500000Y-71500000D03*
%TD*%
D31*
%TO.N,VCC*%
X167500000Y-69807500D02*
X171945000Y-69807500D01*
D32*
X186500000Y-75000000D02*
X185500000Y-76000000D01*
D31*
X211500000Y-68000000D02*
X210000000Y-66500000D01*
X218000000Y-68000000D02*
X220000000Y-68000000D01*
D32*
X177501500Y-88976500D02*
X184023500Y-88976500D01*
D31*
X171945000Y-69807500D02*
X172000000Y-69862500D01*
X210000000Y-66500000D02*
X203075000Y-66500000D01*
X160315000Y-62665000D02*
X163665000Y-62665000D01*
D32*
X188000000Y-85000000D02*
X188000000Y-76500000D01*
D31*
X163665000Y-62665000D02*
X167500000Y-66500000D01*
X215375000Y-60500000D02*
X215375000Y-60375000D01*
X211500000Y-68000000D02*
X212500000Y-68000000D01*
X203075000Y-60575000D02*
X203075000Y-66500000D01*
X212500000Y-68000000D02*
X218000000Y-68000000D01*
X175500000Y-63000000D02*
X180000000Y-58500000D01*
D32*
X188000000Y-76500000D02*
X186500000Y-75000000D01*
D31*
X220000000Y-68000000D02*
X222000000Y-66000000D01*
D32*
X176500000Y-68500000D02*
X178500000Y-68500000D01*
D31*
X215375000Y-60375000D02*
X213500000Y-58500000D01*
X172000000Y-69862500D02*
X175487500Y-69862500D01*
X212500000Y-68000000D02*
X215375000Y-65125000D01*
X175487500Y-69862500D02*
X175500000Y-69850000D01*
X213500000Y-55000000D02*
X213500000Y-58500000D01*
D32*
X176900000Y-88375000D02*
X177501500Y-88976500D01*
D31*
X175500000Y-68500000D02*
X175500000Y-63000000D01*
X215375000Y-65125000D02*
X215375000Y-60500000D01*
X201000000Y-58500000D02*
X203075000Y-60575000D01*
D32*
X184023500Y-88976500D02*
X188000000Y-85000000D01*
D31*
X167500000Y-66500000D02*
X167500000Y-69807500D01*
X180000000Y-58500000D02*
X201000000Y-58500000D01*
D32*
X176900000Y-87500000D02*
X176900000Y-88375000D01*
X175500000Y-68500000D02*
X176500000Y-68500000D01*
D31*
X175500000Y-69850000D02*
X175500000Y-68500000D01*
X222000000Y-66000000D02*
X222000000Y-60500000D01*
D32*
X185500000Y-76000000D02*
X184405000Y-76000000D01*
D31*
%TO.N,VEE*%
X177000000Y-81000000D02*
X176900000Y-81100000D01*
X215500000Y-80500000D02*
X213750000Y-78750000D01*
X177000000Y-80500000D02*
X177000000Y-81000000D01*
X176000000Y-91500000D02*
X197750000Y-91500000D01*
X215500000Y-80500000D02*
X215500000Y-83000000D01*
X174000000Y-89500000D02*
X176000000Y-91500000D01*
X220000000Y-78000000D02*
X218000000Y-78000000D01*
X175400000Y-78900000D02*
X175500000Y-79000000D01*
X163500000Y-77500000D02*
X165000000Y-79000000D01*
X174000000Y-86000000D02*
X174000000Y-89500000D01*
X175790000Y-84210000D02*
X174000000Y-86000000D01*
X222000000Y-84500000D02*
X222000000Y-80000000D01*
X222000000Y-80000000D02*
X220000000Y-78000000D01*
X215500000Y-85500000D02*
X213450000Y-87550000D01*
X171937500Y-78962500D02*
X172000000Y-78900000D01*
D32*
X178950000Y-71050000D02*
X178500000Y-71500000D01*
X175500000Y-79000000D02*
X177000000Y-79000000D01*
D31*
X213450000Y-87550000D02*
X213450000Y-89750000D01*
X218000000Y-78000000D02*
X214500000Y-78000000D01*
X203075000Y-86175000D02*
X203075000Y-78750000D01*
X175500000Y-79000000D02*
X177000000Y-80500000D01*
D32*
X180595000Y-71050000D02*
X178950000Y-71050000D01*
X177000000Y-79000000D02*
X178000000Y-78000000D01*
D31*
X165000000Y-79000000D02*
X166000000Y-79000000D01*
X166000000Y-79000000D02*
X166037500Y-78962500D01*
X167500000Y-78962500D02*
X171937500Y-78962500D01*
X197750000Y-91500000D02*
X203075000Y-86175000D01*
X215500000Y-83000000D02*
X215500000Y-85500000D01*
X176900000Y-84210000D02*
X175790000Y-84210000D01*
X213750000Y-78750000D02*
X203075000Y-78750000D01*
X157000000Y-77500000D02*
X163500000Y-77500000D01*
X166037500Y-78962500D02*
X167500000Y-78962500D01*
X214500000Y-78000000D02*
X213750000Y-78750000D01*
X176900000Y-81100000D02*
X176900000Y-84210000D01*
X172000000Y-78900000D02*
X175400000Y-78900000D01*
D32*
%TO.N,Net-(D1-A)*%
X162607500Y-73107500D02*
X167500000Y-73107500D01*
X160315000Y-70815000D02*
X162607500Y-73107500D01*
X167500000Y-73107500D02*
X167500000Y-75862500D01*
X160315000Y-67225000D02*
X160315000Y-70815000D01*
%TO.N,Net-(D2-A)*%
X172000000Y-72962500D02*
X172000000Y-75925000D01*
D31*
%TO.N,/PWRIN*%
X157000000Y-72500000D02*
X157000000Y-71500000D01*
X154015000Y-64945000D02*
X154015000Y-61485000D01*
X157000000Y-71500000D02*
X154015000Y-68515000D01*
X154015000Y-68515000D02*
X154015000Y-64945000D01*
X154015000Y-61485000D02*
X156000000Y-59500000D01*
X156000000Y-59500000D02*
X160500000Y-59500000D01*
D32*
%TO.N,Net-(Q2-B)*%
X184405000Y-71050000D02*
X187550000Y-71050000D01*
X193925000Y-63960000D02*
X186790000Y-63960000D01*
X189250000Y-75000000D02*
X190460000Y-76210000D01*
X189250000Y-72750000D02*
X189250000Y-75000000D01*
X187550000Y-71050000D02*
X189250000Y-72750000D01*
X186790000Y-63960000D02*
X184405000Y-66345000D01*
X190460000Y-76210000D02*
X193925000Y-76210000D01*
X184405000Y-66345000D02*
X184405000Y-71050000D01*
%TO.N,Net-(U1A-+)*%
X181050000Y-72950000D02*
X181865000Y-72135000D01*
X175500000Y-72950000D02*
X175500000Y-75900000D01*
X181865000Y-72135000D02*
X181865000Y-71050000D01*
X175500000Y-72950000D02*
X181050000Y-72950000D01*
%TO.N,Net-(U1B-+)*%
X180595000Y-76000000D02*
X180595000Y-80905000D01*
X180000000Y-81500000D02*
X180000000Y-84210000D01*
X180595000Y-80905000D02*
X180000000Y-81500000D01*
X180000000Y-84210000D02*
X180000000Y-87500000D01*
%TO.N,Net-(U1B--)*%
X183135000Y-76000000D02*
X183135000Y-79135000D01*
X184500000Y-80500000D02*
X186000000Y-80500000D01*
X183135000Y-79135000D02*
X184500000Y-80500000D01*
X181865000Y-76000000D02*
X183135000Y-76000000D01*
%TD*%
%TA.AperFunction,Conductor*%
%TO.N,GND*%
G36*
X220000641Y-50000006D02*
G01*
X220213481Y-50002328D01*
X220222915Y-50002792D01*
X220647552Y-50039943D01*
X220658270Y-50041354D01*
X221077393Y-50115256D01*
X221087921Y-50117590D01*
X221499033Y-50227747D01*
X221509322Y-50230992D01*
X221909255Y-50376555D01*
X221919221Y-50380683D01*
X222304942Y-50560547D01*
X222314528Y-50565538D01*
X222683088Y-50778326D01*
X222692207Y-50784135D01*
X223040820Y-51028237D01*
X223049402Y-51034822D01*
X223375420Y-51308383D01*
X223383395Y-51315692D01*
X223684307Y-51616604D01*
X223691616Y-51624579D01*
X223965177Y-51950597D01*
X223971762Y-51959179D01*
X224215864Y-52307792D01*
X224221676Y-52316916D01*
X224434459Y-52685467D01*
X224439454Y-52695062D01*
X224600728Y-53040916D01*
X224619310Y-53080764D01*
X224623448Y-53090756D01*
X224678315Y-53241500D01*
X224769003Y-53490664D01*
X224772256Y-53500980D01*
X224882405Y-53912061D01*
X224884746Y-53922623D01*
X224958644Y-54341725D01*
X224960056Y-54352450D01*
X224997206Y-54777073D01*
X224997671Y-54786527D01*
X224999993Y-54999357D01*
X225000000Y-55000710D01*
X225000000Y-89999289D01*
X224999993Y-90000642D01*
X224997671Y-90213472D01*
X224997206Y-90222926D01*
X224960056Y-90647549D01*
X224958644Y-90658274D01*
X224884746Y-91077376D01*
X224882405Y-91087938D01*
X224772256Y-91499019D01*
X224769003Y-91509335D01*
X224623450Y-91909240D01*
X224619310Y-91919235D01*
X224439454Y-92304937D01*
X224434459Y-92314532D01*
X224221676Y-92683083D01*
X224215864Y-92692207D01*
X223971762Y-93040820D01*
X223965177Y-93049402D01*
X223691616Y-93375420D01*
X223684307Y-93383395D01*
X223383395Y-93684307D01*
X223375420Y-93691616D01*
X223049402Y-93965177D01*
X223040820Y-93971762D01*
X222692207Y-94215864D01*
X222683083Y-94221676D01*
X222314532Y-94434459D01*
X222304937Y-94439454D01*
X221919235Y-94619310D01*
X221909240Y-94623450D01*
X221509335Y-94769003D01*
X221499019Y-94772256D01*
X221087938Y-94882405D01*
X221077376Y-94884746D01*
X220658274Y-94958644D01*
X220647549Y-94960056D01*
X220222926Y-94997206D01*
X220213472Y-94997671D01*
X220005455Y-94999940D01*
X220000640Y-94999993D01*
X219999290Y-95000000D01*
X155000710Y-95000000D01*
X154999359Y-94999993D01*
X154994454Y-94999939D01*
X154786527Y-94997671D01*
X154777073Y-94997206D01*
X154352450Y-94960056D01*
X154341725Y-94958644D01*
X153922623Y-94884746D01*
X153912061Y-94882405D01*
X153500980Y-94772256D01*
X153490664Y-94769003D01*
X153090759Y-94623450D01*
X153080764Y-94619310D01*
X152695062Y-94439454D01*
X152685467Y-94434459D01*
X152316916Y-94221676D01*
X152307792Y-94215864D01*
X151959179Y-93971762D01*
X151950597Y-93965177D01*
X151624579Y-93691616D01*
X151616604Y-93684307D01*
X151315692Y-93383395D01*
X151308383Y-93375420D01*
X151034822Y-93049402D01*
X151028237Y-93040820D01*
X150784135Y-92692207D01*
X150778323Y-92683083D01*
X150626804Y-92420645D01*
X150565538Y-92314528D01*
X150560545Y-92304937D01*
X150380683Y-91919221D01*
X150376555Y-91909255D01*
X150230992Y-91509322D01*
X150227747Y-91499033D01*
X150117590Y-91087921D01*
X150115256Y-91077393D01*
X150041354Y-90658270D01*
X150039943Y-90647549D01*
X150008676Y-90290166D01*
X150002792Y-90222915D01*
X150002328Y-90213471D01*
X150001323Y-90121288D01*
X153149500Y-90121288D01*
X153181161Y-90361785D01*
X153243947Y-90596104D01*
X153328633Y-90800553D01*
X153336776Y-90820212D01*
X153458064Y-91030289D01*
X153458066Y-91030292D01*
X153458067Y-91030293D01*
X153605733Y-91222736D01*
X153605739Y-91222743D01*
X153777256Y-91394260D01*
X153777262Y-91394265D01*
X153969711Y-91541936D01*
X154179788Y-91663224D01*
X154403900Y-91756054D01*
X154638211Y-91818838D01*
X154818586Y-91842584D01*
X154878711Y-91850500D01*
X154878712Y-91850500D01*
X155121289Y-91850500D01*
X155169388Y-91844167D01*
X155361789Y-91818838D01*
X155596100Y-91756054D01*
X155820212Y-91663224D01*
X156030289Y-91541936D01*
X156222738Y-91394265D01*
X156394265Y-91222738D01*
X156541936Y-91030289D01*
X156663224Y-90820212D01*
X156756054Y-90596100D01*
X156818838Y-90361789D01*
X156850500Y-90121288D01*
X156850500Y-89878712D01*
X156818838Y-89638211D01*
X156756054Y-89403900D01*
X156663224Y-89179788D01*
X156541936Y-88969711D01*
X156475783Y-88883499D01*
X156394266Y-88777263D01*
X156394260Y-88777256D01*
X156222743Y-88605739D01*
X156222736Y-88605733D01*
X156030293Y-88458067D01*
X156030292Y-88458066D01*
X156030289Y-88458064D01*
X155820212Y-88336776D01*
X155794136Y-88325975D01*
X155596104Y-88243947D01*
X155361785Y-88181161D01*
X155121289Y-88149500D01*
X155121288Y-88149500D01*
X154878712Y-88149500D01*
X154878711Y-88149500D01*
X154638214Y-88181161D01*
X154403895Y-88243947D01*
X154179794Y-88336773D01*
X154179785Y-88336777D01*
X153969706Y-88458067D01*
X153777263Y-88605733D01*
X153777256Y-88605739D01*
X153605739Y-88777256D01*
X153605733Y-88777263D01*
X153458067Y-88969706D01*
X153336777Y-89179785D01*
X153336773Y-89179794D01*
X153243947Y-89403895D01*
X153181161Y-89638214D01*
X153149500Y-89878711D01*
X153149500Y-90121288D01*
X150001323Y-90121288D01*
X150000007Y-90000641D01*
X150000000Y-89999289D01*
X150000000Y-77617940D01*
X154511500Y-77617940D01*
X154548398Y-77850901D01*
X154621283Y-78075221D01*
X154621285Y-78075224D01*
X154728368Y-78285385D01*
X154867008Y-78476207D01*
X155033793Y-78642992D01*
X155224615Y-78781632D01*
X155403139Y-78872595D01*
X155434778Y-78888716D01*
X155496942Y-78908914D01*
X155659100Y-78961602D01*
X155766996Y-78978691D01*
X155892060Y-78998500D01*
X155892065Y-78998500D01*
X158107940Y-78998500D01*
X158220877Y-78980611D01*
X158340900Y-78961602D01*
X158565224Y-78888715D01*
X158775385Y-78781632D01*
X158845512Y-78730681D01*
X158911317Y-78707202D01*
X158918397Y-78707000D01*
X162948682Y-78707000D01*
X163015721Y-78726685D01*
X163036363Y-78743319D01*
X164079351Y-79786307D01*
X164079352Y-79786308D01*
X164213692Y-79920648D01*
X164367394Y-80032319D01*
X164463075Y-80081071D01*
X164463074Y-80081071D01*
X164487916Y-80093728D01*
X164536672Y-80118571D01*
X164659558Y-80158499D01*
X164717359Y-80177280D01*
X164905002Y-80207000D01*
X164905007Y-80207000D01*
X166094998Y-80207000D01*
X166199241Y-80190488D01*
X166282640Y-80177280D01*
X166287906Y-80175568D01*
X166326223Y-80169500D01*
X172032498Y-80169500D01*
X172220140Y-80139780D01*
X172259261Y-80127069D01*
X172297579Y-80121000D01*
X172675539Y-80121000D01*
X172675544Y-80121000D01*
X172779425Y-80110387D01*
X172779428Y-80110385D01*
X172782414Y-80109747D01*
X172808371Y-80107000D01*
X174577174Y-80107000D01*
X174616176Y-80113293D01*
X174720574Y-80147887D01*
X174824455Y-80158500D01*
X174900180Y-80158499D01*
X174967219Y-80178183D01*
X174987862Y-80194818D01*
X175662687Y-80869643D01*
X175696172Y-80930966D01*
X175697479Y-80976721D01*
X175693000Y-81005001D01*
X175693000Y-82897411D01*
X175673315Y-82964450D01*
X175620511Y-83010205D01*
X175588399Y-83019884D01*
X175507358Y-83032720D01*
X175389940Y-83070872D01*
X175326672Y-83091429D01*
X175326670Y-83091429D01*
X175326670Y-83091430D01*
X175287580Y-83111348D01*
X175157390Y-83177683D01*
X175022313Y-83275821D01*
X175022314Y-83275822D01*
X175003693Y-83289351D01*
X175003690Y-83289353D01*
X173079354Y-85213689D01*
X173079354Y-85213690D01*
X173079352Y-85213692D01*
X173031393Y-85279701D01*
X172967681Y-85367393D01*
X172915531Y-85469744D01*
X172881430Y-85536668D01*
X172822721Y-85717355D01*
X172822719Y-85717362D01*
X172812381Y-85782639D01*
X172812381Y-85782641D01*
X172793000Y-85905002D01*
X172793000Y-89594998D01*
X172822719Y-89782636D01*
X172822720Y-89782641D01*
X172842979Y-89844993D01*
X172842980Y-89844993D01*
X172881430Y-89963331D01*
X172961914Y-90121288D01*
X172967681Y-90132606D01*
X173079352Y-90286308D01*
X175079352Y-92286308D01*
X175213692Y-92420648D01*
X175367394Y-92532319D01*
X175452033Y-92575445D01*
X175536672Y-92618571D01*
X175673875Y-92663151D01*
X175717359Y-92677280D01*
X175905002Y-92707000D01*
X175905007Y-92707000D01*
X197844998Y-92707000D01*
X198032640Y-92677280D01*
X198213327Y-92618571D01*
X198382606Y-92532319D01*
X198536308Y-92420648D01*
X198670648Y-92286308D01*
X200706956Y-90250000D01*
X203350001Y-90250000D01*
X203350001Y-90799986D01*
X203360494Y-90902697D01*
X203415641Y-91069119D01*
X203415643Y-91069124D01*
X203507684Y-91218345D01*
X203631654Y-91342315D01*
X203780875Y-91434356D01*
X203780880Y-91434358D01*
X203947302Y-91489505D01*
X203947309Y-91489506D01*
X204050019Y-91499999D01*
X205549999Y-91499999D01*
X205550000Y-91499998D01*
X205550000Y-90250000D01*
X206550000Y-90250000D01*
X206550000Y-91499999D01*
X208049972Y-91499999D01*
X208049986Y-91499998D01*
X208152697Y-91489505D01*
X208319119Y-91434358D01*
X208319124Y-91434356D01*
X208468345Y-91342315D01*
X208592315Y-91218345D01*
X208684356Y-91069124D01*
X208684358Y-91069119D01*
X208739505Y-90902697D01*
X208739506Y-90902690D01*
X208749999Y-90799986D01*
X208750000Y-90799973D01*
X208750000Y-90250000D01*
X206550000Y-90250000D01*
X205550000Y-90250000D01*
X203350001Y-90250000D01*
X200706956Y-90250000D01*
X201706956Y-89250000D01*
X203350000Y-89250000D01*
X205550000Y-89250000D01*
X205550000Y-88000000D01*
X206550000Y-88000000D01*
X206550000Y-89250000D01*
X208749999Y-89250000D01*
X208749999Y-88700028D01*
X208749998Y-88700013D01*
X208739505Y-88597302D01*
X208684358Y-88430880D01*
X208684356Y-88430875D01*
X208592315Y-88281654D01*
X208468345Y-88157684D01*
X208319124Y-88065643D01*
X208319119Y-88065641D01*
X208152697Y-88010494D01*
X208152690Y-88010493D01*
X208049986Y-88000000D01*
X206550000Y-88000000D01*
X205550000Y-88000000D01*
X204050028Y-88000000D01*
X204050012Y-88000001D01*
X203947302Y-88010494D01*
X203780880Y-88065641D01*
X203780875Y-88065643D01*
X203631654Y-88157684D01*
X203507684Y-88281654D01*
X203415643Y-88430875D01*
X203415641Y-88430880D01*
X203360494Y-88597302D01*
X203360493Y-88597309D01*
X203350000Y-88700013D01*
X203350000Y-89250000D01*
X201706956Y-89250000D01*
X203995648Y-86961308D01*
X204025189Y-86920648D01*
X204107319Y-86807606D01*
X204173724Y-86677279D01*
X204193571Y-86638328D01*
X204252280Y-86457640D01*
X204279416Y-86286310D01*
X204282000Y-86269998D01*
X204282000Y-84782500D01*
X204301685Y-84715461D01*
X204354489Y-84669706D01*
X204406000Y-84658500D01*
X207575540Y-84658500D01*
X207575544Y-84658500D01*
X207669796Y-84648870D01*
X207669796Y-84648874D01*
X207669810Y-84648868D01*
X207679426Y-84647887D01*
X207847738Y-84592115D01*
X207998652Y-84499030D01*
X208124030Y-84373652D01*
X208217115Y-84222738D01*
X208272887Y-84054426D01*
X208283500Y-83950545D01*
X208283500Y-81532318D01*
X208283500Y-80081000D01*
X208303185Y-80013961D01*
X208355989Y-79968206D01*
X208407500Y-79957000D01*
X213198682Y-79957000D01*
X213265721Y-79976685D01*
X213286363Y-79993319D01*
X214256681Y-80963637D01*
X214290166Y-81024960D01*
X214293000Y-81051318D01*
X214293000Y-84948682D01*
X214273315Y-85015721D01*
X214256681Y-85036363D01*
X212529354Y-86763689D01*
X212529354Y-86763690D01*
X212529352Y-86763692D01*
X212497447Y-86807606D01*
X212417681Y-86917393D01*
X212406876Y-86938600D01*
X212331430Y-87086668D01*
X212272720Y-87267359D01*
X212254563Y-87382000D01*
X212254563Y-87382001D01*
X212243000Y-87455002D01*
X212243000Y-87867500D01*
X212223315Y-87934539D01*
X212170511Y-87980294D01*
X212119000Y-87991500D01*
X211449462Y-87991500D01*
X211449446Y-87991501D01*
X211345572Y-88002113D01*
X211177264Y-88057884D01*
X211177259Y-88057886D01*
X211026346Y-88150971D01*
X210900971Y-88276346D01*
X210807886Y-88427259D01*
X210807884Y-88427264D01*
X210752113Y-88595572D01*
X210741500Y-88699447D01*
X210741500Y-90800537D01*
X210741501Y-90800553D01*
X210743510Y-90820214D01*
X210752113Y-90904426D01*
X210807885Y-91072738D01*
X210900970Y-91223652D01*
X211026348Y-91349030D01*
X211177262Y-91442115D01*
X211345574Y-91497887D01*
X211449455Y-91508500D01*
X215450544Y-91508499D01*
X215554426Y-91497887D01*
X215722738Y-91442115D01*
X215873652Y-91349030D01*
X215999030Y-91223652D01*
X216092115Y-91072738D01*
X216147887Y-90904426D01*
X216158500Y-90800545D01*
X216158500Y-90121288D01*
X218149500Y-90121288D01*
X218181161Y-90361785D01*
X218243947Y-90596104D01*
X218328633Y-90800553D01*
X218336776Y-90820212D01*
X218458064Y-91030289D01*
X218458066Y-91030292D01*
X218458067Y-91030293D01*
X218605733Y-91222736D01*
X218605739Y-91222743D01*
X218777256Y-91394260D01*
X218777262Y-91394265D01*
X218969711Y-91541936D01*
X219179788Y-91663224D01*
X219403900Y-91756054D01*
X219638211Y-91818838D01*
X219818586Y-91842584D01*
X219878711Y-91850500D01*
X219878712Y-91850500D01*
X220121289Y-91850500D01*
X220169388Y-91844167D01*
X220361789Y-91818838D01*
X220596100Y-91756054D01*
X220820212Y-91663224D01*
X221030289Y-91541936D01*
X221222738Y-91394265D01*
X221394265Y-91222738D01*
X221541936Y-91030289D01*
X221663224Y-90820212D01*
X221756054Y-90596100D01*
X221818838Y-90361789D01*
X221850500Y-90121288D01*
X221850500Y-89878712D01*
X221818838Y-89638211D01*
X221756054Y-89403900D01*
X221663224Y-89179788D01*
X221541936Y-88969711D01*
X221475783Y-88883499D01*
X221394266Y-88777263D01*
X221394260Y-88777256D01*
X221222743Y-88605739D01*
X221222736Y-88605733D01*
X221030293Y-88458067D01*
X221030292Y-88458066D01*
X221030289Y-88458064D01*
X220820212Y-88336776D01*
X220794136Y-88325975D01*
X220596104Y-88243947D01*
X220361785Y-88181161D01*
X220121289Y-88149500D01*
X220121288Y-88149500D01*
X219878712Y-88149500D01*
X219878711Y-88149500D01*
X219638214Y-88181161D01*
X219403895Y-88243947D01*
X219179794Y-88336773D01*
X219179785Y-88336777D01*
X218969706Y-88458067D01*
X218777263Y-88605733D01*
X218777256Y-88605739D01*
X218605739Y-88777256D01*
X218605733Y-88777263D01*
X218458067Y-88969706D01*
X218336777Y-89179785D01*
X218336773Y-89179794D01*
X218243947Y-89403895D01*
X218181161Y-89638214D01*
X218149500Y-89878711D01*
X218149500Y-90121288D01*
X216158500Y-90121288D01*
X216158499Y-88699456D01*
X216147887Y-88595574D01*
X216092115Y-88427262D01*
X215999030Y-88276348D01*
X215873652Y-88150970D01*
X215735316Y-88065643D01*
X215722740Y-88057886D01*
X215722735Y-88057884D01*
X215554427Y-88002113D01*
X215450552Y-87991500D01*
X215450545Y-87991500D01*
X215014817Y-87991500D01*
X214947778Y-87971815D01*
X214902023Y-87919011D01*
X214892079Y-87849853D01*
X214921104Y-87786297D01*
X214927136Y-87779819D01*
X215439596Y-87267359D01*
X216420648Y-86286308D01*
X216428159Y-86275970D01*
X216532319Y-86132606D01*
X216618571Y-85963327D01*
X216626441Y-85939105D01*
X216637520Y-85905008D01*
X216655965Y-85848240D01*
X216677280Y-85782640D01*
X216691838Y-85690721D01*
X216707000Y-85594998D01*
X216707000Y-83500000D01*
X217462501Y-83500000D01*
X217462501Y-83699986D01*
X217472994Y-83802697D01*
X217528141Y-83969119D01*
X217528143Y-83969124D01*
X217620184Y-84118345D01*
X217744154Y-84242315D01*
X217893375Y-84334356D01*
X217893380Y-84334358D01*
X218059802Y-84389505D01*
X218124999Y-84396166D01*
X218125000Y-84396165D01*
X218125000Y-83500000D01*
X219125000Y-83500000D01*
X219125000Y-84396165D01*
X219190197Y-84389505D01*
X219356619Y-84334358D01*
X219356624Y-84334356D01*
X219505845Y-84242315D01*
X219629815Y-84118345D01*
X219721856Y-83969124D01*
X219721858Y-83969119D01*
X219777005Y-83802697D01*
X219777006Y-83802690D01*
X219787499Y-83699986D01*
X219787500Y-83699973D01*
X219787500Y-83500000D01*
X219125000Y-83500000D01*
X218125000Y-83500000D01*
X217462501Y-83500000D01*
X216707000Y-83500000D01*
X216707000Y-82500000D01*
X217462500Y-82500000D01*
X218125000Y-82500000D01*
X218125000Y-81603834D01*
X218124999Y-81603833D01*
X219125000Y-81603833D01*
X219125000Y-82500000D01*
X219787499Y-82500000D01*
X219787499Y-82300028D01*
X219787498Y-82300013D01*
X219777005Y-82197302D01*
X219721858Y-82030880D01*
X219721856Y-82030875D01*
X219629815Y-81881654D01*
X219505845Y-81757684D01*
X219356624Y-81665643D01*
X219356619Y-81665641D01*
X219190197Y-81610494D01*
X219190190Y-81610493D01*
X219125000Y-81603833D01*
X218124999Y-81603833D01*
X218059802Y-81610494D01*
X217893380Y-81665641D01*
X217893375Y-81665643D01*
X217744154Y-81757684D01*
X217620184Y-81881654D01*
X217528143Y-82030875D01*
X217528141Y-82030880D01*
X217472994Y-82197302D01*
X217472993Y-82197309D01*
X217462500Y-82300013D01*
X217462500Y-82500000D01*
X216707000Y-82500000D01*
X216707000Y-80405007D01*
X216697274Y-80343600D01*
X216697274Y-80343599D01*
X216677280Y-80217360D01*
X216677280Y-80217359D01*
X216658155Y-80158499D01*
X216618571Y-80036673D01*
X216595434Y-79991265D01*
X216583418Y-79967681D01*
X216583418Y-79967682D01*
X216532319Y-79867394D01*
X216420648Y-79713692D01*
X216417137Y-79710181D01*
X216383652Y-79648858D01*
X216388636Y-79579166D01*
X216430508Y-79523233D01*
X216495972Y-79498816D01*
X216504818Y-79498500D01*
X219740182Y-79498500D01*
X219807221Y-79518185D01*
X219827863Y-79534819D01*
X220756681Y-80463637D01*
X220790166Y-80524960D01*
X220793000Y-80551318D01*
X220793000Y-83547583D01*
X220774727Y-83612373D01*
X220651759Y-83813037D01*
X220651757Y-83813040D01*
X220560895Y-84032402D01*
X220560895Y-84032404D01*
X220505465Y-84263285D01*
X220486835Y-84500000D01*
X220505465Y-84736714D01*
X220560895Y-84967595D01*
X220560895Y-84967597D01*
X220651757Y-85186959D01*
X220651759Y-85186962D01*
X220775820Y-85389410D01*
X220775821Y-85389413D01*
X220775824Y-85389416D01*
X220930031Y-85569969D01*
X221053058Y-85675044D01*
X221110586Y-85724178D01*
X221110588Y-85724178D01*
X221205988Y-85782640D01*
X221313037Y-85848240D01*
X221313040Y-85848242D01*
X221532403Y-85939104D01*
X221532404Y-85939104D01*
X221532406Y-85939105D01*
X221763289Y-85994535D01*
X222000000Y-86013165D01*
X222236711Y-85994535D01*
X222467594Y-85939105D01*
X222467596Y-85939104D01*
X222467597Y-85939104D01*
X222686959Y-85848242D01*
X222686960Y-85848241D01*
X222686963Y-85848240D01*
X222889416Y-85724176D01*
X223069969Y-85569969D01*
X223224176Y-85389416D01*
X223348240Y-85186963D01*
X223349146Y-85184777D01*
X223439104Y-84967597D01*
X223439104Y-84967596D01*
X223439105Y-84967594D01*
X223494535Y-84736711D01*
X223513165Y-84500000D01*
X223494535Y-84263289D01*
X223439105Y-84032406D01*
X223439104Y-84032403D01*
X223439104Y-84032402D01*
X223348242Y-83813040D01*
X223348240Y-83813037D01*
X223225273Y-83612373D01*
X223207000Y-83547583D01*
X223207000Y-79905007D01*
X223199415Y-79857118D01*
X223199415Y-79857117D01*
X223177280Y-79717361D01*
X223177279Y-79717356D01*
X223142585Y-79610581D01*
X223118571Y-79536672D01*
X223055579Y-79413044D01*
X223032319Y-79367394D01*
X222920648Y-79213692D01*
X222786308Y-79079352D01*
X220786308Y-77079352D01*
X220786306Y-77079350D01*
X220773953Y-77070376D01*
X220761599Y-77061400D01*
X220688003Y-77007929D01*
X220632604Y-76967679D01*
X220520461Y-76910539D01*
X220469666Y-76862565D01*
X220460577Y-76843395D01*
X220430889Y-76763796D01*
X220343261Y-76646739D01*
X220226204Y-76559111D01*
X220089203Y-76508011D01*
X220028654Y-76501500D01*
X220028638Y-76501500D01*
X215971362Y-76501500D01*
X215971345Y-76501500D01*
X215910797Y-76508011D01*
X215910795Y-76508011D01*
X215773795Y-76559111D01*
X215656739Y-76646739D01*
X215584446Y-76743311D01*
X215528512Y-76785182D01*
X215485179Y-76793000D01*
X214405002Y-76793000D01*
X214217359Y-76822719D01*
X214036672Y-76881429D01*
X214036671Y-76881429D01*
X213966646Y-76917108D01*
X213966647Y-76917109D01*
X213867393Y-76967681D01*
X213808616Y-77010386D01*
X213738401Y-77061400D01*
X213730976Y-77066794D01*
X213713693Y-77079350D01*
X213286363Y-77506681D01*
X213225040Y-77540166D01*
X213198682Y-77543000D01*
X208407500Y-77543000D01*
X208340461Y-77523315D01*
X208294706Y-77470511D01*
X208283500Y-77419000D01*
X208283500Y-73549461D01*
X208283499Y-73549448D01*
X208282395Y-73538638D01*
X208278447Y-73500000D01*
X215605782Y-73500000D01*
X215629164Y-73571965D01*
X215735638Y-73780930D01*
X215873494Y-73970672D01*
X216039327Y-74136505D01*
X216229069Y-74274361D01*
X216438034Y-74380835D01*
X216661090Y-74453310D01*
X216892735Y-74490000D01*
X217500000Y-74490000D01*
X217500000Y-73500000D01*
X215605782Y-73500000D01*
X208278447Y-73500000D01*
X208272887Y-73445575D01*
X208271726Y-73442071D01*
X208271724Y-73442064D01*
X208271724Y-73442063D01*
X208217117Y-73277266D01*
X208164842Y-73192515D01*
X208124030Y-73126348D01*
X208062686Y-73065004D01*
X217340000Y-73065004D01*
X217365364Y-73192515D01*
X217415116Y-73312627D01*
X217487345Y-73420725D01*
X217579275Y-73512655D01*
X217687373Y-73584884D01*
X217807485Y-73634636D01*
X217934996Y-73660000D01*
X218065004Y-73660000D01*
X218192515Y-73634636D01*
X218312627Y-73584884D01*
X218420725Y-73512655D01*
X218433380Y-73500000D01*
X218500000Y-73500000D01*
X218500000Y-74490000D01*
X219107265Y-74490000D01*
X219338909Y-74453310D01*
X219561965Y-74380835D01*
X219770930Y-74274361D01*
X219960672Y-74136505D01*
X220126505Y-73970672D01*
X220264361Y-73780930D01*
X220370835Y-73571965D01*
X220394218Y-73500000D01*
X218500000Y-73500000D01*
X218433380Y-73500000D01*
X218512655Y-73420725D01*
X218584884Y-73312627D01*
X218634636Y-73192515D01*
X218660000Y-73065004D01*
X218660000Y-72934996D01*
X218634636Y-72807485D01*
X218584884Y-72687373D01*
X218512655Y-72579275D01*
X218420725Y-72487345D01*
X218312627Y-72415116D01*
X218192515Y-72365364D01*
X218065004Y-72340000D01*
X217934996Y-72340000D01*
X217807485Y-72365364D01*
X217687373Y-72415116D01*
X217579275Y-72487345D01*
X217487345Y-72579275D01*
X217415116Y-72687373D01*
X217365364Y-72807485D01*
X217340000Y-72934996D01*
X217340000Y-73065004D01*
X208062686Y-73065004D01*
X207998652Y-73000970D01*
X207847738Y-72907885D01*
X207847732Y-72907883D01*
X207679427Y-72852113D01*
X207575552Y-72841500D01*
X207575545Y-72841500D01*
X207575544Y-72841500D01*
X198574456Y-72841500D01*
X198574446Y-72841500D01*
X198480201Y-72851129D01*
X198480200Y-72851128D01*
X198470580Y-72852112D01*
X198470576Y-72852112D01*
X198470574Y-72852113D01*
X198470570Y-72852114D01*
X198470567Y-72852115D01*
X198302266Y-72907883D01*
X198302259Y-72907886D01*
X198151346Y-73000971D01*
X198025971Y-73126346D01*
X197932882Y-73277266D01*
X197878275Y-73442063D01*
X197878276Y-73442064D01*
X197877114Y-73445570D01*
X197877112Y-73445578D01*
X197866500Y-73549448D01*
X197866500Y-83950551D01*
X197876129Y-84044797D01*
X197877112Y-84054425D01*
X197877113Y-84054427D01*
X197932885Y-84222738D01*
X198025970Y-84373652D01*
X198151348Y-84499030D01*
X198302262Y-84592115D01*
X198470574Y-84647887D01*
X198556387Y-84656654D01*
X198563700Y-84658500D01*
X198568137Y-84658500D01*
X198580740Y-84659142D01*
X198600002Y-84661109D01*
X198601995Y-84660150D01*
X198622157Y-84658500D01*
X201744000Y-84658500D01*
X201811039Y-84678185D01*
X201856794Y-84730989D01*
X201868000Y-84782500D01*
X201868000Y-85623682D01*
X201848315Y-85690721D01*
X201831681Y-85711363D01*
X197286363Y-90256681D01*
X197225040Y-90290166D01*
X197198682Y-90293000D01*
X176551318Y-90293000D01*
X176484279Y-90273315D01*
X176463637Y-90256681D01*
X175243319Y-89036363D01*
X175209834Y-88975040D01*
X175207000Y-88948682D01*
X175207000Y-88175537D01*
X175741500Y-88175537D01*
X175741501Y-88175553D01*
X175752113Y-88279427D01*
X175771117Y-88336777D01*
X175807885Y-88447738D01*
X175900970Y-88598652D01*
X176026348Y-88724030D01*
X176177262Y-88817115D01*
X176345574Y-88872887D01*
X176449455Y-88883500D01*
X176461227Y-88883499D01*
X176528265Y-88903179D01*
X176548914Y-88919818D01*
X177009429Y-89380333D01*
X177097664Y-89468568D01*
X177097668Y-89468572D01*
X177201418Y-89537896D01*
X177201424Y-89537899D01*
X177201425Y-89537900D01*
X177316715Y-89585655D01*
X177439101Y-89609999D01*
X177439105Y-89610000D01*
X177439106Y-89610000D01*
X184085895Y-89610000D01*
X184085896Y-89609999D01*
X184208285Y-89585655D01*
X184323575Y-89537900D01*
X184427333Y-89468571D01*
X188492071Y-85403833D01*
X188561400Y-85300075D01*
X188609155Y-85184785D01*
X188633500Y-85062394D01*
X188633500Y-84937606D01*
X188633500Y-81790000D01*
X191151169Y-81790000D01*
X191190641Y-81909119D01*
X191190643Y-81909124D01*
X191282684Y-82058345D01*
X191406654Y-82182315D01*
X191555875Y-82274356D01*
X191555880Y-82274358D01*
X191722302Y-82329505D01*
X191722309Y-82329506D01*
X191825019Y-82339999D01*
X193424999Y-82339999D01*
X193425000Y-82339998D01*
X193425000Y-81790000D01*
X194425000Y-81790000D01*
X194425000Y-82339999D01*
X196024972Y-82339999D01*
X196024986Y-82339998D01*
X196127697Y-82329505D01*
X196294119Y-82274358D01*
X196294124Y-82274356D01*
X196443345Y-82182315D01*
X196567315Y-82058345D01*
X196659356Y-81909124D01*
X196659358Y-81909119D01*
X196698831Y-81790000D01*
X194425000Y-81790000D01*
X193425000Y-81790000D01*
X191151169Y-81790000D01*
X188633500Y-81790000D01*
X188633500Y-80790000D01*
X191151169Y-80790000D01*
X193425000Y-80790000D01*
X193425000Y-80240000D01*
X194425000Y-80240000D01*
X194425000Y-80790000D01*
X196698830Y-80790000D01*
X196659358Y-80670880D01*
X196659356Y-80670875D01*
X196567315Y-80521654D01*
X196443345Y-80397684D01*
X196294124Y-80305643D01*
X196294119Y-80305641D01*
X196127697Y-80250494D01*
X196127690Y-80250493D01*
X196024986Y-80240000D01*
X194425000Y-80240000D01*
X193425000Y-80240000D01*
X191825028Y-80240000D01*
X191825012Y-80240001D01*
X191722302Y-80250494D01*
X191555880Y-80305641D01*
X191555875Y-80305643D01*
X191406654Y-80397684D01*
X191282684Y-80521654D01*
X191190643Y-80670875D01*
X191190641Y-80670880D01*
X191151169Y-80790000D01*
X188633500Y-80790000D01*
X188633500Y-76437606D01*
X188609155Y-76315215D01*
X188561400Y-76199925D01*
X188561399Y-76199924D01*
X188561396Y-76199918D01*
X188492072Y-76096168D01*
X188492071Y-76096167D01*
X188403833Y-76007929D01*
X187273922Y-74878018D01*
X187244561Y-74831291D01*
X187223249Y-74770386D01*
X187187709Y-74668817D01*
X187096771Y-74524091D01*
X186975909Y-74403229D01*
X186975908Y-74403228D01*
X186831183Y-74312291D01*
X186669849Y-74255837D01*
X186669844Y-74255836D01*
X186500004Y-74236701D01*
X186499996Y-74236701D01*
X186330155Y-74255836D01*
X186330150Y-74255837D01*
X186168816Y-74312291D01*
X186024091Y-74403228D01*
X185903228Y-74524091D01*
X185812290Y-74668817D01*
X185755440Y-74831288D01*
X185726079Y-74878015D01*
X185424277Y-75179818D01*
X185362954Y-75213303D01*
X185293263Y-75208319D01*
X185237329Y-75166448D01*
X185212978Y-75101866D01*
X185210562Y-75071170D01*
X185210561Y-75071164D01*
X185164146Y-74911403D01*
X185164145Y-74911399D01*
X185080750Y-74770386D01*
X185079455Y-74768196D01*
X185079448Y-74768187D01*
X184961812Y-74650551D01*
X184961803Y-74650544D01*
X184818601Y-74565855D01*
X184818596Y-74565853D01*
X184658835Y-74519438D01*
X184658829Y-74519437D01*
X184621507Y-74516500D01*
X184621502Y-74516500D01*
X184188498Y-74516500D01*
X184188492Y-74516500D01*
X184151170Y-74519437D01*
X184151164Y-74519438D01*
X183991403Y-74565853D01*
X183991398Y-74565855D01*
X183848191Y-74650547D01*
X183845998Y-74652249D01*
X183843965Y-74653047D01*
X183841478Y-74654518D01*
X183841240Y-74654116D01*
X183780961Y-74677783D01*
X183712444Y-74664101D01*
X183694002Y-74652249D01*
X183691808Y-74650547D01*
X183548601Y-74565855D01*
X183548596Y-74565853D01*
X183388835Y-74519438D01*
X183388829Y-74519437D01*
X183351507Y-74516500D01*
X183351502Y-74516500D01*
X182918498Y-74516500D01*
X182918492Y-74516500D01*
X182881170Y-74519437D01*
X182881164Y-74519438D01*
X182721403Y-74565853D01*
X182721398Y-74565855D01*
X182578191Y-74650547D01*
X182575998Y-74652249D01*
X182573965Y-74653047D01*
X182571478Y-74654518D01*
X182571240Y-74654116D01*
X182510961Y-74677783D01*
X182442444Y-74664101D01*
X182424002Y-74652249D01*
X182421808Y-74650547D01*
X182278601Y-74565855D01*
X182278596Y-74565853D01*
X182118835Y-74519438D01*
X182118829Y-74519437D01*
X182081507Y-74516500D01*
X182081502Y-74516500D01*
X181648498Y-74516500D01*
X181648492Y-74516500D01*
X181611170Y-74519437D01*
X181611164Y-74519438D01*
X181451403Y-74565853D01*
X181451398Y-74565855D01*
X181308191Y-74650547D01*
X181305998Y-74652249D01*
X181303965Y-74653047D01*
X181301478Y-74654518D01*
X181301240Y-74654116D01*
X181240961Y-74677783D01*
X181172444Y-74664101D01*
X181154002Y-74652249D01*
X181151808Y-74650547D01*
X181008601Y-74565855D01*
X181008596Y-74565853D01*
X180848835Y-74519438D01*
X180848829Y-74519437D01*
X180811507Y-74516500D01*
X180811502Y-74516500D01*
X180378498Y-74516500D01*
X180378492Y-74516500D01*
X180341170Y-74519437D01*
X180341164Y-74519438D01*
X180181403Y-74565853D01*
X180181398Y-74565855D01*
X180038196Y-74650544D01*
X180038187Y-74650551D01*
X179920551Y-74768187D01*
X179920544Y-74768196D01*
X179835855Y-74911398D01*
X179835853Y-74911403D01*
X179789438Y-75071164D01*
X179789437Y-75071170D01*
X179786500Y-75108492D01*
X179786500Y-76891507D01*
X179789437Y-76928829D01*
X179789438Y-76928835D01*
X179835853Y-77088596D01*
X179835855Y-77088601D01*
X179920544Y-77231803D01*
X179920546Y-77231806D01*
X179920547Y-77231807D01*
X179925178Y-77236438D01*
X179958665Y-77297758D01*
X179961500Y-77324122D01*
X179961500Y-80591234D01*
X179941815Y-80658273D01*
X179925181Y-80678915D01*
X179596167Y-81007929D01*
X179552778Y-81051318D01*
X179507927Y-81096168D01*
X179438603Y-81199918D01*
X179438598Y-81199927D01*
X179390845Y-81315214D01*
X179390843Y-81315222D01*
X179366500Y-81437601D01*
X179366500Y-82773773D01*
X179346815Y-82840812D01*
X179294011Y-82886567D01*
X179281512Y-82891476D01*
X179277270Y-82892881D01*
X179277259Y-82892886D01*
X179126346Y-82985971D01*
X179000971Y-83111346D01*
X178907886Y-83262259D01*
X178907884Y-83262264D01*
X178852113Y-83430572D01*
X178841500Y-83534447D01*
X178841500Y-84885537D01*
X178841501Y-84885553D01*
X178852113Y-84989427D01*
X178907884Y-85157735D01*
X178907886Y-85157740D01*
X178925911Y-85186963D01*
X179000970Y-85308652D01*
X179126348Y-85434030D01*
X179277262Y-85527115D01*
X179281498Y-85528518D01*
X179338943Y-85568286D01*
X179365771Y-85632800D01*
X179366500Y-85646226D01*
X179366500Y-86063773D01*
X179346815Y-86130812D01*
X179294011Y-86176567D01*
X179281512Y-86181476D01*
X179277270Y-86182881D01*
X179277259Y-86182886D01*
X179126346Y-86275971D01*
X179000971Y-86401346D01*
X178907886Y-86552259D01*
X178907884Y-86552264D01*
X178852113Y-86720572D01*
X178841500Y-86824447D01*
X178841500Y-88175537D01*
X178841501Y-88175550D01*
X178844653Y-88206397D01*
X178831884Y-88275090D01*
X178784003Y-88325975D01*
X178721295Y-88343000D01*
X178178706Y-88343000D01*
X178111667Y-88323315D01*
X178065912Y-88270511D01*
X178055348Y-88206397D01*
X178058499Y-88175552D01*
X178058499Y-88175550D01*
X178058500Y-88175545D01*
X178058499Y-86824456D01*
X178047887Y-86720574D01*
X177992115Y-86552262D01*
X177899030Y-86401348D01*
X177773652Y-86275970D01*
X177622738Y-86182885D01*
X177498448Y-86141700D01*
X177454427Y-86127113D01*
X177350546Y-86116500D01*
X176449462Y-86116500D01*
X176449446Y-86116501D01*
X176345572Y-86127113D01*
X176177264Y-86182884D01*
X176177259Y-86182886D01*
X176026346Y-86275971D01*
X175900971Y-86401346D01*
X175807886Y-86552259D01*
X175807884Y-86552264D01*
X175752113Y-86720572D01*
X175741500Y-86824447D01*
X175741500Y-88175537D01*
X175207000Y-88175537D01*
X175207000Y-86551317D01*
X175226685Y-86484278D01*
X175243315Y-86463640D01*
X176125118Y-85581836D01*
X176186439Y-85548353D01*
X176251798Y-85551812D01*
X176345574Y-85582887D01*
X176449455Y-85593500D01*
X177350544Y-85593499D01*
X177454426Y-85582887D01*
X177622738Y-85527115D01*
X177773652Y-85434030D01*
X177899030Y-85308652D01*
X177992115Y-85157738D01*
X178047887Y-84989426D01*
X178058500Y-84885545D01*
X178058499Y-84570076D01*
X178064568Y-84531758D01*
X178077279Y-84492640D01*
X178107000Y-84304993D01*
X178107000Y-81515807D01*
X178118369Y-81468528D01*
X178116703Y-81467838D01*
X178118570Y-81463329D01*
X178118571Y-81463328D01*
X178177280Y-81282640D01*
X178189565Y-81205075D01*
X178207000Y-81094998D01*
X178207000Y-80405007D01*
X178197274Y-80343600D01*
X178197274Y-80343599D01*
X178177280Y-80217359D01*
X178154707Y-80147887D01*
X178118571Y-80036672D01*
X178080284Y-79961530D01*
X178032319Y-79867394D01*
X177920648Y-79713692D01*
X177786308Y-79579352D01*
X177639111Y-79432155D01*
X177605626Y-79370832D01*
X177610610Y-79301140D01*
X177639111Y-79256793D01*
X177835009Y-79060895D01*
X178121983Y-78773920D01*
X178168708Y-78744561D01*
X178169847Y-78744162D01*
X178169850Y-78744162D01*
X178331183Y-78687709D01*
X178475909Y-78596771D01*
X178596771Y-78475909D01*
X178687709Y-78331183D01*
X178744162Y-78169850D01*
X178744163Y-78169844D01*
X178763299Y-78000003D01*
X178763299Y-77999996D01*
X178744163Y-77830155D01*
X178744162Y-77830150D01*
X178743404Y-77827985D01*
X178687709Y-77668817D01*
X178596771Y-77524091D01*
X178475909Y-77403229D01*
X178475908Y-77403228D01*
X178331183Y-77312291D01*
X178169849Y-77255837D01*
X178169844Y-77255836D01*
X178000004Y-77236701D01*
X177999996Y-77236701D01*
X177830155Y-77255836D01*
X177830150Y-77255837D01*
X177668816Y-77312291D01*
X177524091Y-77403228D01*
X177403228Y-77524091D01*
X177312291Y-77668815D01*
X177255440Y-77831288D01*
X177226079Y-77878014D01*
X176931713Y-78172380D01*
X176870390Y-78205865D01*
X176800698Y-78200881D01*
X176744765Y-78159009D01*
X176738494Y-78149797D01*
X176724030Y-78126348D01*
X176598653Y-78000971D01*
X176598652Y-78000970D01*
X176447738Y-77907885D01*
X176357592Y-77878014D01*
X176279427Y-77852113D01*
X176175552Y-77841500D01*
X176175545Y-77841500D01*
X176010993Y-77841500D01*
X175954698Y-77827985D01*
X175863331Y-77781430D01*
X175682640Y-77722719D01*
X175494998Y-77693000D01*
X175494993Y-77693000D01*
X172808371Y-77693000D01*
X172782414Y-77690253D01*
X172779423Y-77689612D01*
X172675551Y-77679000D01*
X172675544Y-77679000D01*
X171324456Y-77679000D01*
X171324448Y-77679000D01*
X171220571Y-77689613D01*
X171045406Y-77747656D01*
X171044930Y-77746221D01*
X171003079Y-77755500D01*
X165942502Y-77755500D01*
X165754863Y-77785219D01*
X165754862Y-77785219D01*
X165751891Y-77786184D01*
X165749593Y-77786931D01*
X165711277Y-77793000D01*
X165551318Y-77793000D01*
X165484279Y-77773315D01*
X165463637Y-77756681D01*
X164286310Y-76579354D01*
X164286304Y-76579349D01*
X164260421Y-76560544D01*
X164132606Y-76467681D01*
X164106592Y-76454426D01*
X163963331Y-76381430D01*
X163782640Y-76322719D01*
X163594998Y-76293000D01*
X163594993Y-76293000D01*
X158918397Y-76293000D01*
X158851358Y-76273315D01*
X158845520Y-76269324D01*
X158775385Y-76218368D01*
X158739175Y-76199918D01*
X158565221Y-76111283D01*
X158340901Y-76038398D01*
X158107940Y-76001500D01*
X158107935Y-76001500D01*
X155892065Y-76001500D01*
X155892060Y-76001500D01*
X155659098Y-76038398D01*
X155434778Y-76111283D01*
X155224611Y-76218370D01*
X155033796Y-76357005D01*
X155033790Y-76357010D01*
X154867010Y-76523790D01*
X154867005Y-76523796D01*
X154728370Y-76714611D01*
X154621283Y-76924778D01*
X154548398Y-77149098D01*
X154511500Y-77382059D01*
X154511500Y-77617940D01*
X150000000Y-77617940D01*
X150000000Y-67645555D01*
X150306500Y-67645555D01*
X150312778Y-67707000D01*
X150317113Y-67749429D01*
X150372885Y-67917740D01*
X150465969Y-68068653D01*
X150591347Y-68194031D01*
X150742260Y-68287115D01*
X150910571Y-68342887D01*
X151014452Y-68353500D01*
X151014455Y-68353500D01*
X152684000Y-68353500D01*
X152751039Y-68373185D01*
X152796794Y-68425989D01*
X152808000Y-68477500D01*
X152808000Y-68609998D01*
X152837719Y-68797636D01*
X152837719Y-68797637D01*
X152884577Y-68941852D01*
X152884579Y-68941854D01*
X152896429Y-68978328D01*
X152923939Y-69032319D01*
X152982681Y-69147606D01*
X153052833Y-69244162D01*
X153094349Y-69301304D01*
X153094354Y-69301310D01*
X154717419Y-70924375D01*
X154750904Y-70985698D01*
X154745920Y-71055390D01*
X154704050Y-71111322D01*
X154656739Y-71146738D01*
X154569111Y-71263795D01*
X154518011Y-71400795D01*
X154518011Y-71400797D01*
X154511500Y-71461345D01*
X154511500Y-73538654D01*
X154518011Y-73599202D01*
X154518011Y-73599204D01*
X154561820Y-73716657D01*
X154569111Y-73736204D01*
X154656739Y-73853261D01*
X154773796Y-73940889D01*
X154910799Y-73991989D01*
X154938050Y-73994918D01*
X154971345Y-73998499D01*
X154971362Y-73998500D01*
X159028638Y-73998500D01*
X159028654Y-73998499D01*
X159055692Y-73995591D01*
X159089201Y-73991989D01*
X159226204Y-73940889D01*
X159343261Y-73853261D01*
X159430889Y-73736204D01*
X159481989Y-73599201D01*
X159486294Y-73559155D01*
X159488499Y-73538654D01*
X159488500Y-73538637D01*
X159488500Y-71461362D01*
X159488499Y-71461345D01*
X159485157Y-71430270D01*
X159481989Y-71400799D01*
X159430889Y-71263796D01*
X159343261Y-71146739D01*
X159226204Y-71059111D01*
X159216228Y-71055390D01*
X159089203Y-71008011D01*
X159028654Y-71001500D01*
X159028638Y-71001500D01*
X158176637Y-71001500D01*
X158109598Y-70981815D01*
X158066152Y-70933795D01*
X158032318Y-70867393D01*
X157920648Y-70713692D01*
X157786308Y-70579352D01*
X155772137Y-68565181D01*
X155738652Y-68503858D01*
X155743636Y-68434166D01*
X155785508Y-68378233D01*
X155850972Y-68353816D01*
X155859818Y-68353500D01*
X157015543Y-68353500D01*
X157015548Y-68353500D01*
X157119429Y-68342887D01*
X157287740Y-68287115D01*
X157438653Y-68194031D01*
X157564031Y-68068653D01*
X157657115Y-67917740D01*
X157712887Y-67749429D01*
X157723500Y-67645548D01*
X157723500Y-67625537D01*
X158706500Y-67625537D01*
X158706501Y-67625553D01*
X158717113Y-67729427D01*
X158772884Y-67897735D01*
X158772886Y-67897740D01*
X158808142Y-67954898D01*
X158865970Y-68048652D01*
X158991348Y-68174030D01*
X159142262Y-68267115D01*
X159310574Y-68322887D01*
X159414455Y-68333500D01*
X159557500Y-68333499D01*
X159624539Y-68353183D01*
X159670294Y-68405987D01*
X159681500Y-68457499D01*
X159681500Y-70877398D01*
X159705843Y-70999777D01*
X159705845Y-70999785D01*
X159753598Y-71115072D01*
X159753603Y-71115081D01*
X159822928Y-71218832D01*
X159822931Y-71218836D01*
X162203663Y-73599569D01*
X162203667Y-73599572D01*
X162307421Y-73668899D01*
X162307423Y-73668899D01*
X162307425Y-73668901D01*
X162388947Y-73702668D01*
X162422715Y-73716655D01*
X162422717Y-73716655D01*
X162422722Y-73716657D01*
X162545101Y-73740999D01*
X162545105Y-73741000D01*
X162545106Y-73741000D01*
X162545107Y-73741000D01*
X162669894Y-73741000D01*
X166446511Y-73741000D01*
X166513550Y-73760685D01*
X166543777Y-73788089D01*
X166545715Y-73790540D01*
X166666959Y-73911784D01*
X166666963Y-73911787D01*
X166807597Y-73998532D01*
X166854322Y-74050480D01*
X166866500Y-74104070D01*
X166866500Y-74587727D01*
X166846815Y-74654766D01*
X166794011Y-74700521D01*
X166755104Y-74711085D01*
X166720572Y-74714613D01*
X166552264Y-74770384D01*
X166552259Y-74770386D01*
X166401346Y-74863471D01*
X166275971Y-74988846D01*
X166182886Y-75139759D01*
X166182884Y-75139764D01*
X166127113Y-75308072D01*
X166116500Y-75411947D01*
X166116500Y-76313037D01*
X166116501Y-76313053D01*
X166127113Y-76416927D01*
X166182884Y-76585235D01*
X166182886Y-76585240D01*
X166212653Y-76633499D01*
X166275970Y-76736152D01*
X166401348Y-76861530D01*
X166552262Y-76954615D01*
X166720574Y-77010387D01*
X166824455Y-77021000D01*
X168175544Y-77020999D01*
X168279426Y-77010387D01*
X168447738Y-76954615D01*
X168598652Y-76861530D01*
X168724030Y-76736152D01*
X168817115Y-76585238D01*
X168865887Y-76438051D01*
X170616500Y-76438051D01*
X170627113Y-76541928D01*
X170682883Y-76710235D01*
X170682884Y-76710238D01*
X170775967Y-76861147D01*
X170775970Y-76861151D01*
X170901348Y-76986529D01*
X170901352Y-76986532D01*
X171052261Y-77079615D01*
X171052264Y-77079616D01*
X171220571Y-77135386D01*
X171220572Y-77135386D01*
X171220575Y-77135387D01*
X171324456Y-77146000D01*
X171324461Y-77146000D01*
X172675539Y-77146000D01*
X172675544Y-77146000D01*
X172779425Y-77135387D01*
X172947738Y-77079615D01*
X173098651Y-76986530D01*
X173224030Y-76861151D01*
X173317115Y-76710238D01*
X173372887Y-76541925D01*
X173383500Y-76438044D01*
X173383500Y-76350537D01*
X174116500Y-76350537D01*
X174116501Y-76350553D01*
X174127113Y-76454427D01*
X174182884Y-76622735D01*
X174182886Y-76622740D01*
X174208599Y-76664427D01*
X174275970Y-76773652D01*
X174401348Y-76899030D01*
X174552262Y-76992115D01*
X174720574Y-77047887D01*
X174824455Y-77058500D01*
X176175544Y-77058499D01*
X176279426Y-77047887D01*
X176447738Y-76992115D01*
X176598652Y-76899030D01*
X176724030Y-76773652D01*
X176817115Y-76622738D01*
X176872887Y-76454426D01*
X176883500Y-76350545D01*
X176883499Y-75449456D01*
X176872887Y-75345574D01*
X176817115Y-75177262D01*
X176724030Y-75026348D01*
X176598652Y-74900970D01*
X176447738Y-74807885D01*
X176447735Y-74807884D01*
X176279427Y-74752113D01*
X176244896Y-74748585D01*
X176180205Y-74722188D01*
X176140054Y-74665007D01*
X176133500Y-74625227D01*
X176133500Y-74224772D01*
X176153185Y-74157733D01*
X176205989Y-74111978D01*
X176244898Y-74101414D01*
X176279426Y-74097887D01*
X176447738Y-74042115D01*
X176598652Y-73949030D01*
X176724030Y-73823652D01*
X176817115Y-73672738D01*
X176818520Y-73668495D01*
X176858291Y-73611052D01*
X176922807Y-73584228D01*
X176936226Y-73583500D01*
X181112395Y-73583500D01*
X181112396Y-73583499D01*
X181234785Y-73559155D01*
X181350075Y-73511400D01*
X181453833Y-73442071D01*
X182357071Y-72538833D01*
X182425980Y-72435703D01*
X182479590Y-72390899D01*
X182548915Y-72382192D01*
X182592202Y-72397863D01*
X182724801Y-72476281D01*
X182835000Y-72508296D01*
X182835000Y-72508295D01*
X183435000Y-72508295D01*
X183545198Y-72476281D01*
X183686553Y-72392684D01*
X183687382Y-72392042D01*
X183688150Y-72391740D01*
X183693271Y-72388712D01*
X183693759Y-72389537D01*
X183752416Y-72366501D01*
X183820934Y-72380174D01*
X183841526Y-72395314D01*
X183842027Y-72394670D01*
X183848196Y-72399455D01*
X183890476Y-72424459D01*
X183991399Y-72484145D01*
X184002414Y-72487345D01*
X184151164Y-72530561D01*
X184151167Y-72530561D01*
X184151169Y-72530562D01*
X184188498Y-72533500D01*
X184188504Y-72533500D01*
X184621496Y-72533500D01*
X184621502Y-72533500D01*
X184658831Y-72530562D01*
X184658833Y-72530561D01*
X184658835Y-72530561D01*
X184722908Y-72511946D01*
X184818601Y-72484145D01*
X184961807Y-72399453D01*
X185079453Y-72281807D01*
X185164145Y-72138601D01*
X185210562Y-71978831D01*
X185213500Y-71941502D01*
X185213500Y-71807500D01*
X185233185Y-71740461D01*
X185285989Y-71694706D01*
X185337500Y-71683500D01*
X187236234Y-71683500D01*
X187303273Y-71703185D01*
X187323915Y-71719819D01*
X188580181Y-72976085D01*
X188613666Y-73037408D01*
X188616500Y-73063766D01*
X188616500Y-75062398D01*
X188640843Y-75184777D01*
X188640845Y-75184785D01*
X188688598Y-75300072D01*
X188688603Y-75300081D01*
X188757928Y-75403832D01*
X188757931Y-75403836D01*
X189967929Y-76613833D01*
X190018522Y-76664426D01*
X190056168Y-76702072D01*
X190159918Y-76771396D01*
X190159927Y-76771401D01*
X190165364Y-76773653D01*
X190275215Y-76819155D01*
X190397048Y-76843389D01*
X190397601Y-76843499D01*
X190397605Y-76843500D01*
X190397606Y-76843500D01*
X191120317Y-76843500D01*
X191187356Y-76863185D01*
X191225853Y-76902399D01*
X191275970Y-76983652D01*
X191401348Y-77109030D01*
X191552262Y-77202115D01*
X191720574Y-77257887D01*
X191824455Y-77268500D01*
X196025544Y-77268499D01*
X196129426Y-77257887D01*
X196297738Y-77202115D01*
X196448652Y-77109030D01*
X196574030Y-76983652D01*
X196667115Y-76832738D01*
X196722887Y-76664426D01*
X196733500Y-76560545D01*
X196733499Y-75859456D01*
X196722887Y-75755574D01*
X196667115Y-75587262D01*
X196574030Y-75436348D01*
X196448652Y-75310970D01*
X196297738Y-75217885D01*
X196197823Y-75184777D01*
X196129427Y-75162113D01*
X196025545Y-75151500D01*
X191824462Y-75151500D01*
X191824446Y-75151501D01*
X191720572Y-75162113D01*
X191552264Y-75217884D01*
X191552259Y-75217886D01*
X191401346Y-75310971D01*
X191275971Y-75436346D01*
X191275970Y-75436348D01*
X191225853Y-75517599D01*
X191173908Y-75564321D01*
X191120317Y-75576500D01*
X190773766Y-75576500D01*
X190706727Y-75556815D01*
X190686085Y-75540181D01*
X189919819Y-74773915D01*
X189886334Y-74712592D01*
X189883500Y-74686234D01*
X189883500Y-72687605D01*
X189883499Y-72687601D01*
X189883454Y-72687373D01*
X189859155Y-72565215D01*
X189832142Y-72500000D01*
X215605782Y-72500000D01*
X217500000Y-72500000D01*
X217500000Y-71510000D01*
X218500000Y-71510000D01*
X218500000Y-72500000D01*
X220394218Y-72500000D01*
X220370835Y-72428034D01*
X220264361Y-72219069D01*
X220126505Y-72029327D01*
X219960672Y-71863494D01*
X219770930Y-71725638D01*
X219561965Y-71619164D01*
X219338909Y-71546689D01*
X219107265Y-71510000D01*
X218500000Y-71510000D01*
X217500000Y-71510000D01*
X216892735Y-71510000D01*
X216661090Y-71546689D01*
X216438034Y-71619164D01*
X216229069Y-71725638D01*
X216039327Y-71863494D01*
X215873494Y-72029327D01*
X215735638Y-72219069D01*
X215629164Y-72428034D01*
X215605782Y-72500000D01*
X189832142Y-72500000D01*
X189818592Y-72467288D01*
X189811401Y-72449927D01*
X189811396Y-72449918D01*
X189742072Y-72346168D01*
X189699116Y-72303212D01*
X189653833Y-72257929D01*
X188857249Y-71461345D01*
X187953836Y-70557931D01*
X187953832Y-70557928D01*
X187850081Y-70488603D01*
X187850072Y-70488598D01*
X187734785Y-70440845D01*
X187734777Y-70440843D01*
X187612398Y-70416500D01*
X187612394Y-70416500D01*
X185337500Y-70416500D01*
X185270461Y-70396815D01*
X185224706Y-70344011D01*
X185213500Y-70292500D01*
X185213500Y-70158504D01*
X185213500Y-70158498D01*
X185210562Y-70121169D01*
X185201547Y-70090140D01*
X185164146Y-69961403D01*
X185164145Y-69961399D01*
X185079453Y-69818193D01*
X185079451Y-69818191D01*
X185079448Y-69818187D01*
X185074819Y-69813558D01*
X185041334Y-69752235D01*
X185038500Y-69725877D01*
X185038500Y-69540000D01*
X191151169Y-69540000D01*
X191190641Y-69659119D01*
X191190643Y-69659124D01*
X191282684Y-69808345D01*
X191406654Y-69932315D01*
X191555875Y-70024356D01*
X191555880Y-70024358D01*
X191722302Y-70079505D01*
X191722309Y-70079506D01*
X191825019Y-70089999D01*
X193424999Y-70089999D01*
X193425000Y-70089998D01*
X193425000Y-69540000D01*
X194425000Y-69540000D01*
X194425000Y-70089999D01*
X196024972Y-70089999D01*
X196024986Y-70089998D01*
X196127697Y-70079505D01*
X196294119Y-70024358D01*
X196294124Y-70024356D01*
X196443345Y-69932315D01*
X196567315Y-69808345D01*
X196659356Y-69659124D01*
X196659358Y-69659119D01*
X196698831Y-69540000D01*
X194425000Y-69540000D01*
X193425000Y-69540000D01*
X191151169Y-69540000D01*
X185038500Y-69540000D01*
X185038500Y-68540000D01*
X191151169Y-68540000D01*
X193425000Y-68540000D01*
X193425000Y-67990000D01*
X194425000Y-67990000D01*
X194425000Y-68540000D01*
X196698830Y-68540000D01*
X196659358Y-68420880D01*
X196659356Y-68420875D01*
X196567315Y-68271654D01*
X196443345Y-68147684D01*
X196294124Y-68055643D01*
X196294119Y-68055641D01*
X196127697Y-68000494D01*
X196127690Y-68000493D01*
X196024986Y-67990000D01*
X194425000Y-67990000D01*
X193425000Y-67990000D01*
X191825028Y-67990000D01*
X191825012Y-67990001D01*
X191722302Y-68000494D01*
X191555880Y-68055641D01*
X191555875Y-68055643D01*
X191406654Y-68147684D01*
X191282684Y-68271654D01*
X191190643Y-68420875D01*
X191190641Y-68420880D01*
X191151169Y-68540000D01*
X185038500Y-68540000D01*
X185038500Y-66658766D01*
X185058185Y-66591727D01*
X185074819Y-66571085D01*
X187016085Y-64629819D01*
X187077408Y-64596334D01*
X187103766Y-64593500D01*
X191120317Y-64593500D01*
X191187356Y-64613185D01*
X191225853Y-64652399D01*
X191275970Y-64733652D01*
X191401348Y-64859030D01*
X191552262Y-64952115D01*
X191720574Y-65007887D01*
X191824455Y-65018500D01*
X196025544Y-65018499D01*
X196129426Y-65007887D01*
X196297738Y-64952115D01*
X196448652Y-64859030D01*
X196574030Y-64733652D01*
X196667115Y-64582738D01*
X196722887Y-64414426D01*
X196733500Y-64310545D01*
X196733499Y-63609456D01*
X196722887Y-63505574D01*
X196667115Y-63337262D01*
X196574030Y-63186348D01*
X196448652Y-63060970D01*
X196297738Y-62967885D01*
X196297735Y-62967884D01*
X196129427Y-62912113D01*
X196025545Y-62901500D01*
X191824462Y-62901500D01*
X191824446Y-62901501D01*
X191720572Y-62912113D01*
X191552264Y-62967884D01*
X191552259Y-62967886D01*
X191401346Y-63060971D01*
X191275971Y-63186346D01*
X191275970Y-63186348D01*
X191225853Y-63267599D01*
X191173908Y-63314321D01*
X191120317Y-63326500D01*
X186727601Y-63326500D01*
X186605222Y-63350843D01*
X186605214Y-63350845D01*
X186489927Y-63398598D01*
X186489918Y-63398603D01*
X186386167Y-63467928D01*
X186386163Y-63467931D01*
X184580781Y-65273315D01*
X184001167Y-65852929D01*
X183957047Y-65897049D01*
X183912927Y-65941168D01*
X183843603Y-66044918D01*
X183843598Y-66044927D01*
X183795845Y-66160214D01*
X183795843Y-66160222D01*
X183771500Y-66282601D01*
X183771500Y-69540157D01*
X183751815Y-69607196D01*
X183699011Y-69652951D01*
X183629853Y-69662895D01*
X183584380Y-69646890D01*
X183545194Y-69623716D01*
X183545193Y-69623715D01*
X183435001Y-69591701D01*
X183435000Y-69591702D01*
X183435000Y-72508295D01*
X182835000Y-72508295D01*
X182835000Y-69591702D01*
X182834998Y-69591701D01*
X182724806Y-69623715D01*
X182724803Y-69623717D01*
X182583439Y-69707319D01*
X182582602Y-69707969D01*
X182581826Y-69708273D01*
X182576729Y-69711288D01*
X182576242Y-69710465D01*
X182517564Y-69733500D01*
X182449047Y-69719816D01*
X182428472Y-69704685D01*
X182427973Y-69705330D01*
X182421803Y-69700544D01*
X182278601Y-69615855D01*
X182278596Y-69615853D01*
X182118835Y-69569438D01*
X182118829Y-69569437D01*
X182081507Y-69566500D01*
X182081502Y-69566500D01*
X181648498Y-69566500D01*
X181648492Y-69566500D01*
X181611170Y-69569437D01*
X181611164Y-69569438D01*
X181451403Y-69615853D01*
X181451398Y-69615855D01*
X181308191Y-69700547D01*
X181305998Y-69702249D01*
X181303965Y-69703047D01*
X181301478Y-69704518D01*
X181301240Y-69704116D01*
X181240961Y-69727783D01*
X181172444Y-69714101D01*
X181154002Y-69702249D01*
X181151808Y-69700547D01*
X181008601Y-69615855D01*
X181008596Y-69615853D01*
X180848835Y-69569438D01*
X180848829Y-69569437D01*
X180811507Y-69566500D01*
X180811502Y-69566500D01*
X180378498Y-69566500D01*
X180378492Y-69566500D01*
X180341170Y-69569437D01*
X180341164Y-69569438D01*
X180181403Y-69615853D01*
X180181398Y-69615855D01*
X180038196Y-69700544D01*
X180038187Y-69700551D01*
X179920551Y-69818187D01*
X179920544Y-69818196D01*
X179835855Y-69961398D01*
X179835853Y-69961403D01*
X179789438Y-70121164D01*
X179789437Y-70121170D01*
X179786500Y-70158492D01*
X179786500Y-70292500D01*
X179766815Y-70359539D01*
X179714011Y-70405294D01*
X179662500Y-70416500D01*
X178887601Y-70416500D01*
X178765222Y-70440843D01*
X178765214Y-70440845D01*
X178649927Y-70488598D01*
X178649918Y-70488603D01*
X178546167Y-70557928D01*
X178546163Y-70557931D01*
X178378016Y-70726078D01*
X178331290Y-70755438D01*
X178168819Y-70812289D01*
X178024091Y-70903228D01*
X177903228Y-71024091D01*
X177812291Y-71168816D01*
X177755837Y-71330150D01*
X177755836Y-71330155D01*
X177736701Y-71499996D01*
X177736701Y-71500003D01*
X177755836Y-71669844D01*
X177755837Y-71669849D01*
X177812291Y-71831183D01*
X177903228Y-71975908D01*
X178029015Y-72101695D01*
X178027758Y-72102951D01*
X178062706Y-72152747D01*
X178065553Y-72222558D01*
X178030204Y-72282827D01*
X177967884Y-72314417D01*
X177945251Y-72316500D01*
X176936226Y-72316500D01*
X176869187Y-72296815D01*
X176823432Y-72244011D01*
X176818525Y-72231517D01*
X176817115Y-72227262D01*
X176724030Y-72076348D01*
X176598652Y-71950970D01*
X176447738Y-71857885D01*
X176447735Y-71857884D01*
X176279427Y-71802113D01*
X176175545Y-71791500D01*
X174824462Y-71791500D01*
X174824446Y-71791501D01*
X174720572Y-71802113D01*
X174552264Y-71857884D01*
X174552259Y-71857886D01*
X174401346Y-71950971D01*
X174275971Y-72076346D01*
X174182886Y-72227259D01*
X174182884Y-72227264D01*
X174127113Y-72395572D01*
X174116500Y-72499447D01*
X174116500Y-73400537D01*
X174116501Y-73400553D01*
X174127113Y-73504427D01*
X174173564Y-73644609D01*
X174182885Y-73672738D01*
X174275970Y-73823652D01*
X174401348Y-73949030D01*
X174552262Y-74042115D01*
X174720574Y-74097887D01*
X174720572Y-74097887D01*
X174731351Y-74098988D01*
X174755102Y-74101414D01*
X174819793Y-74127809D01*
X174859945Y-74184989D01*
X174866500Y-74224772D01*
X174866500Y-74625227D01*
X174846815Y-74692266D01*
X174794011Y-74738021D01*
X174755104Y-74748585D01*
X174720572Y-74752113D01*
X174552264Y-74807884D01*
X174552259Y-74807886D01*
X174401346Y-74900971D01*
X174275971Y-75026346D01*
X174182886Y-75177259D01*
X174182884Y-75177264D01*
X174127113Y-75345572D01*
X174116500Y-75449447D01*
X174116500Y-76350537D01*
X173383500Y-76350537D01*
X173383500Y-75411956D01*
X173372887Y-75308075D01*
X173343002Y-75217885D01*
X173317116Y-75139764D01*
X173317115Y-75139761D01*
X173224032Y-74988852D01*
X173224029Y-74988848D01*
X173098651Y-74863470D01*
X173098647Y-74863467D01*
X172947738Y-74770384D01*
X172947735Y-74770383D01*
X172779428Y-74714613D01*
X172744896Y-74711085D01*
X172680204Y-74684688D01*
X172640054Y-74627506D01*
X172633500Y-74587727D01*
X172633500Y-74237272D01*
X172653185Y-74170233D01*
X172705989Y-74124478D01*
X172744898Y-74113914D01*
X172779426Y-74110387D01*
X172947738Y-74054615D01*
X173098652Y-73961530D01*
X173224030Y-73836152D01*
X173317115Y-73685238D01*
X173372887Y-73516926D01*
X173383500Y-73413045D01*
X173383499Y-72511956D01*
X173372887Y-72408074D01*
X173317115Y-72239762D01*
X173224030Y-72088848D01*
X173098652Y-71963470D01*
X172947738Y-71870385D01*
X172910012Y-71857884D01*
X172779427Y-71814613D01*
X172675545Y-71804000D01*
X171324462Y-71804000D01*
X171324446Y-71804001D01*
X171220572Y-71814613D01*
X171052264Y-71870384D01*
X171052259Y-71870386D01*
X170901346Y-71963471D01*
X170775971Y-72088846D01*
X170682886Y-72239759D01*
X170682884Y-72239764D01*
X170627113Y-72408072D01*
X170616500Y-72511947D01*
X170616500Y-73413037D01*
X170616501Y-73413053D01*
X170627113Y-73516927D01*
X170658303Y-73611052D01*
X170682885Y-73685238D01*
X170775970Y-73836152D01*
X170901348Y-73961530D01*
X171052262Y-74054615D01*
X171220574Y-74110387D01*
X171220572Y-74110387D01*
X171231351Y-74111488D01*
X171255102Y-74113914D01*
X171319793Y-74140309D01*
X171359945Y-74197489D01*
X171366500Y-74237272D01*
X171366500Y-74587727D01*
X171346815Y-74654766D01*
X171294011Y-74700521D01*
X171255104Y-74711085D01*
X171220571Y-74714613D01*
X171052264Y-74770383D01*
X171052261Y-74770384D01*
X170901352Y-74863467D01*
X170901348Y-74863470D01*
X170775970Y-74988848D01*
X170775967Y-74988852D01*
X170682884Y-75139761D01*
X170682883Y-75139764D01*
X170627113Y-75308071D01*
X170616500Y-75411948D01*
X170616500Y-76438051D01*
X168865887Y-76438051D01*
X168872887Y-76416926D01*
X168883500Y-76313045D01*
X168883499Y-75411956D01*
X168872887Y-75308074D01*
X168817115Y-75139762D01*
X168724030Y-74988848D01*
X168598652Y-74863470D01*
X168447738Y-74770385D01*
X168381949Y-74748585D01*
X168279427Y-74714613D01*
X168244896Y-74711085D01*
X168180205Y-74684688D01*
X168140054Y-74627507D01*
X168133500Y-74587727D01*
X168133500Y-74104070D01*
X168153185Y-74037031D01*
X168192403Y-73998532D01*
X168251624Y-73962002D01*
X168333040Y-73911785D01*
X168454285Y-73790540D01*
X168544302Y-73644601D01*
X168598236Y-73481836D01*
X168608500Y-73381372D01*
X168608500Y-72833628D01*
X168598236Y-72733164D01*
X168544302Y-72570399D01*
X168544298Y-72570393D01*
X168544297Y-72570390D01*
X168454287Y-72424463D01*
X168454284Y-72424459D01*
X168333040Y-72303215D01*
X168333036Y-72303212D01*
X168187109Y-72213202D01*
X168187103Y-72213199D01*
X168187101Y-72213198D01*
X168024336Y-72159264D01*
X167923879Y-72149000D01*
X167923872Y-72149000D01*
X167076128Y-72149000D01*
X167076120Y-72149000D01*
X166975663Y-72159264D01*
X166812901Y-72213197D01*
X166812890Y-72213202D01*
X166666963Y-72303212D01*
X166666959Y-72303215D01*
X166545715Y-72424459D01*
X166543777Y-72426911D01*
X166542019Y-72428155D01*
X166540608Y-72429567D01*
X166540366Y-72429325D01*
X166486755Y-72467288D01*
X166446511Y-72474000D01*
X162921267Y-72474000D01*
X162854228Y-72454315D01*
X162833586Y-72437681D01*
X160984819Y-70588914D01*
X160951334Y-70527591D01*
X160948500Y-70501233D01*
X160948500Y-68457499D01*
X160968185Y-68390460D01*
X161020989Y-68344705D01*
X161072500Y-68333499D01*
X161215537Y-68333499D01*
X161215544Y-68333499D01*
X161319426Y-68322887D01*
X161487738Y-68267115D01*
X161638652Y-68174030D01*
X161764030Y-68048652D01*
X161857115Y-67897738D01*
X161912887Y-67729426D01*
X161923500Y-67625545D01*
X161923499Y-66824456D01*
X161912887Y-66720574D01*
X161857115Y-66552262D01*
X161764030Y-66401348D01*
X161638652Y-66275970D01*
X161487738Y-66182885D01*
X161487735Y-66182884D01*
X161319427Y-66127113D01*
X161215545Y-66116500D01*
X159414462Y-66116500D01*
X159414446Y-66116501D01*
X159310572Y-66127113D01*
X159142264Y-66182884D01*
X159142259Y-66182886D01*
X158991346Y-66275971D01*
X158865971Y-66401346D01*
X158772886Y-66552259D01*
X158772884Y-66552264D01*
X158717113Y-66720572D01*
X158706500Y-66824447D01*
X158706500Y-67625537D01*
X157723500Y-67625537D01*
X157723500Y-63065537D01*
X158706500Y-63065537D01*
X158706501Y-63065553D01*
X158717113Y-63169427D01*
X158772884Y-63337735D01*
X158772886Y-63337740D01*
X158808142Y-63394898D01*
X158865970Y-63488652D01*
X158991348Y-63614030D01*
X159142262Y-63707115D01*
X159310574Y-63762887D01*
X159414455Y-63773500D01*
X159802691Y-63773499D01*
X159846961Y-63782302D01*
X159847039Y-63782065D01*
X159849045Y-63782716D01*
X159850132Y-63782933D01*
X159851667Y-63783569D01*
X159851672Y-63783570D01*
X159851673Y-63783571D01*
X160032360Y-63842279D01*
X160220007Y-63872000D01*
X163113682Y-63872000D01*
X163180721Y-63891685D01*
X163201363Y-63908319D01*
X166256681Y-66963637D01*
X166290166Y-67024960D01*
X166293000Y-67051318D01*
X166293000Y-69902493D01*
X166302330Y-69961398D01*
X166322721Y-70090141D01*
X166381427Y-70270824D01*
X166381428Y-70270827D01*
X166449943Y-70405294D01*
X166467681Y-70440106D01*
X166579352Y-70593808D01*
X166713692Y-70728148D01*
X166867394Y-70839819D01*
X166885468Y-70849028D01*
X167036672Y-70926071D01*
X167036675Y-70926072D01*
X167086052Y-70942115D01*
X167217360Y-70984779D01*
X167405007Y-71014500D01*
X167594993Y-71014500D01*
X171254513Y-71014500D01*
X171267115Y-71015141D01*
X171324455Y-71021000D01*
X171639919Y-71020999D01*
X171678237Y-71027068D01*
X171689646Y-71030775D01*
X171717360Y-71039780D01*
X171770973Y-71048271D01*
X171905002Y-71069500D01*
X171905007Y-71069500D01*
X175582498Y-71069500D01*
X175686741Y-71052988D01*
X175770140Y-71039780D01*
X175827941Y-71020999D01*
X175847734Y-71014568D01*
X175886052Y-71008499D01*
X176175537Y-71008499D01*
X176175544Y-71008499D01*
X176279426Y-70997887D01*
X176447738Y-70942115D01*
X176598652Y-70849030D01*
X176724030Y-70723652D01*
X176817115Y-70572738D01*
X176872887Y-70404426D01*
X176883500Y-70300545D01*
X176883499Y-69399456D01*
X176872887Y-69295574D01*
X176872886Y-69295572D01*
X176872886Y-69295568D01*
X176871470Y-69288951D01*
X176872926Y-69288639D01*
X176870791Y-69226685D01*
X176906518Y-69166640D01*
X176969036Y-69135443D01*
X176990901Y-69133500D01*
X178046820Y-69133500D01*
X178112793Y-69152507D01*
X178168814Y-69187708D01*
X178330150Y-69244162D01*
X178330155Y-69244163D01*
X178499996Y-69263299D01*
X178500000Y-69263299D01*
X178500004Y-69263299D01*
X178669844Y-69244163D01*
X178669847Y-69244162D01*
X178669850Y-69244162D01*
X178831183Y-69187709D01*
X178975909Y-69096771D01*
X179096771Y-68975909D01*
X179187709Y-68831183D01*
X179244162Y-68669850D01*
X179246463Y-68649431D01*
X179263299Y-68500003D01*
X179263299Y-68499996D01*
X179244163Y-68330155D01*
X179244162Y-68330150D01*
X179229103Y-68287115D01*
X179187709Y-68168817D01*
X179096771Y-68024091D01*
X178975909Y-67903229D01*
X178975908Y-67903228D01*
X178831183Y-67812291D01*
X178669849Y-67755837D01*
X178669844Y-67755836D01*
X178500004Y-67736701D01*
X178499996Y-67736701D01*
X178330155Y-67755836D01*
X178330150Y-67755837D01*
X178168814Y-67812291D01*
X178112793Y-67847493D01*
X178046820Y-67866500D01*
X176831000Y-67866500D01*
X176763961Y-67846815D01*
X176718206Y-67794011D01*
X176707000Y-67742500D01*
X176707000Y-63551318D01*
X176726685Y-63484279D01*
X176743319Y-63463637D01*
X180463637Y-59743319D01*
X180524960Y-59709834D01*
X180551318Y-59707000D01*
X200448682Y-59707000D01*
X200515721Y-59726685D01*
X200536363Y-59743319D01*
X201172863Y-60379819D01*
X201206348Y-60441142D01*
X201201364Y-60510834D01*
X201159492Y-60566767D01*
X201094028Y-60591184D01*
X201085182Y-60591500D01*
X198574446Y-60591500D01*
X198480201Y-60601129D01*
X198480200Y-60601128D01*
X198470580Y-60602112D01*
X198470576Y-60602112D01*
X198470574Y-60602113D01*
X198470570Y-60602114D01*
X198470567Y-60602115D01*
X198302266Y-60657883D01*
X198302259Y-60657886D01*
X198151346Y-60750971D01*
X198025971Y-60876346D01*
X197932886Y-61027259D01*
X197932883Y-61027266D01*
X197877114Y-61195570D01*
X197876642Y-61198492D01*
X197876471Y-61201858D01*
X197866500Y-61299448D01*
X197866500Y-71700547D01*
X197869629Y-71731166D01*
X197869629Y-71731169D01*
X197877113Y-71804427D01*
X197932884Y-71972735D01*
X197932886Y-71972740D01*
X197967790Y-72029327D01*
X198025970Y-72123652D01*
X198151348Y-72249030D01*
X198302262Y-72342115D01*
X198470574Y-72397887D01*
X198556387Y-72406654D01*
X198563700Y-72408500D01*
X198568137Y-72408500D01*
X198580740Y-72409142D01*
X198600002Y-72411109D01*
X198601995Y-72410150D01*
X198622157Y-72408500D01*
X207575540Y-72408500D01*
X207575544Y-72408500D01*
X207669796Y-72398870D01*
X207669796Y-72398874D01*
X207669810Y-72398868D01*
X207679426Y-72397887D01*
X207847738Y-72342115D01*
X207998652Y-72249030D01*
X208124030Y-72123652D01*
X208217115Y-71972738D01*
X208272887Y-71804426D01*
X208283500Y-71700545D01*
X208283500Y-69281632D01*
X208283500Y-67831000D01*
X208303185Y-67763961D01*
X208355989Y-67718206D01*
X208407500Y-67707000D01*
X209448682Y-67707000D01*
X209515721Y-67726685D01*
X209536363Y-67743319D01*
X210579351Y-68786307D01*
X210579352Y-68786308D01*
X210713692Y-68920648D01*
X210867394Y-69032319D01*
X210953500Y-69076192D01*
X211036672Y-69118571D01*
X211173047Y-69162882D01*
X211217359Y-69177280D01*
X211405002Y-69207000D01*
X211405007Y-69207000D01*
X212405007Y-69207000D01*
X212594993Y-69207000D01*
X216081603Y-69207000D01*
X216148642Y-69226685D01*
X216154479Y-69230675D01*
X216224615Y-69281632D01*
X216434776Y-69388715D01*
X216434778Y-69388716D01*
X216546938Y-69425158D01*
X216659100Y-69461602D01*
X216766996Y-69478691D01*
X216892060Y-69498500D01*
X216892065Y-69498500D01*
X219107940Y-69498500D01*
X219220877Y-69480611D01*
X219340900Y-69461602D01*
X219565224Y-69388715D01*
X219775385Y-69281632D01*
X219845512Y-69230681D01*
X219911317Y-69207202D01*
X219918397Y-69207000D01*
X220094998Y-69207000D01*
X220282640Y-69177280D01*
X220315386Y-69166640D01*
X220463327Y-69118571D01*
X220506112Y-69096771D01*
X220632606Y-69032319D01*
X220786308Y-68920648D01*
X220920648Y-68786308D01*
X220920649Y-68786307D01*
X222920648Y-66786308D01*
X222959430Y-66732929D01*
X223032319Y-66632606D01*
X223099121Y-66501500D01*
X223118571Y-66463328D01*
X223177280Y-66282640D01*
X223187619Y-66217360D01*
X223207000Y-66094998D01*
X223207000Y-61452415D01*
X223225272Y-61387626D01*
X223348240Y-61186963D01*
X223420230Y-61013164D01*
X223439104Y-60967597D01*
X223439104Y-60967596D01*
X223439105Y-60967594D01*
X223494535Y-60736711D01*
X223513165Y-60500000D01*
X223494535Y-60263289D01*
X223439105Y-60032406D01*
X223439104Y-60032403D01*
X223439104Y-60032402D01*
X223348242Y-59813040D01*
X223348240Y-59813037D01*
X223224179Y-59610589D01*
X223224178Y-59610586D01*
X223153012Y-59527262D01*
X223069969Y-59430031D01*
X222950596Y-59328076D01*
X222889413Y-59275821D01*
X222889410Y-59275820D01*
X222686962Y-59151759D01*
X222686959Y-59151757D01*
X222467596Y-59060895D01*
X222236714Y-59005465D01*
X222000000Y-58986835D01*
X221763285Y-59005465D01*
X221532404Y-59060895D01*
X221532402Y-59060895D01*
X221313040Y-59151757D01*
X221313037Y-59151759D01*
X221110589Y-59275820D01*
X221110586Y-59275821D01*
X220930031Y-59430031D01*
X220775821Y-59610586D01*
X220775820Y-59610589D01*
X220651759Y-59813037D01*
X220651757Y-59813040D01*
X220560895Y-60032402D01*
X220560895Y-60032404D01*
X220505465Y-60263285D01*
X220486835Y-60500000D01*
X220505465Y-60736714D01*
X220560895Y-60967595D01*
X220560895Y-60967597D01*
X220651757Y-61186959D01*
X220651759Y-61186962D01*
X220661195Y-61202360D01*
X220774727Y-61387626D01*
X220793000Y-61452415D01*
X220793000Y-65448681D01*
X220773315Y-65515720D01*
X220756681Y-65536362D01*
X219706127Y-66586915D01*
X219644804Y-66620400D01*
X219575112Y-66615416D01*
X219569758Y-66613062D01*
X219569723Y-66613148D01*
X219565224Y-66611284D01*
X219340901Y-66538398D01*
X219107940Y-66501500D01*
X219107935Y-66501500D01*
X216892065Y-66501500D01*
X216892060Y-66501500D01*
X216659098Y-66538398D01*
X216434778Y-66611283D01*
X216224614Y-66718368D01*
X216179844Y-66750895D01*
X216154487Y-66769318D01*
X216088683Y-66792798D01*
X216081603Y-66793000D01*
X215713318Y-66793000D01*
X215646279Y-66773315D01*
X215600524Y-66720511D01*
X215590580Y-66651353D01*
X215619605Y-66587797D01*
X215625637Y-66581319D01*
X215930986Y-66275970D01*
X216295648Y-65911308D01*
X216300226Y-65905007D01*
X216407319Y-65757606D01*
X216493571Y-65588327D01*
X216532771Y-65467681D01*
X216552280Y-65407640D01*
X216573555Y-65273315D01*
X216582000Y-65219998D01*
X216582000Y-61000000D01*
X217337501Y-61000000D01*
X217337501Y-61199986D01*
X217347994Y-61302697D01*
X217403141Y-61469119D01*
X217403143Y-61469124D01*
X217495184Y-61618345D01*
X217619154Y-61742315D01*
X217768375Y-61834356D01*
X217768380Y-61834358D01*
X217934802Y-61889505D01*
X217999999Y-61896166D01*
X218000000Y-61896165D01*
X218000000Y-61000000D01*
X219000000Y-61000000D01*
X219000000Y-61896165D01*
X219065197Y-61889505D01*
X219231619Y-61834358D01*
X219231624Y-61834356D01*
X219380845Y-61742315D01*
X219504815Y-61618345D01*
X219596856Y-61469124D01*
X219596858Y-61469119D01*
X219652005Y-61302697D01*
X219652006Y-61302690D01*
X219662499Y-61199986D01*
X219662500Y-61199973D01*
X219662500Y-61000000D01*
X219000000Y-61000000D01*
X218000000Y-61000000D01*
X217337501Y-61000000D01*
X216582000Y-61000000D01*
X216582000Y-60280007D01*
X216567262Y-60186959D01*
X216552279Y-60092360D01*
X216552278Y-60092356D01*
X216552278Y-60092355D01*
X216552067Y-60091705D01*
X216551959Y-60091028D01*
X216551141Y-60087617D01*
X216551409Y-60087552D01*
X216545999Y-60053391D01*
X216545999Y-60000000D01*
X217337500Y-60000000D01*
X218000000Y-60000000D01*
X218000000Y-59103834D01*
X217999999Y-59103833D01*
X219000000Y-59103833D01*
X219000000Y-60000000D01*
X219662499Y-60000000D01*
X219662499Y-59800028D01*
X219662498Y-59800013D01*
X219652005Y-59697302D01*
X219596858Y-59530880D01*
X219596856Y-59530875D01*
X219504815Y-59381654D01*
X219380845Y-59257684D01*
X219231624Y-59165643D01*
X219231619Y-59165641D01*
X219065197Y-59110494D01*
X219065190Y-59110493D01*
X219000000Y-59103833D01*
X217999999Y-59103833D01*
X217934802Y-59110494D01*
X217768380Y-59165641D01*
X217768375Y-59165643D01*
X217619154Y-59257684D01*
X217495184Y-59381654D01*
X217403143Y-59530875D01*
X217403141Y-59530880D01*
X217347994Y-59697302D01*
X217347993Y-59697309D01*
X217337500Y-59800013D01*
X217337500Y-60000000D01*
X216545999Y-60000000D01*
X216545999Y-59799462D01*
X216545998Y-59799446D01*
X216540264Y-59743319D01*
X216535387Y-59695574D01*
X216479615Y-59527262D01*
X216386530Y-59376348D01*
X216261152Y-59250970D01*
X216122816Y-59165643D01*
X216110240Y-59157886D01*
X216110235Y-59157884D01*
X215941926Y-59102112D01*
X215837835Y-59091478D01*
X215773143Y-59065081D01*
X215762757Y-59055801D01*
X214743319Y-58036363D01*
X214709834Y-57975040D01*
X214707000Y-57948682D01*
X214707000Y-56882499D01*
X214726685Y-56815460D01*
X214779489Y-56769705D01*
X214831000Y-56758499D01*
X215500537Y-56758499D01*
X215500544Y-56758499D01*
X215604426Y-56747887D01*
X215772738Y-56692115D01*
X215923652Y-56599030D01*
X216049030Y-56473652D01*
X216142115Y-56322738D01*
X216197887Y-56154426D01*
X216208500Y-56050545D01*
X216208500Y-55121288D01*
X218149500Y-55121288D01*
X218181161Y-55361785D01*
X218243947Y-55596104D01*
X218336773Y-55820205D01*
X218336776Y-55820212D01*
X218458064Y-56030289D01*
X218458066Y-56030292D01*
X218458067Y-56030293D01*
X218605733Y-56222736D01*
X218605739Y-56222743D01*
X218777256Y-56394260D01*
X218777262Y-56394265D01*
X218969711Y-56541936D01*
X219179788Y-56663224D01*
X219403900Y-56756054D01*
X219638211Y-56818838D01*
X219818586Y-56842584D01*
X219878711Y-56850500D01*
X219878712Y-56850500D01*
X220121289Y-56850500D01*
X220169388Y-56844167D01*
X220361789Y-56818838D01*
X220596100Y-56756054D01*
X220820212Y-56663224D01*
X221030289Y-56541936D01*
X221222738Y-56394265D01*
X221394265Y-56222738D01*
X221541936Y-56030289D01*
X221663224Y-55820212D01*
X221756054Y-55596100D01*
X221818838Y-55361789D01*
X221850500Y-55121288D01*
X221850500Y-54878712D01*
X221818838Y-54638211D01*
X221756054Y-54403900D01*
X221663224Y-54179788D01*
X221541936Y-53969711D01*
X221448014Y-53847309D01*
X221394266Y-53777263D01*
X221394260Y-53777256D01*
X221222743Y-53605739D01*
X221222736Y-53605733D01*
X221030293Y-53458067D01*
X221030292Y-53458066D01*
X221030289Y-53458064D01*
X220820212Y-53336776D01*
X220820205Y-53336773D01*
X220596104Y-53243947D01*
X220361785Y-53181161D01*
X220121289Y-53149500D01*
X220121288Y-53149500D01*
X219878712Y-53149500D01*
X219878711Y-53149500D01*
X219638214Y-53181161D01*
X219403895Y-53243947D01*
X219179794Y-53336773D01*
X219179785Y-53336777D01*
X218969706Y-53458067D01*
X218777263Y-53605733D01*
X218777256Y-53605739D01*
X218605739Y-53777256D01*
X218605733Y-53777263D01*
X218458067Y-53969706D01*
X218336777Y-54179785D01*
X218336773Y-54179794D01*
X218243947Y-54403895D01*
X218181161Y-54638214D01*
X218149500Y-54878711D01*
X218149500Y-55121288D01*
X216208500Y-55121288D01*
X216208499Y-53949456D01*
X216197887Y-53845574D01*
X216142115Y-53677262D01*
X216049030Y-53526348D01*
X215923652Y-53400970D01*
X215785316Y-53315643D01*
X215772740Y-53307886D01*
X215772735Y-53307884D01*
X215604427Y-53252113D01*
X215500545Y-53241500D01*
X211499462Y-53241500D01*
X211499446Y-53241501D01*
X211395572Y-53252113D01*
X211227264Y-53307884D01*
X211227259Y-53307886D01*
X211076346Y-53400971D01*
X210950971Y-53526346D01*
X210857886Y-53677259D01*
X210857884Y-53677264D01*
X210802113Y-53845572D01*
X210791500Y-53949447D01*
X210791500Y-56050537D01*
X210791501Y-56050553D01*
X210802113Y-56154427D01*
X210856686Y-56319119D01*
X210857885Y-56322738D01*
X210950970Y-56473652D01*
X211076348Y-56599030D01*
X211227262Y-56692115D01*
X211395574Y-56747887D01*
X211499455Y-56758500D01*
X212169000Y-56758499D01*
X212236039Y-56778183D01*
X212281794Y-56830987D01*
X212293000Y-56882499D01*
X212293000Y-58594998D01*
X212322719Y-58782636D01*
X212322719Y-58782637D01*
X212350259Y-58867396D01*
X212381427Y-58963324D01*
X212381428Y-58963327D01*
X212452144Y-59102113D01*
X212467681Y-59132606D01*
X212491682Y-59165641D01*
X212557643Y-59256427D01*
X212557643Y-59256428D01*
X212579353Y-59286309D01*
X214131681Y-60838637D01*
X214165166Y-60899960D01*
X214168000Y-60926318D01*
X214168000Y-64573682D01*
X214148315Y-64640721D01*
X214131681Y-64661363D01*
X212087681Y-66705363D01*
X212026358Y-66738848D01*
X211956666Y-66733864D01*
X211912319Y-66705363D01*
X210786304Y-65579348D01*
X210727566Y-65536674D01*
X210727565Y-65536673D01*
X210632606Y-65467681D01*
X210463331Y-65381430D01*
X210282640Y-65322719D01*
X210094998Y-65293000D01*
X210094993Y-65293000D01*
X208407500Y-65293000D01*
X208340461Y-65273315D01*
X208294706Y-65220511D01*
X208283500Y-65169000D01*
X208283500Y-61299461D01*
X208283499Y-61299448D01*
X208273529Y-61201858D01*
X208273357Y-61198492D01*
X208272889Y-61195595D01*
X208272887Y-61195575D01*
X208272887Y-61195574D01*
X208217115Y-61027262D01*
X208124030Y-60876348D01*
X207998652Y-60750970D01*
X207847738Y-60657885D01*
X207847732Y-60657883D01*
X207679427Y-60602113D01*
X207575552Y-60591500D01*
X207575545Y-60591500D01*
X207575544Y-60591500D01*
X204405399Y-60591500D01*
X204338360Y-60571815D01*
X204292605Y-60519011D01*
X204283711Y-60484666D01*
X204282762Y-60484817D01*
X204280414Y-60469989D01*
X204280414Y-60469988D01*
X204252280Y-60292359D01*
X204193569Y-60111667D01*
X204117985Y-59963327D01*
X204117985Y-59963326D01*
X204107320Y-59942395D01*
X204090544Y-59919305D01*
X203995648Y-59788692D01*
X203861308Y-59654352D01*
X201786308Y-57579352D01*
X201632606Y-57467681D01*
X201463331Y-57381430D01*
X201282640Y-57322719D01*
X201094998Y-57293000D01*
X201094993Y-57293000D01*
X180094993Y-57293000D01*
X179905007Y-57293000D01*
X179905002Y-57293000D01*
X179717359Y-57322719D01*
X179536668Y-57381430D01*
X179367393Y-57467681D01*
X179279701Y-57531393D01*
X179213692Y-57579352D01*
X179213690Y-57579354D01*
X179213689Y-57579354D01*
X174579354Y-62213689D01*
X174579354Y-62213690D01*
X174579352Y-62213692D01*
X174542471Y-62264455D01*
X174467684Y-62367389D01*
X174467682Y-62367392D01*
X174448190Y-62405648D01*
X174381430Y-62536668D01*
X174322720Y-62717359D01*
X174315967Y-62759995D01*
X174293000Y-62905006D01*
X174293000Y-68531500D01*
X174273315Y-68598539D01*
X174220511Y-68644294D01*
X174169000Y-68655500D01*
X172325084Y-68655500D01*
X172286766Y-68649431D01*
X172227640Y-68630219D01*
X172039998Y-68600500D01*
X172039993Y-68600500D01*
X168831000Y-68600500D01*
X168763961Y-68580815D01*
X168718206Y-68528011D01*
X168707000Y-68476500D01*
X168707000Y-66405002D01*
X168695437Y-66332001D01*
X168695437Y-66332000D01*
X168687619Y-66282640D01*
X168677280Y-66217360D01*
X168618571Y-66036673D01*
X168618569Y-66036670D01*
X168618569Y-66036668D01*
X168551484Y-65905007D01*
X168532319Y-65867394D01*
X168420648Y-65713692D01*
X168286308Y-65579352D01*
X164451308Y-61744352D01*
X164451306Y-61744350D01*
X164437423Y-61734264D01*
X164423538Y-61724176D01*
X164297606Y-61632681D01*
X164278382Y-61622886D01*
X164128331Y-61546430D01*
X163947640Y-61487719D01*
X163759998Y-61458000D01*
X163759993Y-61458000D01*
X160220007Y-61458000D01*
X160182056Y-61464011D01*
X160032358Y-61487721D01*
X159851669Y-61546429D01*
X159850134Y-61547066D01*
X159849047Y-61547282D01*
X159847041Y-61547934D01*
X159846963Y-61547696D01*
X159802693Y-61556500D01*
X159414462Y-61556500D01*
X159414446Y-61556501D01*
X159310572Y-61567113D01*
X159142264Y-61622884D01*
X159142259Y-61622886D01*
X158991346Y-61715971D01*
X158865971Y-61841346D01*
X158772886Y-61992259D01*
X158772884Y-61992264D01*
X158717113Y-62160572D01*
X158706500Y-62264447D01*
X158706500Y-63065537D01*
X157723500Y-63065537D01*
X157723500Y-62244452D01*
X157712887Y-62140571D01*
X157657115Y-61972260D01*
X157564031Y-61821347D01*
X157438653Y-61695969D01*
X157287740Y-61602885D01*
X157119429Y-61547113D01*
X157112734Y-61546429D01*
X157015555Y-61536500D01*
X157015548Y-61536500D01*
X155969818Y-61536500D01*
X155902779Y-61516815D01*
X155857024Y-61464011D01*
X155847080Y-61394853D01*
X155876105Y-61331297D01*
X155882137Y-61324819D01*
X156463637Y-60743319D01*
X156524960Y-60709834D01*
X156551318Y-60707000D01*
X159547585Y-60707000D01*
X159612373Y-60725272D01*
X159797366Y-60838637D01*
X159813037Y-60848240D01*
X159813040Y-60848242D01*
X160032402Y-60939104D01*
X160032404Y-60939104D01*
X160032406Y-60939105D01*
X160263289Y-60994535D01*
X160500000Y-61013165D01*
X160736711Y-60994535D01*
X160967594Y-60939105D01*
X160967596Y-60939104D01*
X160967597Y-60939104D01*
X161186959Y-60848242D01*
X161186960Y-60848241D01*
X161186963Y-60848240D01*
X161389416Y-60724176D01*
X161569969Y-60569969D01*
X161724176Y-60389416D01*
X161848240Y-60186963D01*
X161879427Y-60111672D01*
X161939104Y-59967597D01*
X161939104Y-59967596D01*
X161939105Y-59967594D01*
X161994535Y-59736711D01*
X162013165Y-59500000D01*
X161994535Y-59263289D01*
X161939105Y-59032406D01*
X161939104Y-59032403D01*
X161939104Y-59032402D01*
X161848242Y-58813040D01*
X161848240Y-58813037D01*
X161724179Y-58610589D01*
X161724178Y-58610586D01*
X161655569Y-58530256D01*
X161569969Y-58430031D01*
X161444323Y-58322719D01*
X161389413Y-58275821D01*
X161389410Y-58275820D01*
X161186962Y-58151759D01*
X161186959Y-58151757D01*
X160967596Y-58060895D01*
X160736714Y-58005465D01*
X160500000Y-57986835D01*
X160263285Y-58005465D01*
X160032404Y-58060895D01*
X160032402Y-58060895D01*
X159813040Y-58151757D01*
X159813037Y-58151759D01*
X159682047Y-58232031D01*
X159612373Y-58274727D01*
X159547585Y-58293000D01*
X155905002Y-58293000D01*
X155717359Y-58322719D01*
X155536668Y-58381430D01*
X155367393Y-58467681D01*
X155324330Y-58498968D01*
X155281267Y-58530256D01*
X155213695Y-58579349D01*
X155213689Y-58579354D01*
X153094354Y-60698689D01*
X153094354Y-60698690D01*
X153094352Y-60698692D01*
X153061929Y-60743319D01*
X152982684Y-60852389D01*
X152982682Y-60852392D01*
X152938500Y-60939105D01*
X152938499Y-60939104D01*
X152896430Y-61021671D01*
X152837720Y-61202359D01*
X152808106Y-61389336D01*
X152808096Y-61389404D01*
X152808000Y-61390007D01*
X152808000Y-61412500D01*
X152788315Y-61479539D01*
X152735511Y-61525294D01*
X152684000Y-61536500D01*
X151014444Y-61536500D01*
X150910570Y-61547113D01*
X150742262Y-61602884D01*
X150742257Y-61602886D01*
X150591345Y-61695970D01*
X150465970Y-61821345D01*
X150372886Y-61972257D01*
X150372884Y-61972262D01*
X150317113Y-62140570D01*
X150306500Y-62244444D01*
X150306500Y-67645555D01*
X150000000Y-67645555D01*
X150000000Y-55121288D01*
X153149500Y-55121288D01*
X153181161Y-55361785D01*
X153243947Y-55596104D01*
X153336773Y-55820205D01*
X153336776Y-55820212D01*
X153458064Y-56030289D01*
X153458066Y-56030292D01*
X153458067Y-56030293D01*
X153605733Y-56222736D01*
X153605739Y-56222743D01*
X153777256Y-56394260D01*
X153777262Y-56394265D01*
X153969711Y-56541936D01*
X154179788Y-56663224D01*
X154403900Y-56756054D01*
X154638211Y-56818838D01*
X154818586Y-56842584D01*
X154878711Y-56850500D01*
X154878712Y-56850500D01*
X155121289Y-56850500D01*
X155169388Y-56844167D01*
X155361789Y-56818838D01*
X155596100Y-56756054D01*
X155820212Y-56663224D01*
X156030289Y-56541936D01*
X156222738Y-56394265D01*
X156394265Y-56222738D01*
X156541936Y-56030289D01*
X156643161Y-55854963D01*
X200352143Y-55854963D01*
X200395385Y-55878364D01*
X200395396Y-55878369D01*
X200630506Y-55959083D01*
X200875707Y-56000000D01*
X201124293Y-56000000D01*
X201369493Y-55959083D01*
X201604601Y-55878370D01*
X201604603Y-55878369D01*
X201647855Y-55854963D01*
X201647855Y-55854962D01*
X201292894Y-55500000D01*
X203400001Y-55500000D01*
X203400001Y-56049986D01*
X203410494Y-56152697D01*
X203465641Y-56319119D01*
X203465643Y-56319124D01*
X203557684Y-56468345D01*
X203681654Y-56592315D01*
X203830875Y-56684356D01*
X203830880Y-56684358D01*
X203997302Y-56739505D01*
X203997309Y-56739506D01*
X204100019Y-56749999D01*
X205599999Y-56749999D01*
X205600000Y-56749998D01*
X205600000Y-55500000D01*
X206600000Y-55500000D01*
X206600000Y-56749999D01*
X208099972Y-56749999D01*
X208099986Y-56749998D01*
X208202697Y-56739505D01*
X208369119Y-56684358D01*
X208369124Y-56684356D01*
X208518345Y-56592315D01*
X208642315Y-56468345D01*
X208734356Y-56319124D01*
X208734358Y-56319119D01*
X208789505Y-56152697D01*
X208789506Y-56152690D01*
X208799999Y-56049986D01*
X208800000Y-56049973D01*
X208800000Y-55500000D01*
X206600000Y-55500000D01*
X205600000Y-55500000D01*
X203400001Y-55500000D01*
X201292894Y-55500000D01*
X201000001Y-55207107D01*
X201000000Y-55207107D01*
X200352143Y-55854963D01*
X156643161Y-55854963D01*
X156663224Y-55820212D01*
X156756054Y-55596100D01*
X156818838Y-55361789D01*
X156850500Y-55121288D01*
X156850500Y-54878712D01*
X156818838Y-54638211D01*
X156781804Y-54500000D01*
X199494859Y-54500000D01*
X199515385Y-54747729D01*
X199515387Y-54747738D01*
X199576412Y-54988717D01*
X199645856Y-55147036D01*
X200227067Y-54565826D01*
X200500000Y-54565826D01*
X200534075Y-54692993D01*
X200599901Y-54807007D01*
X200692993Y-54900099D01*
X200807007Y-54965925D01*
X200934174Y-55000000D01*
X201065826Y-55000000D01*
X201192993Y-54965925D01*
X201307007Y-54900099D01*
X201400099Y-54807007D01*
X201465925Y-54692993D01*
X201500000Y-54565826D01*
X201500000Y-54500000D01*
X201707107Y-54500000D01*
X202354142Y-55147036D01*
X202354143Y-55147035D01*
X202423587Y-54988719D01*
X202484612Y-54747738D01*
X202484614Y-54747729D01*
X202505141Y-54500000D01*
X203400000Y-54500000D01*
X205600000Y-54500000D01*
X205600000Y-53250000D01*
X206600000Y-53250000D01*
X206600000Y-54500000D01*
X208799999Y-54500000D01*
X208799999Y-53950028D01*
X208799998Y-53950013D01*
X208789505Y-53847302D01*
X208734358Y-53680880D01*
X208734356Y-53680875D01*
X208642315Y-53531654D01*
X208518345Y-53407684D01*
X208369124Y-53315643D01*
X208369119Y-53315641D01*
X208202697Y-53260494D01*
X208202690Y-53260493D01*
X208099986Y-53250000D01*
X206600000Y-53250000D01*
X205600000Y-53250000D01*
X204100028Y-53250000D01*
X204100012Y-53250001D01*
X203997302Y-53260494D01*
X203830880Y-53315641D01*
X203830875Y-53315643D01*
X203681654Y-53407684D01*
X203557684Y-53531654D01*
X203465643Y-53680875D01*
X203465641Y-53680880D01*
X203410494Y-53847302D01*
X203410493Y-53847309D01*
X203400000Y-53950013D01*
X203400000Y-54500000D01*
X202505141Y-54500000D01*
X202505141Y-54499994D01*
X202484614Y-54252270D01*
X202484612Y-54252261D01*
X202423587Y-54011280D01*
X202354143Y-53852963D01*
X202354142Y-53852962D01*
X201707107Y-54499999D01*
X201707107Y-54500000D01*
X201500000Y-54500000D01*
X201500000Y-54434174D01*
X201465925Y-54307007D01*
X201400099Y-54192993D01*
X201307007Y-54099901D01*
X201192993Y-54034075D01*
X201065826Y-54000000D01*
X200934174Y-54000000D01*
X200807007Y-54034075D01*
X200692993Y-54099901D01*
X200599901Y-54192993D01*
X200534075Y-54307007D01*
X200500000Y-54434174D01*
X200500000Y-54565826D01*
X200227067Y-54565826D01*
X200292893Y-54500000D01*
X199645856Y-53852963D01*
X199576412Y-54011282D01*
X199515387Y-54252261D01*
X199515385Y-54252270D01*
X199494859Y-54499994D01*
X199494859Y-54500000D01*
X156781804Y-54500000D01*
X156756054Y-54403900D01*
X156663224Y-54179788D01*
X156541936Y-53969711D01*
X156448014Y-53847309D01*
X156394266Y-53777263D01*
X156394260Y-53777256D01*
X156222743Y-53605739D01*
X156222736Y-53605733D01*
X156030293Y-53458067D01*
X156030292Y-53458066D01*
X156030289Y-53458064D01*
X155820212Y-53336776D01*
X155820205Y-53336773D01*
X155596104Y-53243947D01*
X155361785Y-53181161D01*
X155121289Y-53149500D01*
X155121288Y-53149500D01*
X154878712Y-53149500D01*
X154878711Y-53149500D01*
X154638214Y-53181161D01*
X154403895Y-53243947D01*
X154179794Y-53336773D01*
X154179785Y-53336777D01*
X153969706Y-53458067D01*
X153777263Y-53605733D01*
X153777256Y-53605739D01*
X153605739Y-53777256D01*
X153605733Y-53777263D01*
X153458067Y-53969706D01*
X153336777Y-54179785D01*
X153336773Y-54179794D01*
X153243947Y-54403895D01*
X153181161Y-54638214D01*
X153149500Y-54878711D01*
X153149500Y-55121288D01*
X150000000Y-55121288D01*
X150000000Y-55000710D01*
X150000007Y-54999358D01*
X150002328Y-54786528D01*
X150002793Y-54777073D01*
X150005361Y-54747729D01*
X150039943Y-54352444D01*
X150041355Y-54341725D01*
X150115257Y-53922602D01*
X150117589Y-53912083D01*
X150227749Y-53500959D01*
X150230989Y-53490683D01*
X150356794Y-53145036D01*
X200352143Y-53145036D01*
X201000000Y-53792893D01*
X201000001Y-53792893D01*
X201647856Y-53145036D01*
X201647856Y-53145035D01*
X201604619Y-53121637D01*
X201604599Y-53121629D01*
X201369493Y-53040916D01*
X201124293Y-53000000D01*
X200875707Y-53000000D01*
X200630506Y-53040916D01*
X200395392Y-53121631D01*
X200352143Y-53145036D01*
X150356794Y-53145036D01*
X150376558Y-53090736D01*
X150380679Y-53080786D01*
X150560552Y-52695047D01*
X150565532Y-52685480D01*
X150778332Y-52316900D01*
X150784125Y-52307806D01*
X151028246Y-51959165D01*
X151034812Y-51950609D01*
X151308394Y-51624566D01*
X151315681Y-51616615D01*
X151616615Y-51315681D01*
X151624566Y-51308394D01*
X151950609Y-51034812D01*
X151959165Y-51028246D01*
X152307806Y-50784125D01*
X152316900Y-50778332D01*
X152685480Y-50565532D01*
X152695047Y-50560552D01*
X153080786Y-50380679D01*
X153090736Y-50376558D01*
X153490683Y-50230989D01*
X153500959Y-50227749D01*
X153912083Y-50117589D01*
X153922602Y-50115257D01*
X154341732Y-50041353D01*
X154352444Y-50039943D01*
X154777085Y-50002792D01*
X154786517Y-50002328D01*
X154999358Y-50000006D01*
X155000710Y-50000000D01*
X219999290Y-50000000D01*
X220000641Y-50000006D01*
G37*
%TD.AperFunction*%
%TD*%
M02*
