%TF.GenerationSoftware,KiCad,Pcbnew,8.0.0*%
%TF.CreationDate,2024-05-08T19:08:40-04:00*%
%TF.ProjectId,16ChannelServoControllerDaughterboardDesign,31364368-616e-46e6-956c-536572766f43,rev?*%
%TF.SameCoordinates,Original*%
%TF.FileFunction,Copper,L2,Bot*%
%TF.FilePolarity,Positive*%
%FSLAX46Y46*%
G04 Gerber Fmt 4.6, Leading zero omitted, Abs format (unit mm)*
G04 Created by KiCad (PCBNEW 8.0.0) date 2024-05-08 19:08:40*
%MOMM*%
%LPD*%
G01*
G04 APERTURE LIST*
%TA.AperFunction,ComponentPad*%
%ADD10O,1.727200X1.727200*%
%TD*%
%TA.AperFunction,ComponentPad*%
%ADD11R,1.727200X1.727200*%
%TD*%
%TA.AperFunction,ComponentPad*%
%ADD12R,1.700000X1.700000*%
%TD*%
%TA.AperFunction,ComponentPad*%
%ADD13C,1.700000*%
%TD*%
%TA.AperFunction,ComponentPad*%
%ADD14O,1.700000X1.700000*%
%TD*%
%TA.AperFunction,ComponentPad*%
%ADD15R,1.980000X3.960000*%
%TD*%
%TA.AperFunction,ComponentPad*%
%ADD16O,1.980000X3.960000*%
%TD*%
%TA.AperFunction,ViaPad*%
%ADD17C,0.600000*%
%TD*%
%TA.AperFunction,Conductor*%
%ADD18C,0.381000*%
%TD*%
G04 APERTURE END LIST*
D10*
%TO.P,J1,0,GP0*%
%TO.N,unconnected-(J1-GP0-Pad0)*%
X94680000Y-123460000D03*
%TO.P,J1,1,GP1*%
%TO.N,unconnected-(J1-GP1-Pad1)*%
X172150000Y-123460000D03*
%TO.P,J1,2,GP2*%
%TO.N,unconnected-(J1-GP2-Pad2)*%
X167070000Y-75200000D03*
%TO.P,J1,3,GP3*%
%TO.N,unconnected-(J1-GP3-Pad3)*%
X164530000Y-75200000D03*
%TO.P,J1,4,GP4*%
%TO.N,unconnected-(J1-GP4-Pad4)*%
X161990000Y-75200000D03*
%TO.P,J1,5,GP5*%
%TO.N,unconnected-(J1-GP5-Pad5)*%
X159450000Y-75200000D03*
%TO.P,J1,6,GP6*%
%TO.N,unconnected-(J1-GP6-Pad6)*%
X156910000Y-75200000D03*
%TO.P,J1,7,GP7*%
%TO.N,unconnected-(J1-GP7-Pad7)*%
X154370000Y-75200000D03*
%TO.P,J1,8,GP8*%
%TO.N,unconnected-(J1-GP8-Pad8)*%
X150306000Y-75200000D03*
%TO.P,J1,9,GP9*%
%TO.N,unconnected-(J1-GP9-Pad9)*%
X147766000Y-75200000D03*
%TO.P,J1,10,GP10*%
%TO.N,unconnected-(J1-GP10-Pad10)*%
X145226000Y-75200000D03*
%TO.P,J1,11,GP11*%
%TO.N,unconnected-(J1-GP11-Pad11)*%
X142686000Y-75200000D03*
%TO.P,J1,12,GP12*%
%TO.N,unconnected-(J1-GP12-Pad12)*%
X140146000Y-75200000D03*
%TO.P,J1,13,GP13*%
%TO.N,unconnected-(J1-GP13-Pad13)*%
X137606000Y-75200000D03*
%TO.P,J1,14,GP14*%
%TO.N,unconnected-(J1-GP14-Pad14)*%
X159450000Y-123460000D03*
%TO.P,J1,15,GP15*%
%TO.N,unconnected-(J1-GP15-Pad15)*%
X161990000Y-123460000D03*
%TO.P,J1,16,GP16*%
%TO.N,unconnected-(J1-GP16-Pad16)*%
X164530000Y-123460000D03*
%TO.P,J1,17,GP17*%
%TO.N,unconnected-(J1-GP17-Pad17)*%
X167070000Y-123460000D03*
%TO.P,J1,18,GP18*%
%TO.N,unconnected-(J1-GP18-Pad18)*%
X169610000Y-123460000D03*
%TO.P,J1,21,GP21*%
%TO.N,unconnected-(J1-GP21-Pad21)*%
X102300000Y-75200000D03*
%TO.P,J1,22,VIN*%
%TO.N,unconnected-(J1-VIN-Pad22)*%
X154370000Y-123460000D03*
D11*
%TO.P,J1,23,GND*%
%TO.N,GND*%
X151830000Y-123460000D03*
%TO.P,J1,24,GND*%
X149290000Y-123460000D03*
D10*
%TO.P,J1,25,+5V*%
%TO.N,+5V*%
X146750000Y-123460000D03*
%TO.P,J1,26,+3V3*%
%TO.N,+3V3*%
X144210000Y-123460000D03*
%TO.P,J1,27,~{RST}*%
%TO.N,unconnected-(J1-~{RST}-Pad27)*%
X141670000Y-123460000D03*
%TO.P,J1,28,IOREF*%
%TO.N,unconnected-(J1-IOREF-Pad28)*%
X139130000Y-123460000D03*
%TO.P,J1,29,NC*%
%TO.N,unconnected-(J1-NC-Pad29)*%
X136590000Y-123460000D03*
D11*
%TO.P,J1,30,GND*%
%TO.N,GND*%
X135066000Y-75200000D03*
D10*
%TO.P,J1,32,+3V3*%
%TO.N,+3V3*%
X132526000Y-75200000D03*
%TO.P,J1,35,GP35*%
%TO.N,unconnected-(J1-GP35-Pad35)*%
X104840000Y-123460000D03*
%TO.P,J1,36,GP36*%
%TO.N,unconnected-(J1-GP36-Pad36)*%
X102300000Y-123460000D03*
%TO.P,J1,37,GP37*%
%TO.N,unconnected-(J1-GP37-Pad37)*%
X99760000Y-123460000D03*
%TO.P,J1,38,GP38*%
%TO.N,unconnected-(J1-GP38-Pad38)*%
X97220000Y-123460000D03*
%TO.P,J1,39,GP39*%
%TO.N,unconnected-(J1-GP39-Pad39)*%
X97220000Y-75200000D03*
%TO.P,J1,40,TX_GP40*%
%TO.N,unconnected-(J1-TX_GP40-Pad40)*%
X172150000Y-75200000D03*
%TO.P,J1,41,RX_GP41*%
%TO.N,unconnected-(J1-RX_GP41-Pad41)*%
X169610000Y-75200000D03*
%TO.P,J1,42,GP42*%
%TO.N,unconnected-(J1-GP42-Pad42)*%
X94680000Y-75200000D03*
%TO.P,J1,45,GP45*%
%TO.N,unconnected-(J1-GP45-Pad45)*%
X99760000Y-75200000D03*
%TO.P,J1,46,GP46*%
%TO.N,unconnected-(J1-GP46-Pad46)*%
X104840000Y-75200000D03*
%TO.P,J1,47,SDA_GP47*%
%TO.N,SDA_3V3*%
X129986000Y-75200000D03*
%TO.P,J1,48,SCL_GP48*%
%TO.N,SCL_3V3*%
X127446000Y-75200000D03*
%TD*%
D12*
%TO.P,J3,1,GND*%
%TO.N,GND*%
X155340000Y-114880000D03*
X152800000Y-114880000D03*
X150260000Y-114880000D03*
X147720000Y-114880000D03*
X145180000Y-114880000D03*
X142640000Y-114880000D03*
X140100000Y-114880000D03*
X137560000Y-114880000D03*
D13*
%TO.P,J3,2,VIN*%
%TO.N,+6V*%
X155340000Y-112340000D03*
X152800000Y-112340000D03*
X150260000Y-112340000D03*
X147720000Y-112340000D03*
X145180000Y-112340000D03*
X142640000Y-112340000D03*
X140100000Y-112340000D03*
X137560000Y-112340000D03*
%TO.P,J3,3,CH0*%
%TO.N,LED07*%
X155340000Y-109800000D03*
%TO.P,J3,4,CH1*%
%TO.N,LED06*%
X152800000Y-109800000D03*
%TO.P,J3,5,CH2*%
%TO.N,LED05*%
X150260000Y-109800000D03*
%TO.P,J3,6,CH3*%
%TO.N,LED04*%
X147720000Y-109800000D03*
%TO.P,J3,7,CH4*%
%TO.N,LED03*%
X145180000Y-109800000D03*
%TO.P,J3,8,CH5*%
%TO.N,LED02*%
X142640000Y-109800000D03*
%TO.P,J3,9,CH6*%
%TO.N,LED01*%
X140100000Y-109800000D03*
%TO.P,J3,10,CH7*%
%TO.N,LED00*%
X137560000Y-109800000D03*
%TD*%
D12*
%TO.P,J2,1,GND*%
%TO.N,GND*%
X137580000Y-83220000D03*
X140120000Y-83220000D03*
X142660000Y-83220000D03*
X145200000Y-83220000D03*
X147740000Y-83220000D03*
X150280000Y-83220000D03*
X152820000Y-83220000D03*
X155360000Y-83220000D03*
D13*
%TO.P,J2,2,VIN*%
%TO.N,+6V*%
X137580000Y-85760000D03*
X140120000Y-85760000D03*
X142660000Y-85760000D03*
X145200000Y-85760000D03*
X147740000Y-85760000D03*
X150280000Y-85760000D03*
X152820000Y-85760000D03*
X155360000Y-85760000D03*
%TO.P,J2,3,CH0*%
%TO.N,LED15*%
X137580000Y-88300000D03*
%TO.P,J2,4,CH1*%
%TO.N,LED14*%
X140120000Y-88300000D03*
%TO.P,J2,5,CH2*%
%TO.N,LED13*%
X142660000Y-88300000D03*
%TO.P,J2,6,CH3*%
%TO.N,LED12*%
X145200000Y-88300000D03*
%TO.P,J2,7,CH4*%
%TO.N,LED11*%
X147740000Y-88300000D03*
%TO.P,J2,8,CH5*%
%TO.N,LED10*%
X150280000Y-88300000D03*
%TO.P,J2,9,CH6*%
%TO.N,LED09*%
X152820000Y-88300000D03*
%TO.P,J2,10,CH7*%
%TO.N,LED08*%
X155360000Y-88300000D03*
%TD*%
D12*
%TO.P,J4,1,Pin_1*%
%TO.N,GND*%
X177275000Y-89395000D03*
D14*
%TO.P,J4,2,Pin_2*%
%TO.N,Net-(J4-Pin_2)*%
X174735000Y-89395000D03*
%TO.P,J4,3,Pin_3*%
%TO.N,Net-(J4-Pin_3)*%
X172195000Y-89395000D03*
%TD*%
D15*
%TO.P,J6,1,Pin_1*%
%TO.N,GND*%
X111800000Y-80300000D03*
D16*
%TO.P,J6,2,Pin_2*%
%TO.N,+6V*%
X116800000Y-80300000D03*
%TD*%
D17*
%TO.N,+5V*%
X134500000Y-105750000D03*
X135500000Y-117750000D03*
%TO.N,GND*%
X167000000Y-86000000D03*
X105000000Y-92500000D03*
X85000000Y-102500000D03*
X165000000Y-78000000D03*
X85000000Y-87500000D03*
X167000000Y-90000000D03*
X95000000Y-117500000D03*
X115000000Y-122500000D03*
X110000000Y-107500000D03*
X130000000Y-115000000D03*
X111000000Y-75000000D03*
X95000000Y-92500000D03*
X85000000Y-97500000D03*
X90000000Y-97500000D03*
X105000000Y-107500000D03*
X110000000Y-117500000D03*
X100000000Y-102500000D03*
X105000000Y-82500000D03*
X180000000Y-75000000D03*
X150000000Y-80000000D03*
X160000000Y-80000000D03*
X175000000Y-123000000D03*
X110000000Y-112500000D03*
X105000000Y-87500000D03*
X175000000Y-85000000D03*
X141000000Y-121000000D03*
X115000000Y-117500000D03*
X90000000Y-107500000D03*
X170000000Y-93000000D03*
X120000000Y-122500000D03*
X142000000Y-102250000D03*
X95000000Y-107500000D03*
X128000000Y-124000000D03*
X135000000Y-82500000D03*
X155000000Y-78000000D03*
X150000000Y-120000000D03*
X180000000Y-95000000D03*
X180000000Y-110000000D03*
X117000000Y-124000000D03*
X100000000Y-82500000D03*
X95000000Y-97500000D03*
X165000000Y-120000000D03*
X175000000Y-80000000D03*
X126000000Y-117000000D03*
X135000000Y-121000000D03*
X154000000Y-104500000D03*
X90000000Y-102500000D03*
X180000000Y-100000000D03*
X170000000Y-110000000D03*
X95000000Y-87500000D03*
X180000000Y-123000000D03*
X100000000Y-97500000D03*
X167000000Y-96000000D03*
X152000000Y-117000000D03*
X170000000Y-105000000D03*
X157000000Y-123000000D03*
X175000000Y-78000000D03*
X100000000Y-107500000D03*
X175000000Y-75000000D03*
X158500000Y-114500000D03*
X95000000Y-77500000D03*
X150000000Y-78000000D03*
X110000000Y-122500000D03*
X140000000Y-78000000D03*
X180000000Y-105000000D03*
X110000000Y-102500000D03*
X176000000Y-93000000D03*
X113000000Y-84000000D03*
X90000000Y-82500000D03*
X105000000Y-102500000D03*
X160000000Y-78000000D03*
X105000000Y-112500000D03*
X155000000Y-80000000D03*
X110000000Y-84000000D03*
X170000000Y-115000000D03*
X105000000Y-97500000D03*
X90000000Y-112500000D03*
X90000000Y-74000000D03*
X85000000Y-117500000D03*
X95000000Y-82500000D03*
X107000000Y-75000000D03*
X180000000Y-85000000D03*
X135000000Y-80000000D03*
X120000000Y-117500000D03*
X170000000Y-78000000D03*
X175000000Y-110000000D03*
X107000000Y-124000000D03*
X140000000Y-80000000D03*
X133000000Y-117000000D03*
X85000000Y-76000000D03*
X85000000Y-107500000D03*
X125000000Y-122500000D03*
X92000000Y-124000000D03*
X132000000Y-121000000D03*
X155000000Y-120000000D03*
X138000000Y-121000000D03*
X165000000Y-80000000D03*
X90000000Y-117500000D03*
X100000000Y-87500000D03*
X100000000Y-77500000D03*
X90000000Y-87500000D03*
X170000000Y-85000000D03*
X85000000Y-92500000D03*
X132500000Y-82500000D03*
X157000000Y-117000000D03*
X165000000Y-83000000D03*
X87000000Y-124000000D03*
X180000000Y-90000000D03*
X175000000Y-115000000D03*
X167000000Y-93000000D03*
X110000000Y-87500000D03*
X165000000Y-115000000D03*
X160000000Y-117000000D03*
X145000000Y-80000000D03*
X160000000Y-120000000D03*
X170000000Y-120000000D03*
X147000000Y-117000000D03*
X125000000Y-115000000D03*
X100000000Y-117500000D03*
X85000000Y-82500000D03*
X95000000Y-102500000D03*
X132500000Y-80000000D03*
X100000000Y-112500000D03*
X95000000Y-112500000D03*
X180000000Y-80000000D03*
X170000000Y-80000000D03*
X180000000Y-115000000D03*
X100000000Y-92500000D03*
X135500000Y-102750000D03*
X112000000Y-124000000D03*
X122000000Y-124000000D03*
X105000000Y-77500000D03*
X175000000Y-105000000D03*
X85000000Y-112500000D03*
X130000000Y-122500000D03*
X105000000Y-117500000D03*
X160000000Y-83000000D03*
X113000000Y-75000000D03*
X145000000Y-78000000D03*
X175000000Y-100000000D03*
X90000000Y-92500000D03*
X132000000Y-124000000D03*
%TO.N,+6V*%
X132500000Y-100000000D03*
X135000000Y-92500000D03*
X120000000Y-102500000D03*
X164000000Y-90000000D03*
X117500000Y-100000000D03*
X162000000Y-90000000D03*
X164000000Y-105000000D03*
X162000000Y-111000000D03*
X132500000Y-102500000D03*
X130000000Y-97500000D03*
X130000000Y-100000000D03*
X141000000Y-104000000D03*
X156000000Y-102000000D03*
X127500000Y-102500000D03*
X122000000Y-85000000D03*
X117500000Y-87500000D03*
X159000000Y-105000000D03*
X122000000Y-75000000D03*
X162000000Y-87000000D03*
X164000000Y-87000000D03*
X164000000Y-102000000D03*
X120000000Y-80000000D03*
X140000000Y-95000000D03*
X159000000Y-102000000D03*
X164000000Y-93000000D03*
X120000000Y-77500000D03*
X116000000Y-75000000D03*
X135000000Y-87500000D03*
X120000000Y-75000000D03*
X127500000Y-97500000D03*
X142500000Y-97500000D03*
X164000000Y-96000000D03*
X120000000Y-90000000D03*
X120000000Y-87500000D03*
X162000000Y-96000000D03*
X159000000Y-93000000D03*
X120000000Y-92500000D03*
X130000000Y-102500000D03*
X117500000Y-90000000D03*
X162000000Y-102000000D03*
X122500000Y-110000000D03*
X127500000Y-110000000D03*
X125000000Y-110000000D03*
X120000000Y-82500000D03*
X120000000Y-95000000D03*
X137000000Y-93000000D03*
X116000000Y-85000000D03*
X159000000Y-87000000D03*
X142500000Y-95000000D03*
X120000000Y-97500000D03*
X164000000Y-108000000D03*
X122500000Y-112500000D03*
X132500000Y-112500000D03*
X117500000Y-92500000D03*
X160000000Y-111000000D03*
X123000000Y-99000000D03*
X120000000Y-85000000D03*
X117500000Y-105000000D03*
X162000000Y-108000000D03*
X132500000Y-110000000D03*
X162000000Y-105000000D03*
X123000000Y-101000000D03*
X159000000Y-96000000D03*
X135000000Y-97500000D03*
X127500000Y-112500000D03*
X130000000Y-110000000D03*
X160000000Y-108000000D03*
X122000000Y-80000000D03*
X162000000Y-93000000D03*
X127500000Y-100000000D03*
X143000000Y-104000000D03*
X156000000Y-96000000D03*
X132500000Y-97500000D03*
X120000000Y-100000000D03*
X130000000Y-87500000D03*
X132500000Y-87500000D03*
X164000000Y-111000000D03*
X159000000Y-90000000D03*
X130000000Y-112500000D03*
X125000000Y-112500000D03*
%TO.N,SDA_3V3*%
X126750000Y-108750000D03*
X128750000Y-83500000D03*
%TO.N,+3V3*%
X122500000Y-88500000D03*
X124250000Y-102750000D03*
%TO.N,SCL_3V3*%
X126250000Y-96000000D03*
X127250000Y-83500000D03*
%TO.N,Net-(J4-Pin_3)*%
X168000000Y-99000000D03*
X146500000Y-98750000D03*
%TO.N,Net-(J4-Pin_2)*%
X152250000Y-98000000D03*
X172000000Y-96750000D03*
%TD*%
D18*
%TO.N,+5V*%
X134500000Y-116750000D02*
X135500000Y-117750000D01*
X134500000Y-105750000D02*
X134500000Y-116750000D01*
%TO.N,GND*%
X135500000Y-105250000D02*
X135500000Y-114000000D01*
X138500000Y-102250000D02*
X142000000Y-102250000D01*
X158500000Y-114500000D02*
X158500000Y-109000000D01*
X135500000Y-114000000D02*
X136380000Y-114880000D01*
X158500000Y-109000000D02*
X154000000Y-104500000D01*
X136380000Y-114880000D02*
X137560000Y-114880000D01*
X135500000Y-102750000D02*
X135500000Y-105250000D01*
X135500000Y-105250000D02*
X138500000Y-102250000D01*
%TO.N,SDA_3V3*%
X126750000Y-108750000D02*
X127250000Y-108750000D01*
X128750000Y-107250000D02*
X128750000Y-83500000D01*
X127250000Y-108750000D02*
X128750000Y-107250000D01*
%TO.N,+3V3*%
X124750000Y-102250000D02*
X124250000Y-102750000D01*
X122500000Y-88500000D02*
X124750000Y-86250000D01*
X125559500Y-73190500D02*
X131940500Y-73190500D01*
X124750000Y-85750000D02*
X124750000Y-74000000D01*
X124750000Y-85750000D02*
X124750000Y-102250000D01*
X132526000Y-73776000D02*
X132526000Y-75200000D01*
X124750000Y-86250000D02*
X124750000Y-85750000D01*
X124750000Y-74000000D02*
X125559500Y-73190500D01*
X131940500Y-73190500D02*
X132526000Y-73776000D01*
%TO.N,SCL_3V3*%
X127250000Y-83500000D02*
X127250000Y-95000000D01*
X127250000Y-95000000D02*
X126250000Y-96000000D01*
%TO.N,Net-(J4-Pin_3)*%
X146500000Y-98750000D02*
X146750000Y-99000000D01*
X146750000Y-99000000D02*
X168000000Y-99000000D01*
%TO.N,Net-(J4-Pin_2)*%
X170750000Y-98000000D02*
X172000000Y-96750000D01*
X152250000Y-98000000D02*
X170750000Y-98000000D01*
%TD*%
%TA.AperFunction,Conductor*%
%TO.N,+6V*%
G36*
X123262539Y-73020185D02*
G01*
X123308294Y-73072989D01*
X123319500Y-73124500D01*
X123319500Y-73849352D01*
X123320002Y-73871863D01*
X123320494Y-73882906D01*
X123322005Y-73905460D01*
X123322006Y-73905462D01*
X123355091Y-74045470D01*
X123355097Y-74045488D01*
X123380675Y-74110495D01*
X123380676Y-74110499D01*
X123451867Y-74235518D01*
X123451873Y-74235525D01*
X123555404Y-74335427D01*
X123555407Y-74335429D01*
X123555408Y-74335430D01*
X123612080Y-74376297D01*
X123612082Y-74376298D01*
X123612093Y-74376304D01*
X123612205Y-74376372D01*
X123613054Y-74376806D01*
X123739573Y-74442988D01*
X123739576Y-74442988D01*
X123742243Y-74443929D01*
X123744545Y-74445589D01*
X123747432Y-74447099D01*
X123747215Y-74447513D01*
X123798918Y-74484790D01*
X123824505Y-74549806D01*
X123825000Y-74560869D01*
X123825000Y-84455000D01*
X123935000Y-84455000D01*
X124002039Y-84474685D01*
X124047794Y-84527489D01*
X124059000Y-84579000D01*
X124059000Y-85912415D01*
X124039315Y-85979454D01*
X124022681Y-86000096D01*
X122321376Y-87701400D01*
X122274651Y-87730760D01*
X122150476Y-87774211D01*
X122150475Y-87774212D01*
X121997737Y-87870184D01*
X121870184Y-87997737D01*
X121774211Y-88150476D01*
X121714631Y-88320745D01*
X121714630Y-88320750D01*
X121694435Y-88499996D01*
X121694435Y-88500003D01*
X121714630Y-88679249D01*
X121714631Y-88679254D01*
X121774211Y-88849523D01*
X121808848Y-88904647D01*
X121870184Y-89002262D01*
X121997738Y-89129816D01*
X122063911Y-89171395D01*
X122142168Y-89220568D01*
X122150478Y-89225789D01*
X122235662Y-89255596D01*
X122320745Y-89285368D01*
X122320750Y-89285369D01*
X122499996Y-89305565D01*
X122500000Y-89305565D01*
X122500004Y-89305565D01*
X122679249Y-89285369D01*
X122679252Y-89285368D01*
X122679255Y-89285368D01*
X122849522Y-89225789D01*
X123002262Y-89129816D01*
X123129816Y-89002262D01*
X123225789Y-88849522D01*
X123269239Y-88725345D01*
X123298597Y-88678623D01*
X123847319Y-88129902D01*
X123908642Y-88096417D01*
X123978334Y-88101401D01*
X124034267Y-88143273D01*
X124058684Y-88208737D01*
X124059000Y-88217583D01*
X124059000Y-101880759D01*
X124039315Y-101947798D01*
X123986511Y-101993553D01*
X123975955Y-101997800D01*
X123900479Y-102024210D01*
X123900475Y-102024212D01*
X123747737Y-102120184D01*
X123620184Y-102247737D01*
X123524211Y-102400476D01*
X123464631Y-102570745D01*
X123464630Y-102570750D01*
X123444435Y-102749996D01*
X123444435Y-102750003D01*
X123464630Y-102929249D01*
X123464631Y-102929254D01*
X123524211Y-103099523D01*
X123620184Y-103252262D01*
X123747738Y-103379816D01*
X123900478Y-103475789D01*
X124070745Y-103535368D01*
X124070750Y-103535369D01*
X124249996Y-103555565D01*
X124250000Y-103555565D01*
X124250004Y-103555565D01*
X124429249Y-103535369D01*
X124429252Y-103535368D01*
X124429255Y-103535368D01*
X124599522Y-103475789D01*
X124752262Y-103379816D01*
X124879816Y-103252262D01*
X124975789Y-103099522D01*
X125019239Y-102975346D01*
X125048595Y-102928624D01*
X125286735Y-102690486D01*
X125362356Y-102577311D01*
X125414445Y-102451557D01*
X125441000Y-102318057D01*
X125441000Y-102181943D01*
X125441000Y-102181942D01*
X125441000Y-96622440D01*
X125460685Y-96555401D01*
X125513489Y-96509646D01*
X125582647Y-96499702D01*
X125646203Y-96528727D01*
X125652681Y-96534759D01*
X125747738Y-96629816D01*
X125900478Y-96725789D01*
X125969652Y-96749994D01*
X126070745Y-96785368D01*
X126070750Y-96785369D01*
X126249996Y-96805565D01*
X126250000Y-96805565D01*
X126250004Y-96805565D01*
X126429249Y-96785369D01*
X126429252Y-96785368D01*
X126429255Y-96785368D01*
X126599522Y-96725789D01*
X126752262Y-96629816D01*
X126879816Y-96502262D01*
X126975789Y-96349522D01*
X127019239Y-96225345D01*
X127048597Y-96178623D01*
X127786735Y-95440486D01*
X127831898Y-95372895D01*
X127885510Y-95328090D01*
X127954835Y-95319383D01*
X128017862Y-95349537D01*
X128054582Y-95408980D01*
X128059000Y-95441786D01*
X128059000Y-106912415D01*
X128039315Y-106979454D01*
X128022681Y-107000096D01*
X127079828Y-107942948D01*
X127018505Y-107976433D01*
X126951194Y-107972309D01*
X126929255Y-107964632D01*
X126929253Y-107964631D01*
X126929251Y-107964631D01*
X126929246Y-107964630D01*
X126750004Y-107944435D01*
X126749996Y-107944435D01*
X126570750Y-107964630D01*
X126570745Y-107964631D01*
X126400476Y-108024211D01*
X126247737Y-108120184D01*
X126120184Y-108247737D01*
X126024211Y-108400476D01*
X125964631Y-108570745D01*
X125964630Y-108570750D01*
X125944435Y-108749996D01*
X125944435Y-108750003D01*
X125964630Y-108929249D01*
X125964631Y-108929254D01*
X126024211Y-109099523D01*
X126065339Y-109164977D01*
X126120184Y-109252262D01*
X126247738Y-109379816D01*
X126338080Y-109436582D01*
X126375359Y-109460006D01*
X126400478Y-109475789D01*
X126570745Y-109535368D01*
X126570750Y-109535369D01*
X126749996Y-109555565D01*
X126750000Y-109555565D01*
X126750004Y-109555565D01*
X126929249Y-109535369D01*
X126929252Y-109535368D01*
X126929255Y-109535368D01*
X127099522Y-109475789D01*
X127111299Y-109468388D01*
X127124641Y-109460006D01*
X127190613Y-109441000D01*
X127318060Y-109441000D01*
X127407870Y-109423134D01*
X127451557Y-109414445D01*
X127577311Y-109362356D01*
X127690487Y-109286735D01*
X129286735Y-107690487D01*
X129362356Y-107577311D01*
X129414445Y-107451557D01*
X129441000Y-107318058D01*
X129441000Y-88300000D01*
X136224341Y-88300000D01*
X136244936Y-88535403D01*
X136244938Y-88535413D01*
X136306094Y-88763655D01*
X136306096Y-88763659D01*
X136306097Y-88763663D01*
X136346246Y-88849762D01*
X136405965Y-88977830D01*
X136405967Y-88977834D01*
X136449629Y-89040189D01*
X136541505Y-89171401D01*
X136708599Y-89338495D01*
X136712464Y-89341201D01*
X136902165Y-89474032D01*
X136902167Y-89474033D01*
X136902170Y-89474035D01*
X137116337Y-89573903D01*
X137344592Y-89635063D01*
X137532918Y-89651539D01*
X137579999Y-89655659D01*
X137580000Y-89655659D01*
X137580001Y-89655659D01*
X137619234Y-89652226D01*
X137815408Y-89635063D01*
X138043663Y-89573903D01*
X138257830Y-89474035D01*
X138451401Y-89338495D01*
X138618495Y-89171401D01*
X138748425Y-88985842D01*
X138803002Y-88942217D01*
X138872500Y-88935023D01*
X138934855Y-88966546D01*
X138951575Y-88985842D01*
X139081500Y-89171395D01*
X139081505Y-89171401D01*
X139248599Y-89338495D01*
X139252464Y-89341201D01*
X139442165Y-89474032D01*
X139442167Y-89474033D01*
X139442170Y-89474035D01*
X139656337Y-89573903D01*
X139884592Y-89635063D01*
X140072918Y-89651539D01*
X140119999Y-89655659D01*
X140120000Y-89655659D01*
X140120001Y-89655659D01*
X140159234Y-89652226D01*
X140355408Y-89635063D01*
X140583663Y-89573903D01*
X140797830Y-89474035D01*
X140991401Y-89338495D01*
X141158495Y-89171401D01*
X141288425Y-88985842D01*
X141343002Y-88942217D01*
X141412500Y-88935023D01*
X141474855Y-88966546D01*
X141491575Y-88985842D01*
X141621500Y-89171395D01*
X141621505Y-89171401D01*
X141788599Y-89338495D01*
X141792464Y-89341201D01*
X141982165Y-89474032D01*
X141982167Y-89474033D01*
X141982170Y-89474035D01*
X142196337Y-89573903D01*
X142424592Y-89635063D01*
X142612918Y-89651539D01*
X142659999Y-89655659D01*
X142660000Y-89655659D01*
X142660001Y-89655659D01*
X142699234Y-89652226D01*
X142895408Y-89635063D01*
X143123663Y-89573903D01*
X143337830Y-89474035D01*
X143531401Y-89338495D01*
X143698495Y-89171401D01*
X143828425Y-88985842D01*
X143883002Y-88942217D01*
X143952500Y-88935023D01*
X144014855Y-88966546D01*
X144031575Y-88985842D01*
X144161500Y-89171395D01*
X144161505Y-89171401D01*
X144328599Y-89338495D01*
X144332464Y-89341201D01*
X144522165Y-89474032D01*
X144522167Y-89474033D01*
X144522170Y-89474035D01*
X144736337Y-89573903D01*
X144964592Y-89635063D01*
X145152918Y-89651539D01*
X145199999Y-89655659D01*
X145200000Y-89655659D01*
X145200001Y-89655659D01*
X145239234Y-89652226D01*
X145435408Y-89635063D01*
X145663663Y-89573903D01*
X145877830Y-89474035D01*
X146071401Y-89338495D01*
X146238495Y-89171401D01*
X146368425Y-88985842D01*
X146423002Y-88942217D01*
X146492500Y-88935023D01*
X146554855Y-88966546D01*
X146571575Y-88985842D01*
X146701500Y-89171395D01*
X146701505Y-89171401D01*
X146868599Y-89338495D01*
X146872464Y-89341201D01*
X147062165Y-89474032D01*
X147062167Y-89474033D01*
X147062170Y-89474035D01*
X147276337Y-89573903D01*
X147504592Y-89635063D01*
X147692918Y-89651539D01*
X147739999Y-89655659D01*
X147740000Y-89655659D01*
X147740001Y-89655659D01*
X147779234Y-89652226D01*
X147975408Y-89635063D01*
X148203663Y-89573903D01*
X148417830Y-89474035D01*
X148611401Y-89338495D01*
X148778495Y-89171401D01*
X148908425Y-88985842D01*
X148963002Y-88942217D01*
X149032500Y-88935023D01*
X149094855Y-88966546D01*
X149111575Y-88985842D01*
X149241500Y-89171395D01*
X149241505Y-89171401D01*
X149408599Y-89338495D01*
X149412464Y-89341201D01*
X149602165Y-89474032D01*
X149602167Y-89474033D01*
X149602170Y-89474035D01*
X149816337Y-89573903D01*
X150044592Y-89635063D01*
X150232918Y-89651539D01*
X150279999Y-89655659D01*
X150280000Y-89655659D01*
X150280001Y-89655659D01*
X150319234Y-89652226D01*
X150515408Y-89635063D01*
X150743663Y-89573903D01*
X150957830Y-89474035D01*
X151151401Y-89338495D01*
X151318495Y-89171401D01*
X151448425Y-88985842D01*
X151503002Y-88942217D01*
X151572500Y-88935023D01*
X151634855Y-88966546D01*
X151651575Y-88985842D01*
X151781500Y-89171395D01*
X151781505Y-89171401D01*
X151948599Y-89338495D01*
X151952464Y-89341201D01*
X152142165Y-89474032D01*
X152142167Y-89474033D01*
X152142170Y-89474035D01*
X152356337Y-89573903D01*
X152584592Y-89635063D01*
X152772918Y-89651539D01*
X152819999Y-89655659D01*
X152820000Y-89655659D01*
X152820001Y-89655659D01*
X152859234Y-89652226D01*
X153055408Y-89635063D01*
X153283663Y-89573903D01*
X153497830Y-89474035D01*
X153691401Y-89338495D01*
X153858495Y-89171401D01*
X153988425Y-88985842D01*
X154043002Y-88942217D01*
X154112500Y-88935023D01*
X154174855Y-88966546D01*
X154191575Y-88985842D01*
X154321500Y-89171395D01*
X154321505Y-89171401D01*
X154488599Y-89338495D01*
X154492464Y-89341201D01*
X154682165Y-89474032D01*
X154682167Y-89474033D01*
X154682170Y-89474035D01*
X154896337Y-89573903D01*
X155124592Y-89635063D01*
X155312918Y-89651539D01*
X155359999Y-89655659D01*
X155360000Y-89655659D01*
X155360001Y-89655659D01*
X155399234Y-89652226D01*
X155595408Y-89635063D01*
X155823663Y-89573903D01*
X156037830Y-89474035D01*
X156231401Y-89338495D01*
X156398495Y-89171401D01*
X156534035Y-88977830D01*
X156633903Y-88763663D01*
X156695063Y-88535408D01*
X156715659Y-88300000D01*
X156695063Y-88064592D01*
X156633903Y-87836337D01*
X156534035Y-87622171D01*
X156528425Y-87614158D01*
X156398494Y-87428597D01*
X156231402Y-87261506D01*
X156231395Y-87261501D01*
X156037831Y-87125965D01*
X156037829Y-87125964D01*
X155970405Y-87094524D01*
X155917966Y-87048352D01*
X155908685Y-87015792D01*
X155360001Y-86467107D01*
X155360000Y-86467107D01*
X154813380Y-87013725D01*
X154811560Y-87030049D01*
X154767503Y-87084278D01*
X154749594Y-87094523D01*
X154682177Y-87125961D01*
X154682169Y-87125965D01*
X154488597Y-87261505D01*
X154321505Y-87428597D01*
X154191575Y-87614158D01*
X154136998Y-87657783D01*
X154067500Y-87664977D01*
X154005145Y-87633454D01*
X153988425Y-87614158D01*
X153858494Y-87428597D01*
X153691402Y-87261506D01*
X153691395Y-87261501D01*
X153497831Y-87125965D01*
X153497829Y-87125964D01*
X153430405Y-87094524D01*
X153377966Y-87048352D01*
X153368685Y-87015792D01*
X152820001Y-86467107D01*
X152820000Y-86467107D01*
X152273380Y-87013725D01*
X152271560Y-87030049D01*
X152227503Y-87084278D01*
X152209594Y-87094523D01*
X152142177Y-87125961D01*
X152142169Y-87125965D01*
X151948597Y-87261505D01*
X151781505Y-87428597D01*
X151651575Y-87614158D01*
X151596998Y-87657783D01*
X151527500Y-87664977D01*
X151465145Y-87633454D01*
X151448425Y-87614158D01*
X151318494Y-87428597D01*
X151151402Y-87261506D01*
X151151395Y-87261501D01*
X150957831Y-87125965D01*
X150957829Y-87125964D01*
X150890405Y-87094524D01*
X150837966Y-87048352D01*
X150828685Y-87015792D01*
X150280001Y-86467107D01*
X150280000Y-86467107D01*
X149733380Y-87013725D01*
X149731560Y-87030049D01*
X149687503Y-87084278D01*
X149669594Y-87094523D01*
X149602177Y-87125961D01*
X149602169Y-87125965D01*
X149408597Y-87261505D01*
X149241505Y-87428597D01*
X149111575Y-87614158D01*
X149056998Y-87657783D01*
X148987500Y-87664977D01*
X148925145Y-87633454D01*
X148908425Y-87614158D01*
X148778494Y-87428597D01*
X148611402Y-87261506D01*
X148611395Y-87261501D01*
X148417831Y-87125965D01*
X148417829Y-87125964D01*
X148350405Y-87094524D01*
X148297966Y-87048352D01*
X148288685Y-87015792D01*
X147740001Y-86467107D01*
X147740000Y-86467107D01*
X147193380Y-87013725D01*
X147191560Y-87030049D01*
X147147503Y-87084278D01*
X147129594Y-87094523D01*
X147062177Y-87125961D01*
X147062169Y-87125965D01*
X146868597Y-87261505D01*
X146701505Y-87428597D01*
X146571575Y-87614158D01*
X146516998Y-87657783D01*
X146447500Y-87664977D01*
X146385145Y-87633454D01*
X146368425Y-87614158D01*
X146238494Y-87428597D01*
X146071402Y-87261506D01*
X146071395Y-87261501D01*
X145877831Y-87125965D01*
X145877829Y-87125964D01*
X145810405Y-87094524D01*
X145757966Y-87048352D01*
X145748685Y-87015792D01*
X145200001Y-86467107D01*
X145200000Y-86467107D01*
X144653380Y-87013725D01*
X144651560Y-87030049D01*
X144607503Y-87084278D01*
X144589594Y-87094523D01*
X144522177Y-87125961D01*
X144522169Y-87125965D01*
X144328597Y-87261505D01*
X144161505Y-87428597D01*
X144031575Y-87614158D01*
X143976998Y-87657783D01*
X143907500Y-87664977D01*
X143845145Y-87633454D01*
X143828425Y-87614158D01*
X143698494Y-87428597D01*
X143531402Y-87261506D01*
X143531395Y-87261501D01*
X143337831Y-87125965D01*
X143337829Y-87125964D01*
X143270405Y-87094524D01*
X143217966Y-87048352D01*
X143208685Y-87015792D01*
X142660001Y-86467107D01*
X142660000Y-86467107D01*
X142113380Y-87013725D01*
X142111560Y-87030049D01*
X142067503Y-87084278D01*
X142049594Y-87094523D01*
X141982177Y-87125961D01*
X141982169Y-87125965D01*
X141788597Y-87261505D01*
X141621505Y-87428597D01*
X141491575Y-87614158D01*
X141436998Y-87657783D01*
X141367500Y-87664977D01*
X141305145Y-87633454D01*
X141288425Y-87614158D01*
X141158494Y-87428597D01*
X140991402Y-87261506D01*
X140991395Y-87261501D01*
X140797831Y-87125965D01*
X140797829Y-87125964D01*
X140730405Y-87094524D01*
X140677966Y-87048352D01*
X140668685Y-87015792D01*
X140120001Y-86467107D01*
X140120000Y-86467107D01*
X139573380Y-87013725D01*
X139571560Y-87030049D01*
X139527503Y-87084278D01*
X139509594Y-87094523D01*
X139442177Y-87125961D01*
X139442169Y-87125965D01*
X139248597Y-87261505D01*
X139081505Y-87428597D01*
X138951575Y-87614158D01*
X138896998Y-87657783D01*
X138827500Y-87664977D01*
X138765145Y-87633454D01*
X138748425Y-87614158D01*
X138618494Y-87428597D01*
X138451402Y-87261506D01*
X138451395Y-87261501D01*
X138257831Y-87125965D01*
X138257829Y-87125964D01*
X138190405Y-87094524D01*
X138137966Y-87048352D01*
X138128685Y-87015792D01*
X137580001Y-86467107D01*
X137580000Y-86467107D01*
X137033380Y-87013725D01*
X137031560Y-87030049D01*
X136987503Y-87084278D01*
X136969594Y-87094523D01*
X136902177Y-87125961D01*
X136902169Y-87125965D01*
X136708597Y-87261505D01*
X136541505Y-87428597D01*
X136405965Y-87622169D01*
X136405964Y-87622171D01*
X136306098Y-87836335D01*
X136306094Y-87836344D01*
X136244938Y-88064586D01*
X136244936Y-88064596D01*
X136224341Y-88299999D01*
X136224341Y-88300000D01*
X129441000Y-88300000D01*
X129441000Y-85084500D01*
X129460685Y-85017461D01*
X129513489Y-84971706D01*
X129565000Y-84960500D01*
X136161358Y-84960500D01*
X136171504Y-84959955D01*
X136215396Y-84957603D01*
X136215404Y-84957602D01*
X136215406Y-84957602D01*
X136215407Y-84957602D01*
X136222400Y-84956849D01*
X136241754Y-84954769D01*
X136253045Y-84952939D01*
X136322368Y-84961645D01*
X136375982Y-85006448D01*
X136396862Y-85073125D01*
X136385264Y-85127747D01*
X136306570Y-85296507D01*
X136306566Y-85296516D01*
X136245432Y-85524673D01*
X136245430Y-85524684D01*
X136224843Y-85759998D01*
X136224843Y-85760001D01*
X136245430Y-85995315D01*
X136245432Y-85995326D01*
X136306566Y-86223483D01*
X136306571Y-86223497D01*
X136339270Y-86293621D01*
X136807066Y-85825826D01*
X137080000Y-85825826D01*
X137114075Y-85952993D01*
X137179901Y-86067007D01*
X137272993Y-86160099D01*
X137387007Y-86225925D01*
X137514174Y-86260000D01*
X137645826Y-86260000D01*
X137772993Y-86225925D01*
X137887007Y-86160099D01*
X137980099Y-86067007D01*
X138045925Y-85952993D01*
X138080000Y-85825826D01*
X138080000Y-85760000D01*
X138287107Y-85760000D01*
X138820727Y-86293620D01*
X138828465Y-86292256D01*
X138871531Y-86292256D01*
X138879271Y-86293620D01*
X139347067Y-85825826D01*
X139620000Y-85825826D01*
X139654075Y-85952993D01*
X139719901Y-86067007D01*
X139812993Y-86160099D01*
X139927007Y-86225925D01*
X140054174Y-86260000D01*
X140185826Y-86260000D01*
X140312993Y-86225925D01*
X140427007Y-86160099D01*
X140520099Y-86067007D01*
X140585925Y-85952993D01*
X140620000Y-85825826D01*
X140620000Y-85760000D01*
X140827107Y-85760000D01*
X141360727Y-86293620D01*
X141368465Y-86292256D01*
X141411531Y-86292256D01*
X141419271Y-86293620D01*
X141887067Y-85825826D01*
X142160000Y-85825826D01*
X142194075Y-85952993D01*
X142259901Y-86067007D01*
X142352993Y-86160099D01*
X142467007Y-86225925D01*
X142594174Y-86260000D01*
X142725826Y-86260000D01*
X142852993Y-86225925D01*
X142967007Y-86160099D01*
X143060099Y-86067007D01*
X143125925Y-85952993D01*
X143160000Y-85825826D01*
X143160000Y-85760000D01*
X143367107Y-85760000D01*
X143900727Y-86293620D01*
X143908465Y-86292256D01*
X143951531Y-86292256D01*
X143959271Y-86293620D01*
X144427067Y-85825826D01*
X144700000Y-85825826D01*
X144734075Y-85952993D01*
X144799901Y-86067007D01*
X144892993Y-86160099D01*
X145007007Y-86225925D01*
X145134174Y-86260000D01*
X145265826Y-86260000D01*
X145392993Y-86225925D01*
X145507007Y-86160099D01*
X145600099Y-86067007D01*
X145665925Y-85952993D01*
X145700000Y-85825826D01*
X145700000Y-85760000D01*
X145907107Y-85760000D01*
X146440727Y-86293620D01*
X146448465Y-86292256D01*
X146491531Y-86292256D01*
X146499271Y-86293620D01*
X146967067Y-85825826D01*
X147240000Y-85825826D01*
X147274075Y-85952993D01*
X147339901Y-86067007D01*
X147432993Y-86160099D01*
X147547007Y-86225925D01*
X147674174Y-86260000D01*
X147805826Y-86260000D01*
X147932993Y-86225925D01*
X148047007Y-86160099D01*
X148140099Y-86067007D01*
X148205925Y-85952993D01*
X148240000Y-85825826D01*
X148240000Y-85760000D01*
X148447107Y-85760000D01*
X148980727Y-86293620D01*
X148988465Y-86292256D01*
X149031531Y-86292256D01*
X149039271Y-86293620D01*
X149507067Y-85825826D01*
X149780000Y-85825826D01*
X149814075Y-85952993D01*
X149879901Y-86067007D01*
X149972993Y-86160099D01*
X150087007Y-86225925D01*
X150214174Y-86260000D01*
X150345826Y-86260000D01*
X150472993Y-86225925D01*
X150587007Y-86160099D01*
X150680099Y-86067007D01*
X150745925Y-85952993D01*
X150780000Y-85825826D01*
X150780000Y-85760000D01*
X150987107Y-85760000D01*
X151520727Y-86293620D01*
X151528465Y-86292256D01*
X151571531Y-86292256D01*
X151579271Y-86293620D01*
X152047067Y-85825826D01*
X152320000Y-85825826D01*
X152354075Y-85952993D01*
X152419901Y-86067007D01*
X152512993Y-86160099D01*
X152627007Y-86225925D01*
X152754174Y-86260000D01*
X152885826Y-86260000D01*
X153012993Y-86225925D01*
X153127007Y-86160099D01*
X153220099Y-86067007D01*
X153285925Y-85952993D01*
X153320000Y-85825826D01*
X153320000Y-85760000D01*
X153527107Y-85760000D01*
X154060727Y-86293620D01*
X154068465Y-86292256D01*
X154111531Y-86292256D01*
X154119271Y-86293620D01*
X154587067Y-85825826D01*
X154860000Y-85825826D01*
X154894075Y-85952993D01*
X154959901Y-86067007D01*
X155052993Y-86160099D01*
X155167007Y-86225925D01*
X155294174Y-86260000D01*
X155425826Y-86260000D01*
X155552993Y-86225925D01*
X155667007Y-86160099D01*
X155760099Y-86067007D01*
X155825925Y-85952993D01*
X155860000Y-85825826D01*
X155860000Y-85694174D01*
X155825925Y-85567007D01*
X155760099Y-85452993D01*
X155667007Y-85359901D01*
X155552993Y-85294075D01*
X155425826Y-85260000D01*
X155294174Y-85260000D01*
X155167007Y-85294075D01*
X155052993Y-85359901D01*
X154959901Y-85452993D01*
X154894075Y-85567007D01*
X154860000Y-85694174D01*
X154860000Y-85825826D01*
X154587067Y-85825826D01*
X154652893Y-85760000D01*
X154119270Y-85226377D01*
X154111529Y-85227742D01*
X154068466Y-85227742D01*
X154060727Y-85226377D01*
X153527107Y-85759999D01*
X153527107Y-85760000D01*
X153320000Y-85760000D01*
X153320000Y-85694174D01*
X153285925Y-85567007D01*
X153220099Y-85452993D01*
X153127007Y-85359901D01*
X153012993Y-85294075D01*
X152885826Y-85260000D01*
X152754174Y-85260000D01*
X152627007Y-85294075D01*
X152512993Y-85359901D01*
X152419901Y-85452993D01*
X152354075Y-85567007D01*
X152320000Y-85694174D01*
X152320000Y-85825826D01*
X152047067Y-85825826D01*
X152112893Y-85760000D01*
X151579270Y-85226377D01*
X151571529Y-85227742D01*
X151528466Y-85227742D01*
X151520727Y-85226377D01*
X150987107Y-85759999D01*
X150987107Y-85760000D01*
X150780000Y-85760000D01*
X150780000Y-85694174D01*
X150745925Y-85567007D01*
X150680099Y-85452993D01*
X150587007Y-85359901D01*
X150472993Y-85294075D01*
X150345826Y-85260000D01*
X150214174Y-85260000D01*
X150087007Y-85294075D01*
X149972993Y-85359901D01*
X149879901Y-85452993D01*
X149814075Y-85567007D01*
X149780000Y-85694174D01*
X149780000Y-85825826D01*
X149507067Y-85825826D01*
X149572893Y-85760000D01*
X149039270Y-85226377D01*
X149031529Y-85227742D01*
X148988466Y-85227742D01*
X148980727Y-85226377D01*
X148447107Y-85759999D01*
X148447107Y-85760000D01*
X148240000Y-85760000D01*
X148240000Y-85694174D01*
X148205925Y-85567007D01*
X148140099Y-85452993D01*
X148047007Y-85359901D01*
X147932993Y-85294075D01*
X147805826Y-85260000D01*
X147674174Y-85260000D01*
X147547007Y-85294075D01*
X147432993Y-85359901D01*
X147339901Y-85452993D01*
X147274075Y-85567007D01*
X147240000Y-85694174D01*
X147240000Y-85825826D01*
X146967067Y-85825826D01*
X147032893Y-85760000D01*
X146499270Y-85226377D01*
X146491529Y-85227742D01*
X146448466Y-85227742D01*
X146440727Y-85226377D01*
X145907107Y-85759999D01*
X145907107Y-85760000D01*
X145700000Y-85760000D01*
X145700000Y-85694174D01*
X145665925Y-85567007D01*
X145600099Y-85452993D01*
X145507007Y-85359901D01*
X145392993Y-85294075D01*
X145265826Y-85260000D01*
X145134174Y-85260000D01*
X145007007Y-85294075D01*
X144892993Y-85359901D01*
X144799901Y-85452993D01*
X144734075Y-85567007D01*
X144700000Y-85694174D01*
X144700000Y-85825826D01*
X144427067Y-85825826D01*
X144492893Y-85760000D01*
X143959270Y-85226377D01*
X143951529Y-85227742D01*
X143908466Y-85227742D01*
X143900727Y-85226377D01*
X143367107Y-85759999D01*
X143367107Y-85760000D01*
X143160000Y-85760000D01*
X143160000Y-85694174D01*
X143125925Y-85567007D01*
X143060099Y-85452993D01*
X142967007Y-85359901D01*
X142852993Y-85294075D01*
X142725826Y-85260000D01*
X142594174Y-85260000D01*
X142467007Y-85294075D01*
X142352993Y-85359901D01*
X142259901Y-85452993D01*
X142194075Y-85567007D01*
X142160000Y-85694174D01*
X142160000Y-85825826D01*
X141887067Y-85825826D01*
X141952893Y-85760000D01*
X141419270Y-85226377D01*
X141411529Y-85227742D01*
X141368466Y-85227742D01*
X141360727Y-85226377D01*
X140827107Y-85759999D01*
X140827107Y-85760000D01*
X140620000Y-85760000D01*
X140620000Y-85694174D01*
X140585925Y-85567007D01*
X140520099Y-85452993D01*
X140427007Y-85359901D01*
X140312993Y-85294075D01*
X140185826Y-85260000D01*
X140054174Y-85260000D01*
X139927007Y-85294075D01*
X139812993Y-85359901D01*
X139719901Y-85452993D01*
X139654075Y-85567007D01*
X139620000Y-85694174D01*
X139620000Y-85825826D01*
X139347067Y-85825826D01*
X139412893Y-85760000D01*
X138879270Y-85226377D01*
X138871529Y-85227742D01*
X138828466Y-85227742D01*
X138820727Y-85226377D01*
X138287107Y-85759999D01*
X138287107Y-85760000D01*
X138080000Y-85760000D01*
X138080000Y-85694174D01*
X138045925Y-85567007D01*
X137980099Y-85452993D01*
X137887007Y-85359901D01*
X137772993Y-85294075D01*
X137645826Y-85260000D01*
X137514174Y-85260000D01*
X137387007Y-85294075D01*
X137272993Y-85359901D01*
X137179901Y-85452993D01*
X137114075Y-85567007D01*
X137080000Y-85694174D01*
X137080000Y-85825826D01*
X136807066Y-85825826D01*
X137580000Y-85052893D01*
X138026075Y-84606818D01*
X138087398Y-84573333D01*
X138113756Y-84570499D01*
X138477871Y-84570499D01*
X138477872Y-84570499D01*
X138537483Y-84564091D01*
X138672331Y-84513796D01*
X138717833Y-84479732D01*
X138783297Y-84455316D01*
X138792144Y-84455000D01*
X138907856Y-84455000D01*
X138974895Y-84474685D01*
X138982167Y-84479733D01*
X139027669Y-84513796D01*
X139027671Y-84513797D01*
X139064382Y-84527489D01*
X139162517Y-84564091D01*
X139222127Y-84570500D01*
X139586246Y-84570499D01*
X139653283Y-84590183D01*
X139673925Y-84606818D01*
X140120000Y-85052893D01*
X140120001Y-85052893D01*
X140566074Y-84606818D01*
X140627397Y-84573333D01*
X140653753Y-84570499D01*
X141017872Y-84570499D01*
X141077483Y-84564091D01*
X141212331Y-84513796D01*
X141257833Y-84479732D01*
X141323297Y-84455316D01*
X141332144Y-84455000D01*
X141447856Y-84455000D01*
X141514895Y-84474685D01*
X141522167Y-84479733D01*
X141567669Y-84513796D01*
X141567671Y-84513797D01*
X141604382Y-84527489D01*
X141702517Y-84564091D01*
X141762127Y-84570500D01*
X142126246Y-84570499D01*
X142193283Y-84590183D01*
X142213925Y-84606818D01*
X142660000Y-85052893D01*
X142660001Y-85052893D01*
X143106074Y-84606818D01*
X143167397Y-84573333D01*
X143193753Y-84570499D01*
X143557872Y-84570499D01*
X143617483Y-84564091D01*
X143752331Y-84513796D01*
X143797833Y-84479732D01*
X143863297Y-84455316D01*
X143872144Y-84455000D01*
X143987856Y-84455000D01*
X144054895Y-84474685D01*
X144062167Y-84479733D01*
X144107669Y-84513796D01*
X144107671Y-84513797D01*
X144144382Y-84527489D01*
X144242517Y-84564091D01*
X144302127Y-84570500D01*
X144666246Y-84570499D01*
X144733283Y-84590183D01*
X144753925Y-84606818D01*
X145200000Y-85052893D01*
X145200001Y-85052893D01*
X145646074Y-84606818D01*
X145707397Y-84573333D01*
X145733753Y-84570499D01*
X146097872Y-84570499D01*
X146157483Y-84564091D01*
X146292331Y-84513796D01*
X146337833Y-84479732D01*
X146403297Y-84455316D01*
X146412144Y-84455000D01*
X146527856Y-84455000D01*
X146594895Y-84474685D01*
X146602167Y-84479733D01*
X146647669Y-84513796D01*
X146647671Y-84513797D01*
X146684382Y-84527489D01*
X146782517Y-84564091D01*
X146842127Y-84570500D01*
X147206246Y-84570499D01*
X147273283Y-84590183D01*
X147293925Y-84606818D01*
X147740000Y-85052893D01*
X147740001Y-85052893D01*
X148186074Y-84606818D01*
X148247397Y-84573333D01*
X148273753Y-84570499D01*
X148637872Y-84570499D01*
X148697483Y-84564091D01*
X148832331Y-84513796D01*
X148877833Y-84479732D01*
X148943297Y-84455316D01*
X148952144Y-84455000D01*
X149067856Y-84455000D01*
X149134895Y-84474685D01*
X149142167Y-84479733D01*
X149187669Y-84513796D01*
X149187671Y-84513797D01*
X149224382Y-84527489D01*
X149322517Y-84564091D01*
X149382127Y-84570500D01*
X149746246Y-84570499D01*
X149813283Y-84590183D01*
X149833925Y-84606818D01*
X150280000Y-85052893D01*
X150280001Y-85052893D01*
X150726074Y-84606818D01*
X150787397Y-84573333D01*
X150813753Y-84570499D01*
X151177872Y-84570499D01*
X151237483Y-84564091D01*
X151372331Y-84513796D01*
X151417833Y-84479732D01*
X151483297Y-84455316D01*
X151492144Y-84455000D01*
X151607856Y-84455000D01*
X151674895Y-84474685D01*
X151682167Y-84479733D01*
X151727669Y-84513796D01*
X151727671Y-84513797D01*
X151764382Y-84527489D01*
X151862517Y-84564091D01*
X151922127Y-84570500D01*
X152286246Y-84570499D01*
X152353283Y-84590183D01*
X152373925Y-84606818D01*
X152820000Y-85052893D01*
X152820001Y-85052893D01*
X153266074Y-84606818D01*
X153327397Y-84573333D01*
X153353753Y-84570499D01*
X153717872Y-84570499D01*
X153777483Y-84564091D01*
X153912331Y-84513796D01*
X153957833Y-84479732D01*
X154023297Y-84455316D01*
X154032144Y-84455000D01*
X154147856Y-84455000D01*
X154214895Y-84474685D01*
X154222167Y-84479733D01*
X154267669Y-84513796D01*
X154267671Y-84513797D01*
X154304382Y-84527489D01*
X154402517Y-84564091D01*
X154462127Y-84570500D01*
X154826246Y-84570499D01*
X154893283Y-84590183D01*
X154913925Y-84606818D01*
X155360000Y-85052893D01*
X156600727Y-86293621D01*
X156633429Y-86223494D01*
X156694568Y-85995322D01*
X156694569Y-85995315D01*
X156715157Y-85760001D01*
X156715157Y-85759998D01*
X156694569Y-85524684D01*
X156694567Y-85524673D01*
X156633433Y-85296516D01*
X156633430Y-85296507D01*
X156551935Y-85121742D01*
X156541443Y-85052665D01*
X156569963Y-84988881D01*
X156628439Y-84950641D01*
X156681960Y-84946599D01*
X156778644Y-84960500D01*
X165105500Y-84960500D01*
X165172539Y-84980185D01*
X165218294Y-85032989D01*
X165229500Y-85084500D01*
X165229500Y-97185000D01*
X165209815Y-97252039D01*
X165157011Y-97297794D01*
X165105500Y-97309000D01*
X152690613Y-97309000D01*
X152624641Y-97289994D01*
X152599523Y-97274211D01*
X152429254Y-97214631D01*
X152429249Y-97214630D01*
X152250004Y-97194435D01*
X152249996Y-97194435D01*
X152070750Y-97214630D01*
X152070745Y-97214631D01*
X151900476Y-97274211D01*
X151747737Y-97370184D01*
X151620184Y-97497737D01*
X151524211Y-97650476D01*
X151464631Y-97820745D01*
X151464630Y-97820750D01*
X151444435Y-97999996D01*
X151444435Y-98000003D01*
X151463714Y-98171117D01*
X151451659Y-98239939D01*
X151404310Y-98291318D01*
X151340494Y-98309000D01*
X147236842Y-98309000D01*
X147169803Y-98289315D01*
X147131846Y-98250969D01*
X147129815Y-98247737D01*
X147002262Y-98120184D01*
X146849523Y-98024211D01*
X146679254Y-97964631D01*
X146679249Y-97964630D01*
X146500004Y-97944435D01*
X146499996Y-97944435D01*
X146320750Y-97964630D01*
X146320745Y-97964631D01*
X146150476Y-98024211D01*
X145997737Y-98120184D01*
X145870184Y-98247737D01*
X145774211Y-98400476D01*
X145714631Y-98570745D01*
X145714630Y-98570750D01*
X145694435Y-98749996D01*
X145694435Y-98750003D01*
X145714630Y-98929249D01*
X145714631Y-98929254D01*
X145774211Y-99099523D01*
X145870184Y-99252262D01*
X145997738Y-99379816D01*
X146150478Y-99475789D01*
X146278017Y-99520416D01*
X146305951Y-99534355D01*
X146422681Y-99612352D01*
X146422685Y-99612354D01*
X146422688Y-99612356D01*
X146548442Y-99664445D01*
X146567439Y-99668223D01*
X146623905Y-99679455D01*
X146681941Y-99691000D01*
X146681942Y-99691000D01*
X165105500Y-99691000D01*
X165172539Y-99710685D01*
X165218294Y-99763489D01*
X165229500Y-99815000D01*
X165229500Y-113035500D01*
X165209815Y-113102539D01*
X165157011Y-113148294D01*
X165105500Y-113159500D01*
X159315000Y-113159500D01*
X159247961Y-113139815D01*
X159202206Y-113087011D01*
X159191000Y-113035500D01*
X159191000Y-108931939D01*
X159164446Y-108798448D01*
X159164445Y-108798447D01*
X159164445Y-108798443D01*
X159149143Y-108761501D01*
X159112359Y-108672695D01*
X159112355Y-108672688D01*
X159081137Y-108625967D01*
X159081136Y-108625965D01*
X159036735Y-108559513D01*
X159036733Y-108559511D01*
X159036731Y-108559508D01*
X159036730Y-108559507D01*
X154798599Y-104321377D01*
X154769238Y-104274650D01*
X154725788Y-104150476D01*
X154629815Y-103997737D01*
X154502262Y-103870184D01*
X154349523Y-103774211D01*
X154179254Y-103714631D01*
X154179249Y-103714630D01*
X154000004Y-103694435D01*
X153999996Y-103694435D01*
X153820750Y-103714630D01*
X153820745Y-103714631D01*
X153650476Y-103774211D01*
X153497737Y-103870184D01*
X153370184Y-103997737D01*
X153274211Y-104150476D01*
X153214631Y-104320745D01*
X153214630Y-104320750D01*
X153194435Y-104499996D01*
X153194435Y-104500003D01*
X153214630Y-104679249D01*
X153214631Y-104679254D01*
X153274211Y-104849523D01*
X153345963Y-104963714D01*
X153370184Y-105002262D01*
X153497738Y-105129816D01*
X153650478Y-105225789D01*
X153774651Y-105269238D01*
X153821377Y-105298599D01*
X157772681Y-109249903D01*
X157806166Y-109311226D01*
X157809000Y-109337584D01*
X157809000Y-113035500D01*
X157789315Y-113102539D01*
X157736511Y-113148294D01*
X157685000Y-113159500D01*
X156766102Y-113159500D01*
X156712078Y-113162396D01*
X156712071Y-113162396D01*
X156712062Y-113162397D01*
X156712056Y-113162397D01*
X156712024Y-113162400D01*
X156685710Y-113165229D01*
X156656250Y-113170003D01*
X156586925Y-113161293D01*
X156533315Y-113116486D01*
X156512439Y-113049808D01*
X156524037Y-112995194D01*
X156613430Y-112803492D01*
X156613433Y-112803483D01*
X156674567Y-112575326D01*
X156674569Y-112575315D01*
X156695157Y-112340001D01*
X156695157Y-112339998D01*
X156674569Y-112104684D01*
X156674567Y-112104673D01*
X156613433Y-111876516D01*
X156613429Y-111876507D01*
X156580728Y-111806377D01*
X155340000Y-113047107D01*
X154893924Y-113493181D01*
X154832601Y-113526666D01*
X154806243Y-113529500D01*
X154442130Y-113529500D01*
X154442123Y-113529501D01*
X154382516Y-113535908D01*
X154247671Y-113586202D01*
X154247668Y-113586204D01*
X154175450Y-113640267D01*
X154109986Y-113664684D01*
X154101139Y-113665000D01*
X154038861Y-113665000D01*
X153971822Y-113645315D01*
X153964550Y-113640267D01*
X153892331Y-113586204D01*
X153892328Y-113586202D01*
X153757482Y-113535908D01*
X153757483Y-113535908D01*
X153697883Y-113529501D01*
X153697881Y-113529500D01*
X153697873Y-113529500D01*
X153697865Y-113529500D01*
X153333755Y-113529500D01*
X153266716Y-113509815D01*
X153246074Y-113493181D01*
X152800001Y-113047107D01*
X152800000Y-113047107D01*
X152353924Y-113493181D01*
X152292601Y-113526666D01*
X152266243Y-113529500D01*
X151902130Y-113529500D01*
X151902123Y-113529501D01*
X151842516Y-113535908D01*
X151707671Y-113586202D01*
X151707668Y-113586204D01*
X151635450Y-113640267D01*
X151569986Y-113664684D01*
X151561139Y-113665000D01*
X151498861Y-113665000D01*
X151431822Y-113645315D01*
X151424550Y-113640267D01*
X151352331Y-113586204D01*
X151352328Y-113586202D01*
X151217482Y-113535908D01*
X151217483Y-113535908D01*
X151157883Y-113529501D01*
X151157881Y-113529500D01*
X151157873Y-113529500D01*
X151157865Y-113529500D01*
X150793755Y-113529500D01*
X150726716Y-113509815D01*
X150706074Y-113493181D01*
X150260001Y-113047107D01*
X150260000Y-113047107D01*
X149813924Y-113493181D01*
X149752601Y-113526666D01*
X149726243Y-113529500D01*
X149362130Y-113529500D01*
X149362123Y-113529501D01*
X149302516Y-113535908D01*
X149167671Y-113586202D01*
X149167668Y-113586204D01*
X149095450Y-113640267D01*
X149029986Y-113664684D01*
X149021139Y-113665000D01*
X148958861Y-113665000D01*
X148891822Y-113645315D01*
X148884550Y-113640267D01*
X148812331Y-113586204D01*
X148812328Y-113586202D01*
X148677482Y-113535908D01*
X148677483Y-113535908D01*
X148617883Y-113529501D01*
X148617881Y-113529500D01*
X148617873Y-113529500D01*
X148617865Y-113529500D01*
X148253755Y-113529500D01*
X148186716Y-113509815D01*
X148166074Y-113493181D01*
X147720001Y-113047107D01*
X147720000Y-113047107D01*
X147273924Y-113493181D01*
X147212601Y-113526666D01*
X147186243Y-113529500D01*
X146822130Y-113529500D01*
X146822123Y-113529501D01*
X146762516Y-113535908D01*
X146627671Y-113586202D01*
X146627668Y-113586204D01*
X146555450Y-113640267D01*
X146489986Y-113664684D01*
X146481139Y-113665000D01*
X146418861Y-113665000D01*
X146351822Y-113645315D01*
X146344550Y-113640267D01*
X146272331Y-113586204D01*
X146272328Y-113586202D01*
X146137482Y-113535908D01*
X146137483Y-113535908D01*
X146077883Y-113529501D01*
X146077881Y-113529500D01*
X146077873Y-113529500D01*
X146077865Y-113529500D01*
X145713755Y-113529500D01*
X145646716Y-113509815D01*
X145626074Y-113493181D01*
X145180001Y-113047107D01*
X145180000Y-113047107D01*
X144733924Y-113493181D01*
X144672601Y-113526666D01*
X144646243Y-113529500D01*
X144282130Y-113529500D01*
X144282123Y-113529501D01*
X144222516Y-113535908D01*
X144087671Y-113586202D01*
X144087668Y-113586204D01*
X144015450Y-113640267D01*
X143949986Y-113664684D01*
X143941139Y-113665000D01*
X143878861Y-113665000D01*
X143811822Y-113645315D01*
X143804550Y-113640267D01*
X143732331Y-113586204D01*
X143732328Y-113586202D01*
X143597482Y-113535908D01*
X143597483Y-113535908D01*
X143537883Y-113529501D01*
X143537881Y-113529500D01*
X143537873Y-113529500D01*
X143537865Y-113529500D01*
X143173755Y-113529500D01*
X143106716Y-113509815D01*
X143086074Y-113493181D01*
X142640001Y-113047107D01*
X142640000Y-113047107D01*
X142193924Y-113493181D01*
X142132601Y-113526666D01*
X142106243Y-113529500D01*
X141742130Y-113529500D01*
X141742123Y-113529501D01*
X141682516Y-113535908D01*
X141547671Y-113586202D01*
X141547668Y-113586204D01*
X141475450Y-113640267D01*
X141409986Y-113664684D01*
X141401139Y-113665000D01*
X141338861Y-113665000D01*
X141271822Y-113645315D01*
X141264550Y-113640267D01*
X141192331Y-113586204D01*
X141192328Y-113586202D01*
X141057482Y-113535908D01*
X141057483Y-113535908D01*
X140997883Y-113529501D01*
X140997881Y-113529500D01*
X140997873Y-113529500D01*
X140997865Y-113529500D01*
X140633755Y-113529500D01*
X140566716Y-113509815D01*
X140546074Y-113493181D01*
X140100001Y-113047107D01*
X140100000Y-113047107D01*
X139653924Y-113493181D01*
X139592601Y-113526666D01*
X139566243Y-113529500D01*
X139202130Y-113529500D01*
X139202123Y-113529501D01*
X139142516Y-113535908D01*
X139007671Y-113586202D01*
X139007668Y-113586204D01*
X138935450Y-113640267D01*
X138869986Y-113664684D01*
X138861139Y-113665000D01*
X138798861Y-113665000D01*
X138731822Y-113645315D01*
X138724550Y-113640267D01*
X138652331Y-113586204D01*
X138652328Y-113586202D01*
X138517482Y-113535908D01*
X138517483Y-113535908D01*
X138457883Y-113529501D01*
X138457881Y-113529500D01*
X138457873Y-113529500D01*
X138457865Y-113529500D01*
X138093755Y-113529500D01*
X138026716Y-113509815D01*
X138006074Y-113493181D01*
X136918719Y-112405826D01*
X137060000Y-112405826D01*
X137094075Y-112532993D01*
X137159901Y-112647007D01*
X137252993Y-112740099D01*
X137367007Y-112805925D01*
X137494174Y-112840000D01*
X137625826Y-112840000D01*
X137752993Y-112805925D01*
X137867007Y-112740099D01*
X137960099Y-112647007D01*
X138025925Y-112532993D01*
X138060000Y-112405826D01*
X138060000Y-112340000D01*
X138267107Y-112340000D01*
X138800727Y-112873620D01*
X138808465Y-112872256D01*
X138851531Y-112872256D01*
X138859271Y-112873620D01*
X139327067Y-112405826D01*
X139600000Y-112405826D01*
X139634075Y-112532993D01*
X139699901Y-112647007D01*
X139792993Y-112740099D01*
X139907007Y-112805925D01*
X140034174Y-112840000D01*
X140165826Y-112840000D01*
X140292993Y-112805925D01*
X140407007Y-112740099D01*
X140500099Y-112647007D01*
X140565925Y-112532993D01*
X140600000Y-112405826D01*
X140600000Y-112340000D01*
X140807107Y-112340000D01*
X141340727Y-112873620D01*
X141348465Y-112872256D01*
X141391531Y-112872256D01*
X141399271Y-112873620D01*
X141867067Y-112405826D01*
X142140000Y-112405826D01*
X142174075Y-112532993D01*
X142239901Y-112647007D01*
X142332993Y-112740099D01*
X142447007Y-112805925D01*
X142574174Y-112840000D01*
X142705826Y-112840000D01*
X142832993Y-112805925D01*
X142947007Y-112740099D01*
X143040099Y-112647007D01*
X143105925Y-112532993D01*
X143140000Y-112405826D01*
X143140000Y-112340000D01*
X143347107Y-112340000D01*
X143880727Y-112873620D01*
X143888465Y-112872256D01*
X143931531Y-112872256D01*
X143939271Y-112873620D01*
X144407067Y-112405826D01*
X144680000Y-112405826D01*
X144714075Y-112532993D01*
X144779901Y-112647007D01*
X144872993Y-112740099D01*
X144987007Y-112805925D01*
X145114174Y-112840000D01*
X145245826Y-112840000D01*
X145372993Y-112805925D01*
X145487007Y-112740099D01*
X145580099Y-112647007D01*
X145645925Y-112532993D01*
X145680000Y-112405826D01*
X145680000Y-112340000D01*
X145887107Y-112340000D01*
X146420727Y-112873620D01*
X146428465Y-112872256D01*
X146471531Y-112872256D01*
X146479271Y-112873620D01*
X146947067Y-112405826D01*
X147220000Y-112405826D01*
X147254075Y-112532993D01*
X147319901Y-112647007D01*
X147412993Y-112740099D01*
X147527007Y-112805925D01*
X147654174Y-112840000D01*
X147785826Y-112840000D01*
X147912993Y-112805925D01*
X148027007Y-112740099D01*
X148120099Y-112647007D01*
X148185925Y-112532993D01*
X148220000Y-112405826D01*
X148220000Y-112340000D01*
X148427107Y-112340000D01*
X148960727Y-112873620D01*
X148968465Y-112872256D01*
X149011531Y-112872256D01*
X149019271Y-112873620D01*
X149487067Y-112405826D01*
X149760000Y-112405826D01*
X149794075Y-112532993D01*
X149859901Y-112647007D01*
X149952993Y-112740099D01*
X150067007Y-112805925D01*
X150194174Y-112840000D01*
X150325826Y-112840000D01*
X150452993Y-112805925D01*
X150567007Y-112740099D01*
X150660099Y-112647007D01*
X150725925Y-112532993D01*
X150760000Y-112405826D01*
X150760000Y-112340000D01*
X150967107Y-112340000D01*
X151500727Y-112873620D01*
X151508465Y-112872256D01*
X151551531Y-112872256D01*
X151559271Y-112873620D01*
X152027067Y-112405826D01*
X152300000Y-112405826D01*
X152334075Y-112532993D01*
X152399901Y-112647007D01*
X152492993Y-112740099D01*
X152607007Y-112805925D01*
X152734174Y-112840000D01*
X152865826Y-112840000D01*
X152992993Y-112805925D01*
X153107007Y-112740099D01*
X153200099Y-112647007D01*
X153265925Y-112532993D01*
X153300000Y-112405826D01*
X153300000Y-112340000D01*
X153507107Y-112340000D01*
X154040727Y-112873620D01*
X154048465Y-112872256D01*
X154091531Y-112872256D01*
X154099271Y-112873620D01*
X154567067Y-112405826D01*
X154840000Y-112405826D01*
X154874075Y-112532993D01*
X154939901Y-112647007D01*
X155032993Y-112740099D01*
X155147007Y-112805925D01*
X155274174Y-112840000D01*
X155405826Y-112840000D01*
X155532993Y-112805925D01*
X155647007Y-112740099D01*
X155740099Y-112647007D01*
X155805925Y-112532993D01*
X155840000Y-112405826D01*
X155840000Y-112274174D01*
X155805925Y-112147007D01*
X155740099Y-112032993D01*
X155647007Y-111939901D01*
X155532993Y-111874075D01*
X155405826Y-111840000D01*
X155274174Y-111840000D01*
X155147007Y-111874075D01*
X155032993Y-111939901D01*
X154939901Y-112032993D01*
X154874075Y-112147007D01*
X154840000Y-112274174D01*
X154840000Y-112405826D01*
X154567067Y-112405826D01*
X154632893Y-112340000D01*
X154099270Y-111806377D01*
X154091529Y-111807742D01*
X154048466Y-111807742D01*
X154040727Y-111806377D01*
X153507107Y-112339999D01*
X153507107Y-112340000D01*
X153300000Y-112340000D01*
X153300000Y-112274174D01*
X153265925Y-112147007D01*
X153200099Y-112032993D01*
X153107007Y-111939901D01*
X152992993Y-111874075D01*
X152865826Y-111840000D01*
X152734174Y-111840000D01*
X152607007Y-111874075D01*
X152492993Y-111939901D01*
X152399901Y-112032993D01*
X152334075Y-112147007D01*
X152300000Y-112274174D01*
X152300000Y-112405826D01*
X152027067Y-112405826D01*
X152092893Y-112340000D01*
X151559270Y-111806377D01*
X151551529Y-111807742D01*
X151508466Y-111807742D01*
X151500727Y-111806377D01*
X150967107Y-112339999D01*
X150967107Y-112340000D01*
X150760000Y-112340000D01*
X150760000Y-112274174D01*
X150725925Y-112147007D01*
X150660099Y-112032993D01*
X150567007Y-111939901D01*
X150452993Y-111874075D01*
X150325826Y-111840000D01*
X150194174Y-111840000D01*
X150067007Y-111874075D01*
X149952993Y-111939901D01*
X149859901Y-112032993D01*
X149794075Y-112147007D01*
X149760000Y-112274174D01*
X149760000Y-112405826D01*
X149487067Y-112405826D01*
X149552893Y-112340000D01*
X149019270Y-111806377D01*
X149011529Y-111807742D01*
X148968466Y-111807742D01*
X148960727Y-111806377D01*
X148427107Y-112339999D01*
X148427107Y-112340000D01*
X148220000Y-112340000D01*
X148220000Y-112274174D01*
X148185925Y-112147007D01*
X148120099Y-112032993D01*
X148027007Y-111939901D01*
X147912993Y-111874075D01*
X147785826Y-111840000D01*
X147654174Y-111840000D01*
X147527007Y-111874075D01*
X147412993Y-111939901D01*
X147319901Y-112032993D01*
X147254075Y-112147007D01*
X147220000Y-112274174D01*
X147220000Y-112405826D01*
X146947067Y-112405826D01*
X147012893Y-112340000D01*
X146479270Y-111806377D01*
X146471529Y-111807742D01*
X146428466Y-111807742D01*
X146420727Y-111806377D01*
X145887107Y-112339999D01*
X145887107Y-112340000D01*
X145680000Y-112340000D01*
X145680000Y-112274174D01*
X145645925Y-112147007D01*
X145580099Y-112032993D01*
X145487007Y-111939901D01*
X145372993Y-111874075D01*
X145245826Y-111840000D01*
X145114174Y-111840000D01*
X144987007Y-111874075D01*
X144872993Y-111939901D01*
X144779901Y-112032993D01*
X144714075Y-112147007D01*
X144680000Y-112274174D01*
X144680000Y-112405826D01*
X144407067Y-112405826D01*
X144472893Y-112340000D01*
X143939270Y-111806377D01*
X143931529Y-111807742D01*
X143888466Y-111807742D01*
X143880727Y-111806377D01*
X143347107Y-112339999D01*
X143347107Y-112340000D01*
X143140000Y-112340000D01*
X143140000Y-112274174D01*
X143105925Y-112147007D01*
X143040099Y-112032993D01*
X142947007Y-111939901D01*
X142832993Y-111874075D01*
X142705826Y-111840000D01*
X142574174Y-111840000D01*
X142447007Y-111874075D01*
X142332993Y-111939901D01*
X142239901Y-112032993D01*
X142174075Y-112147007D01*
X142140000Y-112274174D01*
X142140000Y-112405826D01*
X141867067Y-112405826D01*
X141932893Y-112340000D01*
X141399270Y-111806377D01*
X141391529Y-111807742D01*
X141348466Y-111807742D01*
X141340727Y-111806377D01*
X140807107Y-112339999D01*
X140807107Y-112340000D01*
X140600000Y-112340000D01*
X140600000Y-112274174D01*
X140565925Y-112147007D01*
X140500099Y-112032993D01*
X140407007Y-111939901D01*
X140292993Y-111874075D01*
X140165826Y-111840000D01*
X140034174Y-111840000D01*
X139907007Y-111874075D01*
X139792993Y-111939901D01*
X139699901Y-112032993D01*
X139634075Y-112147007D01*
X139600000Y-112274174D01*
X139600000Y-112405826D01*
X139327067Y-112405826D01*
X139392893Y-112340000D01*
X138859270Y-111806377D01*
X138851529Y-111807742D01*
X138808466Y-111807742D01*
X138800727Y-111806377D01*
X138267107Y-112339999D01*
X138267107Y-112340000D01*
X138060000Y-112340000D01*
X138060000Y-112274174D01*
X138025925Y-112147007D01*
X137960099Y-112032993D01*
X137867007Y-111939901D01*
X137752993Y-111874075D01*
X137625826Y-111840000D01*
X137494174Y-111840000D01*
X137367007Y-111874075D01*
X137252993Y-111939901D01*
X137159901Y-112032993D01*
X137094075Y-112147007D01*
X137060000Y-112274174D01*
X137060000Y-112405826D01*
X136918719Y-112405826D01*
X136313678Y-111800785D01*
X136267092Y-111795590D01*
X136212864Y-111751533D01*
X136191062Y-111685151D01*
X136191000Y-111681218D01*
X136191000Y-110592669D01*
X136210685Y-110525630D01*
X136263489Y-110479875D01*
X136332647Y-110469931D01*
X136396203Y-110498956D01*
X136416575Y-110521546D01*
X136521505Y-110671401D01*
X136688599Y-110838495D01*
X136882170Y-110974035D01*
X136949595Y-111005476D01*
X137002032Y-111051646D01*
X137011312Y-111084205D01*
X137560000Y-111632893D01*
X137560001Y-111632893D01*
X138106618Y-111086273D01*
X138108439Y-111069950D01*
X138152496Y-111015721D01*
X138170402Y-111005477D01*
X138237830Y-110974035D01*
X138431401Y-110838495D01*
X138598495Y-110671401D01*
X138728425Y-110485842D01*
X138783002Y-110442217D01*
X138852500Y-110435023D01*
X138914855Y-110466546D01*
X138931575Y-110485842D01*
X139061500Y-110671395D01*
X139061505Y-110671401D01*
X139228599Y-110838495D01*
X139422170Y-110974035D01*
X139489595Y-111005476D01*
X139542032Y-111051646D01*
X139551312Y-111084205D01*
X140100000Y-111632893D01*
X140100001Y-111632893D01*
X140646618Y-111086273D01*
X140648439Y-111069950D01*
X140692496Y-111015721D01*
X140710402Y-111005477D01*
X140777830Y-110974035D01*
X140971401Y-110838495D01*
X141138495Y-110671401D01*
X141268425Y-110485842D01*
X141323002Y-110442217D01*
X141392500Y-110435023D01*
X141454855Y-110466546D01*
X141471575Y-110485842D01*
X141601500Y-110671395D01*
X141601505Y-110671401D01*
X141768599Y-110838495D01*
X141962170Y-110974035D01*
X142029595Y-111005476D01*
X142082032Y-111051646D01*
X142091312Y-111084205D01*
X142640000Y-111632893D01*
X142640001Y-111632893D01*
X143186618Y-111086273D01*
X143188439Y-111069950D01*
X143232496Y-111015721D01*
X143250402Y-111005477D01*
X143317830Y-110974035D01*
X143511401Y-110838495D01*
X143678495Y-110671401D01*
X143808425Y-110485842D01*
X143863002Y-110442217D01*
X143932500Y-110435023D01*
X143994855Y-110466546D01*
X144011575Y-110485842D01*
X144141500Y-110671395D01*
X144141505Y-110671401D01*
X144308599Y-110838495D01*
X144502170Y-110974035D01*
X144569595Y-111005476D01*
X144622032Y-111051646D01*
X144631312Y-111084205D01*
X145180000Y-111632893D01*
X145180001Y-111632893D01*
X145726618Y-111086273D01*
X145728439Y-111069950D01*
X145772496Y-111015721D01*
X145790402Y-111005477D01*
X145857830Y-110974035D01*
X146051401Y-110838495D01*
X146218495Y-110671401D01*
X146348425Y-110485842D01*
X146403002Y-110442217D01*
X146472500Y-110435023D01*
X146534855Y-110466546D01*
X146551575Y-110485842D01*
X146681500Y-110671395D01*
X146681505Y-110671401D01*
X146848599Y-110838495D01*
X147042170Y-110974035D01*
X147109595Y-111005476D01*
X147162032Y-111051646D01*
X147171312Y-111084205D01*
X147720000Y-111632893D01*
X147720001Y-111632893D01*
X148266618Y-111086273D01*
X148268439Y-111069950D01*
X148312496Y-111015721D01*
X148330402Y-111005477D01*
X148397830Y-110974035D01*
X148591401Y-110838495D01*
X148758495Y-110671401D01*
X148888425Y-110485842D01*
X148943002Y-110442217D01*
X149012500Y-110435023D01*
X149074855Y-110466546D01*
X149091575Y-110485842D01*
X149221500Y-110671395D01*
X149221505Y-110671401D01*
X149388599Y-110838495D01*
X149582170Y-110974035D01*
X149649595Y-111005476D01*
X149702032Y-111051646D01*
X149711312Y-111084205D01*
X150260000Y-111632893D01*
X150260001Y-111632893D01*
X150806618Y-111086273D01*
X150808439Y-111069950D01*
X150852496Y-111015721D01*
X150870402Y-111005477D01*
X150937830Y-110974035D01*
X151131401Y-110838495D01*
X151298495Y-110671401D01*
X151428425Y-110485842D01*
X151483002Y-110442217D01*
X151552500Y-110435023D01*
X151614855Y-110466546D01*
X151631575Y-110485842D01*
X151761500Y-110671395D01*
X151761505Y-110671401D01*
X151928599Y-110838495D01*
X152122170Y-110974035D01*
X152189595Y-111005476D01*
X152242032Y-111051646D01*
X152251312Y-111084205D01*
X152800000Y-111632893D01*
X152800001Y-111632893D01*
X153346618Y-111086273D01*
X153348439Y-111069950D01*
X153392496Y-111015721D01*
X153410402Y-111005477D01*
X153477830Y-110974035D01*
X153671401Y-110838495D01*
X153838495Y-110671401D01*
X153968425Y-110485842D01*
X154023002Y-110442217D01*
X154092500Y-110435023D01*
X154154855Y-110466546D01*
X154171575Y-110485842D01*
X154301500Y-110671395D01*
X154301505Y-110671401D01*
X154468599Y-110838495D01*
X154662170Y-110974035D01*
X154729595Y-111005476D01*
X154782032Y-111051646D01*
X154791312Y-111084205D01*
X155340000Y-111632893D01*
X155340001Y-111632893D01*
X155886618Y-111086273D01*
X155888439Y-111069950D01*
X155932496Y-111015721D01*
X155950402Y-111005477D01*
X156017830Y-110974035D01*
X156211401Y-110838495D01*
X156378495Y-110671401D01*
X156514035Y-110477830D01*
X156613903Y-110263663D01*
X156675063Y-110035408D01*
X156695659Y-109800000D01*
X156675063Y-109564592D01*
X156613903Y-109336337D01*
X156514035Y-109122171D01*
X156508425Y-109114158D01*
X156378494Y-108928597D01*
X156211402Y-108761506D01*
X156211395Y-108761501D01*
X156017834Y-108625967D01*
X156017830Y-108625965D01*
X155899421Y-108570750D01*
X155803663Y-108526097D01*
X155803659Y-108526096D01*
X155803655Y-108526094D01*
X155575413Y-108464938D01*
X155575403Y-108464936D01*
X155340001Y-108444341D01*
X155339999Y-108444341D01*
X155104596Y-108464936D01*
X155104586Y-108464938D01*
X154876344Y-108526094D01*
X154876335Y-108526098D01*
X154662170Y-108625965D01*
X154468597Y-108761505D01*
X154301505Y-108928597D01*
X154171575Y-109114158D01*
X154116998Y-109157783D01*
X154047500Y-109164977D01*
X153985145Y-109133454D01*
X153968425Y-109114158D01*
X153838494Y-108928597D01*
X153671402Y-108761506D01*
X153671395Y-108761501D01*
X153477834Y-108625967D01*
X153477830Y-108625965D01*
X153359421Y-108570750D01*
X153263663Y-108526097D01*
X153263659Y-108526096D01*
X153263655Y-108526094D01*
X153035413Y-108464938D01*
X153035403Y-108464936D01*
X152800001Y-108444341D01*
X152799999Y-108444341D01*
X152564596Y-108464936D01*
X152564586Y-108464938D01*
X152336344Y-108526094D01*
X152336335Y-108526098D01*
X152122170Y-108625965D01*
X151928597Y-108761505D01*
X151761505Y-108928597D01*
X151631575Y-109114158D01*
X151576998Y-109157783D01*
X151507500Y-109164977D01*
X151445145Y-109133454D01*
X151428425Y-109114158D01*
X151298494Y-108928597D01*
X151131402Y-108761506D01*
X151131395Y-108761501D01*
X150937834Y-108625967D01*
X150937830Y-108625965D01*
X150819421Y-108570750D01*
X150723663Y-108526097D01*
X150723659Y-108526096D01*
X150723655Y-108526094D01*
X150495413Y-108464938D01*
X150495403Y-108464936D01*
X150260001Y-108444341D01*
X150259999Y-108444341D01*
X150024596Y-108464936D01*
X150024586Y-108464938D01*
X149796344Y-108526094D01*
X149796335Y-108526098D01*
X149582170Y-108625965D01*
X149388597Y-108761505D01*
X149221505Y-108928597D01*
X149091575Y-109114158D01*
X149036998Y-109157783D01*
X148967500Y-109164977D01*
X148905145Y-109133454D01*
X148888425Y-109114158D01*
X148758494Y-108928597D01*
X148591402Y-108761506D01*
X148591395Y-108761501D01*
X148397834Y-108625967D01*
X148397830Y-108625965D01*
X148279421Y-108570750D01*
X148183663Y-108526097D01*
X148183659Y-108526096D01*
X148183655Y-108526094D01*
X147955413Y-108464938D01*
X147955403Y-108464936D01*
X147720001Y-108444341D01*
X147719999Y-108444341D01*
X147484596Y-108464936D01*
X147484586Y-108464938D01*
X147256344Y-108526094D01*
X147256335Y-108526098D01*
X147042170Y-108625965D01*
X146848597Y-108761505D01*
X146681505Y-108928597D01*
X146551575Y-109114158D01*
X146496998Y-109157783D01*
X146427500Y-109164977D01*
X146365145Y-109133454D01*
X146348425Y-109114158D01*
X146218494Y-108928597D01*
X146051402Y-108761506D01*
X146051395Y-108761501D01*
X145857834Y-108625967D01*
X145857830Y-108625965D01*
X145739421Y-108570750D01*
X145643663Y-108526097D01*
X145643659Y-108526096D01*
X145643655Y-108526094D01*
X145415413Y-108464938D01*
X145415403Y-108464936D01*
X145180001Y-108444341D01*
X145179999Y-108444341D01*
X144944596Y-108464936D01*
X144944586Y-108464938D01*
X144716344Y-108526094D01*
X144716335Y-108526098D01*
X144502170Y-108625965D01*
X144308597Y-108761505D01*
X144141505Y-108928597D01*
X144011575Y-109114158D01*
X143956998Y-109157783D01*
X143887500Y-109164977D01*
X143825145Y-109133454D01*
X143808425Y-109114158D01*
X143678494Y-108928597D01*
X143511402Y-108761506D01*
X143511395Y-108761501D01*
X143317834Y-108625967D01*
X143317830Y-108625965D01*
X143199421Y-108570750D01*
X143103663Y-108526097D01*
X143103659Y-108526096D01*
X143103655Y-108526094D01*
X142875413Y-108464938D01*
X142875403Y-108464936D01*
X142640001Y-108444341D01*
X142639999Y-108444341D01*
X142404596Y-108464936D01*
X142404586Y-108464938D01*
X142176344Y-108526094D01*
X142176335Y-108526098D01*
X141962170Y-108625965D01*
X141768597Y-108761505D01*
X141601505Y-108928597D01*
X141471575Y-109114158D01*
X141416998Y-109157783D01*
X141347500Y-109164977D01*
X141285145Y-109133454D01*
X141268425Y-109114158D01*
X141138494Y-108928597D01*
X140971402Y-108761506D01*
X140971395Y-108761501D01*
X140777834Y-108625967D01*
X140777830Y-108625965D01*
X140659421Y-108570750D01*
X140563663Y-108526097D01*
X140563659Y-108526096D01*
X140563655Y-108526094D01*
X140335413Y-108464938D01*
X140335403Y-108464936D01*
X140100001Y-108444341D01*
X140099999Y-108444341D01*
X139864596Y-108464936D01*
X139864586Y-108464938D01*
X139636344Y-108526094D01*
X139636335Y-108526098D01*
X139422170Y-108625965D01*
X139228597Y-108761505D01*
X139061505Y-108928597D01*
X138931575Y-109114158D01*
X138876998Y-109157783D01*
X138807500Y-109164977D01*
X138745145Y-109133454D01*
X138728425Y-109114158D01*
X138598494Y-108928597D01*
X138431402Y-108761506D01*
X138431395Y-108761501D01*
X138237834Y-108625967D01*
X138237830Y-108625965D01*
X138119421Y-108570750D01*
X138023663Y-108526097D01*
X138023659Y-108526096D01*
X138023655Y-108526094D01*
X137795413Y-108464938D01*
X137795403Y-108464936D01*
X137560001Y-108444341D01*
X137559999Y-108444341D01*
X137324596Y-108464936D01*
X137324586Y-108464938D01*
X137096344Y-108526094D01*
X137096335Y-108526098D01*
X136882170Y-108625965D01*
X136688597Y-108761505D01*
X136521505Y-108928597D01*
X136416575Y-109078454D01*
X136361998Y-109122079D01*
X136292500Y-109129272D01*
X136230145Y-109097750D01*
X136194731Y-109037520D01*
X136191000Y-109007331D01*
X136191000Y-105587583D01*
X136210685Y-105520544D01*
X136227319Y-105499902D01*
X138749902Y-102977319D01*
X138811225Y-102943834D01*
X138837583Y-102941000D01*
X141559387Y-102941000D01*
X141625359Y-102960006D01*
X141649776Y-102975348D01*
X141650478Y-102975789D01*
X141820745Y-103035368D01*
X141820750Y-103035369D01*
X141999996Y-103055565D01*
X142000000Y-103055565D01*
X142000004Y-103055565D01*
X142179249Y-103035369D01*
X142179252Y-103035368D01*
X142179255Y-103035368D01*
X142349522Y-102975789D01*
X142502262Y-102879816D01*
X142629816Y-102752262D01*
X142725789Y-102599522D01*
X142785368Y-102429255D01*
X142785369Y-102429249D01*
X142805565Y-102250003D01*
X142805565Y-102249996D01*
X142785369Y-102070750D01*
X142785368Y-102070745D01*
X142748237Y-101964630D01*
X142725789Y-101900478D01*
X142629816Y-101747738D01*
X142502262Y-101620184D01*
X142447152Y-101585556D01*
X142349523Y-101524211D01*
X142179254Y-101464631D01*
X142179249Y-101464630D01*
X142000004Y-101444435D01*
X141999996Y-101444435D01*
X141820750Y-101464630D01*
X141820745Y-101464631D01*
X141650476Y-101524211D01*
X141625359Y-101539994D01*
X141559387Y-101559000D01*
X138431940Y-101559000D01*
X138298448Y-101585553D01*
X138298438Y-101585556D01*
X138172695Y-101637640D01*
X138172682Y-101637647D01*
X138059514Y-101713264D01*
X138059510Y-101713267D01*
X136402681Y-103370097D01*
X136341358Y-103403582D01*
X136271666Y-103398598D01*
X136215733Y-103356726D01*
X136191316Y-103291262D01*
X136191000Y-103282416D01*
X136191000Y-103190612D01*
X136210007Y-103124639D01*
X136225788Y-103099524D01*
X136248237Y-103035368D01*
X136285368Y-102929255D01*
X136285440Y-102928619D01*
X136305565Y-102750003D01*
X136305565Y-102749996D01*
X136285369Y-102570750D01*
X136285368Y-102570745D01*
X136243660Y-102451551D01*
X136225789Y-102400478D01*
X136129816Y-102247738D01*
X136002262Y-102120184D01*
X135849523Y-102024211D01*
X135679254Y-101964631D01*
X135679249Y-101964630D01*
X135500004Y-101944435D01*
X135499996Y-101944435D01*
X135320750Y-101964630D01*
X135320745Y-101964631D01*
X135150476Y-102024211D01*
X134997737Y-102120184D01*
X134870184Y-102247737D01*
X134774211Y-102400476D01*
X134714631Y-102570745D01*
X134714630Y-102570750D01*
X134694435Y-102749996D01*
X134694435Y-102750003D01*
X134714630Y-102929249D01*
X134714631Y-102929254D01*
X134774211Y-103099524D01*
X134789993Y-103124639D01*
X134809000Y-103190612D01*
X134809000Y-104840494D01*
X134789315Y-104907533D01*
X134736511Y-104953288D01*
X134671117Y-104963714D01*
X134500004Y-104944435D01*
X134499996Y-104944435D01*
X134320750Y-104964630D01*
X134320745Y-104964631D01*
X134150476Y-105024211D01*
X133997737Y-105120184D01*
X133870184Y-105247737D01*
X133774211Y-105400476D01*
X133714631Y-105570745D01*
X133714630Y-105570750D01*
X133694435Y-105749996D01*
X133694435Y-105750003D01*
X133714630Y-105929249D01*
X133714631Y-105929254D01*
X133774211Y-106099524D01*
X133789993Y-106124639D01*
X133809000Y-106190612D01*
X133809000Y-113035500D01*
X133789315Y-113102539D01*
X133736511Y-113148294D01*
X133685000Y-113159500D01*
X114929500Y-113159500D01*
X114862461Y-113139815D01*
X114816706Y-113087011D01*
X114805500Y-113035500D01*
X114805500Y-80800000D01*
X115310000Y-80800000D01*
X115310000Y-81407265D01*
X115346689Y-81638909D01*
X115419164Y-81861965D01*
X115525638Y-82070930D01*
X115663494Y-82260672D01*
X115829327Y-82426505D01*
X116019069Y-82564361D01*
X116228038Y-82670837D01*
X116228044Y-82670839D01*
X116299999Y-82694218D01*
X116300000Y-82694217D01*
X116300000Y-80800000D01*
X115310000Y-80800000D01*
X114805500Y-80800000D01*
X114805500Y-80365004D01*
X116140000Y-80365004D01*
X116165364Y-80492515D01*
X116215116Y-80612627D01*
X116287345Y-80720725D01*
X116379275Y-80812655D01*
X116487373Y-80884884D01*
X116607485Y-80934636D01*
X116734996Y-80960000D01*
X116865004Y-80960000D01*
X116992515Y-80934636D01*
X117112627Y-80884884D01*
X117220725Y-80812655D01*
X117233380Y-80800000D01*
X117300000Y-80800000D01*
X117300000Y-82694218D01*
X117371955Y-82670839D01*
X117371961Y-82670837D01*
X117580930Y-82564361D01*
X117770672Y-82426505D01*
X117936505Y-82260672D01*
X118074361Y-82070930D01*
X118180835Y-81861965D01*
X118253310Y-81638909D01*
X118290000Y-81407265D01*
X118290000Y-80800000D01*
X117300000Y-80800000D01*
X117233380Y-80800000D01*
X117312655Y-80720725D01*
X117384884Y-80612627D01*
X117434636Y-80492515D01*
X117460000Y-80365004D01*
X117460000Y-80234996D01*
X117434636Y-80107485D01*
X117384884Y-79987373D01*
X117312655Y-79879275D01*
X117220725Y-79787345D01*
X117112627Y-79715116D01*
X116992515Y-79665364D01*
X116865004Y-79640000D01*
X116734996Y-79640000D01*
X116607485Y-79665364D01*
X116487373Y-79715116D01*
X116379275Y-79787345D01*
X116287345Y-79879275D01*
X116215116Y-79987373D01*
X116165364Y-80107485D01*
X116140000Y-80234996D01*
X116140000Y-80365004D01*
X114805500Y-80365004D01*
X114805500Y-79800000D01*
X115310000Y-79800000D01*
X116300000Y-79800000D01*
X116300000Y-77905781D01*
X117300000Y-77905781D01*
X117300000Y-79800000D01*
X118290000Y-79800000D01*
X118290000Y-79192734D01*
X118253310Y-78961090D01*
X118180835Y-78738034D01*
X118074361Y-78529069D01*
X117936505Y-78339327D01*
X117770672Y-78173494D01*
X117580930Y-78035638D01*
X117371965Y-77929164D01*
X117300000Y-77905781D01*
X116300000Y-77905781D01*
X116228034Y-77929164D01*
X116019069Y-78035638D01*
X115829327Y-78173494D01*
X115663494Y-78339327D01*
X115525638Y-78529069D01*
X115419164Y-78738034D01*
X115346689Y-78961090D01*
X115310000Y-79192734D01*
X115310000Y-79800000D01*
X114805500Y-79800000D01*
X114805500Y-73124500D01*
X114825185Y-73057461D01*
X114877989Y-73011706D01*
X114929500Y-73000500D01*
X123195500Y-73000500D01*
X123262539Y-73020185D01*
G37*
%TD.AperFunction*%
%TD*%
%TA.AperFunction,Conductor*%
%TO.N,GND*%
G36*
X114243039Y-73020185D02*
G01*
X114288794Y-73072989D01*
X114300000Y-73124500D01*
X114300000Y-113665000D01*
X133685000Y-113665000D01*
X133752039Y-113684685D01*
X133797794Y-113737489D01*
X133809000Y-113789000D01*
X133809000Y-116681943D01*
X133809000Y-116818057D01*
X133809000Y-116818059D01*
X133808999Y-116818059D01*
X133835553Y-116951551D01*
X133835556Y-116951561D01*
X133887642Y-117077309D01*
X133887644Y-117077312D01*
X133963263Y-117190485D01*
X133963269Y-117190492D01*
X134701398Y-117928619D01*
X134730758Y-117975345D01*
X134774209Y-118099519D01*
X134774211Y-118099522D01*
X134870184Y-118252262D01*
X134997738Y-118379816D01*
X135150478Y-118475789D01*
X135320745Y-118535368D01*
X135320750Y-118535369D01*
X135499996Y-118555565D01*
X135500000Y-118555565D01*
X135500004Y-118555565D01*
X135679249Y-118535369D01*
X135679252Y-118535368D01*
X135679255Y-118535368D01*
X135849522Y-118475789D01*
X136002262Y-118379816D01*
X136129816Y-118252262D01*
X136225789Y-118099522D01*
X136285368Y-117929255D01*
X136305565Y-117750000D01*
X136285368Y-117570745D01*
X136225789Y-117400478D01*
X136129816Y-117247738D01*
X136002262Y-117120184D01*
X135849522Y-117024211D01*
X135849519Y-117024209D01*
X135725345Y-116980758D01*
X135678619Y-116951398D01*
X135227319Y-116500097D01*
X135193834Y-116438774D01*
X135191000Y-116412416D01*
X135191000Y-115380000D01*
X136210000Y-115380000D01*
X136210000Y-115777844D01*
X136216401Y-115837372D01*
X136216403Y-115837379D01*
X136266645Y-115972086D01*
X136266649Y-115972093D01*
X136352809Y-116087187D01*
X136352812Y-116087190D01*
X136467906Y-116173350D01*
X136467913Y-116173354D01*
X136602620Y-116223596D01*
X136602627Y-116223598D01*
X136662155Y-116229999D01*
X136662172Y-116230000D01*
X137060000Y-116230000D01*
X137060000Y-115380000D01*
X136210000Y-115380000D01*
X135191000Y-115380000D01*
X135191000Y-113789000D01*
X135210685Y-113721961D01*
X135263489Y-113676206D01*
X135315000Y-113665000D01*
X136133896Y-113665000D01*
X136200935Y-113684685D01*
X136246690Y-113737489D01*
X136256634Y-113806647D01*
X136250078Y-113832333D01*
X136216403Y-113922620D01*
X136216401Y-113922627D01*
X136210000Y-113982155D01*
X136210000Y-114380000D01*
X137494174Y-114380000D01*
X137367007Y-114414075D01*
X137252993Y-114479901D01*
X137159901Y-114572993D01*
X137094075Y-114687007D01*
X137060000Y-114814174D01*
X137060000Y-114945826D01*
X137094075Y-115072993D01*
X137159901Y-115187007D01*
X137252993Y-115280099D01*
X137367007Y-115345925D01*
X137494174Y-115380000D01*
X137625826Y-115380000D01*
X138060000Y-115380000D01*
X138060000Y-116230000D01*
X138457828Y-116230000D01*
X138457844Y-116229999D01*
X138517372Y-116223598D01*
X138517379Y-116223596D01*
X138652086Y-116173354D01*
X138652089Y-116173352D01*
X138755688Y-116095798D01*
X138821152Y-116071380D01*
X138889426Y-116086231D01*
X138904312Y-116095798D01*
X139007910Y-116173352D01*
X139007913Y-116173354D01*
X139142620Y-116223596D01*
X139142627Y-116223598D01*
X139202155Y-116229999D01*
X139202172Y-116230000D01*
X139600000Y-116230000D01*
X139600000Y-115380000D01*
X138060000Y-115380000D01*
X137625826Y-115380000D01*
X137752993Y-115345925D01*
X137867007Y-115280099D01*
X137960099Y-115187007D01*
X138025925Y-115072993D01*
X138060000Y-114945826D01*
X138060000Y-114814174D01*
X138025925Y-114687007D01*
X137960099Y-114572993D01*
X137867007Y-114479901D01*
X137752993Y-114414075D01*
X137625826Y-114380000D01*
X140034174Y-114380000D01*
X139907007Y-114414075D01*
X139792993Y-114479901D01*
X139699901Y-114572993D01*
X139634075Y-114687007D01*
X139600000Y-114814174D01*
X139600000Y-114945826D01*
X139634075Y-115072993D01*
X139699901Y-115187007D01*
X139792993Y-115280099D01*
X139907007Y-115345925D01*
X140034174Y-115380000D01*
X140165826Y-115380000D01*
X140600000Y-115380000D01*
X140600000Y-116230000D01*
X140997828Y-116230000D01*
X140997844Y-116229999D01*
X141057372Y-116223598D01*
X141057379Y-116223596D01*
X141192086Y-116173354D01*
X141192089Y-116173352D01*
X141295688Y-116095798D01*
X141361152Y-116071380D01*
X141429426Y-116086231D01*
X141444312Y-116095798D01*
X141547910Y-116173352D01*
X141547913Y-116173354D01*
X141682620Y-116223596D01*
X141682627Y-116223598D01*
X141742155Y-116229999D01*
X141742172Y-116230000D01*
X142140000Y-116230000D01*
X142140000Y-115380000D01*
X140600000Y-115380000D01*
X140165826Y-115380000D01*
X140292993Y-115345925D01*
X140407007Y-115280099D01*
X140500099Y-115187007D01*
X140565925Y-115072993D01*
X140600000Y-114945826D01*
X140600000Y-114814174D01*
X140565925Y-114687007D01*
X140500099Y-114572993D01*
X140407007Y-114479901D01*
X140292993Y-114414075D01*
X140165826Y-114380000D01*
X142574174Y-114380000D01*
X142447007Y-114414075D01*
X142332993Y-114479901D01*
X142239901Y-114572993D01*
X142174075Y-114687007D01*
X142140000Y-114814174D01*
X142140000Y-114945826D01*
X142174075Y-115072993D01*
X142239901Y-115187007D01*
X142332993Y-115280099D01*
X142447007Y-115345925D01*
X142574174Y-115380000D01*
X142705826Y-115380000D01*
X143140000Y-115380000D01*
X143140000Y-116230000D01*
X143537828Y-116230000D01*
X143537844Y-116229999D01*
X143597372Y-116223598D01*
X143597379Y-116223596D01*
X143732086Y-116173354D01*
X143732089Y-116173352D01*
X143835688Y-116095798D01*
X143901152Y-116071380D01*
X143969426Y-116086231D01*
X143984312Y-116095798D01*
X144087910Y-116173352D01*
X144087913Y-116173354D01*
X144222620Y-116223596D01*
X144222627Y-116223598D01*
X144282155Y-116229999D01*
X144282172Y-116230000D01*
X144680000Y-116230000D01*
X144680000Y-115380000D01*
X143140000Y-115380000D01*
X142705826Y-115380000D01*
X142832993Y-115345925D01*
X142947007Y-115280099D01*
X143040099Y-115187007D01*
X143105925Y-115072993D01*
X143140000Y-114945826D01*
X143140000Y-114814174D01*
X143105925Y-114687007D01*
X143040099Y-114572993D01*
X142947007Y-114479901D01*
X142832993Y-114414075D01*
X142705826Y-114380000D01*
X145114174Y-114380000D01*
X144987007Y-114414075D01*
X144872993Y-114479901D01*
X144779901Y-114572993D01*
X144714075Y-114687007D01*
X144680000Y-114814174D01*
X144680000Y-114945826D01*
X144714075Y-115072993D01*
X144779901Y-115187007D01*
X144872993Y-115280099D01*
X144987007Y-115345925D01*
X145114174Y-115380000D01*
X145245826Y-115380000D01*
X145680000Y-115380000D01*
X145680000Y-116230000D01*
X146077828Y-116230000D01*
X146077844Y-116229999D01*
X146137372Y-116223598D01*
X146137379Y-116223596D01*
X146272086Y-116173354D01*
X146272089Y-116173352D01*
X146375688Y-116095798D01*
X146441152Y-116071380D01*
X146509426Y-116086231D01*
X146524312Y-116095798D01*
X146627910Y-116173352D01*
X146627913Y-116173354D01*
X146762620Y-116223596D01*
X146762627Y-116223598D01*
X146822155Y-116229999D01*
X146822172Y-116230000D01*
X147220000Y-116230000D01*
X147220000Y-115380000D01*
X145680000Y-115380000D01*
X145245826Y-115380000D01*
X145372993Y-115345925D01*
X145487007Y-115280099D01*
X145580099Y-115187007D01*
X145645925Y-115072993D01*
X145680000Y-114945826D01*
X145680000Y-114814174D01*
X145645925Y-114687007D01*
X145580099Y-114572993D01*
X145487007Y-114479901D01*
X145372993Y-114414075D01*
X145245826Y-114380000D01*
X147654174Y-114380000D01*
X147527007Y-114414075D01*
X147412993Y-114479901D01*
X147319901Y-114572993D01*
X147254075Y-114687007D01*
X147220000Y-114814174D01*
X147220000Y-114945826D01*
X147254075Y-115072993D01*
X147319901Y-115187007D01*
X147412993Y-115280099D01*
X147527007Y-115345925D01*
X147654174Y-115380000D01*
X147785826Y-115380000D01*
X148220000Y-115380000D01*
X148220000Y-116230000D01*
X148617828Y-116230000D01*
X148617844Y-116229999D01*
X148677372Y-116223598D01*
X148677379Y-116223596D01*
X148812086Y-116173354D01*
X148812089Y-116173352D01*
X148915688Y-116095798D01*
X148981152Y-116071380D01*
X149049426Y-116086231D01*
X149064312Y-116095798D01*
X149167910Y-116173352D01*
X149167913Y-116173354D01*
X149302620Y-116223596D01*
X149302627Y-116223598D01*
X149362155Y-116229999D01*
X149362172Y-116230000D01*
X149760000Y-116230000D01*
X149760000Y-115380000D01*
X148220000Y-115380000D01*
X147785826Y-115380000D01*
X147912993Y-115345925D01*
X148027007Y-115280099D01*
X148120099Y-115187007D01*
X148185925Y-115072993D01*
X148220000Y-114945826D01*
X148220000Y-114814174D01*
X148185925Y-114687007D01*
X148120099Y-114572993D01*
X148027007Y-114479901D01*
X147912993Y-114414075D01*
X147785826Y-114380000D01*
X150194174Y-114380000D01*
X150067007Y-114414075D01*
X149952993Y-114479901D01*
X149859901Y-114572993D01*
X149794075Y-114687007D01*
X149760000Y-114814174D01*
X149760000Y-114945826D01*
X149794075Y-115072993D01*
X149859901Y-115187007D01*
X149952993Y-115280099D01*
X150067007Y-115345925D01*
X150194174Y-115380000D01*
X150325826Y-115380000D01*
X150760000Y-115380000D01*
X150760000Y-116230000D01*
X151157828Y-116230000D01*
X151157844Y-116229999D01*
X151217372Y-116223598D01*
X151217379Y-116223596D01*
X151352086Y-116173354D01*
X151352089Y-116173352D01*
X151455688Y-116095798D01*
X151521152Y-116071380D01*
X151589426Y-116086231D01*
X151604312Y-116095798D01*
X151707910Y-116173352D01*
X151707913Y-116173354D01*
X151842620Y-116223596D01*
X151842627Y-116223598D01*
X151902155Y-116229999D01*
X151902172Y-116230000D01*
X152300000Y-116230000D01*
X152300000Y-115380000D01*
X150760000Y-115380000D01*
X150325826Y-115380000D01*
X150452993Y-115345925D01*
X150567007Y-115280099D01*
X150660099Y-115187007D01*
X150725925Y-115072993D01*
X150760000Y-114945826D01*
X150760000Y-114814174D01*
X150725925Y-114687007D01*
X150660099Y-114572993D01*
X150567007Y-114479901D01*
X150452993Y-114414075D01*
X150325826Y-114380000D01*
X152734174Y-114380000D01*
X152607007Y-114414075D01*
X152492993Y-114479901D01*
X152399901Y-114572993D01*
X152334075Y-114687007D01*
X152300000Y-114814174D01*
X152300000Y-114945826D01*
X152334075Y-115072993D01*
X152399901Y-115187007D01*
X152492993Y-115280099D01*
X152607007Y-115345925D01*
X152734174Y-115380000D01*
X152865826Y-115380000D01*
X153300000Y-115380000D01*
X153300000Y-116230000D01*
X153697828Y-116230000D01*
X153697844Y-116229999D01*
X153757372Y-116223598D01*
X153757379Y-116223596D01*
X153892086Y-116173354D01*
X153892089Y-116173352D01*
X153995688Y-116095798D01*
X154061152Y-116071380D01*
X154129426Y-116086231D01*
X154144312Y-116095798D01*
X154247910Y-116173352D01*
X154247913Y-116173354D01*
X154382620Y-116223596D01*
X154382627Y-116223598D01*
X154442155Y-116229999D01*
X154442172Y-116230000D01*
X154840000Y-116230000D01*
X154840000Y-115380000D01*
X153300000Y-115380000D01*
X152865826Y-115380000D01*
X152992993Y-115345925D01*
X153107007Y-115280099D01*
X153200099Y-115187007D01*
X153265925Y-115072993D01*
X153300000Y-114945826D01*
X153300000Y-114814174D01*
X153265925Y-114687007D01*
X153200099Y-114572993D01*
X153107007Y-114479901D01*
X152992993Y-114414075D01*
X152865826Y-114380000D01*
X155274174Y-114380000D01*
X155147007Y-114414075D01*
X155032993Y-114479901D01*
X154939901Y-114572993D01*
X154874075Y-114687007D01*
X154840000Y-114814174D01*
X154840000Y-114945826D01*
X154874075Y-115072993D01*
X154939901Y-115187007D01*
X155032993Y-115280099D01*
X155147007Y-115345925D01*
X155274174Y-115380000D01*
X155405826Y-115380000D01*
X155840000Y-115380000D01*
X155840000Y-116230000D01*
X156237828Y-116230000D01*
X156237844Y-116229999D01*
X156297372Y-116223598D01*
X156297379Y-116223596D01*
X156432086Y-116173354D01*
X156432093Y-116173350D01*
X156547187Y-116087190D01*
X156547190Y-116087187D01*
X156633350Y-115972093D01*
X156633354Y-115972086D01*
X156683596Y-115837379D01*
X156683598Y-115837372D01*
X156689999Y-115777844D01*
X156690000Y-115777827D01*
X156690000Y-115380000D01*
X155840000Y-115380000D01*
X155405826Y-115380000D01*
X155532993Y-115345925D01*
X155647007Y-115280099D01*
X155740099Y-115187007D01*
X155805925Y-115072993D01*
X155840000Y-114945826D01*
X155840000Y-114814174D01*
X155805925Y-114687007D01*
X155740099Y-114572993D01*
X155647007Y-114479901D01*
X155532993Y-114414075D01*
X155405826Y-114380000D01*
X156690000Y-114380000D01*
X156690000Y-113982172D01*
X156689999Y-113982155D01*
X156683598Y-113922627D01*
X156683596Y-113922620D01*
X156649922Y-113832333D01*
X156644938Y-113762641D01*
X156678423Y-113701318D01*
X156739747Y-113667834D01*
X156766104Y-113665000D01*
X165735000Y-113665000D01*
X165735000Y-99815000D01*
X165754685Y-99747961D01*
X165807489Y-99702206D01*
X165859000Y-99691000D01*
X167559387Y-99691000D01*
X167625359Y-99710006D01*
X167650476Y-99725788D01*
X167650478Y-99725789D01*
X167713842Y-99747961D01*
X167820745Y-99785368D01*
X167820750Y-99785369D01*
X167999996Y-99805565D01*
X168000000Y-99805565D01*
X168000004Y-99805565D01*
X168179249Y-99785369D01*
X168179252Y-99785368D01*
X168179255Y-99785368D01*
X168349522Y-99725789D01*
X168502262Y-99629816D01*
X168629816Y-99502262D01*
X168725789Y-99349522D01*
X168785368Y-99179255D01*
X168805565Y-99000000D01*
X168805565Y-98999996D01*
X168786286Y-98828883D01*
X168798341Y-98760061D01*
X168845690Y-98708682D01*
X168909506Y-98691000D01*
X170818060Y-98691000D01*
X170907870Y-98673134D01*
X170951557Y-98664445D01*
X171077311Y-98612356D01*
X171106007Y-98593182D01*
X171190487Y-98536735D01*
X172178622Y-97548597D01*
X172225346Y-97519239D01*
X172349522Y-97475789D01*
X172502262Y-97379816D01*
X172629816Y-97252262D01*
X172725789Y-97099522D01*
X172785368Y-96929255D01*
X172792024Y-96870184D01*
X172805565Y-96750003D01*
X172805565Y-96749996D01*
X172785369Y-96570750D01*
X172785368Y-96570745D01*
X172725788Y-96400476D01*
X172629815Y-96247737D01*
X172502262Y-96120184D01*
X172349523Y-96024211D01*
X172179254Y-95964631D01*
X172179249Y-95964630D01*
X172000004Y-95944435D01*
X171999996Y-95944435D01*
X171820750Y-95964630D01*
X171820745Y-95964631D01*
X171650476Y-96024211D01*
X171497737Y-96120184D01*
X171370184Y-96247737D01*
X171274212Y-96400475D01*
X171274210Y-96400479D01*
X171230760Y-96524651D01*
X171201400Y-96571377D01*
X170500097Y-97272681D01*
X170438774Y-97306166D01*
X170412416Y-97309000D01*
X165859000Y-97309000D01*
X165791961Y-97289315D01*
X165746206Y-97236511D01*
X165735000Y-97185000D01*
X165735000Y-89395000D01*
X170839341Y-89395000D01*
X170859936Y-89630403D01*
X170859938Y-89630413D01*
X170921094Y-89858655D01*
X170921096Y-89858659D01*
X170921097Y-89858663D01*
X170987004Y-90000000D01*
X171020965Y-90072830D01*
X171020967Y-90072834D01*
X171129281Y-90227521D01*
X171156505Y-90266401D01*
X171323599Y-90433495D01*
X171400135Y-90487086D01*
X171517165Y-90569032D01*
X171517167Y-90569033D01*
X171517170Y-90569035D01*
X171731337Y-90668903D01*
X171959592Y-90730063D01*
X172130319Y-90745000D01*
X172194999Y-90750659D01*
X172195000Y-90750659D01*
X172195001Y-90750659D01*
X172259681Y-90745000D01*
X172430408Y-90730063D01*
X172658663Y-90668903D01*
X172872830Y-90569035D01*
X173066401Y-90433495D01*
X173233495Y-90266401D01*
X173363425Y-90080842D01*
X173418002Y-90037217D01*
X173487500Y-90030023D01*
X173549855Y-90061546D01*
X173566575Y-90080842D01*
X173696500Y-90266395D01*
X173696505Y-90266401D01*
X173863599Y-90433495D01*
X173940135Y-90487086D01*
X174057165Y-90569032D01*
X174057167Y-90569033D01*
X174057170Y-90569035D01*
X174271337Y-90668903D01*
X174499592Y-90730063D01*
X174670319Y-90745000D01*
X174734999Y-90750659D01*
X174735000Y-90750659D01*
X174735001Y-90750659D01*
X174799681Y-90745000D01*
X174970408Y-90730063D01*
X175198663Y-90668903D01*
X175412830Y-90569035D01*
X175606401Y-90433495D01*
X175728717Y-90311178D01*
X175790036Y-90277696D01*
X175859728Y-90282680D01*
X175915662Y-90324551D01*
X175932577Y-90355528D01*
X175981646Y-90487088D01*
X175981649Y-90487093D01*
X176067809Y-90602187D01*
X176067812Y-90602190D01*
X176182906Y-90688350D01*
X176182913Y-90688354D01*
X176317620Y-90738596D01*
X176317627Y-90738598D01*
X176377155Y-90744999D01*
X176377172Y-90745000D01*
X176775000Y-90745000D01*
X176775000Y-89460826D01*
X176809075Y-89587993D01*
X176874901Y-89702007D01*
X176967993Y-89795099D01*
X177082007Y-89860925D01*
X177209174Y-89895000D01*
X177340826Y-89895000D01*
X177775000Y-89895000D01*
X177775000Y-90745000D01*
X178172828Y-90745000D01*
X178172844Y-90744999D01*
X178232372Y-90738598D01*
X178232379Y-90738596D01*
X178367086Y-90688354D01*
X178367093Y-90688350D01*
X178482187Y-90602190D01*
X178482190Y-90602187D01*
X178568350Y-90487093D01*
X178568354Y-90487086D01*
X178618596Y-90352379D01*
X178618598Y-90352372D01*
X178624999Y-90292844D01*
X178625000Y-90292827D01*
X178625000Y-89895000D01*
X177775000Y-89895000D01*
X177340826Y-89895000D01*
X177467993Y-89860925D01*
X177582007Y-89795099D01*
X177675099Y-89702007D01*
X177740925Y-89587993D01*
X177775000Y-89460826D01*
X177775000Y-89329174D01*
X177740925Y-89202007D01*
X177675099Y-89087993D01*
X177582007Y-88994901D01*
X177467993Y-88929075D01*
X177340826Y-88895000D01*
X177209174Y-88895000D01*
X177082007Y-88929075D01*
X176967993Y-88994901D01*
X176874901Y-89087993D01*
X176809075Y-89202007D01*
X176775000Y-89329174D01*
X176775000Y-88045000D01*
X177775000Y-88045000D01*
X177775000Y-88895000D01*
X178625000Y-88895000D01*
X178625000Y-88497172D01*
X178624999Y-88497155D01*
X178618598Y-88437627D01*
X178618596Y-88437620D01*
X178568354Y-88302913D01*
X178568350Y-88302906D01*
X178482190Y-88187812D01*
X178482187Y-88187809D01*
X178367093Y-88101649D01*
X178367086Y-88101645D01*
X178232379Y-88051403D01*
X178232372Y-88051401D01*
X178172844Y-88045000D01*
X177775000Y-88045000D01*
X176775000Y-88045000D01*
X176377155Y-88045000D01*
X176317627Y-88051401D01*
X176317620Y-88051403D01*
X176182913Y-88101645D01*
X176182906Y-88101649D01*
X176067812Y-88187809D01*
X176067809Y-88187812D01*
X175981649Y-88302906D01*
X175981645Y-88302913D01*
X175932578Y-88434470D01*
X175890707Y-88490404D01*
X175825242Y-88514821D01*
X175756969Y-88499969D01*
X175728715Y-88478819D01*
X175684366Y-88434470D01*
X175606401Y-88356505D01*
X175606397Y-88356502D01*
X175606396Y-88356501D01*
X175412834Y-88220967D01*
X175412830Y-88220965D01*
X175341727Y-88187809D01*
X175198663Y-88121097D01*
X175198659Y-88121096D01*
X175198655Y-88121094D01*
X174970413Y-88059938D01*
X174970403Y-88059936D01*
X174735001Y-88039341D01*
X174734999Y-88039341D01*
X174499596Y-88059936D01*
X174499586Y-88059938D01*
X174271344Y-88121094D01*
X174271335Y-88121098D01*
X174057171Y-88220964D01*
X174057169Y-88220965D01*
X173863597Y-88356505D01*
X173696505Y-88523597D01*
X173566575Y-88709158D01*
X173511998Y-88752783D01*
X173442500Y-88759977D01*
X173380145Y-88728454D01*
X173363425Y-88709158D01*
X173233494Y-88523597D01*
X173066402Y-88356506D01*
X173066395Y-88356501D01*
X172872834Y-88220967D01*
X172872830Y-88220965D01*
X172801727Y-88187809D01*
X172658663Y-88121097D01*
X172658659Y-88121096D01*
X172658655Y-88121094D01*
X172430413Y-88059938D01*
X172430403Y-88059936D01*
X172195001Y-88039341D01*
X172194999Y-88039341D01*
X171959596Y-88059936D01*
X171959586Y-88059938D01*
X171731344Y-88121094D01*
X171731335Y-88121098D01*
X171517171Y-88220964D01*
X171517169Y-88220965D01*
X171323597Y-88356505D01*
X171156505Y-88523597D01*
X171020965Y-88717169D01*
X171020964Y-88717171D01*
X170921098Y-88931335D01*
X170921094Y-88931344D01*
X170859938Y-89159586D01*
X170859936Y-89159596D01*
X170839341Y-89394999D01*
X170839341Y-89395000D01*
X165735000Y-89395000D01*
X165735000Y-84455000D01*
X156778644Y-84455000D01*
X156711605Y-84435315D01*
X156665850Y-84382511D01*
X156655906Y-84313353D01*
X156662462Y-84287667D01*
X156703596Y-84177379D01*
X156703598Y-84177372D01*
X156709999Y-84117844D01*
X156710000Y-84117827D01*
X156710000Y-83720000D01*
X155425826Y-83720000D01*
X155552993Y-83685925D01*
X155667007Y-83620099D01*
X155760099Y-83527007D01*
X155825925Y-83412993D01*
X155860000Y-83285826D01*
X155860000Y-83154174D01*
X155825925Y-83027007D01*
X155760099Y-82912993D01*
X155667007Y-82819901D01*
X155552993Y-82754075D01*
X155425826Y-82720000D01*
X155294174Y-82720000D01*
X155167007Y-82754075D01*
X155052993Y-82819901D01*
X154959901Y-82912993D01*
X154894075Y-83027007D01*
X154860000Y-83154174D01*
X154860000Y-83285826D01*
X154894075Y-83412993D01*
X154959901Y-83527007D01*
X155052993Y-83620099D01*
X155167007Y-83685925D01*
X155294174Y-83720000D01*
X152885826Y-83720000D01*
X153012993Y-83685925D01*
X153127007Y-83620099D01*
X153220099Y-83527007D01*
X153285925Y-83412993D01*
X153320000Y-83285826D01*
X153320000Y-83154174D01*
X153285925Y-83027007D01*
X153220099Y-82912993D01*
X153127007Y-82819901D01*
X153012993Y-82754075D01*
X152885826Y-82720000D01*
X152754174Y-82720000D01*
X152627007Y-82754075D01*
X152512993Y-82819901D01*
X152419901Y-82912993D01*
X152354075Y-83027007D01*
X152320000Y-83154174D01*
X152320000Y-83285826D01*
X152354075Y-83412993D01*
X152419901Y-83527007D01*
X152512993Y-83620099D01*
X152627007Y-83685925D01*
X152754174Y-83720000D01*
X150345826Y-83720000D01*
X150472993Y-83685925D01*
X150587007Y-83620099D01*
X150680099Y-83527007D01*
X150745925Y-83412993D01*
X150780000Y-83285826D01*
X150780000Y-83154174D01*
X150745925Y-83027007D01*
X150680099Y-82912993D01*
X150587007Y-82819901D01*
X150472993Y-82754075D01*
X150345826Y-82720000D01*
X150214174Y-82720000D01*
X150087007Y-82754075D01*
X149972993Y-82819901D01*
X149879901Y-82912993D01*
X149814075Y-83027007D01*
X149780000Y-83154174D01*
X149780000Y-83285826D01*
X149814075Y-83412993D01*
X149879901Y-83527007D01*
X149972993Y-83620099D01*
X150087007Y-83685925D01*
X150214174Y-83720000D01*
X147805826Y-83720000D01*
X147932993Y-83685925D01*
X148047007Y-83620099D01*
X148140099Y-83527007D01*
X148205925Y-83412993D01*
X148240000Y-83285826D01*
X148240000Y-83154174D01*
X148205925Y-83027007D01*
X148140099Y-82912993D01*
X148047007Y-82819901D01*
X147932993Y-82754075D01*
X147805826Y-82720000D01*
X147674174Y-82720000D01*
X147547007Y-82754075D01*
X147432993Y-82819901D01*
X147339901Y-82912993D01*
X147274075Y-83027007D01*
X147240000Y-83154174D01*
X147240000Y-83285826D01*
X147274075Y-83412993D01*
X147339901Y-83527007D01*
X147432993Y-83620099D01*
X147547007Y-83685925D01*
X147674174Y-83720000D01*
X145265826Y-83720000D01*
X145392993Y-83685925D01*
X145507007Y-83620099D01*
X145600099Y-83527007D01*
X145665925Y-83412993D01*
X145700000Y-83285826D01*
X145700000Y-83154174D01*
X145665925Y-83027007D01*
X145600099Y-82912993D01*
X145507007Y-82819901D01*
X145392993Y-82754075D01*
X145265826Y-82720000D01*
X145134174Y-82720000D01*
X145007007Y-82754075D01*
X144892993Y-82819901D01*
X144799901Y-82912993D01*
X144734075Y-83027007D01*
X144700000Y-83154174D01*
X144700000Y-83285826D01*
X144734075Y-83412993D01*
X144799901Y-83527007D01*
X144892993Y-83620099D01*
X145007007Y-83685925D01*
X145134174Y-83720000D01*
X142725826Y-83720000D01*
X142852993Y-83685925D01*
X142967007Y-83620099D01*
X143060099Y-83527007D01*
X143125925Y-83412993D01*
X143160000Y-83285826D01*
X143160000Y-83154174D01*
X143125925Y-83027007D01*
X143060099Y-82912993D01*
X142967007Y-82819901D01*
X142852993Y-82754075D01*
X142725826Y-82720000D01*
X142594174Y-82720000D01*
X142467007Y-82754075D01*
X142352993Y-82819901D01*
X142259901Y-82912993D01*
X142194075Y-83027007D01*
X142160000Y-83154174D01*
X142160000Y-83285826D01*
X142194075Y-83412993D01*
X142259901Y-83527007D01*
X142352993Y-83620099D01*
X142467007Y-83685925D01*
X142594174Y-83720000D01*
X140185826Y-83720000D01*
X140312993Y-83685925D01*
X140427007Y-83620099D01*
X140520099Y-83527007D01*
X140585925Y-83412993D01*
X140620000Y-83285826D01*
X140620000Y-83154174D01*
X140585925Y-83027007D01*
X140520099Y-82912993D01*
X140427007Y-82819901D01*
X140312993Y-82754075D01*
X140185826Y-82720000D01*
X140054174Y-82720000D01*
X139927007Y-82754075D01*
X139812993Y-82819901D01*
X139719901Y-82912993D01*
X139654075Y-83027007D01*
X139620000Y-83154174D01*
X139620000Y-83285826D01*
X139654075Y-83412993D01*
X139719901Y-83527007D01*
X139812993Y-83620099D01*
X139927007Y-83685925D01*
X140054174Y-83720000D01*
X137645826Y-83720000D01*
X137772993Y-83685925D01*
X137887007Y-83620099D01*
X137980099Y-83527007D01*
X138045925Y-83412993D01*
X138080000Y-83285826D01*
X138080000Y-83154174D01*
X138045925Y-83027007D01*
X137980099Y-82912993D01*
X137887007Y-82819901D01*
X137772993Y-82754075D01*
X137645826Y-82720000D01*
X137514174Y-82720000D01*
X137387007Y-82754075D01*
X137272993Y-82819901D01*
X137179901Y-82912993D01*
X137114075Y-83027007D01*
X137080000Y-83154174D01*
X137080000Y-83285826D01*
X137114075Y-83412993D01*
X137179901Y-83527007D01*
X137272993Y-83620099D01*
X137387007Y-83685925D01*
X137514174Y-83720000D01*
X136230000Y-83720000D01*
X136230000Y-84117844D01*
X136236401Y-84177372D01*
X136236403Y-84177379D01*
X136277538Y-84287667D01*
X136282522Y-84357358D01*
X136249037Y-84418681D01*
X136187714Y-84452166D01*
X136161356Y-84455000D01*
X129565000Y-84455000D01*
X129497961Y-84435315D01*
X129452206Y-84382511D01*
X129441000Y-84331000D01*
X129441000Y-83940612D01*
X129460007Y-83874639D01*
X129475788Y-83849524D01*
X129500000Y-83780330D01*
X129535368Y-83679255D01*
X129535369Y-83679249D01*
X129555565Y-83500003D01*
X129555565Y-83499996D01*
X129535369Y-83320750D01*
X129535368Y-83320745D01*
X129475788Y-83150476D01*
X129395006Y-83021913D01*
X129379816Y-82997738D01*
X129252262Y-82870184D01*
X129219379Y-82849522D01*
X129099523Y-82774211D01*
X128944598Y-82720000D01*
X136230000Y-82720000D01*
X137080000Y-82720000D01*
X137080000Y-81870000D01*
X138080000Y-81870000D01*
X138080000Y-82720000D01*
X139620000Y-82720000D01*
X139620000Y-81870000D01*
X140620000Y-81870000D01*
X140620000Y-82720000D01*
X142160000Y-82720000D01*
X142160000Y-81870000D01*
X143160000Y-81870000D01*
X143160000Y-82720000D01*
X144700000Y-82720000D01*
X144700000Y-81870000D01*
X145700000Y-81870000D01*
X145700000Y-82720000D01*
X147240000Y-82720000D01*
X147240000Y-81870000D01*
X148240000Y-81870000D01*
X148240000Y-82720000D01*
X149780000Y-82720000D01*
X149780000Y-81870000D01*
X150780000Y-81870000D01*
X150780000Y-82720000D01*
X152320000Y-82720000D01*
X152320000Y-81870000D01*
X153320000Y-81870000D01*
X153320000Y-82720000D01*
X154860000Y-82720000D01*
X154860000Y-81870000D01*
X155860000Y-81870000D01*
X155860000Y-82720000D01*
X156710000Y-82720000D01*
X156710000Y-82322172D01*
X156709999Y-82322155D01*
X156703598Y-82262627D01*
X156703596Y-82262620D01*
X156653354Y-82127913D01*
X156653350Y-82127906D01*
X156567190Y-82012812D01*
X156567187Y-82012809D01*
X156452093Y-81926649D01*
X156452086Y-81926645D01*
X156317379Y-81876403D01*
X156317372Y-81876401D01*
X156257844Y-81870000D01*
X155860000Y-81870000D01*
X154860000Y-81870000D01*
X154462155Y-81870000D01*
X154402627Y-81876401D01*
X154402620Y-81876403D01*
X154267913Y-81926645D01*
X154267911Y-81926647D01*
X154164311Y-82004202D01*
X154098847Y-82028619D01*
X154030574Y-82013768D01*
X154015689Y-82004202D01*
X153912088Y-81926647D01*
X153912086Y-81926645D01*
X153777379Y-81876403D01*
X153777372Y-81876401D01*
X153717844Y-81870000D01*
X153320000Y-81870000D01*
X152320000Y-81870000D01*
X151922155Y-81870000D01*
X151862627Y-81876401D01*
X151862620Y-81876403D01*
X151727913Y-81926645D01*
X151727911Y-81926647D01*
X151624311Y-82004202D01*
X151558847Y-82028619D01*
X151490574Y-82013768D01*
X151475689Y-82004202D01*
X151372088Y-81926647D01*
X151372086Y-81926645D01*
X151237379Y-81876403D01*
X151237372Y-81876401D01*
X151177844Y-81870000D01*
X150780000Y-81870000D01*
X149780000Y-81870000D01*
X149382155Y-81870000D01*
X149322627Y-81876401D01*
X149322620Y-81876403D01*
X149187913Y-81926645D01*
X149187911Y-81926647D01*
X149084311Y-82004202D01*
X149018847Y-82028619D01*
X148950574Y-82013768D01*
X148935689Y-82004202D01*
X148832088Y-81926647D01*
X148832086Y-81926645D01*
X148697379Y-81876403D01*
X148697372Y-81876401D01*
X148637844Y-81870000D01*
X148240000Y-81870000D01*
X147240000Y-81870000D01*
X146842155Y-81870000D01*
X146782627Y-81876401D01*
X146782620Y-81876403D01*
X146647913Y-81926645D01*
X146647911Y-81926647D01*
X146544311Y-82004202D01*
X146478847Y-82028619D01*
X146410574Y-82013768D01*
X146395689Y-82004202D01*
X146292088Y-81926647D01*
X146292086Y-81926645D01*
X146157379Y-81876403D01*
X146157372Y-81876401D01*
X146097844Y-81870000D01*
X145700000Y-81870000D01*
X144700000Y-81870000D01*
X144302155Y-81870000D01*
X144242627Y-81876401D01*
X144242620Y-81876403D01*
X144107913Y-81926645D01*
X144107911Y-81926647D01*
X144004311Y-82004202D01*
X143938847Y-82028619D01*
X143870574Y-82013768D01*
X143855689Y-82004202D01*
X143752088Y-81926647D01*
X143752086Y-81926645D01*
X143617379Y-81876403D01*
X143617372Y-81876401D01*
X143557844Y-81870000D01*
X143160000Y-81870000D01*
X142160000Y-81870000D01*
X141762155Y-81870000D01*
X141702627Y-81876401D01*
X141702620Y-81876403D01*
X141567913Y-81926645D01*
X141567911Y-81926647D01*
X141464311Y-82004202D01*
X141398847Y-82028619D01*
X141330574Y-82013768D01*
X141315689Y-82004202D01*
X141212088Y-81926647D01*
X141212086Y-81926645D01*
X141077379Y-81876403D01*
X141077372Y-81876401D01*
X141017844Y-81870000D01*
X140620000Y-81870000D01*
X139620000Y-81870000D01*
X139222155Y-81870000D01*
X139162627Y-81876401D01*
X139162620Y-81876403D01*
X139027913Y-81926645D01*
X139027911Y-81926647D01*
X138924311Y-82004202D01*
X138858847Y-82028619D01*
X138790574Y-82013768D01*
X138775689Y-82004202D01*
X138672088Y-81926647D01*
X138672086Y-81926645D01*
X138537379Y-81876403D01*
X138537372Y-81876401D01*
X138477844Y-81870000D01*
X138080000Y-81870000D01*
X137080000Y-81870000D01*
X136682155Y-81870000D01*
X136622627Y-81876401D01*
X136622620Y-81876403D01*
X136487913Y-81926645D01*
X136487906Y-81926649D01*
X136372812Y-82012809D01*
X136372809Y-82012812D01*
X136286649Y-82127906D01*
X136286645Y-82127913D01*
X136236403Y-82262620D01*
X136236401Y-82262627D01*
X136230000Y-82322155D01*
X136230000Y-82720000D01*
X128944598Y-82720000D01*
X128929254Y-82714631D01*
X128929249Y-82714630D01*
X128750004Y-82694435D01*
X128749996Y-82694435D01*
X128570750Y-82714630D01*
X128570745Y-82714631D01*
X128400476Y-82774211D01*
X128247737Y-82870184D01*
X128120184Y-82997737D01*
X128104994Y-83021913D01*
X128052659Y-83068204D01*
X127983605Y-83078852D01*
X127919757Y-83050477D01*
X127895006Y-83021913D01*
X127879816Y-82997738D01*
X127752262Y-82870184D01*
X127719379Y-82849522D01*
X127599523Y-82774211D01*
X127429254Y-82714631D01*
X127429249Y-82714630D01*
X127250004Y-82694435D01*
X127249996Y-82694435D01*
X127070750Y-82714630D01*
X127070745Y-82714631D01*
X126900476Y-82774211D01*
X126747737Y-82870184D01*
X126620184Y-82997737D01*
X126524211Y-83150476D01*
X126464631Y-83320745D01*
X126464630Y-83320750D01*
X126444435Y-83499996D01*
X126444435Y-83500003D01*
X126464630Y-83679249D01*
X126464631Y-83679254D01*
X126524211Y-83849524D01*
X126539993Y-83874639D01*
X126559000Y-83940612D01*
X126559000Y-84331000D01*
X126539315Y-84398039D01*
X126486511Y-84443794D01*
X126435000Y-84455000D01*
X125565000Y-84455000D01*
X125497961Y-84435315D01*
X125452206Y-84382511D01*
X125441000Y-84331000D01*
X125441000Y-77621288D01*
X176649500Y-77621288D01*
X176681161Y-77861785D01*
X176743947Y-78096104D01*
X176836773Y-78320205D01*
X176836777Y-78320214D01*
X176858974Y-78358661D01*
X176958064Y-78530289D01*
X176958066Y-78530292D01*
X176958067Y-78530293D01*
X177105733Y-78722736D01*
X177105739Y-78722743D01*
X177277256Y-78894260D01*
X177277262Y-78894265D01*
X177469711Y-79041936D01*
X177679788Y-79163224D01*
X177903900Y-79256054D01*
X178138211Y-79318838D01*
X178318586Y-79342584D01*
X178378711Y-79350500D01*
X178378712Y-79350500D01*
X178621289Y-79350500D01*
X178669388Y-79344167D01*
X178861789Y-79318838D01*
X179096100Y-79256054D01*
X179320212Y-79163224D01*
X179530289Y-79041936D01*
X179722738Y-78894265D01*
X179894265Y-78722738D01*
X180041936Y-78530289D01*
X180163224Y-78320212D01*
X180256054Y-78096100D01*
X180318838Y-77861789D01*
X180350500Y-77621288D01*
X180350500Y-77378712D01*
X180318838Y-77138211D01*
X180256054Y-76903900D01*
X180163224Y-76679788D01*
X180041936Y-76469711D01*
X179916077Y-76305688D01*
X179894266Y-76277263D01*
X179894260Y-76277256D01*
X179722743Y-76105739D01*
X179722736Y-76105733D01*
X179530293Y-75958067D01*
X179530292Y-75958066D01*
X179530289Y-75958064D01*
X179320212Y-75836776D01*
X179244862Y-75805565D01*
X179096104Y-75743947D01*
X178861785Y-75681161D01*
X178621289Y-75649500D01*
X178621288Y-75649500D01*
X178378712Y-75649500D01*
X178378711Y-75649500D01*
X178138214Y-75681161D01*
X177903895Y-75743947D01*
X177679794Y-75836773D01*
X177679785Y-75836777D01*
X177469706Y-75958067D01*
X177277263Y-76105733D01*
X177277256Y-76105739D01*
X177105739Y-76277256D01*
X177105733Y-76277263D01*
X176958067Y-76469706D01*
X176836777Y-76679785D01*
X176836773Y-76679794D01*
X176743947Y-76903895D01*
X176681161Y-77138214D01*
X176649500Y-77378711D01*
X176649500Y-77621288D01*
X125441000Y-77621288D01*
X125441000Y-74337583D01*
X125460685Y-74270544D01*
X125477319Y-74249902D01*
X125809402Y-73917819D01*
X125870725Y-73884334D01*
X125897083Y-73881500D01*
X126557918Y-73881500D01*
X126624957Y-73901185D01*
X126670712Y-73953989D01*
X126680656Y-74023147D01*
X126651631Y-74086703D01*
X126634080Y-74103353D01*
X126518960Y-74192954D01*
X126518950Y-74192963D01*
X126365850Y-74359272D01*
X126365842Y-74359283D01*
X126242198Y-74548533D01*
X126151388Y-74755560D01*
X126095892Y-74974710D01*
X126077225Y-75199993D01*
X126077225Y-75200006D01*
X126095892Y-75425289D01*
X126151388Y-75644439D01*
X126242198Y-75851466D01*
X126365842Y-76040716D01*
X126365850Y-76040727D01*
X126518950Y-76207036D01*
X126518954Y-76207040D01*
X126697351Y-76345893D01*
X126896169Y-76453488D01*
X126896172Y-76453489D01*
X127109982Y-76526890D01*
X127109984Y-76526890D01*
X127109986Y-76526891D01*
X127332967Y-76564100D01*
X127332968Y-76564100D01*
X127559032Y-76564100D01*
X127559033Y-76564100D01*
X127782014Y-76526891D01*
X127995831Y-76453488D01*
X128194649Y-76345893D01*
X128373046Y-76207040D01*
X128526156Y-76040719D01*
X128612193Y-75909028D01*
X128665338Y-75863675D01*
X128734569Y-75854251D01*
X128797905Y-75883753D01*
X128819804Y-75909025D01*
X128905844Y-76040719D01*
X128905849Y-76040724D01*
X128905850Y-76040727D01*
X129058950Y-76207036D01*
X129058954Y-76207040D01*
X129237351Y-76345893D01*
X129436169Y-76453488D01*
X129436172Y-76453489D01*
X129649982Y-76526890D01*
X129649984Y-76526890D01*
X129649986Y-76526891D01*
X129872967Y-76564100D01*
X129872968Y-76564100D01*
X130099032Y-76564100D01*
X130099033Y-76564100D01*
X130322014Y-76526891D01*
X130535831Y-76453488D01*
X130734649Y-76345893D01*
X130913046Y-76207040D01*
X131066156Y-76040719D01*
X131152193Y-75909028D01*
X131205338Y-75863675D01*
X131274569Y-75854251D01*
X131337905Y-75883753D01*
X131359804Y-75909025D01*
X131445844Y-76040719D01*
X131445849Y-76040724D01*
X131445850Y-76040727D01*
X131598950Y-76207036D01*
X131598954Y-76207040D01*
X131777351Y-76345893D01*
X131976169Y-76453488D01*
X131976172Y-76453489D01*
X132189982Y-76526890D01*
X132189984Y-76526890D01*
X132189986Y-76526891D01*
X132412967Y-76564100D01*
X132412968Y-76564100D01*
X132639032Y-76564100D01*
X132639033Y-76564100D01*
X132862014Y-76526891D01*
X133075831Y-76453488D01*
X133274649Y-76345893D01*
X133453046Y-76207040D01*
X133507815Y-76147545D01*
X133567699Y-76111557D01*
X133637537Y-76113657D01*
X133695153Y-76153180D01*
X133715224Y-76188196D01*
X133759046Y-76305688D01*
X133759049Y-76305693D01*
X133845209Y-76420787D01*
X133845212Y-76420790D01*
X133960306Y-76506950D01*
X133960313Y-76506954D01*
X134095020Y-76557196D01*
X134095027Y-76557198D01*
X134154555Y-76563599D01*
X134154572Y-76563600D01*
X134566000Y-76563600D01*
X134566000Y-75296736D01*
X134592619Y-75396081D01*
X134659498Y-75511920D01*
X134754080Y-75606502D01*
X134869919Y-75673381D01*
X134999120Y-75708000D01*
X135132880Y-75708000D01*
X135262081Y-75673381D01*
X135377920Y-75606502D01*
X135472502Y-75511920D01*
X135539381Y-75396081D01*
X135566000Y-75296736D01*
X135566000Y-76563600D01*
X135977428Y-76563600D01*
X135977444Y-76563599D01*
X136036972Y-76557198D01*
X136036979Y-76557196D01*
X136171686Y-76506954D01*
X136171693Y-76506950D01*
X136286787Y-76420790D01*
X136286790Y-76420787D01*
X136372950Y-76305693D01*
X136372954Y-76305686D01*
X136416775Y-76188197D01*
X136458646Y-76132263D01*
X136524110Y-76107846D01*
X136592383Y-76122698D01*
X136624186Y-76147547D01*
X136678950Y-76207036D01*
X136678954Y-76207040D01*
X136857351Y-76345893D01*
X137056169Y-76453488D01*
X137056172Y-76453489D01*
X137269982Y-76526890D01*
X137269984Y-76526890D01*
X137269986Y-76526891D01*
X137492967Y-76564100D01*
X137492968Y-76564100D01*
X137719032Y-76564100D01*
X137719033Y-76564100D01*
X137942014Y-76526891D01*
X138155831Y-76453488D01*
X138354649Y-76345893D01*
X138533046Y-76207040D01*
X138686156Y-76040719D01*
X138772193Y-75909028D01*
X138825338Y-75863675D01*
X138894569Y-75854251D01*
X138957905Y-75883753D01*
X138979804Y-75909025D01*
X139065844Y-76040719D01*
X139065849Y-76040724D01*
X139065850Y-76040727D01*
X139218950Y-76207036D01*
X139218954Y-76207040D01*
X139397351Y-76345893D01*
X139596169Y-76453488D01*
X139596172Y-76453489D01*
X139809982Y-76526890D01*
X139809984Y-76526890D01*
X139809986Y-76526891D01*
X140032967Y-76564100D01*
X140032968Y-76564100D01*
X140259032Y-76564100D01*
X140259033Y-76564100D01*
X140482014Y-76526891D01*
X140695831Y-76453488D01*
X140894649Y-76345893D01*
X141073046Y-76207040D01*
X141226156Y-76040719D01*
X141312193Y-75909028D01*
X141365338Y-75863675D01*
X141434569Y-75854251D01*
X141497905Y-75883753D01*
X141519804Y-75909025D01*
X141605844Y-76040719D01*
X141605849Y-76040724D01*
X141605850Y-76040727D01*
X141758950Y-76207036D01*
X141758954Y-76207040D01*
X141937351Y-76345893D01*
X142136169Y-76453488D01*
X142136172Y-76453489D01*
X142349982Y-76526890D01*
X142349984Y-76526890D01*
X142349986Y-76526891D01*
X142572967Y-76564100D01*
X142572968Y-76564100D01*
X142799032Y-76564100D01*
X142799033Y-76564100D01*
X143022014Y-76526891D01*
X143235831Y-76453488D01*
X143434649Y-76345893D01*
X143613046Y-76207040D01*
X143766156Y-76040719D01*
X143852193Y-75909028D01*
X143905338Y-75863675D01*
X143974569Y-75854251D01*
X144037905Y-75883753D01*
X144059804Y-75909025D01*
X144145844Y-76040719D01*
X144145849Y-76040724D01*
X144145850Y-76040727D01*
X144298950Y-76207036D01*
X144298954Y-76207040D01*
X144477351Y-76345893D01*
X144676169Y-76453488D01*
X144676172Y-76453489D01*
X144889982Y-76526890D01*
X144889984Y-76526890D01*
X144889986Y-76526891D01*
X145112967Y-76564100D01*
X145112968Y-76564100D01*
X145339032Y-76564100D01*
X145339033Y-76564100D01*
X145562014Y-76526891D01*
X145775831Y-76453488D01*
X145974649Y-76345893D01*
X146153046Y-76207040D01*
X146306156Y-76040719D01*
X146392193Y-75909028D01*
X146445338Y-75863675D01*
X146514569Y-75854251D01*
X146577905Y-75883753D01*
X146599804Y-75909025D01*
X146685844Y-76040719D01*
X146685849Y-76040724D01*
X146685850Y-76040727D01*
X146838950Y-76207036D01*
X146838954Y-76207040D01*
X147017351Y-76345893D01*
X147216169Y-76453488D01*
X147216172Y-76453489D01*
X147429982Y-76526890D01*
X147429984Y-76526890D01*
X147429986Y-76526891D01*
X147652967Y-76564100D01*
X147652968Y-76564100D01*
X147879032Y-76564100D01*
X147879033Y-76564100D01*
X148102014Y-76526891D01*
X148315831Y-76453488D01*
X148514649Y-76345893D01*
X148693046Y-76207040D01*
X148846156Y-76040719D01*
X148932193Y-75909028D01*
X148985338Y-75863675D01*
X149054569Y-75854251D01*
X149117905Y-75883753D01*
X149139804Y-75909025D01*
X149225844Y-76040719D01*
X149225849Y-76040724D01*
X149225850Y-76040727D01*
X149378950Y-76207036D01*
X149378954Y-76207040D01*
X149557351Y-76345893D01*
X149756169Y-76453488D01*
X149756172Y-76453489D01*
X149969982Y-76526890D01*
X149969984Y-76526890D01*
X149969986Y-76526891D01*
X150192967Y-76564100D01*
X150192968Y-76564100D01*
X150419032Y-76564100D01*
X150419033Y-76564100D01*
X150642014Y-76526891D01*
X150855831Y-76453488D01*
X151054649Y-76345893D01*
X151233046Y-76207040D01*
X151386156Y-76040719D01*
X151509802Y-75851465D01*
X151600611Y-75644441D01*
X151656107Y-75425293D01*
X151663574Y-75335175D01*
X151674775Y-75200006D01*
X153001225Y-75200006D01*
X153019892Y-75425289D01*
X153075388Y-75644439D01*
X153166198Y-75851466D01*
X153289842Y-76040716D01*
X153289850Y-76040727D01*
X153442950Y-76207036D01*
X153442954Y-76207040D01*
X153621351Y-76345893D01*
X153820169Y-76453488D01*
X153820172Y-76453489D01*
X154033982Y-76526890D01*
X154033984Y-76526890D01*
X154033986Y-76526891D01*
X154256967Y-76564100D01*
X154256968Y-76564100D01*
X154483032Y-76564100D01*
X154483033Y-76564100D01*
X154706014Y-76526891D01*
X154919831Y-76453488D01*
X155118649Y-76345893D01*
X155297046Y-76207040D01*
X155450156Y-76040719D01*
X155536193Y-75909028D01*
X155589338Y-75863675D01*
X155658569Y-75854251D01*
X155721905Y-75883753D01*
X155743804Y-75909025D01*
X155829844Y-76040719D01*
X155829849Y-76040724D01*
X155829850Y-76040727D01*
X155982950Y-76207036D01*
X155982954Y-76207040D01*
X156161351Y-76345893D01*
X156360169Y-76453488D01*
X156360172Y-76453489D01*
X156573982Y-76526890D01*
X156573984Y-76526890D01*
X156573986Y-76526891D01*
X156796967Y-76564100D01*
X156796968Y-76564100D01*
X157023032Y-76564100D01*
X157023033Y-76564100D01*
X157246014Y-76526891D01*
X157459831Y-76453488D01*
X157658649Y-76345893D01*
X157837046Y-76207040D01*
X157990156Y-76040719D01*
X158076193Y-75909028D01*
X158129338Y-75863675D01*
X158198569Y-75854251D01*
X158261905Y-75883753D01*
X158283804Y-75909025D01*
X158369844Y-76040719D01*
X158369849Y-76040724D01*
X158369850Y-76040727D01*
X158522950Y-76207036D01*
X158522954Y-76207040D01*
X158701351Y-76345893D01*
X158900169Y-76453488D01*
X158900172Y-76453489D01*
X159113982Y-76526890D01*
X159113984Y-76526890D01*
X159113986Y-76526891D01*
X159336967Y-76564100D01*
X159336968Y-76564100D01*
X159563032Y-76564100D01*
X159563033Y-76564100D01*
X159786014Y-76526891D01*
X159999831Y-76453488D01*
X160198649Y-76345893D01*
X160377046Y-76207040D01*
X160530156Y-76040719D01*
X160616193Y-75909028D01*
X160669338Y-75863675D01*
X160738569Y-75854251D01*
X160801905Y-75883753D01*
X160823804Y-75909025D01*
X160909844Y-76040719D01*
X160909849Y-76040724D01*
X160909850Y-76040727D01*
X161062950Y-76207036D01*
X161062954Y-76207040D01*
X161241351Y-76345893D01*
X161440169Y-76453488D01*
X161440172Y-76453489D01*
X161653982Y-76526890D01*
X161653984Y-76526890D01*
X161653986Y-76526891D01*
X161876967Y-76564100D01*
X161876968Y-76564100D01*
X162103032Y-76564100D01*
X162103033Y-76564100D01*
X162326014Y-76526891D01*
X162539831Y-76453488D01*
X162738649Y-76345893D01*
X162917046Y-76207040D01*
X163070156Y-76040719D01*
X163156193Y-75909028D01*
X163209338Y-75863675D01*
X163278569Y-75854251D01*
X163341905Y-75883753D01*
X163363804Y-75909025D01*
X163449844Y-76040719D01*
X163449849Y-76040724D01*
X163449850Y-76040727D01*
X163602950Y-76207036D01*
X163602954Y-76207040D01*
X163781351Y-76345893D01*
X163980169Y-76453488D01*
X163980172Y-76453489D01*
X164193982Y-76526890D01*
X164193984Y-76526890D01*
X164193986Y-76526891D01*
X164416967Y-76564100D01*
X164416968Y-76564100D01*
X164643032Y-76564100D01*
X164643033Y-76564100D01*
X164866014Y-76526891D01*
X165079831Y-76453488D01*
X165278649Y-76345893D01*
X165457046Y-76207040D01*
X165610156Y-76040719D01*
X165696193Y-75909028D01*
X165749338Y-75863675D01*
X165818569Y-75854251D01*
X165881905Y-75883753D01*
X165903804Y-75909025D01*
X165989844Y-76040719D01*
X165989849Y-76040724D01*
X165989850Y-76040727D01*
X166142950Y-76207036D01*
X166142954Y-76207040D01*
X166321351Y-76345893D01*
X166520169Y-76453488D01*
X166520172Y-76453489D01*
X166733982Y-76526890D01*
X166733984Y-76526890D01*
X166733986Y-76526891D01*
X166956967Y-76564100D01*
X166956968Y-76564100D01*
X167183032Y-76564100D01*
X167183033Y-76564100D01*
X167406014Y-76526891D01*
X167619831Y-76453488D01*
X167818649Y-76345893D01*
X167997046Y-76207040D01*
X168150156Y-76040719D01*
X168236193Y-75909028D01*
X168289338Y-75863675D01*
X168358569Y-75854251D01*
X168421905Y-75883753D01*
X168443804Y-75909025D01*
X168529844Y-76040719D01*
X168529849Y-76040724D01*
X168529850Y-76040727D01*
X168682950Y-76207036D01*
X168682954Y-76207040D01*
X168861351Y-76345893D01*
X169060169Y-76453488D01*
X169060172Y-76453489D01*
X169273982Y-76526890D01*
X169273984Y-76526890D01*
X169273986Y-76526891D01*
X169496967Y-76564100D01*
X169496968Y-76564100D01*
X169723032Y-76564100D01*
X169723033Y-76564100D01*
X169946014Y-76526891D01*
X170159831Y-76453488D01*
X170358649Y-76345893D01*
X170537046Y-76207040D01*
X170690156Y-76040719D01*
X170776193Y-75909028D01*
X170829338Y-75863675D01*
X170898569Y-75854251D01*
X170961905Y-75883753D01*
X170983804Y-75909025D01*
X171069844Y-76040719D01*
X171069849Y-76040724D01*
X171069850Y-76040727D01*
X171222950Y-76207036D01*
X171222954Y-76207040D01*
X171401351Y-76345893D01*
X171600169Y-76453488D01*
X171600172Y-76453489D01*
X171813982Y-76526890D01*
X171813984Y-76526890D01*
X171813986Y-76526891D01*
X172036967Y-76564100D01*
X172036968Y-76564100D01*
X172263032Y-76564100D01*
X172263033Y-76564100D01*
X172486014Y-76526891D01*
X172699831Y-76453488D01*
X172898649Y-76345893D01*
X173077046Y-76207040D01*
X173230156Y-76040719D01*
X173353802Y-75851465D01*
X173444611Y-75644441D01*
X173500107Y-75425293D01*
X173507574Y-75335175D01*
X173518775Y-75200006D01*
X173518775Y-75199993D01*
X173505707Y-75042294D01*
X173500107Y-74974707D01*
X173444611Y-74755559D01*
X173353802Y-74548535D01*
X173230156Y-74359281D01*
X173230153Y-74359278D01*
X173230149Y-74359272D01*
X173077049Y-74192963D01*
X173077048Y-74192962D01*
X173077046Y-74192960D01*
X172898649Y-74054107D01*
X172841440Y-74023147D01*
X172699832Y-73946512D01*
X172699827Y-73946510D01*
X172486017Y-73873109D01*
X172304388Y-73842801D01*
X172263033Y-73835900D01*
X172036967Y-73835900D01*
X171995612Y-73842801D01*
X171813982Y-73873109D01*
X171600172Y-73946510D01*
X171600167Y-73946512D01*
X171401352Y-74054106D01*
X171222955Y-74192959D01*
X171222950Y-74192963D01*
X171069850Y-74359272D01*
X171069842Y-74359283D01*
X170983808Y-74490968D01*
X170930662Y-74536325D01*
X170861430Y-74545748D01*
X170798095Y-74516246D01*
X170776192Y-74490968D01*
X170690157Y-74359283D01*
X170690149Y-74359272D01*
X170537049Y-74192963D01*
X170537048Y-74192962D01*
X170537046Y-74192960D01*
X170358649Y-74054107D01*
X170301440Y-74023147D01*
X170159832Y-73946512D01*
X170159827Y-73946510D01*
X169946017Y-73873109D01*
X169764388Y-73842801D01*
X169723033Y-73835900D01*
X169496967Y-73835900D01*
X169455612Y-73842801D01*
X169273982Y-73873109D01*
X169060172Y-73946510D01*
X169060167Y-73946512D01*
X168861352Y-74054106D01*
X168682955Y-74192959D01*
X168682950Y-74192963D01*
X168529850Y-74359272D01*
X168529842Y-74359283D01*
X168443808Y-74490968D01*
X168390662Y-74536325D01*
X168321430Y-74545748D01*
X168258095Y-74516246D01*
X168236192Y-74490968D01*
X168150157Y-74359283D01*
X168150149Y-74359272D01*
X167997049Y-74192963D01*
X167997048Y-74192962D01*
X167997046Y-74192960D01*
X167818649Y-74054107D01*
X167761440Y-74023147D01*
X167619832Y-73946512D01*
X167619827Y-73946510D01*
X167406017Y-73873109D01*
X167224388Y-73842801D01*
X167183033Y-73835900D01*
X166956967Y-73835900D01*
X166915612Y-73842801D01*
X166733982Y-73873109D01*
X166520172Y-73946510D01*
X166520167Y-73946512D01*
X166321352Y-74054106D01*
X166142955Y-74192959D01*
X166142950Y-74192963D01*
X165989850Y-74359272D01*
X165989842Y-74359283D01*
X165903808Y-74490968D01*
X165850662Y-74536325D01*
X165781430Y-74545748D01*
X165718095Y-74516246D01*
X165696192Y-74490968D01*
X165610157Y-74359283D01*
X165610149Y-74359272D01*
X165457049Y-74192963D01*
X165457048Y-74192962D01*
X165457046Y-74192960D01*
X165278649Y-74054107D01*
X165221440Y-74023147D01*
X165079832Y-73946512D01*
X165079827Y-73946510D01*
X164866017Y-73873109D01*
X164684388Y-73842801D01*
X164643033Y-73835900D01*
X164416967Y-73835900D01*
X164375612Y-73842801D01*
X164193982Y-73873109D01*
X163980172Y-73946510D01*
X163980167Y-73946512D01*
X163781352Y-74054106D01*
X163602955Y-74192959D01*
X163602950Y-74192963D01*
X163449850Y-74359272D01*
X163449842Y-74359283D01*
X163363808Y-74490968D01*
X163310662Y-74536325D01*
X163241430Y-74545748D01*
X163178095Y-74516246D01*
X163156192Y-74490968D01*
X163070157Y-74359283D01*
X163070149Y-74359272D01*
X162917049Y-74192963D01*
X162917048Y-74192962D01*
X162917046Y-74192960D01*
X162738649Y-74054107D01*
X162681440Y-74023147D01*
X162539832Y-73946512D01*
X162539827Y-73946510D01*
X162326017Y-73873109D01*
X162144388Y-73842801D01*
X162103033Y-73835900D01*
X161876967Y-73835900D01*
X161835612Y-73842801D01*
X161653982Y-73873109D01*
X161440172Y-73946510D01*
X161440167Y-73946512D01*
X161241352Y-74054106D01*
X161062955Y-74192959D01*
X161062950Y-74192963D01*
X160909850Y-74359272D01*
X160909842Y-74359283D01*
X160823808Y-74490968D01*
X160770662Y-74536325D01*
X160701430Y-74545748D01*
X160638095Y-74516246D01*
X160616192Y-74490968D01*
X160530157Y-74359283D01*
X160530149Y-74359272D01*
X160377049Y-74192963D01*
X160377048Y-74192962D01*
X160377046Y-74192960D01*
X160198649Y-74054107D01*
X160141440Y-74023147D01*
X159999832Y-73946512D01*
X159999827Y-73946510D01*
X159786017Y-73873109D01*
X159604388Y-73842801D01*
X159563033Y-73835900D01*
X159336967Y-73835900D01*
X159295612Y-73842801D01*
X159113982Y-73873109D01*
X158900172Y-73946510D01*
X158900167Y-73946512D01*
X158701352Y-74054106D01*
X158522955Y-74192959D01*
X158522950Y-74192963D01*
X158369850Y-74359272D01*
X158369842Y-74359283D01*
X158283808Y-74490968D01*
X158230662Y-74536325D01*
X158161430Y-74545748D01*
X158098095Y-74516246D01*
X158076192Y-74490968D01*
X157990157Y-74359283D01*
X157990149Y-74359272D01*
X157837049Y-74192963D01*
X157837048Y-74192962D01*
X157837046Y-74192960D01*
X157658649Y-74054107D01*
X157601440Y-74023147D01*
X157459832Y-73946512D01*
X157459827Y-73946510D01*
X157246017Y-73873109D01*
X157064388Y-73842801D01*
X157023033Y-73835900D01*
X156796967Y-73835900D01*
X156755612Y-73842801D01*
X156573982Y-73873109D01*
X156360172Y-73946510D01*
X156360167Y-73946512D01*
X156161352Y-74054106D01*
X155982955Y-74192959D01*
X155982950Y-74192963D01*
X155829850Y-74359272D01*
X155829842Y-74359283D01*
X155743808Y-74490968D01*
X155690662Y-74536325D01*
X155621430Y-74545748D01*
X155558095Y-74516246D01*
X155536192Y-74490968D01*
X155450157Y-74359283D01*
X155450149Y-74359272D01*
X155297049Y-74192963D01*
X155297048Y-74192962D01*
X155297046Y-74192960D01*
X155118649Y-74054107D01*
X155061440Y-74023147D01*
X154919832Y-73946512D01*
X154919827Y-73946510D01*
X154706017Y-73873109D01*
X154524388Y-73842801D01*
X154483033Y-73835900D01*
X154256967Y-73835900D01*
X154215612Y-73842801D01*
X154033982Y-73873109D01*
X153820172Y-73946510D01*
X153820167Y-73946512D01*
X153621352Y-74054106D01*
X153442955Y-74192959D01*
X153442950Y-74192963D01*
X153289850Y-74359272D01*
X153289842Y-74359283D01*
X153166198Y-74548533D01*
X153075388Y-74755560D01*
X153019892Y-74974710D01*
X153001225Y-75199993D01*
X153001225Y-75200006D01*
X151674775Y-75200006D01*
X151674775Y-75199993D01*
X151661707Y-75042294D01*
X151656107Y-74974707D01*
X151600611Y-74755559D01*
X151509802Y-74548535D01*
X151386156Y-74359281D01*
X151386153Y-74359278D01*
X151386149Y-74359272D01*
X151233049Y-74192963D01*
X151233048Y-74192962D01*
X151233046Y-74192960D01*
X151054649Y-74054107D01*
X150997440Y-74023147D01*
X150855832Y-73946512D01*
X150855827Y-73946510D01*
X150642017Y-73873109D01*
X150460388Y-73842801D01*
X150419033Y-73835900D01*
X150192967Y-73835900D01*
X150151612Y-73842801D01*
X149969982Y-73873109D01*
X149756172Y-73946510D01*
X149756167Y-73946512D01*
X149557352Y-74054106D01*
X149378955Y-74192959D01*
X149378950Y-74192963D01*
X149225850Y-74359272D01*
X149225842Y-74359283D01*
X149139808Y-74490968D01*
X149086662Y-74536325D01*
X149017430Y-74545748D01*
X148954095Y-74516246D01*
X148932192Y-74490968D01*
X148846157Y-74359283D01*
X148846149Y-74359272D01*
X148693049Y-74192963D01*
X148693048Y-74192962D01*
X148693046Y-74192960D01*
X148514649Y-74054107D01*
X148457440Y-74023147D01*
X148315832Y-73946512D01*
X148315827Y-73946510D01*
X148102017Y-73873109D01*
X147920388Y-73842801D01*
X147879033Y-73835900D01*
X147652967Y-73835900D01*
X147611612Y-73842801D01*
X147429982Y-73873109D01*
X147216172Y-73946510D01*
X147216167Y-73946512D01*
X147017352Y-74054106D01*
X146838955Y-74192959D01*
X146838950Y-74192963D01*
X146685850Y-74359272D01*
X146685842Y-74359283D01*
X146599808Y-74490968D01*
X146546662Y-74536325D01*
X146477430Y-74545748D01*
X146414095Y-74516246D01*
X146392192Y-74490968D01*
X146306157Y-74359283D01*
X146306149Y-74359272D01*
X146153049Y-74192963D01*
X146153048Y-74192962D01*
X146153046Y-74192960D01*
X145974649Y-74054107D01*
X145917440Y-74023147D01*
X145775832Y-73946512D01*
X145775827Y-73946510D01*
X145562017Y-73873109D01*
X145380388Y-73842801D01*
X145339033Y-73835900D01*
X145112967Y-73835900D01*
X145071612Y-73842801D01*
X144889982Y-73873109D01*
X144676172Y-73946510D01*
X144676167Y-73946512D01*
X144477352Y-74054106D01*
X144298955Y-74192959D01*
X144298950Y-74192963D01*
X144145850Y-74359272D01*
X144145842Y-74359283D01*
X144059808Y-74490968D01*
X144006662Y-74536325D01*
X143937430Y-74545748D01*
X143874095Y-74516246D01*
X143852192Y-74490968D01*
X143766157Y-74359283D01*
X143766149Y-74359272D01*
X143613049Y-74192963D01*
X143613048Y-74192962D01*
X143613046Y-74192960D01*
X143434649Y-74054107D01*
X143377440Y-74023147D01*
X143235832Y-73946512D01*
X143235827Y-73946510D01*
X143022017Y-73873109D01*
X142840388Y-73842801D01*
X142799033Y-73835900D01*
X142572967Y-73835900D01*
X142531612Y-73842801D01*
X142349982Y-73873109D01*
X142136172Y-73946510D01*
X142136167Y-73946512D01*
X141937352Y-74054106D01*
X141758955Y-74192959D01*
X141758950Y-74192963D01*
X141605850Y-74359272D01*
X141605842Y-74359283D01*
X141519808Y-74490968D01*
X141466662Y-74536325D01*
X141397430Y-74545748D01*
X141334095Y-74516246D01*
X141312192Y-74490968D01*
X141226157Y-74359283D01*
X141226149Y-74359272D01*
X141073049Y-74192963D01*
X141073048Y-74192962D01*
X141073046Y-74192960D01*
X140894649Y-74054107D01*
X140837440Y-74023147D01*
X140695832Y-73946512D01*
X140695827Y-73946510D01*
X140482017Y-73873109D01*
X140300388Y-73842801D01*
X140259033Y-73835900D01*
X140032967Y-73835900D01*
X139991612Y-73842801D01*
X139809982Y-73873109D01*
X139596172Y-73946510D01*
X139596167Y-73946512D01*
X139397352Y-74054106D01*
X139218955Y-74192959D01*
X139218950Y-74192963D01*
X139065850Y-74359272D01*
X139065842Y-74359283D01*
X138979808Y-74490968D01*
X138926662Y-74536325D01*
X138857430Y-74545748D01*
X138794095Y-74516246D01*
X138772192Y-74490968D01*
X138686157Y-74359283D01*
X138686149Y-74359272D01*
X138533049Y-74192963D01*
X138533048Y-74192962D01*
X138533046Y-74192960D01*
X138354649Y-74054107D01*
X138297440Y-74023147D01*
X138155832Y-73946512D01*
X138155827Y-73946510D01*
X137942017Y-73873109D01*
X137760388Y-73842801D01*
X137719033Y-73835900D01*
X137492967Y-73835900D01*
X137451612Y-73842801D01*
X137269982Y-73873109D01*
X137056172Y-73946510D01*
X137056167Y-73946512D01*
X136857352Y-74054106D01*
X136678955Y-74192958D01*
X136624186Y-74252453D01*
X136564298Y-74288443D01*
X136494460Y-74286342D01*
X136436845Y-74246817D01*
X136416775Y-74211802D01*
X136372954Y-74094313D01*
X136372950Y-74094306D01*
X136286790Y-73979212D01*
X136286787Y-73979209D01*
X136171693Y-73893049D01*
X136171686Y-73893045D01*
X136036979Y-73842803D01*
X136036972Y-73842801D01*
X135977444Y-73836400D01*
X135566000Y-73836400D01*
X135566000Y-75103263D01*
X135539381Y-75003919D01*
X135472502Y-74888080D01*
X135377920Y-74793498D01*
X135262081Y-74726619D01*
X135132880Y-74692000D01*
X134999120Y-74692000D01*
X134869919Y-74726619D01*
X134754080Y-74793498D01*
X134659498Y-74888080D01*
X134592619Y-75003919D01*
X134566000Y-75103263D01*
X134566000Y-73836400D01*
X134154555Y-73836400D01*
X134095027Y-73842801D01*
X134095020Y-73842803D01*
X133960313Y-73893045D01*
X133960306Y-73893049D01*
X133845212Y-73979209D01*
X133845209Y-73979212D01*
X133759049Y-74094306D01*
X133759046Y-74094312D01*
X133715224Y-74211803D01*
X133673352Y-74267736D01*
X133607887Y-74292153D01*
X133539615Y-74277301D01*
X133507813Y-74252452D01*
X133453049Y-74192963D01*
X133453044Y-74192958D01*
X133274642Y-74054101D01*
X133273172Y-74053141D01*
X133272705Y-74052594D01*
X133270602Y-74050957D01*
X133270938Y-74050524D01*
X133227818Y-73999992D01*
X133217000Y-73949337D01*
X133217000Y-73707939D01*
X133190446Y-73574448D01*
X133190445Y-73574447D01*
X133190445Y-73574443D01*
X133184258Y-73559507D01*
X133138357Y-73448690D01*
X133138355Y-73448687D01*
X133062736Y-73335514D01*
X133062730Y-73335507D01*
X132939404Y-73212181D01*
X132905919Y-73150858D01*
X132910903Y-73081166D01*
X132952775Y-73025233D01*
X133018239Y-73000816D01*
X133027085Y-73000500D01*
X178434108Y-73000500D01*
X178497294Y-73000500D01*
X178502702Y-73000617D01*
X178886771Y-73017386D01*
X178897506Y-73018326D01*
X179275971Y-73068152D01*
X179286597Y-73070025D01*
X179659284Y-73152648D01*
X179669710Y-73155442D01*
X180033765Y-73270227D01*
X180043911Y-73273920D01*
X180396578Y-73420000D01*
X180406369Y-73424566D01*
X180744942Y-73600816D01*
X180754310Y-73606224D01*
X181076244Y-73811318D01*
X181085105Y-73817523D01*
X181387930Y-74049889D01*
X181396217Y-74056843D01*
X181677635Y-74314715D01*
X181685284Y-74322364D01*
X181943156Y-74603782D01*
X181950110Y-74612069D01*
X182182476Y-74914894D01*
X182188681Y-74923755D01*
X182393775Y-75245689D01*
X182399183Y-75255057D01*
X182575430Y-75593623D01*
X182580002Y-75603427D01*
X182726075Y-75956078D01*
X182729775Y-75966244D01*
X182844554Y-76330278D01*
X182847354Y-76340727D01*
X182929971Y-76713389D01*
X182931849Y-76724042D01*
X182981671Y-77102473D01*
X182982614Y-77113249D01*
X182999382Y-77497297D01*
X182999500Y-77502706D01*
X182999500Y-120997293D01*
X182999382Y-121002702D01*
X182982614Y-121386750D01*
X182981671Y-121397526D01*
X182931849Y-121775957D01*
X182929971Y-121786610D01*
X182847354Y-122159272D01*
X182844554Y-122169721D01*
X182729775Y-122533755D01*
X182726075Y-122543921D01*
X182580002Y-122896572D01*
X182575430Y-122906376D01*
X182399183Y-123244942D01*
X182393775Y-123254310D01*
X182188681Y-123576244D01*
X182182476Y-123585105D01*
X181950110Y-123887930D01*
X181943156Y-123896217D01*
X181685284Y-124177635D01*
X181677635Y-124185284D01*
X181396217Y-124443156D01*
X181387930Y-124450110D01*
X181085105Y-124682476D01*
X181076244Y-124688681D01*
X180754310Y-124893775D01*
X180744942Y-124899183D01*
X180406376Y-125075430D01*
X180396572Y-125080002D01*
X180043921Y-125226075D01*
X180033755Y-125229775D01*
X179669721Y-125344554D01*
X179659272Y-125347354D01*
X179286610Y-125429971D01*
X179275957Y-125431849D01*
X178897526Y-125481671D01*
X178886750Y-125482614D01*
X178502703Y-125499382D01*
X178497294Y-125499500D01*
X88502706Y-125499500D01*
X88497297Y-125499382D01*
X88113249Y-125482614D01*
X88102473Y-125481671D01*
X87724042Y-125431849D01*
X87713389Y-125429971D01*
X87340727Y-125347354D01*
X87330278Y-125344554D01*
X86966244Y-125229775D01*
X86956078Y-125226075D01*
X86603427Y-125080002D01*
X86593623Y-125075430D01*
X86255057Y-124899183D01*
X86245689Y-124893775D01*
X85923755Y-124688681D01*
X85914894Y-124682476D01*
X85612069Y-124450110D01*
X85603782Y-124443156D01*
X85322364Y-124185284D01*
X85314715Y-124177635D01*
X85056843Y-123896217D01*
X85049889Y-123887930D01*
X84817523Y-123585105D01*
X84811318Y-123576244D01*
X84737266Y-123460006D01*
X93311225Y-123460006D01*
X93329892Y-123685289D01*
X93385388Y-123904439D01*
X93476198Y-124111466D01*
X93599842Y-124300716D01*
X93599850Y-124300727D01*
X93752950Y-124467036D01*
X93752954Y-124467040D01*
X93931351Y-124605893D01*
X94130169Y-124713488D01*
X94130172Y-124713489D01*
X94343982Y-124786890D01*
X94343984Y-124786890D01*
X94343986Y-124786891D01*
X94566967Y-124824100D01*
X94566968Y-124824100D01*
X94793032Y-124824100D01*
X94793033Y-124824100D01*
X95016014Y-124786891D01*
X95229831Y-124713488D01*
X95428649Y-124605893D01*
X95607046Y-124467040D01*
X95760156Y-124300719D01*
X95846193Y-124169028D01*
X95899338Y-124123675D01*
X95968569Y-124114251D01*
X96031905Y-124143753D01*
X96053804Y-124169025D01*
X96139844Y-124300719D01*
X96139849Y-124300724D01*
X96139850Y-124300727D01*
X96292950Y-124467036D01*
X96292954Y-124467040D01*
X96471351Y-124605893D01*
X96670169Y-124713488D01*
X96670172Y-124713489D01*
X96883982Y-124786890D01*
X96883984Y-124786890D01*
X96883986Y-124786891D01*
X97106967Y-124824100D01*
X97106968Y-124824100D01*
X97333032Y-124824100D01*
X97333033Y-124824100D01*
X97556014Y-124786891D01*
X97769831Y-124713488D01*
X97968649Y-124605893D01*
X98147046Y-124467040D01*
X98300156Y-124300719D01*
X98386193Y-124169028D01*
X98439338Y-124123675D01*
X98508569Y-124114251D01*
X98571905Y-124143753D01*
X98593804Y-124169025D01*
X98679844Y-124300719D01*
X98679849Y-124300724D01*
X98679850Y-124300727D01*
X98832950Y-124467036D01*
X98832954Y-124467040D01*
X99011351Y-124605893D01*
X99210169Y-124713488D01*
X99210172Y-124713489D01*
X99423982Y-124786890D01*
X99423984Y-124786890D01*
X99423986Y-124786891D01*
X99646967Y-124824100D01*
X99646968Y-124824100D01*
X99873032Y-124824100D01*
X99873033Y-124824100D01*
X100096014Y-124786891D01*
X100309831Y-124713488D01*
X100508649Y-124605893D01*
X100687046Y-124467040D01*
X100840156Y-124300719D01*
X100926193Y-124169028D01*
X100979338Y-124123675D01*
X101048569Y-124114251D01*
X101111905Y-124143753D01*
X101133804Y-124169025D01*
X101219844Y-124300719D01*
X101219849Y-124300724D01*
X101219850Y-124300727D01*
X101372950Y-124467036D01*
X101372954Y-124467040D01*
X101551351Y-124605893D01*
X101750169Y-124713488D01*
X101750172Y-124713489D01*
X101963982Y-124786890D01*
X101963984Y-124786890D01*
X101963986Y-124786891D01*
X102186967Y-124824100D01*
X102186968Y-124824100D01*
X102413032Y-124824100D01*
X102413033Y-124824100D01*
X102636014Y-124786891D01*
X102849831Y-124713488D01*
X103048649Y-124605893D01*
X103227046Y-124467040D01*
X103380156Y-124300719D01*
X103466193Y-124169028D01*
X103519338Y-124123675D01*
X103588569Y-124114251D01*
X103651905Y-124143753D01*
X103673804Y-124169025D01*
X103759844Y-124300719D01*
X103759849Y-124300724D01*
X103759850Y-124300727D01*
X103912950Y-124467036D01*
X103912954Y-124467040D01*
X104091351Y-124605893D01*
X104290169Y-124713488D01*
X104290172Y-124713489D01*
X104503982Y-124786890D01*
X104503984Y-124786890D01*
X104503986Y-124786891D01*
X104726967Y-124824100D01*
X104726968Y-124824100D01*
X104953032Y-124824100D01*
X104953033Y-124824100D01*
X105176014Y-124786891D01*
X105389831Y-124713488D01*
X105588649Y-124605893D01*
X105767046Y-124467040D01*
X105920156Y-124300719D01*
X106043802Y-124111465D01*
X106134611Y-123904441D01*
X106190107Y-123685293D01*
X106199143Y-123576244D01*
X106208775Y-123460006D01*
X135221225Y-123460006D01*
X135239892Y-123685289D01*
X135295388Y-123904439D01*
X135386198Y-124111466D01*
X135509842Y-124300716D01*
X135509850Y-124300727D01*
X135662950Y-124467036D01*
X135662954Y-124467040D01*
X135841351Y-124605893D01*
X136040169Y-124713488D01*
X136040172Y-124713489D01*
X136253982Y-124786890D01*
X136253984Y-124786890D01*
X136253986Y-124786891D01*
X136476967Y-124824100D01*
X136476968Y-124824100D01*
X136703032Y-124824100D01*
X136703033Y-124824100D01*
X136926014Y-124786891D01*
X137139831Y-124713488D01*
X137338649Y-124605893D01*
X137517046Y-124467040D01*
X137670156Y-124300719D01*
X137756193Y-124169028D01*
X137809338Y-124123675D01*
X137878569Y-124114251D01*
X137941905Y-124143753D01*
X137963804Y-124169025D01*
X138049844Y-124300719D01*
X138049849Y-124300724D01*
X138049850Y-124300727D01*
X138202950Y-124467036D01*
X138202954Y-124467040D01*
X138381351Y-124605893D01*
X138580169Y-124713488D01*
X138580172Y-124713489D01*
X138793982Y-124786890D01*
X138793984Y-124786890D01*
X138793986Y-124786891D01*
X139016967Y-124824100D01*
X139016968Y-124824100D01*
X139243032Y-124824100D01*
X139243033Y-124824100D01*
X139466014Y-124786891D01*
X139679831Y-124713488D01*
X139878649Y-124605893D01*
X140057046Y-124467040D01*
X140210156Y-124300719D01*
X140296193Y-124169028D01*
X140349338Y-124123675D01*
X140418569Y-124114251D01*
X140481905Y-124143753D01*
X140503804Y-124169025D01*
X140589844Y-124300719D01*
X140589849Y-124300724D01*
X140589850Y-124300727D01*
X140742950Y-124467036D01*
X140742954Y-124467040D01*
X140921351Y-124605893D01*
X141120169Y-124713488D01*
X141120172Y-124713489D01*
X141333982Y-124786890D01*
X141333984Y-124786890D01*
X141333986Y-124786891D01*
X141556967Y-124824100D01*
X141556968Y-124824100D01*
X141783032Y-124824100D01*
X141783033Y-124824100D01*
X142006014Y-124786891D01*
X142219831Y-124713488D01*
X142418649Y-124605893D01*
X142597046Y-124467040D01*
X142750156Y-124300719D01*
X142836193Y-124169028D01*
X142889338Y-124123675D01*
X142958569Y-124114251D01*
X143021905Y-124143753D01*
X143043804Y-124169025D01*
X143129844Y-124300719D01*
X143129849Y-124300724D01*
X143129850Y-124300727D01*
X143282950Y-124467036D01*
X143282954Y-124467040D01*
X143461351Y-124605893D01*
X143660169Y-124713488D01*
X143660172Y-124713489D01*
X143873982Y-124786890D01*
X143873984Y-124786890D01*
X143873986Y-124786891D01*
X144096967Y-124824100D01*
X144096968Y-124824100D01*
X144323032Y-124824100D01*
X144323033Y-124824100D01*
X144546014Y-124786891D01*
X144759831Y-124713488D01*
X144958649Y-124605893D01*
X145137046Y-124467040D01*
X145290156Y-124300719D01*
X145376193Y-124169028D01*
X145429338Y-124123675D01*
X145498569Y-124114251D01*
X145561905Y-124143753D01*
X145583804Y-124169025D01*
X145669844Y-124300719D01*
X145669849Y-124300724D01*
X145669850Y-124300727D01*
X145822950Y-124467036D01*
X145822954Y-124467040D01*
X146001351Y-124605893D01*
X146200169Y-124713488D01*
X146200172Y-124713489D01*
X146413982Y-124786890D01*
X146413984Y-124786890D01*
X146413986Y-124786891D01*
X146636967Y-124824100D01*
X146636968Y-124824100D01*
X146863032Y-124824100D01*
X146863033Y-124824100D01*
X147086014Y-124786891D01*
X147299831Y-124713488D01*
X147498649Y-124605893D01*
X147677046Y-124467040D01*
X147731815Y-124407545D01*
X147791699Y-124371557D01*
X147861537Y-124373657D01*
X147919153Y-124413180D01*
X147939224Y-124448196D01*
X147983046Y-124565688D01*
X147983049Y-124565693D01*
X148069209Y-124680787D01*
X148069212Y-124680790D01*
X148184306Y-124766950D01*
X148184313Y-124766954D01*
X148319020Y-124817196D01*
X148319027Y-124817198D01*
X148378555Y-124823599D01*
X148378572Y-124823600D01*
X148790000Y-124823600D01*
X148790000Y-123556736D01*
X148816619Y-123656081D01*
X148883498Y-123771920D01*
X148978080Y-123866502D01*
X149093919Y-123933381D01*
X149223120Y-123968000D01*
X149356880Y-123968000D01*
X149386737Y-123960000D01*
X149790000Y-123960000D01*
X149790000Y-124823600D01*
X150201428Y-124823600D01*
X150201444Y-124823599D01*
X150260972Y-124817198D01*
X150260979Y-124817196D01*
X150395686Y-124766954D01*
X150395689Y-124766952D01*
X150485688Y-124699579D01*
X150551152Y-124675161D01*
X150619426Y-124690012D01*
X150634312Y-124699579D01*
X150724310Y-124766952D01*
X150724313Y-124766954D01*
X150859020Y-124817196D01*
X150859027Y-124817198D01*
X150918555Y-124823599D01*
X150918572Y-124823600D01*
X151330000Y-124823600D01*
X151330000Y-123960000D01*
X149790000Y-123960000D01*
X149386737Y-123960000D01*
X149486081Y-123933381D01*
X149601920Y-123866502D01*
X149696502Y-123771920D01*
X149763381Y-123656081D01*
X149798000Y-123526880D01*
X151322000Y-123526880D01*
X151356619Y-123656081D01*
X151423498Y-123771920D01*
X151518080Y-123866502D01*
X151633919Y-123933381D01*
X151763120Y-123968000D01*
X151896880Y-123968000D01*
X152026081Y-123933381D01*
X152141920Y-123866502D01*
X152236502Y-123771920D01*
X152303381Y-123656081D01*
X152330000Y-123556736D01*
X152330000Y-124823600D01*
X152741428Y-124823600D01*
X152741444Y-124823599D01*
X152800972Y-124817198D01*
X152800979Y-124817196D01*
X152935686Y-124766954D01*
X152935693Y-124766950D01*
X153050787Y-124680790D01*
X153050790Y-124680787D01*
X153136950Y-124565693D01*
X153136954Y-124565686D01*
X153180775Y-124448197D01*
X153222646Y-124392263D01*
X153288110Y-124367846D01*
X153356383Y-124382698D01*
X153388186Y-124407547D01*
X153442950Y-124467036D01*
X153442954Y-124467040D01*
X153621351Y-124605893D01*
X153820169Y-124713488D01*
X153820172Y-124713489D01*
X154033982Y-124786890D01*
X154033984Y-124786890D01*
X154033986Y-124786891D01*
X154256967Y-124824100D01*
X154256968Y-124824100D01*
X154483032Y-124824100D01*
X154483033Y-124824100D01*
X154706014Y-124786891D01*
X154919831Y-124713488D01*
X155118649Y-124605893D01*
X155297046Y-124467040D01*
X155450156Y-124300719D01*
X155573802Y-124111465D01*
X155664611Y-123904441D01*
X155720107Y-123685293D01*
X155729143Y-123576244D01*
X155738775Y-123460006D01*
X158081225Y-123460006D01*
X158099892Y-123685289D01*
X158155388Y-123904439D01*
X158246198Y-124111466D01*
X158369842Y-124300716D01*
X158369850Y-124300727D01*
X158522950Y-124467036D01*
X158522954Y-124467040D01*
X158701351Y-124605893D01*
X158900169Y-124713488D01*
X158900172Y-124713489D01*
X159113982Y-124786890D01*
X159113984Y-124786890D01*
X159113986Y-124786891D01*
X159336967Y-124824100D01*
X159336968Y-124824100D01*
X159563032Y-124824100D01*
X159563033Y-124824100D01*
X159786014Y-124786891D01*
X159999831Y-124713488D01*
X160198649Y-124605893D01*
X160377046Y-124467040D01*
X160530156Y-124300719D01*
X160616193Y-124169028D01*
X160669338Y-124123675D01*
X160738569Y-124114251D01*
X160801905Y-124143753D01*
X160823804Y-124169025D01*
X160909844Y-124300719D01*
X160909849Y-124300724D01*
X160909850Y-124300727D01*
X161062950Y-124467036D01*
X161062954Y-124467040D01*
X161241351Y-124605893D01*
X161440169Y-124713488D01*
X161440172Y-124713489D01*
X161653982Y-124786890D01*
X161653984Y-124786890D01*
X161653986Y-124786891D01*
X161876967Y-124824100D01*
X161876968Y-124824100D01*
X162103032Y-124824100D01*
X162103033Y-124824100D01*
X162326014Y-124786891D01*
X162539831Y-124713488D01*
X162738649Y-124605893D01*
X162917046Y-124467040D01*
X163070156Y-124300719D01*
X163156193Y-124169028D01*
X163209338Y-124123675D01*
X163278569Y-124114251D01*
X163341905Y-124143753D01*
X163363804Y-124169025D01*
X163449844Y-124300719D01*
X163449849Y-124300724D01*
X163449850Y-124300727D01*
X163602950Y-124467036D01*
X163602954Y-124467040D01*
X163781351Y-124605893D01*
X163980169Y-124713488D01*
X163980172Y-124713489D01*
X164193982Y-124786890D01*
X164193984Y-124786890D01*
X164193986Y-124786891D01*
X164416967Y-124824100D01*
X164416968Y-124824100D01*
X164643032Y-124824100D01*
X164643033Y-124824100D01*
X164866014Y-124786891D01*
X165079831Y-124713488D01*
X165278649Y-124605893D01*
X165457046Y-124467040D01*
X165610156Y-124300719D01*
X165696193Y-124169028D01*
X165749338Y-124123675D01*
X165818569Y-124114251D01*
X165881905Y-124143753D01*
X165903804Y-124169025D01*
X165989844Y-124300719D01*
X165989849Y-124300724D01*
X165989850Y-124300727D01*
X166142950Y-124467036D01*
X166142954Y-124467040D01*
X166321351Y-124605893D01*
X166520169Y-124713488D01*
X166520172Y-124713489D01*
X166733982Y-124786890D01*
X166733984Y-124786890D01*
X166733986Y-124786891D01*
X166956967Y-124824100D01*
X166956968Y-124824100D01*
X167183032Y-124824100D01*
X167183033Y-124824100D01*
X167406014Y-124786891D01*
X167619831Y-124713488D01*
X167818649Y-124605893D01*
X167997046Y-124467040D01*
X168150156Y-124300719D01*
X168236193Y-124169028D01*
X168289338Y-124123675D01*
X168358569Y-124114251D01*
X168421905Y-124143753D01*
X168443804Y-124169025D01*
X168529844Y-124300719D01*
X168529849Y-124300724D01*
X168529850Y-124300727D01*
X168682950Y-124467036D01*
X168682954Y-124467040D01*
X168861351Y-124605893D01*
X169060169Y-124713488D01*
X169060172Y-124713489D01*
X169273982Y-124786890D01*
X169273984Y-124786890D01*
X169273986Y-124786891D01*
X169496967Y-124824100D01*
X169496968Y-124824100D01*
X169723032Y-124824100D01*
X169723033Y-124824100D01*
X169946014Y-124786891D01*
X170159831Y-124713488D01*
X170358649Y-124605893D01*
X170537046Y-124467040D01*
X170690156Y-124300719D01*
X170776193Y-124169028D01*
X170829338Y-124123675D01*
X170898569Y-124114251D01*
X170961905Y-124143753D01*
X170983804Y-124169025D01*
X171069844Y-124300719D01*
X171069849Y-124300724D01*
X171069850Y-124300727D01*
X171222950Y-124467036D01*
X171222954Y-124467040D01*
X171401351Y-124605893D01*
X171600169Y-124713488D01*
X171600172Y-124713489D01*
X171813982Y-124786890D01*
X171813984Y-124786890D01*
X171813986Y-124786891D01*
X172036967Y-124824100D01*
X172036968Y-124824100D01*
X172263032Y-124824100D01*
X172263033Y-124824100D01*
X172486014Y-124786891D01*
X172699831Y-124713488D01*
X172898649Y-124605893D01*
X173077046Y-124467040D01*
X173230156Y-124300719D01*
X173353802Y-124111465D01*
X173444611Y-123904441D01*
X173500107Y-123685293D01*
X173509143Y-123576244D01*
X173518775Y-123460006D01*
X173518775Y-123459993D01*
X173505707Y-123302294D01*
X173500107Y-123234707D01*
X173444611Y-123015559D01*
X173353802Y-122808535D01*
X173319514Y-122756054D01*
X173230157Y-122619283D01*
X173230149Y-122619272D01*
X173077049Y-122452963D01*
X173077048Y-122452962D01*
X173077046Y-122452960D01*
X172898649Y-122314107D01*
X172872390Y-122299896D01*
X172699832Y-122206512D01*
X172699827Y-122206510D01*
X172486017Y-122133109D01*
X172304388Y-122102801D01*
X172263033Y-122095900D01*
X172036967Y-122095900D01*
X171995612Y-122102801D01*
X171813982Y-122133109D01*
X171600172Y-122206510D01*
X171600167Y-122206512D01*
X171401352Y-122314106D01*
X171222955Y-122452959D01*
X171222950Y-122452963D01*
X171069850Y-122619272D01*
X171069842Y-122619283D01*
X170983808Y-122750968D01*
X170930662Y-122796325D01*
X170861430Y-122805748D01*
X170798095Y-122776246D01*
X170776192Y-122750968D01*
X170690157Y-122619283D01*
X170690149Y-122619272D01*
X170537049Y-122452963D01*
X170537048Y-122452962D01*
X170537046Y-122452960D01*
X170358649Y-122314107D01*
X170332390Y-122299896D01*
X170159832Y-122206512D01*
X170159827Y-122206510D01*
X169946017Y-122133109D01*
X169764388Y-122102801D01*
X169723033Y-122095900D01*
X169496967Y-122095900D01*
X169455612Y-122102801D01*
X169273982Y-122133109D01*
X169060172Y-122206510D01*
X169060167Y-122206512D01*
X168861352Y-122314106D01*
X168682955Y-122452959D01*
X168682950Y-122452963D01*
X168529850Y-122619272D01*
X168529842Y-122619283D01*
X168443808Y-122750968D01*
X168390662Y-122796325D01*
X168321430Y-122805748D01*
X168258095Y-122776246D01*
X168236192Y-122750968D01*
X168150157Y-122619283D01*
X168150149Y-122619272D01*
X167997049Y-122452963D01*
X167997048Y-122452962D01*
X167997046Y-122452960D01*
X167818649Y-122314107D01*
X167792390Y-122299896D01*
X167619832Y-122206512D01*
X167619827Y-122206510D01*
X167406017Y-122133109D01*
X167224388Y-122102801D01*
X167183033Y-122095900D01*
X166956967Y-122095900D01*
X166915612Y-122102801D01*
X166733982Y-122133109D01*
X166520172Y-122206510D01*
X166520167Y-122206512D01*
X166321352Y-122314106D01*
X166142955Y-122452959D01*
X166142950Y-122452963D01*
X165989850Y-122619272D01*
X165989842Y-122619283D01*
X165903808Y-122750968D01*
X165850662Y-122796325D01*
X165781430Y-122805748D01*
X165718095Y-122776246D01*
X165696192Y-122750968D01*
X165610157Y-122619283D01*
X165610149Y-122619272D01*
X165457049Y-122452963D01*
X165457048Y-122452962D01*
X165457046Y-122452960D01*
X165278649Y-122314107D01*
X165252390Y-122299896D01*
X165079832Y-122206512D01*
X165079827Y-122206510D01*
X164866017Y-122133109D01*
X164684388Y-122102801D01*
X164643033Y-122095900D01*
X164416967Y-122095900D01*
X164375612Y-122102801D01*
X164193982Y-122133109D01*
X163980172Y-122206510D01*
X163980167Y-122206512D01*
X163781352Y-122314106D01*
X163602955Y-122452959D01*
X163602950Y-122452963D01*
X163449850Y-122619272D01*
X163449842Y-122619283D01*
X163363808Y-122750968D01*
X163310662Y-122796325D01*
X163241430Y-122805748D01*
X163178095Y-122776246D01*
X163156192Y-122750968D01*
X163070157Y-122619283D01*
X163070149Y-122619272D01*
X162917049Y-122452963D01*
X162917048Y-122452962D01*
X162917046Y-122452960D01*
X162738649Y-122314107D01*
X162712390Y-122299896D01*
X162539832Y-122206512D01*
X162539827Y-122206510D01*
X162326017Y-122133109D01*
X162144388Y-122102801D01*
X162103033Y-122095900D01*
X161876967Y-122095900D01*
X161835612Y-122102801D01*
X161653982Y-122133109D01*
X161440172Y-122206510D01*
X161440167Y-122206512D01*
X161241352Y-122314106D01*
X161062955Y-122452959D01*
X161062950Y-122452963D01*
X160909850Y-122619272D01*
X160909842Y-122619283D01*
X160823808Y-122750968D01*
X160770662Y-122796325D01*
X160701430Y-122805748D01*
X160638095Y-122776246D01*
X160616192Y-122750968D01*
X160530157Y-122619283D01*
X160530149Y-122619272D01*
X160377049Y-122452963D01*
X160377048Y-122452962D01*
X160377046Y-122452960D01*
X160198649Y-122314107D01*
X160172390Y-122299896D01*
X159999832Y-122206512D01*
X159999827Y-122206510D01*
X159786017Y-122133109D01*
X159604388Y-122102801D01*
X159563033Y-122095900D01*
X159336967Y-122095900D01*
X159295612Y-122102801D01*
X159113982Y-122133109D01*
X158900172Y-122206510D01*
X158900167Y-122206512D01*
X158701352Y-122314106D01*
X158522955Y-122452959D01*
X158522950Y-122452963D01*
X158369850Y-122619272D01*
X158369842Y-122619283D01*
X158246198Y-122808533D01*
X158155388Y-123015560D01*
X158099892Y-123234710D01*
X158081225Y-123459993D01*
X158081225Y-123460006D01*
X155738775Y-123460006D01*
X155738775Y-123459993D01*
X155725707Y-123302294D01*
X155720107Y-123234707D01*
X155664611Y-123015559D01*
X155573802Y-122808535D01*
X155539514Y-122756054D01*
X155450157Y-122619283D01*
X155450149Y-122619272D01*
X155297049Y-122452963D01*
X155297048Y-122452962D01*
X155297046Y-122452960D01*
X155118649Y-122314107D01*
X155092390Y-122299896D01*
X154919832Y-122206512D01*
X154919827Y-122206510D01*
X154706017Y-122133109D01*
X154524388Y-122102801D01*
X154483033Y-122095900D01*
X154256967Y-122095900D01*
X154215612Y-122102801D01*
X154033982Y-122133109D01*
X153820172Y-122206510D01*
X153820167Y-122206512D01*
X153621352Y-122314106D01*
X153442955Y-122452958D01*
X153388186Y-122512453D01*
X153328298Y-122548443D01*
X153258460Y-122546342D01*
X153200845Y-122506817D01*
X153180775Y-122471802D01*
X153136954Y-122354313D01*
X153136950Y-122354306D01*
X153050790Y-122239212D01*
X153050787Y-122239209D01*
X152935693Y-122153049D01*
X152935686Y-122153045D01*
X152800979Y-122102803D01*
X152800972Y-122102801D01*
X152741444Y-122096400D01*
X152330000Y-122096400D01*
X152330000Y-123363263D01*
X152303381Y-123263919D01*
X152236502Y-123148080D01*
X152141920Y-123053498D01*
X152026081Y-122986619D01*
X151896880Y-122952000D01*
X151763120Y-122952000D01*
X151633919Y-122986619D01*
X151518080Y-123053498D01*
X151423498Y-123148080D01*
X151356619Y-123263919D01*
X151322000Y-123393120D01*
X151322000Y-123526880D01*
X149798000Y-123526880D01*
X149798000Y-123393120D01*
X149763381Y-123263919D01*
X149696502Y-123148080D01*
X149601920Y-123053498D01*
X149486081Y-122986619D01*
X149356880Y-122952000D01*
X149223120Y-122952000D01*
X149093919Y-122986619D01*
X148978080Y-123053498D01*
X148883498Y-123148080D01*
X148816619Y-123263919D01*
X148790000Y-123363263D01*
X148790000Y-122096400D01*
X149790000Y-122096400D01*
X149790000Y-122960000D01*
X151330000Y-122960000D01*
X151330000Y-122096400D01*
X150918555Y-122096400D01*
X150859027Y-122102801D01*
X150859020Y-122102803D01*
X150724313Y-122153045D01*
X150724311Y-122153047D01*
X150634311Y-122220421D01*
X150568847Y-122244838D01*
X150500574Y-122229987D01*
X150485689Y-122220421D01*
X150395688Y-122153047D01*
X150395686Y-122153045D01*
X150260979Y-122102803D01*
X150260972Y-122102801D01*
X150201444Y-122096400D01*
X149790000Y-122096400D01*
X148790000Y-122096400D01*
X148378555Y-122096400D01*
X148319027Y-122102801D01*
X148319020Y-122102803D01*
X148184313Y-122153045D01*
X148184306Y-122153049D01*
X148069212Y-122239209D01*
X148069209Y-122239212D01*
X147983049Y-122354306D01*
X147983046Y-122354312D01*
X147939224Y-122471803D01*
X147897352Y-122527736D01*
X147831887Y-122552153D01*
X147763615Y-122537301D01*
X147731813Y-122512452D01*
X147677049Y-122452963D01*
X147677048Y-122452962D01*
X147677046Y-122452960D01*
X147498649Y-122314107D01*
X147472390Y-122299896D01*
X147299832Y-122206512D01*
X147299827Y-122206510D01*
X147086017Y-122133109D01*
X146904388Y-122102801D01*
X146863033Y-122095900D01*
X146636967Y-122095900D01*
X146595612Y-122102801D01*
X146413982Y-122133109D01*
X146200172Y-122206510D01*
X146200167Y-122206512D01*
X146001352Y-122314106D01*
X145822955Y-122452959D01*
X145822950Y-122452963D01*
X145669850Y-122619272D01*
X145669842Y-122619283D01*
X145583808Y-122750968D01*
X145530662Y-122796325D01*
X145461430Y-122805748D01*
X145398095Y-122776246D01*
X145376192Y-122750968D01*
X145290157Y-122619283D01*
X145290149Y-122619272D01*
X145137049Y-122452963D01*
X145137048Y-122452962D01*
X145137046Y-122452960D01*
X144958649Y-122314107D01*
X144932390Y-122299896D01*
X144759832Y-122206512D01*
X144759827Y-122206510D01*
X144546017Y-122133109D01*
X144364388Y-122102801D01*
X144323033Y-122095900D01*
X144096967Y-122095900D01*
X144055612Y-122102801D01*
X143873982Y-122133109D01*
X143660172Y-122206510D01*
X143660167Y-122206512D01*
X143461352Y-122314106D01*
X143282955Y-122452959D01*
X143282950Y-122452963D01*
X143129850Y-122619272D01*
X143129842Y-122619283D01*
X143043808Y-122750968D01*
X142990662Y-122796325D01*
X142921430Y-122805748D01*
X142858095Y-122776246D01*
X142836192Y-122750968D01*
X142750157Y-122619283D01*
X142750149Y-122619272D01*
X142597049Y-122452963D01*
X142597048Y-122452962D01*
X142597046Y-122452960D01*
X142418649Y-122314107D01*
X142392390Y-122299896D01*
X142219832Y-122206512D01*
X142219827Y-122206510D01*
X142006017Y-122133109D01*
X141824388Y-122102801D01*
X141783033Y-122095900D01*
X141556967Y-122095900D01*
X141515612Y-122102801D01*
X141333982Y-122133109D01*
X141120172Y-122206510D01*
X141120167Y-122206512D01*
X140921352Y-122314106D01*
X140742955Y-122452959D01*
X140742950Y-122452963D01*
X140589850Y-122619272D01*
X140589842Y-122619283D01*
X140503808Y-122750968D01*
X140450662Y-122796325D01*
X140381430Y-122805748D01*
X140318095Y-122776246D01*
X140296192Y-122750968D01*
X140210157Y-122619283D01*
X140210149Y-122619272D01*
X140057049Y-122452963D01*
X140057048Y-122452962D01*
X140057046Y-122452960D01*
X139878649Y-122314107D01*
X139852390Y-122299896D01*
X139679832Y-122206512D01*
X139679827Y-122206510D01*
X139466017Y-122133109D01*
X139284388Y-122102801D01*
X139243033Y-122095900D01*
X139016967Y-122095900D01*
X138975612Y-122102801D01*
X138793982Y-122133109D01*
X138580172Y-122206510D01*
X138580167Y-122206512D01*
X138381352Y-122314106D01*
X138202955Y-122452959D01*
X138202950Y-122452963D01*
X138049850Y-122619272D01*
X138049842Y-122619283D01*
X137963808Y-122750968D01*
X137910662Y-122796325D01*
X137841430Y-122805748D01*
X137778095Y-122776246D01*
X137756192Y-122750968D01*
X137670157Y-122619283D01*
X137670149Y-122619272D01*
X137517049Y-122452963D01*
X137517048Y-122452962D01*
X137517046Y-122452960D01*
X137338649Y-122314107D01*
X137312390Y-122299896D01*
X137139832Y-122206512D01*
X137139827Y-122206510D01*
X136926017Y-122133109D01*
X136744388Y-122102801D01*
X136703033Y-122095900D01*
X136476967Y-122095900D01*
X136435612Y-122102801D01*
X136253982Y-122133109D01*
X136040172Y-122206510D01*
X136040167Y-122206512D01*
X135841352Y-122314106D01*
X135662955Y-122452959D01*
X135662950Y-122452963D01*
X135509850Y-122619272D01*
X135509842Y-122619283D01*
X135386198Y-122808533D01*
X135295388Y-123015560D01*
X135239892Y-123234710D01*
X135221225Y-123459993D01*
X135221225Y-123460006D01*
X106208775Y-123460006D01*
X106208775Y-123459993D01*
X106195707Y-123302294D01*
X106190107Y-123234707D01*
X106134611Y-123015559D01*
X106043802Y-122808535D01*
X106009514Y-122756054D01*
X105920157Y-122619283D01*
X105920149Y-122619272D01*
X105767049Y-122452963D01*
X105767048Y-122452962D01*
X105767046Y-122452960D01*
X105588649Y-122314107D01*
X105562390Y-122299896D01*
X105389832Y-122206512D01*
X105389827Y-122206510D01*
X105176017Y-122133109D01*
X104994388Y-122102801D01*
X104953033Y-122095900D01*
X104726967Y-122095900D01*
X104685612Y-122102801D01*
X104503982Y-122133109D01*
X104290172Y-122206510D01*
X104290167Y-122206512D01*
X104091352Y-122314106D01*
X103912955Y-122452959D01*
X103912950Y-122452963D01*
X103759850Y-122619272D01*
X103759842Y-122619283D01*
X103673808Y-122750968D01*
X103620662Y-122796325D01*
X103551430Y-122805748D01*
X103488095Y-122776246D01*
X103466192Y-122750968D01*
X103380157Y-122619283D01*
X103380149Y-122619272D01*
X103227049Y-122452963D01*
X103227048Y-122452962D01*
X103227046Y-122452960D01*
X103048649Y-122314107D01*
X103022390Y-122299896D01*
X102849832Y-122206512D01*
X102849827Y-122206510D01*
X102636017Y-122133109D01*
X102454388Y-122102801D01*
X102413033Y-122095900D01*
X102186967Y-122095900D01*
X102145612Y-122102801D01*
X101963982Y-122133109D01*
X101750172Y-122206510D01*
X101750167Y-122206512D01*
X101551352Y-122314106D01*
X101372955Y-122452959D01*
X101372950Y-122452963D01*
X101219850Y-122619272D01*
X101219842Y-122619283D01*
X101133808Y-122750968D01*
X101080662Y-122796325D01*
X101011430Y-122805748D01*
X100948095Y-122776246D01*
X100926192Y-122750968D01*
X100840157Y-122619283D01*
X100840149Y-122619272D01*
X100687049Y-122452963D01*
X100687048Y-122452962D01*
X100687046Y-122452960D01*
X100508649Y-122314107D01*
X100482390Y-122299896D01*
X100309832Y-122206512D01*
X100309827Y-122206510D01*
X100096017Y-122133109D01*
X99914388Y-122102801D01*
X99873033Y-122095900D01*
X99646967Y-122095900D01*
X99605612Y-122102801D01*
X99423982Y-122133109D01*
X99210172Y-122206510D01*
X99210167Y-122206512D01*
X99011352Y-122314106D01*
X98832955Y-122452959D01*
X98832950Y-122452963D01*
X98679850Y-122619272D01*
X98679842Y-122619283D01*
X98593808Y-122750968D01*
X98540662Y-122796325D01*
X98471430Y-122805748D01*
X98408095Y-122776246D01*
X98386192Y-122750968D01*
X98300157Y-122619283D01*
X98300149Y-122619272D01*
X98147049Y-122452963D01*
X98147048Y-122452962D01*
X98147046Y-122452960D01*
X97968649Y-122314107D01*
X97942390Y-122299896D01*
X97769832Y-122206512D01*
X97769827Y-122206510D01*
X97556017Y-122133109D01*
X97374388Y-122102801D01*
X97333033Y-122095900D01*
X97106967Y-122095900D01*
X97065612Y-122102801D01*
X96883982Y-122133109D01*
X96670172Y-122206510D01*
X96670167Y-122206512D01*
X96471352Y-122314106D01*
X96292955Y-122452959D01*
X96292950Y-122452963D01*
X96139850Y-122619272D01*
X96139842Y-122619283D01*
X96053808Y-122750968D01*
X96000662Y-122796325D01*
X95931430Y-122805748D01*
X95868095Y-122776246D01*
X95846192Y-122750968D01*
X95760157Y-122619283D01*
X95760149Y-122619272D01*
X95607049Y-122452963D01*
X95607048Y-122452962D01*
X95607046Y-122452960D01*
X95428649Y-122314107D01*
X95402390Y-122299896D01*
X95229832Y-122206512D01*
X95229827Y-122206510D01*
X95016017Y-122133109D01*
X94834388Y-122102801D01*
X94793033Y-122095900D01*
X94566967Y-122095900D01*
X94525612Y-122102801D01*
X94343982Y-122133109D01*
X94130172Y-122206510D01*
X94130167Y-122206512D01*
X93931352Y-122314106D01*
X93752955Y-122452959D01*
X93752950Y-122452963D01*
X93599850Y-122619272D01*
X93599842Y-122619283D01*
X93476198Y-122808533D01*
X93385388Y-123015560D01*
X93329892Y-123234710D01*
X93311225Y-123459993D01*
X93311225Y-123460006D01*
X84737266Y-123460006D01*
X84694655Y-123393120D01*
X84606223Y-123254309D01*
X84600816Y-123244942D01*
X84481407Y-123015560D01*
X84424566Y-122906369D01*
X84419997Y-122896572D01*
X84273920Y-122543911D01*
X84270224Y-122533755D01*
X84155442Y-122169710D01*
X84152648Y-122159284D01*
X84070025Y-121786597D01*
X84068152Y-121775971D01*
X84018326Y-121397506D01*
X84017386Y-121386771D01*
X84005795Y-121121288D01*
X86649500Y-121121288D01*
X86681161Y-121361785D01*
X86743947Y-121596104D01*
X86836773Y-121820205D01*
X86836776Y-121820212D01*
X86958064Y-122030289D01*
X86958066Y-122030292D01*
X86958067Y-122030293D01*
X87105733Y-122222736D01*
X87105739Y-122222743D01*
X87277256Y-122394260D01*
X87277262Y-122394265D01*
X87469711Y-122541936D01*
X87679788Y-122663224D01*
X87903900Y-122756054D01*
X88138211Y-122818838D01*
X88318586Y-122842584D01*
X88378711Y-122850500D01*
X88378712Y-122850500D01*
X88621289Y-122850500D01*
X88669388Y-122844167D01*
X88861789Y-122818838D01*
X89096100Y-122756054D01*
X89320212Y-122663224D01*
X89530289Y-122541936D01*
X89722738Y-122394265D01*
X89894265Y-122222738D01*
X90041936Y-122030289D01*
X90163224Y-121820212D01*
X90256054Y-121596100D01*
X90318838Y-121361789D01*
X90350500Y-121121288D01*
X176649500Y-121121288D01*
X176681161Y-121361785D01*
X176743947Y-121596104D01*
X176836773Y-121820205D01*
X176836776Y-121820212D01*
X176958064Y-122030289D01*
X176958066Y-122030292D01*
X176958067Y-122030293D01*
X177105733Y-122222736D01*
X177105739Y-122222743D01*
X177277256Y-122394260D01*
X177277262Y-122394265D01*
X177469711Y-122541936D01*
X177679788Y-122663224D01*
X177903900Y-122756054D01*
X178138211Y-122818838D01*
X178318586Y-122842584D01*
X178378711Y-122850500D01*
X178378712Y-122850500D01*
X178621289Y-122850500D01*
X178669388Y-122844167D01*
X178861789Y-122818838D01*
X179096100Y-122756054D01*
X179320212Y-122663224D01*
X179530289Y-122541936D01*
X179722738Y-122394265D01*
X179894265Y-122222738D01*
X180041936Y-122030289D01*
X180163224Y-121820212D01*
X180256054Y-121596100D01*
X180318838Y-121361789D01*
X180350500Y-121121288D01*
X180350500Y-120878712D01*
X180318838Y-120638211D01*
X180256054Y-120403900D01*
X180163224Y-120179788D01*
X180041936Y-119969711D01*
X179894265Y-119777262D01*
X179894260Y-119777256D01*
X179722743Y-119605739D01*
X179722736Y-119605733D01*
X179530293Y-119458067D01*
X179530292Y-119458066D01*
X179530289Y-119458064D01*
X179320212Y-119336776D01*
X179320205Y-119336773D01*
X179096104Y-119243947D01*
X178861785Y-119181161D01*
X178621289Y-119149500D01*
X178621288Y-119149500D01*
X178378712Y-119149500D01*
X178378711Y-119149500D01*
X178138214Y-119181161D01*
X177903895Y-119243947D01*
X177679794Y-119336773D01*
X177679785Y-119336777D01*
X177469706Y-119458067D01*
X177277263Y-119605733D01*
X177277256Y-119605739D01*
X177105739Y-119777256D01*
X177105733Y-119777263D01*
X176958067Y-119969706D01*
X176836777Y-120179785D01*
X176836773Y-120179794D01*
X176743947Y-120403895D01*
X176681161Y-120638214D01*
X176649500Y-120878711D01*
X176649500Y-121121288D01*
X90350500Y-121121288D01*
X90350500Y-120878712D01*
X90318838Y-120638211D01*
X90256054Y-120403900D01*
X90163224Y-120179788D01*
X90041936Y-119969711D01*
X89894265Y-119777262D01*
X89894260Y-119777256D01*
X89722743Y-119605739D01*
X89722736Y-119605733D01*
X89530293Y-119458067D01*
X89530292Y-119458066D01*
X89530289Y-119458064D01*
X89320212Y-119336776D01*
X89320205Y-119336773D01*
X89096104Y-119243947D01*
X88861785Y-119181161D01*
X88621289Y-119149500D01*
X88621288Y-119149500D01*
X88378712Y-119149500D01*
X88378711Y-119149500D01*
X88138214Y-119181161D01*
X87903895Y-119243947D01*
X87679794Y-119336773D01*
X87679785Y-119336777D01*
X87469706Y-119458067D01*
X87277263Y-119605733D01*
X87277256Y-119605739D01*
X87105739Y-119777256D01*
X87105733Y-119777263D01*
X86958067Y-119969706D01*
X86836777Y-120179785D01*
X86836773Y-120179794D01*
X86743947Y-120403895D01*
X86681161Y-120638214D01*
X86649500Y-120878711D01*
X86649500Y-121121288D01*
X84005795Y-121121288D01*
X84000618Y-121002702D01*
X84000500Y-120997293D01*
X84000500Y-80800000D01*
X110310000Y-80800000D01*
X110310000Y-82327844D01*
X110316401Y-82387372D01*
X110316403Y-82387379D01*
X110366645Y-82522086D01*
X110366649Y-82522093D01*
X110452809Y-82637187D01*
X110452812Y-82637190D01*
X110567906Y-82723350D01*
X110567913Y-82723354D01*
X110702620Y-82773596D01*
X110702627Y-82773598D01*
X110762155Y-82779999D01*
X110762172Y-82780000D01*
X111300000Y-82780000D01*
X111300000Y-80800000D01*
X110310000Y-80800000D01*
X84000500Y-80800000D01*
X84000500Y-80365004D01*
X111140000Y-80365004D01*
X111165364Y-80492515D01*
X111215116Y-80612627D01*
X111287345Y-80720725D01*
X111379275Y-80812655D01*
X111487373Y-80884884D01*
X111607485Y-80934636D01*
X111734996Y-80960000D01*
X111865004Y-80960000D01*
X111992515Y-80934636D01*
X112112627Y-80884884D01*
X112220725Y-80812655D01*
X112233380Y-80800000D01*
X112300000Y-80800000D01*
X112300000Y-82780000D01*
X112837828Y-82780000D01*
X112837844Y-82779999D01*
X112897372Y-82773598D01*
X112897379Y-82773596D01*
X113032086Y-82723354D01*
X113032093Y-82723350D01*
X113147187Y-82637190D01*
X113147190Y-82637187D01*
X113233350Y-82522093D01*
X113233354Y-82522086D01*
X113283596Y-82387379D01*
X113283598Y-82387372D01*
X113289999Y-82327844D01*
X113290000Y-82327827D01*
X113290000Y-80800000D01*
X112300000Y-80800000D01*
X112233380Y-80800000D01*
X112312655Y-80720725D01*
X112384884Y-80612627D01*
X112434636Y-80492515D01*
X112460000Y-80365004D01*
X112460000Y-80234996D01*
X112434636Y-80107485D01*
X112384884Y-79987373D01*
X112312655Y-79879275D01*
X112220725Y-79787345D01*
X112112627Y-79715116D01*
X111992515Y-79665364D01*
X111865004Y-79640000D01*
X111734996Y-79640000D01*
X111607485Y-79665364D01*
X111487373Y-79715116D01*
X111379275Y-79787345D01*
X111287345Y-79879275D01*
X111215116Y-79987373D01*
X111165364Y-80107485D01*
X111140000Y-80234996D01*
X111140000Y-80365004D01*
X84000500Y-80365004D01*
X84000500Y-79800000D01*
X110310000Y-79800000D01*
X111300000Y-79800000D01*
X111300000Y-77820000D01*
X112300000Y-77820000D01*
X112300000Y-79800000D01*
X113290000Y-79800000D01*
X113290000Y-78272172D01*
X113289999Y-78272155D01*
X113283598Y-78212627D01*
X113283596Y-78212620D01*
X113233354Y-78077913D01*
X113233350Y-78077906D01*
X113147190Y-77962812D01*
X113147187Y-77962809D01*
X113032093Y-77876649D01*
X113032086Y-77876645D01*
X112897379Y-77826403D01*
X112897372Y-77826401D01*
X112837844Y-77820000D01*
X112300000Y-77820000D01*
X111300000Y-77820000D01*
X110762155Y-77820000D01*
X110702627Y-77826401D01*
X110702620Y-77826403D01*
X110567913Y-77876645D01*
X110567906Y-77876649D01*
X110452812Y-77962809D01*
X110452809Y-77962812D01*
X110366649Y-78077906D01*
X110366645Y-78077913D01*
X110316403Y-78212620D01*
X110316401Y-78212627D01*
X110310000Y-78272155D01*
X110310000Y-79800000D01*
X84000500Y-79800000D01*
X84000500Y-77621288D01*
X86649500Y-77621288D01*
X86681161Y-77861785D01*
X86743947Y-78096104D01*
X86836773Y-78320205D01*
X86836777Y-78320214D01*
X86858974Y-78358661D01*
X86958064Y-78530289D01*
X86958066Y-78530292D01*
X86958067Y-78530293D01*
X87105733Y-78722736D01*
X87105739Y-78722743D01*
X87277256Y-78894260D01*
X87277262Y-78894265D01*
X87469711Y-79041936D01*
X87679788Y-79163224D01*
X87903900Y-79256054D01*
X88138211Y-79318838D01*
X88318586Y-79342584D01*
X88378711Y-79350500D01*
X88378712Y-79350500D01*
X88621289Y-79350500D01*
X88669388Y-79344167D01*
X88861789Y-79318838D01*
X89096100Y-79256054D01*
X89320212Y-79163224D01*
X89530289Y-79041936D01*
X89722738Y-78894265D01*
X89894265Y-78722738D01*
X90041936Y-78530289D01*
X90163224Y-78320212D01*
X90256054Y-78096100D01*
X90318838Y-77861789D01*
X90350500Y-77621288D01*
X90350500Y-77378712D01*
X90318838Y-77138211D01*
X90256054Y-76903900D01*
X90163224Y-76679788D01*
X90041936Y-76469711D01*
X89916077Y-76305688D01*
X89894266Y-76277263D01*
X89894260Y-76277256D01*
X89722743Y-76105739D01*
X89722736Y-76105733D01*
X89530293Y-75958067D01*
X89530292Y-75958066D01*
X89530289Y-75958064D01*
X89320212Y-75836776D01*
X89244862Y-75805565D01*
X89096104Y-75743947D01*
X88861785Y-75681161D01*
X88621289Y-75649500D01*
X88621288Y-75649500D01*
X88378712Y-75649500D01*
X88378711Y-75649500D01*
X88138214Y-75681161D01*
X87903895Y-75743947D01*
X87679794Y-75836773D01*
X87679785Y-75836777D01*
X87469706Y-75958067D01*
X87277263Y-76105733D01*
X87277256Y-76105739D01*
X87105739Y-76277256D01*
X87105733Y-76277263D01*
X86958067Y-76469706D01*
X86836777Y-76679785D01*
X86836773Y-76679794D01*
X86743947Y-76903895D01*
X86681161Y-77138214D01*
X86649500Y-77378711D01*
X86649500Y-77621288D01*
X84000500Y-77621288D01*
X84000500Y-77502706D01*
X84000618Y-77497297D01*
X84003377Y-77434108D01*
X84017386Y-77113226D01*
X84018326Y-77102495D01*
X84068152Y-76724025D01*
X84070025Y-76713405D01*
X84152649Y-76340709D01*
X84155440Y-76330295D01*
X84270230Y-75966227D01*
X84273917Y-75956095D01*
X84420003Y-75603412D01*
X84424561Y-75593638D01*
X84600822Y-75255045D01*
X84606217Y-75245700D01*
X84635327Y-75200006D01*
X93311225Y-75200006D01*
X93329892Y-75425289D01*
X93385388Y-75644439D01*
X93476198Y-75851466D01*
X93599842Y-76040716D01*
X93599850Y-76040727D01*
X93752950Y-76207036D01*
X93752954Y-76207040D01*
X93931351Y-76345893D01*
X94130169Y-76453488D01*
X94130172Y-76453489D01*
X94343982Y-76526890D01*
X94343984Y-76526890D01*
X94343986Y-76526891D01*
X94566967Y-76564100D01*
X94566968Y-76564100D01*
X94793032Y-76564100D01*
X94793033Y-76564100D01*
X95016014Y-76526891D01*
X95229831Y-76453488D01*
X95428649Y-76345893D01*
X95607046Y-76207040D01*
X95760156Y-76040719D01*
X95846193Y-75909028D01*
X95899338Y-75863675D01*
X95968569Y-75854251D01*
X96031905Y-75883753D01*
X96053804Y-75909025D01*
X96139844Y-76040719D01*
X96139849Y-76040724D01*
X96139850Y-76040727D01*
X96292950Y-76207036D01*
X96292954Y-76207040D01*
X96471351Y-76345893D01*
X96670169Y-76453488D01*
X96670172Y-76453489D01*
X96883982Y-76526890D01*
X96883984Y-76526890D01*
X96883986Y-76526891D01*
X97106967Y-76564100D01*
X97106968Y-76564100D01*
X97333032Y-76564100D01*
X97333033Y-76564100D01*
X97556014Y-76526891D01*
X97769831Y-76453488D01*
X97968649Y-76345893D01*
X98147046Y-76207040D01*
X98300156Y-76040719D01*
X98386193Y-75909028D01*
X98439338Y-75863675D01*
X98508569Y-75854251D01*
X98571905Y-75883753D01*
X98593804Y-75909025D01*
X98679844Y-76040719D01*
X98679849Y-76040724D01*
X98679850Y-76040727D01*
X98832950Y-76207036D01*
X98832954Y-76207040D01*
X99011351Y-76345893D01*
X99210169Y-76453488D01*
X99210172Y-76453489D01*
X99423982Y-76526890D01*
X99423984Y-76526890D01*
X99423986Y-76526891D01*
X99646967Y-76564100D01*
X99646968Y-76564100D01*
X99873032Y-76564100D01*
X99873033Y-76564100D01*
X100096014Y-76526891D01*
X100309831Y-76453488D01*
X100508649Y-76345893D01*
X100687046Y-76207040D01*
X100840156Y-76040719D01*
X100926193Y-75909028D01*
X100979338Y-75863675D01*
X101048569Y-75854251D01*
X101111905Y-75883753D01*
X101133804Y-75909025D01*
X101219844Y-76040719D01*
X101219849Y-76040724D01*
X101219850Y-76040727D01*
X101372950Y-76207036D01*
X101372954Y-76207040D01*
X101551351Y-76345893D01*
X101750169Y-76453488D01*
X101750172Y-76453489D01*
X101963982Y-76526890D01*
X101963984Y-76526890D01*
X101963986Y-76526891D01*
X102186967Y-76564100D01*
X102186968Y-76564100D01*
X102413032Y-76564100D01*
X102413033Y-76564100D01*
X102636014Y-76526891D01*
X102849831Y-76453488D01*
X103048649Y-76345893D01*
X103227046Y-76207040D01*
X103380156Y-76040719D01*
X103466193Y-75909028D01*
X103519338Y-75863675D01*
X103588569Y-75854251D01*
X103651905Y-75883753D01*
X103673804Y-75909025D01*
X103759844Y-76040719D01*
X103759849Y-76040724D01*
X103759850Y-76040727D01*
X103912950Y-76207036D01*
X103912954Y-76207040D01*
X104091351Y-76345893D01*
X104290169Y-76453488D01*
X104290172Y-76453489D01*
X104503982Y-76526890D01*
X104503984Y-76526890D01*
X104503986Y-76526891D01*
X104726967Y-76564100D01*
X104726968Y-76564100D01*
X104953032Y-76564100D01*
X104953033Y-76564100D01*
X105176014Y-76526891D01*
X105389831Y-76453488D01*
X105588649Y-76345893D01*
X105767046Y-76207040D01*
X105920156Y-76040719D01*
X106043802Y-75851465D01*
X106134611Y-75644441D01*
X106190107Y-75425293D01*
X106197574Y-75335175D01*
X106208775Y-75200006D01*
X106208775Y-75199993D01*
X106195707Y-75042294D01*
X106190107Y-74974707D01*
X106134611Y-74755559D01*
X106043802Y-74548535D01*
X105920156Y-74359281D01*
X105920153Y-74359278D01*
X105920149Y-74359272D01*
X105767049Y-74192963D01*
X105767048Y-74192962D01*
X105767046Y-74192960D01*
X105588649Y-74054107D01*
X105531440Y-74023147D01*
X105389832Y-73946512D01*
X105389827Y-73946510D01*
X105176017Y-73873109D01*
X104994388Y-73842801D01*
X104953033Y-73835900D01*
X104726967Y-73835900D01*
X104685612Y-73842801D01*
X104503982Y-73873109D01*
X104290172Y-73946510D01*
X104290167Y-73946512D01*
X104091352Y-74054106D01*
X103912955Y-74192959D01*
X103912950Y-74192963D01*
X103759850Y-74359272D01*
X103759842Y-74359283D01*
X103673808Y-74490968D01*
X103620662Y-74536325D01*
X103551430Y-74545748D01*
X103488095Y-74516246D01*
X103466192Y-74490968D01*
X103380157Y-74359283D01*
X103380149Y-74359272D01*
X103227049Y-74192963D01*
X103227048Y-74192962D01*
X103227046Y-74192960D01*
X103048649Y-74054107D01*
X102991440Y-74023147D01*
X102849832Y-73946512D01*
X102849827Y-73946510D01*
X102636017Y-73873109D01*
X102454388Y-73842801D01*
X102413033Y-73835900D01*
X102186967Y-73835900D01*
X102145612Y-73842801D01*
X101963982Y-73873109D01*
X101750172Y-73946510D01*
X101750167Y-73946512D01*
X101551352Y-74054106D01*
X101372955Y-74192959D01*
X101372950Y-74192963D01*
X101219850Y-74359272D01*
X101219842Y-74359283D01*
X101133808Y-74490968D01*
X101080662Y-74536325D01*
X101011430Y-74545748D01*
X100948095Y-74516246D01*
X100926192Y-74490968D01*
X100840157Y-74359283D01*
X100840149Y-74359272D01*
X100687049Y-74192963D01*
X100687048Y-74192962D01*
X100687046Y-74192960D01*
X100508649Y-74054107D01*
X100451440Y-74023147D01*
X100309832Y-73946512D01*
X100309827Y-73946510D01*
X100096017Y-73873109D01*
X99914388Y-73842801D01*
X99873033Y-73835900D01*
X99646967Y-73835900D01*
X99605612Y-73842801D01*
X99423982Y-73873109D01*
X99210172Y-73946510D01*
X99210167Y-73946512D01*
X99011352Y-74054106D01*
X98832955Y-74192959D01*
X98832950Y-74192963D01*
X98679850Y-74359272D01*
X98679842Y-74359283D01*
X98593808Y-74490968D01*
X98540662Y-74536325D01*
X98471430Y-74545748D01*
X98408095Y-74516246D01*
X98386192Y-74490968D01*
X98300157Y-74359283D01*
X98300149Y-74359272D01*
X98147049Y-74192963D01*
X98147048Y-74192962D01*
X98147046Y-74192960D01*
X97968649Y-74054107D01*
X97911440Y-74023147D01*
X97769832Y-73946512D01*
X97769827Y-73946510D01*
X97556017Y-73873109D01*
X97374388Y-73842801D01*
X97333033Y-73835900D01*
X97106967Y-73835900D01*
X97065612Y-73842801D01*
X96883982Y-73873109D01*
X96670172Y-73946510D01*
X96670167Y-73946512D01*
X96471352Y-74054106D01*
X96292955Y-74192959D01*
X96292950Y-74192963D01*
X96139850Y-74359272D01*
X96139842Y-74359283D01*
X96053808Y-74490968D01*
X96000662Y-74536325D01*
X95931430Y-74545748D01*
X95868095Y-74516246D01*
X95846192Y-74490968D01*
X95760157Y-74359283D01*
X95760149Y-74359272D01*
X95607049Y-74192963D01*
X95607048Y-74192962D01*
X95607046Y-74192960D01*
X95428649Y-74054107D01*
X95371440Y-74023147D01*
X95229832Y-73946512D01*
X95229827Y-73946510D01*
X95016017Y-73873109D01*
X94834388Y-73842801D01*
X94793033Y-73835900D01*
X94566967Y-73835900D01*
X94525612Y-73842801D01*
X94343982Y-73873109D01*
X94130172Y-73946510D01*
X94130167Y-73946512D01*
X93931352Y-74054106D01*
X93752955Y-74192959D01*
X93752950Y-74192963D01*
X93599850Y-74359272D01*
X93599842Y-74359283D01*
X93476198Y-74548533D01*
X93385388Y-74755560D01*
X93329892Y-74974710D01*
X93311225Y-75199993D01*
X93311225Y-75200006D01*
X84635327Y-75200006D01*
X84811325Y-74923744D01*
X84817515Y-74914905D01*
X85049896Y-74612060D01*
X85056834Y-74603791D01*
X85314726Y-74322352D01*
X85322352Y-74314726D01*
X85603791Y-74056834D01*
X85612060Y-74049896D01*
X85914905Y-73817515D01*
X85923744Y-73811325D01*
X86245700Y-73606217D01*
X86255045Y-73600822D01*
X86593638Y-73424561D01*
X86603412Y-73420003D01*
X86956095Y-73273917D01*
X86966227Y-73270230D01*
X87330295Y-73155440D01*
X87340709Y-73152649D01*
X87713405Y-73070025D01*
X87724025Y-73068152D01*
X88102495Y-73018326D01*
X88113226Y-73017386D01*
X88497297Y-73000617D01*
X88502706Y-73000500D01*
X88565892Y-73000500D01*
X114176000Y-73000500D01*
X114243039Y-73020185D01*
G37*
%TD.AperFunction*%
%TD*%
M02*
