%TF.GenerationSoftware,KiCad,Pcbnew,8.0.0*%
%TF.CreationDate,2024-05-08T19:08:40-04:00*%
%TF.ProjectId,16ChannelServoControllerDaughterboardDesign,31364368-616e-46e6-956c-536572766f43,rev?*%
%TF.SameCoordinates,Original*%
%TF.FileFunction,Legend,Bot*%
%TF.FilePolarity,Positive*%
%FSLAX46Y46*%
G04 Gerber Fmt 4.6, Leading zero omitted, Abs format (unit mm)*
G04 Created by KiCad (PCBNEW 8.0.0) date 2024-05-08 19:08:40*
%MOMM*%
%LPD*%
G01*
G04 APERTURE LIST*
%ADD10C,0.150000*%
G04 APERTURE END LIST*
D10*
X85848819Y-83158779D02*
X84848819Y-83158779D01*
X84848819Y-83158779D02*
X84848819Y-83396874D01*
X84848819Y-83396874D02*
X84896438Y-83539731D01*
X84896438Y-83539731D02*
X84991676Y-83634969D01*
X84991676Y-83634969D02*
X85086914Y-83682588D01*
X85086914Y-83682588D02*
X85277390Y-83730207D01*
X85277390Y-83730207D02*
X85420247Y-83730207D01*
X85420247Y-83730207D02*
X85610723Y-83682588D01*
X85610723Y-83682588D02*
X85705961Y-83634969D01*
X85705961Y-83634969D02*
X85801200Y-83539731D01*
X85801200Y-83539731D02*
X85848819Y-83396874D01*
X85848819Y-83396874D02*
X85848819Y-83158779D01*
X85848819Y-84587350D02*
X85325009Y-84587350D01*
X85325009Y-84587350D02*
X85229771Y-84539731D01*
X85229771Y-84539731D02*
X85182152Y-84444493D01*
X85182152Y-84444493D02*
X85182152Y-84254017D01*
X85182152Y-84254017D02*
X85229771Y-84158779D01*
X85801200Y-84587350D02*
X85848819Y-84492112D01*
X85848819Y-84492112D02*
X85848819Y-84254017D01*
X85848819Y-84254017D02*
X85801200Y-84158779D01*
X85801200Y-84158779D02*
X85705961Y-84111160D01*
X85705961Y-84111160D02*
X85610723Y-84111160D01*
X85610723Y-84111160D02*
X85515485Y-84158779D01*
X85515485Y-84158779D02*
X85467866Y-84254017D01*
X85467866Y-84254017D02*
X85467866Y-84492112D01*
X85467866Y-84492112D02*
X85420247Y-84587350D01*
X85182152Y-85492112D02*
X85848819Y-85492112D01*
X85182152Y-85063541D02*
X85705961Y-85063541D01*
X85705961Y-85063541D02*
X85801200Y-85111160D01*
X85801200Y-85111160D02*
X85848819Y-85206398D01*
X85848819Y-85206398D02*
X85848819Y-85349255D01*
X85848819Y-85349255D02*
X85801200Y-85444493D01*
X85801200Y-85444493D02*
X85753580Y-85492112D01*
X85182152Y-86396874D02*
X85991676Y-86396874D01*
X85991676Y-86396874D02*
X86086914Y-86349255D01*
X86086914Y-86349255D02*
X86134533Y-86301636D01*
X86134533Y-86301636D02*
X86182152Y-86206398D01*
X86182152Y-86206398D02*
X86182152Y-86063541D01*
X86182152Y-86063541D02*
X86134533Y-85968303D01*
X85801200Y-86396874D02*
X85848819Y-86301636D01*
X85848819Y-86301636D02*
X85848819Y-86111160D01*
X85848819Y-86111160D02*
X85801200Y-86015922D01*
X85801200Y-86015922D02*
X85753580Y-85968303D01*
X85753580Y-85968303D02*
X85658342Y-85920684D01*
X85658342Y-85920684D02*
X85372628Y-85920684D01*
X85372628Y-85920684D02*
X85277390Y-85968303D01*
X85277390Y-85968303D02*
X85229771Y-86015922D01*
X85229771Y-86015922D02*
X85182152Y-86111160D01*
X85182152Y-86111160D02*
X85182152Y-86301636D01*
X85182152Y-86301636D02*
X85229771Y-86396874D01*
X85848819Y-86873065D02*
X84848819Y-86873065D01*
X85848819Y-87301636D02*
X85325009Y-87301636D01*
X85325009Y-87301636D02*
X85229771Y-87254017D01*
X85229771Y-87254017D02*
X85182152Y-87158779D01*
X85182152Y-87158779D02*
X85182152Y-87015922D01*
X85182152Y-87015922D02*
X85229771Y-86920684D01*
X85229771Y-86920684D02*
X85277390Y-86873065D01*
X85182152Y-87634970D02*
X85182152Y-88015922D01*
X84848819Y-87777827D02*
X85705961Y-87777827D01*
X85705961Y-87777827D02*
X85801200Y-87825446D01*
X85801200Y-87825446D02*
X85848819Y-87920684D01*
X85848819Y-87920684D02*
X85848819Y-88015922D01*
X85801200Y-88730208D02*
X85848819Y-88634970D01*
X85848819Y-88634970D02*
X85848819Y-88444494D01*
X85848819Y-88444494D02*
X85801200Y-88349256D01*
X85801200Y-88349256D02*
X85705961Y-88301637D01*
X85705961Y-88301637D02*
X85325009Y-88301637D01*
X85325009Y-88301637D02*
X85229771Y-88349256D01*
X85229771Y-88349256D02*
X85182152Y-88444494D01*
X85182152Y-88444494D02*
X85182152Y-88634970D01*
X85182152Y-88634970D02*
X85229771Y-88730208D01*
X85229771Y-88730208D02*
X85325009Y-88777827D01*
X85325009Y-88777827D02*
X85420247Y-88777827D01*
X85420247Y-88777827D02*
X85515485Y-88301637D01*
X85848819Y-89206399D02*
X85182152Y-89206399D01*
X85372628Y-89206399D02*
X85277390Y-89254018D01*
X85277390Y-89254018D02*
X85229771Y-89301637D01*
X85229771Y-89301637D02*
X85182152Y-89396875D01*
X85182152Y-89396875D02*
X85182152Y-89492113D01*
X85325009Y-90158780D02*
X85372628Y-90301637D01*
X85372628Y-90301637D02*
X85420247Y-90349256D01*
X85420247Y-90349256D02*
X85515485Y-90396875D01*
X85515485Y-90396875D02*
X85658342Y-90396875D01*
X85658342Y-90396875D02*
X85753580Y-90349256D01*
X85753580Y-90349256D02*
X85801200Y-90301637D01*
X85801200Y-90301637D02*
X85848819Y-90206399D01*
X85848819Y-90206399D02*
X85848819Y-89825447D01*
X85848819Y-89825447D02*
X84848819Y-89825447D01*
X84848819Y-89825447D02*
X84848819Y-90158780D01*
X84848819Y-90158780D02*
X84896438Y-90254018D01*
X84896438Y-90254018D02*
X84944057Y-90301637D01*
X84944057Y-90301637D02*
X85039295Y-90349256D01*
X85039295Y-90349256D02*
X85134533Y-90349256D01*
X85134533Y-90349256D02*
X85229771Y-90301637D01*
X85229771Y-90301637D02*
X85277390Y-90254018D01*
X85277390Y-90254018D02*
X85325009Y-90158780D01*
X85325009Y-90158780D02*
X85325009Y-89825447D01*
X85848819Y-90968304D02*
X85801200Y-90873066D01*
X85801200Y-90873066D02*
X85753580Y-90825447D01*
X85753580Y-90825447D02*
X85658342Y-90777828D01*
X85658342Y-90777828D02*
X85372628Y-90777828D01*
X85372628Y-90777828D02*
X85277390Y-90825447D01*
X85277390Y-90825447D02*
X85229771Y-90873066D01*
X85229771Y-90873066D02*
X85182152Y-90968304D01*
X85182152Y-90968304D02*
X85182152Y-91111161D01*
X85182152Y-91111161D02*
X85229771Y-91206399D01*
X85229771Y-91206399D02*
X85277390Y-91254018D01*
X85277390Y-91254018D02*
X85372628Y-91301637D01*
X85372628Y-91301637D02*
X85658342Y-91301637D01*
X85658342Y-91301637D02*
X85753580Y-91254018D01*
X85753580Y-91254018D02*
X85801200Y-91206399D01*
X85801200Y-91206399D02*
X85848819Y-91111161D01*
X85848819Y-91111161D02*
X85848819Y-90968304D01*
X85848819Y-92158780D02*
X85325009Y-92158780D01*
X85325009Y-92158780D02*
X85229771Y-92111161D01*
X85229771Y-92111161D02*
X85182152Y-92015923D01*
X85182152Y-92015923D02*
X85182152Y-91825447D01*
X85182152Y-91825447D02*
X85229771Y-91730209D01*
X85801200Y-92158780D02*
X85848819Y-92063542D01*
X85848819Y-92063542D02*
X85848819Y-91825447D01*
X85848819Y-91825447D02*
X85801200Y-91730209D01*
X85801200Y-91730209D02*
X85705961Y-91682590D01*
X85705961Y-91682590D02*
X85610723Y-91682590D01*
X85610723Y-91682590D02*
X85515485Y-91730209D01*
X85515485Y-91730209D02*
X85467866Y-91825447D01*
X85467866Y-91825447D02*
X85467866Y-92063542D01*
X85467866Y-92063542D02*
X85420247Y-92158780D01*
X85848819Y-92634971D02*
X85182152Y-92634971D01*
X85372628Y-92634971D02*
X85277390Y-92682590D01*
X85277390Y-92682590D02*
X85229771Y-92730209D01*
X85229771Y-92730209D02*
X85182152Y-92825447D01*
X85182152Y-92825447D02*
X85182152Y-92920685D01*
X85848819Y-93682590D02*
X84848819Y-93682590D01*
X85801200Y-93682590D02*
X85848819Y-93587352D01*
X85848819Y-93587352D02*
X85848819Y-93396876D01*
X85848819Y-93396876D02*
X85801200Y-93301638D01*
X85801200Y-93301638D02*
X85753580Y-93254019D01*
X85753580Y-93254019D02*
X85658342Y-93206400D01*
X85658342Y-93206400D02*
X85372628Y-93206400D01*
X85372628Y-93206400D02*
X85277390Y-93254019D01*
X85277390Y-93254019D02*
X85229771Y-93301638D01*
X85229771Y-93301638D02*
X85182152Y-93396876D01*
X85182152Y-93396876D02*
X85182152Y-93587352D01*
X85182152Y-93587352D02*
X85229771Y-93682590D01*
X86458763Y-83015922D02*
X86458763Y-83587350D01*
X87458763Y-83301636D02*
X86458763Y-83301636D01*
X87411144Y-84301636D02*
X87458763Y-84206398D01*
X87458763Y-84206398D02*
X87458763Y-84015922D01*
X87458763Y-84015922D02*
X87411144Y-83920684D01*
X87411144Y-83920684D02*
X87315905Y-83873065D01*
X87315905Y-83873065D02*
X86934953Y-83873065D01*
X86934953Y-83873065D02*
X86839715Y-83920684D01*
X86839715Y-83920684D02*
X86792096Y-84015922D01*
X86792096Y-84015922D02*
X86792096Y-84206398D01*
X86792096Y-84206398D02*
X86839715Y-84301636D01*
X86839715Y-84301636D02*
X86934953Y-84349255D01*
X86934953Y-84349255D02*
X87030191Y-84349255D01*
X87030191Y-84349255D02*
X87125429Y-83873065D01*
X87458763Y-84777827D02*
X86792096Y-84777827D01*
X86887334Y-84777827D02*
X86839715Y-84825446D01*
X86839715Y-84825446D02*
X86792096Y-84920684D01*
X86792096Y-84920684D02*
X86792096Y-85063541D01*
X86792096Y-85063541D02*
X86839715Y-85158779D01*
X86839715Y-85158779D02*
X86934953Y-85206398D01*
X86934953Y-85206398D02*
X87458763Y-85206398D01*
X86934953Y-85206398D02*
X86839715Y-85254017D01*
X86839715Y-85254017D02*
X86792096Y-85349255D01*
X86792096Y-85349255D02*
X86792096Y-85492112D01*
X86792096Y-85492112D02*
X86839715Y-85587351D01*
X86839715Y-85587351D02*
X86934953Y-85634970D01*
X86934953Y-85634970D02*
X87458763Y-85634970D01*
X86792096Y-86111160D02*
X87792096Y-86111160D01*
X86839715Y-86111160D02*
X86792096Y-86206398D01*
X86792096Y-86206398D02*
X86792096Y-86396874D01*
X86792096Y-86396874D02*
X86839715Y-86492112D01*
X86839715Y-86492112D02*
X86887334Y-86539731D01*
X86887334Y-86539731D02*
X86982572Y-86587350D01*
X86982572Y-86587350D02*
X87268286Y-86587350D01*
X87268286Y-86587350D02*
X87363524Y-86539731D01*
X87363524Y-86539731D02*
X87411144Y-86492112D01*
X87411144Y-86492112D02*
X87458763Y-86396874D01*
X87458763Y-86396874D02*
X87458763Y-86206398D01*
X87458763Y-86206398D02*
X87411144Y-86111160D01*
X87458763Y-87158779D02*
X87411144Y-87063541D01*
X87411144Y-87063541D02*
X87315905Y-87015922D01*
X87315905Y-87015922D02*
X86458763Y-87015922D01*
X87458763Y-87968303D02*
X86934953Y-87968303D01*
X86934953Y-87968303D02*
X86839715Y-87920684D01*
X86839715Y-87920684D02*
X86792096Y-87825446D01*
X86792096Y-87825446D02*
X86792096Y-87634970D01*
X86792096Y-87634970D02*
X86839715Y-87539732D01*
X87411144Y-87968303D02*
X87458763Y-87873065D01*
X87458763Y-87873065D02*
X87458763Y-87634970D01*
X87458763Y-87634970D02*
X87411144Y-87539732D01*
X87411144Y-87539732D02*
X87315905Y-87492113D01*
X87315905Y-87492113D02*
X87220667Y-87492113D01*
X87220667Y-87492113D02*
X87125429Y-87539732D01*
X87125429Y-87539732D02*
X87077810Y-87634970D01*
X87077810Y-87634970D02*
X87077810Y-87873065D01*
X87077810Y-87873065D02*
X87030191Y-87968303D01*
X86792096Y-88301637D02*
X86792096Y-88682589D01*
X86458763Y-88444494D02*
X87315905Y-88444494D01*
X87315905Y-88444494D02*
X87411144Y-88492113D01*
X87411144Y-88492113D02*
X87458763Y-88587351D01*
X87458763Y-88587351D02*
X87458763Y-88682589D01*
X87411144Y-89396875D02*
X87458763Y-89301637D01*
X87458763Y-89301637D02*
X87458763Y-89111161D01*
X87458763Y-89111161D02*
X87411144Y-89015923D01*
X87411144Y-89015923D02*
X87315905Y-88968304D01*
X87315905Y-88968304D02*
X86934953Y-88968304D01*
X86934953Y-88968304D02*
X86839715Y-89015923D01*
X86839715Y-89015923D02*
X86792096Y-89111161D01*
X86792096Y-89111161D02*
X86792096Y-89301637D01*
X86792096Y-89301637D02*
X86839715Y-89396875D01*
X86839715Y-89396875D02*
X86934953Y-89444494D01*
X86934953Y-89444494D02*
X87030191Y-89444494D01*
X87030191Y-89444494D02*
X87125429Y-88968304D01*
X88402040Y-83063541D02*
X89068707Y-83301636D01*
X89068707Y-83301636D02*
X88402040Y-83539731D01*
X88068707Y-84111160D02*
X88068707Y-84206398D01*
X88068707Y-84206398D02*
X88116326Y-84301636D01*
X88116326Y-84301636D02*
X88163945Y-84349255D01*
X88163945Y-84349255D02*
X88259183Y-84396874D01*
X88259183Y-84396874D02*
X88449659Y-84444493D01*
X88449659Y-84444493D02*
X88687754Y-84444493D01*
X88687754Y-84444493D02*
X88878230Y-84396874D01*
X88878230Y-84396874D02*
X88973468Y-84349255D01*
X88973468Y-84349255D02*
X89021088Y-84301636D01*
X89021088Y-84301636D02*
X89068707Y-84206398D01*
X89068707Y-84206398D02*
X89068707Y-84111160D01*
X89068707Y-84111160D02*
X89021088Y-84015922D01*
X89021088Y-84015922D02*
X88973468Y-83968303D01*
X88973468Y-83968303D02*
X88878230Y-83920684D01*
X88878230Y-83920684D02*
X88687754Y-83873065D01*
X88687754Y-83873065D02*
X88449659Y-83873065D01*
X88449659Y-83873065D02*
X88259183Y-83920684D01*
X88259183Y-83920684D02*
X88163945Y-83968303D01*
X88163945Y-83968303D02*
X88116326Y-84015922D01*
X88116326Y-84015922D02*
X88068707Y-84111160D01*
X88973468Y-84873065D02*
X89021088Y-84920684D01*
X89021088Y-84920684D02*
X89068707Y-84873065D01*
X89068707Y-84873065D02*
X89021088Y-84825446D01*
X89021088Y-84825446D02*
X88973468Y-84873065D01*
X88973468Y-84873065D02*
X89068707Y-84873065D01*
X89068707Y-85873064D02*
X89068707Y-85301636D01*
X89068707Y-85587350D02*
X88068707Y-85587350D01*
X88068707Y-85587350D02*
X88211564Y-85492112D01*
X88211564Y-85492112D02*
X88306802Y-85396874D01*
X88306802Y-85396874D02*
X88354421Y-85301636D01*
X90678651Y-83158779D02*
X89678651Y-83158779D01*
X90154841Y-83158779D02*
X90154841Y-83730207D01*
X90678651Y-83730207D02*
X89678651Y-83730207D01*
X90011984Y-84634969D02*
X90678651Y-84634969D01*
X90011984Y-84206398D02*
X90535793Y-84206398D01*
X90535793Y-84206398D02*
X90631032Y-84254017D01*
X90631032Y-84254017D02*
X90678651Y-84349255D01*
X90678651Y-84349255D02*
X90678651Y-84492112D01*
X90678651Y-84492112D02*
X90631032Y-84587350D01*
X90631032Y-84587350D02*
X90583412Y-84634969D01*
X90631032Y-85063541D02*
X90678651Y-85158779D01*
X90678651Y-85158779D02*
X90678651Y-85349255D01*
X90678651Y-85349255D02*
X90631032Y-85444493D01*
X90631032Y-85444493D02*
X90535793Y-85492112D01*
X90535793Y-85492112D02*
X90488174Y-85492112D01*
X90488174Y-85492112D02*
X90392936Y-85444493D01*
X90392936Y-85444493D02*
X90345317Y-85349255D01*
X90345317Y-85349255D02*
X90345317Y-85206398D01*
X90345317Y-85206398D02*
X90297698Y-85111160D01*
X90297698Y-85111160D02*
X90202460Y-85063541D01*
X90202460Y-85063541D02*
X90154841Y-85063541D01*
X90154841Y-85063541D02*
X90059603Y-85111160D01*
X90059603Y-85111160D02*
X90011984Y-85206398D01*
X90011984Y-85206398D02*
X90011984Y-85349255D01*
X90011984Y-85349255D02*
X90059603Y-85444493D01*
X90631032Y-85873065D02*
X90678651Y-85968303D01*
X90678651Y-85968303D02*
X90678651Y-86158779D01*
X90678651Y-86158779D02*
X90631032Y-86254017D01*
X90631032Y-86254017D02*
X90535793Y-86301636D01*
X90535793Y-86301636D02*
X90488174Y-86301636D01*
X90488174Y-86301636D02*
X90392936Y-86254017D01*
X90392936Y-86254017D02*
X90345317Y-86158779D01*
X90345317Y-86158779D02*
X90345317Y-86015922D01*
X90345317Y-86015922D02*
X90297698Y-85920684D01*
X90297698Y-85920684D02*
X90202460Y-85873065D01*
X90202460Y-85873065D02*
X90154841Y-85873065D01*
X90154841Y-85873065D02*
X90059603Y-85920684D01*
X90059603Y-85920684D02*
X90011984Y-86015922D01*
X90011984Y-86015922D02*
X90011984Y-86158779D01*
X90011984Y-86158779D02*
X90059603Y-86254017D01*
X90678651Y-87158779D02*
X90154841Y-87158779D01*
X90154841Y-87158779D02*
X90059603Y-87111160D01*
X90059603Y-87111160D02*
X90011984Y-87015922D01*
X90011984Y-87015922D02*
X90011984Y-86825446D01*
X90011984Y-86825446D02*
X90059603Y-86730208D01*
X90631032Y-87158779D02*
X90678651Y-87063541D01*
X90678651Y-87063541D02*
X90678651Y-86825446D01*
X90678651Y-86825446D02*
X90631032Y-86730208D01*
X90631032Y-86730208D02*
X90535793Y-86682589D01*
X90535793Y-86682589D02*
X90440555Y-86682589D01*
X90440555Y-86682589D02*
X90345317Y-86730208D01*
X90345317Y-86730208D02*
X90297698Y-86825446D01*
X90297698Y-86825446D02*
X90297698Y-87063541D01*
X90297698Y-87063541D02*
X90250079Y-87158779D01*
X90678651Y-87634970D02*
X90011984Y-87634970D01*
X90107222Y-87634970D02*
X90059603Y-87682589D01*
X90059603Y-87682589D02*
X90011984Y-87777827D01*
X90011984Y-87777827D02*
X90011984Y-87920684D01*
X90011984Y-87920684D02*
X90059603Y-88015922D01*
X90059603Y-88015922D02*
X90154841Y-88063541D01*
X90154841Y-88063541D02*
X90678651Y-88063541D01*
X90154841Y-88063541D02*
X90059603Y-88111160D01*
X90059603Y-88111160D02*
X90011984Y-88206398D01*
X90011984Y-88206398D02*
X90011984Y-88349255D01*
X90011984Y-88349255D02*
X90059603Y-88444494D01*
X90059603Y-88444494D02*
X90154841Y-88492113D01*
X90154841Y-88492113D02*
X90678651Y-88492113D01*
X92002880Y-83111160D02*
X92002880Y-83587350D01*
X92288595Y-83015922D02*
X91288595Y-83349255D01*
X91288595Y-83349255D02*
X92288595Y-83682588D01*
X92288595Y-84158779D02*
X92240976Y-84063541D01*
X92240976Y-84063541D02*
X92145737Y-84015922D01*
X92145737Y-84015922D02*
X91288595Y-84015922D01*
X91907642Y-84539732D02*
X91907642Y-85301637D01*
X92288595Y-85777827D02*
X91288595Y-85777827D01*
X91764785Y-85777827D02*
X91764785Y-86349255D01*
X92288595Y-86349255D02*
X91288595Y-86349255D01*
X92240976Y-87206398D02*
X92288595Y-87111160D01*
X92288595Y-87111160D02*
X92288595Y-86920684D01*
X92288595Y-86920684D02*
X92240976Y-86825446D01*
X92240976Y-86825446D02*
X92145737Y-86777827D01*
X92145737Y-86777827D02*
X91764785Y-86777827D01*
X91764785Y-86777827D02*
X91669547Y-86825446D01*
X91669547Y-86825446D02*
X91621928Y-86920684D01*
X91621928Y-86920684D02*
X91621928Y-87111160D01*
X91621928Y-87111160D02*
X91669547Y-87206398D01*
X91669547Y-87206398D02*
X91764785Y-87254017D01*
X91764785Y-87254017D02*
X91860023Y-87254017D01*
X91860023Y-87254017D02*
X91955261Y-86777827D01*
X92288595Y-87682589D02*
X91621928Y-87682589D01*
X91812404Y-87682589D02*
X91717166Y-87730208D01*
X91717166Y-87730208D02*
X91669547Y-87777827D01*
X91669547Y-87777827D02*
X91621928Y-87873065D01*
X91621928Y-87873065D02*
X91621928Y-87968303D01*
X91621928Y-88158780D02*
X91621928Y-88539732D01*
X91288595Y-88301637D02*
X92145737Y-88301637D01*
X92145737Y-88301637D02*
X92240976Y-88349256D01*
X92240976Y-88349256D02*
X92288595Y-88444494D01*
X92288595Y-88444494D02*
X92288595Y-88539732D01*
X92288595Y-89301637D02*
X91764785Y-89301637D01*
X91764785Y-89301637D02*
X91669547Y-89254018D01*
X91669547Y-89254018D02*
X91621928Y-89158780D01*
X91621928Y-89158780D02*
X91621928Y-88968304D01*
X91621928Y-88968304D02*
X91669547Y-88873066D01*
X92240976Y-89301637D02*
X92288595Y-89206399D01*
X92288595Y-89206399D02*
X92288595Y-88968304D01*
X92288595Y-88968304D02*
X92240976Y-88873066D01*
X92240976Y-88873066D02*
X92145737Y-88825447D01*
X92145737Y-88825447D02*
X92050499Y-88825447D01*
X92050499Y-88825447D02*
X91955261Y-88873066D01*
X91955261Y-88873066D02*
X91907642Y-88968304D01*
X91907642Y-88968304D02*
X91907642Y-89206399D01*
X91907642Y-89206399D02*
X91860023Y-89301637D01*
X91621928Y-89777828D02*
X92288595Y-89777828D01*
X91717166Y-89777828D02*
X91669547Y-89825447D01*
X91669547Y-89825447D02*
X91621928Y-89920685D01*
X91621928Y-89920685D02*
X91621928Y-90063542D01*
X91621928Y-90063542D02*
X91669547Y-90158780D01*
X91669547Y-90158780D02*
X91764785Y-90206399D01*
X91764785Y-90206399D02*
X92288595Y-90206399D01*
X92288595Y-90682590D02*
X91621928Y-90682590D01*
X91288595Y-90682590D02*
X91336214Y-90634971D01*
X91336214Y-90634971D02*
X91383833Y-90682590D01*
X91383833Y-90682590D02*
X91336214Y-90730209D01*
X91336214Y-90730209D02*
X91288595Y-90682590D01*
X91288595Y-90682590D02*
X91383833Y-90682590D01*
M02*
