M48
; DRILL file {KiCad 8.0.0} date 2024-05-08T19:08:45-0400
; FORMAT={-:-/ absolute / metric / decimal}
; #@! TF.CreationDate,2024-05-08T19:08:45-04:00
; #@! TF.GenerationSoftware,Kicad,Pcbnew,8.0.0
; #@! TF.FileFunction,MixedPlating,1,2
FMAT,2
METRIC
; #@! TA.AperFunction,Plated,PTH,ViaDrill
T1C0.300
; #@! TA.AperFunction,Plated,PTH,ComponentDrill
T2C1.000
; #@! TA.AperFunction,Plated,PTH,ComponentDrill
T3C1.016
; #@! TA.AperFunction,Plated,PTH,ComponentDrill
T4C1.320
; #@! TA.AperFunction,NonPlated,NPTH,ComponentDrill
T5C3.200
%
G90
G05
T1
X85.0Y-76.0
X85.0Y-82.5
X85.0Y-87.5
X85.0Y-92.5
X85.0Y-97.5
X85.0Y-102.5
X85.0Y-107.5
X85.0Y-112.5
X85.0Y-117.5
X87.0Y-124.0
X90.0Y-74.0
X90.0Y-82.5
X90.0Y-87.5
X90.0Y-92.5
X90.0Y-97.5
X90.0Y-102.5
X90.0Y-107.5
X90.0Y-112.5
X90.0Y-117.5
X92.0Y-124.0
X95.0Y-77.5
X95.0Y-82.5
X95.0Y-87.5
X95.0Y-92.5
X95.0Y-97.5
X95.0Y-102.5
X95.0Y-107.5
X95.0Y-112.5
X95.0Y-117.5
X100.0Y-77.5
X100.0Y-82.5
X100.0Y-87.5
X100.0Y-92.5
X100.0Y-97.5
X100.0Y-102.5
X100.0Y-107.5
X100.0Y-112.5
X100.0Y-117.5
X105.0Y-77.5
X105.0Y-82.5
X105.0Y-87.5
X105.0Y-92.5
X105.0Y-97.5
X105.0Y-102.5
X105.0Y-107.5
X105.0Y-112.5
X105.0Y-117.5
X107.0Y-75.0
X107.0Y-124.0
X110.0Y-84.0
X110.0Y-87.5
X110.0Y-102.5
X110.0Y-107.5
X110.0Y-112.5
X110.0Y-117.5
X110.0Y-122.5
X111.0Y-75.0
X112.0Y-124.0
X113.0Y-75.0
X113.0Y-84.0
X115.0Y-117.5
X115.0Y-122.5
X116.0Y-75.0
X116.0Y-85.0
X117.0Y-124.0
X117.5Y-87.5
X117.5Y-90.0
X117.5Y-92.5
X117.5Y-100.0
X117.5Y-105.0
X120.0Y-75.0
X120.0Y-77.5
X120.0Y-80.0
X120.0Y-82.5
X120.0Y-85.0
X120.0Y-87.5
X120.0Y-90.0
X120.0Y-92.5
X120.0Y-95.0
X120.0Y-97.5
X120.0Y-100.0
X120.0Y-102.5
X120.0Y-117.5
X120.0Y-122.5
X122.0Y-75.0
X122.0Y-80.0
X122.0Y-85.0
X122.0Y-124.0
X122.5Y-88.5
X122.5Y-110.0
X122.5Y-112.5
X123.0Y-99.0
X123.0Y-101.0
X124.25Y-102.75
X125.0Y-110.0
X125.0Y-112.5
X125.0Y-115.0
X125.0Y-122.5
X126.0Y-117.0
X126.25Y-96.0
X126.75Y-108.75
X127.25Y-83.5
X127.5Y-97.5
X127.5Y-100.0
X127.5Y-102.5
X127.5Y-110.0
X127.5Y-112.5
X128.0Y-124.0
X128.75Y-83.5
X130.0Y-87.5
X130.0Y-97.5
X130.0Y-100.0
X130.0Y-102.5
X130.0Y-110.0
X130.0Y-112.5
X130.0Y-115.0
X130.0Y-122.5
X132.0Y-121.0
X132.0Y-124.0
X132.5Y-80.0
X132.5Y-82.5
X132.5Y-87.5
X132.5Y-97.5
X132.5Y-100.0
X132.5Y-102.5
X132.5Y-110.0
X132.5Y-112.5
X133.0Y-117.0
X134.5Y-105.75
X135.0Y-80.0
X135.0Y-82.5
X135.0Y-87.5
X135.0Y-92.5
X135.0Y-97.5
X135.0Y-121.0
X135.5Y-102.75
X135.5Y-117.75
X137.0Y-93.0
X138.0Y-121.0
X140.0Y-78.0
X140.0Y-80.0
X140.0Y-95.0
X141.0Y-104.0
X141.0Y-121.0
X142.0Y-102.25
X142.5Y-95.0
X142.5Y-97.5
X143.0Y-104.0
X145.0Y-78.0
X145.0Y-80.0
X146.5Y-98.75
X147.0Y-117.0
X150.0Y-78.0
X150.0Y-80.0
X150.0Y-120.0
X152.0Y-117.0
X152.25Y-98.0
X154.0Y-104.5
X155.0Y-78.0
X155.0Y-80.0
X155.0Y-120.0
X156.0Y-96.0
X156.0Y-102.0
X157.0Y-117.0
X157.0Y-123.0
X158.5Y-114.5
X159.0Y-87.0
X159.0Y-90.0
X159.0Y-93.0
X159.0Y-96.0
X159.0Y-102.0
X159.0Y-105.0
X160.0Y-78.0
X160.0Y-80.0
X160.0Y-83.0
X160.0Y-108.0
X160.0Y-111.0
X160.0Y-117.0
X160.0Y-120.0
X162.0Y-87.0
X162.0Y-90.0
X162.0Y-93.0
X162.0Y-96.0
X162.0Y-102.0
X162.0Y-105.0
X162.0Y-108.0
X162.0Y-111.0
X164.0Y-87.0
X164.0Y-90.0
X164.0Y-93.0
X164.0Y-96.0
X164.0Y-102.0
X164.0Y-105.0
X164.0Y-108.0
X164.0Y-111.0
X165.0Y-78.0
X165.0Y-80.0
X165.0Y-83.0
X165.0Y-115.0
X165.0Y-120.0
X167.0Y-86.0
X167.0Y-90.0
X167.0Y-93.0
X167.0Y-96.0
X168.0Y-99.0
X170.0Y-78.0
X170.0Y-80.0
X170.0Y-85.0
X170.0Y-93.0
X170.0Y-105.0
X170.0Y-110.0
X170.0Y-115.0
X170.0Y-120.0
X172.0Y-96.75
X175.0Y-75.0
X175.0Y-78.0
X175.0Y-80.0
X175.0Y-85.0
X175.0Y-100.0
X175.0Y-105.0
X175.0Y-110.0
X175.0Y-115.0
X175.0Y-123.0
X176.0Y-93.0
X180.0Y-75.0
X180.0Y-80.0
X180.0Y-85.0
X180.0Y-90.0
X180.0Y-95.0
X180.0Y-100.0
X180.0Y-105.0
X180.0Y-110.0
X180.0Y-115.0
X180.0Y-123.0
T2
X137.56Y-109.8
X137.56Y-112.34
X137.56Y-114.88
X137.58Y-83.22
X137.58Y-85.76
X137.58Y-88.3
X140.1Y-109.8
X140.1Y-112.34
X140.1Y-114.88
X140.12Y-83.22
X140.12Y-85.76
X140.12Y-88.3
X142.64Y-109.8
X142.64Y-112.34
X142.64Y-114.88
X142.66Y-83.22
X142.66Y-85.76
X142.66Y-88.3
X145.18Y-109.8
X145.18Y-112.34
X145.18Y-114.88
X145.2Y-83.22
X145.2Y-85.76
X145.2Y-88.3
X147.72Y-109.8
X147.72Y-112.34
X147.72Y-114.88
X147.74Y-83.22
X147.74Y-85.76
X147.74Y-88.3
X150.26Y-109.8
X150.26Y-112.34
X150.26Y-114.88
X150.28Y-83.22
X150.28Y-85.76
X150.28Y-88.3
X152.8Y-109.8
X152.8Y-112.34
X152.8Y-114.88
X152.82Y-83.22
X152.82Y-85.76
X152.82Y-88.3
X155.34Y-109.8
X155.34Y-112.34
X155.34Y-114.88
X155.36Y-83.22
X155.36Y-85.76
X155.36Y-88.3
X172.195Y-89.395
X174.735Y-89.395
X177.275Y-89.395
T3
X94.68Y-75.2
X94.68Y-123.46
X97.22Y-75.2
X97.22Y-123.46
X99.76Y-75.2
X99.76Y-123.46
X102.3Y-75.2
X102.3Y-123.46
X104.84Y-75.2
X104.84Y-123.46
X127.446Y-75.2
X129.986Y-75.2
X132.526Y-75.2
X135.066Y-75.2
X136.59Y-123.46
X137.606Y-75.2
X139.13Y-123.46
X140.146Y-75.2
X141.67Y-123.46
X142.686Y-75.2
X144.21Y-123.46
X145.226Y-75.2
X146.75Y-123.46
X147.766Y-75.2
X149.29Y-123.46
X150.306Y-75.2
X151.83Y-123.46
X154.37Y-75.2
X154.37Y-123.46
X156.91Y-75.2
X159.45Y-75.2
X159.45Y-123.46
X161.99Y-75.2
X161.99Y-123.46
X164.53Y-75.2
X164.53Y-123.46
X167.07Y-75.2
X167.07Y-123.46
X169.61Y-75.2
X169.61Y-123.46
X172.15Y-75.2
X172.15Y-123.46
T4
X111.8Y-80.3
X116.8Y-80.3
T5
X88.5Y-77.5
X88.5Y-121.0
X178.5Y-77.5
X178.5Y-121.0
M30
