%TF.GenerationSoftware,KiCad,Pcbnew,8.0.0*%
%TF.CreationDate,2024-07-24T00:08:36-04:00*%
%TF.ProjectId,led_blinky,6c65645f-626c-4696-9e6b-792e6b696361,rev?*%
%TF.SameCoordinates,Original*%
%TF.FileFunction,Copper,L2,Bot*%
%TF.FilePolarity,Positive*%
%FSLAX46Y46*%
G04 Gerber Fmt 4.6, Leading zero omitted, Abs format (unit mm)*
G04 Created by KiCad (PCBNEW 8.0.0) date 2024-07-24 00:08:36*
%MOMM*%
%LPD*%
G01*
G04 APERTURE LIST*
%TA.AperFunction,ComponentPad*%
%ADD10C,1.700000*%
%TD*%
%TA.AperFunction,ComponentPad*%
%ADD11C,2.000000*%
%TD*%
%TA.AperFunction,ComponentPad*%
%ADD12R,1.500000X1.050000*%
%TD*%
%TA.AperFunction,ComponentPad*%
%ADD13O,1.500000X1.050000*%
%TD*%
%TA.AperFunction,ComponentPad*%
%ADD14C,1.800000*%
%TD*%
%TA.AperFunction,ComponentPad*%
%ADD15R,1.800000X1.800000*%
%TD*%
%TA.AperFunction,ComponentPad*%
%ADD16R,1.600000X1.600000*%
%TD*%
%TA.AperFunction,ComponentPad*%
%ADD17C,1.600000*%
%TD*%
%TA.AperFunction,ComponentPad*%
%ADD18O,1.600000X1.600000*%
%TD*%
%TA.AperFunction,ComponentPad*%
%ADD19C,3.000000*%
%TD*%
%TA.AperFunction,ComponentPad*%
%ADD20R,3.000000X3.000000*%
%TD*%
G04 APERTURE END LIST*
D10*
%TO.P,SW1,3,C*%
%TO.N,unconnected-(SW1-C-Pad3)*%
X223925000Y-71500000D03*
%TO.P,SW1,2,B*%
%TO.N,VCC*%
X223925000Y-75500000D03*
%TO.P,SW1,1,A*%
%TO.N,Net-(BT1-+)*%
X223925000Y-79500000D03*
D11*
%TO.P,SW1,*%
%TO.N,*%
X228175000Y-69500000D03*
X222175000Y-69500000D03*
X228175000Y-81500000D03*
X222175000Y-81500000D03*
%TD*%
D12*
%TO.P,Q1,1,E*%
%TO.N,GND*%
X186950000Y-93500000D03*
D13*
%TO.P,Q1,2,B*%
%TO.N,Net-(Q1-B)*%
X186950000Y-92230000D03*
%TO.P,Q1,3,C*%
%TO.N,Net-(D1-K)*%
X186950000Y-90960000D03*
%TD*%
D12*
%TO.P,Q2,1,E*%
%TO.N,GND*%
X172000000Y-93500000D03*
D13*
%TO.P,Q2,2,B*%
%TO.N,Net-(Q2-B)*%
X172000000Y-92230000D03*
%TO.P,Q2,3,C*%
%TO.N,Net-(D2-K)*%
X172000000Y-90960000D03*
%TD*%
D14*
%TO.P,D1,2,A*%
%TO.N,Net-(D1-A)*%
X202000000Y-78635000D03*
D15*
%TO.P,D1,1,K*%
%TO.N,Net-(D1-K)*%
X202000000Y-81175000D03*
%TD*%
D16*
%TO.P,C2,1*%
%TO.N,Net-(D2-K)*%
X172000000Y-81182380D03*
D17*
%TO.P,C2,2*%
%TO.N,Net-(Q1-B)*%
X172000000Y-78682380D03*
%TD*%
D18*
%TO.P,R2,2*%
%TO.N,Net-(Q2-B)*%
X187000000Y-71380000D03*
D17*
%TO.P,R2,1*%
%TO.N,VCC*%
X187000000Y-61220000D03*
%TD*%
D15*
%TO.P,D2,1,K*%
%TO.N,Net-(D2-K)*%
X157000000Y-81175000D03*
D14*
%TO.P,D2,2,A*%
%TO.N,Net-(D2-A)*%
X157000000Y-78635000D03*
%TD*%
D18*
%TO.P,R1,2*%
%TO.N,Net-(D1-A)*%
X202000000Y-71380000D03*
D17*
%TO.P,R1,1*%
%TO.N,VCC*%
X202000000Y-61220000D03*
%TD*%
D18*
%TO.P,R4,2*%
%TO.N,Net-(D2-A)*%
X157000000Y-71380000D03*
D17*
%TO.P,R4,1*%
%TO.N,VCC*%
X157000000Y-61220000D03*
%TD*%
D16*
%TO.P,C1,1*%
%TO.N,Net-(D1-K)*%
X187000000Y-81182379D03*
D17*
%TO.P,C1,2*%
%TO.N,Net-(Q2-B)*%
X187000000Y-78682379D03*
%TD*%
%TO.P,R3,1*%
%TO.N,VCC*%
X172000000Y-61220000D03*
D18*
%TO.P,R3,2*%
%TO.N,Net-(Q1-B)*%
X172000000Y-71380000D03*
%TD*%
D19*
%TO.P,BT1,2,-*%
%TO.N,GND*%
X216500000Y-77900000D03*
D20*
%TO.P,BT1,1,+*%
%TO.N,Net-(BT1-+)*%
X216500000Y-65200000D03*
%TD*%
%TA.AperFunction,Conductor*%
%TO.N,GND*%
G36*
X225002702Y-50500617D02*
G01*
X225386771Y-50517386D01*
X225397506Y-50518326D01*
X225775971Y-50568152D01*
X225786597Y-50570025D01*
X226159284Y-50652648D01*
X226169710Y-50655442D01*
X226533765Y-50770227D01*
X226543911Y-50773920D01*
X226896578Y-50920000D01*
X226906369Y-50924566D01*
X227244942Y-51100816D01*
X227254310Y-51106224D01*
X227576244Y-51311318D01*
X227585105Y-51317523D01*
X227887930Y-51549889D01*
X227896217Y-51556843D01*
X228177635Y-51814715D01*
X228185284Y-51822364D01*
X228443156Y-52103782D01*
X228450110Y-52112069D01*
X228682476Y-52414894D01*
X228688681Y-52423755D01*
X228893775Y-52745689D01*
X228899183Y-52755057D01*
X229075430Y-53093623D01*
X229080002Y-53103427D01*
X229226075Y-53456078D01*
X229229775Y-53466244D01*
X229344554Y-53830278D01*
X229347354Y-53840727D01*
X229429971Y-54213389D01*
X229431849Y-54224042D01*
X229481671Y-54602473D01*
X229482614Y-54613249D01*
X229499382Y-54997297D01*
X229499500Y-55002706D01*
X229499500Y-68405530D01*
X229479815Y-68472569D01*
X229427011Y-68518324D01*
X229357853Y-68528268D01*
X229294297Y-68499243D01*
X229284271Y-68489513D01*
X229194747Y-68392265D01*
X229194744Y-68392262D01*
X228998506Y-68239524D01*
X228779811Y-68121172D01*
X228779802Y-68121169D01*
X228544616Y-68040429D01*
X228299335Y-67999500D01*
X228050665Y-67999500D01*
X227805383Y-68040429D01*
X227570197Y-68121169D01*
X227570188Y-68121172D01*
X227351493Y-68239524D01*
X227155257Y-68392261D01*
X226986833Y-68575217D01*
X226850826Y-68783393D01*
X226750936Y-69011118D01*
X226689892Y-69252175D01*
X226689890Y-69252187D01*
X226669357Y-69499994D01*
X226669357Y-69500005D01*
X226689890Y-69747812D01*
X226689892Y-69747824D01*
X226750936Y-69988881D01*
X226850826Y-70216606D01*
X226986833Y-70424782D01*
X226986836Y-70424785D01*
X227155256Y-70607738D01*
X227351491Y-70760474D01*
X227570190Y-70878828D01*
X227805386Y-70959571D01*
X228050665Y-71000500D01*
X228299335Y-71000500D01*
X228544614Y-70959571D01*
X228779810Y-70878828D01*
X228998509Y-70760474D01*
X229194744Y-70607738D01*
X229284271Y-70510485D01*
X229344157Y-70474496D01*
X229413995Y-70476596D01*
X229471611Y-70516120D01*
X229498713Y-70580519D01*
X229499500Y-70594469D01*
X229499500Y-80405530D01*
X229479815Y-80472569D01*
X229427011Y-80518324D01*
X229357853Y-80528268D01*
X229294297Y-80499243D01*
X229284271Y-80489513D01*
X229194747Y-80392265D01*
X229194744Y-80392262D01*
X229120525Y-80334495D01*
X228998509Y-80239526D01*
X228998507Y-80239525D01*
X228998506Y-80239524D01*
X228779811Y-80121172D01*
X228779802Y-80121169D01*
X228544616Y-80040429D01*
X228299335Y-79999500D01*
X228050665Y-79999500D01*
X227805383Y-80040429D01*
X227570197Y-80121169D01*
X227570188Y-80121172D01*
X227351493Y-80239524D01*
X227155257Y-80392261D01*
X226986833Y-80575217D01*
X226850826Y-80783393D01*
X226750936Y-81011118D01*
X226689892Y-81252175D01*
X226689890Y-81252187D01*
X226669357Y-81499994D01*
X226669357Y-81500005D01*
X226689890Y-81747812D01*
X226689892Y-81747824D01*
X226750936Y-81988881D01*
X226850826Y-82216606D01*
X226986833Y-82424782D01*
X226993980Y-82432546D01*
X227155256Y-82607738D01*
X227351491Y-82760474D01*
X227570190Y-82878828D01*
X227805386Y-82959571D01*
X228050665Y-83000500D01*
X228299335Y-83000500D01*
X228544614Y-82959571D01*
X228779810Y-82878828D01*
X228998509Y-82760474D01*
X229194744Y-82607738D01*
X229284271Y-82510485D01*
X229344157Y-82474496D01*
X229413995Y-82476596D01*
X229471611Y-82516120D01*
X229498713Y-82580519D01*
X229499500Y-82594469D01*
X229499500Y-94997293D01*
X229499382Y-95002702D01*
X229482614Y-95386750D01*
X229481671Y-95397526D01*
X229431849Y-95775957D01*
X229429971Y-95786610D01*
X229347354Y-96159272D01*
X229344554Y-96169721D01*
X229229775Y-96533755D01*
X229226075Y-96543921D01*
X229080002Y-96896572D01*
X229075430Y-96906376D01*
X228899183Y-97244942D01*
X228893775Y-97254310D01*
X228688681Y-97576244D01*
X228682476Y-97585105D01*
X228450110Y-97887930D01*
X228443156Y-97896217D01*
X228185284Y-98177635D01*
X228177635Y-98185284D01*
X227896217Y-98443156D01*
X227887930Y-98450110D01*
X227585105Y-98682476D01*
X227576244Y-98688681D01*
X227254310Y-98893775D01*
X227244942Y-98899183D01*
X226906376Y-99075430D01*
X226896572Y-99080002D01*
X226543921Y-99226075D01*
X226533755Y-99229775D01*
X226169721Y-99344554D01*
X226159272Y-99347354D01*
X225786610Y-99429971D01*
X225775957Y-99431849D01*
X225397526Y-99481671D01*
X225386750Y-99482614D01*
X225002703Y-99499382D01*
X224997294Y-99499500D01*
X155002706Y-99499500D01*
X154997297Y-99499382D01*
X154613249Y-99482614D01*
X154602473Y-99481671D01*
X154224042Y-99431849D01*
X154213389Y-99429971D01*
X153840727Y-99347354D01*
X153830278Y-99344554D01*
X153466244Y-99229775D01*
X153456078Y-99226075D01*
X153103427Y-99080002D01*
X153093623Y-99075430D01*
X152755057Y-98899183D01*
X152745689Y-98893775D01*
X152423755Y-98688681D01*
X152414894Y-98682476D01*
X152112069Y-98450110D01*
X152103782Y-98443156D01*
X151822364Y-98185284D01*
X151814715Y-98177635D01*
X151556843Y-97896217D01*
X151549889Y-97887930D01*
X151317523Y-97585105D01*
X151311318Y-97576244D01*
X151106224Y-97254310D01*
X151100816Y-97244942D01*
X150924569Y-96906376D01*
X150919997Y-96896572D01*
X150773920Y-96543911D01*
X150770224Y-96533755D01*
X150655442Y-96169710D01*
X150652648Y-96159284D01*
X150570025Y-95786597D01*
X150568152Y-95775971D01*
X150518326Y-95397506D01*
X150517386Y-95386771D01*
X150505795Y-95121288D01*
X153149500Y-95121288D01*
X153181161Y-95361785D01*
X153243947Y-95596104D01*
X153336773Y-95820205D01*
X153336776Y-95820212D01*
X153458064Y-96030289D01*
X153458066Y-96030292D01*
X153458067Y-96030293D01*
X153605733Y-96222736D01*
X153605739Y-96222743D01*
X153777256Y-96394260D01*
X153777262Y-96394265D01*
X153969711Y-96541936D01*
X154179788Y-96663224D01*
X154403900Y-96756054D01*
X154638211Y-96818838D01*
X154818586Y-96842584D01*
X154878711Y-96850500D01*
X154878712Y-96850500D01*
X155121289Y-96850500D01*
X155169388Y-96844167D01*
X155361789Y-96818838D01*
X155596100Y-96756054D01*
X155820212Y-96663224D01*
X156030289Y-96541936D01*
X156222738Y-96394265D01*
X156394265Y-96222738D01*
X156541936Y-96030289D01*
X156663224Y-95820212D01*
X156756054Y-95596100D01*
X156818838Y-95361789D01*
X156850500Y-95121288D01*
X223149500Y-95121288D01*
X223181161Y-95361785D01*
X223243947Y-95596104D01*
X223336773Y-95820205D01*
X223336776Y-95820212D01*
X223458064Y-96030289D01*
X223458066Y-96030292D01*
X223458067Y-96030293D01*
X223605733Y-96222736D01*
X223605739Y-96222743D01*
X223777256Y-96394260D01*
X223777262Y-96394265D01*
X223969711Y-96541936D01*
X224179788Y-96663224D01*
X224403900Y-96756054D01*
X224638211Y-96818838D01*
X224818586Y-96842584D01*
X224878711Y-96850500D01*
X224878712Y-96850500D01*
X225121289Y-96850500D01*
X225169388Y-96844167D01*
X225361789Y-96818838D01*
X225596100Y-96756054D01*
X225820212Y-96663224D01*
X226030289Y-96541936D01*
X226222738Y-96394265D01*
X226394265Y-96222738D01*
X226541936Y-96030289D01*
X226663224Y-95820212D01*
X226756054Y-95596100D01*
X226818838Y-95361789D01*
X226850500Y-95121288D01*
X226850500Y-94878712D01*
X226818838Y-94638211D01*
X226756054Y-94403900D01*
X226663224Y-94179788D01*
X226541936Y-93969711D01*
X226394265Y-93777262D01*
X226394260Y-93777256D01*
X226222743Y-93605739D01*
X226222736Y-93605733D01*
X226030293Y-93458067D01*
X226030292Y-93458066D01*
X226030289Y-93458064D01*
X225820212Y-93336776D01*
X225820205Y-93336773D01*
X225596104Y-93243947D01*
X225361785Y-93181161D01*
X225121289Y-93149500D01*
X225121288Y-93149500D01*
X224878712Y-93149500D01*
X224878711Y-93149500D01*
X224638214Y-93181161D01*
X224403895Y-93243947D01*
X224179794Y-93336773D01*
X224179785Y-93336777D01*
X223969706Y-93458067D01*
X223777263Y-93605733D01*
X223777256Y-93605739D01*
X223605739Y-93777256D01*
X223605733Y-93777263D01*
X223458067Y-93969706D01*
X223336777Y-94179785D01*
X223336773Y-94179794D01*
X223243947Y-94403895D01*
X223181161Y-94638214D01*
X223149500Y-94878711D01*
X223149500Y-95121288D01*
X156850500Y-95121288D01*
X156850500Y-94878712D01*
X156818838Y-94638211D01*
X156756054Y-94403900D01*
X156663224Y-94179788D01*
X156541936Y-93969711D01*
X156394265Y-93777262D01*
X156394260Y-93777256D01*
X156222743Y-93605739D01*
X156222736Y-93605733D01*
X156030293Y-93458067D01*
X156030292Y-93458066D01*
X156030289Y-93458064D01*
X155820212Y-93336776D01*
X155820205Y-93336773D01*
X155596104Y-93243947D01*
X155361785Y-93181161D01*
X155121289Y-93149500D01*
X155121288Y-93149500D01*
X154878712Y-93149500D01*
X154878711Y-93149500D01*
X154638214Y-93181161D01*
X154403895Y-93243947D01*
X154179794Y-93336773D01*
X154179785Y-93336777D01*
X153969706Y-93458067D01*
X153777263Y-93605733D01*
X153777256Y-93605739D01*
X153605739Y-93777256D01*
X153605733Y-93777263D01*
X153458067Y-93969706D01*
X153336777Y-94179785D01*
X153336773Y-94179794D01*
X153243947Y-94403895D01*
X153181161Y-94638214D01*
X153149500Y-94878711D01*
X153149500Y-95121288D01*
X150505795Y-95121288D01*
X150500618Y-95002702D01*
X150500500Y-94997293D01*
X150500500Y-92331007D01*
X170749500Y-92331007D01*
X170788907Y-92529119D01*
X170788910Y-92529131D01*
X170822547Y-92610338D01*
X170830016Y-92679807D01*
X170810405Y-92724864D01*
X170810895Y-92725132D01*
X170807910Y-92730596D01*
X170807260Y-92732092D01*
X170806646Y-92732911D01*
X170806645Y-92732913D01*
X170756403Y-92867620D01*
X170756401Y-92867627D01*
X170750000Y-92927155D01*
X170750000Y-93250000D01*
X171634134Y-93250000D01*
X171658326Y-93252383D01*
X171661123Y-93252939D01*
X171673995Y-93255499D01*
X171673996Y-93255500D01*
X171673997Y-93255500D01*
X171714170Y-93255500D01*
X171699925Y-93269745D01*
X171650556Y-93355255D01*
X171625000Y-93450630D01*
X171625000Y-93549370D01*
X171650556Y-93644745D01*
X171699925Y-93730255D01*
X171719670Y-93750000D01*
X170750000Y-93750000D01*
X170750000Y-94072844D01*
X170756401Y-94132372D01*
X170756403Y-94132379D01*
X170806645Y-94267086D01*
X170806649Y-94267093D01*
X170892809Y-94382187D01*
X170892812Y-94382190D01*
X171007906Y-94468350D01*
X171007913Y-94468354D01*
X171142620Y-94518596D01*
X171142627Y-94518598D01*
X171202155Y-94524999D01*
X171202172Y-94525000D01*
X171750000Y-94525000D01*
X171750000Y-93780330D01*
X171769745Y-93800075D01*
X171855255Y-93849444D01*
X171950630Y-93875000D01*
X172049370Y-93875000D01*
X172144745Y-93849444D01*
X172230255Y-93800075D01*
X172250000Y-93780330D01*
X172250000Y-94525000D01*
X172797828Y-94525000D01*
X172797844Y-94524999D01*
X172857372Y-94518598D01*
X172857379Y-94518596D01*
X172992086Y-94468354D01*
X172992093Y-94468350D01*
X173107187Y-94382190D01*
X173107190Y-94382187D01*
X173193350Y-94267093D01*
X173193354Y-94267086D01*
X173243596Y-94132379D01*
X173243598Y-94132372D01*
X173249999Y-94072844D01*
X173250000Y-94072827D01*
X173250000Y-93750000D01*
X172280330Y-93750000D01*
X172300075Y-93730255D01*
X172349444Y-93644745D01*
X172375000Y-93549370D01*
X172375000Y-93450630D01*
X172349444Y-93355255D01*
X172300075Y-93269745D01*
X172285830Y-93255500D01*
X172326004Y-93255500D01*
X172326004Y-93255499D01*
X172339473Y-93252820D01*
X172341674Y-93252383D01*
X172365866Y-93250000D01*
X173250000Y-93250000D01*
X173250000Y-92927172D01*
X173249999Y-92927155D01*
X173243598Y-92867627D01*
X173243596Y-92867620D01*
X173193354Y-92732913D01*
X173193353Y-92732911D01*
X173192745Y-92732099D01*
X173192390Y-92731148D01*
X173189103Y-92725128D01*
X173189968Y-92724655D01*
X173168329Y-92666634D01*
X173177452Y-92610338D01*
X173211091Y-92529127D01*
X173250499Y-92331007D01*
X185699500Y-92331007D01*
X185738907Y-92529119D01*
X185738910Y-92529131D01*
X185772547Y-92610338D01*
X185780016Y-92679807D01*
X185760405Y-92724864D01*
X185760895Y-92725132D01*
X185757910Y-92730596D01*
X185757260Y-92732092D01*
X185756646Y-92732911D01*
X185756645Y-92732913D01*
X185706403Y-92867620D01*
X185706401Y-92867627D01*
X185700000Y-92927155D01*
X185700000Y-93250000D01*
X186584134Y-93250000D01*
X186608326Y-93252383D01*
X186611123Y-93252939D01*
X186623995Y-93255499D01*
X186623996Y-93255500D01*
X186623997Y-93255500D01*
X186664170Y-93255500D01*
X186649925Y-93269745D01*
X186600556Y-93355255D01*
X186575000Y-93450630D01*
X186575000Y-93549370D01*
X186600556Y-93644745D01*
X186649925Y-93730255D01*
X186669670Y-93750000D01*
X185700000Y-93750000D01*
X185700000Y-94072844D01*
X185706401Y-94132372D01*
X185706403Y-94132379D01*
X185756645Y-94267086D01*
X185756649Y-94267093D01*
X185842809Y-94382187D01*
X185842812Y-94382190D01*
X185957906Y-94468350D01*
X185957913Y-94468354D01*
X186092620Y-94518596D01*
X186092627Y-94518598D01*
X186152155Y-94524999D01*
X186152172Y-94525000D01*
X186700000Y-94525000D01*
X186700000Y-93780330D01*
X186719745Y-93800075D01*
X186805255Y-93849444D01*
X186900630Y-93875000D01*
X186999370Y-93875000D01*
X187094745Y-93849444D01*
X187180255Y-93800075D01*
X187200000Y-93780330D01*
X187200000Y-94525000D01*
X187747828Y-94525000D01*
X187747844Y-94524999D01*
X187807372Y-94518598D01*
X187807379Y-94518596D01*
X187942086Y-94468354D01*
X187942093Y-94468350D01*
X188057187Y-94382190D01*
X188057190Y-94382187D01*
X188143350Y-94267093D01*
X188143354Y-94267086D01*
X188193596Y-94132379D01*
X188193598Y-94132372D01*
X188199999Y-94072844D01*
X188200000Y-94072827D01*
X188200000Y-93750000D01*
X187230330Y-93750000D01*
X187250075Y-93730255D01*
X187299444Y-93644745D01*
X187325000Y-93549370D01*
X187325000Y-93450630D01*
X187299444Y-93355255D01*
X187250075Y-93269745D01*
X187235830Y-93255500D01*
X187276004Y-93255500D01*
X187276004Y-93255499D01*
X187289473Y-93252820D01*
X187291674Y-93252383D01*
X187315866Y-93250000D01*
X188200000Y-93250000D01*
X188200000Y-92927172D01*
X188199999Y-92927155D01*
X188193598Y-92867627D01*
X188193596Y-92867620D01*
X188143354Y-92732913D01*
X188143353Y-92732911D01*
X188142745Y-92732099D01*
X188142390Y-92731148D01*
X188139103Y-92725128D01*
X188139968Y-92724655D01*
X188118329Y-92666634D01*
X188127452Y-92610338D01*
X188161091Y-92529127D01*
X188200500Y-92331003D01*
X188200500Y-92128997D01*
X188161091Y-91930873D01*
X188083786Y-91744244D01*
X188030094Y-91663889D01*
X188009217Y-91597214D01*
X188027701Y-91529834D01*
X188030078Y-91526134D01*
X188083786Y-91445756D01*
X188161091Y-91259127D01*
X188200500Y-91061003D01*
X188200500Y-90858997D01*
X188161091Y-90660873D01*
X188083786Y-90474244D01*
X188083784Y-90474241D01*
X188083782Y-90474237D01*
X187971558Y-90306281D01*
X187828718Y-90163441D01*
X187660762Y-90051217D01*
X187660752Y-90051212D01*
X187474127Y-89973909D01*
X187474119Y-89973907D01*
X187276007Y-89934500D01*
X187276003Y-89934500D01*
X186623997Y-89934500D01*
X186623992Y-89934500D01*
X186425880Y-89973907D01*
X186425872Y-89973909D01*
X186239247Y-90051212D01*
X186239237Y-90051217D01*
X186071281Y-90163441D01*
X185928441Y-90306281D01*
X185816217Y-90474237D01*
X185816212Y-90474247D01*
X185738909Y-90660872D01*
X185738907Y-90660880D01*
X185699500Y-90858992D01*
X185699500Y-91061007D01*
X185738907Y-91259119D01*
X185738909Y-91259127D01*
X185816213Y-91445755D01*
X185869904Y-91526109D01*
X185890782Y-91592787D01*
X185872297Y-91660167D01*
X185869904Y-91663891D01*
X185816213Y-91744244D01*
X185738909Y-91930872D01*
X185738907Y-91930880D01*
X185699500Y-92128992D01*
X185699500Y-92331007D01*
X173250499Y-92331007D01*
X173250500Y-92331003D01*
X173250500Y-92128997D01*
X173211091Y-91930873D01*
X173133786Y-91744244D01*
X173080094Y-91663889D01*
X173059217Y-91597214D01*
X173077701Y-91529834D01*
X173080078Y-91526134D01*
X173133786Y-91445756D01*
X173211091Y-91259127D01*
X173250500Y-91061003D01*
X173250500Y-90858997D01*
X173211091Y-90660873D01*
X173133786Y-90474244D01*
X173133784Y-90474241D01*
X173133782Y-90474237D01*
X173021558Y-90306281D01*
X172878718Y-90163441D01*
X172710762Y-90051217D01*
X172710752Y-90051212D01*
X172524127Y-89973909D01*
X172524119Y-89973907D01*
X172326007Y-89934500D01*
X172326003Y-89934500D01*
X171673997Y-89934500D01*
X171673992Y-89934500D01*
X171475880Y-89973907D01*
X171475872Y-89973909D01*
X171289247Y-90051212D01*
X171289237Y-90051217D01*
X171121281Y-90163441D01*
X170978441Y-90306281D01*
X170866217Y-90474237D01*
X170866212Y-90474247D01*
X170788909Y-90660872D01*
X170788907Y-90660880D01*
X170749500Y-90858992D01*
X170749500Y-91061007D01*
X170788907Y-91259119D01*
X170788909Y-91259127D01*
X170866213Y-91445755D01*
X170919904Y-91526109D01*
X170940782Y-91592787D01*
X170922297Y-91660167D01*
X170919904Y-91663891D01*
X170866213Y-91744244D01*
X170788909Y-91930872D01*
X170788907Y-91930880D01*
X170749500Y-92128992D01*
X170749500Y-92331007D01*
X150500500Y-92331007D01*
X150500500Y-88829474D01*
X190804500Y-88829474D01*
X190804501Y-88829491D01*
X190838299Y-89086217D01*
X190838300Y-89086222D01*
X190838301Y-89086228D01*
X190838302Y-89086230D01*
X190905324Y-89336364D01*
X191004423Y-89575609D01*
X191004427Y-89575619D01*
X191133906Y-89799883D01*
X191291551Y-90005331D01*
X191291557Y-90005338D01*
X191474661Y-90188442D01*
X191474668Y-90188448D01*
X191680116Y-90346093D01*
X191904380Y-90475572D01*
X191904381Y-90475572D01*
X191904384Y-90475574D01*
X192143634Y-90574675D01*
X192393772Y-90641699D01*
X192650519Y-90675500D01*
X192650526Y-90675500D01*
X192909474Y-90675500D01*
X192909481Y-90675500D01*
X193166228Y-90641699D01*
X193416366Y-90574675D01*
X193655616Y-90475574D01*
X193879884Y-90346093D01*
X194085333Y-90188447D01*
X194268447Y-90005333D01*
X194426093Y-89799884D01*
X194555574Y-89575616D01*
X194654675Y-89336366D01*
X194721699Y-89086228D01*
X194755500Y-88829481D01*
X194755500Y-88570519D01*
X194721699Y-88313772D01*
X194654675Y-88063634D01*
X194555574Y-87824384D01*
X194426093Y-87600116D01*
X194268447Y-87394667D01*
X194268442Y-87394661D01*
X194085338Y-87211557D01*
X194085331Y-87211551D01*
X193879883Y-87053906D01*
X193655619Y-86924427D01*
X193655609Y-86924423D01*
X193416364Y-86825324D01*
X193291297Y-86791813D01*
X193166228Y-86758301D01*
X193166222Y-86758300D01*
X193166217Y-86758299D01*
X192909491Y-86724501D01*
X192909486Y-86724500D01*
X192909481Y-86724500D01*
X192650519Y-86724500D01*
X192650513Y-86724500D01*
X192650508Y-86724501D01*
X192393782Y-86758299D01*
X192393775Y-86758300D01*
X192393772Y-86758301D01*
X192340908Y-86772465D01*
X192143635Y-86825324D01*
X191904390Y-86924423D01*
X191904380Y-86924427D01*
X191680116Y-87053906D01*
X191474668Y-87211551D01*
X191474661Y-87211557D01*
X191291557Y-87394661D01*
X191291551Y-87394668D01*
X191133906Y-87600116D01*
X191004427Y-87824380D01*
X191004423Y-87824390D01*
X190905324Y-88063635D01*
X190838302Y-88313769D01*
X190838299Y-88313782D01*
X190804501Y-88570508D01*
X190804500Y-88570525D01*
X190804500Y-88829474D01*
X150500500Y-88829474D01*
X150500500Y-78635006D01*
X155594700Y-78635006D01*
X155613864Y-78866297D01*
X155613866Y-78866308D01*
X155670842Y-79091300D01*
X155764075Y-79303848D01*
X155891016Y-79498147D01*
X155891019Y-79498151D01*
X155891021Y-79498153D01*
X155985803Y-79601114D01*
X156016724Y-79663767D01*
X156008864Y-79733193D01*
X155964716Y-79787348D01*
X155937906Y-79801277D01*
X155857669Y-79831203D01*
X155857664Y-79831206D01*
X155742455Y-79917452D01*
X155742452Y-79917455D01*
X155656206Y-80032664D01*
X155656202Y-80032671D01*
X155605908Y-80167517D01*
X155599501Y-80227116D01*
X155599501Y-80227123D01*
X155599500Y-80227135D01*
X155599500Y-82122870D01*
X155599501Y-82122876D01*
X155605908Y-82182483D01*
X155656202Y-82317328D01*
X155656206Y-82317335D01*
X155742452Y-82432544D01*
X155742455Y-82432547D01*
X155857664Y-82518793D01*
X155857671Y-82518797D01*
X155992517Y-82569091D01*
X155992516Y-82569091D01*
X155999444Y-82569835D01*
X156052127Y-82575500D01*
X157947872Y-82575499D01*
X158007483Y-82569091D01*
X158142331Y-82518796D01*
X158257546Y-82432546D01*
X158343796Y-82317331D01*
X158394091Y-82182483D01*
X158400500Y-82122873D01*
X158400499Y-80227128D01*
X158394091Y-80167517D01*
X158383846Y-80140050D01*
X158343797Y-80032671D01*
X158343793Y-80032664D01*
X158257547Y-79917455D01*
X158257544Y-79917452D01*
X158142335Y-79831206D01*
X158142328Y-79831202D01*
X158062094Y-79801277D01*
X158006160Y-79759406D01*
X157981743Y-79693941D01*
X157996595Y-79625668D01*
X158014190Y-79601121D01*
X158108979Y-79498153D01*
X158235924Y-79303849D01*
X158329157Y-79091300D01*
X158386134Y-78866305D01*
X158389791Y-78822169D01*
X158401374Y-78682381D01*
X170694532Y-78682381D01*
X170714364Y-78909066D01*
X170714366Y-78909077D01*
X170773258Y-79128868D01*
X170773261Y-79128877D01*
X170869431Y-79335112D01*
X170869432Y-79335114D01*
X170999954Y-79521521D01*
X171157086Y-79678653D01*
X171190571Y-79739976D01*
X171185587Y-79809668D01*
X171143715Y-79865601D01*
X171097932Y-79887008D01*
X171092522Y-79888286D01*
X170957671Y-79938582D01*
X170957664Y-79938586D01*
X170842455Y-80024832D01*
X170842452Y-80024835D01*
X170756206Y-80140044D01*
X170756202Y-80140051D01*
X170705908Y-80274897D01*
X170699501Y-80334495D01*
X170699501Y-80334503D01*
X170699500Y-80334515D01*
X170699500Y-82030250D01*
X170699501Y-82030256D01*
X170705908Y-82089863D01*
X170756202Y-82224708D01*
X170756206Y-82224715D01*
X170842452Y-82339924D01*
X170842455Y-82339927D01*
X170957664Y-82426173D01*
X170957671Y-82426177D01*
X171092517Y-82476471D01*
X171092516Y-82476471D01*
X171099444Y-82477215D01*
X171152127Y-82482880D01*
X172847872Y-82482879D01*
X172907483Y-82476471D01*
X173042331Y-82426176D01*
X173157546Y-82339926D01*
X173243796Y-82224711D01*
X173294091Y-82089863D01*
X173300500Y-82030253D01*
X173300499Y-80334508D01*
X173294091Y-80274897D01*
X173294090Y-80274895D01*
X173243797Y-80140051D01*
X173243793Y-80140044D01*
X173157547Y-80024835D01*
X173157544Y-80024832D01*
X173042335Y-79938586D01*
X173042328Y-79938582D01*
X172907483Y-79888288D01*
X172902079Y-79887012D01*
X172841363Y-79852440D01*
X172808976Y-79790529D01*
X172815202Y-79720938D01*
X172842910Y-79678655D01*
X173000047Y-79521519D01*
X173130568Y-79335114D01*
X173226739Y-79128876D01*
X173285635Y-78909072D01*
X173305468Y-78682380D01*
X185694532Y-78682380D01*
X185714364Y-78909065D01*
X185714366Y-78909076D01*
X185773258Y-79128867D01*
X185773261Y-79128876D01*
X185869431Y-79335111D01*
X185869432Y-79335113D01*
X185999954Y-79521520D01*
X186157086Y-79678652D01*
X186190571Y-79739975D01*
X186185587Y-79809667D01*
X186143715Y-79865600D01*
X186097932Y-79887007D01*
X186092522Y-79888285D01*
X185957671Y-79938581D01*
X185957664Y-79938585D01*
X185842455Y-80024831D01*
X185842452Y-80024834D01*
X185756206Y-80140043D01*
X185756202Y-80140050D01*
X185705908Y-80274896D01*
X185699501Y-80334495D01*
X185699501Y-80334503D01*
X185699500Y-80334514D01*
X185699500Y-82030249D01*
X185699501Y-82030255D01*
X185705908Y-82089862D01*
X185756202Y-82224707D01*
X185756206Y-82224714D01*
X185842452Y-82339923D01*
X185842455Y-82339926D01*
X185957664Y-82426172D01*
X185957671Y-82426176D01*
X186092517Y-82476470D01*
X186092516Y-82476470D01*
X186099444Y-82477214D01*
X186152127Y-82482879D01*
X187847872Y-82482878D01*
X187907483Y-82476470D01*
X188042331Y-82426175D01*
X188157546Y-82339925D01*
X188243796Y-82224710D01*
X188294091Y-82089862D01*
X188300500Y-82030252D01*
X188300499Y-80334507D01*
X188294091Y-80274896D01*
X188276277Y-80227135D01*
X188243797Y-80140050D01*
X188243793Y-80140043D01*
X188157547Y-80024834D01*
X188157544Y-80024831D01*
X188042335Y-79938585D01*
X188042328Y-79938581D01*
X187907483Y-79888287D01*
X187902079Y-79887011D01*
X187841363Y-79852439D01*
X187808976Y-79790528D01*
X187815202Y-79720937D01*
X187842910Y-79678654D01*
X188000047Y-79521518D01*
X188130568Y-79335113D01*
X188226739Y-79128875D01*
X188285635Y-78909071D01*
X188305468Y-78682379D01*
X188301323Y-78635006D01*
X200594700Y-78635006D01*
X200613864Y-78866297D01*
X200613866Y-78866308D01*
X200670842Y-79091300D01*
X200764075Y-79303848D01*
X200891016Y-79498147D01*
X200891019Y-79498151D01*
X200891021Y-79498153D01*
X200985803Y-79601114D01*
X201016724Y-79663767D01*
X201008864Y-79733193D01*
X200964716Y-79787348D01*
X200937906Y-79801277D01*
X200857669Y-79831203D01*
X200857664Y-79831206D01*
X200742455Y-79917452D01*
X200742452Y-79917455D01*
X200656206Y-80032664D01*
X200656202Y-80032671D01*
X200605908Y-80167517D01*
X200599501Y-80227116D01*
X200599501Y-80227123D01*
X200599500Y-80227135D01*
X200599500Y-82122870D01*
X200599501Y-82122876D01*
X200605908Y-82182483D01*
X200656202Y-82317328D01*
X200656206Y-82317335D01*
X200742452Y-82432544D01*
X200742455Y-82432547D01*
X200857664Y-82518793D01*
X200857671Y-82518797D01*
X200992517Y-82569091D01*
X200992516Y-82569091D01*
X200999444Y-82569835D01*
X201052127Y-82575500D01*
X202947872Y-82575499D01*
X203007483Y-82569091D01*
X203142331Y-82518796D01*
X203257546Y-82432546D01*
X203343796Y-82317331D01*
X203394091Y-82182483D01*
X203400500Y-82122873D01*
X203400500Y-81500005D01*
X220669357Y-81500005D01*
X220689890Y-81747812D01*
X220689892Y-81747824D01*
X220750936Y-81988881D01*
X220850826Y-82216606D01*
X220986833Y-82424782D01*
X220993980Y-82432546D01*
X221155256Y-82607738D01*
X221351491Y-82760474D01*
X221570190Y-82878828D01*
X221805386Y-82959571D01*
X222050665Y-83000500D01*
X222299335Y-83000500D01*
X222544614Y-82959571D01*
X222779810Y-82878828D01*
X222998509Y-82760474D01*
X223194744Y-82607738D01*
X223363164Y-82424785D01*
X223499173Y-82216607D01*
X223599063Y-81988881D01*
X223660108Y-81747821D01*
X223680643Y-81500000D01*
X223660108Y-81252179D01*
X223599063Y-81011119D01*
X223599063Y-81011118D01*
X223599062Y-81011114D01*
X223597399Y-81006271D01*
X223598471Y-81005902D01*
X223590269Y-80942076D01*
X223620243Y-80878962D01*
X223679581Y-80842073D01*
X223723532Y-80838032D01*
X223906595Y-80854048D01*
X223924999Y-80855659D01*
X223925000Y-80855659D01*
X223925001Y-80855659D01*
X223964234Y-80852226D01*
X224160408Y-80835063D01*
X224388663Y-80773903D01*
X224602830Y-80674035D01*
X224796401Y-80538495D01*
X224963495Y-80371401D01*
X225099035Y-80177830D01*
X225198903Y-79963663D01*
X225260063Y-79735408D01*
X225280659Y-79500000D01*
X225260063Y-79264592D01*
X225198903Y-79036337D01*
X225099035Y-78822171D01*
X225001154Y-78682381D01*
X224963494Y-78628597D01*
X224796402Y-78461506D01*
X224796395Y-78461501D01*
X224788100Y-78455693D01*
X224757521Y-78434281D01*
X224602834Y-78325967D01*
X224602830Y-78325965D01*
X224447542Y-78253553D01*
X224388663Y-78226097D01*
X224388659Y-78226096D01*
X224388655Y-78226094D01*
X224160413Y-78164938D01*
X224160403Y-78164936D01*
X223925001Y-78144341D01*
X223924999Y-78144341D01*
X223689596Y-78164936D01*
X223689586Y-78164938D01*
X223461344Y-78226094D01*
X223461335Y-78226098D01*
X223247171Y-78325964D01*
X223247169Y-78325965D01*
X223053597Y-78461505D01*
X222886505Y-78628597D01*
X222750965Y-78822169D01*
X222750964Y-78822171D01*
X222651098Y-79036335D01*
X222651094Y-79036344D01*
X222589938Y-79264586D01*
X222589936Y-79264596D01*
X222569341Y-79499999D01*
X222569341Y-79500000D01*
X222589936Y-79735403D01*
X222589938Y-79735413D01*
X222627743Y-79876506D01*
X222626080Y-79946356D01*
X222586917Y-80004218D01*
X222522688Y-80031722D01*
X222487559Y-80030908D01*
X222299335Y-79999500D01*
X222050665Y-79999500D01*
X221805383Y-80040429D01*
X221570197Y-80121169D01*
X221570188Y-80121172D01*
X221351493Y-80239524D01*
X221155257Y-80392261D01*
X220986833Y-80575217D01*
X220850826Y-80783393D01*
X220750936Y-81011118D01*
X220689892Y-81252175D01*
X220689890Y-81252187D01*
X220669357Y-81499994D01*
X220669357Y-81500005D01*
X203400500Y-81500005D01*
X203400499Y-80227128D01*
X203394091Y-80167517D01*
X203383846Y-80140050D01*
X203343797Y-80032671D01*
X203343793Y-80032664D01*
X203257547Y-79917455D01*
X203257544Y-79917452D01*
X203142335Y-79831206D01*
X203142328Y-79831202D01*
X203062094Y-79801277D01*
X203006160Y-79759406D01*
X202981743Y-79693941D01*
X202996595Y-79625668D01*
X203014190Y-79601121D01*
X203108979Y-79498153D01*
X203235924Y-79303849D01*
X203329157Y-79091300D01*
X203386134Y-78866305D01*
X203389791Y-78822169D01*
X203405300Y-78635006D01*
X203405300Y-78634993D01*
X203386135Y-78403702D01*
X203386133Y-78403691D01*
X203329157Y-78178699D01*
X203235924Y-77966151D01*
X203192706Y-77900001D01*
X214494891Y-77900001D01*
X214515300Y-78185362D01*
X214576109Y-78464895D01*
X214676091Y-78732958D01*
X214813191Y-78984038D01*
X214813196Y-78984046D01*
X214919882Y-79126561D01*
X214919883Y-79126562D01*
X215976212Y-78070233D01*
X215987482Y-78112292D01*
X216059890Y-78237708D01*
X216162292Y-78340110D01*
X216287708Y-78412518D01*
X216329765Y-78423787D01*
X215273436Y-79480115D01*
X215415960Y-79586807D01*
X215415961Y-79586808D01*
X215667042Y-79723908D01*
X215667041Y-79723908D01*
X215935104Y-79823890D01*
X216214637Y-79884699D01*
X216499999Y-79905109D01*
X216500001Y-79905109D01*
X216785362Y-79884699D01*
X217064895Y-79823890D01*
X217332958Y-79723908D01*
X217584047Y-79586803D01*
X217726561Y-79480116D01*
X217726562Y-79480115D01*
X216670235Y-78423787D01*
X216712292Y-78412518D01*
X216837708Y-78340110D01*
X216940110Y-78237708D01*
X217012518Y-78112292D01*
X217023787Y-78070234D01*
X218080115Y-79126562D01*
X218080116Y-79126561D01*
X218186803Y-78984047D01*
X218323908Y-78732958D01*
X218423890Y-78464895D01*
X218484699Y-78185362D01*
X218505109Y-77900001D01*
X218505109Y-77899998D01*
X218484699Y-77614637D01*
X218423890Y-77335104D01*
X218323908Y-77067041D01*
X218186808Y-76815961D01*
X218186807Y-76815960D01*
X218080115Y-76673436D01*
X217023787Y-77729764D01*
X217012518Y-77687708D01*
X216940110Y-77562292D01*
X216837708Y-77459890D01*
X216712292Y-77387482D01*
X216670234Y-77376212D01*
X217726562Y-76319883D01*
X217726561Y-76319882D01*
X217584046Y-76213196D01*
X217584038Y-76213191D01*
X217332957Y-76076091D01*
X217332958Y-76076091D01*
X217064895Y-75976109D01*
X216785362Y-75915300D01*
X216500001Y-75894891D01*
X216499999Y-75894891D01*
X216214637Y-75915300D01*
X215935104Y-75976109D01*
X215667041Y-76076091D01*
X215415961Y-76213191D01*
X215415953Y-76213196D01*
X215273437Y-76319882D01*
X215273436Y-76319883D01*
X216329766Y-77376212D01*
X216287708Y-77387482D01*
X216162292Y-77459890D01*
X216059890Y-77562292D01*
X215987482Y-77687708D01*
X215976212Y-77729765D01*
X214919883Y-76673436D01*
X214919882Y-76673437D01*
X214813196Y-76815953D01*
X214813191Y-76815961D01*
X214676091Y-77067041D01*
X214576109Y-77335104D01*
X214515300Y-77614637D01*
X214494891Y-77899998D01*
X214494891Y-77900001D01*
X203192706Y-77900001D01*
X203108983Y-77771852D01*
X203108980Y-77771849D01*
X203108979Y-77771847D01*
X202951784Y-77601087D01*
X202951779Y-77601083D01*
X202951777Y-77601081D01*
X202768634Y-77458535D01*
X202768628Y-77458531D01*
X202564504Y-77348064D01*
X202564495Y-77348061D01*
X202344984Y-77272702D01*
X202173282Y-77244050D01*
X202116049Y-77234500D01*
X201883951Y-77234500D01*
X201838164Y-77242140D01*
X201655015Y-77272702D01*
X201435504Y-77348061D01*
X201435495Y-77348064D01*
X201231371Y-77458531D01*
X201231365Y-77458535D01*
X201048222Y-77601081D01*
X201048219Y-77601084D01*
X201048216Y-77601086D01*
X201048216Y-77601087D01*
X200989267Y-77665122D01*
X200891016Y-77771852D01*
X200764075Y-77966151D01*
X200670842Y-78178699D01*
X200613866Y-78403691D01*
X200613864Y-78403702D01*
X200594700Y-78634993D01*
X200594700Y-78635006D01*
X188301323Y-78635006D01*
X188285635Y-78455687D01*
X188226739Y-78235883D01*
X188130568Y-78029645D01*
X188000047Y-77843240D01*
X188000045Y-77843237D01*
X187839141Y-77682333D01*
X187652734Y-77551811D01*
X187652732Y-77551810D01*
X187446497Y-77455640D01*
X187446488Y-77455637D01*
X187226697Y-77396745D01*
X187226693Y-77396744D01*
X187226692Y-77396744D01*
X187226691Y-77396743D01*
X187226686Y-77396743D01*
X187000002Y-77376911D01*
X186999998Y-77376911D01*
X186773313Y-77396743D01*
X186773302Y-77396745D01*
X186553511Y-77455637D01*
X186553502Y-77455640D01*
X186347267Y-77551810D01*
X186347265Y-77551811D01*
X186160858Y-77682333D01*
X185999954Y-77843237D01*
X185869432Y-78029644D01*
X185869431Y-78029646D01*
X185773261Y-78235881D01*
X185773258Y-78235890D01*
X185714366Y-78455681D01*
X185714364Y-78455692D01*
X185694532Y-78682377D01*
X185694532Y-78682380D01*
X173305468Y-78682380D01*
X173285635Y-78455688D01*
X173226739Y-78235884D01*
X173130568Y-78029646D01*
X173000047Y-77843241D01*
X173000046Y-77843240D01*
X173000045Y-77843238D01*
X172839141Y-77682334D01*
X172652734Y-77551812D01*
X172652732Y-77551811D01*
X172446497Y-77455641D01*
X172446488Y-77455638D01*
X172226697Y-77396746D01*
X172226693Y-77396745D01*
X172226692Y-77396745D01*
X172226691Y-77396744D01*
X172226686Y-77396744D01*
X172000002Y-77376912D01*
X171999998Y-77376912D01*
X171773313Y-77396744D01*
X171773302Y-77396746D01*
X171553511Y-77455638D01*
X171553502Y-77455641D01*
X171347267Y-77551811D01*
X171347265Y-77551812D01*
X171160858Y-77682334D01*
X170999954Y-77843238D01*
X170869432Y-78029645D01*
X170869431Y-78029647D01*
X170773261Y-78235882D01*
X170773258Y-78235891D01*
X170714366Y-78455682D01*
X170714364Y-78455693D01*
X170694532Y-78682378D01*
X170694532Y-78682381D01*
X158401374Y-78682381D01*
X158405300Y-78635006D01*
X158405300Y-78634993D01*
X158386135Y-78403702D01*
X158386133Y-78403691D01*
X158329157Y-78178699D01*
X158235924Y-77966151D01*
X158108983Y-77771852D01*
X158108980Y-77771849D01*
X158108979Y-77771847D01*
X157951784Y-77601087D01*
X157951779Y-77601083D01*
X157951777Y-77601081D01*
X157768634Y-77458535D01*
X157768628Y-77458531D01*
X157564504Y-77348064D01*
X157564495Y-77348061D01*
X157344984Y-77272702D01*
X157173282Y-77244050D01*
X157116049Y-77234500D01*
X156883951Y-77234500D01*
X156838164Y-77242140D01*
X156655015Y-77272702D01*
X156435504Y-77348061D01*
X156435495Y-77348064D01*
X156231371Y-77458531D01*
X156231365Y-77458535D01*
X156048222Y-77601081D01*
X156048219Y-77601084D01*
X156048216Y-77601086D01*
X156048216Y-77601087D01*
X155989267Y-77665122D01*
X155891016Y-77771852D01*
X155764075Y-77966151D01*
X155670842Y-78178699D01*
X155613866Y-78403691D01*
X155613864Y-78403702D01*
X155594700Y-78634993D01*
X155594700Y-78635006D01*
X150500500Y-78635006D01*
X150500500Y-75500000D01*
X222569341Y-75500000D01*
X222589936Y-75735403D01*
X222589938Y-75735413D01*
X222651094Y-75963655D01*
X222651096Y-75963659D01*
X222651097Y-75963663D01*
X222656901Y-75976109D01*
X222750965Y-76177830D01*
X222750967Y-76177834D01*
X222850431Y-76319882D01*
X222886505Y-76371401D01*
X223053599Y-76538495D01*
X223150384Y-76606265D01*
X223247165Y-76674032D01*
X223247167Y-76674033D01*
X223247170Y-76674035D01*
X223461337Y-76773903D01*
X223689592Y-76835063D01*
X223877918Y-76851539D01*
X223924999Y-76855659D01*
X223925000Y-76855659D01*
X223925001Y-76855659D01*
X223964234Y-76852226D01*
X224160408Y-76835063D01*
X224388663Y-76773903D01*
X224602830Y-76674035D01*
X224796401Y-76538495D01*
X224963495Y-76371401D01*
X225099035Y-76177830D01*
X225198903Y-75963663D01*
X225260063Y-75735408D01*
X225280659Y-75500000D01*
X225260063Y-75264592D01*
X225198903Y-75036337D01*
X225099035Y-74822171D01*
X224963495Y-74628599D01*
X224963494Y-74628597D01*
X224796402Y-74461506D01*
X224796395Y-74461501D01*
X224602834Y-74325967D01*
X224602830Y-74325965D01*
X224602828Y-74325964D01*
X224388663Y-74226097D01*
X224388659Y-74226096D01*
X224388655Y-74226094D01*
X224160413Y-74164938D01*
X224160403Y-74164936D01*
X223925001Y-74144341D01*
X223924999Y-74144341D01*
X223689596Y-74164936D01*
X223689586Y-74164938D01*
X223461344Y-74226094D01*
X223461335Y-74226098D01*
X223247171Y-74325964D01*
X223247169Y-74325965D01*
X223053597Y-74461505D01*
X222886505Y-74628597D01*
X222750965Y-74822169D01*
X222750964Y-74822171D01*
X222651098Y-75036335D01*
X222651094Y-75036344D01*
X222589938Y-75264586D01*
X222589936Y-75264596D01*
X222569341Y-75499999D01*
X222569341Y-75500000D01*
X150500500Y-75500000D01*
X150500500Y-71380001D01*
X155694532Y-71380001D01*
X155714364Y-71606686D01*
X155714366Y-71606697D01*
X155773258Y-71826488D01*
X155773261Y-71826497D01*
X155869431Y-72032732D01*
X155869432Y-72032734D01*
X155999954Y-72219141D01*
X156160858Y-72380045D01*
X156160861Y-72380047D01*
X156347266Y-72510568D01*
X156553504Y-72606739D01*
X156773308Y-72665635D01*
X156935230Y-72679801D01*
X156999998Y-72685468D01*
X157000000Y-72685468D01*
X157000002Y-72685468D01*
X157056673Y-72680509D01*
X157226692Y-72665635D01*
X157446496Y-72606739D01*
X157652734Y-72510568D01*
X157839139Y-72380047D01*
X158000047Y-72219139D01*
X158130568Y-72032734D01*
X158226739Y-71826496D01*
X158285635Y-71606692D01*
X158305468Y-71380001D01*
X170694532Y-71380001D01*
X170714364Y-71606686D01*
X170714366Y-71606697D01*
X170773258Y-71826488D01*
X170773261Y-71826497D01*
X170869431Y-72032732D01*
X170869432Y-72032734D01*
X170999954Y-72219141D01*
X171160858Y-72380045D01*
X171160861Y-72380047D01*
X171347266Y-72510568D01*
X171553504Y-72606739D01*
X171773308Y-72665635D01*
X171935230Y-72679801D01*
X171999998Y-72685468D01*
X172000000Y-72685468D01*
X172000002Y-72685468D01*
X172056673Y-72680509D01*
X172226692Y-72665635D01*
X172446496Y-72606739D01*
X172652734Y-72510568D01*
X172839139Y-72380047D01*
X173000047Y-72219139D01*
X173130568Y-72032734D01*
X173226739Y-71826496D01*
X173285635Y-71606692D01*
X173305468Y-71380001D01*
X185694532Y-71380001D01*
X185714364Y-71606686D01*
X185714366Y-71606697D01*
X185773258Y-71826488D01*
X185773261Y-71826497D01*
X185869431Y-72032732D01*
X185869432Y-72032734D01*
X185999954Y-72219141D01*
X186160858Y-72380045D01*
X186160861Y-72380047D01*
X186347266Y-72510568D01*
X186553504Y-72606739D01*
X186773308Y-72665635D01*
X186935230Y-72679801D01*
X186999998Y-72685468D01*
X187000000Y-72685468D01*
X187000002Y-72685468D01*
X187056673Y-72680509D01*
X187226692Y-72665635D01*
X187446496Y-72606739D01*
X187652734Y-72510568D01*
X187839139Y-72380047D01*
X188000047Y-72219139D01*
X188130568Y-72032734D01*
X188226739Y-71826496D01*
X188285635Y-71606692D01*
X188305468Y-71380001D01*
X200694532Y-71380001D01*
X200714364Y-71606686D01*
X200714366Y-71606697D01*
X200773258Y-71826488D01*
X200773261Y-71826497D01*
X200869431Y-72032732D01*
X200869432Y-72032734D01*
X200999954Y-72219141D01*
X201160858Y-72380045D01*
X201160861Y-72380047D01*
X201347266Y-72510568D01*
X201553504Y-72606739D01*
X201773308Y-72665635D01*
X201935230Y-72679801D01*
X201999998Y-72685468D01*
X202000000Y-72685468D01*
X202000002Y-72685468D01*
X202056673Y-72680509D01*
X202226692Y-72665635D01*
X202446496Y-72606739D01*
X202652734Y-72510568D01*
X202839139Y-72380047D01*
X203000047Y-72219139D01*
X203130568Y-72032734D01*
X203226739Y-71826496D01*
X203285635Y-71606692D01*
X203305468Y-71380000D01*
X203285635Y-71153308D01*
X203226739Y-70933504D01*
X203130568Y-70727266D01*
X203000047Y-70540861D01*
X203000045Y-70540858D01*
X202839141Y-70379954D01*
X202652734Y-70249432D01*
X202652732Y-70249431D01*
X202446497Y-70153261D01*
X202446488Y-70153258D01*
X202226697Y-70094366D01*
X202226693Y-70094365D01*
X202226692Y-70094365D01*
X202226691Y-70094364D01*
X202226686Y-70094364D01*
X202000002Y-70074532D01*
X201999998Y-70074532D01*
X201773313Y-70094364D01*
X201773302Y-70094366D01*
X201553511Y-70153258D01*
X201553502Y-70153261D01*
X201347267Y-70249431D01*
X201347265Y-70249432D01*
X201160858Y-70379954D01*
X200999954Y-70540858D01*
X200869432Y-70727265D01*
X200869431Y-70727267D01*
X200773261Y-70933502D01*
X200773258Y-70933511D01*
X200714366Y-71153302D01*
X200714364Y-71153313D01*
X200694532Y-71379998D01*
X200694532Y-71380001D01*
X188305468Y-71380001D01*
X188305468Y-71380000D01*
X188285635Y-71153308D01*
X188226739Y-70933504D01*
X188130568Y-70727266D01*
X188000047Y-70540861D01*
X188000045Y-70540858D01*
X187839141Y-70379954D01*
X187652734Y-70249432D01*
X187652732Y-70249431D01*
X187446497Y-70153261D01*
X187446488Y-70153258D01*
X187226697Y-70094366D01*
X187226693Y-70094365D01*
X187226692Y-70094365D01*
X187226691Y-70094364D01*
X187226686Y-70094364D01*
X187000002Y-70074532D01*
X186999998Y-70074532D01*
X186773313Y-70094364D01*
X186773302Y-70094366D01*
X186553511Y-70153258D01*
X186553502Y-70153261D01*
X186347267Y-70249431D01*
X186347265Y-70249432D01*
X186160858Y-70379954D01*
X185999954Y-70540858D01*
X185869432Y-70727265D01*
X185869431Y-70727267D01*
X185773261Y-70933502D01*
X185773258Y-70933511D01*
X185714366Y-71153302D01*
X185714364Y-71153313D01*
X185694532Y-71379998D01*
X185694532Y-71380001D01*
X173305468Y-71380001D01*
X173305468Y-71380000D01*
X173285635Y-71153308D01*
X173226739Y-70933504D01*
X173130568Y-70727266D01*
X173000047Y-70540861D01*
X173000045Y-70540858D01*
X172839141Y-70379954D01*
X172652734Y-70249432D01*
X172652732Y-70249431D01*
X172446497Y-70153261D01*
X172446488Y-70153258D01*
X172226697Y-70094366D01*
X172226693Y-70094365D01*
X172226692Y-70094365D01*
X172226691Y-70094364D01*
X172226686Y-70094364D01*
X172000002Y-70074532D01*
X171999998Y-70074532D01*
X171773313Y-70094364D01*
X171773302Y-70094366D01*
X171553511Y-70153258D01*
X171553502Y-70153261D01*
X171347267Y-70249431D01*
X171347265Y-70249432D01*
X171160858Y-70379954D01*
X170999954Y-70540858D01*
X170869432Y-70727265D01*
X170869431Y-70727267D01*
X170773261Y-70933502D01*
X170773258Y-70933511D01*
X170714366Y-71153302D01*
X170714364Y-71153313D01*
X170694532Y-71379998D01*
X170694532Y-71380001D01*
X158305468Y-71380001D01*
X158305468Y-71380000D01*
X158285635Y-71153308D01*
X158226739Y-70933504D01*
X158130568Y-70727266D01*
X158000047Y-70540861D01*
X158000045Y-70540858D01*
X157839141Y-70379954D01*
X157652734Y-70249432D01*
X157652732Y-70249431D01*
X157446497Y-70153261D01*
X157446488Y-70153258D01*
X157226697Y-70094366D01*
X157226693Y-70094365D01*
X157226692Y-70094365D01*
X157226691Y-70094364D01*
X157226686Y-70094364D01*
X157000002Y-70074532D01*
X156999998Y-70074532D01*
X156773313Y-70094364D01*
X156773302Y-70094366D01*
X156553511Y-70153258D01*
X156553502Y-70153261D01*
X156347267Y-70249431D01*
X156347265Y-70249432D01*
X156160858Y-70379954D01*
X155999954Y-70540858D01*
X155869432Y-70727265D01*
X155869431Y-70727267D01*
X155773261Y-70933502D01*
X155773258Y-70933511D01*
X155714366Y-71153302D01*
X155714364Y-71153313D01*
X155694532Y-71379998D01*
X155694532Y-71380001D01*
X150500500Y-71380001D01*
X150500500Y-69500005D01*
X220669357Y-69500005D01*
X220689890Y-69747812D01*
X220689892Y-69747824D01*
X220750936Y-69988881D01*
X220850826Y-70216606D01*
X220986833Y-70424782D01*
X220986836Y-70424785D01*
X221155256Y-70607738D01*
X221351491Y-70760474D01*
X221570190Y-70878828D01*
X221805386Y-70959571D01*
X222050665Y-71000500D01*
X222299334Y-71000500D01*
X222299335Y-71000500D01*
X222487560Y-70969091D01*
X222556923Y-70977473D01*
X222610746Y-71022026D01*
X222631936Y-71088604D01*
X222627743Y-71123492D01*
X222589939Y-71264583D01*
X222589936Y-71264596D01*
X222569341Y-71499999D01*
X222569341Y-71500000D01*
X222589936Y-71735403D01*
X222589938Y-71735413D01*
X222651094Y-71963655D01*
X222651096Y-71963659D01*
X222651097Y-71963663D01*
X222750965Y-72177830D01*
X222750967Y-72177834D01*
X222779891Y-72219141D01*
X222886505Y-72371401D01*
X223053599Y-72538495D01*
X223150384Y-72606265D01*
X223247165Y-72674032D01*
X223247167Y-72674033D01*
X223247170Y-72674035D01*
X223461337Y-72773903D01*
X223689592Y-72835063D01*
X223877918Y-72851539D01*
X223924999Y-72855659D01*
X223925000Y-72855659D01*
X223925001Y-72855659D01*
X223964234Y-72852226D01*
X224160408Y-72835063D01*
X224388663Y-72773903D01*
X224602830Y-72674035D01*
X224796401Y-72538495D01*
X224963495Y-72371401D01*
X225099035Y-72177830D01*
X225198903Y-71963663D01*
X225260063Y-71735408D01*
X225280659Y-71500000D01*
X225260063Y-71264592D01*
X225198903Y-71036337D01*
X225099035Y-70822171D01*
X225055836Y-70760475D01*
X224963494Y-70628597D01*
X224796402Y-70461506D01*
X224796395Y-70461501D01*
X224602834Y-70325967D01*
X224602830Y-70325965D01*
X224388663Y-70226097D01*
X224388659Y-70226096D01*
X224388655Y-70226094D01*
X224160413Y-70164938D01*
X224160403Y-70164936D01*
X223925001Y-70144341D01*
X223924999Y-70144341D01*
X223723537Y-70161967D01*
X223655037Y-70148200D01*
X223604853Y-70099585D01*
X223588920Y-70031557D01*
X223597915Y-69993906D01*
X223597399Y-69993729D01*
X223599062Y-69988885D01*
X223660107Y-69747824D01*
X223660108Y-69747821D01*
X223680643Y-69500000D01*
X223660108Y-69252179D01*
X223599063Y-69011119D01*
X223499173Y-68783393D01*
X223363166Y-68575217D01*
X223293227Y-68499243D01*
X223194744Y-68392262D01*
X222998509Y-68239526D01*
X222998507Y-68239525D01*
X222998506Y-68239524D01*
X222779811Y-68121172D01*
X222779802Y-68121169D01*
X222544616Y-68040429D01*
X222299335Y-67999500D01*
X222050665Y-67999500D01*
X221805383Y-68040429D01*
X221570197Y-68121169D01*
X221570188Y-68121172D01*
X221351493Y-68239524D01*
X221155257Y-68392261D01*
X220986833Y-68575217D01*
X220850826Y-68783393D01*
X220750936Y-69011118D01*
X220689892Y-69252175D01*
X220689890Y-69252187D01*
X220669357Y-69499994D01*
X220669357Y-69500005D01*
X150500500Y-69500005D01*
X150500500Y-65329474D01*
X190804500Y-65329474D01*
X190804501Y-65329491D01*
X190838299Y-65586217D01*
X190838300Y-65586222D01*
X190838301Y-65586228D01*
X190838302Y-65586230D01*
X190905324Y-65836364D01*
X191004423Y-66075609D01*
X191004427Y-66075619D01*
X191133906Y-66299883D01*
X191291551Y-66505331D01*
X191291557Y-66505338D01*
X191474661Y-66688442D01*
X191474668Y-66688448D01*
X191680116Y-66846093D01*
X191904380Y-66975572D01*
X191904381Y-66975572D01*
X191904384Y-66975574D01*
X192143634Y-67074675D01*
X192393772Y-67141699D01*
X192650519Y-67175500D01*
X192650526Y-67175500D01*
X192909474Y-67175500D01*
X192909481Y-67175500D01*
X193166228Y-67141699D01*
X193416366Y-67074675D01*
X193655616Y-66975574D01*
X193879884Y-66846093D01*
X194007891Y-66747870D01*
X214499500Y-66747870D01*
X214499501Y-66747876D01*
X214505908Y-66807483D01*
X214556202Y-66942328D01*
X214556206Y-66942335D01*
X214642452Y-67057544D01*
X214642455Y-67057547D01*
X214757664Y-67143793D01*
X214757671Y-67143797D01*
X214892517Y-67194091D01*
X214892516Y-67194091D01*
X214899444Y-67194835D01*
X214952127Y-67200500D01*
X218047872Y-67200499D01*
X218107483Y-67194091D01*
X218242331Y-67143796D01*
X218357546Y-67057546D01*
X218443796Y-66942331D01*
X218494091Y-66807483D01*
X218500500Y-66747873D01*
X218500499Y-63652128D01*
X218494091Y-63592517D01*
X218479690Y-63553907D01*
X218443797Y-63457671D01*
X218443793Y-63457664D01*
X218357547Y-63342455D01*
X218357544Y-63342452D01*
X218242335Y-63256206D01*
X218242328Y-63256202D01*
X218107482Y-63205908D01*
X218107483Y-63205908D01*
X218047883Y-63199501D01*
X218047881Y-63199500D01*
X218047873Y-63199500D01*
X218047864Y-63199500D01*
X214952129Y-63199500D01*
X214952123Y-63199501D01*
X214892516Y-63205908D01*
X214757671Y-63256202D01*
X214757664Y-63256206D01*
X214642455Y-63342452D01*
X214642452Y-63342455D01*
X214556206Y-63457664D01*
X214556202Y-63457671D01*
X214505908Y-63592517D01*
X214499501Y-63652116D01*
X214499501Y-63652123D01*
X214499500Y-63652135D01*
X214499500Y-66747870D01*
X194007891Y-66747870D01*
X194085333Y-66688447D01*
X194268447Y-66505333D01*
X194426093Y-66299884D01*
X194555574Y-66075616D01*
X194654675Y-65836366D01*
X194721699Y-65586228D01*
X194755500Y-65329481D01*
X194755500Y-65070519D01*
X194721699Y-64813772D01*
X194654675Y-64563634D01*
X194555574Y-64324384D01*
X194426093Y-64100116D01*
X194268447Y-63894667D01*
X194268442Y-63894661D01*
X194085338Y-63711557D01*
X194085331Y-63711551D01*
X193879883Y-63553906D01*
X193655619Y-63424427D01*
X193655609Y-63424423D01*
X193416364Y-63325324D01*
X193291297Y-63291813D01*
X193166228Y-63258301D01*
X193166222Y-63258300D01*
X193166217Y-63258299D01*
X192909491Y-63224501D01*
X192909486Y-63224500D01*
X192909481Y-63224500D01*
X192650519Y-63224500D01*
X192650513Y-63224500D01*
X192650508Y-63224501D01*
X192393782Y-63258299D01*
X192393775Y-63258300D01*
X192393772Y-63258301D01*
X192340908Y-63272465D01*
X192143635Y-63325324D01*
X191904390Y-63424423D01*
X191904380Y-63424427D01*
X191680116Y-63553906D01*
X191474668Y-63711551D01*
X191474661Y-63711557D01*
X191291557Y-63894661D01*
X191291551Y-63894668D01*
X191133906Y-64100116D01*
X191004427Y-64324380D01*
X191004423Y-64324390D01*
X190905324Y-64563635D01*
X190838302Y-64813769D01*
X190838299Y-64813782D01*
X190804501Y-65070508D01*
X190804500Y-65070525D01*
X190804500Y-65329474D01*
X150500500Y-65329474D01*
X150500500Y-61220001D01*
X155694532Y-61220001D01*
X155714364Y-61446686D01*
X155714366Y-61446697D01*
X155773258Y-61666488D01*
X155773261Y-61666497D01*
X155869431Y-61872732D01*
X155869432Y-61872734D01*
X155999954Y-62059141D01*
X156160858Y-62220045D01*
X156160861Y-62220047D01*
X156347266Y-62350568D01*
X156553504Y-62446739D01*
X156773308Y-62505635D01*
X156935230Y-62519801D01*
X156999998Y-62525468D01*
X157000000Y-62525468D01*
X157000002Y-62525468D01*
X157056673Y-62520509D01*
X157226692Y-62505635D01*
X157446496Y-62446739D01*
X157652734Y-62350568D01*
X157839139Y-62220047D01*
X158000047Y-62059139D01*
X158130568Y-61872734D01*
X158226739Y-61666496D01*
X158285635Y-61446692D01*
X158305468Y-61220001D01*
X170694532Y-61220001D01*
X170714364Y-61446686D01*
X170714366Y-61446697D01*
X170773258Y-61666488D01*
X170773261Y-61666497D01*
X170869431Y-61872732D01*
X170869432Y-61872734D01*
X170999954Y-62059141D01*
X171160858Y-62220045D01*
X171160861Y-62220047D01*
X171347266Y-62350568D01*
X171553504Y-62446739D01*
X171773308Y-62505635D01*
X171935230Y-62519801D01*
X171999998Y-62525468D01*
X172000000Y-62525468D01*
X172000002Y-62525468D01*
X172056673Y-62520509D01*
X172226692Y-62505635D01*
X172446496Y-62446739D01*
X172652734Y-62350568D01*
X172839139Y-62220047D01*
X173000047Y-62059139D01*
X173130568Y-61872734D01*
X173226739Y-61666496D01*
X173285635Y-61446692D01*
X173305468Y-61220001D01*
X185694532Y-61220001D01*
X185714364Y-61446686D01*
X185714366Y-61446697D01*
X185773258Y-61666488D01*
X185773261Y-61666497D01*
X185869431Y-61872732D01*
X185869432Y-61872734D01*
X185999954Y-62059141D01*
X186160858Y-62220045D01*
X186160861Y-62220047D01*
X186347266Y-62350568D01*
X186553504Y-62446739D01*
X186773308Y-62505635D01*
X186935230Y-62519801D01*
X186999998Y-62525468D01*
X187000000Y-62525468D01*
X187000002Y-62525468D01*
X187056673Y-62520509D01*
X187226692Y-62505635D01*
X187446496Y-62446739D01*
X187652734Y-62350568D01*
X187839139Y-62220047D01*
X188000047Y-62059139D01*
X188130568Y-61872734D01*
X188226739Y-61666496D01*
X188285635Y-61446692D01*
X188305468Y-61220001D01*
X200694532Y-61220001D01*
X200714364Y-61446686D01*
X200714366Y-61446697D01*
X200773258Y-61666488D01*
X200773261Y-61666497D01*
X200869431Y-61872732D01*
X200869432Y-61872734D01*
X200999954Y-62059141D01*
X201160858Y-62220045D01*
X201160861Y-62220047D01*
X201347266Y-62350568D01*
X201553504Y-62446739D01*
X201773308Y-62505635D01*
X201935230Y-62519801D01*
X201999998Y-62525468D01*
X202000000Y-62525468D01*
X202000002Y-62525468D01*
X202056673Y-62520509D01*
X202226692Y-62505635D01*
X202446496Y-62446739D01*
X202652734Y-62350568D01*
X202839139Y-62220047D01*
X203000047Y-62059139D01*
X203130568Y-61872734D01*
X203226739Y-61666496D01*
X203285635Y-61446692D01*
X203305468Y-61220000D01*
X203285635Y-60993308D01*
X203226739Y-60773504D01*
X203130568Y-60567266D01*
X203000047Y-60380861D01*
X203000045Y-60380858D01*
X202839141Y-60219954D01*
X202652734Y-60089432D01*
X202652732Y-60089431D01*
X202446497Y-59993261D01*
X202446488Y-59993258D01*
X202226697Y-59934366D01*
X202226693Y-59934365D01*
X202226692Y-59934365D01*
X202226691Y-59934364D01*
X202226686Y-59934364D01*
X202000002Y-59914532D01*
X201999998Y-59914532D01*
X201773313Y-59934364D01*
X201773302Y-59934366D01*
X201553511Y-59993258D01*
X201553502Y-59993261D01*
X201347267Y-60089431D01*
X201347265Y-60089432D01*
X201160858Y-60219954D01*
X200999954Y-60380858D01*
X200869432Y-60567265D01*
X200869431Y-60567267D01*
X200773261Y-60773502D01*
X200773258Y-60773511D01*
X200714366Y-60993302D01*
X200714364Y-60993313D01*
X200694532Y-61219998D01*
X200694532Y-61220001D01*
X188305468Y-61220001D01*
X188305468Y-61220000D01*
X188285635Y-60993308D01*
X188226739Y-60773504D01*
X188130568Y-60567266D01*
X188000047Y-60380861D01*
X188000045Y-60380858D01*
X187839141Y-60219954D01*
X187652734Y-60089432D01*
X187652732Y-60089431D01*
X187446497Y-59993261D01*
X187446488Y-59993258D01*
X187226697Y-59934366D01*
X187226693Y-59934365D01*
X187226692Y-59934365D01*
X187226691Y-59934364D01*
X187226686Y-59934364D01*
X187000002Y-59914532D01*
X186999998Y-59914532D01*
X186773313Y-59934364D01*
X186773302Y-59934366D01*
X186553511Y-59993258D01*
X186553502Y-59993261D01*
X186347267Y-60089431D01*
X186347265Y-60089432D01*
X186160858Y-60219954D01*
X185999954Y-60380858D01*
X185869432Y-60567265D01*
X185869431Y-60567267D01*
X185773261Y-60773502D01*
X185773258Y-60773511D01*
X185714366Y-60993302D01*
X185714364Y-60993313D01*
X185694532Y-61219998D01*
X185694532Y-61220001D01*
X173305468Y-61220001D01*
X173305468Y-61220000D01*
X173285635Y-60993308D01*
X173226739Y-60773504D01*
X173130568Y-60567266D01*
X173000047Y-60380861D01*
X173000045Y-60380858D01*
X172839141Y-60219954D01*
X172652734Y-60089432D01*
X172652732Y-60089431D01*
X172446497Y-59993261D01*
X172446488Y-59993258D01*
X172226697Y-59934366D01*
X172226693Y-59934365D01*
X172226692Y-59934365D01*
X172226691Y-59934364D01*
X172226686Y-59934364D01*
X172000002Y-59914532D01*
X171999998Y-59914532D01*
X171773313Y-59934364D01*
X171773302Y-59934366D01*
X171553511Y-59993258D01*
X171553502Y-59993261D01*
X171347267Y-60089431D01*
X171347265Y-60089432D01*
X171160858Y-60219954D01*
X170999954Y-60380858D01*
X170869432Y-60567265D01*
X170869431Y-60567267D01*
X170773261Y-60773502D01*
X170773258Y-60773511D01*
X170714366Y-60993302D01*
X170714364Y-60993313D01*
X170694532Y-61219998D01*
X170694532Y-61220001D01*
X158305468Y-61220001D01*
X158305468Y-61220000D01*
X158285635Y-60993308D01*
X158226739Y-60773504D01*
X158130568Y-60567266D01*
X158000047Y-60380861D01*
X158000045Y-60380858D01*
X157839141Y-60219954D01*
X157652734Y-60089432D01*
X157652732Y-60089431D01*
X157446497Y-59993261D01*
X157446488Y-59993258D01*
X157226697Y-59934366D01*
X157226693Y-59934365D01*
X157226692Y-59934365D01*
X157226691Y-59934364D01*
X157226686Y-59934364D01*
X157000002Y-59914532D01*
X156999998Y-59914532D01*
X156773313Y-59934364D01*
X156773302Y-59934366D01*
X156553511Y-59993258D01*
X156553502Y-59993261D01*
X156347267Y-60089431D01*
X156347265Y-60089432D01*
X156160858Y-60219954D01*
X155999954Y-60380858D01*
X155869432Y-60567265D01*
X155869431Y-60567267D01*
X155773261Y-60773502D01*
X155773258Y-60773511D01*
X155714366Y-60993302D01*
X155714364Y-60993313D01*
X155694532Y-61219998D01*
X155694532Y-61220001D01*
X150500500Y-61220001D01*
X150500500Y-55121288D01*
X153149500Y-55121288D01*
X153181161Y-55361785D01*
X153243947Y-55596104D01*
X153336773Y-55820205D01*
X153336776Y-55820212D01*
X153458064Y-56030289D01*
X153458066Y-56030292D01*
X153458067Y-56030293D01*
X153605733Y-56222736D01*
X153605739Y-56222743D01*
X153777256Y-56394260D01*
X153777262Y-56394265D01*
X153969711Y-56541936D01*
X154179788Y-56663224D01*
X154403900Y-56756054D01*
X154638211Y-56818838D01*
X154818586Y-56842584D01*
X154878711Y-56850500D01*
X154878712Y-56850500D01*
X155121289Y-56850500D01*
X155169388Y-56844167D01*
X155361789Y-56818838D01*
X155596100Y-56756054D01*
X155820212Y-56663224D01*
X156030289Y-56541936D01*
X156222738Y-56394265D01*
X156394265Y-56222738D01*
X156541936Y-56030289D01*
X156663224Y-55820212D01*
X156756054Y-55596100D01*
X156818838Y-55361789D01*
X156850500Y-55121288D01*
X223149500Y-55121288D01*
X223181161Y-55361785D01*
X223243947Y-55596104D01*
X223336773Y-55820205D01*
X223336776Y-55820212D01*
X223458064Y-56030289D01*
X223458066Y-56030292D01*
X223458067Y-56030293D01*
X223605733Y-56222736D01*
X223605739Y-56222743D01*
X223777256Y-56394260D01*
X223777262Y-56394265D01*
X223969711Y-56541936D01*
X224179788Y-56663224D01*
X224403900Y-56756054D01*
X224638211Y-56818838D01*
X224818586Y-56842584D01*
X224878711Y-56850500D01*
X224878712Y-56850500D01*
X225121289Y-56850500D01*
X225169388Y-56844167D01*
X225361789Y-56818838D01*
X225596100Y-56756054D01*
X225820212Y-56663224D01*
X226030289Y-56541936D01*
X226222738Y-56394265D01*
X226394265Y-56222738D01*
X226541936Y-56030289D01*
X226663224Y-55820212D01*
X226756054Y-55596100D01*
X226818838Y-55361789D01*
X226850500Y-55121288D01*
X226850500Y-54878712D01*
X226818838Y-54638211D01*
X226756054Y-54403900D01*
X226663224Y-54179788D01*
X226541936Y-53969711D01*
X226394265Y-53777262D01*
X226394260Y-53777256D01*
X226222743Y-53605739D01*
X226222736Y-53605733D01*
X226030293Y-53458067D01*
X226030292Y-53458066D01*
X226030289Y-53458064D01*
X225820212Y-53336776D01*
X225820205Y-53336773D01*
X225596104Y-53243947D01*
X225361785Y-53181161D01*
X225121289Y-53149500D01*
X225121288Y-53149500D01*
X224878712Y-53149500D01*
X224878711Y-53149500D01*
X224638214Y-53181161D01*
X224403895Y-53243947D01*
X224179794Y-53336773D01*
X224179785Y-53336777D01*
X223969706Y-53458067D01*
X223777263Y-53605733D01*
X223777256Y-53605739D01*
X223605739Y-53777256D01*
X223605733Y-53777263D01*
X223458067Y-53969706D01*
X223336777Y-54179785D01*
X223336773Y-54179794D01*
X223243947Y-54403895D01*
X223181161Y-54638214D01*
X223149500Y-54878711D01*
X223149500Y-55121288D01*
X156850500Y-55121288D01*
X156850500Y-54878712D01*
X156818838Y-54638211D01*
X156756054Y-54403900D01*
X156663224Y-54179788D01*
X156541936Y-53969711D01*
X156394265Y-53777262D01*
X156394260Y-53777256D01*
X156222743Y-53605739D01*
X156222736Y-53605733D01*
X156030293Y-53458067D01*
X156030292Y-53458066D01*
X156030289Y-53458064D01*
X155820212Y-53336776D01*
X155820205Y-53336773D01*
X155596104Y-53243947D01*
X155361785Y-53181161D01*
X155121289Y-53149500D01*
X155121288Y-53149500D01*
X154878712Y-53149500D01*
X154878711Y-53149500D01*
X154638214Y-53181161D01*
X154403895Y-53243947D01*
X154179794Y-53336773D01*
X154179785Y-53336777D01*
X153969706Y-53458067D01*
X153777263Y-53605733D01*
X153777256Y-53605739D01*
X153605739Y-53777256D01*
X153605733Y-53777263D01*
X153458067Y-53969706D01*
X153336777Y-54179785D01*
X153336773Y-54179794D01*
X153243947Y-54403895D01*
X153181161Y-54638214D01*
X153149500Y-54878711D01*
X153149500Y-55121288D01*
X150500500Y-55121288D01*
X150500500Y-55002706D01*
X150500618Y-54997297D01*
X150503377Y-54934108D01*
X150517386Y-54613226D01*
X150518326Y-54602495D01*
X150568152Y-54224025D01*
X150570025Y-54213405D01*
X150652649Y-53840709D01*
X150655440Y-53830295D01*
X150770230Y-53466227D01*
X150773917Y-53456095D01*
X150920003Y-53103412D01*
X150924561Y-53093638D01*
X151100822Y-52755045D01*
X151106217Y-52745700D01*
X151311325Y-52423744D01*
X151317515Y-52414905D01*
X151549896Y-52112060D01*
X151556834Y-52103791D01*
X151814726Y-51822352D01*
X151822352Y-51814726D01*
X152103791Y-51556834D01*
X152112060Y-51549896D01*
X152414905Y-51317515D01*
X152423744Y-51311325D01*
X152745700Y-51106217D01*
X152755045Y-51100822D01*
X153093638Y-50924561D01*
X153103412Y-50920003D01*
X153456095Y-50773917D01*
X153466227Y-50770230D01*
X153830295Y-50655440D01*
X153840709Y-50652649D01*
X154213405Y-50570025D01*
X154224025Y-50568152D01*
X154602495Y-50518326D01*
X154613226Y-50517386D01*
X154997297Y-50500617D01*
X155002706Y-50500500D01*
X155065892Y-50500500D01*
X224934108Y-50500500D01*
X224997294Y-50500500D01*
X225002702Y-50500617D01*
G37*
%TD.AperFunction*%
%TD*%
M02*
