M48
; DRILL file {KiCad 8.0.0} date 2024-07-24T00:08:48-0400
; FORMAT={-:-/ absolute / metric / decimal}
; #@! TF.CreationDate,2024-07-24T00:08:48-04:00
; #@! TF.GenerationSoftware,Kicad,Pcbnew,8.0.0
; #@! TF.FileFunction,MixedPlating,1,2
FMAT,2
METRIC
; #@! TA.AperFunction,Plated,PTH,ComponentDrill
T1C0.750
; #@! TA.AperFunction,Plated,PTH,ComponentDrill
T2C0.800
; #@! TA.AperFunction,Plated,PTH,ComponentDrill
T3C0.900
; #@! TA.AperFunction,Plated,PTH,ComponentDrill
T4C1.100
; #@! TA.AperFunction,Plated,PTH,ComponentDrill
T5C1.200
; #@! TA.AperFunction,NonPlated,NPTH,ComponentDrill
T6C3.200
; #@! TA.AperFunction,NonPlated,NPTH,ComponentDrill
T7C3.450
%
G90
G05
T1
X172.0Y-90.96
X172.0Y-92.23
X172.0Y-93.5
X186.95Y-90.96
X186.95Y-92.23
X186.95Y-93.5
T2
X157.0Y-61.22
X157.0Y-71.38
X172.0Y-61.22
X172.0Y-71.38
X172.0Y-78.682
X172.0Y-81.182
X187.0Y-61.22
X187.0Y-71.38
X187.0Y-78.682
X187.0Y-81.182
X202.0Y-61.22
X202.0Y-71.38
T3
X157.0Y-78.635
X157.0Y-81.175
X202.0Y-78.635
X202.0Y-81.175
X223.925Y-71.5
X223.925Y-75.5
X223.925Y-79.5
T4
X216.5Y-65.2
X216.5Y-77.9
T5
X222.175Y-69.5
X222.175Y-81.5
X228.175Y-69.5
X228.175Y-81.5
T6
X155.0Y-55.0
X155.0Y-95.0
X225.0Y-55.0
X225.0Y-95.0
T7
X192.78Y-65.2
X192.78Y-88.7
M30
