%TF.GenerationSoftware,KiCad,Pcbnew,8.0.0*%
%TF.CreationDate,2024-07-24T00:08:36-04:00*%
%TF.ProjectId,led_blinky,6c65645f-626c-4696-9e6b-792e6b696361,rev?*%
%TF.SameCoordinates,Original*%
%TF.FileFunction,Copper,L1,Top*%
%TF.FilePolarity,Positive*%
%FSLAX46Y46*%
G04 Gerber Fmt 4.6, Leading zero omitted, Abs format (unit mm)*
G04 Created by KiCad (PCBNEW 8.0.0) date 2024-07-24 00:08:36*
%MOMM*%
%LPD*%
G01*
G04 APERTURE LIST*
%TA.AperFunction,ComponentPad*%
%ADD10C,1.700000*%
%TD*%
%TA.AperFunction,ComponentPad*%
%ADD11C,2.000000*%
%TD*%
%TA.AperFunction,ComponentPad*%
%ADD12R,1.500000X1.050000*%
%TD*%
%TA.AperFunction,ComponentPad*%
%ADD13O,1.500000X1.050000*%
%TD*%
%TA.AperFunction,ComponentPad*%
%ADD14C,1.800000*%
%TD*%
%TA.AperFunction,ComponentPad*%
%ADD15R,1.800000X1.800000*%
%TD*%
%TA.AperFunction,ComponentPad*%
%ADD16R,1.600000X1.600000*%
%TD*%
%TA.AperFunction,ComponentPad*%
%ADD17C,1.600000*%
%TD*%
%TA.AperFunction,ComponentPad*%
%ADD18O,1.600000X1.600000*%
%TD*%
%TA.AperFunction,ComponentPad*%
%ADD19C,3.000000*%
%TD*%
%TA.AperFunction,ComponentPad*%
%ADD20R,3.000000X3.000000*%
%TD*%
%TA.AperFunction,Conductor*%
%ADD21C,0.200000*%
%TD*%
G04 APERTURE END LIST*
D10*
%TO.P,SW1,3,C*%
%TO.N,unconnected-(SW1-C-Pad3)*%
X223925000Y-71500000D03*
%TO.P,SW1,2,B*%
%TO.N,VCC*%
X223925000Y-75500000D03*
%TO.P,SW1,1,A*%
%TO.N,Net-(BT1-+)*%
X223925000Y-79500000D03*
D11*
%TO.P,SW1,*%
%TO.N,*%
X228175000Y-69500000D03*
X222175000Y-69500000D03*
X228175000Y-81500000D03*
X222175000Y-81500000D03*
%TD*%
D12*
%TO.P,Q1,1,E*%
%TO.N,GND*%
X186950000Y-93500000D03*
D13*
%TO.P,Q1,2,B*%
%TO.N,Net-(Q1-B)*%
X186950000Y-92230000D03*
%TO.P,Q1,3,C*%
%TO.N,Net-(D1-K)*%
X186950000Y-90960000D03*
%TD*%
D12*
%TO.P,Q2,1,E*%
%TO.N,GND*%
X172000000Y-93500000D03*
D13*
%TO.P,Q2,2,B*%
%TO.N,Net-(Q2-B)*%
X172000000Y-92230000D03*
%TO.P,Q2,3,C*%
%TO.N,Net-(D2-K)*%
X172000000Y-90960000D03*
%TD*%
D14*
%TO.P,D1,2,A*%
%TO.N,Net-(D1-A)*%
X202000000Y-78635000D03*
D15*
%TO.P,D1,1,K*%
%TO.N,Net-(D1-K)*%
X202000000Y-81175000D03*
%TD*%
D16*
%TO.P,C2,1*%
%TO.N,Net-(D2-K)*%
X172000000Y-81182380D03*
D17*
%TO.P,C2,2*%
%TO.N,Net-(Q1-B)*%
X172000000Y-78682380D03*
%TD*%
D18*
%TO.P,R2,2*%
%TO.N,Net-(Q2-B)*%
X187000000Y-71380000D03*
D17*
%TO.P,R2,1*%
%TO.N,VCC*%
X187000000Y-61220000D03*
%TD*%
D15*
%TO.P,D2,1,K*%
%TO.N,Net-(D2-K)*%
X157000000Y-81175000D03*
D14*
%TO.P,D2,2,A*%
%TO.N,Net-(D2-A)*%
X157000000Y-78635000D03*
%TD*%
D18*
%TO.P,R1,2*%
%TO.N,Net-(D1-A)*%
X202000000Y-71380000D03*
D17*
%TO.P,R1,1*%
%TO.N,VCC*%
X202000000Y-61220000D03*
%TD*%
D18*
%TO.P,R4,2*%
%TO.N,Net-(D2-A)*%
X157000000Y-71380000D03*
D17*
%TO.P,R4,1*%
%TO.N,VCC*%
X157000000Y-61220000D03*
%TD*%
D16*
%TO.P,C1,1*%
%TO.N,Net-(D1-K)*%
X187000000Y-81182379D03*
D17*
%TO.P,C1,2*%
%TO.N,Net-(Q2-B)*%
X187000000Y-78682379D03*
%TD*%
%TO.P,R3,1*%
%TO.N,VCC*%
X172000000Y-61220000D03*
D18*
%TO.P,R3,2*%
%TO.N,Net-(Q1-B)*%
X172000000Y-71380000D03*
%TD*%
D19*
%TO.P,BT1,2,-*%
%TO.N,GND*%
X216500000Y-77900000D03*
D20*
%TO.P,BT1,1,+*%
%TO.N,Net-(BT1-+)*%
X216500000Y-65200000D03*
%TD*%
D21*
%TO.N,Net-(BT1-+)*%
X216500000Y-65200000D02*
X216500000Y-72000000D01*
X216500000Y-72000000D02*
X219800000Y-75300000D01*
X219800000Y-77900000D02*
X221400000Y-79500000D01*
X219800000Y-75300000D02*
X219800000Y-77900000D01*
X221400000Y-79500000D02*
X223925000Y-79500000D01*
%TO.N,Net-(Q1-B)*%
X186950000Y-92230000D02*
X189930000Y-92230000D01*
X207000000Y-70000000D02*
X205000000Y-68000000D01*
X189930000Y-92230000D02*
X190900000Y-93200000D01*
X190900000Y-93200000D02*
X203100000Y-93200000D01*
X172000000Y-69000000D02*
X172000000Y-71380000D01*
X203100000Y-93200000D02*
X207000000Y-89300000D01*
X207000000Y-89300000D02*
X207000000Y-70000000D01*
X173000000Y-68000000D02*
X172000000Y-69000000D01*
X205000000Y-68000000D02*
X173000000Y-68000000D01*
%TO.N,Net-(Q2-B)*%
X172000000Y-92230000D02*
X174170000Y-92230000D01*
X174170000Y-92230000D02*
X179000000Y-87400000D01*
X179000000Y-87400000D02*
X179000000Y-82900000D01*
X179000000Y-82900000D02*
X183217621Y-78682379D01*
X183217621Y-78682379D02*
X187000000Y-78682379D01*
%TO.N,Net-(D1-K)*%
X187000000Y-81182379D02*
X187000000Y-90910000D01*
X187000000Y-90910000D02*
X186950000Y-90960000D01*
%TO.N,Net-(D2-K)*%
X172000000Y-81182380D02*
X172000000Y-90960000D01*
%TO.N,VCC*%
X226000000Y-73425000D02*
X226000000Y-62500000D01*
X226000000Y-62500000D02*
X224720000Y-61220000D01*
X223925000Y-75500000D02*
X226000000Y-73425000D01*
X224720000Y-61220000D02*
X202000000Y-61220000D01*
%TO.N,GND*%
X187000000Y-93360000D02*
X186950000Y-93410000D01*
%TO.N,Net-(D1-K)*%
X187000000Y-81182379D02*
X201992621Y-81182379D01*
X201992621Y-81182379D02*
X202000000Y-81175000D01*
%TO.N,Net-(D2-K)*%
X172000000Y-81182380D02*
X157007380Y-81182380D01*
X157007380Y-81182380D02*
X157000000Y-81175000D01*
%TO.N,Net-(D1-A)*%
X202000000Y-71380000D02*
X202000000Y-78635000D01*
%TO.N,Net-(Q2-B)*%
X187000000Y-71380000D02*
X187000000Y-78682379D01*
%TO.N,Net-(Q1-B)*%
X172000000Y-71380000D02*
X172000000Y-78682380D01*
%TO.N,Net-(D2-A)*%
X157000000Y-71380000D02*
X157000000Y-78635000D01*
%TO.N,VCC*%
X202000000Y-61220000D02*
X187000000Y-61220000D01*
X172000000Y-61220000D02*
X187000000Y-61220000D01*
X157000000Y-61220000D02*
X172000000Y-61220000D01*
%TD*%
%TA.AperFunction,Conductor*%
%TO.N,GND*%
G36*
X225002702Y-50500617D02*
G01*
X225386771Y-50517386D01*
X225397506Y-50518326D01*
X225775971Y-50568152D01*
X225786597Y-50570025D01*
X226159284Y-50652648D01*
X226169710Y-50655442D01*
X226533765Y-50770227D01*
X226543911Y-50773920D01*
X226896578Y-50920000D01*
X226906369Y-50924566D01*
X227244942Y-51100816D01*
X227254310Y-51106224D01*
X227576244Y-51311318D01*
X227585105Y-51317523D01*
X227887930Y-51549889D01*
X227896217Y-51556843D01*
X228177635Y-51814715D01*
X228185284Y-51822364D01*
X228443156Y-52103782D01*
X228450110Y-52112069D01*
X228682476Y-52414894D01*
X228688681Y-52423755D01*
X228893775Y-52745689D01*
X228899183Y-52755057D01*
X229075430Y-53093623D01*
X229080002Y-53103427D01*
X229226075Y-53456078D01*
X229229775Y-53466244D01*
X229344554Y-53830278D01*
X229347354Y-53840727D01*
X229429971Y-54213389D01*
X229431849Y-54224042D01*
X229481671Y-54602473D01*
X229482614Y-54613249D01*
X229499382Y-54997297D01*
X229499500Y-55002706D01*
X229499500Y-68405530D01*
X229479815Y-68472569D01*
X229427011Y-68518324D01*
X229357853Y-68528268D01*
X229294297Y-68499243D01*
X229284271Y-68489513D01*
X229194747Y-68392265D01*
X229194744Y-68392262D01*
X228998506Y-68239524D01*
X228779811Y-68121172D01*
X228779802Y-68121169D01*
X228544616Y-68040429D01*
X228299335Y-67999500D01*
X228050665Y-67999500D01*
X227805383Y-68040429D01*
X227570197Y-68121169D01*
X227570188Y-68121172D01*
X227351493Y-68239524D01*
X227155257Y-68392261D01*
X226986833Y-68575217D01*
X226850827Y-68783391D01*
X226838056Y-68812508D01*
X226793100Y-68865993D01*
X226726363Y-68886683D01*
X226659036Y-68868008D01*
X226612492Y-68815898D01*
X226600500Y-68762697D01*
X226600500Y-62420945D01*
X226600500Y-62420943D01*
X226559577Y-62268216D01*
X226531766Y-62220045D01*
X226480524Y-62131290D01*
X226480521Y-62131286D01*
X226480520Y-62131284D01*
X226368716Y-62019480D01*
X226368715Y-62019479D01*
X226364385Y-62015149D01*
X226364374Y-62015139D01*
X225207590Y-60858355D01*
X225207588Y-60858352D01*
X225088717Y-60739481D01*
X225088716Y-60739480D01*
X225001904Y-60689360D01*
X225001904Y-60689359D01*
X225001900Y-60689358D01*
X224951785Y-60660423D01*
X224799057Y-60619499D01*
X224640943Y-60619499D01*
X224633347Y-60619499D01*
X224633331Y-60619500D01*
X203231692Y-60619500D01*
X203164653Y-60599815D01*
X203130119Y-60566625D01*
X203000047Y-60380861D01*
X203000045Y-60380858D01*
X202839141Y-60219954D01*
X202652734Y-60089432D01*
X202652732Y-60089431D01*
X202446497Y-59993261D01*
X202446488Y-59993258D01*
X202226697Y-59934366D01*
X202226693Y-59934365D01*
X202226692Y-59934365D01*
X202226691Y-59934364D01*
X202226686Y-59934364D01*
X202000002Y-59914532D01*
X201999998Y-59914532D01*
X201773313Y-59934364D01*
X201773302Y-59934366D01*
X201553511Y-59993258D01*
X201553502Y-59993261D01*
X201347267Y-60089431D01*
X201347265Y-60089432D01*
X201160858Y-60219954D01*
X200999954Y-60380858D01*
X200923450Y-60490118D01*
X200869881Y-60566624D01*
X200815307Y-60610248D01*
X200768308Y-60619500D01*
X188231692Y-60619500D01*
X188164653Y-60599815D01*
X188130119Y-60566625D01*
X188000047Y-60380861D01*
X188000045Y-60380858D01*
X187839141Y-60219954D01*
X187652734Y-60089432D01*
X187652732Y-60089431D01*
X187446497Y-59993261D01*
X187446488Y-59993258D01*
X187226697Y-59934366D01*
X187226693Y-59934365D01*
X187226692Y-59934365D01*
X187226691Y-59934364D01*
X187226686Y-59934364D01*
X187000002Y-59914532D01*
X186999998Y-59914532D01*
X186773313Y-59934364D01*
X186773302Y-59934366D01*
X186553511Y-59993258D01*
X186553502Y-59993261D01*
X186347267Y-60089431D01*
X186347265Y-60089432D01*
X186160858Y-60219954D01*
X185999954Y-60380858D01*
X185923450Y-60490118D01*
X185869881Y-60566624D01*
X185815307Y-60610248D01*
X185768308Y-60619500D01*
X173231692Y-60619500D01*
X173164653Y-60599815D01*
X173130119Y-60566625D01*
X173000047Y-60380861D01*
X173000045Y-60380858D01*
X172839141Y-60219954D01*
X172652734Y-60089432D01*
X172652732Y-60089431D01*
X172446497Y-59993261D01*
X172446488Y-59993258D01*
X172226697Y-59934366D01*
X172226693Y-59934365D01*
X172226692Y-59934365D01*
X172226691Y-59934364D01*
X172226686Y-59934364D01*
X172000002Y-59914532D01*
X171999998Y-59914532D01*
X171773313Y-59934364D01*
X171773302Y-59934366D01*
X171553511Y-59993258D01*
X171553502Y-59993261D01*
X171347267Y-60089431D01*
X171347265Y-60089432D01*
X171160858Y-60219954D01*
X170999954Y-60380858D01*
X170923450Y-60490118D01*
X170869881Y-60566624D01*
X170815307Y-60610248D01*
X170768308Y-60619500D01*
X158231692Y-60619500D01*
X158164653Y-60599815D01*
X158130119Y-60566625D01*
X158000047Y-60380861D01*
X158000045Y-60380858D01*
X157839141Y-60219954D01*
X157652734Y-60089432D01*
X157652732Y-60089431D01*
X157446497Y-59993261D01*
X157446488Y-59993258D01*
X157226697Y-59934366D01*
X157226693Y-59934365D01*
X157226692Y-59934365D01*
X157226691Y-59934364D01*
X157226686Y-59934364D01*
X157000002Y-59914532D01*
X156999998Y-59914532D01*
X156773313Y-59934364D01*
X156773302Y-59934366D01*
X156553511Y-59993258D01*
X156553502Y-59993261D01*
X156347267Y-60089431D01*
X156347265Y-60089432D01*
X156160858Y-60219954D01*
X155999954Y-60380858D01*
X155869432Y-60567265D01*
X155869431Y-60567267D01*
X155773261Y-60773502D01*
X155773258Y-60773511D01*
X155714366Y-60993302D01*
X155714364Y-60993313D01*
X155694532Y-61219998D01*
X155694532Y-61220001D01*
X155714364Y-61446686D01*
X155714366Y-61446697D01*
X155773258Y-61666488D01*
X155773261Y-61666497D01*
X155869431Y-61872732D01*
X155869432Y-61872734D01*
X155999954Y-62059141D01*
X156160858Y-62220045D01*
X156160861Y-62220047D01*
X156347266Y-62350568D01*
X156553504Y-62446739D01*
X156773308Y-62505635D01*
X156935230Y-62519801D01*
X156999998Y-62525468D01*
X157000000Y-62525468D01*
X157000002Y-62525468D01*
X157056673Y-62520509D01*
X157226692Y-62505635D01*
X157446496Y-62446739D01*
X157652734Y-62350568D01*
X157839139Y-62220047D01*
X158000047Y-62059139D01*
X158130118Y-61873375D01*
X158184693Y-61829752D01*
X158231692Y-61820500D01*
X170768308Y-61820500D01*
X170835347Y-61840185D01*
X170869880Y-61873374D01*
X170955480Y-61995624D01*
X170999954Y-62059141D01*
X171160858Y-62220045D01*
X171160861Y-62220047D01*
X171347266Y-62350568D01*
X171553504Y-62446739D01*
X171773308Y-62505635D01*
X171935230Y-62519801D01*
X171999998Y-62525468D01*
X172000000Y-62525468D01*
X172000002Y-62525468D01*
X172056673Y-62520509D01*
X172226692Y-62505635D01*
X172446496Y-62446739D01*
X172652734Y-62350568D01*
X172839139Y-62220047D01*
X173000047Y-62059139D01*
X173130118Y-61873375D01*
X173184693Y-61829752D01*
X173231692Y-61820500D01*
X185768308Y-61820500D01*
X185835347Y-61840185D01*
X185869880Y-61873374D01*
X185955480Y-61995624D01*
X185999954Y-62059141D01*
X186160858Y-62220045D01*
X186160861Y-62220047D01*
X186347266Y-62350568D01*
X186553504Y-62446739D01*
X186773308Y-62505635D01*
X186935230Y-62519801D01*
X186999998Y-62525468D01*
X187000000Y-62525468D01*
X187000002Y-62525468D01*
X187056673Y-62520509D01*
X187226692Y-62505635D01*
X187446496Y-62446739D01*
X187652734Y-62350568D01*
X187839139Y-62220047D01*
X188000047Y-62059139D01*
X188130118Y-61873375D01*
X188184693Y-61829752D01*
X188231692Y-61820500D01*
X200768308Y-61820500D01*
X200835347Y-61840185D01*
X200869880Y-61873374D01*
X200955480Y-61995624D01*
X200999954Y-62059141D01*
X201160858Y-62220045D01*
X201160861Y-62220047D01*
X201347266Y-62350568D01*
X201553504Y-62446739D01*
X201773308Y-62505635D01*
X201935230Y-62519801D01*
X201999998Y-62525468D01*
X202000000Y-62525468D01*
X202000002Y-62525468D01*
X202056673Y-62520509D01*
X202226692Y-62505635D01*
X202446496Y-62446739D01*
X202652734Y-62350568D01*
X202839139Y-62220047D01*
X203000047Y-62059139D01*
X203130118Y-61873375D01*
X203184693Y-61829752D01*
X203231692Y-61820500D01*
X224419903Y-61820500D01*
X224486942Y-61840185D01*
X224507584Y-61856819D01*
X225363181Y-62712416D01*
X225396666Y-62773739D01*
X225399500Y-62800097D01*
X225399500Y-70907191D01*
X225379815Y-70974230D01*
X225327011Y-71019985D01*
X225257853Y-71029929D01*
X225194297Y-71000904D01*
X225163118Y-70959596D01*
X225099035Y-70822171D01*
X225099034Y-70822169D01*
X224963494Y-70628597D01*
X224796402Y-70461506D01*
X224796395Y-70461501D01*
X224602834Y-70325967D01*
X224602830Y-70325965D01*
X224490831Y-70273739D01*
X224388663Y-70226097D01*
X224388659Y-70226096D01*
X224388655Y-70226094D01*
X224160413Y-70164938D01*
X224160403Y-70164936D01*
X223925001Y-70144341D01*
X223924999Y-70144341D01*
X223723537Y-70161967D01*
X223655037Y-70148200D01*
X223604853Y-70099585D01*
X223588920Y-70031557D01*
X223597915Y-69993906D01*
X223597399Y-69993729D01*
X223599062Y-69988885D01*
X223654943Y-69768216D01*
X223660108Y-69747821D01*
X223662571Y-69718095D01*
X223680643Y-69500005D01*
X223680643Y-69499994D01*
X223660109Y-69252187D01*
X223660107Y-69252175D01*
X223599063Y-69011118D01*
X223499173Y-68783393D01*
X223363166Y-68575217D01*
X223311856Y-68519480D01*
X223194744Y-68392262D01*
X222998509Y-68239526D01*
X222998507Y-68239525D01*
X222998506Y-68239524D01*
X222779811Y-68121172D01*
X222779802Y-68121169D01*
X222544616Y-68040429D01*
X222299335Y-67999500D01*
X222050665Y-67999500D01*
X221805383Y-68040429D01*
X221570197Y-68121169D01*
X221570188Y-68121172D01*
X221351493Y-68239524D01*
X221155257Y-68392261D01*
X220986833Y-68575217D01*
X220850826Y-68783393D01*
X220750936Y-69011118D01*
X220689892Y-69252175D01*
X220689890Y-69252187D01*
X220669357Y-69499994D01*
X220669357Y-69500005D01*
X220689890Y-69747812D01*
X220689892Y-69747824D01*
X220750936Y-69988881D01*
X220850826Y-70216606D01*
X220986833Y-70424782D01*
X220986836Y-70424785D01*
X221155256Y-70607738D01*
X221351491Y-70760474D01*
X221570190Y-70878828D01*
X221805386Y-70959571D01*
X222050665Y-71000500D01*
X222299334Y-71000500D01*
X222299335Y-71000500D01*
X222487560Y-70969091D01*
X222556923Y-70977473D01*
X222610746Y-71022026D01*
X222631936Y-71088604D01*
X222627743Y-71123492D01*
X222589939Y-71264583D01*
X222589936Y-71264596D01*
X222569341Y-71499999D01*
X222569341Y-71500000D01*
X222589936Y-71735403D01*
X222589938Y-71735413D01*
X222651094Y-71963655D01*
X222651096Y-71963659D01*
X222651097Y-71963663D01*
X222750965Y-72177830D01*
X222750967Y-72177834D01*
X222793309Y-72238304D01*
X222886505Y-72371401D01*
X223053599Y-72538495D01*
X223062394Y-72544653D01*
X223247165Y-72674032D01*
X223247167Y-72674033D01*
X223247170Y-72674035D01*
X223461337Y-72773903D01*
X223689592Y-72835063D01*
X223877918Y-72851539D01*
X223924999Y-72855659D01*
X223925000Y-72855659D01*
X223925001Y-72855659D01*
X223964234Y-72852226D01*
X224160408Y-72835063D01*
X224388663Y-72773903D01*
X224602830Y-72674035D01*
X224796401Y-72538495D01*
X224963495Y-72371401D01*
X225099035Y-72177830D01*
X225163118Y-72040401D01*
X225209290Y-71987964D01*
X225276484Y-71968812D01*
X225343365Y-71989028D01*
X225388699Y-72042193D01*
X225399500Y-72092808D01*
X225399500Y-73124902D01*
X225379815Y-73191941D01*
X225363181Y-73212583D01*
X224408530Y-74167233D01*
X224347207Y-74200718D01*
X224288756Y-74199327D01*
X224160413Y-74164938D01*
X224160403Y-74164936D01*
X223925001Y-74144341D01*
X223924999Y-74144341D01*
X223689596Y-74164936D01*
X223689586Y-74164938D01*
X223461344Y-74226094D01*
X223461335Y-74226098D01*
X223247171Y-74325964D01*
X223247169Y-74325965D01*
X223053597Y-74461505D01*
X222886505Y-74628597D01*
X222750965Y-74822169D01*
X222750964Y-74822171D01*
X222651098Y-75036335D01*
X222651094Y-75036344D01*
X222589938Y-75264586D01*
X222589936Y-75264596D01*
X222569341Y-75499999D01*
X222569341Y-75500000D01*
X222589936Y-75735403D01*
X222589938Y-75735413D01*
X222651094Y-75963655D01*
X222651096Y-75963659D01*
X222651097Y-75963663D01*
X222656901Y-75976109D01*
X222750965Y-76177830D01*
X222750967Y-76177834D01*
X222850431Y-76319882D01*
X222886505Y-76371401D01*
X223053599Y-76538495D01*
X223150384Y-76606265D01*
X223247165Y-76674032D01*
X223247167Y-76674033D01*
X223247170Y-76674035D01*
X223461337Y-76773903D01*
X223689592Y-76835063D01*
X223877918Y-76851539D01*
X223924999Y-76855659D01*
X223925000Y-76855659D01*
X223925001Y-76855659D01*
X223964234Y-76852226D01*
X224160408Y-76835063D01*
X224388663Y-76773903D01*
X224602830Y-76674035D01*
X224796401Y-76538495D01*
X224963495Y-76371401D01*
X225099035Y-76177830D01*
X225198903Y-75963663D01*
X225260063Y-75735408D01*
X225280659Y-75500000D01*
X225260063Y-75264592D01*
X225225671Y-75136239D01*
X225227334Y-75066393D01*
X225257763Y-75016470D01*
X226368713Y-73905521D01*
X226368716Y-73905520D01*
X226480520Y-73793716D01*
X226530639Y-73706904D01*
X226559577Y-73656785D01*
X226600500Y-73504057D01*
X226600500Y-73345943D01*
X226600500Y-70237302D01*
X226620185Y-70170263D01*
X226672989Y-70124508D01*
X226742147Y-70114564D01*
X226805703Y-70143589D01*
X226838056Y-70187493D01*
X226850825Y-70216604D01*
X226986833Y-70424782D01*
X226986836Y-70424785D01*
X227155256Y-70607738D01*
X227351491Y-70760474D01*
X227570190Y-70878828D01*
X227805386Y-70959571D01*
X228050665Y-71000500D01*
X228299335Y-71000500D01*
X228544614Y-70959571D01*
X228779810Y-70878828D01*
X228998509Y-70760474D01*
X229194744Y-70607738D01*
X229284271Y-70510485D01*
X229344157Y-70474496D01*
X229413995Y-70476596D01*
X229471611Y-70516120D01*
X229498713Y-70580519D01*
X229499500Y-70594469D01*
X229499500Y-80405530D01*
X229479815Y-80472569D01*
X229427011Y-80518324D01*
X229357853Y-80528268D01*
X229294297Y-80499243D01*
X229284271Y-80489513D01*
X229194747Y-80392265D01*
X229194744Y-80392262D01*
X229070171Y-80295303D01*
X228998509Y-80239526D01*
X228998507Y-80239525D01*
X228998506Y-80239524D01*
X228779811Y-80121172D01*
X228779802Y-80121169D01*
X228544616Y-80040429D01*
X228299335Y-79999500D01*
X228050665Y-79999500D01*
X227805383Y-80040429D01*
X227570197Y-80121169D01*
X227570188Y-80121172D01*
X227351493Y-80239524D01*
X227155257Y-80392261D01*
X226986833Y-80575217D01*
X226850826Y-80783393D01*
X226750936Y-81011118D01*
X226689892Y-81252175D01*
X226689890Y-81252187D01*
X226669357Y-81499994D01*
X226669357Y-81500005D01*
X226689890Y-81747812D01*
X226689892Y-81747824D01*
X226750936Y-81988881D01*
X226850826Y-82216606D01*
X226986833Y-82424782D01*
X226993980Y-82432546D01*
X227155256Y-82607738D01*
X227351491Y-82760474D01*
X227570190Y-82878828D01*
X227805386Y-82959571D01*
X228050665Y-83000500D01*
X228299335Y-83000500D01*
X228544614Y-82959571D01*
X228779810Y-82878828D01*
X228998509Y-82760474D01*
X229194744Y-82607738D01*
X229284271Y-82510485D01*
X229344157Y-82474496D01*
X229413995Y-82476596D01*
X229471611Y-82516120D01*
X229498713Y-82580519D01*
X229499500Y-82594469D01*
X229499500Y-94997293D01*
X229499382Y-95002702D01*
X229482614Y-95386750D01*
X229481671Y-95397526D01*
X229431849Y-95775957D01*
X229429971Y-95786610D01*
X229347354Y-96159272D01*
X229344554Y-96169721D01*
X229229775Y-96533755D01*
X229226075Y-96543921D01*
X229080002Y-96896572D01*
X229075430Y-96906376D01*
X228899183Y-97244942D01*
X228893775Y-97254310D01*
X228688681Y-97576244D01*
X228682476Y-97585105D01*
X228450110Y-97887930D01*
X228443156Y-97896217D01*
X228185284Y-98177635D01*
X228177635Y-98185284D01*
X227896217Y-98443156D01*
X227887930Y-98450110D01*
X227585105Y-98682476D01*
X227576244Y-98688681D01*
X227254310Y-98893775D01*
X227244942Y-98899183D01*
X226906376Y-99075430D01*
X226896572Y-99080002D01*
X226543921Y-99226075D01*
X226533755Y-99229775D01*
X226169721Y-99344554D01*
X226159272Y-99347354D01*
X225786610Y-99429971D01*
X225775957Y-99431849D01*
X225397526Y-99481671D01*
X225386750Y-99482614D01*
X225002703Y-99499382D01*
X224997294Y-99499500D01*
X155002706Y-99499500D01*
X154997297Y-99499382D01*
X154613249Y-99482614D01*
X154602473Y-99481671D01*
X154224042Y-99431849D01*
X154213389Y-99429971D01*
X153840727Y-99347354D01*
X153830278Y-99344554D01*
X153466244Y-99229775D01*
X153456078Y-99226075D01*
X153103427Y-99080002D01*
X153093623Y-99075430D01*
X152755057Y-98899183D01*
X152745689Y-98893775D01*
X152423755Y-98688681D01*
X152414894Y-98682476D01*
X152112069Y-98450110D01*
X152103782Y-98443156D01*
X151822364Y-98185284D01*
X151814715Y-98177635D01*
X151556843Y-97896217D01*
X151549889Y-97887930D01*
X151317523Y-97585105D01*
X151311318Y-97576244D01*
X151106224Y-97254310D01*
X151100816Y-97244942D01*
X150924569Y-96906376D01*
X150919997Y-96896572D01*
X150773920Y-96543911D01*
X150770224Y-96533755D01*
X150655442Y-96169710D01*
X150652648Y-96159284D01*
X150570025Y-95786597D01*
X150568152Y-95775971D01*
X150518326Y-95397506D01*
X150517386Y-95386771D01*
X150505795Y-95121288D01*
X153149500Y-95121288D01*
X153181161Y-95361785D01*
X153243947Y-95596104D01*
X153336773Y-95820205D01*
X153336776Y-95820212D01*
X153458064Y-96030289D01*
X153458066Y-96030292D01*
X153458067Y-96030293D01*
X153605733Y-96222736D01*
X153605739Y-96222743D01*
X153777256Y-96394260D01*
X153777262Y-96394265D01*
X153969711Y-96541936D01*
X154179788Y-96663224D01*
X154403900Y-96756054D01*
X154638211Y-96818838D01*
X154818586Y-96842584D01*
X154878711Y-96850500D01*
X154878712Y-96850500D01*
X155121289Y-96850500D01*
X155169388Y-96844167D01*
X155361789Y-96818838D01*
X155596100Y-96756054D01*
X155820212Y-96663224D01*
X156030289Y-96541936D01*
X156222738Y-96394265D01*
X156394265Y-96222738D01*
X156541936Y-96030289D01*
X156663224Y-95820212D01*
X156756054Y-95596100D01*
X156818838Y-95361789D01*
X156850500Y-95121288D01*
X223149500Y-95121288D01*
X223181161Y-95361785D01*
X223243947Y-95596104D01*
X223336773Y-95820205D01*
X223336776Y-95820212D01*
X223458064Y-96030289D01*
X223458066Y-96030292D01*
X223458067Y-96030293D01*
X223605733Y-96222736D01*
X223605739Y-96222743D01*
X223777256Y-96394260D01*
X223777262Y-96394265D01*
X223969711Y-96541936D01*
X224179788Y-96663224D01*
X224403900Y-96756054D01*
X224638211Y-96818838D01*
X224818586Y-96842584D01*
X224878711Y-96850500D01*
X224878712Y-96850500D01*
X225121289Y-96850500D01*
X225169388Y-96844167D01*
X225361789Y-96818838D01*
X225596100Y-96756054D01*
X225820212Y-96663224D01*
X226030289Y-96541936D01*
X226222738Y-96394265D01*
X226394265Y-96222738D01*
X226541936Y-96030289D01*
X226663224Y-95820212D01*
X226756054Y-95596100D01*
X226818838Y-95361789D01*
X226850500Y-95121288D01*
X226850500Y-94878712D01*
X226818838Y-94638211D01*
X226756054Y-94403900D01*
X226663224Y-94179788D01*
X226541936Y-93969711D01*
X226412096Y-93800500D01*
X226394266Y-93777263D01*
X226394260Y-93777256D01*
X226222743Y-93605739D01*
X226222736Y-93605733D01*
X226030293Y-93458067D01*
X226030292Y-93458066D01*
X226030289Y-93458064D01*
X225820212Y-93336776D01*
X225820205Y-93336773D01*
X225596104Y-93243947D01*
X225361785Y-93181161D01*
X225121289Y-93149500D01*
X225121288Y-93149500D01*
X224878712Y-93149500D01*
X224878711Y-93149500D01*
X224638214Y-93181161D01*
X224403895Y-93243947D01*
X224179794Y-93336773D01*
X224179785Y-93336777D01*
X223969706Y-93458067D01*
X223777263Y-93605733D01*
X223777256Y-93605739D01*
X223605739Y-93777256D01*
X223605733Y-93777263D01*
X223458067Y-93969706D01*
X223336777Y-94179785D01*
X223336773Y-94179794D01*
X223243947Y-94403895D01*
X223181161Y-94638214D01*
X223149500Y-94878711D01*
X223149500Y-95121288D01*
X156850500Y-95121288D01*
X156850500Y-94878712D01*
X156818838Y-94638211D01*
X156756054Y-94403900D01*
X156663224Y-94179788D01*
X156541936Y-93969711D01*
X156412096Y-93800500D01*
X156394266Y-93777263D01*
X156394260Y-93777256D01*
X156222743Y-93605739D01*
X156222736Y-93605733D01*
X156030293Y-93458067D01*
X156030292Y-93458066D01*
X156030289Y-93458064D01*
X155820212Y-93336776D01*
X155820205Y-93336773D01*
X155596104Y-93243947D01*
X155361785Y-93181161D01*
X155121289Y-93149500D01*
X155121288Y-93149500D01*
X154878712Y-93149500D01*
X154878711Y-93149500D01*
X154638214Y-93181161D01*
X154403895Y-93243947D01*
X154179794Y-93336773D01*
X154179785Y-93336777D01*
X153969706Y-93458067D01*
X153777263Y-93605733D01*
X153777256Y-93605739D01*
X153605739Y-93777256D01*
X153605733Y-93777263D01*
X153458067Y-93969706D01*
X153336777Y-94179785D01*
X153336773Y-94179794D01*
X153243947Y-94403895D01*
X153181161Y-94638214D01*
X153149500Y-94878711D01*
X153149500Y-95121288D01*
X150505795Y-95121288D01*
X150500618Y-95002702D01*
X150500500Y-94997293D01*
X150500500Y-78635006D01*
X155594700Y-78635006D01*
X155613864Y-78866297D01*
X155613866Y-78866308D01*
X155670842Y-79091300D01*
X155764075Y-79303848D01*
X155891016Y-79498147D01*
X155891019Y-79498151D01*
X155891021Y-79498153D01*
X155985803Y-79601114D01*
X156016724Y-79663767D01*
X156008864Y-79733193D01*
X155964716Y-79787348D01*
X155937906Y-79801277D01*
X155857669Y-79831203D01*
X155857664Y-79831206D01*
X155742455Y-79917452D01*
X155742452Y-79917455D01*
X155656206Y-80032664D01*
X155656202Y-80032671D01*
X155605908Y-80167517D01*
X155599501Y-80227116D01*
X155599501Y-80227123D01*
X155599500Y-80227135D01*
X155599500Y-82122870D01*
X155599501Y-82122876D01*
X155605908Y-82182483D01*
X155656202Y-82317328D01*
X155656206Y-82317335D01*
X155742452Y-82432544D01*
X155742455Y-82432547D01*
X155857664Y-82518793D01*
X155857671Y-82518797D01*
X155992517Y-82569091D01*
X155992516Y-82569091D01*
X155999444Y-82569835D01*
X156052127Y-82575500D01*
X157947872Y-82575499D01*
X158007483Y-82569091D01*
X158142331Y-82518796D01*
X158257546Y-82432546D01*
X158343796Y-82317331D01*
X158394091Y-82182483D01*
X158400500Y-82122873D01*
X158400500Y-81906879D01*
X158420185Y-81839841D01*
X158472989Y-81794086D01*
X158524500Y-81782880D01*
X170575501Y-81782880D01*
X170642540Y-81802565D01*
X170688295Y-81855369D01*
X170699501Y-81906880D01*
X170699501Y-82030256D01*
X170705908Y-82089863D01*
X170756202Y-82224708D01*
X170756206Y-82224715D01*
X170842452Y-82339924D01*
X170842455Y-82339927D01*
X170957664Y-82426173D01*
X170957671Y-82426177D01*
X171002618Y-82442941D01*
X171092517Y-82476471D01*
X171152127Y-82482880D01*
X171275500Y-82482879D01*
X171342539Y-82502563D01*
X171388294Y-82555367D01*
X171399500Y-82606879D01*
X171399500Y-89922689D01*
X171379815Y-89989728D01*
X171327011Y-90035483D01*
X171322955Y-90037249D01*
X171289249Y-90051211D01*
X171289237Y-90051217D01*
X171121281Y-90163441D01*
X170978441Y-90306281D01*
X170866217Y-90474237D01*
X170866212Y-90474247D01*
X170788909Y-90660872D01*
X170788907Y-90660880D01*
X170749500Y-90858992D01*
X170749500Y-91061007D01*
X170788907Y-91259119D01*
X170788909Y-91259127D01*
X170866213Y-91445755D01*
X170919904Y-91526109D01*
X170940782Y-91592787D01*
X170922297Y-91660167D01*
X170919904Y-91663891D01*
X170866213Y-91744244D01*
X170788909Y-91930872D01*
X170788907Y-91930880D01*
X170749500Y-92128992D01*
X170749500Y-92331007D01*
X170788907Y-92529119D01*
X170788910Y-92529131D01*
X170822547Y-92610338D01*
X170830016Y-92679807D01*
X170810405Y-92724864D01*
X170810895Y-92725132D01*
X170807910Y-92730596D01*
X170807260Y-92732092D01*
X170806646Y-92732911D01*
X170806645Y-92732913D01*
X170756403Y-92867620D01*
X170756401Y-92867627D01*
X170750000Y-92927155D01*
X170750000Y-93250000D01*
X171634134Y-93250000D01*
X171658326Y-93252383D01*
X171661123Y-93252939D01*
X171673995Y-93255499D01*
X171673996Y-93255500D01*
X171673997Y-93255500D01*
X171714170Y-93255500D01*
X171699925Y-93269745D01*
X171650556Y-93355255D01*
X171625000Y-93450630D01*
X171625000Y-93549370D01*
X171650556Y-93644745D01*
X171699925Y-93730255D01*
X171719670Y-93750000D01*
X170750000Y-93750000D01*
X170750000Y-94072844D01*
X170756401Y-94132372D01*
X170756403Y-94132379D01*
X170806645Y-94267086D01*
X170806649Y-94267093D01*
X170892809Y-94382187D01*
X170892812Y-94382190D01*
X171007906Y-94468350D01*
X171007913Y-94468354D01*
X171142620Y-94518596D01*
X171142627Y-94518598D01*
X171202155Y-94524999D01*
X171202172Y-94525000D01*
X171750000Y-94525000D01*
X171750000Y-93780330D01*
X171769745Y-93800075D01*
X171855255Y-93849444D01*
X171950630Y-93875000D01*
X172049370Y-93875000D01*
X172144745Y-93849444D01*
X172230255Y-93800075D01*
X172250000Y-93780330D01*
X172250000Y-94525000D01*
X172797828Y-94525000D01*
X172797844Y-94524999D01*
X172857372Y-94518598D01*
X172857379Y-94518596D01*
X172992086Y-94468354D01*
X172992093Y-94468350D01*
X173107187Y-94382190D01*
X173107190Y-94382187D01*
X173193350Y-94267093D01*
X173193354Y-94267086D01*
X173243596Y-94132379D01*
X173243598Y-94132372D01*
X173249999Y-94072844D01*
X173250000Y-94072827D01*
X173250000Y-93750000D01*
X172280330Y-93750000D01*
X172300075Y-93730255D01*
X172349444Y-93644745D01*
X172375000Y-93549370D01*
X172375000Y-93450630D01*
X172349444Y-93355255D01*
X172300075Y-93269745D01*
X172285830Y-93255500D01*
X172326004Y-93255500D01*
X172326004Y-93255499D01*
X172339473Y-93252820D01*
X172341674Y-93252383D01*
X172365866Y-93250000D01*
X173250000Y-93250000D01*
X173250000Y-92954500D01*
X173269685Y-92887461D01*
X173322489Y-92841706D01*
X173374000Y-92830500D01*
X174083331Y-92830500D01*
X174083347Y-92830501D01*
X174090943Y-92830501D01*
X174249054Y-92830501D01*
X174249057Y-92830501D01*
X174401785Y-92789577D01*
X174451904Y-92760639D01*
X174538716Y-92710520D01*
X174650520Y-92598716D01*
X174650520Y-92598714D01*
X174660728Y-92588507D01*
X174660729Y-92588504D01*
X179480520Y-87768716D01*
X179559577Y-87631784D01*
X179600501Y-87479057D01*
X179600501Y-87320942D01*
X179600501Y-87313347D01*
X179600500Y-87313329D01*
X179600500Y-83200097D01*
X179620185Y-83133058D01*
X179636819Y-83112416D01*
X183430037Y-79319198D01*
X183491360Y-79285713D01*
X183517718Y-79282879D01*
X185768308Y-79282879D01*
X185835347Y-79302564D01*
X185869880Y-79335753D01*
X185955480Y-79458003D01*
X185999954Y-79521520D01*
X186157086Y-79678652D01*
X186190571Y-79739975D01*
X186185587Y-79809667D01*
X186143715Y-79865600D01*
X186097932Y-79887007D01*
X186092522Y-79888285D01*
X185957671Y-79938581D01*
X185957664Y-79938585D01*
X185842455Y-80024831D01*
X185842452Y-80024834D01*
X185756206Y-80140043D01*
X185756202Y-80140050D01*
X185705908Y-80274896D01*
X185699501Y-80334495D01*
X185699501Y-80334503D01*
X185699500Y-80334514D01*
X185699500Y-82030249D01*
X185699501Y-82030255D01*
X185705908Y-82089862D01*
X185756202Y-82224707D01*
X185756206Y-82224714D01*
X185842452Y-82339923D01*
X185842455Y-82339926D01*
X185957664Y-82426172D01*
X185957671Y-82426176D01*
X185974753Y-82432547D01*
X186092517Y-82476470D01*
X186152127Y-82482879D01*
X186275500Y-82482878D01*
X186342539Y-82502562D01*
X186388294Y-82555366D01*
X186399500Y-82606878D01*
X186399500Y-89901979D01*
X186379815Y-89969018D01*
X186327011Y-90014773D01*
X186322953Y-90016540D01*
X186239247Y-90051212D01*
X186239237Y-90051217D01*
X186071281Y-90163441D01*
X185928441Y-90306281D01*
X185816217Y-90474237D01*
X185816212Y-90474247D01*
X185738909Y-90660872D01*
X185738907Y-90660880D01*
X185699500Y-90858992D01*
X185699500Y-91061007D01*
X185738907Y-91259119D01*
X185738909Y-91259127D01*
X185816213Y-91445755D01*
X185869904Y-91526109D01*
X185890782Y-91592787D01*
X185872297Y-91660167D01*
X185869904Y-91663891D01*
X185816213Y-91744244D01*
X185738909Y-91930872D01*
X185738907Y-91930880D01*
X185699500Y-92128992D01*
X185699500Y-92331007D01*
X185738907Y-92529119D01*
X185738910Y-92529131D01*
X185772547Y-92610338D01*
X185780016Y-92679807D01*
X185760405Y-92724864D01*
X185760895Y-92725132D01*
X185757910Y-92730596D01*
X185757260Y-92732092D01*
X185756646Y-92732911D01*
X185756645Y-92732913D01*
X185706403Y-92867620D01*
X185706401Y-92867627D01*
X185700000Y-92927155D01*
X185700000Y-93250000D01*
X186584134Y-93250000D01*
X186608326Y-93252383D01*
X186611123Y-93252939D01*
X186623995Y-93255499D01*
X186623996Y-93255500D01*
X186623997Y-93255500D01*
X186664170Y-93255500D01*
X186649925Y-93269745D01*
X186600556Y-93355255D01*
X186575000Y-93450630D01*
X186575000Y-93549370D01*
X186600556Y-93644745D01*
X186649925Y-93730255D01*
X186669670Y-93750000D01*
X185700000Y-93750000D01*
X185700000Y-94072844D01*
X185706401Y-94132372D01*
X185706403Y-94132379D01*
X185756645Y-94267086D01*
X185756649Y-94267093D01*
X185842809Y-94382187D01*
X185842812Y-94382190D01*
X185957906Y-94468350D01*
X185957913Y-94468354D01*
X186092620Y-94518596D01*
X186092627Y-94518598D01*
X186152155Y-94524999D01*
X186152172Y-94525000D01*
X186700000Y-94525000D01*
X186700000Y-93780330D01*
X186719745Y-93800075D01*
X186805255Y-93849444D01*
X186900630Y-93875000D01*
X186999370Y-93875000D01*
X187094745Y-93849444D01*
X187180255Y-93800075D01*
X187200000Y-93780330D01*
X187200000Y-94525000D01*
X187747828Y-94525000D01*
X187747844Y-94524999D01*
X187807372Y-94518598D01*
X187807379Y-94518596D01*
X187942086Y-94468354D01*
X187942093Y-94468350D01*
X188057187Y-94382190D01*
X188057190Y-94382187D01*
X188143350Y-94267093D01*
X188143354Y-94267086D01*
X188193596Y-94132379D01*
X188193598Y-94132372D01*
X188199999Y-94072844D01*
X188200000Y-94072827D01*
X188200000Y-93750000D01*
X187230330Y-93750000D01*
X187250075Y-93730255D01*
X187299444Y-93644745D01*
X187325000Y-93549370D01*
X187325000Y-93450630D01*
X187299444Y-93355255D01*
X187250075Y-93269745D01*
X187235830Y-93255500D01*
X187276004Y-93255500D01*
X187276004Y-93255499D01*
X187289473Y-93252820D01*
X187291674Y-93252383D01*
X187315866Y-93250000D01*
X188200000Y-93250000D01*
X188200000Y-92954500D01*
X188219685Y-92887461D01*
X188272489Y-92841706D01*
X188324000Y-92830500D01*
X189629903Y-92830500D01*
X189696942Y-92850185D01*
X189717584Y-92866819D01*
X190415139Y-93564374D01*
X190415149Y-93564385D01*
X190419479Y-93568715D01*
X190419480Y-93568716D01*
X190531284Y-93680520D01*
X190617430Y-93730255D01*
X190618095Y-93730639D01*
X190618097Y-93730641D01*
X190651628Y-93750000D01*
X190668215Y-93759577D01*
X190820943Y-93800500D01*
X203013331Y-93800500D01*
X203013347Y-93800501D01*
X203020943Y-93800501D01*
X203179054Y-93800501D01*
X203179057Y-93800501D01*
X203331785Y-93759577D01*
X203381904Y-93730639D01*
X203468716Y-93680520D01*
X203580520Y-93568716D01*
X203580520Y-93568714D01*
X203590728Y-93558507D01*
X203590730Y-93558504D01*
X207358506Y-89790728D01*
X207358511Y-89790724D01*
X207368714Y-89780520D01*
X207368716Y-89780520D01*
X207480520Y-89668716D01*
X207484122Y-89662476D01*
X207534271Y-89575617D01*
X207534272Y-89575615D01*
X207559574Y-89531790D01*
X207559575Y-89531789D01*
X207559575Y-89531787D01*
X207559577Y-89531785D01*
X207600501Y-89379057D01*
X207600501Y-89220943D01*
X207600501Y-89213348D01*
X207600500Y-89213330D01*
X207600500Y-77900001D01*
X214494891Y-77900001D01*
X214515300Y-78185362D01*
X214576109Y-78464895D01*
X214676091Y-78732958D01*
X214813191Y-78984038D01*
X214813196Y-78984046D01*
X214919882Y-79126561D01*
X214919883Y-79126562D01*
X215976212Y-78070233D01*
X215987482Y-78112292D01*
X216059890Y-78237708D01*
X216162292Y-78340110D01*
X216287708Y-78412518D01*
X216329765Y-78423787D01*
X215273436Y-79480115D01*
X215415960Y-79586807D01*
X215415961Y-79586808D01*
X215667042Y-79723908D01*
X215667041Y-79723908D01*
X215935104Y-79823890D01*
X216214637Y-79884699D01*
X216499999Y-79905109D01*
X216500001Y-79905109D01*
X216785362Y-79884699D01*
X217064895Y-79823890D01*
X217332958Y-79723908D01*
X217584047Y-79586803D01*
X217726561Y-79480116D01*
X217726562Y-79480115D01*
X216670235Y-78423787D01*
X216712292Y-78412518D01*
X216837708Y-78340110D01*
X216940110Y-78237708D01*
X217012518Y-78112292D01*
X217023787Y-78070234D01*
X218080115Y-79126562D01*
X218080116Y-79126561D01*
X218186803Y-78984047D01*
X218323908Y-78732958D01*
X218423890Y-78464895D01*
X218484699Y-78185362D01*
X218505109Y-77900001D01*
X218505109Y-77899998D01*
X218484699Y-77614637D01*
X218423890Y-77335104D01*
X218323908Y-77067041D01*
X218186808Y-76815961D01*
X218186807Y-76815960D01*
X218080115Y-76673436D01*
X217023787Y-77729764D01*
X217012518Y-77687708D01*
X216940110Y-77562292D01*
X216837708Y-77459890D01*
X216712292Y-77387482D01*
X216670234Y-77376212D01*
X217726562Y-76319883D01*
X217726561Y-76319882D01*
X217584046Y-76213196D01*
X217584038Y-76213191D01*
X217332957Y-76076091D01*
X217332958Y-76076091D01*
X217064895Y-75976109D01*
X216785362Y-75915300D01*
X216500001Y-75894891D01*
X216499999Y-75894891D01*
X216214637Y-75915300D01*
X215935104Y-75976109D01*
X215667041Y-76076091D01*
X215415961Y-76213191D01*
X215415953Y-76213196D01*
X215273437Y-76319882D01*
X215273436Y-76319883D01*
X216329766Y-77376212D01*
X216287708Y-77387482D01*
X216162292Y-77459890D01*
X216059890Y-77562292D01*
X215987482Y-77687708D01*
X215976212Y-77729765D01*
X214919883Y-76673436D01*
X214919882Y-76673437D01*
X214813196Y-76815953D01*
X214813191Y-76815961D01*
X214676091Y-77067041D01*
X214576109Y-77335104D01*
X214515300Y-77614637D01*
X214494891Y-77899998D01*
X214494891Y-77900001D01*
X207600500Y-77900001D01*
X207600500Y-69920945D01*
X207600500Y-69920943D01*
X207559577Y-69768216D01*
X207559577Y-69768215D01*
X207559577Y-69768214D01*
X207530639Y-69718095D01*
X207530637Y-69718092D01*
X207480520Y-69631284D01*
X207368716Y-69519480D01*
X207368715Y-69519479D01*
X207364385Y-69515149D01*
X207364374Y-69515139D01*
X205487590Y-67638355D01*
X205487588Y-67638352D01*
X205368717Y-67519481D01*
X205368716Y-67519480D01*
X205281904Y-67469360D01*
X205281904Y-67469359D01*
X205281900Y-67469358D01*
X205231785Y-67440423D01*
X205079057Y-67399499D01*
X204920943Y-67399499D01*
X204913347Y-67399499D01*
X204913331Y-67399500D01*
X193099907Y-67399500D01*
X193032868Y-67379815D01*
X192987113Y-67327011D01*
X192977169Y-67257853D01*
X193006194Y-67194297D01*
X193064972Y-67156523D01*
X193083722Y-67152561D01*
X193084155Y-67152503D01*
X193166228Y-67141699D01*
X193416366Y-67074675D01*
X193655616Y-66975574D01*
X193879884Y-66846093D01*
X194007891Y-66747870D01*
X214499500Y-66747870D01*
X214499501Y-66747876D01*
X214505908Y-66807483D01*
X214556202Y-66942328D01*
X214556206Y-66942335D01*
X214642452Y-67057544D01*
X214642455Y-67057547D01*
X214757664Y-67143793D01*
X214757671Y-67143797D01*
X214892517Y-67194091D01*
X214892516Y-67194091D01*
X214899444Y-67194835D01*
X214952127Y-67200500D01*
X215775500Y-67200499D01*
X215842539Y-67220183D01*
X215888294Y-67272987D01*
X215899500Y-67324499D01*
X215899500Y-71913330D01*
X215899499Y-71913348D01*
X215899499Y-72079054D01*
X215899498Y-72079054D01*
X215925966Y-72177834D01*
X215940423Y-72231785D01*
X215944180Y-72238292D01*
X215944183Y-72238304D01*
X215944186Y-72238303D01*
X216019475Y-72368709D01*
X216019481Y-72368717D01*
X216138349Y-72487585D01*
X216138355Y-72487590D01*
X219163181Y-75512416D01*
X219196666Y-75573739D01*
X219199500Y-75600097D01*
X219199500Y-77813330D01*
X219199499Y-77813348D01*
X219199499Y-77979054D01*
X219199498Y-77979054D01*
X219235200Y-78112292D01*
X219240423Y-78131785D01*
X219247672Y-78144341D01*
X219259562Y-78164933D01*
X219259563Y-78164937D01*
X219319475Y-78268709D01*
X219319481Y-78268717D01*
X219438349Y-78387585D01*
X219438354Y-78387589D01*
X221031284Y-79980520D01*
X221031286Y-79980521D01*
X221031290Y-79980524D01*
X221121613Y-80032671D01*
X221168216Y-80059577D01*
X221235762Y-80077676D01*
X221295420Y-80114040D01*
X221325949Y-80176887D01*
X221317654Y-80246263D01*
X221279828Y-80295303D01*
X221155262Y-80392256D01*
X221155259Y-80392259D01*
X220986833Y-80575217D01*
X220850826Y-80783393D01*
X220750936Y-81011118D01*
X220689892Y-81252175D01*
X220689890Y-81252187D01*
X220669357Y-81499994D01*
X220669357Y-81500005D01*
X220689890Y-81747812D01*
X220689892Y-81747824D01*
X220750936Y-81988881D01*
X220850826Y-82216606D01*
X220986833Y-82424782D01*
X220993980Y-82432546D01*
X221155256Y-82607738D01*
X221351491Y-82760474D01*
X221570190Y-82878828D01*
X221805386Y-82959571D01*
X222050665Y-83000500D01*
X222299335Y-83000500D01*
X222544614Y-82959571D01*
X222779810Y-82878828D01*
X222998509Y-82760474D01*
X223194744Y-82607738D01*
X223363164Y-82424785D01*
X223499173Y-82216607D01*
X223599063Y-81988881D01*
X223660108Y-81747821D01*
X223680643Y-81500000D01*
X223660108Y-81252179D01*
X223599063Y-81011119D01*
X223599063Y-81011118D01*
X223599062Y-81011114D01*
X223597399Y-81006271D01*
X223598471Y-81005902D01*
X223590269Y-80942076D01*
X223620243Y-80878962D01*
X223679581Y-80842073D01*
X223723532Y-80838032D01*
X223906595Y-80854048D01*
X223924999Y-80855659D01*
X223925000Y-80855659D01*
X223925001Y-80855659D01*
X223964234Y-80852226D01*
X224160408Y-80835063D01*
X224388663Y-80773903D01*
X224602830Y-80674035D01*
X224796401Y-80538495D01*
X224963495Y-80371401D01*
X225099035Y-80177830D01*
X225198903Y-79963663D01*
X225260063Y-79735408D01*
X225280659Y-79500000D01*
X225260063Y-79264592D01*
X225198903Y-79036337D01*
X225099035Y-78822171D01*
X225099034Y-78822169D01*
X224963494Y-78628597D01*
X224796402Y-78461506D01*
X224796395Y-78461501D01*
X224788100Y-78455693D01*
X224757521Y-78434281D01*
X224602834Y-78325967D01*
X224602830Y-78325965D01*
X224602828Y-78325964D01*
X224388663Y-78226097D01*
X224388659Y-78226096D01*
X224388655Y-78226094D01*
X224160413Y-78164938D01*
X224160403Y-78164936D01*
X223925001Y-78144341D01*
X223924999Y-78144341D01*
X223689596Y-78164936D01*
X223689586Y-78164938D01*
X223461344Y-78226094D01*
X223461335Y-78226098D01*
X223247171Y-78325964D01*
X223247169Y-78325965D01*
X223053597Y-78461505D01*
X222886506Y-78628596D01*
X222750965Y-78822170D01*
X222750962Y-78822175D01*
X222748289Y-78827909D01*
X222702115Y-78880346D01*
X222635909Y-78899500D01*
X221700098Y-78899500D01*
X221633059Y-78879815D01*
X221612417Y-78863181D01*
X220436819Y-77687583D01*
X220403334Y-77626260D01*
X220400500Y-77599902D01*
X220400500Y-75389060D01*
X220400501Y-75389047D01*
X220400501Y-75220944D01*
X220359576Y-75068214D01*
X220359573Y-75068209D01*
X220280524Y-74931290D01*
X220280518Y-74931282D01*
X217136819Y-71787583D01*
X217103334Y-71726260D01*
X217100500Y-71699902D01*
X217100500Y-67324499D01*
X217120185Y-67257460D01*
X217172989Y-67211705D01*
X217224500Y-67200499D01*
X218047871Y-67200499D01*
X218047872Y-67200499D01*
X218107483Y-67194091D01*
X218242331Y-67143796D01*
X218357546Y-67057546D01*
X218443796Y-66942331D01*
X218494091Y-66807483D01*
X218500500Y-66747873D01*
X218500499Y-63652128D01*
X218494091Y-63592517D01*
X218479690Y-63553907D01*
X218443797Y-63457671D01*
X218443793Y-63457664D01*
X218357547Y-63342455D01*
X218357544Y-63342452D01*
X218242335Y-63256206D01*
X218242328Y-63256202D01*
X218107482Y-63205908D01*
X218107483Y-63205908D01*
X218047883Y-63199501D01*
X218047881Y-63199500D01*
X218047873Y-63199500D01*
X218047864Y-63199500D01*
X214952129Y-63199500D01*
X214952123Y-63199501D01*
X214892516Y-63205908D01*
X214757671Y-63256202D01*
X214757664Y-63256206D01*
X214642455Y-63342452D01*
X214642452Y-63342455D01*
X214556206Y-63457664D01*
X214556202Y-63457671D01*
X214505908Y-63592517D01*
X214499501Y-63652116D01*
X214499501Y-63652123D01*
X214499500Y-63652135D01*
X214499500Y-66747870D01*
X194007891Y-66747870D01*
X194085333Y-66688447D01*
X194268447Y-66505333D01*
X194426093Y-66299884D01*
X194555574Y-66075616D01*
X194654675Y-65836366D01*
X194721699Y-65586228D01*
X194755500Y-65329481D01*
X194755500Y-65070519D01*
X194721699Y-64813772D01*
X194654675Y-64563634D01*
X194555574Y-64324384D01*
X194426093Y-64100116D01*
X194268447Y-63894667D01*
X194268442Y-63894661D01*
X194085338Y-63711557D01*
X194085331Y-63711551D01*
X193879883Y-63553906D01*
X193655619Y-63424427D01*
X193655609Y-63424423D01*
X193416364Y-63325324D01*
X193291297Y-63291813D01*
X193166228Y-63258301D01*
X193166222Y-63258300D01*
X193166217Y-63258299D01*
X192909491Y-63224501D01*
X192909486Y-63224500D01*
X192909481Y-63224500D01*
X192650519Y-63224500D01*
X192650513Y-63224500D01*
X192650508Y-63224501D01*
X192393782Y-63258299D01*
X192393775Y-63258300D01*
X192393772Y-63258301D01*
X192340908Y-63272465D01*
X192143635Y-63325324D01*
X191904390Y-63424423D01*
X191904380Y-63424427D01*
X191680116Y-63553906D01*
X191474668Y-63711551D01*
X191474661Y-63711557D01*
X191291557Y-63894661D01*
X191291551Y-63894668D01*
X191133906Y-64100116D01*
X191004427Y-64324380D01*
X191004423Y-64324390D01*
X190905324Y-64563635D01*
X190838302Y-64813769D01*
X190838299Y-64813782D01*
X190804501Y-65070508D01*
X190804500Y-65070525D01*
X190804500Y-65329474D01*
X190804501Y-65329491D01*
X190838299Y-65586217D01*
X190838300Y-65586222D01*
X190838301Y-65586228D01*
X190838302Y-65586230D01*
X190905324Y-65836364D01*
X191004423Y-66075609D01*
X191004427Y-66075619D01*
X191133906Y-66299883D01*
X191291551Y-66505331D01*
X191291557Y-66505338D01*
X191474661Y-66688442D01*
X191474668Y-66688448D01*
X191680116Y-66846093D01*
X191904380Y-66975572D01*
X191904381Y-66975572D01*
X191904384Y-66975574D01*
X192143634Y-67074675D01*
X192393772Y-67141699D01*
X192475665Y-67152480D01*
X192476278Y-67152561D01*
X192540175Y-67180827D01*
X192578646Y-67239152D01*
X192579477Y-67309017D01*
X192542405Y-67368240D01*
X192479199Y-67398019D01*
X192460093Y-67399500D01*
X173086670Y-67399500D01*
X173086654Y-67399499D01*
X173079058Y-67399499D01*
X172920943Y-67399499D01*
X172844579Y-67419961D01*
X172768214Y-67440423D01*
X172768209Y-67440426D01*
X172631290Y-67519475D01*
X172631282Y-67519481D01*
X171519481Y-68631282D01*
X171519477Y-68631287D01*
X171502564Y-68660584D01*
X171502563Y-68660586D01*
X171440423Y-68768215D01*
X171399499Y-68920943D01*
X171399499Y-68920945D01*
X171399499Y-69089046D01*
X171399500Y-69089059D01*
X171399500Y-70148306D01*
X171379815Y-70215345D01*
X171346623Y-70249881D01*
X171160859Y-70379953D01*
X170999954Y-70540858D01*
X170869432Y-70727265D01*
X170869431Y-70727267D01*
X170773261Y-70933502D01*
X170773258Y-70933511D01*
X170714366Y-71153302D01*
X170714364Y-71153313D01*
X170694532Y-71379998D01*
X170694532Y-71380001D01*
X170714364Y-71606686D01*
X170714366Y-71606697D01*
X170773258Y-71826488D01*
X170773261Y-71826497D01*
X170869431Y-72032732D01*
X170869432Y-72032734D01*
X170999954Y-72219141D01*
X171160858Y-72380045D01*
X171160861Y-72380047D01*
X171346624Y-72510118D01*
X171390248Y-72564693D01*
X171399500Y-72611692D01*
X171399500Y-77450686D01*
X171379815Y-77517725D01*
X171346623Y-77552261D01*
X171160859Y-77682333D01*
X170999954Y-77843238D01*
X170869432Y-78029645D01*
X170869431Y-78029647D01*
X170773261Y-78235882D01*
X170773258Y-78235891D01*
X170714366Y-78455682D01*
X170714364Y-78455693D01*
X170694532Y-78682378D01*
X170694532Y-78682381D01*
X170714364Y-78909066D01*
X170714366Y-78909077D01*
X170773258Y-79128868D01*
X170773261Y-79128877D01*
X170869431Y-79335112D01*
X170869432Y-79335114D01*
X170999954Y-79521521D01*
X171157086Y-79678653D01*
X171190571Y-79739976D01*
X171185587Y-79809668D01*
X171143715Y-79865601D01*
X171097932Y-79887008D01*
X171092522Y-79888286D01*
X170957671Y-79938582D01*
X170957664Y-79938586D01*
X170842455Y-80024832D01*
X170842452Y-80024835D01*
X170756206Y-80140044D01*
X170756202Y-80140051D01*
X170705908Y-80274897D01*
X170699501Y-80334495D01*
X170699501Y-80334503D01*
X170699500Y-80334515D01*
X170699500Y-80457880D01*
X170679815Y-80524919D01*
X170627011Y-80570674D01*
X170575500Y-80581880D01*
X158524499Y-80581880D01*
X158457460Y-80562195D01*
X158411705Y-80509391D01*
X158400499Y-80457880D01*
X158400499Y-80227129D01*
X158400498Y-80227123D01*
X158400497Y-80227116D01*
X158394091Y-80167517D01*
X158383846Y-80140050D01*
X158343797Y-80032671D01*
X158343793Y-80032664D01*
X158257547Y-79917455D01*
X158257544Y-79917452D01*
X158142335Y-79831206D01*
X158142328Y-79831202D01*
X158062094Y-79801277D01*
X158006160Y-79759406D01*
X157981743Y-79693941D01*
X157996595Y-79625668D01*
X158014190Y-79601121D01*
X158108979Y-79498153D01*
X158235924Y-79303849D01*
X158329157Y-79091300D01*
X158386134Y-78866305D01*
X158389791Y-78822169D01*
X158405300Y-78635006D01*
X158405300Y-78634993D01*
X158386135Y-78403702D01*
X158386133Y-78403691D01*
X158329157Y-78178699D01*
X158235924Y-77966151D01*
X158108983Y-77771852D01*
X158108980Y-77771849D01*
X158108979Y-77771847D01*
X157951784Y-77601087D01*
X157951779Y-77601083D01*
X157951777Y-77601081D01*
X157768634Y-77458535D01*
X157768623Y-77458528D01*
X157665481Y-77402709D01*
X157615891Y-77353489D01*
X157600500Y-77293655D01*
X157600500Y-72611692D01*
X157620185Y-72544653D01*
X157653374Y-72510119D01*
X157839139Y-72380047D01*
X158000047Y-72219139D01*
X158130568Y-72032734D01*
X158226739Y-71826496D01*
X158285635Y-71606692D01*
X158305468Y-71380000D01*
X158285635Y-71153308D01*
X158226739Y-70933504D01*
X158130568Y-70727266D01*
X158000047Y-70540861D01*
X158000045Y-70540858D01*
X157839141Y-70379954D01*
X157652734Y-70249432D01*
X157652732Y-70249431D01*
X157446497Y-70153261D01*
X157446488Y-70153258D01*
X157226697Y-70094366D01*
X157226693Y-70094365D01*
X157226692Y-70094365D01*
X157226691Y-70094364D01*
X157226686Y-70094364D01*
X157000002Y-70074532D01*
X156999998Y-70074532D01*
X156773313Y-70094364D01*
X156773302Y-70094366D01*
X156553511Y-70153258D01*
X156553502Y-70153261D01*
X156347267Y-70249431D01*
X156347265Y-70249432D01*
X156160858Y-70379954D01*
X155999954Y-70540858D01*
X155869432Y-70727265D01*
X155869431Y-70727267D01*
X155773261Y-70933502D01*
X155773258Y-70933511D01*
X155714366Y-71153302D01*
X155714364Y-71153313D01*
X155694532Y-71379998D01*
X155694532Y-71380001D01*
X155714364Y-71606686D01*
X155714366Y-71606697D01*
X155773258Y-71826488D01*
X155773261Y-71826497D01*
X155869431Y-72032732D01*
X155869432Y-72032734D01*
X155999954Y-72219141D01*
X156160858Y-72380045D01*
X156160861Y-72380047D01*
X156346624Y-72510118D01*
X156390248Y-72564693D01*
X156399500Y-72611692D01*
X156399500Y-77293655D01*
X156379815Y-77360694D01*
X156334519Y-77402709D01*
X156231376Y-77458528D01*
X156231365Y-77458535D01*
X156048222Y-77601081D01*
X156048219Y-77601084D01*
X156048216Y-77601086D01*
X156048216Y-77601087D01*
X156025043Y-77626260D01*
X155891016Y-77771852D01*
X155764075Y-77966151D01*
X155670842Y-78178699D01*
X155613866Y-78403691D01*
X155613864Y-78403702D01*
X155594700Y-78634993D01*
X155594700Y-78635006D01*
X150500500Y-78635006D01*
X150500500Y-55121288D01*
X153149500Y-55121288D01*
X153181161Y-55361785D01*
X153243947Y-55596104D01*
X153336773Y-55820205D01*
X153336776Y-55820212D01*
X153458064Y-56030289D01*
X153458066Y-56030292D01*
X153458067Y-56030293D01*
X153605733Y-56222736D01*
X153605739Y-56222743D01*
X153777256Y-56394260D01*
X153777262Y-56394265D01*
X153969711Y-56541936D01*
X154179788Y-56663224D01*
X154403900Y-56756054D01*
X154638211Y-56818838D01*
X154818586Y-56842584D01*
X154878711Y-56850500D01*
X154878712Y-56850500D01*
X155121289Y-56850500D01*
X155169388Y-56844167D01*
X155361789Y-56818838D01*
X155596100Y-56756054D01*
X155820212Y-56663224D01*
X156030289Y-56541936D01*
X156222738Y-56394265D01*
X156394265Y-56222738D01*
X156541936Y-56030289D01*
X156663224Y-55820212D01*
X156756054Y-55596100D01*
X156818838Y-55361789D01*
X156850500Y-55121288D01*
X223149500Y-55121288D01*
X223181161Y-55361785D01*
X223243947Y-55596104D01*
X223336773Y-55820205D01*
X223336776Y-55820212D01*
X223458064Y-56030289D01*
X223458066Y-56030292D01*
X223458067Y-56030293D01*
X223605733Y-56222736D01*
X223605739Y-56222743D01*
X223777256Y-56394260D01*
X223777262Y-56394265D01*
X223969711Y-56541936D01*
X224179788Y-56663224D01*
X224403900Y-56756054D01*
X224638211Y-56818838D01*
X224818586Y-56842584D01*
X224878711Y-56850500D01*
X224878712Y-56850500D01*
X225121289Y-56850500D01*
X225169388Y-56844167D01*
X225361789Y-56818838D01*
X225596100Y-56756054D01*
X225820212Y-56663224D01*
X226030289Y-56541936D01*
X226222738Y-56394265D01*
X226394265Y-56222738D01*
X226541936Y-56030289D01*
X226663224Y-55820212D01*
X226756054Y-55596100D01*
X226818838Y-55361789D01*
X226850500Y-55121288D01*
X226850500Y-54878712D01*
X226818838Y-54638211D01*
X226756054Y-54403900D01*
X226663224Y-54179788D01*
X226541936Y-53969711D01*
X226394265Y-53777262D01*
X226394260Y-53777256D01*
X226222743Y-53605739D01*
X226222736Y-53605733D01*
X226030293Y-53458067D01*
X226030292Y-53458066D01*
X226030289Y-53458064D01*
X225820212Y-53336776D01*
X225820205Y-53336773D01*
X225596104Y-53243947D01*
X225361785Y-53181161D01*
X225121289Y-53149500D01*
X225121288Y-53149500D01*
X224878712Y-53149500D01*
X224878711Y-53149500D01*
X224638214Y-53181161D01*
X224403895Y-53243947D01*
X224179794Y-53336773D01*
X224179785Y-53336777D01*
X223969706Y-53458067D01*
X223777263Y-53605733D01*
X223777256Y-53605739D01*
X223605739Y-53777256D01*
X223605733Y-53777263D01*
X223458067Y-53969706D01*
X223336777Y-54179785D01*
X223336773Y-54179794D01*
X223243947Y-54403895D01*
X223181161Y-54638214D01*
X223149500Y-54878711D01*
X223149500Y-55121288D01*
X156850500Y-55121288D01*
X156850500Y-54878712D01*
X156818838Y-54638211D01*
X156756054Y-54403900D01*
X156663224Y-54179788D01*
X156541936Y-53969711D01*
X156394265Y-53777262D01*
X156394260Y-53777256D01*
X156222743Y-53605739D01*
X156222736Y-53605733D01*
X156030293Y-53458067D01*
X156030292Y-53458066D01*
X156030289Y-53458064D01*
X155820212Y-53336776D01*
X155820205Y-53336773D01*
X155596104Y-53243947D01*
X155361785Y-53181161D01*
X155121289Y-53149500D01*
X155121288Y-53149500D01*
X154878712Y-53149500D01*
X154878711Y-53149500D01*
X154638214Y-53181161D01*
X154403895Y-53243947D01*
X154179794Y-53336773D01*
X154179785Y-53336777D01*
X153969706Y-53458067D01*
X153777263Y-53605733D01*
X153777256Y-53605739D01*
X153605739Y-53777256D01*
X153605733Y-53777263D01*
X153458067Y-53969706D01*
X153336777Y-54179785D01*
X153336773Y-54179794D01*
X153243947Y-54403895D01*
X153181161Y-54638214D01*
X153149500Y-54878711D01*
X153149500Y-55121288D01*
X150500500Y-55121288D01*
X150500500Y-55002706D01*
X150500618Y-54997297D01*
X150503377Y-54934108D01*
X150517386Y-54613226D01*
X150518326Y-54602495D01*
X150568152Y-54224025D01*
X150570025Y-54213405D01*
X150652649Y-53840709D01*
X150655440Y-53830295D01*
X150770230Y-53466227D01*
X150773917Y-53456095D01*
X150920003Y-53103412D01*
X150924561Y-53093638D01*
X151100822Y-52755045D01*
X151106217Y-52745700D01*
X151311325Y-52423744D01*
X151317515Y-52414905D01*
X151549896Y-52112060D01*
X151556834Y-52103791D01*
X151814726Y-51822352D01*
X151822352Y-51814726D01*
X152103791Y-51556834D01*
X152112060Y-51549896D01*
X152414905Y-51317515D01*
X152423744Y-51311325D01*
X152745700Y-51106217D01*
X152755045Y-51100822D01*
X153093638Y-50924561D01*
X153103412Y-50920003D01*
X153456095Y-50773917D01*
X153466227Y-50770230D01*
X153830295Y-50655440D01*
X153840709Y-50652649D01*
X154213405Y-50570025D01*
X154224025Y-50568152D01*
X154602495Y-50518326D01*
X154613226Y-50517386D01*
X154997297Y-50500617D01*
X155002706Y-50500500D01*
X155065892Y-50500500D01*
X224934108Y-50500500D01*
X224997294Y-50500500D01*
X225002702Y-50500617D01*
G37*
%TD.AperFunction*%
%TD*%
M02*
