%TF.GenerationSoftware,KiCad,Pcbnew,8.0.0*%
%TF.CreationDate,2024-07-24T00:08:36-04:00*%
%TF.ProjectId,led_blinky,6c65645f-626c-4696-9e6b-792e6b696361,rev?*%
%TF.SameCoordinates,Original*%
%TF.FileFunction,Legend,Bot*%
%TF.FilePolarity,Positive*%
%FSLAX46Y46*%
G04 Gerber Fmt 4.6, Leading zero omitted, Abs format (unit mm)*
G04 Created by KiCad (PCBNEW 8.0.0) date 2024-07-24 00:08:36*
%MOMM*%
%LPD*%
G01*
G04 APERTURE LIST*
%ADD10C,0.150000*%
%ADD11C,0.120000*%
G04 APERTURE END LIST*
D10*
X217375714Y-56936009D02*
X217232857Y-56983628D01*
X217232857Y-56983628D02*
X217185238Y-57031247D01*
X217185238Y-57031247D02*
X217137619Y-57126485D01*
X217137619Y-57126485D02*
X217137619Y-57269342D01*
X217137619Y-57269342D02*
X217185238Y-57364580D01*
X217185238Y-57364580D02*
X217232857Y-57412200D01*
X217232857Y-57412200D02*
X217328095Y-57459819D01*
X217328095Y-57459819D02*
X217709047Y-57459819D01*
X217709047Y-57459819D02*
X217709047Y-56459819D01*
X217709047Y-56459819D02*
X217375714Y-56459819D01*
X217375714Y-56459819D02*
X217280476Y-56507438D01*
X217280476Y-56507438D02*
X217232857Y-56555057D01*
X217232857Y-56555057D02*
X217185238Y-56650295D01*
X217185238Y-56650295D02*
X217185238Y-56745533D01*
X217185238Y-56745533D02*
X217232857Y-56840771D01*
X217232857Y-56840771D02*
X217280476Y-56888390D01*
X217280476Y-56888390D02*
X217375714Y-56936009D01*
X217375714Y-56936009D02*
X217709047Y-56936009D01*
X216851904Y-56459819D02*
X216280476Y-56459819D01*
X216566190Y-57459819D02*
X216566190Y-56459819D01*
X215423333Y-57459819D02*
X215994761Y-57459819D01*
X215709047Y-57459819D02*
X215709047Y-56459819D01*
X215709047Y-56459819D02*
X215804285Y-56602676D01*
X215804285Y-56602676D02*
X215899523Y-56697914D01*
X215899523Y-56697914D02*
X215994761Y-56745533D01*
X222142857Y-65487200D02*
X219857143Y-65487200D01*
X221000000Y-66630057D02*
X221000000Y-64344342D01*
D11*
%TO.C,BT1*%
X166340000Y-95820000D02*
X166340000Y-58080000D01*
X166340000Y-95820000D02*
X219210000Y-95820000D01*
X166340000Y-58080000D02*
X219210000Y-58080000D01*
X219210000Y-95820000D02*
X219210000Y-58080000D01*
X219590000Y-57700000D02*
X219590000Y-60700000D01*
X216590000Y-57700000D02*
X219590000Y-57700000D01*
%TD*%
M02*
