M48
; DRILL file {KiCad 8.0.0} date 2024-05-08T19:12:48-0400
; FORMAT={-:-/ absolute / metric / decimal}
; #@! TF.CreationDate,2024-05-08T19:12:48-04:00
; #@! TF.GenerationSoftware,Kicad,Pcbnew,8.0.0
; #@! TF.FileFunction,MixedPlating,1,2
FMAT,2
METRIC
; #@! TA.AperFunction,Plated,PTH,ViaDrill
T1C0.400
; #@! TA.AperFunction,Plated,PTH,ComponentDrill
T2C1.000
; #@! TA.AperFunction,Plated,PTH,ComponentDrill
T3C1.200
; #@! TA.AperFunction,Plated,PTH,ComponentDrill
T4C1.320
; #@! TA.AperFunction,Plated,PTH,ComponentDrill
T5C1.600
; #@! TA.AperFunction,NonPlated,NPTH,ComponentDrill
T6C1.700
; #@! TA.AperFunction,NonPlated,NPTH,ComponentDrill
T7C3.200
%
G90
G05
T1
X102.5Y-60.0
X102.5Y-67.5
X102.5Y-80.0
X102.5Y-95.0
X102.5Y-107.5
X102.5Y-115.0
X104.6Y-97.6
X105.0Y-122.5
X105.0Y-130.0
X107.5Y-60.0
X107.5Y-75.0
X107.5Y-80.0
X110.0Y-52.5
X110.0Y-95.0
X110.0Y-122.5
X110.0Y-130.0
X112.5Y-60.0
X112.5Y-67.5
X112.5Y-75.0
X112.5Y-80.0
X112.5Y-87.5
X112.5Y-100.0
X112.5Y-137.5
X112.5Y-145.0
X112.5Y-147.5
X114.2Y-102.8
X115.0Y-52.5
X115.6Y-131.2
X116.2Y-96.0
X117.5Y-67.5
X117.5Y-100.0
X117.5Y-107.5
X117.5Y-137.5
X119.6Y-116.0
X120.0Y-52.5
X120.0Y-60.0
X120.0Y-145.0
X121.0Y-109.8
X122.5Y-67.5
X122.5Y-80.0
X123.8Y-94.2
X125.0Y-52.5
X127.0Y-89.6
X129.8Y-86.4
X130.0Y-67.5
X130.4Y-97.6
X132.5Y-80.0
X132.5Y-130.0
X132.5Y-137.5
X135.0Y-100.0
X135.0Y-107.5
X137.5Y-52.5
X137.5Y-75.0
X137.5Y-80.0
X137.5Y-130.0
X137.5Y-145.0
X137.5Y-147.5
X138.75Y-57.5
X138.75Y-111.75
X139.0Y-67.75
X140.0Y-95.0
X142.5Y-52.5
X142.5Y-75.0
X142.5Y-100.0
X142.5Y-107.5
X142.5Y-122.5
X145.0Y-67.5
X145.0Y-145.0
X145.0Y-147.5
X146.4Y-81.2
X147.5Y-52.5
X147.5Y-60.0
X148.5Y-109.75
X149.0Y-89.25
X150.0Y-67.5
X150.0Y-122.5
X151.25Y-109.75
X151.75Y-89.25
X155.4Y-132.6
X157.5Y-55.0
X157.5Y-57.5
X157.5Y-60.0
X157.5Y-62.5
X157.5Y-85.0
X157.5Y-87.5
X157.5Y-90.0
X157.5Y-92.5
X157.5Y-107.5
X157.5Y-110.0
X157.5Y-112.5
X157.5Y-115.0
X157.5Y-137.5
X157.5Y-140.0
X157.5Y-142.5
X157.5Y-145.0
X160.0Y-55.0
X160.0Y-57.5
X160.0Y-60.0
X160.0Y-62.5
X160.0Y-85.0
X160.0Y-87.5
X160.0Y-90.0
X160.0Y-92.5
X160.0Y-107.5
X160.0Y-110.0
X160.0Y-112.5
X160.0Y-115.0
X160.0Y-137.5
X160.0Y-140.0
X160.0Y-142.5
X160.0Y-145.0
X160.5Y-120.0
X160.8Y-71.8
X160.8Y-80.0
X161.2Y-132.6
X162.5Y-55.0
X162.5Y-57.5
X162.5Y-60.0
X162.5Y-62.5
X162.5Y-85.0
X162.5Y-87.5
X162.5Y-90.0
X162.5Y-92.5
X162.5Y-107.5
X162.5Y-110.0
X162.5Y-112.5
X162.5Y-115.0
X162.5Y-137.5
X162.5Y-140.0
X162.5Y-142.5
X162.5Y-145.0
X165.0Y-55.0
X165.0Y-57.5
X165.0Y-60.0
X165.0Y-62.5
X165.0Y-85.0
X165.0Y-87.5
X165.0Y-90.0
X165.0Y-92.5
X165.0Y-107.5
X165.0Y-110.0
X165.0Y-112.5
X165.0Y-115.0
X165.0Y-137.5
X165.0Y-140.0
X165.0Y-142.5
X165.0Y-145.0
X166.5Y-120.0
X167.8Y-133.2
X170.0Y-122.5
X170.25Y-110.75
X170.5Y-89.25
X172.25Y-89.25
X172.5Y-52.5
X173.25Y-109.0
X173.6Y-68.0
X174.2Y-134.6
X175.5Y-91.75
X175.75Y-106.25
X177.0Y-94.5
X177.0Y-97.25
X177.0Y-100.5
X177.0Y-103.5
X177.5Y-52.5
X177.5Y-60.0
X177.5Y-137.5
X177.5Y-147.5
X182.5Y-52.5
X182.5Y-67.5
X182.5Y-75.0
X182.5Y-80.0
X182.5Y-95.0
X182.5Y-100.0
X182.5Y-107.5
X182.5Y-122.5
X182.5Y-130.0
X187.5Y-52.5
X187.5Y-75.0
X187.5Y-95.0
X187.5Y-100.0
X187.5Y-107.5
X187.5Y-137.5
X190.0Y-145.0
X190.0Y-147.5
X192.5Y-60.0
X192.5Y-75.0
X195.0Y-87.5
X197.5Y-60.0
X197.5Y-67.5
X197.5Y-75.0
X197.5Y-80.0
X197.5Y-87.5
X197.5Y-95.0
X197.5Y-100.0
X197.5Y-107.5
X197.5Y-112.5
X197.5Y-122.5
X197.5Y-130.0
X197.5Y-137.5
T2
X103.0Y-75.0
X109.6Y-142.2
X117.4Y-128.0
X118.2Y-142.2
X121.0Y-69.75
X131.4Y-112.2
X134.4Y-122.0
X137.0Y-97.25
X141.25Y-78.25
X182.75Y-112.25
X183.5Y-89.5
T3
X106.662Y-102.0
X106.662Y-104.5
X106.662Y-107.0
X108.5Y-120.0
X109.162Y-102.0
X109.162Y-104.5
X109.162Y-107.0
X111.75Y-124.0
X113.0Y-116.0
T4
X107.5Y-62.765
X107.5Y-67.765
X192.75Y-91.74
X192.75Y-96.74
X192.75Y-101.74
X192.75Y-106.74
T5
X117.3Y-61.2
X122.0Y-58.2
X122.0Y-64.2
T7
X105.0Y-55.0
X105.0Y-145.0
X195.0Y-55.0
X195.0Y-145.0
T2
G00X105.7Y-135.35
M15
G01X105.7Y-134.35
M16
G05
G00X108.1Y-133.35
M15
G01X108.1Y-132.35
M16
G05
G00X113.6Y-133.35
M15
G01X113.6Y-132.35
M16
G05
T6
G00X108.25Y-112.75
M15
G01X109.75Y-112.75
M16
G05
G00X108.25Y-127.25
M15
G01X109.75Y-127.25
M16
G05
M30
