%TF.GenerationSoftware,KiCad,Pcbnew,8.0.0*%
%TF.CreationDate,2024-05-08T19:12:33-04:00*%
%TF.ProjectId,Basic Stereo Amp v2,42617369-6320-4537-9465-72656f20416d,rev?*%
%TF.SameCoordinates,Original*%
%TF.FileFunction,Soldermask,Top*%
%TF.FilePolarity,Negative*%
%FSLAX46Y46*%
G04 Gerber Fmt 4.6, Leading zero omitted, Abs format (unit mm)*
G04 Created by KiCad (PCBNEW 8.0.0) date 2024-05-08 19:12:33*
%MOMM*%
%LPD*%
G01*
G04 APERTURE LIST*
G04 Aperture macros list*
%AMRoundRect*
0 Rectangle with rounded corners*
0 $1 Rounding radius*
0 $2 $3 $4 $5 $6 $7 $8 $9 X,Y pos of 4 corners*
0 Add a 4 corners polygon primitive as box body*
4,1,4,$2,$3,$4,$5,$6,$7,$8,$9,$2,$3,0*
0 Add four circle primitives for the rounded corners*
1,1,$1+$1,$2,$3*
1,1,$1+$1,$4,$5*
1,1,$1+$1,$6,$7*
1,1,$1+$1,$8,$9*
0 Add four rect primitives between the rounded corners*
20,1,$1+$1,$2,$3,$4,$5,0*
20,1,$1+$1,$4,$5,$6,$7,0*
20,1,$1+$1,$6,$7,$8,$9,0*
20,1,$1+$1,$8,$9,$2,$3,0*%
G04 Aperture macros list end*
%ADD10RoundRect,0.250000X0.400000X0.625000X-0.400000X0.625000X-0.400000X-0.625000X0.400000X-0.625000X0*%
%ADD11RoundRect,0.249998X-4.550002X3.650002X-4.550002X-3.650002X4.550002X-3.650002X4.550002X3.650002X0*%
%ADD12RoundRect,0.249999X0.450001X1.425001X-0.450001X1.425001X-0.450001X-1.425001X0.450001X-1.425001X0*%
%ADD13C,2.000000*%
%ADD14RoundRect,0.250000X0.350000X-0.850000X0.350000X0.850000X-0.350000X0.850000X-0.350000X-0.850000X0*%
%ADD15RoundRect,0.249997X2.650003X-2.950003X2.650003X2.950003X-2.650003X2.950003X-2.650003X-2.950003X0*%
%ADD16O,1.800000X2.800000*%
%ADD17RoundRect,0.250000X-0.400000X-0.625000X0.400000X-0.625000X0.400000X0.625000X-0.400000X0.625000X0*%
%ADD18C,3.200000*%
%ADD19RoundRect,0.250000X-1.412500X-0.550000X1.412500X-0.550000X1.412500X0.550000X-1.412500X0.550000X0*%
%ADD20RoundRect,0.250000X0.300000X-2.050000X0.300000X2.050000X-0.300000X2.050000X-0.300000X-2.050000X0*%
%ADD21RoundRect,0.250002X5.149998X-4.449998X5.149998X4.449998X-5.149998X4.449998X-5.149998X-4.449998X0*%
%ADD22RoundRect,0.150000X-0.150000X0.825000X-0.150000X-0.825000X0.150000X-0.825000X0.150000X0.825000X0*%
%ADD23O,3.200000X1.700000*%
%ADD24C,2.200000*%
%ADD25RoundRect,0.225000X-0.225000X-0.375000X0.225000X-0.375000X0.225000X0.375000X-0.225000X0.375000X0*%
%ADD26RoundRect,0.225000X0.225000X0.375000X-0.225000X0.375000X-0.225000X-0.375000X0.225000X-0.375000X0*%
%ADD27R,1.850000X13.700000*%
%ADD28RoundRect,0.250000X0.412500X0.650000X-0.412500X0.650000X-0.412500X-0.650000X0.412500X-0.650000X0*%
%ADD29RoundRect,0.250000X-0.300000X2.050000X-0.300000X-2.050000X0.300000X-2.050000X0.300000X2.050000X0*%
%ADD30RoundRect,0.250002X-5.149998X4.449998X-5.149998X-4.449998X5.149998X-4.449998X5.149998X4.449998X0*%
%ADD31RoundRect,0.250000X-0.650000X0.412500X-0.650000X-0.412500X0.650000X-0.412500X0.650000X0.412500X0*%
%ADD32RoundRect,0.250000X-0.412500X-0.650000X0.412500X-0.650000X0.412500X0.650000X-0.412500X0.650000X0*%
%ADD33RoundRect,0.249998X4.550002X-3.650002X4.550002X3.650002X-4.550002X3.650002X-4.550002X-3.650002X0*%
%ADD34RoundRect,0.249999X-0.450001X-1.425001X0.450001X-1.425001X0.450001X1.425001X-0.450001X1.425001X0*%
%ADD35R,3.960000X1.980000*%
%ADD36O,3.960000X1.980000*%
%ADD37RoundRect,0.150000X-0.825000X-0.150000X0.825000X-0.150000X0.825000X0.150000X-0.825000X0.150000X0*%
%ADD38RoundRect,0.250001X0.462499X0.624999X-0.462499X0.624999X-0.462499X-0.624999X0.462499X-0.624999X0*%
%ADD39R,2.600000X2.600000*%
%ADD40C,2.600000*%
%ADD41RoundRect,0.249998X3.650002X4.550002X-3.650002X4.550002X-3.650002X-4.550002X3.650002X-4.550002X0*%
%ADD42RoundRect,0.250000X1.250000X0.550000X-1.250000X0.550000X-1.250000X-0.550000X1.250000X-0.550000X0*%
G04 APERTURE END LIST*
D10*
%TO.C,R7*%
X130387500Y-103637500D03*
X127287500Y-103637500D03*
%TD*%
D11*
%TO.C,C9*%
X190250000Y-69500000D03*
X190250000Y-82000000D03*
%TD*%
D12*
%TO.C,R18*%
X187800000Y-55750000D03*
X181700000Y-55750000D03*
%TD*%
D13*
%TO.C,TP11*%
X103000000Y-75000000D03*
%TD*%
D10*
%TO.C,R5*%
X123987500Y-125875000D03*
X120887500Y-125875000D03*
%TD*%
D14*
%TO.C,Q5*%
X129722500Y-60700000D03*
D15*
X132002500Y-54400000D03*
D14*
X134282500Y-60700000D03*
%TD*%
D10*
%TO.C,R3*%
X124187500Y-99675000D03*
X121087500Y-99675000D03*
%TD*%
D13*
%TO.C,TP6*%
X141250000Y-78250000D03*
%TD*%
D16*
%TO.C,J4*%
X113600000Y-132850000D03*
X105700000Y-134850000D03*
X108100000Y-132850000D03*
%TD*%
D17*
%TO.C,R4*%
X121087500Y-103875000D03*
X124187500Y-103875000D03*
%TD*%
%TO.C,R10*%
X128300000Y-147000000D03*
X131400000Y-147000000D03*
%TD*%
D18*
%TO.C,H4*%
X195000000Y-145000000D03*
%TD*%
D13*
%TO.C,TP10*%
X121000000Y-69750000D03*
%TD*%
D19*
%TO.C,C7*%
X138712500Y-113750000D03*
X143787500Y-113750000D03*
%TD*%
D20*
%TO.C,Q4*%
X158420000Y-120000000D03*
D21*
X160960000Y-110850000D03*
D20*
X163500000Y-120000000D03*
%TD*%
D22*
%TO.C,U2*%
X127742500Y-112362500D03*
X126472500Y-112362500D03*
X125202500Y-112362500D03*
X123932500Y-112362500D03*
X123932500Y-117312500D03*
X125202500Y-117312500D03*
X126472500Y-117312500D03*
X127742500Y-117312500D03*
%TD*%
D23*
%TO.C,J1*%
X109000000Y-127250000D03*
X109000000Y-112750000D03*
D24*
X113000000Y-116000000D03*
X111750000Y-124000000D03*
X108500000Y-120000000D03*
%TD*%
D25*
%TO.C,D2*%
X175400000Y-72000000D03*
X178700000Y-72000000D03*
%TD*%
D17*
%TO.C,R1*%
X122250000Y-143450000D03*
X125350000Y-143450000D03*
%TD*%
D13*
%TO.C,TP5*%
X131400000Y-112200000D03*
%TD*%
D17*
%TO.C,R11*%
X127287500Y-107837500D03*
X130387500Y-107837500D03*
%TD*%
D13*
%TO.C,TP8*%
X183500000Y-89500000D03*
%TD*%
D19*
%TO.C,C5*%
X138712500Y-86250000D03*
X143787500Y-86250000D03*
%TD*%
D13*
%TO.C,TP1*%
X117400000Y-128000000D03*
%TD*%
D26*
%TO.C,D3*%
X177955000Y-123750000D03*
X174655000Y-123750000D03*
%TD*%
D27*
%TO.C,HS4*%
X153910000Y-142000000D03*
X167750000Y-142000000D03*
%TD*%
D28*
%TO.C,C1*%
X130400000Y-99550000D03*
X127275000Y-99550000D03*
%TD*%
D17*
%TO.C,R22*%
X125150000Y-69800000D03*
X128250000Y-69800000D03*
%TD*%
D29*
%TO.C,Q3*%
X163240000Y-132700000D03*
D30*
X160700000Y-141850000D03*
D29*
X158160000Y-132700000D03*
%TD*%
D10*
%TO.C,R2*%
X125400000Y-147000000D03*
X122300000Y-147000000D03*
%TD*%
D31*
%TO.C,C16*%
X127000000Y-77875000D03*
X127000000Y-81000000D03*
%TD*%
D18*
%TO.C,H1*%
X105000000Y-55000000D03*
%TD*%
D25*
%TO.C,D5*%
X125050000Y-74250000D03*
X128350000Y-74250000D03*
%TD*%
D27*
%TO.C,HS2*%
X153920000Y-110500000D03*
X167760000Y-110500000D03*
%TD*%
D19*
%TO.C,C6*%
X138712500Y-61500000D03*
X143787500Y-61500000D03*
%TD*%
D17*
%TO.C,R6*%
X120887500Y-129875000D03*
X123987500Y-129875000D03*
%TD*%
D32*
%TO.C,C11*%
X131875000Y-117275000D03*
X135000000Y-117275000D03*
%TD*%
D33*
%TO.C,C10*%
X190250000Y-130500000D03*
X190250000Y-118000000D03*
%TD*%
D25*
%TO.C,D4*%
X174700000Y-127750000D03*
X178000000Y-127750000D03*
%TD*%
D27*
%TO.C,HS3*%
X154750000Y-58250000D03*
X168590000Y-58250000D03*
%TD*%
D13*
%TO.C,TP4*%
X134400000Y-122000000D03*
%TD*%
D18*
%TO.C,H2*%
X195000000Y-55000000D03*
%TD*%
D34*
%TO.C,R17*%
X181650000Y-61250000D03*
X187750000Y-61250000D03*
%TD*%
D13*
%TO.C,RV1*%
X109162500Y-107000000D03*
X109162500Y-104500000D03*
X109162500Y-102000000D03*
X106662500Y-107000000D03*
X106662500Y-104500000D03*
X106662500Y-102000000D03*
%TD*%
D35*
%TO.C,J3*%
X192750000Y-91740000D03*
D36*
X192750000Y-96740000D03*
X192750000Y-101740000D03*
X192750000Y-106740000D03*
%TD*%
D35*
%TO.C,J2*%
X107500000Y-67765000D03*
D36*
X107500000Y-62765000D03*
%TD*%
D17*
%TO.C,R14*%
X175450000Y-68000000D03*
X178550000Y-68000000D03*
%TD*%
D37*
%TO.C,U1*%
X124400000Y-135440000D03*
X124400000Y-136710000D03*
X124400000Y-137980000D03*
X124400000Y-139250000D03*
X129350000Y-139250000D03*
X129350000Y-137980000D03*
X129350000Y-136710000D03*
X129350000Y-135440000D03*
%TD*%
D20*
%TO.C,Q1*%
X159175000Y-67525000D03*
D21*
X161715000Y-58375000D03*
D20*
X164255000Y-67525000D03*
%TD*%
D17*
%TO.C,R16*%
X174700000Y-131750000D03*
X177800000Y-131750000D03*
%TD*%
D13*
%TO.C,TP3*%
X118200000Y-142200000D03*
%TD*%
%TO.C,TP7*%
X137000000Y-97250000D03*
%TD*%
D34*
%TO.C,R19*%
X180650000Y-140360000D03*
X186750000Y-140360000D03*
%TD*%
D12*
%TO.C,R20*%
X186750000Y-145250000D03*
X180650000Y-145250000D03*
%TD*%
D10*
%TO.C,R9*%
X131400000Y-143500000D03*
X128300000Y-143500000D03*
%TD*%
D27*
%TO.C,HS1*%
X167990000Y-89725000D03*
X154150000Y-89725000D03*
%TD*%
D29*
%TO.C,Q2*%
X163740000Y-80225000D03*
D30*
X161200000Y-89375000D03*
D29*
X158660000Y-80225000D03*
%TD*%
D28*
%TO.C,C4*%
X124000000Y-121875000D03*
X120875000Y-121875000D03*
%TD*%
D38*
%TO.C,D6*%
X134415000Y-69760000D03*
X131440000Y-69760000D03*
%TD*%
D10*
%TO.C,R15*%
X177800000Y-120000000D03*
X174700000Y-120000000D03*
%TD*%
D26*
%TO.C,D1*%
X178650000Y-76000000D03*
X175350000Y-76000000D03*
%TD*%
D28*
%TO.C,C3*%
X124150000Y-107912500D03*
X121025000Y-107912500D03*
%TD*%
D39*
%TO.C,J5*%
X122000000Y-64200000D03*
D40*
X122000000Y-58200000D03*
X117300000Y-61200000D03*
%TD*%
D19*
%TO.C,C8*%
X138712500Y-138250000D03*
X143787500Y-138250000D03*
%TD*%
D18*
%TO.C,H3*%
X105000000Y-145000000D03*
%TD*%
D13*
%TO.C,TP9*%
X182750000Y-112250000D03*
%TD*%
D10*
%TO.C,R13*%
X178550000Y-80250000D03*
X175450000Y-80250000D03*
%TD*%
D17*
%TO.C,R12*%
X127237500Y-121837500D03*
X130337500Y-121837500D03*
%TD*%
D41*
%TO.C,C13*%
X118000000Y-87500000D03*
X105500000Y-87500000D03*
%TD*%
D32*
%TO.C,C12*%
X136237500Y-91600000D03*
X139362500Y-91600000D03*
%TD*%
D42*
%TO.C,C15*%
X121087500Y-74500000D03*
X116687500Y-74500000D03*
%TD*%
D32*
%TO.C,C14*%
X134837500Y-132600000D03*
X137962500Y-132600000D03*
%TD*%
D28*
%TO.C,C2*%
X130400000Y-129837500D03*
X127275000Y-129837500D03*
%TD*%
D10*
%TO.C,R8*%
X130337500Y-125837500D03*
X127237500Y-125837500D03*
%TD*%
D17*
%TO.C,R21*%
X131400000Y-74250000D03*
X134500000Y-74250000D03*
%TD*%
D13*
%TO.C,TP2*%
X109600000Y-142200000D03*
%TD*%
D37*
%TO.C,U3*%
X127075000Y-91575000D03*
X127075000Y-92845000D03*
X127075000Y-94115000D03*
X127075000Y-95385000D03*
X132025000Y-95385000D03*
X132025000Y-94115000D03*
X132025000Y-92845000D03*
X132025000Y-91575000D03*
%TD*%
M02*
