%TF.GenerationSoftware,KiCad,Pcbnew,8.0.5*%
%TF.CreationDate,2024-09-22T23:27:43-04:00*%
%TF.ProjectId,myPowerBoardDesign,6d79506f-7765-4724-926f-617264446573,rev?*%
%TF.SameCoordinates,Original*%
%TF.FileFunction,Legend,Top*%
%TF.FilePolarity,Positive*%
%FSLAX46Y46*%
G04 Gerber Fmt 4.6, Leading zero omitted, Abs format (unit mm)*
G04 Created by KiCad (PCBNEW 8.0.5) date 2024-09-22 23:27:43*
%MOMM*%
%LPD*%
G01*
G04 APERTURE LIST*
%ADD10C,0.150000*%
%ADD11C,0.100000*%
%ADD12C,0.120000*%
G04 APERTURE END LIST*
D10*
X87859580Y-36916666D02*
X87907200Y-36964285D01*
X87907200Y-36964285D02*
X87954819Y-37107142D01*
X87954819Y-37107142D02*
X87954819Y-37202380D01*
X87954819Y-37202380D02*
X87907200Y-37345237D01*
X87907200Y-37345237D02*
X87811961Y-37440475D01*
X87811961Y-37440475D02*
X87716723Y-37488094D01*
X87716723Y-37488094D02*
X87526247Y-37535713D01*
X87526247Y-37535713D02*
X87383390Y-37535713D01*
X87383390Y-37535713D02*
X87192914Y-37488094D01*
X87192914Y-37488094D02*
X87097676Y-37440475D01*
X87097676Y-37440475D02*
X87002438Y-37345237D01*
X87002438Y-37345237D02*
X86954819Y-37202380D01*
X86954819Y-37202380D02*
X86954819Y-37107142D01*
X86954819Y-37107142D02*
X87002438Y-36964285D01*
X87002438Y-36964285D02*
X87050057Y-36916666D01*
X86954819Y-36011904D02*
X86954819Y-36488094D01*
X86954819Y-36488094D02*
X87431009Y-36535713D01*
X87431009Y-36535713D02*
X87383390Y-36488094D01*
X87383390Y-36488094D02*
X87335771Y-36392856D01*
X87335771Y-36392856D02*
X87335771Y-36154761D01*
X87335771Y-36154761D02*
X87383390Y-36059523D01*
X87383390Y-36059523D02*
X87431009Y-36011904D01*
X87431009Y-36011904D02*
X87526247Y-35964285D01*
X87526247Y-35964285D02*
X87764342Y-35964285D01*
X87764342Y-35964285D02*
X87859580Y-36011904D01*
X87859580Y-36011904D02*
X87907200Y-36059523D01*
X87907200Y-36059523D02*
X87954819Y-36154761D01*
X87954819Y-36154761D02*
X87954819Y-36392856D01*
X87954819Y-36392856D02*
X87907200Y-36488094D01*
X87907200Y-36488094D02*
X87859580Y-36535713D01*
X60759580Y-58216666D02*
X60807200Y-58264285D01*
X60807200Y-58264285D02*
X60854819Y-58407142D01*
X60854819Y-58407142D02*
X60854819Y-58502380D01*
X60854819Y-58502380D02*
X60807200Y-58645237D01*
X60807200Y-58645237D02*
X60711961Y-58740475D01*
X60711961Y-58740475D02*
X60616723Y-58788094D01*
X60616723Y-58788094D02*
X60426247Y-58835713D01*
X60426247Y-58835713D02*
X60283390Y-58835713D01*
X60283390Y-58835713D02*
X60092914Y-58788094D01*
X60092914Y-58788094D02*
X59997676Y-58740475D01*
X59997676Y-58740475D02*
X59902438Y-58645237D01*
X59902438Y-58645237D02*
X59854819Y-58502380D01*
X59854819Y-58502380D02*
X59854819Y-58407142D01*
X59854819Y-58407142D02*
X59902438Y-58264285D01*
X59902438Y-58264285D02*
X59950057Y-58216666D01*
X60854819Y-57264285D02*
X60854819Y-57835713D01*
X60854819Y-57549999D02*
X59854819Y-57549999D01*
X59854819Y-57549999D02*
X59997676Y-57645237D01*
X59997676Y-57645237D02*
X60092914Y-57740475D01*
X60092914Y-57740475D02*
X60140533Y-57835713D01*
X61254819Y-40166666D02*
X61254819Y-40642856D01*
X61254819Y-40642856D02*
X60254819Y-40642856D01*
X61254819Y-39309523D02*
X61254819Y-39880951D01*
X61254819Y-39595237D02*
X60254819Y-39595237D01*
X60254819Y-39595237D02*
X60397676Y-39690475D01*
X60397676Y-39690475D02*
X60492914Y-39785713D01*
X60492914Y-39785713D02*
X60540533Y-39880951D01*
X67432319Y-50760594D02*
X66432319Y-50760594D01*
X66432319Y-50760594D02*
X66432319Y-50522499D01*
X66432319Y-50522499D02*
X66479938Y-50379642D01*
X66479938Y-50379642D02*
X66575176Y-50284404D01*
X66575176Y-50284404D02*
X66670414Y-50236785D01*
X66670414Y-50236785D02*
X66860890Y-50189166D01*
X66860890Y-50189166D02*
X67003747Y-50189166D01*
X67003747Y-50189166D02*
X67194223Y-50236785D01*
X67194223Y-50236785D02*
X67289461Y-50284404D01*
X67289461Y-50284404D02*
X67384700Y-50379642D01*
X67384700Y-50379642D02*
X67432319Y-50522499D01*
X67432319Y-50522499D02*
X67432319Y-50760594D01*
X67432319Y-49236785D02*
X67432319Y-49808213D01*
X67432319Y-49522499D02*
X66432319Y-49522499D01*
X66432319Y-49522499D02*
X66575176Y-49617737D01*
X66575176Y-49617737D02*
X66670414Y-49712975D01*
X66670414Y-49712975D02*
X66718033Y-49808213D01*
X64333333Y-58459580D02*
X64285714Y-58507200D01*
X64285714Y-58507200D02*
X64142857Y-58554819D01*
X64142857Y-58554819D02*
X64047619Y-58554819D01*
X64047619Y-58554819D02*
X63904762Y-58507200D01*
X63904762Y-58507200D02*
X63809524Y-58411961D01*
X63809524Y-58411961D02*
X63761905Y-58316723D01*
X63761905Y-58316723D02*
X63714286Y-58126247D01*
X63714286Y-58126247D02*
X63714286Y-57983390D01*
X63714286Y-57983390D02*
X63761905Y-57792914D01*
X63761905Y-57792914D02*
X63809524Y-57697676D01*
X63809524Y-57697676D02*
X63904762Y-57602438D01*
X63904762Y-57602438D02*
X64047619Y-57554819D01*
X64047619Y-57554819D02*
X64142857Y-57554819D01*
X64142857Y-57554819D02*
X64285714Y-57602438D01*
X64285714Y-57602438D02*
X64333333Y-57650057D01*
X64714286Y-57650057D02*
X64761905Y-57602438D01*
X64761905Y-57602438D02*
X64857143Y-57554819D01*
X64857143Y-57554819D02*
X65095238Y-57554819D01*
X65095238Y-57554819D02*
X65190476Y-57602438D01*
X65190476Y-57602438D02*
X65238095Y-57650057D01*
X65238095Y-57650057D02*
X65285714Y-57745295D01*
X65285714Y-57745295D02*
X65285714Y-57840533D01*
X65285714Y-57840533D02*
X65238095Y-57983390D01*
X65238095Y-57983390D02*
X64666667Y-58554819D01*
X64666667Y-58554819D02*
X65285714Y-58554819D01*
X83109580Y-56666666D02*
X83157200Y-56714285D01*
X83157200Y-56714285D02*
X83204819Y-56857142D01*
X83204819Y-56857142D02*
X83204819Y-56952380D01*
X83204819Y-56952380D02*
X83157200Y-57095237D01*
X83157200Y-57095237D02*
X83061961Y-57190475D01*
X83061961Y-57190475D02*
X82966723Y-57238094D01*
X82966723Y-57238094D02*
X82776247Y-57285713D01*
X82776247Y-57285713D02*
X82633390Y-57285713D01*
X82633390Y-57285713D02*
X82442914Y-57238094D01*
X82442914Y-57238094D02*
X82347676Y-57190475D01*
X82347676Y-57190475D02*
X82252438Y-57095237D01*
X82252438Y-57095237D02*
X82204819Y-56952380D01*
X82204819Y-56952380D02*
X82204819Y-56857142D01*
X82204819Y-56857142D02*
X82252438Y-56714285D01*
X82252438Y-56714285D02*
X82300057Y-56666666D01*
X82204819Y-56333332D02*
X82204819Y-55666666D01*
X82204819Y-55666666D02*
X83204819Y-56095237D01*
D11*
X51216666Y-60252419D02*
X51216666Y-60966704D01*
X51216666Y-60966704D02*
X51169047Y-61109561D01*
X51169047Y-61109561D02*
X51073809Y-61204800D01*
X51073809Y-61204800D02*
X50930952Y-61252419D01*
X50930952Y-61252419D02*
X50835714Y-61252419D01*
X52216666Y-61252419D02*
X51645238Y-61252419D01*
X51930952Y-61252419D02*
X51930952Y-60252419D01*
X51930952Y-60252419D02*
X51835714Y-60395276D01*
X51835714Y-60395276D02*
X51740476Y-60490514D01*
X51740476Y-60490514D02*
X51645238Y-60538133D01*
D10*
X87504819Y-45061904D02*
X88314342Y-45061904D01*
X88314342Y-45061904D02*
X88409580Y-45014285D01*
X88409580Y-45014285D02*
X88457200Y-44966666D01*
X88457200Y-44966666D02*
X88504819Y-44871428D01*
X88504819Y-44871428D02*
X88504819Y-44680952D01*
X88504819Y-44680952D02*
X88457200Y-44585714D01*
X88457200Y-44585714D02*
X88409580Y-44538095D01*
X88409580Y-44538095D02*
X88314342Y-44490476D01*
X88314342Y-44490476D02*
X87504819Y-44490476D01*
X88504819Y-43490476D02*
X88504819Y-44061904D01*
X88504819Y-43776190D02*
X87504819Y-43776190D01*
X87504819Y-43776190D02*
X87647676Y-43871428D01*
X87647676Y-43871428D02*
X87742914Y-43966666D01*
X87742914Y-43966666D02*
X87790533Y-44061904D01*
X80659580Y-52466666D02*
X80707200Y-52514285D01*
X80707200Y-52514285D02*
X80754819Y-52657142D01*
X80754819Y-52657142D02*
X80754819Y-52752380D01*
X80754819Y-52752380D02*
X80707200Y-52895237D01*
X80707200Y-52895237D02*
X80611961Y-52990475D01*
X80611961Y-52990475D02*
X80516723Y-53038094D01*
X80516723Y-53038094D02*
X80326247Y-53085713D01*
X80326247Y-53085713D02*
X80183390Y-53085713D01*
X80183390Y-53085713D02*
X79992914Y-53038094D01*
X79992914Y-53038094D02*
X79897676Y-52990475D01*
X79897676Y-52990475D02*
X79802438Y-52895237D01*
X79802438Y-52895237D02*
X79754819Y-52752380D01*
X79754819Y-52752380D02*
X79754819Y-52657142D01*
X79754819Y-52657142D02*
X79802438Y-52514285D01*
X79802438Y-52514285D02*
X79850057Y-52466666D01*
X79754819Y-51609523D02*
X79754819Y-51799999D01*
X79754819Y-51799999D02*
X79802438Y-51895237D01*
X79802438Y-51895237D02*
X79850057Y-51942856D01*
X79850057Y-51942856D02*
X79992914Y-52038094D01*
X79992914Y-52038094D02*
X80183390Y-52085713D01*
X80183390Y-52085713D02*
X80564342Y-52085713D01*
X80564342Y-52085713D02*
X80659580Y-52038094D01*
X80659580Y-52038094D02*
X80707200Y-51990475D01*
X80707200Y-51990475D02*
X80754819Y-51895237D01*
X80754819Y-51895237D02*
X80754819Y-51704761D01*
X80754819Y-51704761D02*
X80707200Y-51609523D01*
X80707200Y-51609523D02*
X80659580Y-51561904D01*
X80659580Y-51561904D02*
X80564342Y-51514285D01*
X80564342Y-51514285D02*
X80326247Y-51514285D01*
X80326247Y-51514285D02*
X80231009Y-51561904D01*
X80231009Y-51561904D02*
X80183390Y-51609523D01*
X80183390Y-51609523D02*
X80135771Y-51704761D01*
X80135771Y-51704761D02*
X80135771Y-51895237D01*
X80135771Y-51895237D02*
X80183390Y-51990475D01*
X80183390Y-51990475D02*
X80231009Y-52038094D01*
X80231009Y-52038094D02*
X80326247Y-52085713D01*
X50454819Y-43561904D02*
X51264342Y-43561904D01*
X51264342Y-43561904D02*
X51359580Y-43514285D01*
X51359580Y-43514285D02*
X51407200Y-43466666D01*
X51407200Y-43466666D02*
X51454819Y-43371428D01*
X51454819Y-43371428D02*
X51454819Y-43180952D01*
X51454819Y-43180952D02*
X51407200Y-43085714D01*
X51407200Y-43085714D02*
X51359580Y-43038095D01*
X51359580Y-43038095D02*
X51264342Y-42990476D01*
X51264342Y-42990476D02*
X50454819Y-42990476D01*
X50550057Y-42561904D02*
X50502438Y-42514285D01*
X50502438Y-42514285D02*
X50454819Y-42419047D01*
X50454819Y-42419047D02*
X50454819Y-42180952D01*
X50454819Y-42180952D02*
X50502438Y-42085714D01*
X50502438Y-42085714D02*
X50550057Y-42038095D01*
X50550057Y-42038095D02*
X50645295Y-41990476D01*
X50645295Y-41990476D02*
X50740533Y-41990476D01*
X50740533Y-41990476D02*
X50883390Y-42038095D01*
X50883390Y-42038095D02*
X51454819Y-42609523D01*
X51454819Y-42609523D02*
X51454819Y-41990476D01*
D12*
%TO.C,C5*%
X88590000Y-38788748D02*
X88590000Y-40211252D01*
X90410000Y-38788748D02*
X90410000Y-40211252D01*
%TO.C,C1*%
X52040000Y-49304437D02*
X52040000Y-56960000D01*
X52040000Y-56960000D02*
X54890000Y-56960000D01*
X53104437Y-48240000D02*
X52040000Y-49304437D01*
X53104437Y-48240000D02*
X54890000Y-48240000D01*
X58910000Y-47000000D02*
X58910000Y-48000000D01*
X59410000Y-47500000D02*
X58410000Y-47500000D01*
X59695563Y-48240000D02*
X57910000Y-48240000D01*
X59695563Y-48240000D02*
X60760000Y-49304437D01*
X60760000Y-49304437D02*
X60760000Y-56960000D01*
X60760000Y-56960000D02*
X57910000Y-56960000D01*
%TO.C,L1*%
X61640000Y-34690000D02*
X61640000Y-36190000D01*
X61640000Y-34690000D02*
X63140000Y-34690000D01*
X61640000Y-45310000D02*
X61640000Y-43810000D01*
X61640000Y-45310000D02*
X63140000Y-45310000D01*
X72360000Y-34690000D02*
X70860000Y-34690000D01*
X72360000Y-34690000D02*
X72360000Y-36190000D01*
X72360000Y-45310000D02*
X70860000Y-45310000D01*
X72360000Y-45310000D02*
X72360000Y-43810000D01*
%TO.C,D1*%
X61827500Y-46362500D02*
X61827500Y-52172500D01*
X66127500Y-46362500D02*
X61827500Y-46362500D01*
X66127500Y-46362500D02*
X66127500Y-52172500D01*
%TO.C,C2*%
X65211252Y-55340000D02*
X63788748Y-55340000D01*
X65211252Y-57160000D02*
X63788748Y-57160000D01*
%TO.C,C7*%
X83090000Y-53461252D02*
X83090000Y-52038748D01*
X84910000Y-53461252D02*
X84910000Y-52038748D01*
%TO.C,U1*%
X80140000Y-42450000D02*
X80140000Y-46210000D01*
X80140000Y-46210000D02*
X81400000Y-46210000D01*
X86960000Y-42450000D02*
X86960000Y-46210000D01*
X86960000Y-46210000D02*
X85700000Y-46210000D01*
X87190000Y-41410000D02*
X86860000Y-41170000D01*
X87190000Y-40930000D01*
X87190000Y-41410000D01*
G36*
X87190000Y-41410000D02*
G01*
X86860000Y-41170000D01*
X87190000Y-40930000D01*
X87190000Y-41410000D01*
G37*
%TO.C,C6*%
X70640000Y-49004437D02*
X70640000Y-56660000D01*
X70640000Y-56660000D02*
X73490000Y-56660000D01*
X71704437Y-47940000D02*
X70640000Y-49004437D01*
X71704437Y-47940000D02*
X73490000Y-47940000D01*
X77510000Y-46700000D02*
X77510000Y-47700000D01*
X78010000Y-47200000D02*
X77010000Y-47200000D01*
X78295563Y-47940000D02*
X76510000Y-47940000D01*
X78295563Y-47940000D02*
X79360000Y-49004437D01*
X79360000Y-49004437D02*
X79360000Y-56660000D01*
X79360000Y-56660000D02*
X76510000Y-56660000D01*
%TO.C,U2*%
X52440000Y-40200000D02*
X52440000Y-38250000D01*
X52440000Y-40200000D02*
X52440000Y-42150000D01*
X57560000Y-40200000D02*
X57560000Y-38250000D01*
X57560000Y-40200000D02*
X57560000Y-42150000D01*
X52535000Y-42900000D02*
X52205000Y-43140000D01*
X52205000Y-42660000D01*
X52535000Y-42900000D01*
G36*
X52535000Y-42900000D02*
G01*
X52205000Y-43140000D01*
X52205000Y-42660000D01*
X52535000Y-42900000D01*
G37*
%TD*%
M02*
