%TF.GenerationSoftware,KiCad,Pcbnew,8.0.0*%
%TF.CreationDate,2024-04-03T20:27:00-04:00*%
%TF.ProjectId,myPowerBoardDesign,6d79506f-7765-4724-926f-617264446573,rev?*%
%TF.SameCoordinates,Original*%
%TF.FileFunction,Legend,Top*%
%TF.FilePolarity,Positive*%
%FSLAX46Y46*%
G04 Gerber Fmt 4.6, Leading zero omitted, Abs format (unit mm)*
G04 Created by KiCad (PCBNEW 8.0.0) date 2024-04-03 20:27:00*
%MOMM*%
%LPD*%
G01*
G04 APERTURE LIST*
%ADD10C,0.150000*%
%ADD11C,0.100000*%
%ADD12C,0.120000*%
G04 APERTURE END LIST*
D10*
X83009580Y-52966666D02*
X83057200Y-53014285D01*
X83057200Y-53014285D02*
X83104819Y-53157142D01*
X83104819Y-53157142D02*
X83104819Y-53252380D01*
X83104819Y-53252380D02*
X83057200Y-53395237D01*
X83057200Y-53395237D02*
X82961961Y-53490475D01*
X82961961Y-53490475D02*
X82866723Y-53538094D01*
X82866723Y-53538094D02*
X82676247Y-53585713D01*
X82676247Y-53585713D02*
X82533390Y-53585713D01*
X82533390Y-53585713D02*
X82342914Y-53538094D01*
X82342914Y-53538094D02*
X82247676Y-53490475D01*
X82247676Y-53490475D02*
X82152438Y-53395237D01*
X82152438Y-53395237D02*
X82104819Y-53252380D01*
X82104819Y-53252380D02*
X82104819Y-53157142D01*
X82104819Y-53157142D02*
X82152438Y-53014285D01*
X82152438Y-53014285D02*
X82200057Y-52966666D01*
X82104819Y-52633332D02*
X82104819Y-51966666D01*
X82104819Y-51966666D02*
X83104819Y-52395237D01*
X68109580Y-57066666D02*
X68157200Y-57114285D01*
X68157200Y-57114285D02*
X68204819Y-57257142D01*
X68204819Y-57257142D02*
X68204819Y-57352380D01*
X68204819Y-57352380D02*
X68157200Y-57495237D01*
X68157200Y-57495237D02*
X68061961Y-57590475D01*
X68061961Y-57590475D02*
X67966723Y-57638094D01*
X67966723Y-57638094D02*
X67776247Y-57685713D01*
X67776247Y-57685713D02*
X67633390Y-57685713D01*
X67633390Y-57685713D02*
X67442914Y-57638094D01*
X67442914Y-57638094D02*
X67347676Y-57590475D01*
X67347676Y-57590475D02*
X67252438Y-57495237D01*
X67252438Y-57495237D02*
X67204819Y-57352380D01*
X67204819Y-57352380D02*
X67204819Y-57257142D01*
X67204819Y-57257142D02*
X67252438Y-57114285D01*
X67252438Y-57114285D02*
X67300057Y-57066666D01*
X67300057Y-56685713D02*
X67252438Y-56638094D01*
X67252438Y-56638094D02*
X67204819Y-56542856D01*
X67204819Y-56542856D02*
X67204819Y-56304761D01*
X67204819Y-56304761D02*
X67252438Y-56209523D01*
X67252438Y-56209523D02*
X67300057Y-56161904D01*
X67300057Y-56161904D02*
X67395295Y-56114285D01*
X67395295Y-56114285D02*
X67490533Y-56114285D01*
X67490533Y-56114285D02*
X67633390Y-56161904D01*
X67633390Y-56161904D02*
X68204819Y-56733332D01*
X68204819Y-56733332D02*
X68204819Y-56114285D01*
X60759580Y-58216666D02*
X60807200Y-58264285D01*
X60807200Y-58264285D02*
X60854819Y-58407142D01*
X60854819Y-58407142D02*
X60854819Y-58502380D01*
X60854819Y-58502380D02*
X60807200Y-58645237D01*
X60807200Y-58645237D02*
X60711961Y-58740475D01*
X60711961Y-58740475D02*
X60616723Y-58788094D01*
X60616723Y-58788094D02*
X60426247Y-58835713D01*
X60426247Y-58835713D02*
X60283390Y-58835713D01*
X60283390Y-58835713D02*
X60092914Y-58788094D01*
X60092914Y-58788094D02*
X59997676Y-58740475D01*
X59997676Y-58740475D02*
X59902438Y-58645237D01*
X59902438Y-58645237D02*
X59854819Y-58502380D01*
X59854819Y-58502380D02*
X59854819Y-58407142D01*
X59854819Y-58407142D02*
X59902438Y-58264285D01*
X59902438Y-58264285D02*
X59950057Y-58216666D01*
X60854819Y-57264285D02*
X60854819Y-57835713D01*
X60854819Y-57549999D02*
X59854819Y-57549999D01*
X59854819Y-57549999D02*
X59997676Y-57645237D01*
X59997676Y-57645237D02*
X60092914Y-57740475D01*
X60092914Y-57740475D02*
X60140533Y-57835713D01*
X87433334Y-36959579D02*
X87385715Y-37007199D01*
X87385715Y-37007199D02*
X87242858Y-37054818D01*
X87242858Y-37054818D02*
X87147620Y-37054818D01*
X87147620Y-37054818D02*
X87004763Y-37007199D01*
X87004763Y-37007199D02*
X86909525Y-36911960D01*
X86909525Y-36911960D02*
X86861906Y-36816722D01*
X86861906Y-36816722D02*
X86814287Y-36626246D01*
X86814287Y-36626246D02*
X86814287Y-36483389D01*
X86814287Y-36483389D02*
X86861906Y-36292913D01*
X86861906Y-36292913D02*
X86909525Y-36197675D01*
X86909525Y-36197675D02*
X87004763Y-36102437D01*
X87004763Y-36102437D02*
X87147620Y-36054818D01*
X87147620Y-36054818D02*
X87242858Y-36054818D01*
X87242858Y-36054818D02*
X87385715Y-36102437D01*
X87385715Y-36102437D02*
X87433334Y-36150056D01*
X88338096Y-36054818D02*
X87861906Y-36054818D01*
X87861906Y-36054818D02*
X87814287Y-36531008D01*
X87814287Y-36531008D02*
X87861906Y-36483389D01*
X87861906Y-36483389D02*
X87957144Y-36435770D01*
X87957144Y-36435770D02*
X88195239Y-36435770D01*
X88195239Y-36435770D02*
X88290477Y-36483389D01*
X88290477Y-36483389D02*
X88338096Y-36531008D01*
X88338096Y-36531008D02*
X88385715Y-36626246D01*
X88385715Y-36626246D02*
X88385715Y-36864341D01*
X88385715Y-36864341D02*
X88338096Y-36959579D01*
X88338096Y-36959579D02*
X88290477Y-37007199D01*
X88290477Y-37007199D02*
X88195239Y-37054818D01*
X88195239Y-37054818D02*
X87957144Y-37054818D01*
X87957144Y-37054818D02*
X87861906Y-37007199D01*
X87861906Y-37007199D02*
X87814287Y-36959579D01*
X61254819Y-40166666D02*
X61254819Y-40642856D01*
X61254819Y-40642856D02*
X60254819Y-40642856D01*
X61254819Y-39309523D02*
X61254819Y-39880951D01*
X61254819Y-39595237D02*
X60254819Y-39595237D01*
X60254819Y-39595237D02*
X60397676Y-39690475D01*
X60397676Y-39690475D02*
X60492914Y-39785713D01*
X60492914Y-39785713D02*
X60540533Y-39880951D01*
X67454819Y-50538094D02*
X66454819Y-50538094D01*
X66454819Y-50538094D02*
X66454819Y-50299999D01*
X66454819Y-50299999D02*
X66502438Y-50157142D01*
X66502438Y-50157142D02*
X66597676Y-50061904D01*
X66597676Y-50061904D02*
X66692914Y-50014285D01*
X66692914Y-50014285D02*
X66883390Y-49966666D01*
X66883390Y-49966666D02*
X67026247Y-49966666D01*
X67026247Y-49966666D02*
X67216723Y-50014285D01*
X67216723Y-50014285D02*
X67311961Y-50061904D01*
X67311961Y-50061904D02*
X67407200Y-50157142D01*
X67407200Y-50157142D02*
X67454819Y-50299999D01*
X67454819Y-50299999D02*
X67454819Y-50538094D01*
X67454819Y-49014285D02*
X67454819Y-49585713D01*
X67454819Y-49299999D02*
X66454819Y-49299999D01*
X66454819Y-49299999D02*
X66597676Y-49395237D01*
X66597676Y-49395237D02*
X66692914Y-49490475D01*
X66692914Y-49490475D02*
X66740533Y-49585713D01*
D11*
X51216666Y-60252419D02*
X51216666Y-60966704D01*
X51216666Y-60966704D02*
X51169047Y-61109561D01*
X51169047Y-61109561D02*
X51073809Y-61204800D01*
X51073809Y-61204800D02*
X50930952Y-61252419D01*
X50930952Y-61252419D02*
X50835714Y-61252419D01*
X52216666Y-61252419D02*
X51645238Y-61252419D01*
X51930952Y-61252419D02*
X51930952Y-60252419D01*
X51930952Y-60252419D02*
X51835714Y-60395276D01*
X51835714Y-60395276D02*
X51740476Y-60490514D01*
X51740476Y-60490514D02*
X51645238Y-60538133D01*
D10*
X87504819Y-45061904D02*
X88314342Y-45061904D01*
X88314342Y-45061904D02*
X88409580Y-45014285D01*
X88409580Y-45014285D02*
X88457200Y-44966666D01*
X88457200Y-44966666D02*
X88504819Y-44871428D01*
X88504819Y-44871428D02*
X88504819Y-44680952D01*
X88504819Y-44680952D02*
X88457200Y-44585714D01*
X88457200Y-44585714D02*
X88409580Y-44538095D01*
X88409580Y-44538095D02*
X88314342Y-44490476D01*
X88314342Y-44490476D02*
X87504819Y-44490476D01*
X88504819Y-43490476D02*
X88504819Y-44061904D01*
X88504819Y-43776190D02*
X87504819Y-43776190D01*
X87504819Y-43776190D02*
X87647676Y-43871428D01*
X87647676Y-43871428D02*
X87742914Y-43966666D01*
X87742914Y-43966666D02*
X87790533Y-44061904D01*
X80659580Y-52466666D02*
X80707200Y-52514285D01*
X80707200Y-52514285D02*
X80754819Y-52657142D01*
X80754819Y-52657142D02*
X80754819Y-52752380D01*
X80754819Y-52752380D02*
X80707200Y-52895237D01*
X80707200Y-52895237D02*
X80611961Y-52990475D01*
X80611961Y-52990475D02*
X80516723Y-53038094D01*
X80516723Y-53038094D02*
X80326247Y-53085713D01*
X80326247Y-53085713D02*
X80183390Y-53085713D01*
X80183390Y-53085713D02*
X79992914Y-53038094D01*
X79992914Y-53038094D02*
X79897676Y-52990475D01*
X79897676Y-52990475D02*
X79802438Y-52895237D01*
X79802438Y-52895237D02*
X79754819Y-52752380D01*
X79754819Y-52752380D02*
X79754819Y-52657142D01*
X79754819Y-52657142D02*
X79802438Y-52514285D01*
X79802438Y-52514285D02*
X79850057Y-52466666D01*
X79754819Y-51609523D02*
X79754819Y-51799999D01*
X79754819Y-51799999D02*
X79802438Y-51895237D01*
X79802438Y-51895237D02*
X79850057Y-51942856D01*
X79850057Y-51942856D02*
X79992914Y-52038094D01*
X79992914Y-52038094D02*
X80183390Y-52085713D01*
X80183390Y-52085713D02*
X80564342Y-52085713D01*
X80564342Y-52085713D02*
X80659580Y-52038094D01*
X80659580Y-52038094D02*
X80707200Y-51990475D01*
X80707200Y-51990475D02*
X80754819Y-51895237D01*
X80754819Y-51895237D02*
X80754819Y-51704761D01*
X80754819Y-51704761D02*
X80707200Y-51609523D01*
X80707200Y-51609523D02*
X80659580Y-51561904D01*
X80659580Y-51561904D02*
X80564342Y-51514285D01*
X80564342Y-51514285D02*
X80326247Y-51514285D01*
X80326247Y-51514285D02*
X80231009Y-51561904D01*
X80231009Y-51561904D02*
X80183390Y-51609523D01*
X80183390Y-51609523D02*
X80135771Y-51704761D01*
X80135771Y-51704761D02*
X80135771Y-51895237D01*
X80135771Y-51895237D02*
X80183390Y-51990475D01*
X80183390Y-51990475D02*
X80231009Y-52038094D01*
X80231009Y-52038094D02*
X80326247Y-52085713D01*
X50454819Y-43561904D02*
X51264342Y-43561904D01*
X51264342Y-43561904D02*
X51359580Y-43514285D01*
X51359580Y-43514285D02*
X51407200Y-43466666D01*
X51407200Y-43466666D02*
X51454819Y-43371428D01*
X51454819Y-43371428D02*
X51454819Y-43180952D01*
X51454819Y-43180952D02*
X51407200Y-43085714D01*
X51407200Y-43085714D02*
X51359580Y-43038095D01*
X51359580Y-43038095D02*
X51264342Y-42990476D01*
X51264342Y-42990476D02*
X50454819Y-42990476D01*
X50550057Y-42561904D02*
X50502438Y-42514285D01*
X50502438Y-42514285D02*
X50454819Y-42419047D01*
X50454819Y-42419047D02*
X50454819Y-42180952D01*
X50454819Y-42180952D02*
X50502438Y-42085714D01*
X50502438Y-42085714D02*
X50550057Y-42038095D01*
X50550057Y-42038095D02*
X50645295Y-41990476D01*
X50645295Y-41990476D02*
X50740533Y-41990476D01*
X50740533Y-41990476D02*
X50883390Y-42038095D01*
X50883390Y-42038095D02*
X51454819Y-42609523D01*
X51454819Y-42609523D02*
X51454819Y-41990476D01*
D12*
%TO.C,C7*%
X83590000Y-53511252D02*
X83590000Y-52088748D01*
X85410000Y-53511252D02*
X85410000Y-52088748D01*
%TO.C,C2*%
X64911252Y-55490000D02*
X63488748Y-55490000D01*
X64911252Y-57310000D02*
X63488748Y-57310000D01*
%TO.C,C1*%
X52040000Y-49304437D02*
X52040000Y-56960000D01*
X52040000Y-56960000D02*
X54890000Y-56960000D01*
X53104437Y-48240000D02*
X52040000Y-49304437D01*
X53104437Y-48240000D02*
X54890000Y-48240000D01*
X58910000Y-47000000D02*
X58910000Y-48000000D01*
X59410000Y-47500000D02*
X58410000Y-47500000D01*
X59695563Y-48240000D02*
X57910000Y-48240000D01*
X59695563Y-48240000D02*
X60760000Y-49304437D01*
X60760000Y-49304437D02*
X60760000Y-56960000D01*
X60760000Y-56960000D02*
X57910000Y-56960000D01*
%TO.C,C5*%
X88990000Y-38938748D02*
X88990000Y-40361252D01*
X90810000Y-38938748D02*
X90810000Y-40361252D01*
%TO.C,L1*%
X61640000Y-34690000D02*
X61640000Y-36190000D01*
X61640000Y-34690000D02*
X63140000Y-34690000D01*
X61640000Y-45310000D02*
X61640000Y-43810000D01*
X61640000Y-45310000D02*
X63140000Y-45310000D01*
X72360000Y-34690000D02*
X70860000Y-34690000D01*
X72360000Y-34690000D02*
X72360000Y-36190000D01*
X72360000Y-45310000D02*
X70860000Y-45310000D01*
X72360000Y-45310000D02*
X72360000Y-43810000D01*
%TO.C,D1*%
X61850000Y-46140000D02*
X61850000Y-51950000D01*
X66150000Y-46140000D02*
X61850000Y-46140000D01*
X66150000Y-46140000D02*
X66150000Y-51950000D01*
%TO.C,U1*%
X80140000Y-42450000D02*
X80140000Y-46210000D01*
X80140000Y-46210000D02*
X81400000Y-46210000D01*
X86960000Y-42450000D02*
X86960000Y-46210000D01*
X86960000Y-46210000D02*
X85700000Y-46210000D01*
X87190000Y-41410000D02*
X86860000Y-41170000D01*
X87190000Y-40930000D01*
X87190000Y-41410000D01*
G36*
X87190000Y-41410000D02*
G01*
X86860000Y-41170000D01*
X87190000Y-40930000D01*
X87190000Y-41410000D01*
G37*
%TO.C,C6*%
X70640000Y-49004437D02*
X70640000Y-56660000D01*
X70640000Y-56660000D02*
X73490000Y-56660000D01*
X71704437Y-47940000D02*
X70640000Y-49004437D01*
X71704437Y-47940000D02*
X73490000Y-47940000D01*
X77510000Y-46700000D02*
X77510000Y-47700000D01*
X78010000Y-47200000D02*
X77010000Y-47200000D01*
X78295563Y-47940000D02*
X76510000Y-47940000D01*
X78295563Y-47940000D02*
X79360000Y-49004437D01*
X79360000Y-49004437D02*
X79360000Y-56660000D01*
X79360000Y-56660000D02*
X76510000Y-56660000D01*
%TO.C,U2*%
X52440000Y-40200000D02*
X52440000Y-38250000D01*
X52440000Y-40200000D02*
X52440000Y-42150000D01*
X57560000Y-40200000D02*
X57560000Y-38250000D01*
X57560000Y-40200000D02*
X57560000Y-42150000D01*
X52535000Y-42900000D02*
X52205000Y-43140000D01*
X52205000Y-42660000D01*
X52535000Y-42900000D01*
G36*
X52535000Y-42900000D02*
G01*
X52205000Y-43140000D01*
X52205000Y-42660000D01*
X52535000Y-42900000D01*
G37*
%TD*%
M02*
