M48
; DRILL file {KiCad 8.0.5} date 2024-09-22T22:57:34-0400
; FORMAT={-:-/ absolute / metric / decimal}
; #@! TF.CreationDate,2024-09-22T22:57:34-04:00
; #@! TF.GenerationSoftware,Kicad,Pcbnew,8.0.5
; #@! TF.FileFunction,MixedPlating,1,2
FMAT,2
METRIC
; #@! TA.AperFunction,Plated,PTH,ViaDrill
T1C0.381
; #@! TA.AperFunction,Plated,PTH,ComponentDrill
T2C0.800
; #@! TA.AperFunction,Plated,PTH,ComponentDrill
T3C0.900
; #@! TA.AperFunction,Plated,PTH,ComponentDrill
T4C1.000
; #@! TA.AperFunction,Plated,PTH,ComponentDrill
T5C1.100
; #@! TA.AperFunction,Plated,PTH,ComponentDrill
T6C1.200
; #@! TA.AperFunction,Plated,PTH,ComponentDrill
T7C1.300
; #@! TA.AperFunction,Plated,PTH,ComponentDrill
T8C1.320
; #@! TA.AperFunction,Plated,PTH,ComponentDrill
T9C1.600
; #@! TA.AperFunction,NonPlated,NPTH,ComponentDrill
T10C3.200
%
G90
G05
T1
X102.5Y-87.5
X102.5Y-92.5
X102.5Y-115.0
X110.0Y-55.0
X110.0Y-100.0
X110.0Y-127.0
X110.0Y-129.0
X115.0Y-75.0
X115.0Y-80.0
X115.0Y-90.0
X115.0Y-102.5
X115.0Y-117.5
X119.5Y-79.0
X120.0Y-55.0
X120.0Y-65.0
X120.0Y-100.0
X125.0Y-120.0
X126.0Y-75.0
X126.0Y-78.0
X126.0Y-82.0
X126.0Y-100.0
X126.0Y-102.0
X130.0Y-103.0
X131.0Y-84.0
X131.0Y-88.0
X131.0Y-92.0
X131.0Y-96.0
X131.0Y-98.0
X132.0Y-128.0
X133.0Y-87.0
X133.0Y-90.0
X133.0Y-103.0
X134.0Y-101.0
X135.0Y-65.0
X135.0Y-75.0
X135.0Y-128.0
X137.0Y-103.0
X138.0Y-100.0
X139.0Y-85.0
X139.0Y-87.0
X139.0Y-90.0
X140.0Y-55.0
X140.0Y-120.0
X141.0Y-90.0
X142.0Y-85.0
X142.0Y-98.0
X143.0Y-80.0
X143.0Y-94.0
X145.0Y-75.0
X145.0Y-90.0
X145.0Y-100.0
X145.0Y-110.0
X146.0Y-128.0
X150.0Y-55.0
X150.0Y-65.0
X150.0Y-120.0
X155.0Y-75.0
X155.0Y-80.0
X155.0Y-90.0
X155.0Y-100.0
X155.0Y-110.0
X160.0Y-55.0
X160.0Y-65.0
X160.0Y-120.0
X165.0Y-75.0
X165.0Y-80.0
X165.0Y-90.0
X165.0Y-100.0
X165.0Y-110.0
X170.0Y-55.0
X170.0Y-65.0
X172.0Y-128.0
X173.0Y-68.0
X173.0Y-74.0
X175.0Y-80.0
X175.0Y-90.0
X175.0Y-100.0
X175.0Y-120.0
T2
X116.5Y-82.125
X116.5Y-86.3
X116.5Y-90.45
X116.5Y-94.8
X121.5Y-82.125
X121.5Y-86.3
X121.5Y-90.45
X121.5Y-94.8
X127.92Y-127.9
X127.97Y-122.975
X128.38Y-77.64
X128.38Y-80.18
X128.38Y-82.72
X128.38Y-85.26
X128.38Y-87.8
X128.38Y-90.34
X128.38Y-92.88
X128.38Y-95.42
X128.38Y-97.96
X128.38Y-100.5
X129.9Y-72.7
X131.05Y-106.9
X131.05Y-111.9
X131.94Y-63.1
X131.97Y-58.95
X134.9Y-72.7
X136.0Y-77.64
X136.0Y-80.18
X136.0Y-82.72
X136.0Y-85.26
X136.0Y-87.8
X136.0Y-90.34
X136.0Y-92.88
X136.0Y-95.42
X136.0Y-97.96
X136.0Y-100.5
X138.08Y-127.9
X138.13Y-122.975
X140.75Y-77.7
X140.75Y-82.7
X140.75Y-87.12
X140.75Y-92.12
X140.75Y-95.45
X140.75Y-100.45
X142.1Y-63.1
X142.13Y-58.95
X149.25Y-88.25
X149.25Y-90.75
X152.325Y-123.275
X152.325Y-125.775
X158.075Y-122.275
X158.075Y-127.275
X158.25Y-77.55
X158.25Y-87.71
X158.25Y-93.67
X158.25Y-103.83
X163.0Y-77.55
X163.0Y-82.55
X163.2Y-98.85
X163.2Y-103.85
T3
X106.582Y-85.0
X106.582Y-89.0
X106.582Y-93.0
X143.8Y-123.435
X143.8Y-125.975
T4
X117.3Y-77.9
X120.4Y-109.4
X121.5Y-77.9
X125.255Y-63.1
X125.285Y-58.95
X125.3Y-53.6
X125.4Y-109.4
X127.795Y-63.1
X127.825Y-58.95
X129.8Y-53.6
X136.7Y-109.4
X141.7Y-109.4
X165.775Y-120.7
X165.775Y-125.7
X170.632Y-109.0
X170.832Y-71.5
X175.632Y-109.0
X175.65Y-116.8
X175.832Y-71.5
X175.85Y-63.5
T5
X112.58Y-123.33
X112.58Y-125.62
X112.58Y-127.91
X118.8Y-117.74
X118.8Y-127.9
T6
X102.332Y-83.0
X102.332Y-95.0
X106.5Y-73.0
X106.5Y-75.5
X106.5Y-78.0
X108.332Y-83.0
X108.332Y-95.0
X109.0Y-73.0
X109.0Y-75.5
X109.0Y-78.0
T7
X146.75Y-77.5
X146.75Y-103.75
X151.75Y-77.5
X151.75Y-103.75
T8
X107.0Y-100.5
X107.0Y-105.5
X173.0Y-82.5
X173.0Y-87.5
X173.0Y-92.5
X173.0Y-97.5
T9
X108.8Y-114.5
X111.8Y-119.2
X114.8Y-114.5
T10
X105.0Y-55.0
X105.0Y-125.0
X175.0Y-55.0
X175.0Y-125.0
T4
G00X106.1Y-64.5
M15
G01X106.1Y-63.5
M16
G05
G00X108.5Y-62.5
M15
G01X108.5Y-61.5
M16
G05
G00X114.0Y-62.5
M15
G01X114.0Y-61.5
M16
G05
M30
