M48
; DRILL file {KiCad 7.0.7} date Wed 30 Aug 2023 03:53:24 PM
; FORMAT={-:-/ absolute / metric / decimal}
; #@! TF.CreationDate,2023-08-30T15:53:24-04:00
; #@! TF.GenerationSoftware,Kicad,Pcbnew,7.0.7
; #@! TF.FileFunction,MixedPlating,1,2
FMAT,2
METRIC
; #@! TA.AperFunction,Plated,PTH,ViaDrill
T1C0.400
; #@! TA.AperFunction,Plated,PTH,ComponentDrill
T2C1.000
; #@! TA.AperFunction,Plated,PTH,ComponentDrill
T3C1.200
; #@! TA.AperFunction,Plated,PTH,ComponentDrill
T4C1.320
; #@! TA.AperFunction,NonPlated,NPTH,ComponentDrill
T5C1.700
; #@! TA.AperFunction,NonPlated,NPTH,ComponentDrill
T6C3.200
%
G90
G05
T1
X106.5Y-56.0
X106.5Y-63.0
X106.5Y-77.5
X106.5Y-90.5
X106.5Y-97.0
X106.5Y-124.5
X106.7Y-75.1
X107.5Y-107.0
X107.6Y-128.5
X107.7Y-47.4
X108.3Y-114.3
X110.2Y-76.5
X111.0Y-63.0
X111.0Y-96.0
X111.1Y-89.5
X111.4Y-69.9
X111.7Y-46.4
X111.9Y-129.5
X113.5Y-58.9
X115.7Y-73.3
X116.4Y-89.5
X116.5Y-121.25
X117.0Y-63.6
X117.0Y-107.0
X117.25Y-129.5
X117.3Y-114.3
X117.4Y-72.0
X119.0Y-88.1
X119.5Y-67.0
X119.5Y-95.3
X119.8Y-91.3
X119.9Y-50.8
X121.3Y-108.7
X121.3Y-113.5
X121.3Y-118.4
X121.4Y-124.4
X122.5Y-71.1
X122.7Y-80.9
X123.0Y-67.5
X123.7Y-97.2
X124.25Y-129.0
X124.3Y-84.4
X124.4Y-80.0
X126.0Y-93.0
X126.5Y-61.0
X126.8Y-74.8
X128.3Y-62.2
X129.0Y-50.6
X129.2Y-94.8
X129.7Y-83.4
X130.0Y-60.0
X130.6Y-80.8
X130.7Y-78.8
X132.6Y-80.7
X133.4Y-65.9
X133.5Y-63.7
X134.1Y-107.3
X134.4Y-55.0
X135.0Y-95.0
X135.5Y-47.0
X135.5Y-69.5
X136.1Y-81.6
X136.3Y-88.9
X137.0Y-55.4
X137.0Y-101.0
X137.0Y-105.0
X137.4Y-67.8
X138.4Y-80.9
X138.6Y-71.6
X138.6Y-88.5
X138.7Y-86.6
X140.0Y-47.0
X140.0Y-51.0
X140.4Y-100.0
X140.5Y-95.8
X140.8Y-64.2
X141.0Y-88.5
X141.5Y-69.5
X141.5Y-73.0
X142.0Y-109.0
X142.0Y-117.0
X142.0Y-127.0
X142.6Y-96.0
X142.9Y-55.1
X143.0Y-67.5
X143.0Y-86.5
X143.0Y-100.3
X144.8Y-63.0
X145.1Y-58.4
X145.2Y-74.8
X145.3Y-82.0
X147.6Y-56.5
X147.6Y-63.0
X147.6Y-67.8
X147.8Y-75.0
X147.8Y-84.4
X148.0Y-109.0
X148.1Y-54.0
X148.4Y-72.2
X149.2Y-89.8
X150.0Y-47.0
X150.2Y-95.0
X150.6Y-75.0
X151.0Y-65.6
X151.4Y-91.0
X151.5Y-82.0
X151.5Y-99.2
X151.9Y-55.6
X152.0Y-120.5
X152.0Y-125.8
X152.5Y-108.0
X152.6Y-101.0
X153.8Y-114.1
X154.0Y-87.1
X154.1Y-59.5
X154.3Y-102.5
X155.0Y-129.0
X155.3Y-46.3
X155.5Y-65.5
X155.5Y-72.5
X156.5Y-79.5
X157.0Y-114.0
X157.5Y-108.0
X160.0Y-102.0
X160.2Y-61.9
X160.2Y-66.1
X160.2Y-73.0
X160.7Y-46.3
X161.7Y-113.9
X163.5Y-127.5
X165.8Y-66.1
X166.0Y-107.5
X166.3Y-46.4
X166.4Y-89.1
X166.5Y-127.5
X167.5Y-94.0
X170.3Y-69.7
X170.4Y-64.8
X171.4Y-89.1
X172.1Y-46.3
X172.75Y-93.0
X173.0Y-50.0
X173.0Y-106.9
X174.0Y-56.5
X174.0Y-112.0
X174.0Y-119.9
X174.2Y-64.6
X174.5Y-126.0
X178.5Y-76.5
X179.2Y-126.0
X180.0Y-50.0
X181.6Y-46.8
X182.9Y-129.7
X184.5Y-76.0
X186.0Y-64.9
X186.7Y-80.8
X186.7Y-86.0
X186.7Y-91.1
X187.0Y-59.0
X187.0Y-69.5
X187.0Y-98.5
X187.0Y-103.5
X187.0Y-109.0
X187.0Y-113.5
X187.5Y-121.0
X188.3Y-128.5
X188.5Y-47.7
X189.0Y-53.6
X190.0Y-122.7
T2
X111.1Y-58.1
X114.0Y-91.5
X119.6Y-80.9
X120.75Y-63.0
X121.5Y-85.5
X127.5Y-104.75
X139.8Y-104.0
X142.9Y-65.2
X173.25Y-97.25
X173.35Y-89.75
X178.6Y-122.5
T3
X111.5Y-80.5
X111.5Y-83.0
X111.5Y-85.5
X114.0Y-80.5
X114.0Y-83.0
X114.0Y-85.5
X119.25Y-56.9
X123.25Y-53.65
X127.25Y-58.15
T4
X113.0Y-112.0
X113.0Y-117.0
X182.5Y-78.5
X182.5Y-83.5
X182.5Y-88.5
X182.5Y-93.5
T6
X110.5Y-50.5
X110.5Y-125.5
X185.5Y-50.5
X185.5Y-125.5
T5
G00X116.0Y-53.4
M15
G01X116.0Y-54.9
M16
G05
G00X130.5Y-53.4
M15
G01X130.5Y-54.9
M16
G05
T0
M30
