%TF.GenerationSoftware,KiCad,Pcbnew,7.0.7*%
%TF.CreationDate,2023-08-30T15:53:29-04:00*%
%TF.ProjectId,Basic Stereo Amp,42617369-6320-4537-9465-72656f20416d,rev?*%
%TF.SameCoordinates,Original*%
%TF.FileFunction,Copper,L2,Bot*%
%TF.FilePolarity,Positive*%
%FSLAX46Y46*%
G04 Gerber Fmt 4.6, Leading zero omitted, Abs format (unit mm)*
G04 Created by KiCad (PCBNEW 7.0.7) date 2023-08-30 15:53:29*
%MOMM*%
%LPD*%
G01*
G04 APERTURE LIST*
%TA.AperFunction,ComponentPad*%
%ADD10C,2.000000*%
%TD*%
%TA.AperFunction,ComponentPad*%
%ADD11C,2.200000*%
%TD*%
%TA.AperFunction,ComponentPad*%
%ADD12R,3.960000X1.980000*%
%TD*%
%TA.AperFunction,ComponentPad*%
%ADD13O,3.960000X1.980000*%
%TD*%
%TA.AperFunction,ViaPad*%
%ADD14C,0.800000*%
%TD*%
%TA.AperFunction,Conductor*%
%ADD15C,0.250000*%
%TD*%
G04 APERTURE END LIST*
D10*
%TO.P,TP9,1,1*%
%TO.N,/POWH*%
X173350000Y-89750000D03*
%TD*%
D11*
%TO.P,J1,1,IN1*%
%TO.N,Net-(J1-IN1)*%
X127250000Y-58150000D03*
%TO.P,J1,2,IN2*%
%TO.N,Net-(J1-IN2)*%
X119250000Y-56900000D03*
%TO.P,J1,3,EXT*%
%TO.N,GND*%
X123250000Y-53650000D03*
%TD*%
D10*
%TO.P,TP6,1,1*%
%TO.N,Net-(U3A--)*%
X139800000Y-104000000D03*
%TD*%
%TO.P,TP8,1,1*%
%TO.N,/POWD*%
X173250000Y-97250000D03*
%TD*%
%TO.P,TP5,1,1*%
%TO.N,Net-(R11-Pad2)*%
X121500000Y-85500000D03*
%TD*%
%TO.P,TP1,1,1*%
%TO.N,Net-(J1-IN2)*%
X111100000Y-58100000D03*
%TD*%
%TO.P,TP10,1,1*%
%TO.N,VCC*%
X127500000Y-104750000D03*
%TD*%
%TO.P,TP7,1,1*%
%TO.N,Net-(U3B--)*%
X142900000Y-65200000D03*
%TD*%
%TO.P,TP3,1,1*%
%TO.N,VCC_DIV_2*%
X119600000Y-80900000D03*
%TD*%
%TO.P,RV1,1,1*%
%TO.N,Net-(R11-Pad2)*%
X114000000Y-85500000D03*
%TO.P,RV1,2,2*%
%TO.N,Net-(U3A-+)*%
X114000000Y-83000000D03*
%TO.P,RV1,3,3*%
%TO.N,VCC_DIV_2*%
X114000000Y-80500000D03*
%TO.P,RV1,4,4*%
%TO.N,Net-(R12-Pad2)*%
X111500000Y-85500000D03*
%TO.P,RV1,5,5*%
%TO.N,Net-(U3B-+)*%
X111500000Y-83000000D03*
%TO.P,RV1,6,6*%
%TO.N,VCC_DIV_2*%
X111500000Y-80500000D03*
%TD*%
D12*
%TO.P,J2,1,Pin_1*%
%TO.N,GND*%
X113000000Y-117000000D03*
D13*
%TO.P,J2,2,Pin_2*%
%TO.N,/PWRIN*%
X113000000Y-112000000D03*
%TD*%
D10*
%TO.P,TP2,1,1*%
%TO.N,Net-(J1-IN1)*%
X120750000Y-63000000D03*
%TD*%
D12*
%TO.P,J3,1,Pin_1*%
%TO.N,/POWH*%
X182500000Y-78500000D03*
D13*
%TO.P,J3,2,Pin_2*%
%TO.N,GND*%
X182500000Y-83500000D03*
%TO.P,J3,3,Pin_3*%
X182500000Y-88500000D03*
%TO.P,J3,4,Pin_4*%
%TO.N,/POWD*%
X182500000Y-93500000D03*
%TD*%
D10*
%TO.P,TP4,1,1*%
%TO.N,Net-(R12-Pad2)*%
X114000000Y-91500000D03*
%TD*%
%TO.P,TP11,1,1*%
%TO.N,GND*%
X178600000Y-122500000D03*
%TD*%
D14*
%TO.N,GND*%
X117300000Y-114300000D03*
X117000000Y-63600000D03*
X163500000Y-127500000D03*
X140000000Y-47000000D03*
X140800000Y-64200000D03*
X160200000Y-73000000D03*
X181600000Y-46800000D03*
X152500000Y-108000000D03*
X111700000Y-46400000D03*
X111000000Y-96000000D03*
X190000000Y-122700000D03*
X171400000Y-89100000D03*
X187000000Y-103500000D03*
X136100000Y-81600000D03*
X143000000Y-100300000D03*
X154100000Y-59500000D03*
X119500000Y-67000000D03*
X152000000Y-125800000D03*
X180000000Y-50000000D03*
X135000000Y-95000000D03*
X187000000Y-98500000D03*
X148400000Y-72200000D03*
X126500000Y-61000000D03*
X187000000Y-59000000D03*
X106500000Y-124500000D03*
X143000000Y-67500000D03*
X151900000Y-55600000D03*
X106500000Y-97000000D03*
X147600000Y-67800000D03*
X187000000Y-69500000D03*
X167500000Y-94000000D03*
X117000000Y-107000000D03*
X166500000Y-127500000D03*
X173000000Y-50000000D03*
X155500000Y-65500000D03*
X138700000Y-86600000D03*
X173000000Y-106900000D03*
X142000000Y-109000000D03*
X145100000Y-58400000D03*
X188300000Y-128500000D03*
X108300000Y-114300000D03*
X174000000Y-119900000D03*
X141500000Y-69500000D03*
X155500000Y-72500000D03*
X151500000Y-99200000D03*
X121400000Y-124400000D03*
X145200000Y-74800000D03*
X141500000Y-73000000D03*
X165800000Y-66100000D03*
X186700000Y-86000000D03*
X106500000Y-77500000D03*
X130000000Y-60000000D03*
X135500000Y-69500000D03*
X136300000Y-88900000D03*
X160200000Y-61900000D03*
X166000000Y-107500000D03*
X160200000Y-66100000D03*
X186700000Y-91100000D03*
X148000000Y-109000000D03*
X121300000Y-108700000D03*
X121300000Y-113500000D03*
X134100000Y-107300000D03*
X152000000Y-120500000D03*
X153800000Y-114100000D03*
X172750000Y-93000000D03*
X143000000Y-86500000D03*
X123000000Y-67500000D03*
X137400000Y-67800000D03*
X161700000Y-113900000D03*
X156500000Y-79500000D03*
X154300000Y-102500000D03*
X119900000Y-50800000D03*
X129700000Y-83400000D03*
X142000000Y-117000000D03*
X187000000Y-109000000D03*
X130700000Y-78800000D03*
X147600000Y-63000000D03*
X170400000Y-64800000D03*
X111000000Y-63000000D03*
X123700000Y-97200000D03*
X174200000Y-64600000D03*
X119500000Y-95300000D03*
X189000000Y-53600000D03*
X170300000Y-69700000D03*
X166400000Y-89100000D03*
X172100000Y-46300000D03*
X187000000Y-113500000D03*
X157500000Y-108000000D03*
X147600000Y-56500000D03*
X188500000Y-47700000D03*
X116500000Y-121250000D03*
X182900000Y-129700000D03*
X111900000Y-129500000D03*
X186700000Y-80800000D03*
X107500000Y-107000000D03*
X149200000Y-89800000D03*
X148100000Y-54000000D03*
X134400000Y-55000000D03*
X124250000Y-129000000D03*
X106500000Y-56000000D03*
X151000000Y-65600000D03*
X141000000Y-88500000D03*
X106500000Y-90500000D03*
X174500000Y-126000000D03*
X117250000Y-129500000D03*
X135500000Y-47000000D03*
X157000000Y-114000000D03*
X147800000Y-84400000D03*
X155300000Y-46300000D03*
X129000000Y-50600000D03*
X155000000Y-129000000D03*
X179200000Y-126000000D03*
X138600000Y-71600000D03*
X187500000Y-121000000D03*
X174000000Y-112000000D03*
X115700000Y-73300000D03*
X138400000Y-80900000D03*
X147800000Y-75000000D03*
X121300000Y-118400000D03*
X186000000Y-64900000D03*
X150600000Y-75000000D03*
X111400000Y-69900000D03*
X107700000Y-47400000D03*
X178500000Y-76500000D03*
X151500000Y-82000000D03*
X107600000Y-128500000D03*
X160000000Y-102000000D03*
X150000000Y-47000000D03*
X160700000Y-46300000D03*
X126000000Y-93000000D03*
X145300000Y-82000000D03*
X184500000Y-76000000D03*
X137000000Y-105000000D03*
X132600000Y-80700000D03*
X119800000Y-91300000D03*
X154000000Y-87100000D03*
X174000000Y-56500000D03*
X129200000Y-94800000D03*
X140000000Y-51000000D03*
X122500000Y-71100000D03*
X137000000Y-101000000D03*
X166300000Y-46400000D03*
X144800000Y-63000000D03*
X142000000Y-127000000D03*
X113500000Y-58900000D03*
X133500000Y-63700000D03*
X106500000Y-63000000D03*
%TO.N,Net-(U2A-+)*%
X122700000Y-80900000D03*
X117400000Y-72000000D03*
%TO.N,Net-(U2B-+)*%
X106700000Y-75100000D03*
X110200000Y-76500000D03*
%TO.N,Net-(U3A--)*%
X140400000Y-100000000D03*
X140500000Y-95800000D03*
%TO.N,Net-(D1-A)*%
X150200000Y-95000000D03*
X152600000Y-101000000D03*
%TO.N,Net-(U3B--)*%
X151400000Y-91000000D03*
X142600000Y-96000000D03*
%TO.N,Net-(U2A--)*%
X133400000Y-65900000D03*
X130600000Y-80800000D03*
%TO.N,Net-(U1B-+)*%
X137000000Y-55400000D03*
X142900000Y-55100000D03*
%TO.N,Net-(R11-Pad2)*%
X124400000Y-80000000D03*
X124300000Y-84400000D03*
%TO.N,Net-(R12-Pad2)*%
X138600000Y-88500000D03*
X119000000Y-88100000D03*
%TO.N,VCC_DIV_2*%
X126800000Y-74800000D03*
X128300000Y-62200000D03*
%TO.N,Net-(U3B-+)*%
X111100000Y-89500000D03*
X116400000Y-89500000D03*
%TD*%
D15*
%TO.N,Net-(U2A-+)*%
X122700000Y-80900000D02*
X117400000Y-75600000D01*
X117400000Y-75600000D02*
X117400000Y-72000000D01*
%TO.N,Net-(U2B-+)*%
X107000000Y-76500000D02*
X110200000Y-76500000D01*
X106700000Y-76200000D02*
X107000000Y-76500000D01*
X106700000Y-75100000D02*
X106700000Y-76200000D01*
%TO.N,Net-(U3A--)*%
X140500000Y-99900000D02*
X140400000Y-100000000D01*
X140500000Y-95800000D02*
X140500000Y-99900000D01*
%TO.N,Net-(D1-A)*%
X152600000Y-96000000D02*
X152600000Y-101000000D01*
X150200000Y-95000000D02*
X151600000Y-95000000D01*
X151600000Y-95000000D02*
X152600000Y-96000000D01*
%TO.N,Net-(U3B--)*%
X142700000Y-96100000D02*
X146300000Y-96100000D01*
X146300000Y-96100000D02*
X151400000Y-91000000D01*
X142600000Y-96000000D02*
X142700000Y-96100000D01*
%TO.N,Net-(U2A--)*%
X133400000Y-78000000D02*
X133400000Y-65900000D01*
X130600000Y-80800000D02*
X133400000Y-78000000D01*
%TO.N,Net-(U1B-+)*%
X142600000Y-55400000D02*
X137000000Y-55400000D01*
X142900000Y-55100000D02*
X142600000Y-55400000D01*
%TO.N,Net-(R11-Pad2)*%
X124300000Y-80100000D02*
X124400000Y-80000000D01*
X124300000Y-84400000D02*
X124300000Y-80100000D01*
%TO.N,Net-(R12-Pad2)*%
X135400000Y-91500000D02*
X122400000Y-91500000D01*
X138600000Y-88500000D02*
X138400000Y-88500000D01*
X122400000Y-91500000D02*
X119000000Y-88100000D01*
X138400000Y-88500000D02*
X135400000Y-91500000D01*
%TO.N,VCC_DIV_2*%
X128300000Y-62200000D02*
X126800000Y-63700000D01*
X126800000Y-63700000D02*
X126800000Y-74800000D01*
%TO.N,Net-(U3B-+)*%
X116400000Y-89500000D02*
X111000000Y-89500000D01*
%TD*%
%TA.AperFunction,Conductor*%
%TO.N,GND*%
G36*
X185717318Y-45509488D02*
G01*
X185915934Y-45518160D01*
X185920865Y-45518574D01*
X186136792Y-45545489D01*
X186332940Y-45571313D01*
X186337265Y-45571883D01*
X186341894Y-45572671D01*
X186554183Y-45617183D01*
X186752534Y-45661157D01*
X186756778Y-45662257D01*
X186964544Y-45724112D01*
X187158658Y-45785317D01*
X187162530Y-45786680D01*
X187364457Y-45865472D01*
X187552817Y-45943494D01*
X187556252Y-45945045D01*
X187631343Y-45981755D01*
X187750992Y-46040249D01*
X187888629Y-46111897D01*
X187932009Y-46134479D01*
X187935107Y-46136207D01*
X188121382Y-46247202D01*
X188293662Y-46356957D01*
X188296377Y-46358789D01*
X188472918Y-46484837D01*
X188635098Y-46609282D01*
X188637426Y-46611159D01*
X188803055Y-46751439D01*
X188954895Y-46890574D01*
X189109424Y-47045103D01*
X189248555Y-47196938D01*
X189263008Y-47214003D01*
X189388839Y-47362572D01*
X189390716Y-47364900D01*
X189515162Y-47527081D01*
X189641209Y-47703621D01*
X189643040Y-47706335D01*
X189752797Y-47878617D01*
X189863791Y-48064891D01*
X189865525Y-48068000D01*
X189959750Y-48249007D01*
X190025992Y-48384503D01*
X190054953Y-48443744D01*
X190056524Y-48447229D01*
X190134536Y-48635566D01*
X190213309Y-48837445D01*
X190214681Y-48841340D01*
X190275899Y-49035496D01*
X190337735Y-49243200D01*
X190338843Y-49247472D01*
X190382818Y-49445826D01*
X190427326Y-49658101D01*
X190428115Y-49662733D01*
X190454524Y-49863319D01*
X190481422Y-50079114D01*
X190481839Y-50084080D01*
X190490513Y-50282728D01*
X190499500Y-50500000D01*
X190499500Y-125500000D01*
X190490513Y-125717271D01*
X190481839Y-125915918D01*
X190481422Y-125920884D01*
X190454524Y-126136680D01*
X190428115Y-126337265D01*
X190427326Y-126341897D01*
X190382818Y-126554173D01*
X190338843Y-126752526D01*
X190337735Y-126756798D01*
X190275899Y-126964503D01*
X190214681Y-127158658D01*
X190213309Y-127162552D01*
X190134536Y-127364433D01*
X190056524Y-127552769D01*
X190054944Y-127556274D01*
X189959750Y-127750992D01*
X189865525Y-127931998D01*
X189863791Y-127935107D01*
X189752797Y-128121382D01*
X189643040Y-128293663D01*
X189641209Y-128296377D01*
X189515162Y-128472918D01*
X189390716Y-128635099D01*
X189388839Y-128637426D01*
X189248557Y-128803059D01*
X189109426Y-128954895D01*
X188954895Y-129109426D01*
X188803059Y-129248557D01*
X188637426Y-129388839D01*
X188635099Y-129390716D01*
X188472918Y-129515162D01*
X188296377Y-129641209D01*
X188293663Y-129643040D01*
X188121382Y-129752797D01*
X187935107Y-129863791D01*
X187931998Y-129865525D01*
X187750992Y-129959750D01*
X187556274Y-130054944D01*
X187552769Y-130056524D01*
X187364433Y-130134536D01*
X187162552Y-130213309D01*
X187158658Y-130214681D01*
X186964503Y-130275899D01*
X186756798Y-130337735D01*
X186752526Y-130338843D01*
X186554173Y-130382818D01*
X186341897Y-130427326D01*
X186337265Y-130428115D01*
X186136680Y-130454524D01*
X185920884Y-130481422D01*
X185915918Y-130481839D01*
X185717271Y-130490513D01*
X185500000Y-130499500D01*
X110500000Y-130499500D01*
X110282728Y-130490513D01*
X110084080Y-130481839D01*
X110079114Y-130481422D01*
X109863319Y-130454524D01*
X109662733Y-130428115D01*
X109658101Y-130427326D01*
X109445826Y-130382818D01*
X109247472Y-130338843D01*
X109243200Y-130337735D01*
X109035496Y-130275899D01*
X108841340Y-130214681D01*
X108837445Y-130213309D01*
X108635566Y-130134536D01*
X108447229Y-130056524D01*
X108443744Y-130054953D01*
X108384503Y-130025992D01*
X108249007Y-129959750D01*
X108068000Y-129865525D01*
X108064891Y-129863791D01*
X107878617Y-129752797D01*
X107706335Y-129643040D01*
X107703621Y-129641209D01*
X107527081Y-129515162D01*
X107364900Y-129390716D01*
X107362572Y-129388839D01*
X107196940Y-129248557D01*
X107045103Y-129109424D01*
X106890574Y-128954895D01*
X106751439Y-128803055D01*
X106611159Y-128637426D01*
X106609282Y-128635098D01*
X106484837Y-128472918D01*
X106358789Y-128296377D01*
X106356957Y-128293662D01*
X106247202Y-128121382D01*
X106136207Y-127935107D01*
X106134473Y-127931998D01*
X106040249Y-127750992D01*
X105981755Y-127631343D01*
X105945045Y-127556252D01*
X105943494Y-127552817D01*
X105865463Y-127364433D01*
X105786680Y-127162530D01*
X105785317Y-127158658D01*
X105724100Y-126964503D01*
X105713246Y-126928044D01*
X105662257Y-126756778D01*
X105661155Y-126752526D01*
X105646602Y-126686883D01*
X105617175Y-126554145D01*
X105611495Y-126527057D01*
X105572671Y-126341894D01*
X105571883Y-126337265D01*
X105557194Y-126225690D01*
X105545489Y-126136791D01*
X105518574Y-125920865D01*
X105518160Y-125915934D01*
X105509486Y-125717271D01*
X105503303Y-125567763D01*
X108645787Y-125567763D01*
X108675413Y-125837013D01*
X108675415Y-125837024D01*
X108743926Y-126099082D01*
X108743928Y-126099088D01*
X108849870Y-126348390D01*
X108921998Y-126466575D01*
X108990979Y-126579605D01*
X108990986Y-126579615D01*
X109164253Y-126787819D01*
X109164259Y-126787824D01*
X109365998Y-126968582D01*
X109591910Y-127118044D01*
X109837176Y-127233020D01*
X109837183Y-127233022D01*
X109837185Y-127233023D01*
X110096557Y-127311057D01*
X110096564Y-127311058D01*
X110096569Y-127311060D01*
X110364561Y-127350500D01*
X110364566Y-127350500D01*
X110567636Y-127350500D01*
X110619133Y-127346730D01*
X110770156Y-127335677D01*
X110882758Y-127310593D01*
X111034546Y-127276782D01*
X111034548Y-127276781D01*
X111034553Y-127276780D01*
X111287558Y-127180014D01*
X111523777Y-127047441D01*
X111738177Y-126881888D01*
X111926186Y-126686881D01*
X112083799Y-126466579D01*
X112157787Y-126322669D01*
X112207649Y-126225690D01*
X112207651Y-126225684D01*
X112207656Y-126225675D01*
X112295118Y-125969305D01*
X112344319Y-125702933D01*
X112349259Y-125567763D01*
X183645787Y-125567763D01*
X183675413Y-125837013D01*
X183675415Y-125837024D01*
X183743926Y-126099082D01*
X183743928Y-126099088D01*
X183849870Y-126348390D01*
X183921998Y-126466575D01*
X183990979Y-126579605D01*
X183990986Y-126579615D01*
X184164253Y-126787819D01*
X184164259Y-126787824D01*
X184365998Y-126968582D01*
X184591910Y-127118044D01*
X184837176Y-127233020D01*
X184837183Y-127233022D01*
X184837185Y-127233023D01*
X185096557Y-127311057D01*
X185096564Y-127311058D01*
X185096569Y-127311060D01*
X185364561Y-127350500D01*
X185364566Y-127350500D01*
X185567636Y-127350500D01*
X185619133Y-127346730D01*
X185770156Y-127335677D01*
X185882758Y-127310593D01*
X186034546Y-127276782D01*
X186034548Y-127276781D01*
X186034553Y-127276780D01*
X186287558Y-127180014D01*
X186523777Y-127047441D01*
X186738177Y-126881888D01*
X186926186Y-126686881D01*
X187083799Y-126466579D01*
X187157787Y-126322669D01*
X187207649Y-126225690D01*
X187207651Y-126225684D01*
X187207656Y-126225675D01*
X187295118Y-125969305D01*
X187344319Y-125702933D01*
X187354212Y-125432235D01*
X187324586Y-125162982D01*
X187256072Y-124900912D01*
X187150130Y-124651610D01*
X187009018Y-124420390D01*
X186919747Y-124313119D01*
X186835746Y-124212180D01*
X186835740Y-124212175D01*
X186634002Y-124031418D01*
X186408092Y-123881957D01*
X186400438Y-123878369D01*
X186162824Y-123766980D01*
X186162819Y-123766978D01*
X186162814Y-123766976D01*
X185903442Y-123688942D01*
X185903428Y-123688939D01*
X185787791Y-123671921D01*
X185635439Y-123649500D01*
X185432369Y-123649500D01*
X185432364Y-123649500D01*
X185229844Y-123664323D01*
X185229831Y-123664325D01*
X184965453Y-123723217D01*
X184965446Y-123723220D01*
X184712439Y-123819987D01*
X184476226Y-123952557D01*
X184261822Y-124118112D01*
X184073822Y-124313109D01*
X184073816Y-124313116D01*
X183916202Y-124533419D01*
X183916199Y-124533424D01*
X183792350Y-124774309D01*
X183792343Y-124774327D01*
X183704884Y-125030685D01*
X183704881Y-125030699D01*
X183655681Y-125297068D01*
X183655680Y-125297075D01*
X183645787Y-125567763D01*
X112349259Y-125567763D01*
X112354212Y-125432235D01*
X112324586Y-125162982D01*
X112256072Y-124900912D01*
X112150130Y-124651610D01*
X112009018Y-124420390D01*
X111919747Y-124313119D01*
X111835746Y-124212180D01*
X111835740Y-124212175D01*
X111634002Y-124031418D01*
X111408092Y-123881957D01*
X111400438Y-123878369D01*
X111162824Y-123766980D01*
X111162819Y-123766978D01*
X111162814Y-123766976D01*
X110903442Y-123688942D01*
X110903428Y-123688939D01*
X110787791Y-123671921D01*
X110635439Y-123649500D01*
X110432369Y-123649500D01*
X110432364Y-123649500D01*
X110229844Y-123664323D01*
X110229831Y-123664325D01*
X109965453Y-123723217D01*
X109965446Y-123723220D01*
X109712439Y-123819987D01*
X109476226Y-123952557D01*
X109261822Y-124118112D01*
X109073822Y-124313109D01*
X109073816Y-124313116D01*
X108916202Y-124533419D01*
X108916199Y-124533424D01*
X108792350Y-124774309D01*
X108792343Y-124774327D01*
X108704884Y-125030685D01*
X108704881Y-125030699D01*
X108655681Y-125297068D01*
X108655680Y-125297075D01*
X108645787Y-125567763D01*
X105503303Y-125567763D01*
X105500500Y-125500000D01*
X105500500Y-125499500D01*
X105500500Y-122500005D01*
X177094859Y-122500005D01*
X177115385Y-122747729D01*
X177115387Y-122747738D01*
X177176412Y-122988717D01*
X177276266Y-123216364D01*
X177376564Y-123369882D01*
X177991050Y-122755395D01*
X178052373Y-122721910D01*
X178122064Y-122726894D01*
X178177998Y-122768765D01*
X178183039Y-122776025D01*
X178183048Y-122776039D01*
X178218239Y-122830798D01*
X178333602Y-122930759D01*
X178331293Y-122933422D01*
X178366006Y-122973499D01*
X178375935Y-123042660D01*
X178346898Y-123106210D01*
X178340882Y-123112669D01*
X177729942Y-123723609D01*
X177776768Y-123760055D01*
X177776770Y-123760056D01*
X177995385Y-123878364D01*
X177995396Y-123878369D01*
X178230506Y-123959083D01*
X178475707Y-124000000D01*
X178724293Y-124000000D01*
X178969493Y-123959083D01*
X179204603Y-123878369D01*
X179204614Y-123878364D01*
X179423228Y-123760057D01*
X179423231Y-123760055D01*
X179470056Y-123723609D01*
X178859116Y-123112669D01*
X178825631Y-123051346D01*
X178830615Y-122981654D01*
X178867641Y-122932193D01*
X178866398Y-122930759D01*
X178873100Y-122924952D01*
X178981761Y-122830798D01*
X179016954Y-122776037D01*
X179069755Y-122730283D01*
X179138914Y-122720339D01*
X179202470Y-122749363D01*
X179208949Y-122755396D01*
X179823434Y-123369882D01*
X179923731Y-123216369D01*
X180023587Y-122988717D01*
X180084612Y-122747738D01*
X180084614Y-122747729D01*
X180105141Y-122500005D01*
X180105141Y-122499994D01*
X180084614Y-122252270D01*
X180084612Y-122252261D01*
X180023587Y-122011282D01*
X179923731Y-121783630D01*
X179823434Y-121630116D01*
X179208949Y-122244602D01*
X179147626Y-122278087D01*
X179077934Y-122273103D01*
X179022001Y-122231231D01*
X179016953Y-122223961D01*
X178981761Y-122169202D01*
X178866398Y-122069241D01*
X178868698Y-122066585D01*
X178833960Y-122026428D01*
X178824074Y-121957261D01*
X178853152Y-121893729D01*
X178859116Y-121887329D01*
X179470056Y-121276389D01*
X179423229Y-121239943D01*
X179204614Y-121121635D01*
X179204603Y-121121630D01*
X178969493Y-121040916D01*
X178724293Y-121000000D01*
X178475707Y-121000000D01*
X178230506Y-121040916D01*
X177995396Y-121121630D01*
X177995390Y-121121632D01*
X177776761Y-121239949D01*
X177729942Y-121276388D01*
X177729942Y-121276390D01*
X178340883Y-121887330D01*
X178374368Y-121948653D01*
X178369384Y-122018344D01*
X178332358Y-122067805D01*
X178333602Y-122069241D01*
X178218238Y-122169202D01*
X178183046Y-122223962D01*
X178130242Y-122269717D01*
X178061083Y-122279660D01*
X177997528Y-122250634D01*
X177991050Y-122244603D01*
X177376564Y-121630116D01*
X177276267Y-121783632D01*
X177176412Y-122011282D01*
X177115387Y-122252261D01*
X177115385Y-122252270D01*
X177094859Y-122499994D01*
X177094859Y-122500005D01*
X105500500Y-122500005D01*
X105500500Y-118037844D01*
X110520000Y-118037844D01*
X110526401Y-118097372D01*
X110526403Y-118097379D01*
X110576645Y-118232086D01*
X110576649Y-118232093D01*
X110662809Y-118347187D01*
X110662812Y-118347190D01*
X110777906Y-118433350D01*
X110777913Y-118433354D01*
X110912620Y-118483596D01*
X110912627Y-118483598D01*
X110972155Y-118489999D01*
X110972172Y-118490000D01*
X112750000Y-118490000D01*
X112750000Y-117774458D01*
X112769685Y-117707419D01*
X112822489Y-117661664D01*
X112888944Y-117651362D01*
X112952297Y-117659054D01*
X112960080Y-117660000D01*
X112960081Y-117660000D01*
X113039920Y-117660000D01*
X113047702Y-117659054D01*
X113111055Y-117651362D01*
X113179975Y-117662822D01*
X113231762Y-117709725D01*
X113250000Y-117774458D01*
X113250000Y-118490000D01*
X115027828Y-118490000D01*
X115027844Y-118489999D01*
X115087372Y-118483598D01*
X115087379Y-118483596D01*
X115222086Y-118433354D01*
X115222093Y-118433350D01*
X115337187Y-118347190D01*
X115337190Y-118347187D01*
X115423350Y-118232093D01*
X115423354Y-118232086D01*
X115473596Y-118097379D01*
X115473598Y-118097372D01*
X115479999Y-118037844D01*
X115480000Y-118037827D01*
X115480000Y-117250000D01*
X113776407Y-117250000D01*
X113709368Y-117230315D01*
X113663613Y-117177511D01*
X113653669Y-117108353D01*
X113656011Y-117096323D01*
X113657349Y-117090891D01*
X113660000Y-117080138D01*
X113660000Y-116919862D01*
X113656010Y-116903677D01*
X113659079Y-116833875D01*
X113699397Y-116776812D01*
X113764166Y-116750606D01*
X113776407Y-116750000D01*
X115480000Y-116750000D01*
X115480000Y-115962172D01*
X115479999Y-115962155D01*
X115473598Y-115902627D01*
X115473596Y-115902620D01*
X115423354Y-115767913D01*
X115423350Y-115767906D01*
X115337190Y-115652812D01*
X115337187Y-115652809D01*
X115222093Y-115566649D01*
X115222086Y-115566645D01*
X115087379Y-115516403D01*
X115087372Y-115516401D01*
X115027844Y-115510000D01*
X113250000Y-115510000D01*
X113250000Y-116225541D01*
X113230315Y-116292580D01*
X113177511Y-116338335D01*
X113111053Y-116348637D01*
X113039922Y-116340000D01*
X113039919Y-116340000D01*
X112960081Y-116340000D01*
X112960078Y-116340000D01*
X112888947Y-116348637D01*
X112820023Y-116337177D01*
X112768237Y-116290273D01*
X112750000Y-116225541D01*
X112750000Y-115510000D01*
X110972155Y-115510000D01*
X110912627Y-115516401D01*
X110912620Y-115516403D01*
X110777913Y-115566645D01*
X110777906Y-115566649D01*
X110662812Y-115652809D01*
X110662809Y-115652812D01*
X110576649Y-115767906D01*
X110576645Y-115767913D01*
X110526403Y-115902620D01*
X110526401Y-115902627D01*
X110520000Y-115962155D01*
X110520000Y-116750000D01*
X112223593Y-116750000D01*
X112290632Y-116769685D01*
X112336387Y-116822489D01*
X112346331Y-116891647D01*
X112343989Y-116903677D01*
X112340000Y-116919859D01*
X112340000Y-117080140D01*
X112343989Y-117096323D01*
X112340921Y-117166125D01*
X112300603Y-117223188D01*
X112235834Y-117249394D01*
X112223593Y-117250000D01*
X110520000Y-117250000D01*
X110520000Y-118037844D01*
X105500500Y-118037844D01*
X105500500Y-112123504D01*
X110519500Y-112123504D01*
X110560157Y-112367153D01*
X110640359Y-112600771D01*
X110640362Y-112600780D01*
X110757928Y-112818022D01*
X110757932Y-112818028D01*
X110909639Y-113012941D01*
X110909641Y-113012943D01*
X110909645Y-113012948D01*
X111091379Y-113180245D01*
X111298169Y-113315348D01*
X111524377Y-113414572D01*
X111763831Y-113475210D01*
X111948355Y-113490500D01*
X111948357Y-113490500D01*
X114051643Y-113490500D01*
X114051645Y-113490500D01*
X114236169Y-113475210D01*
X114475623Y-113414572D01*
X114701831Y-113315348D01*
X114908621Y-113180245D01*
X115090355Y-113012948D01*
X115242073Y-112818020D01*
X115359638Y-112600779D01*
X115439843Y-112367150D01*
X115480500Y-112123506D01*
X115480500Y-111876494D01*
X115439843Y-111632850D01*
X115359638Y-111399221D01*
X115242073Y-111181980D01*
X115242071Y-111181977D01*
X115242067Y-111181971D01*
X115090360Y-110987058D01*
X115090357Y-110987055D01*
X115090355Y-110987052D01*
X114908621Y-110819755D01*
X114908618Y-110819753D01*
X114908617Y-110819752D01*
X114828659Y-110767513D01*
X114701831Y-110684652D01*
X114701828Y-110684650D01*
X114701827Y-110684650D01*
X114475623Y-110585428D01*
X114236165Y-110524789D01*
X114088297Y-110512537D01*
X114051645Y-110509500D01*
X111948355Y-110509500D01*
X111915014Y-110512262D01*
X111763834Y-110524789D01*
X111524376Y-110585428D01*
X111298172Y-110684650D01*
X111091382Y-110819752D01*
X110909642Y-110987055D01*
X110909639Y-110987058D01*
X110757932Y-111181971D01*
X110757928Y-111181977D01*
X110640362Y-111399219D01*
X110640359Y-111399228D01*
X110560157Y-111632846D01*
X110519500Y-111876495D01*
X110519500Y-112123504D01*
X105500500Y-112123504D01*
X105500500Y-104750005D01*
X125994357Y-104750005D01*
X126014890Y-104997812D01*
X126014892Y-104997824D01*
X126075936Y-105238881D01*
X126175826Y-105466606D01*
X126311833Y-105674782D01*
X126311836Y-105674785D01*
X126480256Y-105857738D01*
X126676491Y-106010474D01*
X126895190Y-106128828D01*
X127130386Y-106209571D01*
X127375665Y-106250500D01*
X127624335Y-106250500D01*
X127869614Y-106209571D01*
X128104810Y-106128828D01*
X128323509Y-106010474D01*
X128519744Y-105857738D01*
X128688164Y-105674785D01*
X128824173Y-105466607D01*
X128924063Y-105238881D01*
X128985108Y-104997821D01*
X129005643Y-104750000D01*
X128985108Y-104502179D01*
X128924063Y-104261119D01*
X128918231Y-104247824D01*
X128824173Y-104033393D01*
X128802360Y-104000005D01*
X138294357Y-104000005D01*
X138314890Y-104247812D01*
X138314892Y-104247824D01*
X138375936Y-104488881D01*
X138475826Y-104716606D01*
X138611833Y-104924782D01*
X138611836Y-104924785D01*
X138780256Y-105107738D01*
X138976491Y-105260474D01*
X139195190Y-105378828D01*
X139430386Y-105459571D01*
X139675665Y-105500500D01*
X139924335Y-105500500D01*
X140169614Y-105459571D01*
X140404810Y-105378828D01*
X140623509Y-105260474D01*
X140819744Y-105107738D01*
X140988164Y-104924785D01*
X141124173Y-104716607D01*
X141224063Y-104488881D01*
X141285108Y-104247821D01*
X141305643Y-104000000D01*
X141285108Y-103752179D01*
X141224063Y-103511119D01*
X141214591Y-103489526D01*
X141124173Y-103283393D01*
X140988166Y-103075217D01*
X140966557Y-103051744D01*
X140819744Y-102892262D01*
X140623509Y-102739526D01*
X140623507Y-102739525D01*
X140623506Y-102739524D01*
X140404811Y-102621172D01*
X140404802Y-102621169D01*
X140169616Y-102540429D01*
X139924335Y-102499500D01*
X139675665Y-102499500D01*
X139430383Y-102540429D01*
X139195197Y-102621169D01*
X139195188Y-102621172D01*
X138976493Y-102739524D01*
X138780257Y-102892261D01*
X138611833Y-103075217D01*
X138475826Y-103283393D01*
X138375936Y-103511118D01*
X138314892Y-103752175D01*
X138314890Y-103752187D01*
X138294357Y-103999994D01*
X138294357Y-104000005D01*
X128802360Y-104000005D01*
X128688166Y-103825217D01*
X128620937Y-103752187D01*
X128519744Y-103642262D01*
X128323509Y-103489526D01*
X128323507Y-103489525D01*
X128323506Y-103489524D01*
X128104811Y-103371172D01*
X128104802Y-103371169D01*
X127869616Y-103290429D01*
X127624335Y-103249500D01*
X127375665Y-103249500D01*
X127130383Y-103290429D01*
X126895197Y-103371169D01*
X126895188Y-103371172D01*
X126676493Y-103489524D01*
X126480257Y-103642261D01*
X126311833Y-103825217D01*
X126175826Y-104033393D01*
X126075936Y-104261118D01*
X126014892Y-104502175D01*
X126014890Y-104502187D01*
X125994357Y-104749994D01*
X125994357Y-104750005D01*
X105500500Y-104750005D01*
X105500500Y-100000000D01*
X139494540Y-100000000D01*
X139514326Y-100188256D01*
X139514327Y-100188259D01*
X139572818Y-100368277D01*
X139572821Y-100368284D01*
X139667467Y-100532216D01*
X139757063Y-100631722D01*
X139794129Y-100672888D01*
X139947265Y-100784148D01*
X139947270Y-100784151D01*
X140120192Y-100861142D01*
X140120197Y-100861144D01*
X140305354Y-100900500D01*
X140305355Y-100900500D01*
X140494644Y-100900500D01*
X140494646Y-100900500D01*
X140679803Y-100861144D01*
X140852730Y-100784151D01*
X141005871Y-100672888D01*
X141132533Y-100532216D01*
X141227179Y-100368284D01*
X141285674Y-100188256D01*
X141305460Y-100000000D01*
X141285674Y-99811744D01*
X141227179Y-99631716D01*
X141227176Y-99631710D01*
X141142113Y-99484375D01*
X141125500Y-99422376D01*
X141125500Y-96498687D01*
X141145185Y-96431648D01*
X141157350Y-96415715D01*
X141175891Y-96395122D01*
X141232533Y-96332216D01*
X141327179Y-96168284D01*
X141381858Y-96000000D01*
X141694540Y-96000000D01*
X141714326Y-96188256D01*
X141714327Y-96188259D01*
X141772818Y-96368277D01*
X141772821Y-96368284D01*
X141867467Y-96532216D01*
X141949549Y-96623377D01*
X141994129Y-96672888D01*
X142147265Y-96784148D01*
X142147270Y-96784151D01*
X142320192Y-96861142D01*
X142320197Y-96861144D01*
X142505354Y-96900500D01*
X142505355Y-96900500D01*
X142694644Y-96900500D01*
X142694646Y-96900500D01*
X142879803Y-96861144D01*
X143052730Y-96784151D01*
X143059358Y-96779334D01*
X143100862Y-96749182D01*
X143166669Y-96725702D01*
X143173747Y-96725500D01*
X146217257Y-96725500D01*
X146232877Y-96727224D01*
X146232904Y-96726939D01*
X146240660Y-96727671D01*
X146240667Y-96727673D01*
X146309814Y-96725500D01*
X146339350Y-96725500D01*
X146346228Y-96724630D01*
X146352041Y-96724172D01*
X146398627Y-96722709D01*
X146417869Y-96717117D01*
X146436912Y-96713174D01*
X146456792Y-96710664D01*
X146500122Y-96693507D01*
X146505646Y-96691617D01*
X146509396Y-96690527D01*
X146550390Y-96678618D01*
X146567629Y-96668422D01*
X146585103Y-96659862D01*
X146603727Y-96652488D01*
X146603727Y-96652487D01*
X146603732Y-96652486D01*
X146641449Y-96625082D01*
X146646305Y-96621892D01*
X146686420Y-96598170D01*
X146700589Y-96583999D01*
X146715379Y-96571368D01*
X146731587Y-96559594D01*
X146761299Y-96523676D01*
X146765212Y-96519376D01*
X148284589Y-95000000D01*
X149294540Y-95000000D01*
X149314326Y-95188256D01*
X149314327Y-95188259D01*
X149372818Y-95368277D01*
X149372821Y-95368284D01*
X149467467Y-95532216D01*
X149579106Y-95656203D01*
X149594129Y-95672888D01*
X149747265Y-95784148D01*
X149747270Y-95784151D01*
X149920192Y-95861142D01*
X149920197Y-95861144D01*
X150105354Y-95900500D01*
X150105355Y-95900500D01*
X150294644Y-95900500D01*
X150294646Y-95900500D01*
X150479803Y-95861144D01*
X150652730Y-95784151D01*
X150805871Y-95672888D01*
X150808788Y-95669647D01*
X150811600Y-95666526D01*
X150871087Y-95629879D01*
X150903748Y-95625500D01*
X151289548Y-95625500D01*
X151356587Y-95645185D01*
X151377229Y-95661819D01*
X151938181Y-96222770D01*
X151971666Y-96284093D01*
X151974500Y-96310451D01*
X151974500Y-100301312D01*
X151954815Y-100368351D01*
X151942650Y-100384284D01*
X151867466Y-100467784D01*
X151772821Y-100631715D01*
X151772818Y-100631722D01*
X151714327Y-100811740D01*
X151714326Y-100811744D01*
X151694540Y-101000000D01*
X151714326Y-101188256D01*
X151714327Y-101188259D01*
X151772818Y-101368277D01*
X151772821Y-101368284D01*
X151867467Y-101532216D01*
X151994128Y-101672888D01*
X151994129Y-101672888D01*
X152147265Y-101784148D01*
X152147270Y-101784151D01*
X152320192Y-101861142D01*
X152320197Y-101861144D01*
X152505354Y-101900500D01*
X152505355Y-101900500D01*
X152694644Y-101900500D01*
X152694646Y-101900500D01*
X152879803Y-101861144D01*
X153052730Y-101784151D01*
X153205871Y-101672888D01*
X153332533Y-101532216D01*
X153427179Y-101368284D01*
X153485674Y-101188256D01*
X153505460Y-101000000D01*
X153485674Y-100811744D01*
X153427179Y-100631716D01*
X153332533Y-100467784D01*
X153257350Y-100384284D01*
X153227120Y-100321292D01*
X153225500Y-100301312D01*
X153225500Y-97250005D01*
X171744357Y-97250005D01*
X171764890Y-97497812D01*
X171764892Y-97497824D01*
X171825936Y-97738881D01*
X171925826Y-97966606D01*
X172061833Y-98174782D01*
X172061836Y-98174785D01*
X172230256Y-98357738D01*
X172426491Y-98510474D01*
X172645190Y-98628828D01*
X172880386Y-98709571D01*
X173125665Y-98750500D01*
X173374335Y-98750500D01*
X173619614Y-98709571D01*
X173854810Y-98628828D01*
X174073509Y-98510474D01*
X174269744Y-98357738D01*
X174438164Y-98174785D01*
X174574173Y-97966607D01*
X174674063Y-97738881D01*
X174735108Y-97497821D01*
X174755643Y-97250000D01*
X174735108Y-97002179D01*
X174699393Y-96861144D01*
X174674063Y-96761118D01*
X174574173Y-96533393D01*
X174438166Y-96325217D01*
X174416557Y-96301744D01*
X174269744Y-96142262D01*
X174073509Y-95989526D01*
X174073507Y-95989525D01*
X174073506Y-95989524D01*
X173854811Y-95871172D01*
X173854802Y-95871169D01*
X173619616Y-95790429D01*
X173374335Y-95749500D01*
X173125665Y-95749500D01*
X172880383Y-95790429D01*
X172645197Y-95871169D01*
X172645188Y-95871172D01*
X172426493Y-95989524D01*
X172230257Y-96142261D01*
X172061833Y-96325217D01*
X171925826Y-96533393D01*
X171825936Y-96761118D01*
X171764892Y-97002175D01*
X171764890Y-97002187D01*
X171744357Y-97249994D01*
X171744357Y-97250005D01*
X153225500Y-97250005D01*
X153225500Y-96082742D01*
X153227224Y-96067122D01*
X153226939Y-96067095D01*
X153227673Y-96059333D01*
X153225500Y-95990172D01*
X153225500Y-95960656D01*
X153225500Y-95960650D01*
X153224631Y-95953779D01*
X153224173Y-95947952D01*
X153222710Y-95901373D01*
X153217119Y-95882130D01*
X153213173Y-95863078D01*
X153210664Y-95843208D01*
X153193504Y-95799867D01*
X153191624Y-95794379D01*
X153178618Y-95749610D01*
X153168422Y-95732370D01*
X153159861Y-95714894D01*
X153152487Y-95696270D01*
X153152486Y-95696268D01*
X153125079Y-95658545D01*
X153121888Y-95653686D01*
X153108895Y-95631716D01*
X153098170Y-95613580D01*
X153098168Y-95613578D01*
X153098165Y-95613574D01*
X153084006Y-95599415D01*
X153071368Y-95584619D01*
X153059594Y-95568413D01*
X153023688Y-95538709D01*
X153019376Y-95534786D01*
X152100803Y-94616212D01*
X152090980Y-94603950D01*
X152090759Y-94604134D01*
X152085786Y-94598123D01*
X152085785Y-94598122D01*
X152035364Y-94550773D01*
X152024919Y-94540328D01*
X152014475Y-94529883D01*
X152008986Y-94525625D01*
X152004561Y-94521847D01*
X151970582Y-94489938D01*
X151970580Y-94489936D01*
X151970577Y-94489935D01*
X151953029Y-94480288D01*
X151936763Y-94469604D01*
X151920933Y-94457325D01*
X151878168Y-94438818D01*
X151872922Y-94436248D01*
X151832093Y-94413803D01*
X151832092Y-94413802D01*
X151812693Y-94408822D01*
X151794281Y-94402518D01*
X151775898Y-94394562D01*
X151775892Y-94394560D01*
X151729874Y-94387272D01*
X151724152Y-94386087D01*
X151679021Y-94374500D01*
X151679019Y-94374500D01*
X151658984Y-94374500D01*
X151639586Y-94372973D01*
X151632162Y-94371797D01*
X151619805Y-94369840D01*
X151619804Y-94369840D01*
X151573416Y-94374225D01*
X151567578Y-94374500D01*
X150903748Y-94374500D01*
X150836709Y-94354815D01*
X150811600Y-94333474D01*
X150805873Y-94327114D01*
X150805869Y-94327110D01*
X150652734Y-94215851D01*
X150652729Y-94215848D01*
X150479807Y-94138857D01*
X150479802Y-94138855D01*
X150334000Y-94107865D01*
X150294646Y-94099500D01*
X150105354Y-94099500D01*
X150072897Y-94106398D01*
X149920197Y-94138855D01*
X149920192Y-94138857D01*
X149747270Y-94215848D01*
X149747265Y-94215851D01*
X149594129Y-94327111D01*
X149467466Y-94467785D01*
X149372821Y-94631715D01*
X149372818Y-94631722D01*
X149314327Y-94811740D01*
X149314326Y-94811744D01*
X149294540Y-95000000D01*
X148284589Y-95000000D01*
X149661085Y-93623504D01*
X180019500Y-93623504D01*
X180060157Y-93867153D01*
X180140359Y-94100771D01*
X180140362Y-94100780D01*
X180257928Y-94318022D01*
X180257932Y-94318028D01*
X180409639Y-94512941D01*
X180409641Y-94512943D01*
X180409645Y-94512948D01*
X180591379Y-94680245D01*
X180798169Y-94815348D01*
X181024377Y-94914572D01*
X181263831Y-94975210D01*
X181448355Y-94990500D01*
X181448357Y-94990500D01*
X183551643Y-94990500D01*
X183551645Y-94990500D01*
X183736169Y-94975210D01*
X183975623Y-94914572D01*
X184201831Y-94815348D01*
X184408621Y-94680245D01*
X184590355Y-94512948D01*
X184701740Y-94369840D01*
X184742067Y-94318028D01*
X184742071Y-94318022D01*
X184742073Y-94318020D01*
X184859638Y-94100779D01*
X184939843Y-93867150D01*
X184980500Y-93623506D01*
X184980500Y-93376494D01*
X184939843Y-93132850D01*
X184859638Y-92899221D01*
X184742073Y-92681980D01*
X184742071Y-92681977D01*
X184742067Y-92681971D01*
X184590360Y-92487058D01*
X184590357Y-92487055D01*
X184590355Y-92487052D01*
X184408621Y-92319755D01*
X184408618Y-92319753D01*
X184408617Y-92319752D01*
X184328658Y-92267513D01*
X184201831Y-92184652D01*
X184201828Y-92184650D01*
X184201827Y-92184650D01*
X183975623Y-92085428D01*
X183736165Y-92024789D01*
X183588297Y-92012537D01*
X183551645Y-92009500D01*
X181448355Y-92009500D01*
X181415014Y-92012262D01*
X181263834Y-92024789D01*
X181024376Y-92085428D01*
X180798172Y-92184650D01*
X180591382Y-92319752D01*
X180409642Y-92487055D01*
X180409639Y-92487058D01*
X180257932Y-92681971D01*
X180257928Y-92681977D01*
X180140362Y-92899219D01*
X180140359Y-92899228D01*
X180060157Y-93132846D01*
X180019500Y-93376495D01*
X180019500Y-93623504D01*
X149661085Y-93623504D01*
X151347771Y-91936819D01*
X151409095Y-91903334D01*
X151435453Y-91900500D01*
X151494644Y-91900500D01*
X151494646Y-91900500D01*
X151679803Y-91861144D01*
X151852730Y-91784151D01*
X152005871Y-91672888D01*
X152132533Y-91532216D01*
X152227179Y-91368284D01*
X152285674Y-91188256D01*
X152305460Y-91000000D01*
X152285674Y-90811744D01*
X152227179Y-90631716D01*
X152132533Y-90467784D01*
X152005871Y-90327112D01*
X151955676Y-90290643D01*
X151852734Y-90215851D01*
X151852729Y-90215848D01*
X151679807Y-90138857D01*
X151679802Y-90138855D01*
X151534001Y-90107865D01*
X151494646Y-90099500D01*
X151305354Y-90099500D01*
X151272897Y-90106398D01*
X151120197Y-90138855D01*
X151120192Y-90138857D01*
X150947270Y-90215848D01*
X150947265Y-90215851D01*
X150794129Y-90327111D01*
X150667466Y-90467785D01*
X150572821Y-90631715D01*
X150572818Y-90631722D01*
X150514327Y-90811740D01*
X150514326Y-90811744D01*
X150496679Y-90979649D01*
X150470094Y-91044263D01*
X150461039Y-91054368D01*
X146077228Y-95438181D01*
X146015905Y-95471666D01*
X145989547Y-95474500D01*
X143393788Y-95474500D01*
X143326749Y-95454815D01*
X143301638Y-95433472D01*
X143300062Y-95431722D01*
X143205871Y-95327112D01*
X143205870Y-95327111D01*
X143052734Y-95215851D01*
X143052729Y-95215848D01*
X142879807Y-95138857D01*
X142879802Y-95138855D01*
X142734001Y-95107865D01*
X142694646Y-95099500D01*
X142505354Y-95099500D01*
X142472897Y-95106398D01*
X142320197Y-95138855D01*
X142320192Y-95138857D01*
X142147270Y-95215848D01*
X142147265Y-95215851D01*
X141994129Y-95327111D01*
X141867466Y-95467785D01*
X141772821Y-95631715D01*
X141772818Y-95631722D01*
X141719977Y-95794351D01*
X141714326Y-95811744D01*
X141694540Y-96000000D01*
X141381858Y-96000000D01*
X141385674Y-95988256D01*
X141405460Y-95800000D01*
X141385674Y-95611744D01*
X141327179Y-95431716D01*
X141232533Y-95267784D01*
X141105871Y-95127112D01*
X141105870Y-95127111D01*
X140952734Y-95015851D01*
X140952729Y-95015848D01*
X140779807Y-94938857D01*
X140779802Y-94938855D01*
X140634000Y-94907865D01*
X140594646Y-94899500D01*
X140405354Y-94899500D01*
X140372897Y-94906398D01*
X140220197Y-94938855D01*
X140220192Y-94938857D01*
X140047270Y-95015848D01*
X140047265Y-95015851D01*
X139894129Y-95127111D01*
X139767466Y-95267785D01*
X139672821Y-95431715D01*
X139672818Y-95431722D01*
X139620574Y-95592515D01*
X139614326Y-95611744D01*
X139594540Y-95800000D01*
X139614326Y-95988256D01*
X139614327Y-95988259D01*
X139672818Y-96168277D01*
X139672821Y-96168284D01*
X139767467Y-96332216D01*
X139799937Y-96368277D01*
X139842650Y-96415715D01*
X139872880Y-96478706D01*
X139874500Y-96498687D01*
X139874500Y-99205538D01*
X139854815Y-99272577D01*
X139823387Y-99305854D01*
X139808440Y-99316714D01*
X139794127Y-99327113D01*
X139667466Y-99467785D01*
X139572821Y-99631715D01*
X139572818Y-99631722D01*
X139514327Y-99811740D01*
X139514326Y-99811744D01*
X139494540Y-100000000D01*
X105500500Y-100000000D01*
X105500500Y-89500000D01*
X110194540Y-89500000D01*
X110214326Y-89688256D01*
X110214327Y-89688259D01*
X110272818Y-89868277D01*
X110272821Y-89868284D01*
X110367467Y-90032216D01*
X110463487Y-90138857D01*
X110494129Y-90172888D01*
X110647265Y-90284148D01*
X110647270Y-90284151D01*
X110820192Y-90361142D01*
X110820197Y-90361144D01*
X111005354Y-90400500D01*
X111005355Y-90400500D01*
X111194644Y-90400500D01*
X111194646Y-90400500D01*
X111379803Y-90361144D01*
X111552730Y-90284151D01*
X111705871Y-90172888D01*
X111708788Y-90169647D01*
X111711600Y-90166526D01*
X111771087Y-90129879D01*
X111803748Y-90125500D01*
X112961792Y-90125500D01*
X113028831Y-90145185D01*
X113074586Y-90197989D01*
X113084530Y-90267147D01*
X113055505Y-90330703D01*
X113037955Y-90347353D01*
X112980258Y-90392260D01*
X112811833Y-90575217D01*
X112675826Y-90783393D01*
X112575936Y-91011118D01*
X112514892Y-91252175D01*
X112514890Y-91252187D01*
X112494357Y-91499994D01*
X112494357Y-91500005D01*
X112514890Y-91747812D01*
X112514892Y-91747824D01*
X112575936Y-91988881D01*
X112675826Y-92216606D01*
X112811833Y-92424782D01*
X112811836Y-92424785D01*
X112980256Y-92607738D01*
X113176491Y-92760474D01*
X113395190Y-92878828D01*
X113630386Y-92959571D01*
X113875665Y-93000500D01*
X114124335Y-93000500D01*
X114369614Y-92959571D01*
X114604810Y-92878828D01*
X114823509Y-92760474D01*
X115019744Y-92607738D01*
X115188164Y-92424785D01*
X115324173Y-92216607D01*
X115424063Y-91988881D01*
X115485108Y-91747821D01*
X115505643Y-91500000D01*
X115494728Y-91368277D01*
X115485109Y-91252187D01*
X115485107Y-91252175D01*
X115424063Y-91011118D01*
X115324173Y-90783393D01*
X115188166Y-90575217D01*
X115167860Y-90553159D01*
X115019744Y-90392262D01*
X114962045Y-90347353D01*
X114921233Y-90290643D01*
X114917558Y-90220870D01*
X114952190Y-90160187D01*
X115014131Y-90127860D01*
X115038208Y-90125500D01*
X115696252Y-90125500D01*
X115763291Y-90145185D01*
X115788400Y-90166526D01*
X115794126Y-90172885D01*
X115794130Y-90172889D01*
X115947265Y-90284148D01*
X115947270Y-90284151D01*
X116120192Y-90361142D01*
X116120197Y-90361144D01*
X116305354Y-90400500D01*
X116305355Y-90400500D01*
X116494644Y-90400500D01*
X116494646Y-90400500D01*
X116679803Y-90361144D01*
X116852730Y-90284151D01*
X117005871Y-90172888D01*
X117132533Y-90032216D01*
X117227179Y-89868284D01*
X117285674Y-89688256D01*
X117305460Y-89500000D01*
X117285674Y-89311744D01*
X117227179Y-89131716D01*
X117132533Y-88967784D01*
X117005871Y-88827112D01*
X117005870Y-88827111D01*
X116852734Y-88715851D01*
X116852729Y-88715848D01*
X116679807Y-88638857D01*
X116679802Y-88638855D01*
X116534001Y-88607865D01*
X116494646Y-88599500D01*
X116305354Y-88599500D01*
X116272897Y-88606398D01*
X116120197Y-88638855D01*
X116120192Y-88638857D01*
X115947270Y-88715848D01*
X115947265Y-88715851D01*
X115794130Y-88827110D01*
X115794126Y-88827114D01*
X115788400Y-88833474D01*
X115728913Y-88870121D01*
X115696252Y-88874500D01*
X111803748Y-88874500D01*
X111736709Y-88854815D01*
X111711600Y-88833474D01*
X111705873Y-88827114D01*
X111705869Y-88827110D01*
X111552734Y-88715851D01*
X111552729Y-88715848D01*
X111379807Y-88638857D01*
X111379802Y-88638855D01*
X111234000Y-88607865D01*
X111194646Y-88599500D01*
X111005354Y-88599500D01*
X110972897Y-88606398D01*
X110820197Y-88638855D01*
X110820192Y-88638857D01*
X110647270Y-88715848D01*
X110647265Y-88715851D01*
X110494129Y-88827111D01*
X110367466Y-88967785D01*
X110272821Y-89131715D01*
X110272818Y-89131722D01*
X110214327Y-89311740D01*
X110214326Y-89311744D01*
X110194540Y-89500000D01*
X105500500Y-89500000D01*
X105500500Y-88100000D01*
X118094540Y-88100000D01*
X118114326Y-88288256D01*
X118114327Y-88288259D01*
X118172818Y-88468277D01*
X118172821Y-88468284D01*
X118267467Y-88632216D01*
X118394129Y-88772887D01*
X118394129Y-88772888D01*
X118547265Y-88884148D01*
X118547270Y-88884151D01*
X118720192Y-88961142D01*
X118720197Y-88961144D01*
X118905354Y-89000500D01*
X118964548Y-89000500D01*
X119031587Y-89020185D01*
X119052229Y-89036819D01*
X121899197Y-91883788D01*
X121909022Y-91896051D01*
X121909243Y-91895869D01*
X121914214Y-91901878D01*
X121935043Y-91921437D01*
X121964635Y-91949226D01*
X121985529Y-91970120D01*
X121991011Y-91974373D01*
X121995443Y-91978157D01*
X122029418Y-92010062D01*
X122046976Y-92019714D01*
X122063235Y-92030395D01*
X122079064Y-92042673D01*
X122121838Y-92061182D01*
X122127056Y-92063738D01*
X122167908Y-92086197D01*
X122187316Y-92091180D01*
X122205717Y-92097480D01*
X122224104Y-92105437D01*
X122267488Y-92112308D01*
X122270119Y-92112725D01*
X122275839Y-92113909D01*
X122320981Y-92125500D01*
X122341016Y-92125500D01*
X122360414Y-92127026D01*
X122380194Y-92130159D01*
X122380195Y-92130160D01*
X122380195Y-92130159D01*
X122380196Y-92130160D01*
X122426583Y-92125775D01*
X122432422Y-92125500D01*
X135317257Y-92125500D01*
X135332877Y-92127224D01*
X135332904Y-92126939D01*
X135340660Y-92127671D01*
X135340667Y-92127673D01*
X135409814Y-92125500D01*
X135439350Y-92125500D01*
X135446228Y-92124630D01*
X135452041Y-92124172D01*
X135498627Y-92122709D01*
X135517869Y-92117117D01*
X135536912Y-92113174D01*
X135556792Y-92110664D01*
X135600122Y-92093507D01*
X135605646Y-92091617D01*
X135609396Y-92090527D01*
X135650390Y-92078618D01*
X135667629Y-92068422D01*
X135685103Y-92059862D01*
X135703727Y-92052488D01*
X135703727Y-92052487D01*
X135703732Y-92052486D01*
X135741449Y-92025082D01*
X135746305Y-92021892D01*
X135786420Y-91998170D01*
X135800589Y-91983999D01*
X135815379Y-91971368D01*
X135831587Y-91959594D01*
X135861299Y-91923676D01*
X135865212Y-91919376D01*
X138034583Y-89750005D01*
X171844357Y-89750005D01*
X171864890Y-89997812D01*
X171864892Y-89997824D01*
X171925936Y-90238881D01*
X172025826Y-90466606D01*
X172161833Y-90674782D01*
X172161836Y-90674785D01*
X172330256Y-90857738D01*
X172526491Y-91010474D01*
X172745190Y-91128828D01*
X172980386Y-91209571D01*
X173225665Y-91250500D01*
X173474335Y-91250500D01*
X173719614Y-91209571D01*
X173954810Y-91128828D01*
X174173509Y-91010474D01*
X174369744Y-90857738D01*
X174538164Y-90674785D01*
X174674173Y-90466607D01*
X174774063Y-90238881D01*
X174835108Y-89997821D01*
X174855643Y-89750000D01*
X174835108Y-89502179D01*
X174799393Y-89361144D01*
X174774063Y-89261118D01*
X174674173Y-89033393D01*
X174538166Y-88825217D01*
X174516557Y-88801744D01*
X174369744Y-88642262D01*
X174173509Y-88489526D01*
X174173507Y-88489525D01*
X174173506Y-88489524D01*
X173954811Y-88371172D01*
X173954802Y-88371169D01*
X173719616Y-88290429D01*
X173477325Y-88249999D01*
X180041114Y-88249999D01*
X180041116Y-88250000D01*
X181723593Y-88250000D01*
X181790632Y-88269685D01*
X181836387Y-88322489D01*
X181846331Y-88391647D01*
X181843989Y-88403677D01*
X181840000Y-88419859D01*
X181840000Y-88580140D01*
X181843989Y-88596323D01*
X181840921Y-88666125D01*
X181800603Y-88723188D01*
X181735834Y-88749394D01*
X181723593Y-88750000D01*
X180041115Y-88750000D01*
X180060643Y-88867029D01*
X180140818Y-89100570D01*
X180140821Y-89100578D01*
X180258348Y-89317748D01*
X180258352Y-89317754D01*
X180410008Y-89512601D01*
X180410011Y-89512605D01*
X180591688Y-89679851D01*
X180798408Y-89814907D01*
X181024539Y-89914098D01*
X181263909Y-89974715D01*
X181448369Y-89990000D01*
X182250000Y-89990000D01*
X182250000Y-89274458D01*
X182269685Y-89207419D01*
X182322489Y-89161664D01*
X182388944Y-89151362D01*
X182452297Y-89159054D01*
X182460080Y-89160000D01*
X182460081Y-89160000D01*
X182539920Y-89160000D01*
X182547702Y-89159054D01*
X182611055Y-89151362D01*
X182679975Y-89162822D01*
X182731762Y-89209725D01*
X182750000Y-89274458D01*
X182750000Y-89990000D01*
X183551631Y-89990000D01*
X183736090Y-89974715D01*
X183975460Y-89914098D01*
X184201591Y-89814907D01*
X184408311Y-89679851D01*
X184589988Y-89512605D01*
X184589991Y-89512601D01*
X184741647Y-89317754D01*
X184741651Y-89317748D01*
X184859178Y-89100578D01*
X184859181Y-89100570D01*
X184939356Y-88867029D01*
X184958885Y-88750000D01*
X183276407Y-88750000D01*
X183209368Y-88730315D01*
X183163613Y-88677511D01*
X183153669Y-88608353D01*
X183156011Y-88596323D01*
X183157349Y-88590891D01*
X183160000Y-88580138D01*
X183160000Y-88419862D01*
X183156010Y-88403677D01*
X183159079Y-88333875D01*
X183199397Y-88276812D01*
X183264166Y-88250606D01*
X183276407Y-88250000D01*
X184958884Y-88250000D01*
X184958885Y-88249999D01*
X184939356Y-88132970D01*
X184859181Y-87899429D01*
X184859178Y-87899421D01*
X184741651Y-87682251D01*
X184741647Y-87682245D01*
X184589991Y-87487398D01*
X184589988Y-87487394D01*
X184408311Y-87320148D01*
X184201591Y-87185092D01*
X183975460Y-87085901D01*
X183736090Y-87025284D01*
X183551631Y-87010000D01*
X182750000Y-87010000D01*
X182750000Y-87725541D01*
X182730315Y-87792580D01*
X182677511Y-87838335D01*
X182611053Y-87848637D01*
X182539922Y-87840000D01*
X182539919Y-87840000D01*
X182460081Y-87840000D01*
X182460078Y-87840000D01*
X182388947Y-87848637D01*
X182320023Y-87837177D01*
X182268237Y-87790273D01*
X182250000Y-87725541D01*
X182250000Y-87010000D01*
X181448369Y-87010000D01*
X181263909Y-87025284D01*
X181024539Y-87085901D01*
X180798408Y-87185092D01*
X180591688Y-87320148D01*
X180410011Y-87487394D01*
X180410008Y-87487398D01*
X180258352Y-87682245D01*
X180258348Y-87682251D01*
X180140821Y-87899421D01*
X180140818Y-87899429D01*
X180060643Y-88132970D01*
X180041114Y-88249999D01*
X173477325Y-88249999D01*
X173474335Y-88249500D01*
X173225665Y-88249500D01*
X172980383Y-88290429D01*
X172745197Y-88371169D01*
X172745188Y-88371172D01*
X172526493Y-88489524D01*
X172330257Y-88642261D01*
X172161833Y-88825217D01*
X172025826Y-89033393D01*
X171925936Y-89261118D01*
X171864892Y-89502175D01*
X171864890Y-89502187D01*
X171844357Y-89749994D01*
X171844357Y-89750005D01*
X138034583Y-89750005D01*
X138357741Y-89426847D01*
X138419062Y-89393364D01*
X138471197Y-89393240D01*
X138505354Y-89400500D01*
X138505356Y-89400500D01*
X138694644Y-89400500D01*
X138694646Y-89400500D01*
X138879803Y-89361144D01*
X139052730Y-89284151D01*
X139205871Y-89172888D01*
X139332533Y-89032216D01*
X139427179Y-88868284D01*
X139485674Y-88688256D01*
X139505460Y-88500000D01*
X139485674Y-88311744D01*
X139427179Y-88131716D01*
X139332533Y-87967784D01*
X139205871Y-87827112D01*
X139158342Y-87792580D01*
X139052734Y-87715851D01*
X139052729Y-87715848D01*
X138879807Y-87638857D01*
X138879802Y-87638855D01*
X138734001Y-87607865D01*
X138694646Y-87599500D01*
X138505354Y-87599500D01*
X138472897Y-87606398D01*
X138320197Y-87638855D01*
X138320192Y-87638857D01*
X138147270Y-87715848D01*
X138147265Y-87715851D01*
X137994129Y-87827111D01*
X137867466Y-87967785D01*
X137772821Y-88131715D01*
X137772820Y-88131717D01*
X137728654Y-88267643D01*
X137698404Y-88317004D01*
X135177228Y-90838181D01*
X135115905Y-90871666D01*
X135089547Y-90874500D01*
X122710453Y-90874500D01*
X122643414Y-90854815D01*
X122622772Y-90838181D01*
X119938960Y-88154369D01*
X119905475Y-88093046D01*
X119903323Y-88079668D01*
X119885674Y-87911744D01*
X119827179Y-87731716D01*
X119732533Y-87567784D01*
X119605871Y-87427112D01*
X119605870Y-87427111D01*
X119452734Y-87315851D01*
X119452729Y-87315848D01*
X119279807Y-87238857D01*
X119279802Y-87238855D01*
X119134000Y-87207865D01*
X119094646Y-87199500D01*
X118905354Y-87199500D01*
X118872897Y-87206398D01*
X118720197Y-87238855D01*
X118720192Y-87238857D01*
X118547270Y-87315848D01*
X118547265Y-87315851D01*
X118394129Y-87427111D01*
X118267466Y-87567785D01*
X118172821Y-87731715D01*
X118172818Y-87731722D01*
X118118330Y-87899421D01*
X118114326Y-87911744D01*
X118094540Y-88100000D01*
X105500500Y-88100000D01*
X105500500Y-85500005D01*
X109994357Y-85500005D01*
X110014890Y-85747812D01*
X110014892Y-85747824D01*
X110075936Y-85988881D01*
X110175826Y-86216606D01*
X110311833Y-86424782D01*
X110311836Y-86424785D01*
X110480256Y-86607738D01*
X110676491Y-86760474D01*
X110895190Y-86878828D01*
X111130386Y-86959571D01*
X111375665Y-87000500D01*
X111624335Y-87000500D01*
X111869614Y-86959571D01*
X112104810Y-86878828D01*
X112323509Y-86760474D01*
X112519744Y-86607738D01*
X112658770Y-86456714D01*
X112718657Y-86420725D01*
X112788495Y-86422825D01*
X112841229Y-86456714D01*
X112980256Y-86607738D01*
X113176491Y-86760474D01*
X113395190Y-86878828D01*
X113630386Y-86959571D01*
X113875665Y-87000500D01*
X114124335Y-87000500D01*
X114369614Y-86959571D01*
X114604810Y-86878828D01*
X114823509Y-86760474D01*
X115019744Y-86607738D01*
X115188164Y-86424785D01*
X115324173Y-86216607D01*
X115424063Y-85988881D01*
X115485108Y-85747821D01*
X115505643Y-85500005D01*
X119994357Y-85500005D01*
X120014890Y-85747812D01*
X120014892Y-85747824D01*
X120075936Y-85988881D01*
X120175826Y-86216606D01*
X120311833Y-86424782D01*
X120311836Y-86424785D01*
X120480256Y-86607738D01*
X120676491Y-86760474D01*
X120895190Y-86878828D01*
X121130386Y-86959571D01*
X121375665Y-87000500D01*
X121624335Y-87000500D01*
X121869614Y-86959571D01*
X122104810Y-86878828D01*
X122323509Y-86760474D01*
X122519744Y-86607738D01*
X122688164Y-86424785D01*
X122824173Y-86216607D01*
X122924063Y-85988881D01*
X122985108Y-85747821D01*
X123005643Y-85500000D01*
X122985108Y-85252179D01*
X122924063Y-85011119D01*
X122914799Y-84990000D01*
X122824173Y-84783393D01*
X122688166Y-84575217D01*
X122630524Y-84512601D01*
X122519744Y-84392262D01*
X122323509Y-84239526D01*
X122323507Y-84239525D01*
X122323506Y-84239524D01*
X122104811Y-84121172D01*
X122104802Y-84121169D01*
X121869616Y-84040429D01*
X121624335Y-83999500D01*
X121375665Y-83999500D01*
X121130383Y-84040429D01*
X120895197Y-84121169D01*
X120895188Y-84121172D01*
X120676493Y-84239524D01*
X120480257Y-84392261D01*
X120311833Y-84575217D01*
X120175826Y-84783393D01*
X120075936Y-85011118D01*
X120014892Y-85252175D01*
X120014890Y-85252187D01*
X119994357Y-85499994D01*
X119994357Y-85500005D01*
X115505643Y-85500005D01*
X115505643Y-85500000D01*
X115485108Y-85252179D01*
X115424063Y-85011119D01*
X115414799Y-84990000D01*
X115324173Y-84783393D01*
X115188166Y-84575217D01*
X115026866Y-84399999D01*
X115019744Y-84392262D01*
X114981529Y-84362518D01*
X114962686Y-84347852D01*
X114921873Y-84291141D01*
X114918200Y-84221368D01*
X114952831Y-84160685D01*
X114962673Y-84152157D01*
X115019744Y-84107738D01*
X115188164Y-83924785D01*
X115324173Y-83716607D01*
X115424063Y-83488881D01*
X115485108Y-83247821D01*
X115505643Y-83000000D01*
X115497309Y-82899429D01*
X115485109Y-82752187D01*
X115485107Y-82752175D01*
X115424063Y-82511118D01*
X115324173Y-82283393D01*
X115188166Y-82075217D01*
X115126047Y-82007738D01*
X115019744Y-81892262D01*
X114962685Y-81847851D01*
X114921874Y-81791143D01*
X114918199Y-81721370D01*
X114952830Y-81660687D01*
X114962675Y-81652156D01*
X115019744Y-81607738D01*
X115188164Y-81424785D01*
X115324173Y-81216607D01*
X115424063Y-80988881D01*
X115485108Y-80747821D01*
X115486798Y-80727423D01*
X115505643Y-80500005D01*
X115505643Y-80499994D01*
X115485109Y-80252187D01*
X115485107Y-80252175D01*
X115424063Y-80011118D01*
X115324173Y-79783393D01*
X115188166Y-79575217D01*
X115153787Y-79537872D01*
X115019744Y-79392262D01*
X114823509Y-79239526D01*
X114823507Y-79239525D01*
X114823506Y-79239524D01*
X114604811Y-79121172D01*
X114604802Y-79121169D01*
X114369616Y-79040429D01*
X114124335Y-78999500D01*
X113875665Y-78999500D01*
X113630383Y-79040429D01*
X113395197Y-79121169D01*
X113395188Y-79121172D01*
X113176493Y-79239524D01*
X112980256Y-79392261D01*
X112841228Y-79543285D01*
X112781341Y-79579275D01*
X112711503Y-79577174D01*
X112658769Y-79543284D01*
X112653787Y-79537872D01*
X112519744Y-79392262D01*
X112323509Y-79239526D01*
X112323507Y-79239525D01*
X112323506Y-79239524D01*
X112104811Y-79121172D01*
X112104802Y-79121169D01*
X111869616Y-79040429D01*
X111624335Y-78999500D01*
X111375665Y-78999500D01*
X111130383Y-79040429D01*
X110895197Y-79121169D01*
X110895188Y-79121172D01*
X110676493Y-79239524D01*
X110480257Y-79392261D01*
X110311833Y-79575217D01*
X110175826Y-79783393D01*
X110075936Y-80011118D01*
X110014892Y-80252175D01*
X110014890Y-80252187D01*
X109994357Y-80499994D01*
X109994357Y-80500005D01*
X110014890Y-80747812D01*
X110014892Y-80747824D01*
X110075936Y-80988881D01*
X110175826Y-81216606D01*
X110311833Y-81424782D01*
X110311836Y-81424785D01*
X110480256Y-81607738D01*
X110537312Y-81652147D01*
X110578125Y-81708857D01*
X110581800Y-81778630D01*
X110547169Y-81839313D01*
X110537317Y-81847848D01*
X110497283Y-81879008D01*
X110480257Y-81892261D01*
X110311833Y-82075217D01*
X110175826Y-82283393D01*
X110075936Y-82511118D01*
X110014892Y-82752175D01*
X110014890Y-82752187D01*
X109994357Y-82999994D01*
X109994357Y-83000005D01*
X110014890Y-83247812D01*
X110014892Y-83247824D01*
X110075936Y-83488881D01*
X110175826Y-83716606D01*
X110311833Y-83924782D01*
X110311836Y-83924785D01*
X110480256Y-84107738D01*
X110537312Y-84152147D01*
X110578125Y-84208857D01*
X110581800Y-84278630D01*
X110547169Y-84339313D01*
X110537317Y-84347848D01*
X110497283Y-84379008D01*
X110480257Y-84392261D01*
X110311833Y-84575217D01*
X110175826Y-84783393D01*
X110075936Y-85011118D01*
X110014892Y-85252175D01*
X110014890Y-85252187D01*
X109994357Y-85499994D01*
X109994357Y-85500005D01*
X105500500Y-85500005D01*
X105500500Y-75100000D01*
X105794540Y-75100000D01*
X105814326Y-75288256D01*
X105814327Y-75288259D01*
X105872818Y-75468277D01*
X105872821Y-75468284D01*
X105967467Y-75632216D01*
X106000855Y-75669297D01*
X106042650Y-75715715D01*
X106072880Y-75778706D01*
X106074500Y-75798687D01*
X106074500Y-76117255D01*
X106072775Y-76132872D01*
X106073061Y-76132899D01*
X106072326Y-76140665D01*
X106074500Y-76209814D01*
X106074500Y-76239343D01*
X106074501Y-76239360D01*
X106075368Y-76246231D01*
X106075826Y-76252050D01*
X106077290Y-76298624D01*
X106077291Y-76298627D01*
X106082880Y-76317867D01*
X106086824Y-76336911D01*
X106089336Y-76356791D01*
X106106490Y-76400119D01*
X106108382Y-76405647D01*
X106121381Y-76450388D01*
X106131580Y-76467634D01*
X106140138Y-76485103D01*
X106147514Y-76503732D01*
X106174898Y-76541423D01*
X106178106Y-76546307D01*
X106201827Y-76586416D01*
X106201833Y-76586424D01*
X106215990Y-76600580D01*
X106228628Y-76615376D01*
X106240405Y-76631586D01*
X106240406Y-76631587D01*
X106276308Y-76661287D01*
X106280619Y-76665209D01*
X106483686Y-76868277D01*
X106499198Y-76883789D01*
X106509022Y-76896050D01*
X106509243Y-76895868D01*
X106514213Y-76901876D01*
X106564637Y-76949228D01*
X106585523Y-76970115D01*
X106585527Y-76970118D01*
X106585529Y-76970120D01*
X106591011Y-76974373D01*
X106595443Y-76978157D01*
X106629418Y-77010062D01*
X106646976Y-77019714D01*
X106663233Y-77030393D01*
X106679064Y-77042673D01*
X106698737Y-77051186D01*
X106721833Y-77061182D01*
X106727077Y-77063750D01*
X106767908Y-77086197D01*
X106780523Y-77089435D01*
X106787305Y-77091177D01*
X106805719Y-77097481D01*
X106824104Y-77105438D01*
X106870157Y-77112732D01*
X106875826Y-77113906D01*
X106920981Y-77125500D01*
X106941016Y-77125500D01*
X106960413Y-77127026D01*
X106980196Y-77130160D01*
X107026583Y-77125775D01*
X107032422Y-77125500D01*
X109496252Y-77125500D01*
X109563291Y-77145185D01*
X109588400Y-77166526D01*
X109594126Y-77172885D01*
X109594130Y-77172889D01*
X109747265Y-77284148D01*
X109747270Y-77284151D01*
X109920192Y-77361142D01*
X109920197Y-77361144D01*
X110105354Y-77400500D01*
X110105355Y-77400500D01*
X110294644Y-77400500D01*
X110294646Y-77400500D01*
X110479803Y-77361144D01*
X110652730Y-77284151D01*
X110805871Y-77172888D01*
X110932533Y-77032216D01*
X111027179Y-76868284D01*
X111085674Y-76688256D01*
X111105460Y-76500000D01*
X111085674Y-76311744D01*
X111027179Y-76131716D01*
X110932533Y-75967784D01*
X110805871Y-75827112D01*
X110805870Y-75827111D01*
X110652734Y-75715851D01*
X110652729Y-75715848D01*
X110479807Y-75638857D01*
X110479802Y-75638855D01*
X110334001Y-75607865D01*
X110294646Y-75599500D01*
X110105354Y-75599500D01*
X110072897Y-75606398D01*
X109920197Y-75638855D01*
X109920192Y-75638857D01*
X109747270Y-75715848D01*
X109747265Y-75715851D01*
X109594130Y-75827110D01*
X109594126Y-75827114D01*
X109588400Y-75833474D01*
X109528913Y-75870121D01*
X109496252Y-75874500D01*
X107492888Y-75874500D01*
X107425849Y-75854815D01*
X107380094Y-75802011D01*
X107370150Y-75732853D01*
X107399175Y-75669297D01*
X107400738Y-75667528D01*
X107417303Y-75649130D01*
X107432533Y-75632216D01*
X107527179Y-75468284D01*
X107585674Y-75288256D01*
X107605460Y-75100000D01*
X107585674Y-74911744D01*
X107527179Y-74731716D01*
X107432533Y-74567784D01*
X107305871Y-74427112D01*
X107305870Y-74427111D01*
X107152734Y-74315851D01*
X107152729Y-74315848D01*
X106979807Y-74238857D01*
X106979802Y-74238855D01*
X106834001Y-74207865D01*
X106794646Y-74199500D01*
X106605354Y-74199500D01*
X106572897Y-74206398D01*
X106420197Y-74238855D01*
X106420192Y-74238857D01*
X106247270Y-74315848D01*
X106247265Y-74315851D01*
X106094129Y-74427111D01*
X105967466Y-74567785D01*
X105872821Y-74731715D01*
X105872818Y-74731722D01*
X105814327Y-74911740D01*
X105814326Y-74911744D01*
X105794540Y-75100000D01*
X105500500Y-75100000D01*
X105500500Y-72000000D01*
X116494540Y-72000000D01*
X116514326Y-72188256D01*
X116514327Y-72188259D01*
X116572818Y-72368277D01*
X116572821Y-72368284D01*
X116667467Y-72532216D01*
X116710772Y-72580310D01*
X116742650Y-72615715D01*
X116772880Y-72678706D01*
X116774500Y-72698687D01*
X116774499Y-75517255D01*
X116772776Y-75532872D01*
X116773061Y-75532899D01*
X116772326Y-75540665D01*
X116774500Y-75609814D01*
X116774500Y-75639343D01*
X116774501Y-75639360D01*
X116775368Y-75646231D01*
X116775826Y-75652050D01*
X116777290Y-75698624D01*
X116777291Y-75698627D01*
X116782880Y-75717867D01*
X116786824Y-75736911D01*
X116789336Y-75756791D01*
X116806490Y-75800119D01*
X116808382Y-75805647D01*
X116821381Y-75850388D01*
X116831580Y-75867634D01*
X116840138Y-75885103D01*
X116847514Y-75903732D01*
X116874898Y-75941423D01*
X116878106Y-75946307D01*
X116901827Y-75986416D01*
X116901833Y-75986424D01*
X116915990Y-76000580D01*
X116928628Y-76015376D01*
X116940405Y-76031586D01*
X116940406Y-76031587D01*
X116976309Y-76061288D01*
X116980620Y-76065210D01*
X117783687Y-76868277D01*
X120178748Y-79263339D01*
X120212233Y-79324662D01*
X120207249Y-79394354D01*
X120165377Y-79450287D01*
X120099913Y-79474704D01*
X120050804Y-79468301D01*
X119969616Y-79440429D01*
X119724335Y-79399500D01*
X119475665Y-79399500D01*
X119230383Y-79440429D01*
X118995197Y-79521169D01*
X118995188Y-79521172D01*
X118776493Y-79639524D01*
X118580257Y-79792261D01*
X118411833Y-79975217D01*
X118275826Y-80183393D01*
X118175936Y-80411118D01*
X118114892Y-80652175D01*
X118114890Y-80652187D01*
X118094357Y-80899994D01*
X118094357Y-80900005D01*
X118114890Y-81147812D01*
X118114892Y-81147824D01*
X118175936Y-81388881D01*
X118275826Y-81616606D01*
X118411833Y-81824782D01*
X118411836Y-81824785D01*
X118580256Y-82007738D01*
X118776491Y-82160474D01*
X118995190Y-82278828D01*
X119230386Y-82359571D01*
X119475665Y-82400500D01*
X119724335Y-82400500D01*
X119969614Y-82359571D01*
X120204810Y-82278828D01*
X120423509Y-82160474D01*
X120619744Y-82007738D01*
X120788164Y-81824785D01*
X120924173Y-81616607D01*
X121024063Y-81388881D01*
X121085108Y-81147821D01*
X121085109Y-81147812D01*
X121105643Y-80900005D01*
X121105643Y-80899994D01*
X121085109Y-80652187D01*
X121085108Y-80652184D01*
X121085108Y-80652179D01*
X121032046Y-80442643D01*
X121034671Y-80372825D01*
X121074627Y-80315508D01*
X121139228Y-80288891D01*
X121207964Y-80301425D01*
X121239933Y-80324524D01*
X121761038Y-80845629D01*
X121794523Y-80906952D01*
X121796678Y-80920348D01*
X121804968Y-80999227D01*
X121814326Y-81088256D01*
X121814327Y-81088259D01*
X121872818Y-81268277D01*
X121872821Y-81268284D01*
X121967467Y-81432216D01*
X122094129Y-81572887D01*
X122094129Y-81572888D01*
X122247265Y-81684148D01*
X122247270Y-81684151D01*
X122420192Y-81761142D01*
X122420197Y-81761144D01*
X122605354Y-81800500D01*
X122605355Y-81800500D01*
X122794644Y-81800500D01*
X122794646Y-81800500D01*
X122979803Y-81761144D01*
X123152730Y-81684151D01*
X123305871Y-81572888D01*
X123432533Y-81432216D01*
X123443112Y-81413891D01*
X123493679Y-81365676D01*
X123562286Y-81352452D01*
X123627151Y-81378420D01*
X123667680Y-81435334D01*
X123674500Y-81475891D01*
X123674500Y-83701312D01*
X123654815Y-83768351D01*
X123642650Y-83784284D01*
X123567466Y-83867784D01*
X123472821Y-84031715D01*
X123472818Y-84031722D01*
X123415731Y-84207419D01*
X123414326Y-84211744D01*
X123394540Y-84400000D01*
X123414326Y-84588256D01*
X123414327Y-84588259D01*
X123472818Y-84768277D01*
X123472821Y-84768284D01*
X123567467Y-84932216D01*
X123638511Y-85011118D01*
X123694129Y-85072888D01*
X123847265Y-85184148D01*
X123847270Y-85184151D01*
X124020192Y-85261142D01*
X124020197Y-85261144D01*
X124205354Y-85300500D01*
X124205355Y-85300500D01*
X124394644Y-85300500D01*
X124394646Y-85300500D01*
X124579803Y-85261144D01*
X124752730Y-85184151D01*
X124905871Y-85072888D01*
X125032533Y-84932216D01*
X125127179Y-84768284D01*
X125185674Y-84588256D01*
X125205460Y-84400000D01*
X125185674Y-84211744D01*
X125127179Y-84031716D01*
X125032533Y-83867784D01*
X125031853Y-83867029D01*
X124957350Y-83784284D01*
X124927120Y-83721292D01*
X124925500Y-83701312D01*
X124925500Y-83249999D01*
X180041114Y-83249999D01*
X180041116Y-83250000D01*
X181723593Y-83250000D01*
X181790632Y-83269685D01*
X181836387Y-83322489D01*
X181846331Y-83391647D01*
X181843989Y-83403677D01*
X181840000Y-83419859D01*
X181840000Y-83580140D01*
X181843989Y-83596323D01*
X181840921Y-83666125D01*
X181800603Y-83723188D01*
X181735834Y-83749394D01*
X181723593Y-83750000D01*
X180041115Y-83750000D01*
X180060643Y-83867029D01*
X180140818Y-84100570D01*
X180140821Y-84100578D01*
X180258348Y-84317748D01*
X180258352Y-84317754D01*
X180410008Y-84512601D01*
X180410011Y-84512605D01*
X180591688Y-84679851D01*
X180798408Y-84814907D01*
X181024539Y-84914098D01*
X181263909Y-84974715D01*
X181448369Y-84990000D01*
X182250000Y-84990000D01*
X182250000Y-84274458D01*
X182269685Y-84207419D01*
X182322489Y-84161664D01*
X182388944Y-84151362D01*
X182452297Y-84159054D01*
X182460080Y-84160000D01*
X182460081Y-84160000D01*
X182539920Y-84160000D01*
X182547702Y-84159054D01*
X182611055Y-84151362D01*
X182679975Y-84162822D01*
X182731762Y-84209725D01*
X182750000Y-84274458D01*
X182750000Y-84990000D01*
X183551631Y-84990000D01*
X183736090Y-84974715D01*
X183975460Y-84914098D01*
X184201591Y-84814907D01*
X184408311Y-84679851D01*
X184589988Y-84512605D01*
X184589991Y-84512601D01*
X184741647Y-84317754D01*
X184741651Y-84317748D01*
X184859178Y-84100578D01*
X184859181Y-84100570D01*
X184939356Y-83867029D01*
X184958885Y-83750000D01*
X183276407Y-83750000D01*
X183209368Y-83730315D01*
X183163613Y-83677511D01*
X183153669Y-83608353D01*
X183156011Y-83596323D01*
X183157349Y-83590891D01*
X183160000Y-83580138D01*
X183160000Y-83419862D01*
X183156010Y-83403677D01*
X183159079Y-83333875D01*
X183199397Y-83276812D01*
X183264166Y-83250606D01*
X183276407Y-83250000D01*
X184958884Y-83250000D01*
X184958885Y-83249999D01*
X184939356Y-83132970D01*
X184859181Y-82899429D01*
X184859178Y-82899421D01*
X184741651Y-82682251D01*
X184741647Y-82682245D01*
X184589991Y-82487398D01*
X184589988Y-82487394D01*
X184408311Y-82320148D01*
X184201591Y-82185092D01*
X183975460Y-82085901D01*
X183736090Y-82025284D01*
X183551631Y-82010000D01*
X182750000Y-82010000D01*
X182750000Y-82725541D01*
X182730315Y-82792580D01*
X182677511Y-82838335D01*
X182611053Y-82848637D01*
X182539922Y-82840000D01*
X182539919Y-82840000D01*
X182460081Y-82840000D01*
X182460078Y-82840000D01*
X182388947Y-82848637D01*
X182320023Y-82837177D01*
X182268237Y-82790273D01*
X182250000Y-82725541D01*
X182250000Y-82010000D01*
X181448369Y-82010000D01*
X181263909Y-82025284D01*
X181024539Y-82085901D01*
X180798408Y-82185092D01*
X180591688Y-82320148D01*
X180410011Y-82487394D01*
X180410008Y-82487398D01*
X180258352Y-82682245D01*
X180258348Y-82682251D01*
X180140821Y-82899421D01*
X180140818Y-82899429D01*
X180060643Y-83132970D01*
X180041114Y-83249999D01*
X124925500Y-83249999D01*
X124925500Y-80800000D01*
X129694540Y-80800000D01*
X129714326Y-80988256D01*
X129714327Y-80988259D01*
X129772818Y-81168277D01*
X129772821Y-81168284D01*
X129867467Y-81332216D01*
X129918489Y-81388881D01*
X129994129Y-81472888D01*
X130147265Y-81584148D01*
X130147270Y-81584151D01*
X130320192Y-81661142D01*
X130320197Y-81661144D01*
X130505354Y-81700500D01*
X130505355Y-81700500D01*
X130694644Y-81700500D01*
X130694646Y-81700500D01*
X130879803Y-81661144D01*
X131052730Y-81584151D01*
X131205871Y-81472888D01*
X131332533Y-81332216D01*
X131427179Y-81168284D01*
X131485674Y-80988256D01*
X131503321Y-80820344D01*
X131529904Y-80755734D01*
X131538951Y-80745638D01*
X132746719Y-79537870D01*
X180019500Y-79537870D01*
X180019501Y-79537876D01*
X180025908Y-79597483D01*
X180076202Y-79732328D01*
X180076206Y-79732335D01*
X180162452Y-79847544D01*
X180162455Y-79847547D01*
X180277664Y-79933793D01*
X180277671Y-79933797D01*
X180412517Y-79984091D01*
X180412516Y-79984091D01*
X180419444Y-79984835D01*
X180472127Y-79990500D01*
X184527872Y-79990499D01*
X184587483Y-79984091D01*
X184722331Y-79933796D01*
X184837546Y-79847546D01*
X184923796Y-79732331D01*
X184974091Y-79597483D01*
X184980500Y-79537873D01*
X184980499Y-77462128D01*
X184974091Y-77402517D01*
X184929943Y-77284151D01*
X184923797Y-77267671D01*
X184923793Y-77267664D01*
X184837547Y-77152455D01*
X184837544Y-77152452D01*
X184722335Y-77066206D01*
X184722328Y-77066202D01*
X184587482Y-77015908D01*
X184587483Y-77015908D01*
X184527883Y-77009501D01*
X184527881Y-77009500D01*
X184527873Y-77009500D01*
X184527864Y-77009500D01*
X180472129Y-77009500D01*
X180472123Y-77009501D01*
X180412516Y-77015908D01*
X180277671Y-77066202D01*
X180277664Y-77066206D01*
X180162455Y-77152452D01*
X180162452Y-77152455D01*
X180076206Y-77267664D01*
X180076202Y-77267671D01*
X180025908Y-77402517D01*
X180019501Y-77462116D01*
X180019501Y-77462123D01*
X180019500Y-77462135D01*
X180019500Y-79537870D01*
X132746719Y-79537870D01*
X133783788Y-78500801D01*
X133796042Y-78490986D01*
X133795859Y-78490764D01*
X133801866Y-78485792D01*
X133801877Y-78485786D01*
X133832775Y-78452882D01*
X133849227Y-78435364D01*
X133859671Y-78424918D01*
X133870120Y-78414471D01*
X133874379Y-78408978D01*
X133878152Y-78404561D01*
X133910062Y-78370582D01*
X133919715Y-78353020D01*
X133930389Y-78336770D01*
X133942673Y-78320936D01*
X133961180Y-78278167D01*
X133963749Y-78272924D01*
X133986196Y-78232093D01*
X133986197Y-78232092D01*
X133991177Y-78212691D01*
X133997478Y-78194288D01*
X134005438Y-78175896D01*
X134012730Y-78129849D01*
X134013911Y-78124152D01*
X134025500Y-78079019D01*
X134025500Y-78058982D01*
X134027027Y-78039582D01*
X134030160Y-78019804D01*
X134025775Y-77973415D01*
X134025500Y-77967577D01*
X134025500Y-66598687D01*
X134045185Y-66531648D01*
X134057350Y-66515715D01*
X134075891Y-66495122D01*
X134132533Y-66432216D01*
X134227179Y-66268284D01*
X134285674Y-66088256D01*
X134305460Y-65900000D01*
X134285674Y-65711744D01*
X134227179Y-65531716D01*
X134132533Y-65367784D01*
X134005871Y-65227112D01*
X134005870Y-65227111D01*
X133968562Y-65200005D01*
X141394357Y-65200005D01*
X141414890Y-65447812D01*
X141414892Y-65447824D01*
X141475936Y-65688881D01*
X141575826Y-65916606D01*
X141711833Y-66124782D01*
X141711836Y-66124785D01*
X141880256Y-66307738D01*
X142076491Y-66460474D01*
X142295190Y-66578828D01*
X142530386Y-66659571D01*
X142775665Y-66700500D01*
X143024335Y-66700500D01*
X143269614Y-66659571D01*
X143504810Y-66578828D01*
X143723509Y-66460474D01*
X143919744Y-66307738D01*
X144088164Y-66124785D01*
X144224173Y-65916607D01*
X144324063Y-65688881D01*
X144385108Y-65447821D01*
X144391740Y-65367784D01*
X144405643Y-65200005D01*
X144405643Y-65199994D01*
X144385109Y-64952187D01*
X144385107Y-64952175D01*
X144324063Y-64711118D01*
X144224173Y-64483393D01*
X144088166Y-64275217D01*
X144066557Y-64251744D01*
X143919744Y-64092262D01*
X143723509Y-63939526D01*
X143723507Y-63939525D01*
X143723506Y-63939524D01*
X143504811Y-63821172D01*
X143504802Y-63821169D01*
X143269616Y-63740429D01*
X143024335Y-63699500D01*
X142775665Y-63699500D01*
X142530383Y-63740429D01*
X142295197Y-63821169D01*
X142295188Y-63821172D01*
X142076493Y-63939524D01*
X141880257Y-64092261D01*
X141711833Y-64275217D01*
X141575826Y-64483393D01*
X141475936Y-64711118D01*
X141414892Y-64952175D01*
X141414890Y-64952187D01*
X141394357Y-65199994D01*
X141394357Y-65200005D01*
X133968562Y-65200005D01*
X133852734Y-65115851D01*
X133852729Y-65115848D01*
X133679807Y-65038857D01*
X133679802Y-65038855D01*
X133534000Y-65007865D01*
X133494646Y-64999500D01*
X133305354Y-64999500D01*
X133272897Y-65006398D01*
X133120197Y-65038855D01*
X133120192Y-65038857D01*
X132947270Y-65115848D01*
X132947265Y-65115851D01*
X132794129Y-65227111D01*
X132667466Y-65367785D01*
X132572821Y-65531715D01*
X132572818Y-65531722D01*
X132514327Y-65711740D01*
X132514326Y-65711744D01*
X132494540Y-65900000D01*
X132514326Y-66088256D01*
X132514327Y-66088259D01*
X132572818Y-66268277D01*
X132572821Y-66268284D01*
X132667466Y-66432215D01*
X132742649Y-66515715D01*
X132772879Y-66578707D01*
X132774499Y-66598687D01*
X132774500Y-77689546D01*
X132754815Y-77756585D01*
X132738181Y-77777227D01*
X130652228Y-79863181D01*
X130590905Y-79896666D01*
X130564547Y-79899500D01*
X130505354Y-79899500D01*
X130472897Y-79906398D01*
X130320197Y-79938855D01*
X130320192Y-79938857D01*
X130147270Y-80015848D01*
X130147265Y-80015851D01*
X129994129Y-80127111D01*
X129867466Y-80267785D01*
X129772821Y-80431715D01*
X129772818Y-80431722D01*
X129714327Y-80611740D01*
X129714326Y-80611744D01*
X129694540Y-80800000D01*
X124925500Y-80800000D01*
X124925500Y-80794462D01*
X124945185Y-80727423D01*
X124976615Y-80694144D01*
X124986665Y-80686841D01*
X125005871Y-80672888D01*
X125132533Y-80532216D01*
X125227179Y-80368284D01*
X125285674Y-80188256D01*
X125305460Y-80000000D01*
X125285674Y-79811744D01*
X125227179Y-79631716D01*
X125132533Y-79467784D01*
X125005871Y-79327112D01*
X125002499Y-79324662D01*
X124852734Y-79215851D01*
X124852729Y-79215848D01*
X124679807Y-79138857D01*
X124679802Y-79138855D01*
X124534001Y-79107865D01*
X124494646Y-79099500D01*
X124305354Y-79099500D01*
X124272897Y-79106398D01*
X124120197Y-79138855D01*
X124120192Y-79138857D01*
X123947270Y-79215848D01*
X123947265Y-79215851D01*
X123794129Y-79327111D01*
X123667466Y-79467785D01*
X123572821Y-79631715D01*
X123572818Y-79631722D01*
X123520656Y-79792261D01*
X123514326Y-79811744D01*
X123496212Y-79984091D01*
X123494540Y-80000000D01*
X123506870Y-80117315D01*
X123494300Y-80186045D01*
X123446568Y-80237068D01*
X123378828Y-80254186D01*
X123312586Y-80231963D01*
X123310664Y-80230594D01*
X123152734Y-80115851D01*
X123152729Y-80115848D01*
X122979807Y-80038857D01*
X122979802Y-80038855D01*
X122834001Y-80007865D01*
X122794646Y-79999500D01*
X122794645Y-79999500D01*
X122735452Y-79999500D01*
X122668413Y-79979815D01*
X122647771Y-79963181D01*
X120374136Y-77689546D01*
X118061816Y-75377225D01*
X118028333Y-75315905D01*
X118025500Y-75289556D01*
X118025500Y-74800000D01*
X125894540Y-74800000D01*
X125914326Y-74988256D01*
X125914327Y-74988259D01*
X125972818Y-75168277D01*
X125972821Y-75168284D01*
X126067467Y-75332216D01*
X126189977Y-75468277D01*
X126194129Y-75472888D01*
X126347265Y-75584148D01*
X126347270Y-75584151D01*
X126520192Y-75661142D01*
X126520197Y-75661144D01*
X126705354Y-75700500D01*
X126705355Y-75700500D01*
X126894644Y-75700500D01*
X126894646Y-75700500D01*
X127079803Y-75661144D01*
X127252730Y-75584151D01*
X127405871Y-75472888D01*
X127532533Y-75332216D01*
X127627179Y-75168284D01*
X127685674Y-74988256D01*
X127705460Y-74800000D01*
X127685674Y-74611744D01*
X127627179Y-74431716D01*
X127532533Y-74267784D01*
X127506485Y-74238855D01*
X127457349Y-74184283D01*
X127427119Y-74121291D01*
X127425499Y-74101311D01*
X127425499Y-71099500D01*
X127425499Y-64010448D01*
X127445184Y-63943413D01*
X127461813Y-63922776D01*
X128247771Y-63136819D01*
X128309095Y-63103334D01*
X128335453Y-63100500D01*
X128394644Y-63100500D01*
X128394646Y-63100500D01*
X128579803Y-63061144D01*
X128752730Y-62984151D01*
X128905871Y-62872888D01*
X129032533Y-62732216D01*
X129127179Y-62568284D01*
X129185674Y-62388256D01*
X129205460Y-62200000D01*
X129185674Y-62011744D01*
X129127179Y-61831716D01*
X129032533Y-61667784D01*
X128905871Y-61527112D01*
X128905870Y-61527111D01*
X128752734Y-61415851D01*
X128752729Y-61415848D01*
X128579807Y-61338857D01*
X128579802Y-61338855D01*
X128434000Y-61307865D01*
X128394646Y-61299500D01*
X128205354Y-61299500D01*
X128172897Y-61306398D01*
X128020197Y-61338855D01*
X128020192Y-61338857D01*
X127847270Y-61415848D01*
X127847265Y-61415851D01*
X127694129Y-61527111D01*
X127567466Y-61667785D01*
X127472821Y-61831715D01*
X127472818Y-61831722D01*
X127414327Y-62011740D01*
X127414326Y-62011744D01*
X127407655Y-62075215D01*
X127396679Y-62179649D01*
X127370094Y-62244263D01*
X127361039Y-62254368D01*
X126416208Y-63199199D01*
X126403951Y-63209020D01*
X126404134Y-63209241D01*
X126398123Y-63214213D01*
X126350772Y-63264636D01*
X126329889Y-63285519D01*
X126329877Y-63285532D01*
X126325621Y-63291017D01*
X126321837Y-63295447D01*
X126289937Y-63329418D01*
X126289936Y-63329420D01*
X126280284Y-63346976D01*
X126269610Y-63363226D01*
X126257329Y-63379061D01*
X126257324Y-63379068D01*
X126238815Y-63421838D01*
X126236245Y-63427084D01*
X126213803Y-63467906D01*
X126208822Y-63487307D01*
X126202521Y-63505710D01*
X126194562Y-63524102D01*
X126194561Y-63524105D01*
X126187271Y-63570127D01*
X126186087Y-63575846D01*
X126174501Y-63620972D01*
X126174500Y-63620982D01*
X126174500Y-63641016D01*
X126172973Y-63660415D01*
X126169840Y-63680194D01*
X126169840Y-63680195D01*
X126174225Y-63726583D01*
X126174500Y-63732421D01*
X126174500Y-74101312D01*
X126154815Y-74168351D01*
X126142650Y-74184284D01*
X126067466Y-74267784D01*
X125972821Y-74431715D01*
X125972818Y-74431722D01*
X125928609Y-74567785D01*
X125914326Y-74611744D01*
X125894540Y-74800000D01*
X118025500Y-74800000D01*
X118025500Y-72698687D01*
X118045185Y-72631647D01*
X118057350Y-72615715D01*
X118075891Y-72595122D01*
X118132533Y-72532216D01*
X118227179Y-72368284D01*
X118285674Y-72188256D01*
X118305460Y-72000000D01*
X118285674Y-71811744D01*
X118227179Y-71631716D01*
X118132533Y-71467784D01*
X118005871Y-71327112D01*
X118005870Y-71327111D01*
X117852734Y-71215851D01*
X117852729Y-71215848D01*
X117679807Y-71138857D01*
X117679802Y-71138855D01*
X117534000Y-71107865D01*
X117494646Y-71099500D01*
X117305354Y-71099500D01*
X117272897Y-71106398D01*
X117120197Y-71138855D01*
X117120192Y-71138857D01*
X116947270Y-71215848D01*
X116947265Y-71215851D01*
X116794129Y-71327111D01*
X116667466Y-71467785D01*
X116572821Y-71631715D01*
X116572818Y-71631722D01*
X116514327Y-71811740D01*
X116514326Y-71811744D01*
X116494540Y-72000000D01*
X105500500Y-72000000D01*
X105500500Y-63000005D01*
X119244357Y-63000005D01*
X119264890Y-63247812D01*
X119264892Y-63247824D01*
X119325936Y-63488881D01*
X119425826Y-63716606D01*
X119561833Y-63924782D01*
X119561836Y-63924785D01*
X119730256Y-64107738D01*
X119926491Y-64260474D01*
X120145190Y-64378828D01*
X120380386Y-64459571D01*
X120625665Y-64500500D01*
X120874335Y-64500500D01*
X121119614Y-64459571D01*
X121354810Y-64378828D01*
X121573509Y-64260474D01*
X121769744Y-64107738D01*
X121938164Y-63924785D01*
X122074173Y-63716607D01*
X122174063Y-63488881D01*
X122235108Y-63247821D01*
X122247081Y-63103334D01*
X122255643Y-63000005D01*
X122255643Y-62999994D01*
X122235109Y-62752187D01*
X122235107Y-62752175D01*
X122174063Y-62511118D01*
X122074173Y-62283393D01*
X121938166Y-62075217D01*
X121879731Y-62011740D01*
X121769744Y-61892262D01*
X121573509Y-61739526D01*
X121573507Y-61739525D01*
X121573506Y-61739524D01*
X121354811Y-61621172D01*
X121354802Y-61621169D01*
X121119616Y-61540429D01*
X120874335Y-61499500D01*
X120625665Y-61499500D01*
X120380383Y-61540429D01*
X120145197Y-61621169D01*
X120145188Y-61621172D01*
X119926493Y-61739524D01*
X119730257Y-61892261D01*
X119561833Y-62075217D01*
X119425826Y-62283393D01*
X119325936Y-62511118D01*
X119264892Y-62752175D01*
X119264890Y-62752187D01*
X119244357Y-62999994D01*
X119244357Y-63000005D01*
X105500500Y-63000005D01*
X105500500Y-58100005D01*
X109594357Y-58100005D01*
X109614890Y-58347812D01*
X109614892Y-58347824D01*
X109675936Y-58588881D01*
X109775826Y-58816606D01*
X109911833Y-59024782D01*
X109911836Y-59024785D01*
X110080256Y-59207738D01*
X110276491Y-59360474D01*
X110495190Y-59478828D01*
X110730386Y-59559571D01*
X110975665Y-59600500D01*
X111224335Y-59600500D01*
X111469614Y-59559571D01*
X111704810Y-59478828D01*
X111923509Y-59360474D01*
X112119744Y-59207738D01*
X112288164Y-59024785D01*
X112424173Y-58816607D01*
X112524063Y-58588881D01*
X112585108Y-58347821D01*
X112597453Y-58198838D01*
X112605643Y-58100005D01*
X112605643Y-58099994D01*
X112585109Y-57852187D01*
X112585107Y-57852175D01*
X112524063Y-57611118D01*
X112424173Y-57383393D01*
X112288166Y-57175217D01*
X112266009Y-57151148D01*
X112119744Y-56992262D01*
X112001206Y-56900000D01*
X117644551Y-56900000D01*
X117664317Y-57151151D01*
X117723126Y-57396110D01*
X117819533Y-57628859D01*
X117951160Y-57843653D01*
X117951161Y-57843656D01*
X117998300Y-57898848D01*
X118114776Y-58035224D01*
X118263066Y-58161875D01*
X118306343Y-58198838D01*
X118306346Y-58198839D01*
X118521140Y-58330466D01*
X118691783Y-58401148D01*
X118753889Y-58426873D01*
X118998852Y-58485683D01*
X119250000Y-58505449D01*
X119501148Y-58485683D01*
X119746111Y-58426873D01*
X119978859Y-58330466D01*
X120193659Y-58198836D01*
X120250839Y-58150000D01*
X125644551Y-58150000D01*
X125664317Y-58401151D01*
X125723126Y-58646110D01*
X125819533Y-58878859D01*
X125951160Y-59093653D01*
X125951161Y-59093656D01*
X125951164Y-59093659D01*
X126114776Y-59285224D01*
X126202884Y-59360475D01*
X126306343Y-59448838D01*
X126306346Y-59448839D01*
X126521140Y-59580466D01*
X126753889Y-59676873D01*
X126998852Y-59735683D01*
X127250000Y-59755449D01*
X127501148Y-59735683D01*
X127746111Y-59676873D01*
X127978859Y-59580466D01*
X128193659Y-59448836D01*
X128385224Y-59285224D01*
X128548836Y-59093659D01*
X128680466Y-58878859D01*
X128776873Y-58646111D01*
X128835683Y-58401148D01*
X128855449Y-58150000D01*
X128835683Y-57898852D01*
X128776873Y-57653889D01*
X128680466Y-57421141D01*
X128680466Y-57421140D01*
X128548839Y-57206346D01*
X128548838Y-57206343D01*
X128501697Y-57151148D01*
X128385224Y-57014776D01*
X128250837Y-56899999D01*
X128193656Y-56851161D01*
X128193653Y-56851160D01*
X127978859Y-56719533D01*
X127746110Y-56623126D01*
X127501151Y-56564317D01*
X127250000Y-56544551D01*
X126998848Y-56564317D01*
X126753889Y-56623126D01*
X126521140Y-56719533D01*
X126306346Y-56851160D01*
X126306343Y-56851161D01*
X126114776Y-57014776D01*
X125951161Y-57206343D01*
X125951160Y-57206346D01*
X125819533Y-57421140D01*
X125723126Y-57653889D01*
X125664317Y-57898848D01*
X125644551Y-58150000D01*
X120250839Y-58150000D01*
X120385224Y-58035224D01*
X120548836Y-57843659D01*
X120680466Y-57628859D01*
X120776873Y-57396111D01*
X120835683Y-57151148D01*
X120855449Y-56900000D01*
X120835683Y-56648852D01*
X120776873Y-56403889D01*
X120734048Y-56300500D01*
X120680466Y-56171140D01*
X120548839Y-55956346D01*
X120548838Y-55956343D01*
X120464333Y-55857401D01*
X120385224Y-55764776D01*
X120230014Y-55632214D01*
X120193656Y-55601161D01*
X120193653Y-55601160D01*
X119978859Y-55469533D01*
X119746110Y-55373126D01*
X119501151Y-55314317D01*
X119250000Y-55294551D01*
X118998848Y-55314317D01*
X118753889Y-55373126D01*
X118521140Y-55469533D01*
X118306346Y-55601160D01*
X118306343Y-55601161D01*
X118114776Y-55764776D01*
X117951161Y-55956343D01*
X117951160Y-55956346D01*
X117819533Y-56171140D01*
X117723126Y-56403889D01*
X117664317Y-56648848D01*
X117644551Y-56900000D01*
X112001206Y-56900000D01*
X111923509Y-56839526D01*
X111923507Y-56839525D01*
X111923506Y-56839524D01*
X111704811Y-56721172D01*
X111704802Y-56721169D01*
X111469616Y-56640429D01*
X111224335Y-56599500D01*
X110975665Y-56599500D01*
X110730383Y-56640429D01*
X110495197Y-56721169D01*
X110495188Y-56721172D01*
X110276493Y-56839524D01*
X110080257Y-56992261D01*
X109911833Y-57175217D01*
X109775826Y-57383393D01*
X109675936Y-57611118D01*
X109614892Y-57852175D01*
X109614890Y-57852187D01*
X109594357Y-58099994D01*
X109594357Y-58100005D01*
X105500500Y-58100005D01*
X105500500Y-54952425D01*
X114899500Y-54952425D01*
X114914472Y-55109218D01*
X114973684Y-55310875D01*
X115005777Y-55373127D01*
X115069991Y-55497686D01*
X115199905Y-55662883D01*
X115199909Y-55662887D01*
X115358746Y-55800521D01*
X115540750Y-55905601D01*
X115540752Y-55905601D01*
X115540756Y-55905604D01*
X115739367Y-55974344D01*
X115947398Y-56004254D01*
X116157330Y-55994254D01*
X116361576Y-55944704D01*
X116494175Y-55884148D01*
X116552743Y-55857401D01*
X116552746Y-55857399D01*
X116552753Y-55857396D01*
X116723952Y-55735486D01*
X116793179Y-55662883D01*
X116868985Y-55583379D01*
X116924057Y-55497686D01*
X116982613Y-55406572D01*
X117060725Y-55211457D01*
X117100500Y-55005085D01*
X117100500Y-53649999D01*
X121645052Y-53649999D01*
X121664812Y-53901072D01*
X121723603Y-54145956D01*
X121819980Y-54378631D01*
X121951566Y-54593358D01*
X121951577Y-54593374D01*
X121952264Y-54594178D01*
X121952266Y-54594178D01*
X122568589Y-53977855D01*
X122629912Y-53944370D01*
X122699603Y-53949354D01*
X122754645Y-53990048D01*
X122822075Y-54077925D01*
X122822076Y-54077926D01*
X122909948Y-54145352D01*
X122951151Y-54201780D01*
X122955306Y-54271526D01*
X122922143Y-54331409D01*
X122305819Y-54947732D01*
X122306636Y-54948430D01*
X122306638Y-54948432D01*
X122521368Y-55080019D01*
X122754043Y-55176396D01*
X122998927Y-55235187D01*
X123250000Y-55254947D01*
X123501072Y-55235187D01*
X123745956Y-55176396D01*
X123978631Y-55080019D01*
X124186844Y-54952425D01*
X129399500Y-54952425D01*
X129414472Y-55109218D01*
X129473684Y-55310875D01*
X129505777Y-55373127D01*
X129569991Y-55497686D01*
X129699905Y-55662883D01*
X129699909Y-55662887D01*
X129858746Y-55800521D01*
X130040750Y-55905601D01*
X130040752Y-55905601D01*
X130040756Y-55905604D01*
X130239367Y-55974344D01*
X130447398Y-56004254D01*
X130657330Y-55994254D01*
X130861576Y-55944704D01*
X130994175Y-55884148D01*
X131052743Y-55857401D01*
X131052746Y-55857399D01*
X131052753Y-55857396D01*
X131223952Y-55735486D01*
X131293179Y-55662883D01*
X131368985Y-55583379D01*
X131424057Y-55497686D01*
X131482613Y-55406572D01*
X131485244Y-55400000D01*
X136094540Y-55400000D01*
X136114326Y-55588256D01*
X136114327Y-55588259D01*
X136172818Y-55768277D01*
X136172821Y-55768284D01*
X136267467Y-55932216D01*
X136388401Y-56066526D01*
X136394129Y-56072888D01*
X136547265Y-56184148D01*
X136547270Y-56184151D01*
X136720192Y-56261142D01*
X136720197Y-56261144D01*
X136905354Y-56300500D01*
X136905355Y-56300500D01*
X137094644Y-56300500D01*
X137094646Y-56300500D01*
X137279803Y-56261144D01*
X137452730Y-56184151D01*
X137605871Y-56072888D01*
X137608788Y-56069647D01*
X137611600Y-56066526D01*
X137671087Y-56029879D01*
X137703748Y-56025500D01*
X142517257Y-56025500D01*
X142532877Y-56027224D01*
X142532904Y-56026939D01*
X142540660Y-56027671D01*
X142540667Y-56027673D01*
X142609814Y-56025500D01*
X142639350Y-56025500D01*
X142646228Y-56024630D01*
X142652041Y-56024172D01*
X142698627Y-56022709D01*
X142717869Y-56017117D01*
X142736912Y-56013174D01*
X142756792Y-56010664D01*
X142760470Y-56009207D01*
X142806116Y-56000500D01*
X142994644Y-56000500D01*
X142994646Y-56000500D01*
X143179803Y-55961144D01*
X143352730Y-55884151D01*
X143505871Y-55772888D01*
X143632533Y-55632216D01*
X143727179Y-55468284D01*
X143785674Y-55288256D01*
X143805460Y-55100000D01*
X143785674Y-54911744D01*
X143727179Y-54731716D01*
X143632533Y-54567784D01*
X143505871Y-54427112D01*
X143505870Y-54427111D01*
X143352734Y-54315851D01*
X143352729Y-54315848D01*
X143179807Y-54238857D01*
X143179802Y-54238855D01*
X143034000Y-54207865D01*
X142994646Y-54199500D01*
X142805354Y-54199500D01*
X142772897Y-54206398D01*
X142620197Y-54238855D01*
X142620192Y-54238857D01*
X142447270Y-54315848D01*
X142447265Y-54315851D01*
X142294129Y-54427111D01*
X142167465Y-54567785D01*
X142083915Y-54712500D01*
X142033348Y-54760716D01*
X141976528Y-54774500D01*
X137703748Y-54774500D01*
X137636709Y-54754815D01*
X137611600Y-54733474D01*
X137605873Y-54727114D01*
X137605869Y-54727110D01*
X137452734Y-54615851D01*
X137452729Y-54615848D01*
X137279807Y-54538857D01*
X137279802Y-54538855D01*
X137134000Y-54507865D01*
X137094646Y-54499500D01*
X136905354Y-54499500D01*
X136872897Y-54506398D01*
X136720197Y-54538855D01*
X136720192Y-54538857D01*
X136547270Y-54615848D01*
X136547265Y-54615851D01*
X136394129Y-54727111D01*
X136267466Y-54867785D01*
X136172821Y-55031715D01*
X136172818Y-55031722D01*
X136125811Y-55176396D01*
X136114326Y-55211744D01*
X136094540Y-55400000D01*
X131485244Y-55400000D01*
X131560725Y-55211457D01*
X131600500Y-55005085D01*
X131600500Y-53347575D01*
X131585528Y-53190782D01*
X131526316Y-52989125D01*
X131430011Y-52802318D01*
X131430009Y-52802316D01*
X131430008Y-52802313D01*
X131300094Y-52637116D01*
X131300090Y-52637112D01*
X131141253Y-52499478D01*
X130959249Y-52394398D01*
X130959245Y-52394396D01*
X130959244Y-52394396D01*
X130760633Y-52325656D01*
X130552602Y-52295746D01*
X130552598Y-52295746D01*
X130342672Y-52305745D01*
X130138421Y-52355296D01*
X130138417Y-52355298D01*
X129947256Y-52442598D01*
X129947251Y-52442601D01*
X129776046Y-52564515D01*
X129776040Y-52564520D01*
X129631014Y-52716620D01*
X129517388Y-52893425D01*
X129439274Y-53088544D01*
X129399500Y-53294914D01*
X129399500Y-53294915D01*
X129399500Y-54952425D01*
X124186844Y-54952425D01*
X124193360Y-54948432D01*
X124193371Y-54948424D01*
X124194179Y-54947732D01*
X123577856Y-54331409D01*
X123544371Y-54270086D01*
X123549355Y-54200394D01*
X123590049Y-54145353D01*
X123677925Y-54077925D01*
X123745355Y-53990048D01*
X123801781Y-53948848D01*
X123871527Y-53944693D01*
X123931410Y-53977856D01*
X124547732Y-54594179D01*
X124548424Y-54593371D01*
X124548432Y-54593360D01*
X124680019Y-54378631D01*
X124776396Y-54145956D01*
X124835187Y-53901072D01*
X124854947Y-53650000D01*
X124835187Y-53398927D01*
X124776396Y-53154043D01*
X124680019Y-52921368D01*
X124548432Y-52706638D01*
X124548430Y-52706636D01*
X124547732Y-52705819D01*
X123931409Y-53322143D01*
X123870086Y-53355628D01*
X123800394Y-53350644D01*
X123745352Y-53309948D01*
X123677926Y-53222076D01*
X123637143Y-53190782D01*
X123590048Y-53154645D01*
X123548847Y-53098218D01*
X123544692Y-53028472D01*
X123577855Y-52968589D01*
X124194178Y-52352266D01*
X124194178Y-52352264D01*
X124193374Y-52351577D01*
X124193358Y-52351566D01*
X123978631Y-52219980D01*
X123745956Y-52123603D01*
X123501072Y-52064812D01*
X123250000Y-52045052D01*
X122998927Y-52064812D01*
X122754043Y-52123603D01*
X122521368Y-52219980D01*
X122306637Y-52351568D01*
X122305820Y-52352266D01*
X122922144Y-52968590D01*
X122955629Y-53029913D01*
X122950645Y-53099605D01*
X122909950Y-53154645D01*
X122822075Y-53222075D01*
X122822074Y-53222076D01*
X122754645Y-53309950D01*
X122698216Y-53351152D01*
X122628470Y-53355306D01*
X122568589Y-53322143D01*
X121952266Y-52705820D01*
X121951568Y-52706637D01*
X121819980Y-52921368D01*
X121723603Y-53154043D01*
X121664812Y-53398927D01*
X121645052Y-53649999D01*
X117100500Y-53649999D01*
X117100500Y-53347575D01*
X117085528Y-53190782D01*
X117026316Y-52989125D01*
X116930011Y-52802318D01*
X116930009Y-52802316D01*
X116930008Y-52802313D01*
X116800094Y-52637116D01*
X116800090Y-52637112D01*
X116641253Y-52499478D01*
X116459249Y-52394398D01*
X116459245Y-52394396D01*
X116459244Y-52394396D01*
X116260633Y-52325656D01*
X116052602Y-52295746D01*
X116052598Y-52295746D01*
X115842672Y-52305745D01*
X115638421Y-52355296D01*
X115638417Y-52355298D01*
X115447256Y-52442598D01*
X115447251Y-52442601D01*
X115276046Y-52564515D01*
X115276040Y-52564520D01*
X115131014Y-52716620D01*
X115017388Y-52893425D01*
X114939274Y-53088544D01*
X114899500Y-53294914D01*
X114899500Y-53294915D01*
X114899500Y-54952425D01*
X105500500Y-54952425D01*
X105500500Y-50567763D01*
X108645787Y-50567763D01*
X108675413Y-50837013D01*
X108675415Y-50837024D01*
X108743926Y-51099082D01*
X108743928Y-51099088D01*
X108849870Y-51348390D01*
X108921998Y-51466575D01*
X108990979Y-51579605D01*
X108990986Y-51579615D01*
X109164253Y-51787819D01*
X109164259Y-51787824D01*
X109365998Y-51968582D01*
X109591910Y-52118044D01*
X109837176Y-52233020D01*
X109837183Y-52233022D01*
X109837185Y-52233023D01*
X110096557Y-52311057D01*
X110096564Y-52311058D01*
X110096569Y-52311060D01*
X110364561Y-52350500D01*
X110364566Y-52350500D01*
X110567636Y-52350500D01*
X110619133Y-52346730D01*
X110770156Y-52335677D01*
X110904525Y-52305745D01*
X111034546Y-52276782D01*
X111034548Y-52276781D01*
X111034553Y-52276780D01*
X111287558Y-52180014D01*
X111523777Y-52047441D01*
X111738177Y-51881888D01*
X111926186Y-51686881D01*
X112083799Y-51466579D01*
X112157787Y-51322669D01*
X112207649Y-51225690D01*
X112207651Y-51225684D01*
X112207656Y-51225675D01*
X112295118Y-50969305D01*
X112344319Y-50702933D01*
X112349259Y-50567763D01*
X183645787Y-50567763D01*
X183675413Y-50837013D01*
X183675415Y-50837024D01*
X183743926Y-51099082D01*
X183743928Y-51099088D01*
X183849870Y-51348390D01*
X183921998Y-51466575D01*
X183990979Y-51579605D01*
X183990986Y-51579615D01*
X184164253Y-51787819D01*
X184164259Y-51787824D01*
X184365998Y-51968582D01*
X184591910Y-52118044D01*
X184837176Y-52233020D01*
X184837183Y-52233022D01*
X184837185Y-52233023D01*
X185096557Y-52311057D01*
X185096564Y-52311058D01*
X185096569Y-52311060D01*
X185364561Y-52350500D01*
X185364566Y-52350500D01*
X185567636Y-52350500D01*
X185619133Y-52346730D01*
X185770156Y-52335677D01*
X185904525Y-52305745D01*
X186034546Y-52276782D01*
X186034548Y-52276781D01*
X186034553Y-52276780D01*
X186287558Y-52180014D01*
X186523777Y-52047441D01*
X186738177Y-51881888D01*
X186926186Y-51686881D01*
X187083799Y-51466579D01*
X187157787Y-51322669D01*
X187207649Y-51225690D01*
X187207651Y-51225684D01*
X187207656Y-51225675D01*
X187295118Y-50969305D01*
X187344319Y-50702933D01*
X187354212Y-50432235D01*
X187324586Y-50162982D01*
X187256072Y-49900912D01*
X187150130Y-49651610D01*
X187009018Y-49420390D01*
X186919747Y-49313119D01*
X186835746Y-49212180D01*
X186835740Y-49212175D01*
X186634002Y-49031418D01*
X186408092Y-48881957D01*
X186321448Y-48841340D01*
X186162824Y-48766980D01*
X186162819Y-48766978D01*
X186162814Y-48766976D01*
X185903442Y-48688942D01*
X185903428Y-48688939D01*
X185787791Y-48671921D01*
X185635439Y-48649500D01*
X185432369Y-48649500D01*
X185432364Y-48649500D01*
X185229844Y-48664323D01*
X185229831Y-48664325D01*
X184965453Y-48723217D01*
X184965446Y-48723220D01*
X184712439Y-48819987D01*
X184476226Y-48952557D01*
X184261822Y-49118112D01*
X184073822Y-49313109D01*
X184073816Y-49313116D01*
X183916202Y-49533419D01*
X183916199Y-49533424D01*
X183792350Y-49774309D01*
X183792343Y-49774327D01*
X183704884Y-50030685D01*
X183704881Y-50030699D01*
X183695025Y-50084059D01*
X183656400Y-50293178D01*
X183655681Y-50297068D01*
X183655680Y-50297075D01*
X183645787Y-50567763D01*
X112349259Y-50567763D01*
X112354212Y-50432235D01*
X112324586Y-50162982D01*
X112256072Y-49900912D01*
X112150130Y-49651610D01*
X112009018Y-49420390D01*
X111919747Y-49313119D01*
X111835746Y-49212180D01*
X111835740Y-49212175D01*
X111634002Y-49031418D01*
X111408092Y-48881957D01*
X111321448Y-48841340D01*
X111162824Y-48766980D01*
X111162819Y-48766978D01*
X111162814Y-48766976D01*
X110903442Y-48688942D01*
X110903428Y-48688939D01*
X110787791Y-48671921D01*
X110635439Y-48649500D01*
X110432369Y-48649500D01*
X110432364Y-48649500D01*
X110229844Y-48664323D01*
X110229831Y-48664325D01*
X109965453Y-48723217D01*
X109965446Y-48723220D01*
X109712439Y-48819987D01*
X109476226Y-48952557D01*
X109261822Y-49118112D01*
X109073822Y-49313109D01*
X109073816Y-49313116D01*
X108916202Y-49533419D01*
X108916199Y-49533424D01*
X108792350Y-49774309D01*
X108792343Y-49774327D01*
X108704884Y-50030685D01*
X108704881Y-50030699D01*
X108695025Y-50084059D01*
X108656400Y-50293178D01*
X108655681Y-50297068D01*
X108655680Y-50297075D01*
X108645787Y-50567763D01*
X105500500Y-50567763D01*
X105500500Y-50499999D01*
X105509488Y-50282673D01*
X105518160Y-50084059D01*
X105518573Y-50079140D01*
X105545487Y-49863223D01*
X105571884Y-49662726D01*
X105572669Y-49658114D01*
X105617191Y-49445778D01*
X105661160Y-49247451D01*
X105662253Y-49243235D01*
X105724112Y-49035457D01*
X105785324Y-48841320D01*
X105786673Y-48837488D01*
X105865469Y-48635551D01*
X105943499Y-48447170D01*
X105945033Y-48443771D01*
X106014381Y-48301920D01*
X106040249Y-48249007D01*
X106073419Y-48185284D01*
X106134494Y-48067960D01*
X106136207Y-48064891D01*
X106247211Y-47878601D01*
X106356972Y-47706313D01*
X106358765Y-47703656D01*
X106484856Y-47527054D01*
X106609313Y-47364861D01*
X106611135Y-47362601D01*
X106751448Y-47196933D01*
X106890563Y-47045115D01*
X107045115Y-46890563D01*
X107196933Y-46751448D01*
X107362601Y-46611135D01*
X107364861Y-46609313D01*
X107527054Y-46484856D01*
X107703656Y-46358765D01*
X107706313Y-46356972D01*
X107878601Y-46247211D01*
X108064900Y-46136201D01*
X108067960Y-46134494D01*
X108185284Y-46073419D01*
X108249007Y-46040249D01*
X108323655Y-46003755D01*
X108443771Y-45945033D01*
X108447170Y-45943499D01*
X108635551Y-45865469D01*
X108837488Y-45786673D01*
X108841320Y-45785324D01*
X109035457Y-45724112D01*
X109243235Y-45662253D01*
X109247451Y-45661160D01*
X109445778Y-45617191D01*
X109658114Y-45572669D01*
X109662726Y-45571884D01*
X109863223Y-45545487D01*
X110079138Y-45518574D01*
X110084061Y-45518160D01*
X110282569Y-45509493D01*
X110500000Y-45500500D01*
X110500500Y-45500500D01*
X185499500Y-45500500D01*
X185500000Y-45500500D01*
X185717318Y-45509488D01*
G37*
%TD.AperFunction*%
%TD*%
M02*
