%TF.GenerationSoftware,KiCad,Pcbnew,8.0.5*%
%TF.CreationDate,2024-09-25T11:06:07-04:00*%
%TF.ProjectId,HeartLEDTHT,48656172-744c-4454-9454-48542e6b6963,rev?*%
%TF.SameCoordinates,Original*%
%TF.FileFunction,Legend,Top*%
%TF.FilePolarity,Positive*%
%FSLAX46Y46*%
G04 Gerber Fmt 4.6, Leading zero omitted, Abs format (unit mm)*
G04 Created by KiCad (PCBNEW 8.0.5) date 2024-09-25 11:06:07*
%MOMM*%
%LPD*%
G01*
G04 APERTURE LIST*
%ADD10C,0.200000*%
%ADD11C,0.150000*%
%ADD12C,0.120000*%
%ADD13C,0.000000*%
G04 APERTURE END LIST*
D10*
X59330408Y-152115823D02*
X58993690Y-151779106D01*
X58993690Y-151779106D02*
X59700797Y-151071999D01*
X59936499Y-151981136D02*
X60172202Y-152216839D01*
X59902828Y-152688243D02*
X59566110Y-152351526D01*
X59566110Y-152351526D02*
X60273217Y-151644419D01*
X60273217Y-151644419D02*
X60609934Y-151981136D01*
X60205874Y-152991289D02*
X60912980Y-152284182D01*
X60912980Y-152284182D02*
X61081339Y-152452541D01*
X61081339Y-152452541D02*
X61148683Y-152587228D01*
X61148683Y-152587228D02*
X61148683Y-152721915D01*
X61148683Y-152721915D02*
X61115011Y-152822930D01*
X61115011Y-152822930D02*
X61013996Y-152991289D01*
X61013996Y-152991289D02*
X60912980Y-153092304D01*
X60912980Y-153092304D02*
X60744622Y-153193319D01*
X60744622Y-153193319D02*
X60643606Y-153226991D01*
X60643606Y-153226991D02*
X60508919Y-153226991D01*
X60508919Y-153226991D02*
X60374232Y-153159648D01*
X60374232Y-153159648D02*
X60205874Y-152991289D01*
X61451728Y-154237144D02*
X62158835Y-153530037D01*
X61822118Y-153866755D02*
X62226179Y-154270816D01*
X61855790Y-154641205D02*
X62562896Y-153934098D01*
X62495553Y-155213625D02*
X62394538Y-155179953D01*
X62394538Y-155179953D02*
X62259850Y-155045266D01*
X62259850Y-155045266D02*
X62226179Y-154944251D01*
X62226179Y-154944251D02*
X62259850Y-154843235D01*
X62259850Y-154843235D02*
X62529225Y-154573861D01*
X62529225Y-154573861D02*
X62630240Y-154540190D01*
X62630240Y-154540190D02*
X62731255Y-154573861D01*
X62731255Y-154573861D02*
X62865942Y-154708548D01*
X62865942Y-154708548D02*
X62899614Y-154809564D01*
X62899614Y-154809564D02*
X62865942Y-154910579D01*
X62865942Y-154910579D02*
X62798599Y-154977922D01*
X62798599Y-154977922D02*
X62394538Y-154708548D01*
X63101644Y-155887060D02*
X63472034Y-155516670D01*
X63472034Y-155516670D02*
X63505705Y-155415655D01*
X63505705Y-155415655D02*
X63472034Y-155314640D01*
X63472034Y-155314640D02*
X63337347Y-155179953D01*
X63337347Y-155179953D02*
X63236331Y-155146281D01*
X63135316Y-155853388D02*
X63034301Y-155819716D01*
X63034301Y-155819716D02*
X62865942Y-155651358D01*
X62865942Y-155651358D02*
X62832270Y-155550342D01*
X62832270Y-155550342D02*
X62865942Y-155449327D01*
X62865942Y-155449327D02*
X62933286Y-155381983D01*
X62933286Y-155381983D02*
X63034301Y-155348312D01*
X63034301Y-155348312D02*
X63135316Y-155381983D01*
X63135316Y-155381983D02*
X63303675Y-155550342D01*
X63303675Y-155550342D02*
X63404690Y-155584014D01*
X63438362Y-156223777D02*
X63909766Y-155752373D01*
X63775079Y-155887060D02*
X63876095Y-155853388D01*
X63876095Y-155853388D02*
X63943438Y-155853388D01*
X63943438Y-155853388D02*
X64044453Y-155887060D01*
X64044453Y-155887060D02*
X64111797Y-155954403D01*
X64246484Y-156089091D02*
X64515858Y-156358465D01*
X64583202Y-155954404D02*
X63977110Y-156560495D01*
X63977110Y-156560495D02*
X63943439Y-156661510D01*
X63943439Y-156661510D02*
X63977110Y-156762526D01*
X63977110Y-156762526D02*
X64044454Y-156829869D01*
X65424996Y-156796198D02*
X65829057Y-157200259D01*
X64919920Y-157705335D02*
X65627027Y-156998228D01*
X65357653Y-158143068D02*
X66064759Y-157435961D01*
X65728042Y-157772679D02*
X66132103Y-158176740D01*
X65761714Y-158547129D02*
X66468821Y-157840022D01*
X66704523Y-158075725D02*
X67108584Y-158479786D01*
X66199446Y-158984862D02*
X66906553Y-158277755D01*
X67579989Y-159422595D02*
X67276943Y-160062358D01*
X67276943Y-160062358D02*
X67916706Y-159759312D01*
X68556470Y-159927671D02*
X68623813Y-159995015D01*
X68623813Y-159995015D02*
X68657485Y-160096030D01*
X68657485Y-160096030D02*
X68657485Y-160163374D01*
X68657485Y-160163374D02*
X68623813Y-160264389D01*
X68623813Y-160264389D02*
X68522798Y-160432748D01*
X68522798Y-160432748D02*
X68354439Y-160601106D01*
X68354439Y-160601106D02*
X68186080Y-160702122D01*
X68186080Y-160702122D02*
X68085065Y-160735793D01*
X68085065Y-160735793D02*
X68017722Y-160735793D01*
X68017722Y-160735793D02*
X67916706Y-160702122D01*
X67916706Y-160702122D02*
X67849363Y-160634778D01*
X67849363Y-160634778D02*
X67815691Y-160533763D01*
X67815691Y-160533763D02*
X67815691Y-160466419D01*
X67815691Y-160466419D02*
X67849363Y-160365404D01*
X67849363Y-160365404D02*
X67950378Y-160197045D01*
X67950378Y-160197045D02*
X68118737Y-160028687D01*
X68118737Y-160028687D02*
X68287096Y-159927671D01*
X68287096Y-159927671D02*
X68388111Y-159894000D01*
X68388111Y-159894000D02*
X68455454Y-159894000D01*
X68455454Y-159894000D02*
X68556470Y-159927671D01*
X68455454Y-161106183D02*
X68455454Y-161173526D01*
X68455454Y-161173526D02*
X68388111Y-161173526D01*
X68388111Y-161173526D02*
X68388111Y-161106183D01*
X68388111Y-161106183D02*
X68455454Y-161106183D01*
X68455454Y-161106183D02*
X68388111Y-161173526D01*
X69330920Y-160836808D02*
X69398263Y-160836808D01*
X69398263Y-160836808D02*
X69499278Y-160870480D01*
X69499278Y-160870480D02*
X69667637Y-161038839D01*
X69667637Y-161038839D02*
X69701309Y-161139854D01*
X69701309Y-161139854D02*
X69701309Y-161207198D01*
X69701309Y-161207198D02*
X69667637Y-161308213D01*
X69667637Y-161308213D02*
X69600294Y-161375556D01*
X69600294Y-161375556D02*
X69465607Y-161442900D01*
X69465607Y-161442900D02*
X68657485Y-161442900D01*
X68657485Y-161442900D02*
X69095217Y-161880633D01*
X57855288Y-152917508D02*
X58562395Y-152210401D01*
X58225678Y-152547118D02*
X58629739Y-152951179D01*
X58259349Y-153321569D02*
X58966456Y-152614462D01*
X59370517Y-153489927D02*
X58899113Y-153961332D01*
X59067471Y-153186882D02*
X58697082Y-153557271D01*
X58697082Y-153557271D02*
X58663410Y-153658286D01*
X58663410Y-153658286D02*
X58697082Y-153759301D01*
X58697082Y-153759301D02*
X58798097Y-153860317D01*
X58798097Y-153860317D02*
X58899113Y-153893988D01*
X58899113Y-153893988D02*
X58966456Y-153893988D01*
X59235830Y-154230706D02*
X59269502Y-154331721D01*
X59269502Y-154331721D02*
X59404189Y-154466408D01*
X59404189Y-154466408D02*
X59505204Y-154500080D01*
X59505204Y-154500080D02*
X59606219Y-154466408D01*
X59606219Y-154466408D02*
X59639891Y-154432736D01*
X59639891Y-154432736D02*
X59673563Y-154331721D01*
X59673563Y-154331721D02*
X59639891Y-154230706D01*
X59639891Y-154230706D02*
X59538876Y-154129691D01*
X59538876Y-154129691D02*
X59505204Y-154028675D01*
X59505204Y-154028675D02*
X59538876Y-153927660D01*
X59538876Y-153927660D02*
X59572548Y-153893988D01*
X59572548Y-153893988D02*
X59673563Y-153860317D01*
X59673563Y-153860317D02*
X59774578Y-153893988D01*
X59774578Y-153893988D02*
X59875593Y-153995004D01*
X59875593Y-153995004D02*
X59909265Y-154096019D01*
X59808250Y-154803126D02*
X59841922Y-154904141D01*
X59841922Y-154904141D02*
X59976609Y-155038828D01*
X59976609Y-155038828D02*
X60077624Y-155072500D01*
X60077624Y-155072500D02*
X60178639Y-155038828D01*
X60178639Y-155038828D02*
X60212311Y-155005156D01*
X60212311Y-155005156D02*
X60245983Y-154904141D01*
X60245983Y-154904141D02*
X60212311Y-154803126D01*
X60212311Y-154803126D02*
X60111296Y-154702111D01*
X60111296Y-154702111D02*
X60077624Y-154601095D01*
X60077624Y-154601095D02*
X60111296Y-154500080D01*
X60111296Y-154500080D02*
X60144968Y-154466408D01*
X60144968Y-154466408D02*
X60245983Y-154432737D01*
X60245983Y-154432737D02*
X60346998Y-154466408D01*
X60346998Y-154466408D02*
X60448013Y-154567424D01*
X60448013Y-154567424D02*
X60481685Y-154668439D01*
X60683716Y-155745935D02*
X61054105Y-155375546D01*
X61054105Y-155375546D02*
X61087777Y-155274531D01*
X61087777Y-155274531D02*
X61054105Y-155173515D01*
X61054105Y-155173515D02*
X60919418Y-155038828D01*
X60919418Y-155038828D02*
X60818403Y-155005157D01*
X60717387Y-155712263D02*
X60616372Y-155678592D01*
X60616372Y-155678592D02*
X60448013Y-155510233D01*
X60448013Y-155510233D02*
X60414342Y-155409218D01*
X60414342Y-155409218D02*
X60448013Y-155308202D01*
X60448013Y-155308202D02*
X60515357Y-155240859D01*
X60515357Y-155240859D02*
X60616372Y-155207187D01*
X60616372Y-155207187D02*
X60717387Y-155240859D01*
X60717387Y-155240859D02*
X60885746Y-155409218D01*
X60885746Y-155409218D02*
X60986761Y-155442889D01*
X61020433Y-156082653D02*
X61491838Y-155611248D01*
X61424494Y-155678592D02*
X61491838Y-155678592D01*
X61491838Y-155678592D02*
X61592853Y-155712263D01*
X61592853Y-155712263D02*
X61693868Y-155813279D01*
X61693868Y-155813279D02*
X61727540Y-155914294D01*
X61727540Y-155914294D02*
X61693868Y-156015309D01*
X61693868Y-156015309D02*
X61323479Y-156385698D01*
X61693868Y-156015309D02*
X61794884Y-155981637D01*
X61794884Y-155981637D02*
X61895899Y-156015309D01*
X61895899Y-156015309D02*
X61996914Y-156116324D01*
X61996914Y-156116324D02*
X62030586Y-156217340D01*
X62030586Y-156217340D02*
X61996914Y-156318355D01*
X61996914Y-156318355D02*
X61626525Y-156688744D01*
X62670349Y-157328507D02*
X63007067Y-157665225D01*
X62400975Y-157463194D02*
X63343784Y-156991790D01*
X63343784Y-156991790D02*
X62872380Y-157934599D01*
X63209097Y-158271317D02*
X63175425Y-158170301D01*
X63175425Y-158170301D02*
X63209097Y-158069286D01*
X63209097Y-158069286D02*
X63815189Y-157463194D01*
X63747846Y-158271317D02*
X64286594Y-158810065D01*
X64353937Y-159416156D02*
X65061044Y-158709049D01*
X64724326Y-159045767D02*
X65128387Y-159449828D01*
X64757998Y-159820217D02*
X65465105Y-159113110D01*
X65397761Y-160392637D02*
X65296746Y-160358965D01*
X65296746Y-160358965D02*
X65162059Y-160224278D01*
X65162059Y-160224278D02*
X65128387Y-160123263D01*
X65128387Y-160123263D02*
X65162059Y-160022248D01*
X65162059Y-160022248D02*
X65431433Y-159752874D01*
X65431433Y-159752874D02*
X65532448Y-159719202D01*
X65532448Y-159719202D02*
X65633463Y-159752874D01*
X65633463Y-159752874D02*
X65768150Y-159887561D01*
X65768150Y-159887561D02*
X65801822Y-159988576D01*
X65801822Y-159988576D02*
X65768150Y-160089591D01*
X65768150Y-160089591D02*
X65700807Y-160156935D01*
X65700807Y-160156935D02*
X65296746Y-159887561D01*
X65700807Y-160763026D02*
X66172212Y-160291622D01*
X66037525Y-160426309D02*
X66138540Y-160392637D01*
X66138540Y-160392637D02*
X66205883Y-160392637D01*
X66205883Y-160392637D02*
X66306899Y-160426309D01*
X66306899Y-160426309D02*
X66374242Y-160493652D01*
X66508929Y-160628340D02*
X66778303Y-160897714D01*
X66845647Y-160493653D02*
X66239555Y-161099744D01*
X66239555Y-161099744D02*
X66205884Y-161200759D01*
X66205884Y-161200759D02*
X66239555Y-161301775D01*
X66239555Y-161301775D02*
X66306899Y-161369118D01*
X66845647Y-161907867D02*
X67216036Y-161537477D01*
X67216036Y-161537477D02*
X67249708Y-161436462D01*
X67249708Y-161436462D02*
X67216036Y-161335447D01*
X67216036Y-161335447D02*
X67081349Y-161200760D01*
X67081349Y-161200760D02*
X66980334Y-161167088D01*
X66879319Y-161874195D02*
X66778304Y-161840523D01*
X66778304Y-161840523D02*
X66609945Y-161672164D01*
X66609945Y-161672164D02*
X66576273Y-161571149D01*
X66576273Y-161571149D02*
X66609945Y-161470134D01*
X66609945Y-161470134D02*
X66677288Y-161402790D01*
X66677288Y-161402790D02*
X66778304Y-161369118D01*
X66778304Y-161369118D02*
X66879319Y-161402790D01*
X66879319Y-161402790D02*
X67047678Y-161571149D01*
X67047678Y-161571149D02*
X67148693Y-161604821D01*
X67653769Y-161773180D02*
X67182365Y-162244584D01*
X67586426Y-161840523D02*
X67653769Y-161840523D01*
X67653769Y-161840523D02*
X67754784Y-161874195D01*
X67754784Y-161874195D02*
X67855800Y-161975210D01*
X67855800Y-161975210D02*
X67889471Y-162076225D01*
X67889471Y-162076225D02*
X67855800Y-162177241D01*
X67855800Y-162177241D02*
X67485410Y-162547630D01*
X67822128Y-162884347D02*
X68293533Y-162412943D01*
X68529235Y-162177241D02*
X68461891Y-162177241D01*
X68461891Y-162177241D02*
X68461891Y-162244584D01*
X68461891Y-162244584D02*
X68529235Y-162244584D01*
X68529235Y-162244584D02*
X68529235Y-162177241D01*
X68529235Y-162177241D02*
X68461891Y-162244584D01*
D11*
X49741905Y-114244819D02*
X49741905Y-113244819D01*
X49741905Y-113244819D02*
X49980000Y-113244819D01*
X49980000Y-113244819D02*
X50122857Y-113292438D01*
X50122857Y-113292438D02*
X50218095Y-113387676D01*
X50218095Y-113387676D02*
X50265714Y-113482914D01*
X50265714Y-113482914D02*
X50313333Y-113673390D01*
X50313333Y-113673390D02*
X50313333Y-113816247D01*
X50313333Y-113816247D02*
X50265714Y-114006723D01*
X50265714Y-114006723D02*
X50218095Y-114101961D01*
X50218095Y-114101961D02*
X50122857Y-114197200D01*
X50122857Y-114197200D02*
X49980000Y-114244819D01*
X49980000Y-114244819D02*
X49741905Y-114244819D01*
X50646667Y-113244819D02*
X51265714Y-113244819D01*
X51265714Y-113244819D02*
X50932381Y-113625771D01*
X50932381Y-113625771D02*
X51075238Y-113625771D01*
X51075238Y-113625771D02*
X51170476Y-113673390D01*
X51170476Y-113673390D02*
X51218095Y-113721009D01*
X51218095Y-113721009D02*
X51265714Y-113816247D01*
X51265714Y-113816247D02*
X51265714Y-114054342D01*
X51265714Y-114054342D02*
X51218095Y-114149580D01*
X51218095Y-114149580D02*
X51170476Y-114197200D01*
X51170476Y-114197200D02*
X51075238Y-114244819D01*
X51075238Y-114244819D02*
X50789524Y-114244819D01*
X50789524Y-114244819D02*
X50694286Y-114197200D01*
X50694286Y-114197200D02*
X50646667Y-114149580D01*
X108583333Y-117834819D02*
X108250000Y-117358628D01*
X108011905Y-117834819D02*
X108011905Y-116834819D01*
X108011905Y-116834819D02*
X108392857Y-116834819D01*
X108392857Y-116834819D02*
X108488095Y-116882438D01*
X108488095Y-116882438D02*
X108535714Y-116930057D01*
X108535714Y-116930057D02*
X108583333Y-117025295D01*
X108583333Y-117025295D02*
X108583333Y-117168152D01*
X108583333Y-117168152D02*
X108535714Y-117263390D01*
X108535714Y-117263390D02*
X108488095Y-117311009D01*
X108488095Y-117311009D02*
X108392857Y-117358628D01*
X108392857Y-117358628D02*
X108011905Y-117358628D01*
X108964286Y-116930057D02*
X109011905Y-116882438D01*
X109011905Y-116882438D02*
X109107143Y-116834819D01*
X109107143Y-116834819D02*
X109345238Y-116834819D01*
X109345238Y-116834819D02*
X109440476Y-116882438D01*
X109440476Y-116882438D02*
X109488095Y-116930057D01*
X109488095Y-116930057D02*
X109535714Y-117025295D01*
X109535714Y-117025295D02*
X109535714Y-117120533D01*
X109535714Y-117120533D02*
X109488095Y-117263390D01*
X109488095Y-117263390D02*
X108916667Y-117834819D01*
X108916667Y-117834819D02*
X109535714Y-117834819D01*
X67743333Y-122574819D02*
X67410000Y-122098628D01*
X67171905Y-122574819D02*
X67171905Y-121574819D01*
X67171905Y-121574819D02*
X67552857Y-121574819D01*
X67552857Y-121574819D02*
X67648095Y-121622438D01*
X67648095Y-121622438D02*
X67695714Y-121670057D01*
X67695714Y-121670057D02*
X67743333Y-121765295D01*
X67743333Y-121765295D02*
X67743333Y-121908152D01*
X67743333Y-121908152D02*
X67695714Y-122003390D01*
X67695714Y-122003390D02*
X67648095Y-122051009D01*
X67648095Y-122051009D02*
X67552857Y-122098628D01*
X67552857Y-122098628D02*
X67171905Y-122098628D01*
X68695714Y-122574819D02*
X68124286Y-122574819D01*
X68410000Y-122574819D02*
X68410000Y-121574819D01*
X68410000Y-121574819D02*
X68314762Y-121717676D01*
X68314762Y-121717676D02*
X68219524Y-121812914D01*
X68219524Y-121812914D02*
X68124286Y-121860533D01*
X108663333Y-123834819D02*
X108330000Y-123358628D01*
X108091905Y-123834819D02*
X108091905Y-122834819D01*
X108091905Y-122834819D02*
X108472857Y-122834819D01*
X108472857Y-122834819D02*
X108568095Y-122882438D01*
X108568095Y-122882438D02*
X108615714Y-122930057D01*
X108615714Y-122930057D02*
X108663333Y-123025295D01*
X108663333Y-123025295D02*
X108663333Y-123168152D01*
X108663333Y-123168152D02*
X108615714Y-123263390D01*
X108615714Y-123263390D02*
X108568095Y-123311009D01*
X108568095Y-123311009D02*
X108472857Y-123358628D01*
X108472857Y-123358628D02*
X108091905Y-123358628D01*
X109520476Y-123168152D02*
X109520476Y-123834819D01*
X109282381Y-122787200D02*
X109044286Y-123501485D01*
X109044286Y-123501485D02*
X109663333Y-123501485D01*
X67663333Y-140574819D02*
X67330000Y-140098628D01*
X67091905Y-140574819D02*
X67091905Y-139574819D01*
X67091905Y-139574819D02*
X67472857Y-139574819D01*
X67472857Y-139574819D02*
X67568095Y-139622438D01*
X67568095Y-139622438D02*
X67615714Y-139670057D01*
X67615714Y-139670057D02*
X67663333Y-139765295D01*
X67663333Y-139765295D02*
X67663333Y-139908152D01*
X67663333Y-139908152D02*
X67615714Y-140003390D01*
X67615714Y-140003390D02*
X67568095Y-140051009D01*
X67568095Y-140051009D02*
X67472857Y-140098628D01*
X67472857Y-140098628D02*
X67091905Y-140098628D01*
X68139524Y-140574819D02*
X68330000Y-140574819D01*
X68330000Y-140574819D02*
X68425238Y-140527200D01*
X68425238Y-140527200D02*
X68472857Y-140479580D01*
X68472857Y-140479580D02*
X68568095Y-140336723D01*
X68568095Y-140336723D02*
X68615714Y-140146247D01*
X68615714Y-140146247D02*
X68615714Y-139765295D01*
X68615714Y-139765295D02*
X68568095Y-139670057D01*
X68568095Y-139670057D02*
X68520476Y-139622438D01*
X68520476Y-139622438D02*
X68425238Y-139574819D01*
X68425238Y-139574819D02*
X68234762Y-139574819D01*
X68234762Y-139574819D02*
X68139524Y-139622438D01*
X68139524Y-139622438D02*
X68091905Y-139670057D01*
X68091905Y-139670057D02*
X68044286Y-139765295D01*
X68044286Y-139765295D02*
X68044286Y-140003390D01*
X68044286Y-140003390D02*
X68091905Y-140098628D01*
X68091905Y-140098628D02*
X68139524Y-140146247D01*
X68139524Y-140146247D02*
X68234762Y-140193866D01*
X68234762Y-140193866D02*
X68425238Y-140193866D01*
X68425238Y-140193866D02*
X68520476Y-140146247D01*
X68520476Y-140146247D02*
X68568095Y-140098628D01*
X68568095Y-140098628D02*
X68615714Y-140003390D01*
X123741905Y-131494819D02*
X123741905Y-130494819D01*
X123741905Y-130494819D02*
X123980000Y-130494819D01*
X123980000Y-130494819D02*
X124122857Y-130542438D01*
X124122857Y-130542438D02*
X124218095Y-130637676D01*
X124218095Y-130637676D02*
X124265714Y-130732914D01*
X124265714Y-130732914D02*
X124313333Y-130923390D01*
X124313333Y-130923390D02*
X124313333Y-131066247D01*
X124313333Y-131066247D02*
X124265714Y-131256723D01*
X124265714Y-131256723D02*
X124218095Y-131351961D01*
X124218095Y-131351961D02*
X124122857Y-131447200D01*
X124122857Y-131447200D02*
X123980000Y-131494819D01*
X123980000Y-131494819D02*
X123741905Y-131494819D01*
X125170476Y-130494819D02*
X124980000Y-130494819D01*
X124980000Y-130494819D02*
X124884762Y-130542438D01*
X124884762Y-130542438D02*
X124837143Y-130590057D01*
X124837143Y-130590057D02*
X124741905Y-130732914D01*
X124741905Y-130732914D02*
X124694286Y-130923390D01*
X124694286Y-130923390D02*
X124694286Y-131304342D01*
X124694286Y-131304342D02*
X124741905Y-131399580D01*
X124741905Y-131399580D02*
X124789524Y-131447200D01*
X124789524Y-131447200D02*
X124884762Y-131494819D01*
X124884762Y-131494819D02*
X125075238Y-131494819D01*
X125075238Y-131494819D02*
X125170476Y-131447200D01*
X125170476Y-131447200D02*
X125218095Y-131399580D01*
X125218095Y-131399580D02*
X125265714Y-131304342D01*
X125265714Y-131304342D02*
X125265714Y-131066247D01*
X125265714Y-131066247D02*
X125218095Y-130971009D01*
X125218095Y-130971009D02*
X125170476Y-130923390D01*
X125170476Y-130923390D02*
X125075238Y-130875771D01*
X125075238Y-130875771D02*
X124884762Y-130875771D01*
X124884762Y-130875771D02*
X124789524Y-130923390D01*
X124789524Y-130923390D02*
X124741905Y-130971009D01*
X124741905Y-130971009D02*
X124694286Y-131066247D01*
X100324819Y-131086666D02*
X99848628Y-131419999D01*
X100324819Y-131658094D02*
X99324819Y-131658094D01*
X99324819Y-131658094D02*
X99324819Y-131277142D01*
X99324819Y-131277142D02*
X99372438Y-131181904D01*
X99372438Y-131181904D02*
X99420057Y-131134285D01*
X99420057Y-131134285D02*
X99515295Y-131086666D01*
X99515295Y-131086666D02*
X99658152Y-131086666D01*
X99658152Y-131086666D02*
X99753390Y-131134285D01*
X99753390Y-131134285D02*
X99801009Y-131181904D01*
X99801009Y-131181904D02*
X99848628Y-131277142D01*
X99848628Y-131277142D02*
X99848628Y-131658094D01*
X99324819Y-130229523D02*
X99324819Y-130419999D01*
X99324819Y-130419999D02*
X99372438Y-130515237D01*
X99372438Y-130515237D02*
X99420057Y-130562856D01*
X99420057Y-130562856D02*
X99562914Y-130658094D01*
X99562914Y-130658094D02*
X99753390Y-130705713D01*
X99753390Y-130705713D02*
X100134342Y-130705713D01*
X100134342Y-130705713D02*
X100229580Y-130658094D01*
X100229580Y-130658094D02*
X100277200Y-130610475D01*
X100277200Y-130610475D02*
X100324819Y-130515237D01*
X100324819Y-130515237D02*
X100324819Y-130324761D01*
X100324819Y-130324761D02*
X100277200Y-130229523D01*
X100277200Y-130229523D02*
X100229580Y-130181904D01*
X100229580Y-130181904D02*
X100134342Y-130134285D01*
X100134342Y-130134285D02*
X99896247Y-130134285D01*
X99896247Y-130134285D02*
X99801009Y-130181904D01*
X99801009Y-130181904D02*
X99753390Y-130229523D01*
X99753390Y-130229523D02*
X99705771Y-130324761D01*
X99705771Y-130324761D02*
X99705771Y-130515237D01*
X99705771Y-130515237D02*
X99753390Y-130610475D01*
X99753390Y-130610475D02*
X99801009Y-130658094D01*
X99801009Y-130658094D02*
X99896247Y-130705713D01*
X124491905Y-114494819D02*
X124491905Y-113494819D01*
X124491905Y-113494819D02*
X124730000Y-113494819D01*
X124730000Y-113494819D02*
X124872857Y-113542438D01*
X124872857Y-113542438D02*
X124968095Y-113637676D01*
X124968095Y-113637676D02*
X125015714Y-113732914D01*
X125015714Y-113732914D02*
X125063333Y-113923390D01*
X125063333Y-113923390D02*
X125063333Y-114066247D01*
X125063333Y-114066247D02*
X125015714Y-114256723D01*
X125015714Y-114256723D02*
X124968095Y-114351961D01*
X124968095Y-114351961D02*
X124872857Y-114447200D01*
X124872857Y-114447200D02*
X124730000Y-114494819D01*
X124730000Y-114494819D02*
X124491905Y-114494819D01*
X125920476Y-113828152D02*
X125920476Y-114494819D01*
X125682381Y-113447200D02*
X125444286Y-114161485D01*
X125444286Y-114161485D02*
X126063333Y-114161485D01*
X104833333Y-143609580D02*
X104785714Y-143657200D01*
X104785714Y-143657200D02*
X104642857Y-143704819D01*
X104642857Y-143704819D02*
X104547619Y-143704819D01*
X104547619Y-143704819D02*
X104404762Y-143657200D01*
X104404762Y-143657200D02*
X104309524Y-143561961D01*
X104309524Y-143561961D02*
X104261905Y-143466723D01*
X104261905Y-143466723D02*
X104214286Y-143276247D01*
X104214286Y-143276247D02*
X104214286Y-143133390D01*
X104214286Y-143133390D02*
X104261905Y-142942914D01*
X104261905Y-142942914D02*
X104309524Y-142847676D01*
X104309524Y-142847676D02*
X104404762Y-142752438D01*
X104404762Y-142752438D02*
X104547619Y-142704819D01*
X104547619Y-142704819D02*
X104642857Y-142704819D01*
X104642857Y-142704819D02*
X104785714Y-142752438D01*
X104785714Y-142752438D02*
X104833333Y-142800057D01*
X105785714Y-143704819D02*
X105214286Y-143704819D01*
X105500000Y-143704819D02*
X105500000Y-142704819D01*
X105500000Y-142704819D02*
X105404762Y-142847676D01*
X105404762Y-142847676D02*
X105309524Y-142942914D01*
X105309524Y-142942914D02*
X105214286Y-142990533D01*
X117241905Y-141744819D02*
X117241905Y-140744819D01*
X117241905Y-140744819D02*
X117480000Y-140744819D01*
X117480000Y-140744819D02*
X117622857Y-140792438D01*
X117622857Y-140792438D02*
X117718095Y-140887676D01*
X117718095Y-140887676D02*
X117765714Y-140982914D01*
X117765714Y-140982914D02*
X117813333Y-141173390D01*
X117813333Y-141173390D02*
X117813333Y-141316247D01*
X117813333Y-141316247D02*
X117765714Y-141506723D01*
X117765714Y-141506723D02*
X117718095Y-141601961D01*
X117718095Y-141601961D02*
X117622857Y-141697200D01*
X117622857Y-141697200D02*
X117480000Y-141744819D01*
X117480000Y-141744819D02*
X117241905Y-141744819D01*
X118384762Y-141173390D02*
X118289524Y-141125771D01*
X118289524Y-141125771D02*
X118241905Y-141078152D01*
X118241905Y-141078152D02*
X118194286Y-140982914D01*
X118194286Y-140982914D02*
X118194286Y-140935295D01*
X118194286Y-140935295D02*
X118241905Y-140840057D01*
X118241905Y-140840057D02*
X118289524Y-140792438D01*
X118289524Y-140792438D02*
X118384762Y-140744819D01*
X118384762Y-140744819D02*
X118575238Y-140744819D01*
X118575238Y-140744819D02*
X118670476Y-140792438D01*
X118670476Y-140792438D02*
X118718095Y-140840057D01*
X118718095Y-140840057D02*
X118765714Y-140935295D01*
X118765714Y-140935295D02*
X118765714Y-140982914D01*
X118765714Y-140982914D02*
X118718095Y-141078152D01*
X118718095Y-141078152D02*
X118670476Y-141125771D01*
X118670476Y-141125771D02*
X118575238Y-141173390D01*
X118575238Y-141173390D02*
X118384762Y-141173390D01*
X118384762Y-141173390D02*
X118289524Y-141221009D01*
X118289524Y-141221009D02*
X118241905Y-141268628D01*
X118241905Y-141268628D02*
X118194286Y-141363866D01*
X118194286Y-141363866D02*
X118194286Y-141554342D01*
X118194286Y-141554342D02*
X118241905Y-141649580D01*
X118241905Y-141649580D02*
X118289524Y-141697200D01*
X118289524Y-141697200D02*
X118384762Y-141744819D01*
X118384762Y-141744819D02*
X118575238Y-141744819D01*
X118575238Y-141744819D02*
X118670476Y-141697200D01*
X118670476Y-141697200D02*
X118718095Y-141649580D01*
X118718095Y-141649580D02*
X118765714Y-141554342D01*
X118765714Y-141554342D02*
X118765714Y-141363866D01*
X118765714Y-141363866D02*
X118718095Y-141268628D01*
X118718095Y-141268628D02*
X118670476Y-141221009D01*
X118670476Y-141221009D02*
X118575238Y-141173390D01*
X67663333Y-128574819D02*
X67330000Y-128098628D01*
X67091905Y-128574819D02*
X67091905Y-127574819D01*
X67091905Y-127574819D02*
X67472857Y-127574819D01*
X67472857Y-127574819D02*
X67568095Y-127622438D01*
X67568095Y-127622438D02*
X67615714Y-127670057D01*
X67615714Y-127670057D02*
X67663333Y-127765295D01*
X67663333Y-127765295D02*
X67663333Y-127908152D01*
X67663333Y-127908152D02*
X67615714Y-128003390D01*
X67615714Y-128003390D02*
X67568095Y-128051009D01*
X67568095Y-128051009D02*
X67472857Y-128098628D01*
X67472857Y-128098628D02*
X67091905Y-128098628D01*
X67996667Y-127574819D02*
X68615714Y-127574819D01*
X68615714Y-127574819D02*
X68282381Y-127955771D01*
X68282381Y-127955771D02*
X68425238Y-127955771D01*
X68425238Y-127955771D02*
X68520476Y-128003390D01*
X68520476Y-128003390D02*
X68568095Y-128051009D01*
X68568095Y-128051009D02*
X68615714Y-128146247D01*
X68615714Y-128146247D02*
X68615714Y-128384342D01*
X68615714Y-128384342D02*
X68568095Y-128479580D01*
X68568095Y-128479580D02*
X68520476Y-128527200D01*
X68520476Y-128527200D02*
X68425238Y-128574819D01*
X68425238Y-128574819D02*
X68139524Y-128574819D01*
X68139524Y-128574819D02*
X68044286Y-128527200D01*
X68044286Y-128527200D02*
X67996667Y-128479580D01*
X108107142Y-135834819D02*
X107773809Y-135358628D01*
X107535714Y-135834819D02*
X107535714Y-134834819D01*
X107535714Y-134834819D02*
X107916666Y-134834819D01*
X107916666Y-134834819D02*
X108011904Y-134882438D01*
X108011904Y-134882438D02*
X108059523Y-134930057D01*
X108059523Y-134930057D02*
X108107142Y-135025295D01*
X108107142Y-135025295D02*
X108107142Y-135168152D01*
X108107142Y-135168152D02*
X108059523Y-135263390D01*
X108059523Y-135263390D02*
X108011904Y-135311009D01*
X108011904Y-135311009D02*
X107916666Y-135358628D01*
X107916666Y-135358628D02*
X107535714Y-135358628D01*
X109059523Y-135834819D02*
X108488095Y-135834819D01*
X108773809Y-135834819D02*
X108773809Y-134834819D01*
X108773809Y-134834819D02*
X108678571Y-134977676D01*
X108678571Y-134977676D02*
X108583333Y-135072914D01*
X108583333Y-135072914D02*
X108488095Y-135120533D01*
X109678571Y-134834819D02*
X109773809Y-134834819D01*
X109773809Y-134834819D02*
X109869047Y-134882438D01*
X109869047Y-134882438D02*
X109916666Y-134930057D01*
X109916666Y-134930057D02*
X109964285Y-135025295D01*
X109964285Y-135025295D02*
X110011904Y-135215771D01*
X110011904Y-135215771D02*
X110011904Y-135453866D01*
X110011904Y-135453866D02*
X109964285Y-135644342D01*
X109964285Y-135644342D02*
X109916666Y-135739580D01*
X109916666Y-135739580D02*
X109869047Y-135787200D01*
X109869047Y-135787200D02*
X109773809Y-135834819D01*
X109773809Y-135834819D02*
X109678571Y-135834819D01*
X109678571Y-135834819D02*
X109583333Y-135787200D01*
X109583333Y-135787200D02*
X109535714Y-135739580D01*
X109535714Y-135739580D02*
X109488095Y-135644342D01*
X109488095Y-135644342D02*
X109440476Y-135453866D01*
X109440476Y-135453866D02*
X109440476Y-135215771D01*
X109440476Y-135215771D02*
X109488095Y-135025295D01*
X109488095Y-135025295D02*
X109535714Y-134930057D01*
X109535714Y-134930057D02*
X109583333Y-134882438D01*
X109583333Y-134882438D02*
X109678571Y-134834819D01*
X78634761Y-147110057D02*
X78539523Y-147062438D01*
X78539523Y-147062438D02*
X78444285Y-146967200D01*
X78444285Y-146967200D02*
X78301428Y-146824342D01*
X78301428Y-146824342D02*
X78206190Y-146776723D01*
X78206190Y-146776723D02*
X78110952Y-146776723D01*
X78158571Y-147014819D02*
X78063333Y-146967200D01*
X78063333Y-146967200D02*
X77968095Y-146871961D01*
X77968095Y-146871961D02*
X77920476Y-146681485D01*
X77920476Y-146681485D02*
X77920476Y-146348152D01*
X77920476Y-146348152D02*
X77968095Y-146157676D01*
X77968095Y-146157676D02*
X78063333Y-146062438D01*
X78063333Y-146062438D02*
X78158571Y-146014819D01*
X78158571Y-146014819D02*
X78349047Y-146014819D01*
X78349047Y-146014819D02*
X78444285Y-146062438D01*
X78444285Y-146062438D02*
X78539523Y-146157676D01*
X78539523Y-146157676D02*
X78587142Y-146348152D01*
X78587142Y-146348152D02*
X78587142Y-146681485D01*
X78587142Y-146681485D02*
X78539523Y-146871961D01*
X78539523Y-146871961D02*
X78444285Y-146967200D01*
X78444285Y-146967200D02*
X78349047Y-147014819D01*
X78349047Y-147014819D02*
X78158571Y-147014819D01*
X78968095Y-146110057D02*
X79015714Y-146062438D01*
X79015714Y-146062438D02*
X79110952Y-146014819D01*
X79110952Y-146014819D02*
X79349047Y-146014819D01*
X79349047Y-146014819D02*
X79444285Y-146062438D01*
X79444285Y-146062438D02*
X79491904Y-146110057D01*
X79491904Y-146110057D02*
X79539523Y-146205295D01*
X79539523Y-146205295D02*
X79539523Y-146300533D01*
X79539523Y-146300533D02*
X79491904Y-146443390D01*
X79491904Y-146443390D02*
X78920476Y-147014819D01*
X78920476Y-147014819D02*
X79539523Y-147014819D01*
X95988095Y-107404819D02*
X95988095Y-106404819D01*
X95988095Y-106881009D02*
X96559523Y-106881009D01*
X96559523Y-107404819D02*
X96559523Y-106404819D01*
X96988095Y-106500057D02*
X97035714Y-106452438D01*
X97035714Y-106452438D02*
X97130952Y-106404819D01*
X97130952Y-106404819D02*
X97369047Y-106404819D01*
X97369047Y-106404819D02*
X97464285Y-106452438D01*
X97464285Y-106452438D02*
X97511904Y-106500057D01*
X97511904Y-106500057D02*
X97559523Y-106595295D01*
X97559523Y-106595295D02*
X97559523Y-106690533D01*
X97559523Y-106690533D02*
X97511904Y-106833390D01*
X97511904Y-106833390D02*
X96940476Y-107404819D01*
X96940476Y-107404819D02*
X97559523Y-107404819D01*
X78238095Y-107404819D02*
X78238095Y-106404819D01*
X78238095Y-106881009D02*
X78809523Y-106881009D01*
X78809523Y-107404819D02*
X78809523Y-106404819D01*
X79809523Y-107404819D02*
X79238095Y-107404819D01*
X79523809Y-107404819D02*
X79523809Y-106404819D01*
X79523809Y-106404819D02*
X79428571Y-106547676D01*
X79428571Y-106547676D02*
X79333333Y-106642914D01*
X79333333Y-106642914D02*
X79238095Y-106690533D01*
X70833333Y-143609580D02*
X70785714Y-143657200D01*
X70785714Y-143657200D02*
X70642857Y-143704819D01*
X70642857Y-143704819D02*
X70547619Y-143704819D01*
X70547619Y-143704819D02*
X70404762Y-143657200D01*
X70404762Y-143657200D02*
X70309524Y-143561961D01*
X70309524Y-143561961D02*
X70261905Y-143466723D01*
X70261905Y-143466723D02*
X70214286Y-143276247D01*
X70214286Y-143276247D02*
X70214286Y-143133390D01*
X70214286Y-143133390D02*
X70261905Y-142942914D01*
X70261905Y-142942914D02*
X70309524Y-142847676D01*
X70309524Y-142847676D02*
X70404762Y-142752438D01*
X70404762Y-142752438D02*
X70547619Y-142704819D01*
X70547619Y-142704819D02*
X70642857Y-142704819D01*
X70642857Y-142704819D02*
X70785714Y-142752438D01*
X70785714Y-142752438D02*
X70833333Y-142800057D01*
X71214286Y-142800057D02*
X71261905Y-142752438D01*
X71261905Y-142752438D02*
X71357143Y-142704819D01*
X71357143Y-142704819D02*
X71595238Y-142704819D01*
X71595238Y-142704819D02*
X71690476Y-142752438D01*
X71690476Y-142752438D02*
X71738095Y-142800057D01*
X71738095Y-142800057D02*
X71785714Y-142895295D01*
X71785714Y-142895295D02*
X71785714Y-142990533D01*
X71785714Y-142990533D02*
X71738095Y-143133390D01*
X71738095Y-143133390D02*
X71166667Y-143704819D01*
X71166667Y-143704819D02*
X71785714Y-143704819D01*
X50506905Y-130994819D02*
X50506905Y-129994819D01*
X50506905Y-129994819D02*
X50745000Y-129994819D01*
X50745000Y-129994819D02*
X50887857Y-130042438D01*
X50887857Y-130042438D02*
X50983095Y-130137676D01*
X50983095Y-130137676D02*
X51030714Y-130232914D01*
X51030714Y-130232914D02*
X51078333Y-130423390D01*
X51078333Y-130423390D02*
X51078333Y-130566247D01*
X51078333Y-130566247D02*
X51030714Y-130756723D01*
X51030714Y-130756723D02*
X50983095Y-130851961D01*
X50983095Y-130851961D02*
X50887857Y-130947200D01*
X50887857Y-130947200D02*
X50745000Y-130994819D01*
X50745000Y-130994819D02*
X50506905Y-130994819D01*
X51983095Y-129994819D02*
X51506905Y-129994819D01*
X51506905Y-129994819D02*
X51459286Y-130471009D01*
X51459286Y-130471009D02*
X51506905Y-130423390D01*
X51506905Y-130423390D02*
X51602143Y-130375771D01*
X51602143Y-130375771D02*
X51840238Y-130375771D01*
X51840238Y-130375771D02*
X51935476Y-130423390D01*
X51935476Y-130423390D02*
X51983095Y-130471009D01*
X51983095Y-130471009D02*
X52030714Y-130566247D01*
X52030714Y-130566247D02*
X52030714Y-130804342D01*
X52030714Y-130804342D02*
X51983095Y-130899580D01*
X51983095Y-130899580D02*
X51935476Y-130947200D01*
X51935476Y-130947200D02*
X51840238Y-130994819D01*
X51840238Y-130994819D02*
X51602143Y-130994819D01*
X51602143Y-130994819D02*
X51506905Y-130947200D01*
X51506905Y-130947200D02*
X51459286Y-130899580D01*
X82824819Y-130916666D02*
X82348628Y-131249999D01*
X82824819Y-131488094D02*
X81824819Y-131488094D01*
X81824819Y-131488094D02*
X81824819Y-131107142D01*
X81824819Y-131107142D02*
X81872438Y-131011904D01*
X81872438Y-131011904D02*
X81920057Y-130964285D01*
X81920057Y-130964285D02*
X82015295Y-130916666D01*
X82015295Y-130916666D02*
X82158152Y-130916666D01*
X82158152Y-130916666D02*
X82253390Y-130964285D01*
X82253390Y-130964285D02*
X82301009Y-131011904D01*
X82301009Y-131011904D02*
X82348628Y-131107142D01*
X82348628Y-131107142D02*
X82348628Y-131488094D01*
X81824819Y-130011904D02*
X81824819Y-130488094D01*
X81824819Y-130488094D02*
X82301009Y-130535713D01*
X82301009Y-130535713D02*
X82253390Y-130488094D01*
X82253390Y-130488094D02*
X82205771Y-130392856D01*
X82205771Y-130392856D02*
X82205771Y-130154761D01*
X82205771Y-130154761D02*
X82253390Y-130059523D01*
X82253390Y-130059523D02*
X82301009Y-130011904D01*
X82301009Y-130011904D02*
X82396247Y-129964285D01*
X82396247Y-129964285D02*
X82634342Y-129964285D01*
X82634342Y-129964285D02*
X82729580Y-130011904D01*
X82729580Y-130011904D02*
X82777200Y-130059523D01*
X82777200Y-130059523D02*
X82824819Y-130154761D01*
X82824819Y-130154761D02*
X82824819Y-130392856D01*
X82824819Y-130392856D02*
X82777200Y-130488094D01*
X82777200Y-130488094D02*
X82729580Y-130535713D01*
X109991905Y-105494819D02*
X109991905Y-104494819D01*
X109991905Y-104494819D02*
X110230000Y-104494819D01*
X110230000Y-104494819D02*
X110372857Y-104542438D01*
X110372857Y-104542438D02*
X110468095Y-104637676D01*
X110468095Y-104637676D02*
X110515714Y-104732914D01*
X110515714Y-104732914D02*
X110563333Y-104923390D01*
X110563333Y-104923390D02*
X110563333Y-105066247D01*
X110563333Y-105066247D02*
X110515714Y-105256723D01*
X110515714Y-105256723D02*
X110468095Y-105351961D01*
X110468095Y-105351961D02*
X110372857Y-105447200D01*
X110372857Y-105447200D02*
X110230000Y-105494819D01*
X110230000Y-105494819D02*
X109991905Y-105494819D01*
X110944286Y-104590057D02*
X110991905Y-104542438D01*
X110991905Y-104542438D02*
X111087143Y-104494819D01*
X111087143Y-104494819D02*
X111325238Y-104494819D01*
X111325238Y-104494819D02*
X111420476Y-104542438D01*
X111420476Y-104542438D02*
X111468095Y-104590057D01*
X111468095Y-104590057D02*
X111515714Y-104685295D01*
X111515714Y-104685295D02*
X111515714Y-104780533D01*
X111515714Y-104780533D02*
X111468095Y-104923390D01*
X111468095Y-104923390D02*
X110896667Y-105494819D01*
X110896667Y-105494819D02*
X111515714Y-105494819D01*
X97174761Y-147110057D02*
X97079523Y-147062438D01*
X97079523Y-147062438D02*
X96984285Y-146967200D01*
X96984285Y-146967200D02*
X96841428Y-146824342D01*
X96841428Y-146824342D02*
X96746190Y-146776723D01*
X96746190Y-146776723D02*
X96650952Y-146776723D01*
X96698571Y-147014819D02*
X96603333Y-146967200D01*
X96603333Y-146967200D02*
X96508095Y-146871961D01*
X96508095Y-146871961D02*
X96460476Y-146681485D01*
X96460476Y-146681485D02*
X96460476Y-146348152D01*
X96460476Y-146348152D02*
X96508095Y-146157676D01*
X96508095Y-146157676D02*
X96603333Y-146062438D01*
X96603333Y-146062438D02*
X96698571Y-146014819D01*
X96698571Y-146014819D02*
X96889047Y-146014819D01*
X96889047Y-146014819D02*
X96984285Y-146062438D01*
X96984285Y-146062438D02*
X97079523Y-146157676D01*
X97079523Y-146157676D02*
X97127142Y-146348152D01*
X97127142Y-146348152D02*
X97127142Y-146681485D01*
X97127142Y-146681485D02*
X97079523Y-146871961D01*
X97079523Y-146871961D02*
X96984285Y-146967200D01*
X96984285Y-146967200D02*
X96889047Y-147014819D01*
X96889047Y-147014819D02*
X96698571Y-147014819D01*
X98079523Y-147014819D02*
X97508095Y-147014819D01*
X97793809Y-147014819D02*
X97793809Y-146014819D01*
X97793809Y-146014819D02*
X97698571Y-146157676D01*
X97698571Y-146157676D02*
X97603333Y-146252914D01*
X97603333Y-146252914D02*
X97508095Y-146300533D01*
X108663333Y-129834819D02*
X108330000Y-129358628D01*
X108091905Y-129834819D02*
X108091905Y-128834819D01*
X108091905Y-128834819D02*
X108472857Y-128834819D01*
X108472857Y-128834819D02*
X108568095Y-128882438D01*
X108568095Y-128882438D02*
X108615714Y-128930057D01*
X108615714Y-128930057D02*
X108663333Y-129025295D01*
X108663333Y-129025295D02*
X108663333Y-129168152D01*
X108663333Y-129168152D02*
X108615714Y-129263390D01*
X108615714Y-129263390D02*
X108568095Y-129311009D01*
X108568095Y-129311009D02*
X108472857Y-129358628D01*
X108472857Y-129358628D02*
X108091905Y-129358628D01*
X109234762Y-129263390D02*
X109139524Y-129215771D01*
X109139524Y-129215771D02*
X109091905Y-129168152D01*
X109091905Y-129168152D02*
X109044286Y-129072914D01*
X109044286Y-129072914D02*
X109044286Y-129025295D01*
X109044286Y-129025295D02*
X109091905Y-128930057D01*
X109091905Y-128930057D02*
X109139524Y-128882438D01*
X109139524Y-128882438D02*
X109234762Y-128834819D01*
X109234762Y-128834819D02*
X109425238Y-128834819D01*
X109425238Y-128834819D02*
X109520476Y-128882438D01*
X109520476Y-128882438D02*
X109568095Y-128930057D01*
X109568095Y-128930057D02*
X109615714Y-129025295D01*
X109615714Y-129025295D02*
X109615714Y-129072914D01*
X109615714Y-129072914D02*
X109568095Y-129168152D01*
X109568095Y-129168152D02*
X109520476Y-129215771D01*
X109520476Y-129215771D02*
X109425238Y-129263390D01*
X109425238Y-129263390D02*
X109234762Y-129263390D01*
X109234762Y-129263390D02*
X109139524Y-129311009D01*
X109139524Y-129311009D02*
X109091905Y-129358628D01*
X109091905Y-129358628D02*
X109044286Y-129453866D01*
X109044286Y-129453866D02*
X109044286Y-129644342D01*
X109044286Y-129644342D02*
X109091905Y-129739580D01*
X109091905Y-129739580D02*
X109139524Y-129787200D01*
X109139524Y-129787200D02*
X109234762Y-129834819D01*
X109234762Y-129834819D02*
X109425238Y-129834819D01*
X109425238Y-129834819D02*
X109520476Y-129787200D01*
X109520476Y-129787200D02*
X109568095Y-129739580D01*
X109568095Y-129739580D02*
X109615714Y-129644342D01*
X109615714Y-129644342D02*
X109615714Y-129453866D01*
X109615714Y-129453866D02*
X109568095Y-129358628D01*
X109568095Y-129358628D02*
X109520476Y-129311009D01*
X109520476Y-129311009D02*
X109425238Y-129263390D01*
X57491905Y-142494819D02*
X57491905Y-141494819D01*
X57491905Y-141494819D02*
X57730000Y-141494819D01*
X57730000Y-141494819D02*
X57872857Y-141542438D01*
X57872857Y-141542438D02*
X57968095Y-141637676D01*
X57968095Y-141637676D02*
X58015714Y-141732914D01*
X58015714Y-141732914D02*
X58063333Y-141923390D01*
X58063333Y-141923390D02*
X58063333Y-142066247D01*
X58063333Y-142066247D02*
X58015714Y-142256723D01*
X58015714Y-142256723D02*
X57968095Y-142351961D01*
X57968095Y-142351961D02*
X57872857Y-142447200D01*
X57872857Y-142447200D02*
X57730000Y-142494819D01*
X57730000Y-142494819D02*
X57491905Y-142494819D01*
X58396667Y-141494819D02*
X59063333Y-141494819D01*
X59063333Y-141494819D02*
X58634762Y-142494819D01*
X67833333Y-134574819D02*
X67500000Y-134098628D01*
X67261905Y-134574819D02*
X67261905Y-133574819D01*
X67261905Y-133574819D02*
X67642857Y-133574819D01*
X67642857Y-133574819D02*
X67738095Y-133622438D01*
X67738095Y-133622438D02*
X67785714Y-133670057D01*
X67785714Y-133670057D02*
X67833333Y-133765295D01*
X67833333Y-133765295D02*
X67833333Y-133908152D01*
X67833333Y-133908152D02*
X67785714Y-134003390D01*
X67785714Y-134003390D02*
X67738095Y-134051009D01*
X67738095Y-134051009D02*
X67642857Y-134098628D01*
X67642857Y-134098628D02*
X67261905Y-134098628D01*
X68166667Y-133574819D02*
X68833333Y-133574819D01*
X68833333Y-133574819D02*
X68404762Y-134574819D01*
X64491905Y-105494819D02*
X64491905Y-104494819D01*
X64491905Y-104494819D02*
X64730000Y-104494819D01*
X64730000Y-104494819D02*
X64872857Y-104542438D01*
X64872857Y-104542438D02*
X64968095Y-104637676D01*
X64968095Y-104637676D02*
X65015714Y-104732914D01*
X65015714Y-104732914D02*
X65063333Y-104923390D01*
X65063333Y-104923390D02*
X65063333Y-105066247D01*
X65063333Y-105066247D02*
X65015714Y-105256723D01*
X65015714Y-105256723D02*
X64968095Y-105351961D01*
X64968095Y-105351961D02*
X64872857Y-105447200D01*
X64872857Y-105447200D02*
X64730000Y-105494819D01*
X64730000Y-105494819D02*
X64491905Y-105494819D01*
X66015714Y-105494819D02*
X65444286Y-105494819D01*
X65730000Y-105494819D02*
X65730000Y-104494819D01*
X65730000Y-104494819D02*
X65634762Y-104637676D01*
X65634762Y-104637676D02*
X65539524Y-104732914D01*
X65539524Y-104732914D02*
X65444286Y-104780533D01*
D12*
%TO.C,D3*%
X47920000Y-116205000D02*
X47920000Y-119295000D01*
X47920000Y-116205170D02*
G75*
G02*
X53470000Y-117750462I2560000J-1544830D01*
G01*
X53470000Y-117749538D02*
G75*
G02*
X47920000Y-119294830I-2990000J-462D01*
G01*
X52980000Y-117750000D02*
G75*
G02*
X47980000Y-117750000I-2500000J0D01*
G01*
X47980000Y-117750000D02*
G75*
G02*
X52980000Y-117750000I2500000J0D01*
G01*
%TO.C,R2*%
X104710000Y-119750000D02*
X105480000Y-119750000D01*
X105480000Y-118380000D02*
X105480000Y-121120000D01*
X105480000Y-121120000D02*
X112020000Y-121120000D01*
X112020000Y-118380000D02*
X105480000Y-118380000D01*
X112020000Y-121120000D02*
X112020000Y-118380000D01*
X112790000Y-119750000D02*
X112020000Y-119750000D01*
%TO.C,R1*%
X63870000Y-119750000D02*
X64640000Y-119750000D01*
X64640000Y-118380000D02*
X64640000Y-121120000D01*
X64640000Y-121120000D02*
X71180000Y-121120000D01*
X71180000Y-118380000D02*
X64640000Y-118380000D01*
X71180000Y-121120000D02*
X71180000Y-118380000D01*
X71950000Y-119750000D02*
X71180000Y-119750000D01*
%TO.C,R4*%
X104790000Y-125750000D02*
X105560000Y-125750000D01*
X105560000Y-124380000D02*
X105560000Y-127120000D01*
X105560000Y-127120000D02*
X112100000Y-127120000D01*
X112100000Y-124380000D02*
X105560000Y-124380000D01*
X112100000Y-127120000D02*
X112100000Y-124380000D01*
X112870000Y-125750000D02*
X112100000Y-125750000D01*
%TO.C,R9*%
X63790000Y-137750000D02*
X64560000Y-137750000D01*
X64560000Y-136380000D02*
X64560000Y-139120000D01*
X64560000Y-139120000D02*
X71100000Y-139120000D01*
X71100000Y-136380000D02*
X64560000Y-136380000D01*
X71100000Y-139120000D02*
X71100000Y-136380000D01*
X71870000Y-137750000D02*
X71100000Y-137750000D01*
%TO.C,D6*%
X121920000Y-133455000D02*
X121920000Y-136545000D01*
X121920000Y-133455170D02*
G75*
G02*
X127470000Y-135000462I2560000J-1544830D01*
G01*
X127470000Y-134999538D02*
G75*
G02*
X121920000Y-136544830I-2990000J-462D01*
G01*
X126980000Y-135000000D02*
G75*
G02*
X121980000Y-135000000I-2500000J0D01*
G01*
X121980000Y-135000000D02*
G75*
G02*
X126980000Y-135000000I2500000J0D01*
G01*
%TO.C,R6*%
X96130000Y-127650000D02*
X96130000Y-134190000D01*
X96130000Y-134190000D02*
X98870000Y-134190000D01*
X97500000Y-126880000D02*
X97500000Y-127650000D01*
X97500000Y-134960000D02*
X97500000Y-134190000D01*
X98870000Y-127650000D02*
X96130000Y-127650000D01*
X98870000Y-134190000D02*
X98870000Y-127650000D01*
%TO.C,D4*%
X122670000Y-116455000D02*
X122670000Y-119545000D01*
X122670000Y-116455170D02*
G75*
G02*
X128220000Y-118000462I2560000J-1544830D01*
G01*
X128220000Y-117999538D02*
G75*
G02*
X122670000Y-119544830I-2990000J-462D01*
G01*
X127730000Y-118000000D02*
G75*
G02*
X122730000Y-118000000I-2500000J0D01*
G01*
X122730000Y-118000000D02*
G75*
G02*
X127730000Y-118000000I2500000J0D01*
G01*
%TO.C,C1*%
X102195225Y-145525000D02*
X102695225Y-145525000D01*
X102445225Y-145275000D02*
X102445225Y-145775000D01*
X105000000Y-144420000D02*
X105000000Y-145960000D01*
X105000000Y-148040000D02*
X105000000Y-149580000D01*
X105040000Y-144420000D02*
X105040000Y-145960000D01*
X105040000Y-148040000D02*
X105040000Y-149580000D01*
X105080000Y-144421000D02*
X105080000Y-145960000D01*
X105080000Y-148040000D02*
X105080000Y-149579000D01*
X105120000Y-144422000D02*
X105120000Y-145960000D01*
X105120000Y-148040000D02*
X105120000Y-149578000D01*
X105160000Y-144424000D02*
X105160000Y-145960000D01*
X105160000Y-148040000D02*
X105160000Y-149576000D01*
X105200000Y-144427000D02*
X105200000Y-145960000D01*
X105200000Y-148040000D02*
X105200000Y-149573000D01*
X105240000Y-144431000D02*
X105240000Y-145960000D01*
X105240000Y-148040000D02*
X105240000Y-149569000D01*
X105280000Y-144435000D02*
X105280000Y-145960000D01*
X105280000Y-148040000D02*
X105280000Y-149565000D01*
X105320000Y-144439000D02*
X105320000Y-145960000D01*
X105320000Y-148040000D02*
X105320000Y-149561000D01*
X105360000Y-144444000D02*
X105360000Y-145960000D01*
X105360000Y-148040000D02*
X105360000Y-149556000D01*
X105400000Y-144450000D02*
X105400000Y-145960000D01*
X105400000Y-148040000D02*
X105400000Y-149550000D01*
X105440000Y-144457000D02*
X105440000Y-145960000D01*
X105440000Y-148040000D02*
X105440000Y-149543000D01*
X105480000Y-144464000D02*
X105480000Y-145960000D01*
X105480000Y-148040000D02*
X105480000Y-149536000D01*
X105520000Y-144472000D02*
X105520000Y-145960000D01*
X105520000Y-148040000D02*
X105520000Y-149528000D01*
X105560000Y-144480000D02*
X105560000Y-145960000D01*
X105560000Y-148040000D02*
X105560000Y-149520000D01*
X105600000Y-144489000D02*
X105600000Y-145960000D01*
X105600000Y-148040000D02*
X105600000Y-149511000D01*
X105640000Y-144499000D02*
X105640000Y-145960000D01*
X105640000Y-148040000D02*
X105640000Y-149501000D01*
X105680000Y-144509000D02*
X105680000Y-145960000D01*
X105680000Y-148040000D02*
X105680000Y-149491000D01*
X105721000Y-144520000D02*
X105721000Y-145960000D01*
X105721000Y-148040000D02*
X105721000Y-149480000D01*
X105761000Y-144532000D02*
X105761000Y-145960000D01*
X105761000Y-148040000D02*
X105761000Y-149468000D01*
X105801000Y-144545000D02*
X105801000Y-145960000D01*
X105801000Y-148040000D02*
X105801000Y-149455000D01*
X105841000Y-144558000D02*
X105841000Y-145960000D01*
X105841000Y-148040000D02*
X105841000Y-149442000D01*
X105881000Y-144572000D02*
X105881000Y-145960000D01*
X105881000Y-148040000D02*
X105881000Y-149428000D01*
X105921000Y-144586000D02*
X105921000Y-145960000D01*
X105921000Y-148040000D02*
X105921000Y-149414000D01*
X105961000Y-144602000D02*
X105961000Y-145960000D01*
X105961000Y-148040000D02*
X105961000Y-149398000D01*
X106001000Y-144618000D02*
X106001000Y-145960000D01*
X106001000Y-148040000D02*
X106001000Y-149382000D01*
X106041000Y-144635000D02*
X106041000Y-145960000D01*
X106041000Y-148040000D02*
X106041000Y-149365000D01*
X106081000Y-144652000D02*
X106081000Y-145960000D01*
X106081000Y-148040000D02*
X106081000Y-149348000D01*
X106121000Y-144671000D02*
X106121000Y-145960000D01*
X106121000Y-148040000D02*
X106121000Y-149329000D01*
X106161000Y-144690000D02*
X106161000Y-145960000D01*
X106161000Y-148040000D02*
X106161000Y-149310000D01*
X106201000Y-144710000D02*
X106201000Y-145960000D01*
X106201000Y-148040000D02*
X106201000Y-149290000D01*
X106241000Y-144732000D02*
X106241000Y-145960000D01*
X106241000Y-148040000D02*
X106241000Y-149268000D01*
X106281000Y-144753000D02*
X106281000Y-145960000D01*
X106281000Y-148040000D02*
X106281000Y-149247000D01*
X106321000Y-144776000D02*
X106321000Y-145960000D01*
X106321000Y-148040000D02*
X106321000Y-149224000D01*
X106361000Y-144800000D02*
X106361000Y-145960000D01*
X106361000Y-148040000D02*
X106361000Y-149200000D01*
X106401000Y-144825000D02*
X106401000Y-145960000D01*
X106401000Y-148040000D02*
X106401000Y-149175000D01*
X106441000Y-144851000D02*
X106441000Y-145960000D01*
X106441000Y-148040000D02*
X106441000Y-149149000D01*
X106481000Y-144878000D02*
X106481000Y-145960000D01*
X106481000Y-148040000D02*
X106481000Y-149122000D01*
X106521000Y-144905000D02*
X106521000Y-145960000D01*
X106521000Y-148040000D02*
X106521000Y-149095000D01*
X106561000Y-144935000D02*
X106561000Y-145960000D01*
X106561000Y-148040000D02*
X106561000Y-149065000D01*
X106601000Y-144965000D02*
X106601000Y-145960000D01*
X106601000Y-148040000D02*
X106601000Y-149035000D01*
X106641000Y-144996000D02*
X106641000Y-145960000D01*
X106641000Y-148040000D02*
X106641000Y-149004000D01*
X106681000Y-145029000D02*
X106681000Y-145960000D01*
X106681000Y-148040000D02*
X106681000Y-148971000D01*
X106721000Y-145063000D02*
X106721000Y-145960000D01*
X106721000Y-148040000D02*
X106721000Y-148937000D01*
X106761000Y-145099000D02*
X106761000Y-145960000D01*
X106761000Y-148040000D02*
X106761000Y-148901000D01*
X106801000Y-145136000D02*
X106801000Y-145960000D01*
X106801000Y-148040000D02*
X106801000Y-148864000D01*
X106841000Y-145174000D02*
X106841000Y-145960000D01*
X106841000Y-148040000D02*
X106841000Y-148826000D01*
X106881000Y-145215000D02*
X106881000Y-145960000D01*
X106881000Y-148040000D02*
X106881000Y-148785000D01*
X106921000Y-145257000D02*
X106921000Y-145960000D01*
X106921000Y-148040000D02*
X106921000Y-148743000D01*
X106961000Y-145301000D02*
X106961000Y-145960000D01*
X106961000Y-148040000D02*
X106961000Y-148699000D01*
X107001000Y-145347000D02*
X107001000Y-145960000D01*
X107001000Y-148040000D02*
X107001000Y-148653000D01*
X107041000Y-145395000D02*
X107041000Y-148605000D01*
X107081000Y-145446000D02*
X107081000Y-148554000D01*
X107121000Y-145500000D02*
X107121000Y-148500000D01*
X107161000Y-145557000D02*
X107161000Y-148443000D01*
X107201000Y-145617000D02*
X107201000Y-148383000D01*
X107241000Y-145681000D02*
X107241000Y-148319000D01*
X107281000Y-145749000D02*
X107281000Y-148251000D01*
X107321000Y-145822000D02*
X107321000Y-148178000D01*
X107361000Y-145902000D02*
X107361000Y-148098000D01*
X107401000Y-145989000D02*
X107401000Y-148011000D01*
X107441000Y-146085000D02*
X107441000Y-147915000D01*
X107481000Y-146195000D02*
X107481000Y-147805000D01*
X107521000Y-146323000D02*
X107521000Y-147677000D01*
X107561000Y-146482000D02*
X107561000Y-147518000D01*
X107601000Y-146716000D02*
X107601000Y-147284000D01*
X107620000Y-147000000D02*
G75*
G02*
X102380000Y-147000000I-2620000J0D01*
G01*
X102380000Y-147000000D02*
G75*
G02*
X107620000Y-147000000I2620000J0D01*
G01*
%TO.C,D8*%
X115420000Y-143705000D02*
X115420000Y-146795000D01*
X115420000Y-143705170D02*
G75*
G02*
X120970000Y-145250462I2560000J-1544830D01*
G01*
X120970000Y-145249538D02*
G75*
G02*
X115420000Y-146794830I-2990000J-462D01*
G01*
X120480000Y-145250000D02*
G75*
G02*
X115480000Y-145250000I-2500000J0D01*
G01*
X115480000Y-145250000D02*
G75*
G02*
X120480000Y-145250000I2500000J0D01*
G01*
%TO.C,R3*%
X63790000Y-125750000D02*
X64560000Y-125750000D01*
X64560000Y-124380000D02*
X64560000Y-127120000D01*
X64560000Y-127120000D02*
X71100000Y-127120000D01*
X71100000Y-124380000D02*
X64560000Y-124380000D01*
X71100000Y-127120000D02*
X71100000Y-124380000D01*
X71870000Y-125750000D02*
X71100000Y-125750000D01*
%TO.C,R10*%
X104710000Y-137750000D02*
X105480000Y-137750000D01*
X105480000Y-136380000D02*
X105480000Y-139120000D01*
X105480000Y-139120000D02*
X112020000Y-139120000D01*
X112020000Y-136380000D02*
X105480000Y-136380000D01*
X112020000Y-139120000D02*
X112020000Y-136380000D01*
X112790000Y-137750000D02*
X112020000Y-137750000D01*
%TO.C,Q2*%
X80530000Y-141150000D02*
X76930000Y-141150000D01*
X78730000Y-145600000D02*
G75*
G02*
X76891522Y-141161522I0J2600000D01*
G01*
X80568478Y-141161522D02*
G75*
G02*
X78730000Y-145600001I-1838478J-1838478D01*
G01*
%TO.C,C2*%
X68195225Y-145525000D02*
X68695225Y-145525000D01*
X68445225Y-145275000D02*
X68445225Y-145775000D01*
X71000000Y-144420000D02*
X71000000Y-145960000D01*
X71000000Y-148040000D02*
X71000000Y-149580000D01*
X71040000Y-144420000D02*
X71040000Y-145960000D01*
X71040000Y-148040000D02*
X71040000Y-149580000D01*
X71080000Y-144421000D02*
X71080000Y-145960000D01*
X71080000Y-148040000D02*
X71080000Y-149579000D01*
X71120000Y-144422000D02*
X71120000Y-145960000D01*
X71120000Y-148040000D02*
X71120000Y-149578000D01*
X71160000Y-144424000D02*
X71160000Y-145960000D01*
X71160000Y-148040000D02*
X71160000Y-149576000D01*
X71200000Y-144427000D02*
X71200000Y-145960000D01*
X71200000Y-148040000D02*
X71200000Y-149573000D01*
X71240000Y-144431000D02*
X71240000Y-145960000D01*
X71240000Y-148040000D02*
X71240000Y-149569000D01*
X71280000Y-144435000D02*
X71280000Y-145960000D01*
X71280000Y-148040000D02*
X71280000Y-149565000D01*
X71320000Y-144439000D02*
X71320000Y-145960000D01*
X71320000Y-148040000D02*
X71320000Y-149561000D01*
X71360000Y-144444000D02*
X71360000Y-145960000D01*
X71360000Y-148040000D02*
X71360000Y-149556000D01*
X71400000Y-144450000D02*
X71400000Y-145960000D01*
X71400000Y-148040000D02*
X71400000Y-149550000D01*
X71440000Y-144457000D02*
X71440000Y-145960000D01*
X71440000Y-148040000D02*
X71440000Y-149543000D01*
X71480000Y-144464000D02*
X71480000Y-145960000D01*
X71480000Y-148040000D02*
X71480000Y-149536000D01*
X71520000Y-144472000D02*
X71520000Y-145960000D01*
X71520000Y-148040000D02*
X71520000Y-149528000D01*
X71560000Y-144480000D02*
X71560000Y-145960000D01*
X71560000Y-148040000D02*
X71560000Y-149520000D01*
X71600000Y-144489000D02*
X71600000Y-145960000D01*
X71600000Y-148040000D02*
X71600000Y-149511000D01*
X71640000Y-144499000D02*
X71640000Y-145960000D01*
X71640000Y-148040000D02*
X71640000Y-149501000D01*
X71680000Y-144509000D02*
X71680000Y-145960000D01*
X71680000Y-148040000D02*
X71680000Y-149491000D01*
X71721000Y-144520000D02*
X71721000Y-145960000D01*
X71721000Y-148040000D02*
X71721000Y-149480000D01*
X71761000Y-144532000D02*
X71761000Y-145960000D01*
X71761000Y-148040000D02*
X71761000Y-149468000D01*
X71801000Y-144545000D02*
X71801000Y-145960000D01*
X71801000Y-148040000D02*
X71801000Y-149455000D01*
X71841000Y-144558000D02*
X71841000Y-145960000D01*
X71841000Y-148040000D02*
X71841000Y-149442000D01*
X71881000Y-144572000D02*
X71881000Y-145960000D01*
X71881000Y-148040000D02*
X71881000Y-149428000D01*
X71921000Y-144586000D02*
X71921000Y-145960000D01*
X71921000Y-148040000D02*
X71921000Y-149414000D01*
X71961000Y-144602000D02*
X71961000Y-145960000D01*
X71961000Y-148040000D02*
X71961000Y-149398000D01*
X72001000Y-144618000D02*
X72001000Y-145960000D01*
X72001000Y-148040000D02*
X72001000Y-149382000D01*
X72041000Y-144635000D02*
X72041000Y-145960000D01*
X72041000Y-148040000D02*
X72041000Y-149365000D01*
X72081000Y-144652000D02*
X72081000Y-145960000D01*
X72081000Y-148040000D02*
X72081000Y-149348000D01*
X72121000Y-144671000D02*
X72121000Y-145960000D01*
X72121000Y-148040000D02*
X72121000Y-149329000D01*
X72161000Y-144690000D02*
X72161000Y-145960000D01*
X72161000Y-148040000D02*
X72161000Y-149310000D01*
X72201000Y-144710000D02*
X72201000Y-145960000D01*
X72201000Y-148040000D02*
X72201000Y-149290000D01*
X72241000Y-144732000D02*
X72241000Y-145960000D01*
X72241000Y-148040000D02*
X72241000Y-149268000D01*
X72281000Y-144753000D02*
X72281000Y-145960000D01*
X72281000Y-148040000D02*
X72281000Y-149247000D01*
X72321000Y-144776000D02*
X72321000Y-145960000D01*
X72321000Y-148040000D02*
X72321000Y-149224000D01*
X72361000Y-144800000D02*
X72361000Y-145960000D01*
X72361000Y-148040000D02*
X72361000Y-149200000D01*
X72401000Y-144825000D02*
X72401000Y-145960000D01*
X72401000Y-148040000D02*
X72401000Y-149175000D01*
X72441000Y-144851000D02*
X72441000Y-145960000D01*
X72441000Y-148040000D02*
X72441000Y-149149000D01*
X72481000Y-144878000D02*
X72481000Y-145960000D01*
X72481000Y-148040000D02*
X72481000Y-149122000D01*
X72521000Y-144905000D02*
X72521000Y-145960000D01*
X72521000Y-148040000D02*
X72521000Y-149095000D01*
X72561000Y-144935000D02*
X72561000Y-145960000D01*
X72561000Y-148040000D02*
X72561000Y-149065000D01*
X72601000Y-144965000D02*
X72601000Y-145960000D01*
X72601000Y-148040000D02*
X72601000Y-149035000D01*
X72641000Y-144996000D02*
X72641000Y-145960000D01*
X72641000Y-148040000D02*
X72641000Y-149004000D01*
X72681000Y-145029000D02*
X72681000Y-145960000D01*
X72681000Y-148040000D02*
X72681000Y-148971000D01*
X72721000Y-145063000D02*
X72721000Y-145960000D01*
X72721000Y-148040000D02*
X72721000Y-148937000D01*
X72761000Y-145099000D02*
X72761000Y-145960000D01*
X72761000Y-148040000D02*
X72761000Y-148901000D01*
X72801000Y-145136000D02*
X72801000Y-145960000D01*
X72801000Y-148040000D02*
X72801000Y-148864000D01*
X72841000Y-145174000D02*
X72841000Y-145960000D01*
X72841000Y-148040000D02*
X72841000Y-148826000D01*
X72881000Y-145215000D02*
X72881000Y-145960000D01*
X72881000Y-148040000D02*
X72881000Y-148785000D01*
X72921000Y-145257000D02*
X72921000Y-145960000D01*
X72921000Y-148040000D02*
X72921000Y-148743000D01*
X72961000Y-145301000D02*
X72961000Y-145960000D01*
X72961000Y-148040000D02*
X72961000Y-148699000D01*
X73001000Y-145347000D02*
X73001000Y-145960000D01*
X73001000Y-148040000D02*
X73001000Y-148653000D01*
X73041000Y-145395000D02*
X73041000Y-148605000D01*
X73081000Y-145446000D02*
X73081000Y-148554000D01*
X73121000Y-145500000D02*
X73121000Y-148500000D01*
X73161000Y-145557000D02*
X73161000Y-148443000D01*
X73201000Y-145617000D02*
X73201000Y-148383000D01*
X73241000Y-145681000D02*
X73241000Y-148319000D01*
X73281000Y-145749000D02*
X73281000Y-148251000D01*
X73321000Y-145822000D02*
X73321000Y-148178000D01*
X73361000Y-145902000D02*
X73361000Y-148098000D01*
X73401000Y-145989000D02*
X73401000Y-148011000D01*
X73441000Y-146085000D02*
X73441000Y-147915000D01*
X73481000Y-146195000D02*
X73481000Y-147805000D01*
X73521000Y-146323000D02*
X73521000Y-147677000D01*
X73561000Y-146482000D02*
X73561000Y-147518000D01*
X73601000Y-146716000D02*
X73601000Y-147284000D01*
X73620000Y-147000000D02*
G75*
G02*
X68380000Y-147000000I-2620000J0D01*
G01*
X68380000Y-147000000D02*
G75*
G02*
X73620000Y-147000000I2620000J0D01*
G01*
%TO.C,D5*%
X48685000Y-132955000D02*
X48685000Y-136045000D01*
X48685000Y-132955170D02*
G75*
G02*
X54235000Y-134500462I2560000J-1544830D01*
G01*
X54235000Y-134499538D02*
G75*
G02*
X48685000Y-136044830I-2990000J-462D01*
G01*
X53745000Y-134500000D02*
G75*
G02*
X48745000Y-134500000I-2500000J0D01*
G01*
X48745000Y-134500000D02*
G75*
G02*
X53745000Y-134500000I2500000J0D01*
G01*
D13*
%TO.C,G\u002A\u002A\u002A*%
G36*
X82599148Y-120160833D02*
G01*
X82614191Y-120212008D01*
X82563698Y-120263953D01*
X82455401Y-120327780D01*
X82402020Y-120316087D01*
X82397552Y-120291976D01*
X82435942Y-120217685D01*
X82518653Y-120162997D01*
X82596998Y-120159583D01*
X82599148Y-120160833D01*
G37*
G36*
X86885407Y-121752764D02*
G01*
X86907705Y-121881871D01*
X86905995Y-121904358D01*
X86878705Y-122022966D01*
X86811583Y-122073748D01*
X86764393Y-122082552D01*
X86643681Y-122070842D01*
X86576152Y-122034864D01*
X86514365Y-121920057D01*
X86527703Y-121803663D01*
X86608985Y-121722494D01*
X86639139Y-121712005D01*
X86797369Y-121697212D01*
X86885407Y-121752764D01*
G37*
G36*
X86281392Y-124425166D02*
G01*
X86304866Y-124507162D01*
X86312819Y-124666931D01*
X86312967Y-124703221D01*
X86314944Y-124871601D01*
X86334264Y-124964187D01*
X86391010Y-125005546D01*
X86505264Y-125020241D01*
X86575533Y-125024388D01*
X86657067Y-125053598D01*
X86675928Y-125079703D01*
X86638627Y-125110202D01*
X86528294Y-125135062D01*
X86425912Y-125145073D01*
X86162374Y-125160246D01*
X86162374Y-124781141D01*
X86166273Y-124581767D01*
X86180370Y-124464449D01*
X86208264Y-124411067D01*
X86237671Y-124402035D01*
X86281392Y-124425166D01*
G37*
G36*
X85528427Y-124425166D02*
G01*
X85551901Y-124507162D01*
X85559854Y-124666931D01*
X85560003Y-124703221D01*
X85562002Y-124871935D01*
X85581786Y-124964743D01*
X85640031Y-125006089D01*
X85757415Y-125020420D01*
X85831656Y-125024388D01*
X85921816Y-125057362D01*
X85948784Y-125092252D01*
X85928292Y-125132659D01*
X85825001Y-125152151D01*
X85723145Y-125155000D01*
X85573165Y-125148702D01*
X85468157Y-125132674D01*
X85442875Y-125121534D01*
X85426041Y-125057829D01*
X85414022Y-124922903D01*
X85409410Y-124745906D01*
X85409410Y-124745052D01*
X85414023Y-124556746D01*
X85430579Y-124449966D01*
X85463151Y-124406154D01*
X85484706Y-124402035D01*
X85528427Y-124425166D01*
G37*
G36*
X86896349Y-122258012D02*
G01*
X86901300Y-122309423D01*
X86907444Y-122443660D01*
X86914154Y-122643173D01*
X86920803Y-122890410D01*
X86924084Y-123034599D01*
X86940437Y-123799804D01*
X86725331Y-123799734D01*
X86593624Y-123795469D01*
X86542050Y-123774783D01*
X86550444Y-123725668D01*
X86562189Y-123702568D01*
X86585588Y-123606707D01*
X86601873Y-123437766D01*
X86610932Y-123222820D01*
X86612651Y-122988939D01*
X86606919Y-122763197D01*
X86593624Y-122572665D01*
X86572652Y-122444416D01*
X86567477Y-122428493D01*
X86545716Y-122346238D01*
X86578805Y-122304337D01*
X86688265Y-122278580D01*
X86702885Y-122276179D01*
X86824299Y-122259691D01*
X86892310Y-122256593D01*
X86896349Y-122258012D01*
G37*
G36*
X92511603Y-117837401D02*
G01*
X93296482Y-117851245D01*
X93547136Y-118503814D01*
X93640550Y-118747926D01*
X93722298Y-118963253D01*
X93784906Y-119129983D01*
X93820898Y-119228301D01*
X93825131Y-119240693D01*
X93801030Y-119320182D01*
X93687834Y-119407390D01*
X93495950Y-119496674D01*
X93235786Y-119582388D01*
X93154687Y-119604316D01*
X92916311Y-119663314D01*
X92748223Y-119687368D01*
X92628120Y-119665471D01*
X92533699Y-119586616D01*
X92442655Y-119439797D01*
X92332684Y-119214009D01*
X92323263Y-119194031D01*
X92131566Y-118785111D01*
X91981983Y-118460468D01*
X91871987Y-118214455D01*
X91799050Y-118041424D01*
X91761267Y-117937796D01*
X91726724Y-117823558D01*
X92511603Y-117837401D01*
G37*
G36*
X84127380Y-124469669D02*
G01*
X84178670Y-124536158D01*
X84152700Y-124580107D01*
X84072550Y-124582363D01*
X84017463Y-124560881D01*
X83887996Y-124541050D01*
X83759672Y-124589517D01*
X83683436Y-124680993D01*
X83670507Y-124822840D01*
X83727663Y-124942522D01*
X83831709Y-125016742D01*
X83959446Y-125022204D01*
X84004914Y-125003851D01*
X84110095Y-124971990D01*
X84172548Y-124994658D01*
X84168516Y-125058774D01*
X84150760Y-125084172D01*
X84040720Y-125146410D01*
X83887937Y-125152075D01*
X83729927Y-125104906D01*
X83625112Y-125031787D01*
X83539507Y-124909447D01*
X83501972Y-124783066D01*
X83501900Y-124778517D01*
X83546188Y-124619057D01*
X83660258Y-124495430D01*
X83815916Y-124421559D01*
X83984968Y-124411363D01*
X84127380Y-124469669D01*
G37*
G36*
X81780959Y-120388395D02*
G01*
X81894658Y-120430829D01*
X81933710Y-120475404D01*
X81922206Y-120514057D01*
X81839380Y-120518745D01*
X81758233Y-120508015D01*
X81575595Y-120511865D01*
X81449463Y-120583018D01*
X81394734Y-120712095D01*
X81393599Y-120737608D01*
X81435098Y-120874621D01*
X81549969Y-120953907D01*
X81723776Y-120966408D01*
X81751825Y-120962342D01*
X81882142Y-120951596D01*
X81943721Y-120971125D01*
X81945773Y-120978813D01*
X81902115Y-121039258D01*
X81792775Y-121076547D01*
X81650205Y-121088713D01*
X81506857Y-121073787D01*
X81395183Y-121029802D01*
X81375375Y-121013398D01*
X81282925Y-120863025D01*
X81264708Y-120694703D01*
X81315297Y-120538504D01*
X81429268Y-120424501D01*
X81486186Y-120399112D01*
X81632370Y-120375703D01*
X81780959Y-120388395D01*
G37*
G36*
X88293784Y-124469669D02*
G01*
X88347994Y-124534845D01*
X88321541Y-124575014D01*
X88233289Y-124578325D01*
X88155483Y-124556545D01*
X88011123Y-124541760D01*
X87900107Y-124599236D01*
X87835323Y-124702942D01*
X87829658Y-124826850D01*
X87896000Y-124944931D01*
X87944002Y-124983670D01*
X88081231Y-125039199D01*
X88180910Y-125009314D01*
X88229133Y-124905093D01*
X88262487Y-124820691D01*
X88295773Y-124799639D01*
X88345006Y-124840561D01*
X88362216Y-124934505D01*
X88343916Y-125038240D01*
X88318579Y-125082466D01*
X88212987Y-125141042D01*
X88060019Y-125153506D01*
X87900287Y-125122098D01*
X87778164Y-125052649D01*
X87683171Y-124903246D01*
X87669754Y-124731598D01*
X87736517Y-124571751D01*
X87800567Y-124506074D01*
X87975928Y-124419099D01*
X88158919Y-124412076D01*
X88293784Y-124469669D01*
G37*
G36*
X83443450Y-120374762D02*
G01*
X83473317Y-120384900D01*
X83580113Y-120441729D01*
X83592906Y-120486257D01*
X83518080Y-120507400D01*
X83406453Y-120500996D01*
X83270962Y-120492812D01*
X83194637Y-120524194D01*
X83151196Y-120585745D01*
X83112906Y-120735415D01*
X83147573Y-120870255D01*
X83244726Y-120957697D01*
X83273922Y-120967459D01*
X83416062Y-120974765D01*
X83490155Y-120908326D01*
X83501900Y-120835041D01*
X83534054Y-120755306D01*
X83577196Y-120737608D01*
X83633172Y-120777615D01*
X83653598Y-120870284D01*
X83638999Y-120974587D01*
X83589899Y-121049496D01*
X83573091Y-121058522D01*
X83397821Y-121090599D01*
X83214862Y-121071068D01*
X83070022Y-121006054D01*
X83050121Y-120988596D01*
X82958677Y-120840329D01*
X82949053Y-120683313D01*
X83006984Y-120537899D01*
X83118204Y-120424435D01*
X83268448Y-120363273D01*
X83443450Y-120374762D01*
G37*
G36*
X82472868Y-120378326D02*
G01*
X82631280Y-120399409D01*
X82709078Y-120431033D01*
X82701637Y-120462594D01*
X82604336Y-120483487D01*
X82520084Y-120486620D01*
X82400241Y-120498276D01*
X82352515Y-120543560D01*
X82347354Y-120587015D01*
X82367008Y-120656210D01*
X82443731Y-120684129D01*
X82523046Y-120687411D01*
X82639173Y-120700018D01*
X82697220Y-120731020D01*
X82698738Y-120737608D01*
X82654610Y-120770787D01*
X82546103Y-120787372D01*
X82523046Y-120787806D01*
X82401956Y-120799036D01*
X82353097Y-120842878D01*
X82347354Y-120888201D01*
X82364193Y-120953883D01*
X82432249Y-120982912D01*
X82548145Y-120988596D01*
X82673881Y-120999730D01*
X82743815Y-121027542D01*
X82748935Y-121038794D01*
X82703549Y-121066284D01*
X82586470Y-121084517D01*
X82472849Y-121088992D01*
X82196762Y-121088992D01*
X82196693Y-120725059D01*
X82196625Y-120361126D01*
X82472868Y-120378326D01*
G37*
G36*
X84977887Y-124458036D02*
G01*
X85099709Y-124554708D01*
X85153171Y-124723097D01*
X85156825Y-124791067D01*
X85117307Y-124965155D01*
X85010609Y-125088194D01*
X84860296Y-125152084D01*
X84689931Y-125148724D01*
X84523081Y-125070013D01*
X84472863Y-125026178D01*
X84384879Y-124914096D01*
X84366543Y-124800727D01*
X84369441Y-124781305D01*
X84510550Y-124781305D01*
X84572291Y-124907149D01*
X84615713Y-124952254D01*
X84709954Y-125031841D01*
X84778615Y-125045166D01*
X84867842Y-124996209D01*
X84896264Y-124976461D01*
X84982117Y-124871677D01*
X84998149Y-124749738D01*
X84957407Y-124636367D01*
X84872938Y-124557290D01*
X84757788Y-124538230D01*
X84686333Y-124562530D01*
X84548545Y-124666536D01*
X84510550Y-124781305D01*
X84369441Y-124781305D01*
X84375870Y-124738214D01*
X84439225Y-124563419D01*
X84553846Y-124464384D01*
X84736784Y-124428033D01*
X84781571Y-124427134D01*
X84977887Y-124458036D01*
G37*
G36*
X89152736Y-124425226D02*
G01*
X89162919Y-124461981D01*
X89103335Y-124508804D01*
X88984100Y-124540140D01*
X88957012Y-124543109D01*
X88817563Y-124574994D01*
X88770283Y-124626502D01*
X88814734Y-124678488D01*
X88950479Y-124711804D01*
X88960892Y-124712740D01*
X89081983Y-124734603D01*
X89146079Y-124769262D01*
X89149133Y-124778517D01*
X89104731Y-124814483D01*
X88994652Y-124840686D01*
X88960892Y-124844295D01*
X88820828Y-124874203D01*
X88772652Y-124931794D01*
X88772651Y-124932140D01*
X88815717Y-124993713D01*
X88925532Y-125015160D01*
X88991189Y-125008618D01*
X89070692Y-125016038D01*
X89129962Y-125031387D01*
X89204062Y-125071296D01*
X89189874Y-125109243D01*
X89099412Y-125138963D01*
X88944689Y-125154187D01*
X88892983Y-125155000D01*
X88617660Y-125155000D01*
X88632408Y-124791067D01*
X88647157Y-124427134D01*
X88915811Y-124411784D01*
X89075919Y-124408697D01*
X89152736Y-124425226D01*
G37*
G36*
X84330763Y-120394477D02*
G01*
X84431044Y-120415764D01*
X84455655Y-120436422D01*
X84411069Y-120467623D01*
X84299462Y-120485197D01*
X84251184Y-120486620D01*
X84120121Y-120494243D01*
X84066142Y-120524183D01*
X84063840Y-120574466D01*
X84121406Y-120650085D01*
X84180465Y-120669525D01*
X84314773Y-120678615D01*
X84370771Y-120682075D01*
X84440498Y-120700628D01*
X84432858Y-120733518D01*
X84366820Y-120766816D01*
X84261352Y-120786589D01*
X84226803Y-120787806D01*
X84106961Y-120799462D01*
X84059234Y-120844746D01*
X84054074Y-120888201D01*
X84068647Y-120950623D01*
X84129331Y-120980345D01*
X84261572Y-120988531D01*
X84282926Y-120988596D01*
X84422446Y-120998143D01*
X84482354Y-121024358D01*
X84480754Y-121038794D01*
X84417027Y-121066717D01*
X84286288Y-121084942D01*
X84176605Y-121088992D01*
X83903481Y-121088992D01*
X83903481Y-120737608D01*
X83903481Y-120386225D01*
X84179568Y-120386225D01*
X84330763Y-120394477D01*
G37*
G36*
X85184238Y-120403224D02*
G01*
X85304279Y-120459621D01*
X85355229Y-120563514D01*
X85359212Y-120618568D01*
X85314918Y-120763583D01*
X85196465Y-120859506D01*
X85053198Y-120888201D01*
X84929405Y-120913756D01*
X84860378Y-121005671D01*
X84857236Y-121013695D01*
X84806968Y-121117687D01*
X84773120Y-121122701D01*
X84756017Y-121028856D01*
X84754100Y-120976047D01*
X84749032Y-120815409D01*
X84740091Y-120630412D01*
X84738513Y-120603748D01*
X84857236Y-120603748D01*
X84868676Y-120707405D01*
X84886933Y-120750573D01*
X84960304Y-120766619D01*
X85070110Y-120746468D01*
X85164010Y-120700808D01*
X85173951Y-120691960D01*
X85207052Y-120608503D01*
X85160376Y-120533065D01*
X85053246Y-120489755D01*
X85009404Y-120486620D01*
X84900478Y-120500350D01*
X84860541Y-120556631D01*
X84857236Y-120603748D01*
X84738513Y-120603748D01*
X84738266Y-120599565D01*
X84725173Y-120386225D01*
X84981955Y-120386225D01*
X85184238Y-120403224D01*
G37*
G36*
X87171568Y-124412120D02*
G01*
X87332376Y-124433547D01*
X87415892Y-124467436D01*
X87416064Y-124504188D01*
X87326840Y-124534208D01*
X87254173Y-124543109D01*
X87114436Y-124574714D01*
X87059855Y-124625592D01*
X87091514Y-124675016D01*
X87210495Y-124702258D01*
X87245806Y-124703221D01*
X87370088Y-124721642D01*
X87406999Y-124764049D01*
X87359760Y-124811157D01*
X87231592Y-124843681D01*
X87222183Y-124844670D01*
X87107463Y-124870893D01*
X87074009Y-124925980D01*
X87076144Y-124945066D01*
X87094838Y-124999715D01*
X87142115Y-125028669D01*
X87245845Y-125042752D01*
X87342018Y-125048330D01*
X87450285Y-125065106D01*
X87473479Y-125093599D01*
X87424658Y-125124325D01*
X87316883Y-125147805D01*
X87195106Y-125155000D01*
X87027787Y-125147721D01*
X86938589Y-125121852D01*
X86906470Y-125073712D01*
X86900415Y-124981213D01*
X86901696Y-124827030D01*
X86907372Y-124694766D01*
X86924504Y-124397106D01*
X87171568Y-124412120D01*
G37*
G36*
X86332071Y-122263113D02*
G01*
X86361573Y-122341175D01*
X86363165Y-122387169D01*
X86351634Y-122487711D01*
X86299380Y-122514874D01*
X86240668Y-122507384D01*
X86109338Y-122523414D01*
X85989680Y-122612459D01*
X85929030Y-122680508D01*
X85891177Y-122753505D01*
X85870801Y-122856187D01*
X85862585Y-123013292D01*
X85861188Y-123210070D01*
X85868072Y-123467497D01*
X85887917Y-123646796D01*
X85919521Y-123737379D01*
X85921426Y-123739426D01*
X85935916Y-123775203D01*
X85878845Y-123793893D01*
X85736492Y-123799639D01*
X85721878Y-123799664D01*
X85570960Y-123797401D01*
X85499799Y-123782212D01*
X85487755Y-123741491D01*
X85511047Y-123670902D01*
X85534331Y-123556643D01*
X85549847Y-123374943D01*
X85557657Y-123152874D01*
X85557825Y-122917507D01*
X85550416Y-122695914D01*
X85535492Y-122515167D01*
X85513118Y-122402338D01*
X85508039Y-122390830D01*
X85483443Y-122318906D01*
X85533054Y-122295187D01*
X85579230Y-122293735D01*
X85709657Y-122281492D01*
X85781786Y-122263265D01*
X85848900Y-122267926D01*
X85861188Y-122313463D01*
X85880951Y-122382549D01*
X85947130Y-122374342D01*
X86033925Y-122317237D01*
X86160388Y-122257712D01*
X86247265Y-122243537D01*
X86332071Y-122263113D01*
G37*
G36*
X87740787Y-121831118D02*
G01*
X87766220Y-121964507D01*
X87768698Y-122042747D01*
X87768698Y-122293735D01*
X87961123Y-122293735D01*
X88112888Y-122301699D01*
X88184084Y-122334017D01*
X88193850Y-122403325D01*
X88185469Y-122441861D01*
X88151201Y-122500535D01*
X88071862Y-122517279D01*
X87965039Y-122507641D01*
X87768698Y-122481306D01*
X87768698Y-122988735D01*
X87770196Y-123220438D01*
X87777552Y-123372962D01*
X87795058Y-123467510D01*
X87827005Y-123525285D01*
X87877686Y-123567490D01*
X87887119Y-123573756D01*
X88002034Y-123620804D01*
X88087910Y-123619740D01*
X88157392Y-123614192D01*
X88160931Y-123663118D01*
X88099815Y-123746432D01*
X88078481Y-123766785D01*
X87929101Y-123840086D01*
X87756738Y-123830714D01*
X87611117Y-123754082D01*
X87559082Y-123704360D01*
X87523458Y-123641381D01*
X87499856Y-123544820D01*
X87483888Y-123394352D01*
X87471166Y-123169651D01*
X87467513Y-123088964D01*
X87455606Y-122842924D01*
X87442968Y-122679566D01*
X87425434Y-122581239D01*
X87398843Y-122530288D01*
X87359031Y-122509060D01*
X87329469Y-122503583D01*
X87233852Y-122470749D01*
X87235529Y-122413265D01*
X87334488Y-122331190D01*
X87370530Y-122309122D01*
X87502123Y-122189474D01*
X87581732Y-122005098D01*
X87639208Y-121849534D01*
X87695338Y-121792167D01*
X87740787Y-121831118D01*
G37*
G36*
X94215934Y-119892616D02*
G01*
X94247860Y-119940347D01*
X94318049Y-120048763D01*
X94405583Y-120185434D01*
X94725978Y-120620948D01*
X95080818Y-120981232D01*
X95460497Y-121257967D01*
X95855413Y-121442832D01*
X95857798Y-121443644D01*
X96199091Y-121517125D01*
X96574887Y-121528061D01*
X96942007Y-121477499D01*
X97155655Y-121412104D01*
X97281428Y-121353564D01*
X97450625Y-121262996D01*
X97639348Y-121154699D01*
X97823699Y-121042972D01*
X97979780Y-120942113D01*
X98083693Y-120866422D01*
X98109410Y-120841445D01*
X98161619Y-120793994D01*
X98266422Y-120711099D01*
X98334901Y-120659658D01*
X98535293Y-120511719D01*
X98439723Y-120662312D01*
X98185278Y-121021289D01*
X97885741Y-121375648D01*
X97564253Y-121701282D01*
X97243959Y-121974085D01*
X97049566Y-122110276D01*
X96630604Y-122323266D01*
X96190413Y-122452490D01*
X95746519Y-122495138D01*
X95316447Y-122448399D01*
X95174278Y-122410971D01*
X94905702Y-122298798D01*
X94603049Y-122122840D01*
X94291689Y-121900218D01*
X93996989Y-121648053D01*
X93892809Y-121546171D01*
X93719224Y-121358166D01*
X93548630Y-121154041D01*
X93391985Y-120949413D01*
X93260246Y-120759897D01*
X93164371Y-120601112D01*
X93115316Y-120488674D01*
X93117956Y-120441786D01*
X93194054Y-120398786D01*
X93320917Y-120348845D01*
X93346723Y-120340331D01*
X93480180Y-120285251D01*
X93660785Y-120194752D01*
X93851197Y-120087638D01*
X93865433Y-120079096D01*
X94025066Y-119985748D01*
X94147597Y-119919620D01*
X94211592Y-119892117D01*
X94215934Y-119892616D01*
G37*
G36*
X84829576Y-122317466D02*
G01*
X85028734Y-122449633D01*
X85168275Y-122658982D01*
X85235439Y-122858458D01*
X85269701Y-122996501D01*
X84661887Y-122996501D01*
X84406105Y-122997530D01*
X84234180Y-123002395D01*
X84129581Y-123013760D01*
X84075776Y-123034294D01*
X84056234Y-123066662D01*
X84054074Y-123094535D01*
X84100070Y-123289600D01*
X84222257Y-123454304D01*
X84296790Y-123508328D01*
X84531200Y-123603952D01*
X84773658Y-123618232D01*
X85047406Y-123551595D01*
X85120773Y-123523434D01*
X85193930Y-123514658D01*
X85202442Y-123564010D01*
X85149131Y-123655271D01*
X85085407Y-123726649D01*
X84999974Y-123796759D01*
X84900505Y-123833791D01*
X84752879Y-123847163D01*
X84646178Y-123847896D01*
X84450647Y-123835829D01*
X84273294Y-123806674D01*
X84179568Y-123777500D01*
X83944977Y-123624115D01*
X83773850Y-123415177D01*
X83701474Y-123242973D01*
X83670769Y-122962327D01*
X83714960Y-122767312D01*
X84054074Y-122767312D01*
X84100306Y-122780501D01*
X84223165Y-122790432D01*
X84398894Y-122795426D01*
X84455655Y-122795711D01*
X84667755Y-122791234D01*
X84794573Y-122776147D01*
X84850893Y-122747965D01*
X84857236Y-122728195D01*
X84813856Y-122632320D01*
X84705372Y-122540429D01*
X84565177Y-122480310D01*
X84405660Y-122477720D01*
X84247271Y-122531524D01*
X84120720Y-122624477D01*
X84056718Y-122739335D01*
X84054074Y-122767312D01*
X83714960Y-122767312D01*
X83727724Y-122710983D01*
X83860927Y-122502024D01*
X84058962Y-122348531D01*
X84310415Y-122263585D01*
X84563079Y-122255556D01*
X84829576Y-122317466D01*
G37*
G36*
X92917584Y-122291152D02*
G01*
X93122191Y-122391928D01*
X93276573Y-122554258D01*
X93308629Y-122612552D01*
X93363612Y-122755627D01*
X93390342Y-122878602D01*
X93390833Y-122891143D01*
X93385878Y-122935574D01*
X93359890Y-122965364D01*
X93296182Y-122983431D01*
X93178068Y-122992695D01*
X92988863Y-122996074D01*
X92788461Y-122996501D01*
X92509364Y-122999466D01*
X92320828Y-123013118D01*
X92213081Y-123044597D01*
X92176352Y-123101044D01*
X92200870Y-123189599D01*
X92276862Y-123317400D01*
X92300537Y-123353011D01*
X92471275Y-123524644D01*
X92691887Y-123612540D01*
X92952870Y-123613919D01*
X93088018Y-123583525D01*
X93253666Y-123545634D01*
X93334425Y-123557082D01*
X93334672Y-123621266D01*
X93270811Y-123725372D01*
X93164281Y-123796905D01*
X92990766Y-123837615D01*
X92778961Y-123847072D01*
X92557566Y-123824848D01*
X92355279Y-123770514D01*
X92286890Y-123740080D01*
X92051724Y-123568858D01*
X91898603Y-123347345D01*
X91832633Y-123089747D01*
X91858924Y-122810267D01*
X91888929Y-122721572D01*
X92236287Y-122721572D01*
X92256249Y-122759927D01*
X92327854Y-122782850D01*
X92468686Y-122793625D01*
X92633169Y-122795711D01*
X92831023Y-122793609D01*
X92947317Y-122784222D01*
X93000849Y-122762928D01*
X93010419Y-122725104D01*
X93006074Y-122704026D01*
X92936728Y-122604086D01*
X92808065Y-122519512D01*
X92660840Y-122473728D01*
X92601999Y-122471797D01*
X92469028Y-122508219D01*
X92341748Y-122581931D01*
X92254789Y-122669281D01*
X92236287Y-122721572D01*
X91888929Y-122721572D01*
X91904323Y-122676067D01*
X92032989Y-122483865D01*
X92220453Y-122348287D01*
X92444910Y-122270318D01*
X92684555Y-122250944D01*
X92917584Y-122291152D01*
G37*
G36*
X89031005Y-122253789D02*
G01*
X89032925Y-122253928D01*
X89235000Y-122278395D01*
X89377469Y-122328248D01*
X89471773Y-122419311D01*
X89529347Y-122567408D01*
X89561631Y-122788364D01*
X89575813Y-123004990D01*
X89588685Y-123238229D01*
X89605274Y-123392938D01*
X89633989Y-123490873D01*
X89683243Y-123553789D01*
X89761448Y-123603442D01*
X89818319Y-123632222D01*
X89810540Y-123676383D01*
X89776042Y-123750516D01*
X89714152Y-123825756D01*
X89619960Y-123838756D01*
X89559307Y-123828991D01*
X89415290Y-123784343D01*
X89327659Y-123706589D01*
X89283108Y-123574027D01*
X89268331Y-123364956D01*
X89268163Y-123354130D01*
X89263737Y-123039714D01*
X89055842Y-123073129D01*
X88825092Y-123134922D01*
X88678545Y-123230423D01*
X88622455Y-123355382D01*
X88622058Y-123367994D01*
X88664702Y-123507733D01*
X88788790Y-123593647D01*
X88979782Y-123621690D01*
X89119379Y-123629553D01*
X89166488Y-123659875D01*
X89128254Y-123722752D01*
X89082433Y-123766785D01*
X88946104Y-123831141D01*
X88763830Y-123842758D01*
X88575301Y-123801299D01*
X88510375Y-123771613D01*
X88355970Y-123636780D01*
X88275709Y-123455986D01*
X88278373Y-123257823D01*
X88319408Y-123149831D01*
X88399581Y-123072929D01*
X88539970Y-122993481D01*
X88702421Y-122929014D01*
X88848780Y-122897057D01*
X88871700Y-122896106D01*
X89037885Y-122865844D01*
X89164358Y-122787484D01*
X89223167Y-122679662D01*
X89224430Y-122660917D01*
X89181415Y-122547538D01*
X89066509Y-122479624D01*
X88900919Y-122465065D01*
X88766827Y-122490660D01*
X88617905Y-122531719D01*
X88552919Y-122533336D01*
X88560347Y-122487162D01*
X88625976Y-122388627D01*
X88694503Y-122301618D01*
X88762620Y-122257500D01*
X88863672Y-122245236D01*
X89031005Y-122253789D01*
G37*
G36*
X83322178Y-121645489D02*
G01*
X83409585Y-121659219D01*
X83423606Y-121686144D01*
X83411544Y-121701403D01*
X83389248Y-121772993D01*
X83371732Y-121925448D01*
X83358995Y-122139347D01*
X83351040Y-122395275D01*
X83347864Y-122673811D01*
X83349468Y-122955540D01*
X83355853Y-123221041D01*
X83367018Y-123450899D01*
X83382962Y-123625694D01*
X83403687Y-123726008D01*
X83411544Y-123739426D01*
X83423308Y-123772520D01*
X83367074Y-123791202D01*
X83229466Y-123798494D01*
X83148007Y-123798895D01*
X82971262Y-123793308D01*
X82890391Y-123777098D01*
X82899528Y-123750610D01*
X82937237Y-123702204D01*
X82960621Y-123603002D01*
X82972253Y-123435460D01*
X82974825Y-123236853D01*
X82974825Y-122770612D01*
X82385003Y-122756470D01*
X81795181Y-122742327D01*
X81795181Y-123173900D01*
X81801044Y-123383401D01*
X81816648Y-123562890D01*
X81839013Y-123682061D01*
X81847144Y-123702568D01*
X81868849Y-123757688D01*
X81845123Y-123786725D01*
X81756573Y-123797949D01*
X81619489Y-123799664D01*
X81462200Y-123796957D01*
X81385877Y-123783322D01*
X81371125Y-123750488D01*
X81391833Y-123702568D01*
X81412091Y-123615154D01*
X81427496Y-123450774D01*
X81438129Y-123228922D01*
X81444072Y-122969089D01*
X81445403Y-122690767D01*
X81442204Y-122413447D01*
X81434556Y-122156622D01*
X81422540Y-121939783D01*
X81406234Y-121782422D01*
X81385721Y-121704031D01*
X81383560Y-121701403D01*
X81371794Y-121668362D01*
X81428015Y-121649854D01*
X81565595Y-121642902D01*
X81647098Y-121642692D01*
X81818030Y-121647256D01*
X81898803Y-121660375D01*
X81899454Y-121684290D01*
X81883026Y-121695384D01*
X81836039Y-121741967D01*
X81808919Y-121828669D01*
X81796995Y-121978096D01*
X81795181Y-122120537D01*
X81795181Y-122494525D01*
X82403039Y-122494525D01*
X83010897Y-122494525D01*
X82991758Y-122115531D01*
X82971661Y-121884950D01*
X82938138Y-121744579D01*
X82898426Y-121689620D01*
X82892906Y-121662522D01*
X82982282Y-121646790D01*
X83148007Y-121641934D01*
X83322178Y-121645489D01*
G37*
G36*
X88313243Y-116663523D02*
G01*
X88762417Y-116788255D01*
X89205165Y-117011637D01*
X89639612Y-117332027D01*
X90063882Y-117747784D01*
X90476099Y-118257266D01*
X90874387Y-118858831D01*
X90932040Y-118955592D01*
X91049928Y-119155815D01*
X91154444Y-119332853D01*
X91231487Y-119462845D01*
X91260341Y-119511118D01*
X91368872Y-119607379D01*
X91557479Y-119689241D01*
X91806536Y-119754097D01*
X92096416Y-119799339D01*
X92407496Y-119822359D01*
X92720150Y-119820549D01*
X93014751Y-119791303D01*
X93158702Y-119763353D01*
X93627163Y-119611360D01*
X94070819Y-119379135D01*
X94502239Y-119059220D01*
X94783817Y-118798966D01*
X94955563Y-118630764D01*
X95098610Y-118495660D01*
X95199939Y-118405574D01*
X95246532Y-118372424D01*
X95248145Y-118373886D01*
X95221404Y-118428989D01*
X95149837Y-118545462D01*
X95046430Y-118702597D01*
X94991423Y-118783301D01*
X94596577Y-119281628D01*
X94158653Y-119690265D01*
X93673238Y-120011795D01*
X93135916Y-120248803D01*
X92542274Y-120403872D01*
X92123343Y-120462024D01*
X91914330Y-120491430D01*
X91803978Y-120530125D01*
X91784509Y-120559666D01*
X91803766Y-120637734D01*
X91853761Y-120774371D01*
X91910003Y-120908485D01*
X91975798Y-121060797D01*
X92021235Y-121172744D01*
X92035497Y-121215917D01*
X91988153Y-121224048D01*
X91857529Y-121230973D01*
X91660741Y-121236170D01*
X91414902Y-121239114D01*
X91261468Y-121239584D01*
X90487439Y-121239584D01*
X90403631Y-120976047D01*
X90180441Y-120356448D01*
X89917213Y-119767213D01*
X89623177Y-119225050D01*
X89307561Y-118746668D01*
X88979594Y-118348776D01*
X88916377Y-118283384D01*
X88572572Y-117977882D01*
X88234138Y-117763979D01*
X87885558Y-117635075D01*
X87511316Y-117584568D01*
X87282190Y-117588227D01*
X87049430Y-117609220D01*
X86861349Y-117646507D01*
X86674099Y-117712030D01*
X86449326Y-117815056D01*
X86212100Y-117943312D01*
X85963144Y-118098423D01*
X85750727Y-118250011D01*
X85723145Y-118272081D01*
X85578934Y-118385772D01*
X85469816Y-118463843D01*
X85413717Y-118493760D01*
X85409892Y-118491061D01*
X85442997Y-118416453D01*
X85531659Y-118287081D01*
X85661508Y-118120215D01*
X85818169Y-117933125D01*
X85987270Y-117743079D01*
X86154439Y-117567349D01*
X86278329Y-117447572D01*
X86711056Y-117099461D01*
X87143634Y-116848224D01*
X87573865Y-116694707D01*
X87999554Y-116639755D01*
X88313243Y-116663523D01*
G37*
G36*
X91640910Y-122256355D02*
G01*
X91690054Y-122269511D01*
X91690647Y-122291475D01*
X91659015Y-122321051D01*
X91530432Y-122392852D01*
X91420576Y-122428620D01*
X91313708Y-122460609D01*
X91293527Y-122511276D01*
X91351588Y-122606639D01*
X91359425Y-122617064D01*
X91425658Y-122777060D01*
X91410171Y-122948438D01*
X91326545Y-123111004D01*
X91188362Y-123244563D01*
X91009202Y-123328921D01*
X90867940Y-123347885D01*
X90731674Y-123376712D01*
X90657110Y-123415476D01*
X90619215Y-123451923D01*
X90636200Y-123476934D01*
X90722828Y-123496543D01*
X90893858Y-123516786D01*
X90908591Y-123518303D01*
X91222578Y-123569728D01*
X91445653Y-123651655D01*
X91583322Y-123766600D01*
X91625000Y-123845864D01*
X91653277Y-124057211D01*
X91589294Y-124244792D01*
X91440109Y-124399499D01*
X91212781Y-124512222D01*
X91080736Y-124548154D01*
X90855999Y-124587279D01*
X90663355Y-124593892D01*
X90455949Y-124566814D01*
X90280395Y-124528031D01*
X90040576Y-124440145D01*
X89891159Y-124312739D01*
X89829058Y-124142877D01*
X89826801Y-124097054D01*
X89868684Y-123956262D01*
X89989870Y-123872448D01*
X90146630Y-123849861D01*
X90229872Y-123860024D01*
X90256191Y-123910376D01*
X90244842Y-124018866D01*
X90254864Y-124174802D01*
X90346120Y-124280558D01*
X90521892Y-124338441D01*
X90718922Y-124351837D01*
X90960096Y-124328890D01*
X91146613Y-124266558D01*
X91268594Y-124174612D01*
X91316162Y-124062819D01*
X91279438Y-123940948D01*
X91210869Y-123865352D01*
X91122904Y-123803032D01*
X91020230Y-123767680D01*
X90872083Y-123752236D01*
X90706046Y-123749466D01*
X90481698Y-123741699D01*
X90337984Y-123716205D01*
X90257066Y-123670584D01*
X90184766Y-123552936D01*
X90212380Y-123444869D01*
X90278046Y-123384027D01*
X90344102Y-123330558D01*
X90331426Y-123292822D01*
X90255219Y-123248420D01*
X90151085Y-123158766D01*
X90058783Y-123026427D01*
X90050134Y-123009122D01*
X89999166Y-122875560D01*
X90001156Y-122763625D01*
X90007244Y-122744791D01*
X90337734Y-122744791D01*
X90345848Y-122832180D01*
X90414413Y-122938620D01*
X90458734Y-122992650D01*
X90611091Y-123114006D01*
X90776391Y-123146135D01*
X90934155Y-123086920D01*
X90981347Y-123046699D01*
X91068677Y-122901024D01*
X91067292Y-122746821D01*
X90984005Y-122606449D01*
X90825627Y-122502266D01*
X90814113Y-122497741D01*
X90640694Y-122476236D01*
X90482216Y-122532107D01*
X90382027Y-122639415D01*
X90337734Y-122744791D01*
X90007244Y-122744791D01*
X90035347Y-122657848D01*
X90100235Y-122516603D01*
X90182001Y-122413411D01*
X90296664Y-122342054D01*
X90460241Y-122296314D01*
X90688749Y-122269973D01*
X90998208Y-122256813D01*
X91072671Y-122255187D01*
X91345168Y-122250648D01*
X91530265Y-122250552D01*
X91640910Y-122256355D01*
G37*
D12*
%TO.C,R5*%
X78630000Y-127480000D02*
X78630000Y-134020000D01*
X78630000Y-134020000D02*
X81370000Y-134020000D01*
X80000000Y-126710000D02*
X80000000Y-127480000D01*
X80000000Y-134790000D02*
X80000000Y-134020000D01*
X81370000Y-127480000D02*
X78630000Y-127480000D01*
X81370000Y-134020000D02*
X81370000Y-127480000D01*
%TO.C,D2*%
X108170000Y-107455000D02*
X108170000Y-110545000D01*
X108170000Y-107455170D02*
G75*
G02*
X113720000Y-109000462I2560000J-1544830D01*
G01*
X113720000Y-108999538D02*
G75*
G02*
X108170000Y-110544830I-2990000J-462D01*
G01*
X113230000Y-109000000D02*
G75*
G02*
X108230000Y-109000000I-2500000J0D01*
G01*
X108230000Y-109000000D02*
G75*
G02*
X113230000Y-109000000I2500000J0D01*
G01*
%TO.C,Q1*%
X99070000Y-141150000D02*
X95470000Y-141150000D01*
X97270000Y-145600000D02*
G75*
G02*
X95431522Y-141161522I0J2600000D01*
G01*
X99108478Y-141161522D02*
G75*
G02*
X97270000Y-145600001I-1838478J-1838478D01*
G01*
%TO.C,R8*%
X104790000Y-131750000D02*
X105560000Y-131750000D01*
X105560000Y-130380000D02*
X105560000Y-133120000D01*
X105560000Y-133120000D02*
X112100000Y-133120000D01*
X112100000Y-130380000D02*
X105560000Y-130380000D01*
X112100000Y-133120000D02*
X112100000Y-130380000D01*
X112870000Y-131750000D02*
X112100000Y-131750000D01*
%TO.C,D7*%
X55670000Y-144455000D02*
X55670000Y-147545000D01*
X55670000Y-144455170D02*
G75*
G02*
X61220000Y-146000462I2560000J-1544830D01*
G01*
X61220000Y-145999538D02*
G75*
G02*
X55670000Y-147544830I-2990000J-462D01*
G01*
X60730000Y-146000000D02*
G75*
G02*
X55730000Y-146000000I-2500000J0D01*
G01*
X55730000Y-146000000D02*
G75*
G02*
X60730000Y-146000000I2500000J0D01*
G01*
%TO.C,R7*%
X63960000Y-131750000D02*
X64730000Y-131750000D01*
X64730000Y-130380000D02*
X64730000Y-133120000D01*
X64730000Y-133120000D02*
X71270000Y-133120000D01*
X71270000Y-130380000D02*
X64730000Y-130380000D01*
X71270000Y-133120000D02*
X71270000Y-130380000D01*
X72040000Y-131750000D02*
X71270000Y-131750000D01*
%TO.C,D1*%
X62670000Y-107455000D02*
X62670000Y-110545000D01*
X62670000Y-107455170D02*
G75*
G02*
X68220000Y-109000462I2560000J-1544830D01*
G01*
X68220000Y-108999538D02*
G75*
G02*
X62670000Y-110544830I-2990000J-462D01*
G01*
X67730000Y-109000000D02*
G75*
G02*
X62730000Y-109000000I-2500000J0D01*
G01*
X62730000Y-109000000D02*
G75*
G02*
X67730000Y-109000000I2500000J0D01*
G01*
%TD*%
M02*
