%TF.GenerationSoftware,KiCad,Pcbnew,8.0.5*%
%TF.CreationDate,2024-09-25T11:06:08-04:00*%
%TF.ProjectId,HeartLEDTHT,48656172-744c-4454-9454-48542e6b6963,rev?*%
%TF.SameCoordinates,Original*%
%TF.FileFunction,Profile,NP*%
%FSLAX46Y46*%
G04 Gerber Fmt 4.6, Leading zero omitted, Abs format (unit mm)*
G04 Created by KiCad (PCBNEW 8.0.5) date 2024-09-25 11:06:08*
%MOMM*%
%LPD*%
G01*
G04 APERTURE LIST*
%TA.AperFunction,Profile*%
%ADD10C,0.050000*%
%TD*%
G04 APERTURE END LIST*
D10*
%TO.C,G\u002A\u002A\u002A*%
X109536419Y-101419607D02*
X109722675Y-101420038D01*
X109890052Y-101420855D01*
X110041543Y-101422137D01*
X110180141Y-101423965D01*
X110308838Y-101426418D01*
X110430628Y-101429577D01*
X110548502Y-101433522D01*
X110665455Y-101438334D01*
X110784478Y-101444091D01*
X110908564Y-101450875D01*
X111040707Y-101458764D01*
X111183898Y-101467841D01*
X111218062Y-101470062D01*
X111997104Y-101531800D01*
X112763053Y-101614449D01*
X113515860Y-101717997D01*
X114255475Y-101842429D01*
X114981848Y-101987732D01*
X115694930Y-102153891D01*
X116394673Y-102340893D01*
X117081025Y-102548723D01*
X117753939Y-102777369D01*
X118413365Y-103026815D01*
X119059253Y-103297049D01*
X119691554Y-103588056D01*
X120310218Y-103899822D01*
X120785022Y-104158384D01*
X121377913Y-104506338D01*
X121956513Y-104874600D01*
X122520681Y-105263032D01*
X123070278Y-105671498D01*
X123605165Y-106099859D01*
X124125202Y-106547980D01*
X124630250Y-107015722D01*
X125120169Y-107502949D01*
X125594821Y-108009523D01*
X126054065Y-108535307D01*
X126497763Y-109080165D01*
X126925774Y-109643958D01*
X127337959Y-110226549D01*
X127734180Y-110827802D01*
X128002112Y-111259961D01*
X128346368Y-111850231D01*
X128677499Y-112459882D01*
X128994476Y-113086565D01*
X129296267Y-113727935D01*
X129581841Y-114381646D01*
X129850168Y-115045349D01*
X130100217Y-115716699D01*
X130330957Y-116393349D01*
X130511691Y-116972785D01*
X130723702Y-117717002D01*
X130913543Y-118455587D01*
X131081723Y-119191452D01*
X131228750Y-119927505D01*
X131355131Y-120666655D01*
X131461376Y-121411814D01*
X131547993Y-122165889D01*
X131615488Y-122931791D01*
X131653679Y-123512384D01*
X131657115Y-123588764D01*
X131660140Y-123687271D01*
X131662753Y-123805170D01*
X131664956Y-123939725D01*
X131666746Y-124088202D01*
X131668125Y-124247865D01*
X131669093Y-124415980D01*
X131669648Y-124589810D01*
X131669793Y-124766621D01*
X131669525Y-124943678D01*
X131668845Y-125118245D01*
X131667754Y-125287587D01*
X131666250Y-125448970D01*
X131664335Y-125599658D01*
X131662007Y-125736916D01*
X131659267Y-125858009D01*
X131656115Y-125960202D01*
X131653733Y-126017572D01*
X131615304Y-126712145D01*
X131566847Y-127387431D01*
X131507896Y-128047098D01*
X131437986Y-128694814D01*
X131356650Y-129334244D01*
X131263422Y-129969057D01*
X131157838Y-130602919D01*
X131039430Y-131239497D01*
X130909675Y-131873372D01*
X130702729Y-132783594D01*
X130471008Y-133693395D01*
X130214603Y-134602542D01*
X129933604Y-135510801D01*
X129628101Y-136417938D01*
X129298185Y-137323720D01*
X128943944Y-138227913D01*
X128565471Y-139130284D01*
X128162854Y-140030599D01*
X127736184Y-140928624D01*
X127285552Y-141824127D01*
X126811047Y-142716872D01*
X126519439Y-143243074D01*
X125995718Y-144150778D01*
X125447320Y-145056103D01*
X124874329Y-145958958D01*
X124276827Y-146859251D01*
X123654897Y-147756892D01*
X123008623Y-148651789D01*
X122338088Y-149543850D01*
X121643374Y-150432985D01*
X120924566Y-151319103D01*
X120181746Y-152202111D01*
X119414997Y-153081920D01*
X118624402Y-153958437D01*
X117810045Y-154831572D01*
X116972009Y-155701233D01*
X116110376Y-156567329D01*
X115225230Y-157429769D01*
X114316654Y-158288461D01*
X113384731Y-159143315D01*
X112429544Y-159994239D01*
X111451176Y-160841141D01*
X110449711Y-161683932D01*
X109425232Y-162522518D01*
X108377821Y-163356810D01*
X107743123Y-163851634D01*
X106660998Y-164676948D01*
X105556304Y-165496574D01*
X104430927Y-166309320D01*
X103286754Y-167113994D01*
X102125671Y-167909403D01*
X100949565Y-168694356D01*
X99760322Y-169467659D01*
X98559829Y-170228121D01*
X97349972Y-170974549D01*
X96132638Y-171705751D01*
X94909712Y-172420534D01*
X93683082Y-173117707D01*
X92454635Y-173796076D01*
X91226255Y-174454450D01*
X89999831Y-175091637D01*
X89790308Y-175198457D01*
X89663045Y-175262879D01*
X89528811Y-175330318D01*
X89389384Y-175399913D01*
X89246542Y-175470806D01*
X89102063Y-175542138D01*
X88957724Y-175613048D01*
X88815304Y-175682678D01*
X88676581Y-175750167D01*
X88543332Y-175814657D01*
X88417335Y-175875288D01*
X88300368Y-175931200D01*
X88194209Y-175981535D01*
X88100636Y-176025432D01*
X88021426Y-176062033D01*
X87958359Y-176090478D01*
X87913210Y-176109907D01*
X87887760Y-176119461D01*
X87883292Y-176120317D01*
X87868413Y-176114882D01*
X87834596Y-176100258D01*
X87785317Y-176078021D01*
X87724051Y-176049747D01*
X87654276Y-176017013D01*
X87627019Y-176004096D01*
X87030460Y-175716966D01*
X86416948Y-175414534D01*
X85788305Y-175097801D01*
X85146353Y-174767769D01*
X84492913Y-174425437D01*
X83829809Y-174071807D01*
X83158861Y-173707879D01*
X82481892Y-173334655D01*
X81800724Y-172953136D01*
X81117179Y-172564323D01*
X80433078Y-172169216D01*
X79750245Y-171768816D01*
X79070500Y-171364125D01*
X78395666Y-170956143D01*
X78022761Y-170727947D01*
X76803394Y-169968613D01*
X75601023Y-169200029D01*
X74416062Y-168422523D01*
X73248922Y-167636423D01*
X72100018Y-166842060D01*
X70969761Y-166039761D01*
X69858566Y-165229856D01*
X68766846Y-164412673D01*
X67695012Y-163588541D01*
X66643479Y-162757790D01*
X65612660Y-161920747D01*
X64602967Y-161077743D01*
X63614813Y-160229105D01*
X62648613Y-159375163D01*
X61704778Y-158516246D01*
X60783721Y-157652682D01*
X59885857Y-156784800D01*
X59011598Y-155912930D01*
X58161356Y-155037399D01*
X57688883Y-154538179D01*
X56891683Y-153673783D01*
X56117900Y-152806308D01*
X55367614Y-151935876D01*
X54640908Y-151062611D01*
X53937863Y-150186634D01*
X53258560Y-149308068D01*
X52603079Y-148427036D01*
X51971504Y-147543661D01*
X51363914Y-146658065D01*
X50780391Y-145770371D01*
X50221017Y-144880701D01*
X49685872Y-143989178D01*
X49175038Y-143095925D01*
X48688597Y-142201065D01*
X48226629Y-141304719D01*
X47789216Y-140407011D01*
X47376440Y-139508064D01*
X46988381Y-138607999D01*
X46763907Y-138058639D01*
X46413382Y-137151480D01*
X46087686Y-136244306D01*
X45786783Y-135336958D01*
X45510636Y-134429278D01*
X45259209Y-133521107D01*
X45032465Y-132612287D01*
X44830370Y-131702659D01*
X44652885Y-130792065D01*
X44499976Y-129880346D01*
X44371606Y-128967345D01*
X44267739Y-128052903D01*
X44188338Y-127136861D01*
X44156589Y-126657856D01*
X44147029Y-126493408D01*
X44138742Y-126342707D01*
X44131641Y-126202402D01*
X44125639Y-126069140D01*
X44120647Y-125939568D01*
X44116578Y-125810334D01*
X44113344Y-125678085D01*
X44110859Y-125539468D01*
X44109034Y-125391132D01*
X44107781Y-125229722D01*
X44107014Y-125051888D01*
X44106645Y-124854276D01*
X44106581Y-124743221D01*
X44106653Y-124542804D01*
X44107023Y-124364297D01*
X44107774Y-124204746D01*
X44108990Y-124061195D01*
X44110756Y-123930690D01*
X44113154Y-123810277D01*
X44116270Y-123697001D01*
X44120186Y-123587907D01*
X44124987Y-123480041D01*
X44130757Y-123370448D01*
X44137578Y-123256174D01*
X44145536Y-123134263D01*
X44154714Y-123001762D01*
X44156858Y-122971561D01*
X44222950Y-122201284D01*
X44311252Y-121431846D01*
X44421409Y-120664439D01*
X44553069Y-119900253D01*
X44705880Y-119140479D01*
X44879488Y-118386306D01*
X45073540Y-117638926D01*
X45287683Y-116899529D01*
X45521564Y-116169305D01*
X45774831Y-115449445D01*
X46047130Y-114741139D01*
X46338109Y-114045578D01*
X46647414Y-113363952D01*
X46974693Y-112697452D01*
X47319593Y-112047268D01*
X47481002Y-111759362D01*
X47852618Y-111131193D01*
X48240450Y-110521379D01*
X48644356Y-109930063D01*
X49064193Y-109357392D01*
X49499819Y-108803508D01*
X49951090Y-108268557D01*
X50417864Y-107752682D01*
X50899999Y-107256028D01*
X51397352Y-106778739D01*
X51909780Y-106320960D01*
X52437141Y-105882835D01*
X52979291Y-105464508D01*
X53536090Y-105066124D01*
X54107393Y-104687827D01*
X54693058Y-104329761D01*
X54991189Y-104158384D01*
X55599143Y-103830374D01*
X56220773Y-103523114D01*
X56856027Y-103236615D01*
X57504858Y-102970894D01*
X58167217Y-102725962D01*
X58843052Y-102501834D01*
X59532316Y-102298524D01*
X60234959Y-102116046D01*
X60950931Y-101954414D01*
X61680183Y-101813641D01*
X62422666Y-101693742D01*
X63178330Y-101594730D01*
X63947126Y-101516619D01*
X64558150Y-101470062D01*
X64704250Y-101460707D01*
X64838625Y-101452556D01*
X64964269Y-101445530D01*
X65084174Y-101439548D01*
X65201332Y-101434530D01*
X65318737Y-101430396D01*
X65439381Y-101427067D01*
X65566257Y-101424461D01*
X65702358Y-101422499D01*
X65850677Y-101421101D01*
X66014206Y-101420186D01*
X66195938Y-101419675D01*
X66398866Y-101419487D01*
X66447920Y-101419481D01*
X66649645Y-101419583D01*
X66829397Y-101419943D01*
X66990066Y-101420640D01*
X67134543Y-101421755D01*
X67265719Y-101423367D01*
X67386485Y-101425557D01*
X67499733Y-101428405D01*
X67608353Y-101431990D01*
X67715236Y-101436393D01*
X67823273Y-101441694D01*
X67935356Y-101447973D01*
X68054374Y-101455309D01*
X68183220Y-101463784D01*
X68275526Y-101470072D01*
X69059686Y-101536369D01*
X69838567Y-101626919D01*
X70611936Y-101741628D01*
X71379555Y-101880399D01*
X72141189Y-102043137D01*
X72896602Y-102229746D01*
X73645560Y-102440132D01*
X74387825Y-102674198D01*
X75123163Y-102931850D01*
X75851337Y-103212991D01*
X76572113Y-103517527D01*
X77285254Y-103845362D01*
X77990524Y-104196401D01*
X78687688Y-104570547D01*
X79376511Y-104967706D01*
X80056756Y-105387782D01*
X80728188Y-105830680D01*
X81390571Y-106296305D01*
X82043670Y-106784560D01*
X82687249Y-107295351D01*
X82713315Y-107316679D01*
X83290428Y-107803167D01*
X83860324Y-108310823D01*
X84420040Y-108836724D01*
X84966614Y-109377951D01*
X85497082Y-109931580D01*
X86008483Y-110494691D01*
X86422096Y-110974009D01*
X86587480Y-111172775D01*
X86753807Y-111377329D01*
X86918958Y-111584875D01*
X87080814Y-111792618D01*
X87237256Y-111997764D01*
X87386165Y-112197517D01*
X87525422Y-112389084D01*
X87652908Y-112569668D01*
X87766504Y-112736476D01*
X87819726Y-112817374D01*
X87847561Y-112859305D01*
X87870411Y-112891918D01*
X87884956Y-112910559D01*
X87888106Y-112913188D01*
X87897134Y-112903465D01*
X87916163Y-112877398D01*
X87941870Y-112839639D01*
X87956486Y-112817374D01*
X88061965Y-112658894D01*
X88182443Y-112485173D01*
X88315802Y-112299008D01*
X88459922Y-112103192D01*
X88612685Y-111900521D01*
X88771971Y-111693789D01*
X88935661Y-111485791D01*
X89101637Y-111279322D01*
X89267779Y-111077177D01*
X89354116Y-110974009D01*
X89868036Y-110381324D01*
X90399806Y-109802033D01*
X90948397Y-109236937D01*
X91512785Y-108686836D01*
X92091942Y-108152532D01*
X92684842Y-107634826D01*
X93290460Y-107134519D01*
X93907767Y-106652413D01*
X94535739Y-106189309D01*
X95173348Y-105746008D01*
X95819569Y-105323311D01*
X96473375Y-104922019D01*
X97133739Y-104542934D01*
X97799636Y-104186857D01*
X98470038Y-103854589D01*
X98480764Y-103849486D01*
X99203887Y-103518610D01*
X99929897Y-103212348D01*
X100659284Y-102930564D01*
X101392538Y-102673123D01*
X102130148Y-102439889D01*
X102872605Y-102230727D01*
X103620397Y-102045500D01*
X104374016Y-101884074D01*
X105133950Y-101746313D01*
X105900690Y-101632081D01*
X106674726Y-101541243D01*
X106897699Y-101519529D01*
X107094110Y-101501665D01*
X107276894Y-101485974D01*
X107449226Y-101472327D01*
X107614278Y-101460592D01*
X107775225Y-101450639D01*
X107935239Y-101442337D01*
X108097495Y-101435556D01*
X108265165Y-101430165D01*
X108441423Y-101426033D01*
X108629442Y-101423030D01*
X108832396Y-101421024D01*
X109053458Y-101419887D01*
X109295801Y-101419486D01*
X109328292Y-101419481D01*
X109536419Y-101419607D01*
%TD*%
M02*
