%TF.GenerationSoftware,KiCad,Pcbnew,8.0.5*%
%TF.CreationDate,2024-09-25T11:06:08-04:00*%
%TF.ProjectId,HeartLEDTHT,48656172-744c-4454-9454-48542e6b6963,rev?*%
%TF.SameCoordinates,Original*%
%TF.FileFunction,Soldermask,Top*%
%TF.FilePolarity,Negative*%
%FSLAX46Y46*%
G04 Gerber Fmt 4.6, Leading zero omitted, Abs format (unit mm)*
G04 Created by KiCad (PCBNEW 8.0.5) date 2024-09-25 11:06:08*
%MOMM*%
%LPD*%
G01*
G04 APERTURE LIST*
%ADD10R,1.800000X1.800000*%
%ADD11C,1.800000*%
%ADD12C,1.600000*%
%ADD13O,1.600000X1.600000*%
%ADD14R,1.600000X1.600000*%
%ADD15R,1.050000X1.500000*%
%ADD16O,1.050000X1.500000*%
%ADD17C,4.300000*%
%ADD18C,0.900000*%
G04 APERTURE END LIST*
D10*
%TO.C,D3*%
X49210000Y-117750000D03*
D11*
X51750000Y-117750000D03*
%TD*%
D12*
%TO.C,R2*%
X103670000Y-119750000D03*
D13*
X113830000Y-119750000D03*
%TD*%
D12*
%TO.C,R1*%
X72990000Y-119750000D03*
D13*
X62830000Y-119750000D03*
%TD*%
D12*
%TO.C,R4*%
X103750000Y-125750000D03*
D13*
X113910000Y-125750000D03*
%TD*%
D12*
%TO.C,R9*%
X72910000Y-137750000D03*
D13*
X62750000Y-137750000D03*
%TD*%
D10*
%TO.C,D6*%
X123210000Y-135000000D03*
D11*
X125750000Y-135000000D03*
%TD*%
D12*
%TO.C,R6*%
X97500000Y-125840000D03*
D13*
X97500000Y-136000000D03*
%TD*%
D10*
%TO.C,D4*%
X123960000Y-118000000D03*
D11*
X126500000Y-118000000D03*
%TD*%
D14*
%TO.C,C1*%
X104000000Y-147000000D03*
D12*
X106000000Y-147000000D03*
%TD*%
D10*
%TO.C,D8*%
X116710000Y-145250000D03*
D11*
X119250000Y-145250000D03*
%TD*%
D12*
%TO.C,R3*%
X72910000Y-125750000D03*
D13*
X62750000Y-125750000D03*
%TD*%
D12*
%TO.C,R10*%
X103670000Y-137750000D03*
D13*
X113830000Y-137750000D03*
%TD*%
D15*
%TO.C,Q2*%
X80000000Y-143000000D03*
D16*
X78730000Y-143000000D03*
X77460000Y-143000000D03*
%TD*%
D17*
%TO.C,H2*%
X96750000Y-112250000D03*
%TD*%
%TO.C,H1*%
X79000000Y-112250000D03*
%TD*%
D14*
%TO.C,C2*%
X70000000Y-147000000D03*
D12*
X72000000Y-147000000D03*
%TD*%
D10*
%TO.C,D5*%
X49975000Y-134500000D03*
D11*
X52515000Y-134500000D03*
%TD*%
D12*
%TO.C,R5*%
X80000000Y-125670000D03*
D13*
X80000000Y-135830000D03*
%TD*%
D10*
%TO.C,D2*%
X109460000Y-109000000D03*
D11*
X112000000Y-109000000D03*
%TD*%
D15*
%TO.C,Q1*%
X98540000Y-143000000D03*
D16*
X97270000Y-143000000D03*
X96000000Y-143000000D03*
%TD*%
D12*
%TO.C,R8*%
X103750000Y-131750000D03*
D13*
X113910000Y-131750000D03*
%TD*%
D10*
%TO.C,D7*%
X56960000Y-146000000D03*
D11*
X59500000Y-146000000D03*
%TD*%
D12*
%TO.C,R7*%
X73080000Y-131750000D03*
D13*
X62920000Y-131750000D03*
%TD*%
D10*
%TO.C,D1*%
X63960000Y-109000000D03*
D11*
X66500000Y-109000000D03*
%TD*%
D18*
%TO.C,SW1*%
X114222106Y-151759146D03*
X109168722Y-156309234D03*
%TD*%
M02*
