%TF.GenerationSoftware,KiCad,Pcbnew,8.0.5*%
%TF.CreationDate,2024-09-25T11:06:08-04:00*%
%TF.ProjectId,HeartLEDTHT,48656172-744c-4454-9454-48542e6b6963,rev?*%
%TF.SameCoordinates,Original*%
%TF.FileFunction,Legend,Bot*%
%TF.FilePolarity,Positive*%
%FSLAX46Y46*%
G04 Gerber Fmt 4.6, Leading zero omitted, Abs format (unit mm)*
G04 Created by KiCad (PCBNEW 8.0.5) date 2024-09-25 11:06:08*
%MOMM*%
%LPD*%
G01*
G04 APERTURE LIST*
%ADD10C,0.150000*%
%ADD11C,0.120000*%
G04 APERTURE END LIST*
D10*
X106463329Y-154510434D02*
X106389029Y-154641412D01*
X106389029Y-154641412D02*
X106212089Y-154800729D01*
X106212089Y-154800729D02*
X106109450Y-154829068D01*
X106109450Y-154829068D02*
X106042199Y-154825543D01*
X106042199Y-154825543D02*
X105943085Y-154786631D01*
X105943085Y-154786631D02*
X105879358Y-154715855D01*
X105879358Y-154715855D02*
X105851019Y-154613216D01*
X105851019Y-154613216D02*
X105854543Y-154545965D01*
X105854543Y-154545965D02*
X105893456Y-154446851D01*
X105893456Y-154446851D02*
X106003144Y-154284009D01*
X106003144Y-154284009D02*
X106042056Y-154184895D01*
X106042056Y-154184895D02*
X106045581Y-154117643D01*
X106045581Y-154117643D02*
X106017242Y-154015004D01*
X106017242Y-154015004D02*
X105953515Y-153944229D01*
X105953515Y-153944229D02*
X105854400Y-153905316D01*
X105854400Y-153905316D02*
X105787149Y-153901792D01*
X105787149Y-153901792D02*
X105684510Y-153930131D01*
X105684510Y-153930131D02*
X105507571Y-154089448D01*
X105507571Y-154089448D02*
X105433271Y-154220426D01*
X105153692Y-154408081D02*
X105645884Y-155310543D01*
X105645884Y-155310543D02*
X105026382Y-154907179D01*
X105026382Y-154907179D02*
X105362781Y-155565450D01*
X105362781Y-155565450D02*
X104516711Y-154981622D01*
X104513473Y-156330170D02*
X104938127Y-155947810D01*
X104725800Y-156138990D02*
X104056669Y-155395845D01*
X104056669Y-155395845D02*
X104223035Y-155438282D01*
X104223035Y-155438282D02*
X104357537Y-155445331D01*
X104357537Y-155445331D02*
X104460177Y-155416992D01*
X97885714Y-169231009D02*
X97742857Y-169278628D01*
X97742857Y-169278628D02*
X97695238Y-169326247D01*
X97695238Y-169326247D02*
X97647619Y-169421485D01*
X97647619Y-169421485D02*
X97647619Y-169564342D01*
X97647619Y-169564342D02*
X97695238Y-169659580D01*
X97695238Y-169659580D02*
X97742857Y-169707200D01*
X97742857Y-169707200D02*
X97838095Y-169754819D01*
X97838095Y-169754819D02*
X98219047Y-169754819D01*
X98219047Y-169754819D02*
X98219047Y-168754819D01*
X98219047Y-168754819D02*
X97885714Y-168754819D01*
X97885714Y-168754819D02*
X97790476Y-168802438D01*
X97790476Y-168802438D02*
X97742857Y-168850057D01*
X97742857Y-168850057D02*
X97695238Y-168945295D01*
X97695238Y-168945295D02*
X97695238Y-169040533D01*
X97695238Y-169040533D02*
X97742857Y-169135771D01*
X97742857Y-169135771D02*
X97790476Y-169183390D01*
X97790476Y-169183390D02*
X97885714Y-169231009D01*
X97885714Y-169231009D02*
X98219047Y-169231009D01*
X97361904Y-168754819D02*
X96790476Y-168754819D01*
X97076190Y-169754819D02*
X97076190Y-168754819D01*
X95933333Y-169754819D02*
X96504761Y-169754819D01*
X96219047Y-169754819D02*
X96219047Y-168754819D01*
X96219047Y-168754819D02*
X96314285Y-168897676D01*
X96314285Y-168897676D02*
X96409523Y-168992914D01*
X96409523Y-168992914D02*
X96504761Y-169040533D01*
D11*
%TO.C,SW1*%
X107005600Y-155700215D02*
X107897373Y-154897258D01*
X108544601Y-157409449D02*
X107005600Y-155700215D01*
X109755236Y-153224431D02*
X109235034Y-153692824D01*
X111613098Y-151551605D02*
X111092895Y-152019998D01*
X112950758Y-150347171D02*
X113842532Y-149544215D01*
X113842532Y-149544215D02*
X115381532Y-151253448D01*
%TO.C,BT1*%
X72450000Y-157750000D02*
X72450000Y-163250000D01*
X72450000Y-163250000D02*
X77250000Y-163250000D01*
X77250000Y-157750000D02*
X72450000Y-157750000D01*
X77250000Y-166550000D02*
X84050000Y-171350000D01*
X84050000Y-171350000D02*
X91950000Y-171350000D01*
X84150000Y-151000000D02*
X77450000Y-151000000D01*
X91850000Y-151000000D02*
X98550000Y-151000000D01*
X91950000Y-171350000D02*
X98800000Y-166550000D01*
X98750000Y-163250000D02*
X103550000Y-163250000D01*
X103550000Y-157750000D02*
X98750000Y-157750000D01*
X103550000Y-163250000D02*
X103550000Y-157750000D01*
X84150000Y-151000000D02*
G75*
G02*
X91846385Y-150998536I3850000J-9500000D01*
G01*
%TD*%
M02*
