M48
; DRILL file {KiCad 8.0.5} date 2024-09-25T11:06:14-0400
; FORMAT={-:-/ absolute / metric / decimal}
; #@! TF.CreationDate,2024-09-25T11:06:14-04:00
; #@! TF.GenerationSoftware,Kicad,Pcbnew,8.0.5
; #@! TF.FileFunction,MixedPlating,1,2
FMAT,2
METRIC
; #@! TA.AperFunction,Plated,PTH,ViaDrill
T1C0.381
; #@! TA.AperFunction,Plated,PTH,ComponentDrill
T2C0.750
; #@! TA.AperFunction,Plated,PTH,ComponentDrill
T3C0.800
; #@! TA.AperFunction,Plated,PTH,ComponentDrill
T4C0.900
; #@! TA.AperFunction,NonPlated,NPTH,ComponentDrill
T5C0.900
; #@! TA.AperFunction,NonPlated,NPTH,ComponentDrill
T6C4.300
%
G90
G05
T1
X70.5Y-143.5
X74.0Y-141.25
X75.2Y-155.6
X75.2Y-156.7
X76.75Y-147.0
T2
X77.46Y-143.0
X78.73Y-143.0
X80.0Y-143.0
X96.0Y-143.0
X97.27Y-143.0
X98.54Y-143.0
T3
X62.75Y-125.75
X62.75Y-137.75
X62.83Y-119.75
X62.92Y-131.75
X70.0Y-147.0
X72.0Y-147.0
X72.91Y-125.75
X72.91Y-137.75
X72.99Y-119.75
X73.08Y-131.75
X80.0Y-125.67
X80.0Y-135.83
X97.5Y-125.84
X97.5Y-136.0
X103.67Y-119.75
X103.67Y-137.75
X103.75Y-125.75
X103.75Y-131.75
X104.0Y-147.0
X106.0Y-147.0
X113.83Y-119.75
X113.83Y-137.75
X113.91Y-125.75
X113.91Y-131.75
T4
X49.21Y-117.75
X49.975Y-134.5
X51.75Y-117.75
X52.515Y-134.5
X56.96Y-146.0
X59.5Y-146.0
X63.96Y-109.0
X66.5Y-109.0
X109.46Y-109.0
X112.0Y-109.0
X116.71Y-145.25
X119.25Y-145.25
X123.21Y-135.0
X123.96Y-118.0
X125.75Y-135.0
X126.5Y-118.0
T5
X109.169Y-156.309
X114.222Y-151.759
T6
X79.0Y-112.25
X96.75Y-112.25
M30
