M48
; DRILL file {KiCad 8.0.5} date 2024-09-30T23:59:36-0400
; FORMAT={-:-/ absolute / inch / decimal}
; #@! TF.CreationDate,2024-09-30T23:59:36-04:00
; #@! TF.GenerationSoftware,Kicad,Pcbnew,8.0.5
; #@! TF.FileFunction,Plated,1,2,PTH
FMAT,2
INCH
; #@! TA.AperFunction,Plated,PTH,ViaDrill
T1C0.0150
; #@! TA.AperFunction,Plated,PTH,ComponentDrill
T2C0.0315
; #@! TA.AperFunction,Plated,PTH,ComponentDrill
T3C0.0354
; #@! TA.AperFunction,Plated,PTH,ComponentDrill
T4C0.0394
; #@! TA.AperFunction,Plated,PTH,ComponentDrill
T5C0.0433
; #@! TA.AperFunction,Plated,PTH,ComponentDrill
T6C0.0472
; #@! TA.AperFunction,Plated,PTH,ComponentDrill
T7C0.0512
; #@! TA.AperFunction,Plated,PTH,ComponentDrill
T8C0.0520
; #@! TA.AperFunction,Plated,PTH,ComponentDrill
T9C0.0630
%
G90
G05
T1
X4.0354Y-3.4449
X4.0354Y-3.6417
X4.0354Y-4.5276
X4.3307Y-2.1654
X4.3307Y-3.937
X4.3307Y-5.0
X4.3307Y-5.0787
X4.5276Y-2.9528
X4.5276Y-3.1496
X4.5276Y-3.5433
X4.5276Y-4.0354
X4.5276Y-4.626
X4.7047Y-3.1102
X4.7244Y-2.1654
X4.7244Y-2.5591
X4.7244Y-3.937
X4.9213Y-4.7244
X4.9606Y-2.9528
X4.9606Y-3.0709
X4.9606Y-3.2283
X4.9606Y-3.937
X4.9606Y-4.0157
X5.1181Y-4.0551
X5.1575Y-3.3071
X5.1575Y-3.4646
X5.1575Y-3.622
X5.1575Y-3.7795
X5.1575Y-3.8583
X5.1969Y-5.0394
X5.2362Y-3.4252
X5.2362Y-3.5433
X5.2362Y-4.0551
X5.2756Y-3.9764
X5.315Y-2.5591
X5.315Y-2.9528
X5.315Y-5.0394
X5.3937Y-4.0551
X5.4331Y-3.937
X5.4724Y-3.3465
X5.4724Y-3.4252
X5.4724Y-3.5433
X5.5118Y-2.1654
X5.5118Y-4.7244
X5.5512Y-3.5433
X5.5906Y-3.3465
X5.5906Y-3.8583
X5.6299Y-3.1496
X5.6299Y-3.7008
X5.7087Y-2.9528
X5.7087Y-3.5433
X5.7087Y-3.937
X5.7087Y-4.3307
X5.748Y-5.0394
X5.9055Y-2.1654
X5.9055Y-2.5591
X5.9055Y-4.7244
X6.1024Y-2.9528
X6.1024Y-3.1496
X6.1024Y-3.5433
X6.1024Y-3.937
X6.1024Y-4.3307
X6.2992Y-2.1654
X6.2992Y-2.5591
X6.2992Y-4.7244
X6.4961Y-2.9528
X6.4961Y-3.1496
X6.4961Y-3.5433
X6.4961Y-3.937
X6.4961Y-4.3307
X6.6929Y-2.1654
X6.6929Y-2.5591
X6.7717Y-5.0394
X6.811Y-2.6772
X6.811Y-2.9134
X6.8898Y-3.1496
X6.8898Y-3.5433
X6.8898Y-3.937
X6.8898Y-4.7244
T2
X4.5866Y-3.2333
X4.5866Y-3.3976
X4.5866Y-3.561
X4.5866Y-3.7323
X4.7835Y-3.2333
X4.7835Y-3.3976
X4.7835Y-3.561
X4.7835Y-3.7323
X5.0362Y-5.0354
X5.0382Y-4.8415
X5.0543Y-3.0567
X5.0543Y-3.1567
X5.0543Y-3.2567
X5.0543Y-3.3567
X5.0543Y-3.4567
X5.0543Y-3.5567
X5.0543Y-3.6567
X5.0543Y-3.7567
X5.0543Y-3.8567
X5.0543Y-3.9567
X5.1142Y-2.8622
X5.1594Y-4.2087
X5.1594Y-4.4055
X5.1945Y-2.4843
X5.1957Y-2.3209
X5.311Y-2.8622
X5.3543Y-3.0567
X5.3543Y-3.1567
X5.3543Y-3.2567
X5.3543Y-3.3567
X5.3543Y-3.4567
X5.3543Y-3.5567
X5.3543Y-3.6567
X5.3543Y-3.7567
X5.3543Y-3.8567
X5.3543Y-3.9567
X5.4362Y-5.0354
X5.4382Y-4.8415
X5.5413Y-3.0591
X5.5413Y-3.2559
X5.5413Y-3.4299
X5.5413Y-3.6268
X5.5413Y-3.7579
X5.5413Y-3.9547
X5.5945Y-2.4843
X5.5957Y-2.3209
X5.876Y-3.4744
X5.876Y-3.5728
X5.997Y-4.8533
X5.997Y-4.9518
X6.2234Y-4.814
X6.2234Y-5.0108
X6.2303Y-3.0531
X6.2303Y-3.4531
X6.2303Y-3.6878
X6.2303Y-4.0878
X6.4173Y-3.0531
X6.4173Y-3.25
X6.4252Y-3.8917
X6.4252Y-4.0886
T3
X4.1962Y-3.3465
X4.1962Y-3.5039
X4.1962Y-3.6614
X5.6614Y-4.8596
X5.6614Y-4.9596
T4
X4.6181Y-3.0669
X4.7402Y-4.3071
X4.7835Y-3.0669
X4.9313Y-2.4843
X4.9325Y-2.3209
X4.9331Y-2.1102
X4.937Y-4.3071
X5.0313Y-2.4843
X5.0325Y-2.3209
X5.1102Y-2.1102
X5.3819Y-4.3071
X5.5787Y-4.3071
X6.5266Y-4.752
X6.5266Y-4.9488
X6.7178Y-4.2913
X6.7257Y-2.815
X6.9147Y-4.2913
X6.9154Y-4.5984
X6.9225Y-2.815
X6.9232Y-2.5
T5
X4.4323Y-4.8555
X4.4323Y-4.9457
X4.4323Y-5.0358
X4.6772Y-4.6354
X4.6772Y-5.0354
T6
X4.0288Y-3.2677
X4.0288Y-3.7402
X4.1929Y-2.874
X4.1929Y-2.9724
X4.1929Y-3.0709
X4.2651Y-3.2677
X4.2651Y-3.7402
X4.2913Y-2.874
X4.2913Y-2.9724
X4.2913Y-3.0709
T7
X5.7776Y-3.0512
X5.7776Y-4.0846
X5.9744Y-3.0512
X5.9744Y-4.0846
T8
X4.2126Y-3.9567
X4.2126Y-4.1535
X6.811Y-3.248
X6.811Y-3.4449
X6.811Y-3.6417
X6.811Y-3.8386
T9
X4.2835Y-4.5079
X4.4016Y-4.6929
X4.5197Y-4.5079
T4
G00X4.1772Y-2.5394
M15
G01X4.1772Y-2.5
M16
G05
G00X4.2717Y-2.4606
M15
G01X4.2717Y-2.4213
M16
G05
G00X4.4882Y-2.4606
M15
G01X4.4882Y-2.4213
M16
G05
M30
