%TF.GenerationSoftware,KiCad,Pcbnew,8.0.5*%
%TF.CreationDate,2024-09-30T23:59:36-04:00*%
%TF.ProjectId,TPA3122D2_Amplifier_lcsc,54504133-3132-4324-9432-5f416d706c69,rev?*%
%TF.SameCoordinates,Original*%
%TF.FileFunction,Soldermask,Top*%
%TF.FilePolarity,Negative*%
%FSLAX46Y46*%
G04 Gerber Fmt 4.6, Leading zero omitted, Abs format (unit mm)*
G04 Created by KiCad (PCBNEW 8.0.5) date 2024-09-30 23:59:36*
%MOMM*%
%LPD*%
G01*
G04 APERTURE LIST*
%ADD10R,1.700000X1.700000*%
%ADD11O,1.700000X1.700000*%
%ADD12C,1.600000*%
%ADD13O,1.600000X1.600000*%
%ADD14R,2.000000X2.000000*%
%ADD15C,2.000000*%
%ADD16C,2.600000*%
%ADD17R,2.600000X2.600000*%
%ADD18C,3.200000*%
%ADD19O,1.800000X2.800000*%
%ADD20R,3.960000X1.980000*%
%ADD21O,3.960000X1.980000*%
%ADD22R,2.400000X1.600000*%
%ADD23O,2.400000X1.600000*%
%ADD24C,1.700000*%
%ADD25R,2.200000X2.200000*%
%ADD26O,2.200000X2.200000*%
%ADD27R,1.800000X1.717500*%
%ADD28O,1.800000X1.717500*%
%ADD29R,1.600000X1.600000*%
%ADD30R,1.800000X1.800000*%
%ADD31C,1.800000*%
G04 APERTURE END LIST*
D10*
%TO.C,JP2*%
X127825000Y-58950000D03*
D11*
X125285000Y-58950000D03*
%TD*%
D12*
%TO.C,C14*%
X131050000Y-111900000D03*
X131050000Y-106900000D03*
%TD*%
%TO.C,R4*%
X131970000Y-58950000D03*
D13*
X142130000Y-58950000D03*
%TD*%
D12*
%TO.C,R1*%
X127970000Y-122975000D03*
D13*
X138130000Y-122975000D03*
%TD*%
D10*
%TO.C,JP1*%
X125255000Y-63100000D03*
D11*
X127795000Y-63100000D03*
%TD*%
D14*
%TO.C,C10*%
X170832323Y-71500000D03*
D15*
X175832323Y-71500000D03*
%TD*%
D16*
%TO.C,L1*%
X146750000Y-77500000D03*
X151750000Y-77500000D03*
%TD*%
D14*
%TO.C,C1*%
X165775000Y-125700000D03*
D15*
X165775000Y-120700000D03*
%TD*%
%TO.C,TP1*%
X125300000Y-53600000D03*
%TD*%
D16*
%TO.C,L2*%
X146750000Y-103750000D03*
X151750000Y-103750000D03*
%TD*%
D17*
%TO.C,J1*%
X114800000Y-114500000D03*
D16*
X108800000Y-114500000D03*
X111800000Y-119200000D03*
%TD*%
D15*
%TO.C,TP5*%
X175850000Y-63500000D03*
%TD*%
D14*
%TO.C,C13*%
X120400000Y-109400000D03*
D15*
X125400000Y-109400000D03*
%TD*%
%TO.C,TP3*%
X117300000Y-77900000D03*
%TD*%
D18*
%TO.C,H2*%
X175000000Y-125000000D03*
%TD*%
D12*
%TO.C,C16*%
X140750000Y-92120000D03*
X140750000Y-87120000D03*
%TD*%
%TO.C,C9*%
X140750000Y-95450000D03*
X140750000Y-100450000D03*
%TD*%
D15*
%TO.C,TP4*%
X121500000Y-77900000D03*
%TD*%
D19*
%TO.C,J3*%
X114000000Y-62000000D03*
X106100000Y-64000000D03*
X108500000Y-62000000D03*
%TD*%
D20*
%TO.C,J2*%
X107000000Y-105500000D03*
D21*
X107000000Y-100500000D03*
%TD*%
D22*
%TO.C,U1*%
X128380000Y-77640000D03*
D23*
X128380000Y-80180000D03*
X128380000Y-82720000D03*
X128380000Y-85260000D03*
X128380000Y-87800000D03*
X128380000Y-90340000D03*
X128380000Y-92880000D03*
X128380000Y-95420000D03*
X128380000Y-97960000D03*
X128380000Y-100500000D03*
X136000000Y-100500000D03*
X136000000Y-97960000D03*
X136000000Y-95420000D03*
X136000000Y-92880000D03*
X136000000Y-90340000D03*
X136000000Y-87800000D03*
X136000000Y-85260000D03*
X136000000Y-82720000D03*
X136000000Y-80180000D03*
X136000000Y-77640000D03*
%TD*%
D12*
%TO.C,C4*%
X121500000Y-94800000D03*
X116500000Y-94800000D03*
%TD*%
D15*
%TO.C,SW1*%
X108332500Y-83000000D03*
X102332500Y-83000000D03*
X108332500Y-95000000D03*
X102332500Y-95000000D03*
D24*
X106582500Y-85000000D03*
X106582500Y-89000000D03*
X106582500Y-93000000D03*
%TD*%
D25*
%TO.C,D1*%
X118800000Y-127900000D03*
D26*
X118800000Y-117740000D03*
%TD*%
D18*
%TO.C,H4*%
X175000000Y-55000000D03*
%TD*%
D12*
%TO.C,R2*%
X127920000Y-127900000D03*
D13*
X138080000Y-127900000D03*
%TD*%
D12*
%TO.C,C15*%
X129900000Y-72700000D03*
X134900000Y-72700000D03*
%TD*%
D20*
%TO.C,J4*%
X173000000Y-82500000D03*
D21*
X173000000Y-87500000D03*
X173000000Y-92500000D03*
X173000000Y-97500000D03*
%TD*%
D12*
%TO.C,C3*%
X158075000Y-127275000D03*
X158075000Y-122275000D03*
%TD*%
D27*
%TO.C,Q1*%
X112580000Y-123330000D03*
D28*
X112580000Y-125620000D03*
X112580000Y-127910000D03*
%TD*%
D15*
%TO.C,TP2*%
X129800000Y-53600000D03*
%TD*%
D18*
%TO.C,H3*%
X105000000Y-55000000D03*
%TD*%
D15*
%TO.C,RV1*%
X109000000Y-78000000D03*
X109000000Y-75500000D03*
X109000000Y-73000000D03*
X106500000Y-78000000D03*
X106500000Y-75500000D03*
X106500000Y-73000000D03*
%TD*%
D29*
%TO.C,C17*%
X149250000Y-90750000D03*
D12*
X149250000Y-88250000D03*
%TD*%
D14*
%TO.C,C12*%
X136700000Y-109400000D03*
D15*
X141700000Y-109400000D03*
%TD*%
%TO.C,TP6*%
X175650000Y-116800000D03*
%TD*%
D12*
%TO.C,C19*%
X116500000Y-86300000D03*
X121500000Y-86300000D03*
%TD*%
D14*
%TO.C,C11*%
X170632323Y-109000000D03*
D15*
X175632323Y-109000000D03*
%TD*%
D12*
%TO.C,R6*%
X158250000Y-93670000D03*
D13*
X158250000Y-103830000D03*
%TD*%
D18*
%TO.C,H1*%
X105000000Y-125000000D03*
%TD*%
D30*
%TO.C,D2*%
X143800000Y-123435000D03*
D31*
X143800000Y-125975000D03*
%TD*%
D12*
%TO.C,C8*%
X163200000Y-98850000D03*
X163200000Y-103850000D03*
%TD*%
%TO.C,C5*%
X121500000Y-90450000D03*
X116500000Y-90450000D03*
%TD*%
%TO.C,C18*%
X116500000Y-82125000D03*
X121500000Y-82125000D03*
%TD*%
%TO.C,C6*%
X140750000Y-82700000D03*
X140750000Y-77700000D03*
%TD*%
%TO.C,C7*%
X163000000Y-77550000D03*
X163000000Y-82550000D03*
%TD*%
%TO.C,R3*%
X142100000Y-63100000D03*
D13*
X131940000Y-63100000D03*
%TD*%
D12*
%TO.C,R5*%
X158250000Y-77550000D03*
D13*
X158250000Y-87710000D03*
%TD*%
D29*
%TO.C,C2*%
X152325000Y-125775000D03*
D12*
X152325000Y-123275000D03*
%TD*%
M02*
